<svg version="1.1" xmlns="http://www.w3.org/2000/svg" xmlns:xlink="http://www.w3.org/1999/xlink" width="149.16153" height="64.35903" viewBox="0,0,149.16153,64.35903"><g transform="translate(-352.69013,-195.67166)"><g data-paper-data="{&quot;isPaintingLayer&quot;:true}" fill-rule="nonzero" stroke-linejoin="miter" stroke-miterlimit="10" stroke-dasharray="" stroke-dashoffset="0" style="mix-blend-mode: normal"><g data-paper-data="{&quot;index&quot;:null}" stroke="#000000" stroke-width="2" stroke-linecap="butt"><path d="M437.18878,223.16215c-0.06702,0.15485 -0.13167,0.31066 -0.19366,0.46765c-0.85767,2.17223 -1.75163,4.28111 -2.80385,6.3843c-0.45442,0.9083 -0.92977,1.80457 -1.37203,2.70616c-11.11441,-3.61333 -20.30743,-6.17303 -17.92244,-11.34393c2.70489,-5.63732 11.11891,-1.88428 22.29197,1.78583z" data-paper-data="{&quot;index&quot;:null}" fill="#ffe4cb"/><path d="M451.23096,228.09626c3.7284,1.79748 1.25607,4.45252 0.69607,5.91027c-2.27928,2.06831 -2.32363,2.78963 -12.34693,0.83665c-8.29137,-1.61552 -23.07667,-5.49933 -23.1104,-5.50772c0.41979,-0.96252 4.95632,-9.91841 5.38596,-10.88836c1.00753,-2.27462 25.82468,7.93741 29.3753,9.64917z" data-paper-data="{&quot;index&quot;:null}" fill="#161617"/></g><path d="M483.05667,197.0829c2.31277,0.68471 5.86052,1.90874 8.46583,4.05628c3.63192,2.99379 6.17642,7.25635 7.58618,9.69254c4.30388,7.4374 1.33157,17.4605 -5.9818,24.29317c-3.00249,2.80515 -9.74153,7.1049 -13.58674,8.6998c-8.01813,3.32574 -15.28097,1.05925 -22.89728,-1.61981c-1.92836,-0.67829 -2.54814,3.21014 -4.90856,2.7257c-3.67769,-0.75477 -7.63525,-7.43438 -9.08869,-9.94605c-1.02917,-1.77848 -2.69068,-5.51378 -2.33492,-7.8412c0.34942,-2.28578 2.70382,-3.16227 3.06326,-5.08155c1.43346,-7.654 7.30377,-15.50288 16.07569,-19.14127c7.94254,-3.29438 15.26004,-8.30882 23.60704,-5.83758z" data-paper-data="{&quot;index&quot;:null}" fill="#161617" stroke="#000000" stroke-width="1.5" stroke-linecap="butt"/><path d="M365.20771,234.61949c1.11493,-1.62834 2.59121,-3.38773 3.26479,-4.58775c1.89715,0.05285 3.79307,0.08743 5.69456,0.05369c1.78656,-0.03169 3.5713,-0.06939 5.35599,-0.11867c0.33469,3.96758 0.45083,6.8298 0.12771,7.09981c-0.09984,0.08345 -0.28053,1.90527 -3.66765,2.27518c-1.94632,0.21255 -7.72056,0.73822 -10.09317,0.61067c-3.09506,-0.16637 -2.61982,-1.03561 -2.88328,-1.00213c-0.29268,0.03719 0.61595,-2.01588 2.20102,-4.33083z" data-paper-data="{&quot;index&quot;:null}" fill="#ffffff" stroke="#000000" stroke-width="2" stroke-linecap="butt"/><path d="M361.11575,235.47006c1.98742,1.11525 2.73709,2.16829 4.73398,2.21203c-0.00011,0.13571 -0.00011,0.27146 0.00006,0.4072c0.00299,2.457 0.00093,4.91392 -0.00494,7.37092c-0.0019,0.79121 0.00627,1.58217 0.02013,2.37299c-5.33425,0.15242 -9.2954,0.13918 -9.62802,-0.21152c-0.09479,-0.09995 -2.24371,-0.36699 -2.54683,-3.63011c-0.17415,-1.87506 -0.56674,-7.43254 -0.32146,-9.69833c0.31994,-2.95574 4.38963,-0.7072 7.74712,1.17683z" data-paper-data="{&quot;index&quot;:null}" fill="#ffffff" stroke="#000000" stroke-width="2" stroke-linecap="butt"/><path d="M369.86098,227.62198c0.05571,-0.03019 0.02397,-0.79027 1.66908,-1.83582c0.8721,-0.55426 2.95791,-1.09883 4.14724,-1.8549c2.00621,-1.2753 4.39997,-2.79648 6.96603,-4.42456c8.77609,-5.56816 23.00102,-0.65569 23.80615,5.50544c9.56334,-5.71926 -6.01631,16.63295 -6.01631,16.63295c0,0 -5.57948,-14.59477 -10.56003,-11.21653c-3.03115,2.05599 -5.73104,3.95978 -7.78345,5.53043c-2.53279,1.93825 -4.57073,2.94969 -4.77102,3.05825c-1.03658,0.56175 -3.74897,-2.42491 -6.0583,-6.67093c-2.30931,-4.24601 -2.43603,-4.16258 -1.39944,-4.72434z" data-paper-data="{&quot;index&quot;:null}" fill="#282833" stroke="#000000" stroke-width="1.5" stroke-linecap="butt"/><path d="M362.37802,234.62438c0.07491,0.00208 0.50264,-0.78694 2.80765,-0.88113c1.22191,-0.04993 3.67168,0.62233 5.33818,0.55408c12.42522,-0.50879 35.45361,-1.44261 42.93096,-1.54691c6.80161,-0.09488 10.01563,3.79 11.53342,7.57304c-0.12384,0.09195 -0.2457,0.18106 -0.36538,0.26586c-1.8055,1.27919 -5.40868,3.42231 -8.97292,6.07824c-1.76626,0.13223 -3.32936,0.00779 -5.02297,0.71605c-0.36926,0.15442 -0.72037,0.29746 -1.05842,0.4348c-13.05976,0.4551 -30.48358,1.24484 -39.80561,2.43393c-3.74756,0.47802 -6.43121,0.30703 -6.70049,0.29948c-1.39364,-0.03902 -2.34325,-4.65831 -2.12101,-10.3175c0.22224,-5.65919 0.04296,-5.64901 1.43662,-5.60999z" data-paper-data="{&quot;index&quot;:null}" fill="#282833" stroke="#000000" stroke-width="1.5" stroke-linecap="butt"/><path d="M446.38672,247.19662c-9.10078,1.49299 -34.09895,1.58711 -43.04241,1.57081c-0.01846,-2.04518 0.09648,-4.103 0.0984,-6.14358c0.00307,-3.31217 0.00618,-6.62435 0.00923,-9.93652c0.0031,-3.30671 -0.30674,-6.62882 -0.48551,-9.92736c-0.04621,-0.85232 -0.09236,-1.70465 -0.13858,-2.55699c9.38322,0.73735 37.85676,3.13168 46.97198,5.69993c8.19761,2.3097 9.97299,10.96721 9.97299,10.96721c0,0 1.41002,7.89915 -13.38614,10.32648z" data-paper-data="{&quot;index&quot;:null}" fill="#161617" stroke="#000000" stroke-width="2" stroke-linecap="butt"/><path d="M409.92738,236.72345l11.50656,-2.76469" data-paper-data="{&quot;index&quot;:null}" fill="none" stroke="#000000" stroke-width="2" stroke-linecap="round"/><path d="M419.00846,223.46439l-7.95145,-1.91391" data-paper-data="{&quot;index&quot;:null}" fill="none" stroke="#000000" stroke-width="2" stroke-linecap="round"/><path d="M455.31765,230.40336c2.46516,3.65902 2.17547,7.72425 -0.647,9.07995c-2.82248,1.3557 -7.10894,-0.51153 -9.57409,-4.17054c-2.46517,-3.65903 -2.42835,-6.67972 0.39413,-8.03542c2.82248,-1.3557 7.36181,-0.53301 9.82697,3.12602z" data-paper-data="{&quot;index&quot;:null}" fill="#161617" stroke="none" stroke-width="0" stroke-linecap="butt"/><path d="M447.347,227.47766c1.91015,-0.91748 4.95746,0.56341 6.8063,3.30767c1.84888,2.74427 1.79918,5.7127 -0.11097,6.63019c-1.91015,0.91748 -5.30984,-1.08643 -7.15869,-3.83071c-1.84887,-2.74426 -1.44679,-5.18966 0.46336,-6.10713z" data-paper-data="{&quot;index&quot;:null}" fill="#ffffff" stroke="#000000" stroke-width="1.5" stroke-linecap="butt"/><path d="M457.9543,202.89803c12.08669,-6.3864 27.66975,-3.75819 34.80578,5.87029c7.13603,9.62846 3.12271,22.61108 -8.96398,28.9975c-12.08668,6.38642 -27.66975,3.75822 -34.80577,-5.87025c-7.13602,-9.62846 -3.12271,-22.6111 8.96398,-28.99753z" data-paper-data="{&quot;index&quot;:null}" fill="#ffe4cb" stroke="#000000" stroke-width="2" stroke-linecap="butt"/><path d="M451.68929,240.08692c3.58142,-1.72022 4.52474,-0.61226 4.99776,0.08983c0.47304,0.70212 -2.04682,2.66582 -5.62823,4.38603c-3.58141,1.72022 -7.85315,2.21098 -8.32618,1.50887c-0.47304,-0.70213 5.37523,-4.26454 8.95664,-5.98475z" data-paper-data="{&quot;index&quot;:null}" fill="#161617" stroke="none" stroke-width="0" stroke-linecap="butt"/><path d="M433.17337,227.33618c0.24565,-0.05927 1.20843,-0.37307 2.52034,-0.45527c1.66138,-0.10411 3.7999,0.04047 4.83733,0.18809c2.31513,0.32948 1.56583,1.376 1.65332,1.63463c0.1577,0.46603 -4.93793,0.28333 -6.18894,0.58509c-1.25102,0.30177 -6.01877,-0.24369 -6.17643,-0.7097c-0.15769,-0.46602 2.10337,-0.94105 3.35438,-1.24282z" data-paper-data="{&quot;index&quot;:null}" fill="#161617" stroke="none" stroke-width="0" stroke-linecap="butt"/><path d="M491.67949,208.23219c1.19494,1.76019 4.40764,7.19238 4.75997,11.8065c0.12257,1.60502 -0.69153,8.89849 -4.86374,13.14305c-3.40994,3.46903 -10.31465,4.16218 -10.38106,4.19434c-0.06775,0.0328 -2.12738,1.12026 -1.42033,0.06804c1.48516,-2.21027 6.58491,-8.0765 7.6885,-12.38787c1.32731,-5.18535 -0.39721,-10.73246 -1.27286,-12.02232c-1.95032,-2.87287 -9.06597,-13.12784 -8.68467,-13.31236c0.38131,-0.18455 12.22393,5.63779 14.17424,8.51065z" data-paper-data="{&quot;index&quot;:null}" fill="#161617" stroke="none" stroke-width="0" stroke-linecap="butt"/><path d="M471.39608,239.08227c9.85267,-1.58218 19.94968,-7.02082 20.48972,-6.22533c0.99197,1.46119 -5.09156,5.14526 -10.04853,7.54443c-4.95699,2.39916 -20.51559,3.35125 -21.50757,1.89005c-0.99197,-1.46119 -13.50729,-2.81616 -8.55028,-5.21533c2.25836,-1.09304 11.37146,3.33022 19.61667,2.00618z" data-paper-data="{&quot;index&quot;:null}" fill="#161617" stroke="none" stroke-width="0" stroke-linecap="butt"/><path d="M497.64233,217.643c0.28814,1.68924 0.70584,3.45702 0.6111,5.16344c-0.10159,1.82901 -1.65669,4.2151 -3.14897,6.23106l-0.57236,1.75266c-0.07449,0.2284 -0.2517,0.43301 -0.51437,0.56014c-0.11821,0.05722 -0.2437,0.09388 -0.37072,0.11134c-0.17311,0.2447 -0.53633,0.55705 -1.21753,0.40102c-1.06345,-0.24359 -0.77496,-1.1415 -0.77496,-1.1415c0.76543,-2.35954 0.68308,-4.77446 1.30859,-7.13714l0.20707,-0.91835c0.05667,-0.25972 0.24318,-0.49748 0.53579,-0.63912c0.52794,-0.25555 1.20129,-0.10129 1.50392,0.34448c0.12949,0.19071 0.17013,0.40391 0.13292,0.60545l-0.31464,1.81322l-0.10591,-0.01312c-0.00789,0.03698 -0.01567,0.07398 -0.02328,0.11101c0.00571,0.06589 0.01107,0.13172 0.01607,0.19754c0.36141,-0.48734 0.70445,-0.9976 0.93648,-1.55886c0.31934,-0.77241 0.32256,-1.66044 0.20592,-2.56099c-0.12033,-0.07452 -0.22456,-0.17102 -0.30356,-0.28738l-0.73062,-1.07624l0.06528,-0.03161l-0.14349,-0.10995c-0.10265,-0.45968 -0.09517,-0.92603 -0.01798,-1.39215c-0.01068,-0.01195 -0.02133,-0.02394 -0.03198,-0.03597l-0.23662,-0.02299l0.02978,-0.21863c-1.28521,-1.55007 -2.20104,-3.58774 -2.22896,-5.20889l-0.26296,-0.95246c-0.04651,-0.15248 -0.04535,-0.31013 -0.00111,-0.45851c-0.49329,-0.29987 -0.97964,-0.61083 -1.34889,-1.05001c-0.01544,-0.01835 -0.03065,-0.03697 -0.04567,-0.05588c-0.43638,-0.07483 -0.88021,-0.22354 -1.25234,-0.35786c-0.44572,-0.16089 -0.40815,-0.76502 -0.75928,-1.04722c-0.77907,-0.62614 -3.08021,-1.33113 -3.98813,-1.78411c-0.52855,-0.40212 -1.49135,-1.26969 -2.18875,-2.24377c-0.48543,0.18203 -1.0605,0.0441 -1.35911,-0.32995l-0.79316,-0.97134c-1.58684,-1.40338 -2.84989,-2.62284 -4.16377,-4.25214c0,0 -0.61968,-0.76931 0.29143,-1.29253c0.73803,-0.42381 1.28479,0.00041 1.46593,0.17691l-0.11073,-0.19999c-0.24776,-0.43548 -0.0585,-0.96513 0.44579,-1.20921c0.44108,-0.21348 0.98365,-0.14096 1.32672,0.14863l1.5761,1.27056l-0.25662,0.22695c1.16038,0.83535 2.15563,1.77125 3.10075,2.74371c0.3473,0.00261 0.69704,0.01819 1.01971,0.00699c0.59043,-0.02051 1.19729,0.05903 1.75122,0.23287c4.64828,1.45884 7.20993,5.42988 8.76166,9.00543c0.35898,0.82718 1.393,2.35803 1.76778,3.61405c0.51673,0.74748 1.01903,1.5016 1.51477,2.23l0.24354,0.35875c0,0 0.54798,0.80718 -0.40797,1.26986c-0.49922,0.2416 -0.88717,0.13694 -1.14393,-0.01824zM492.63304,209.21152c0.10257,0.11739 0.21564,0.22549 0.33637,0.32694c-0.09187,-0.18297 -0.18579,-0.365 -0.28214,-0.546c-0.01218,0.07464 -0.03011,0.14774 -0.05423,0.21907z" data-paper-data="{&quot;index&quot;:null}" fill="#161617" stroke="none" stroke-width="0.5" stroke-linecap="butt"/><path d="M476.86017,199.9146c0,0 3.50441,3.72029 7.15966,9.27954c4.24743,6.45992 5.7632,15.01813 3.81721,17.87923c-1.95502,2.87436 -4.3182,10.26339 -16.91881,12.96091c-9.41302,2.01513 -15.5183,-3.75728 -15.5183,-3.75728" data-paper-data="{&quot;index&quot;:null}" fill="none" stroke="#000000" stroke-width="1.5" stroke-linecap="round"/><path d="M481.85096,215.34739c0.21782,-0.50993 -5.33999,-1.59053 -9.04008,-4.68812c-4.28521,-3.58744 -6.80327,-9.24485 -6.53852,-9.71202c0.11097,-0.19584 10.53038,-0.95872 13.96671,1.08735c5.05036,3.0071 3.73242,9.2457 3.88094,9.02207c0.88771,2.17958 2.62752,5.16684 3.47951,6.44415c1.15075,1.72523 0.49458,7.25588 0.10333,9.01591c-0.23017,1.03546 -1.31336,2.38904 -2.22927,3.70135c-1.31985,-0.13304 -2.40517,-0.59599 -2.40517,-0.59599c0,0 0.74747,-2.54716 1.14946,-6.04537c0.06513,-0.56668 0.12116,-1.15833 0.16352,-1.76814c0.0154,-0.22181 -4.28745,0.30377 -4.27398,0.07855c0.12607,-2.1076 0.85533,-4.46032 1.74357,-6.53977z" data-paper-data="{&quot;index&quot;:null}" fill="#3c352f" stroke="#000000" stroke-width="1.5" stroke-linecap="butt"/><path d="M440.62284,228.16329c1.4578,2.20305 0.53257,5.01326 -2.06651,6.27675c-2.59908,1.26351 -5.88783,0.50185 -7.34563,-1.7012c-1.4578,-2.20305 -0.53257,-5.01326 2.06651,-6.27675c2.59908,-1.26351 5.88783,-0.50185 7.34563,1.7012z" data-paper-data="{&quot;index&quot;:null}" fill="#343434" stroke="none" stroke-width="0" stroke-linecap="butt"/><path d="M394.89964,244.91735l8.12898,-4.38837" data-paper-data="{&quot;index&quot;:null}" fill="none" stroke="#000000" stroke-width="1.5" stroke-linecap="round"/><path d="M402.29579,224.25959l-4.86059,-2.47422" data-paper-data="{&quot;index&quot;:null}" fill="none" stroke="#000000" stroke-width="1.5" stroke-linecap="round"/><path d="M457.09602,216.93689l-2.04968,-3.95931" data-paper-data="{&quot;index&quot;:null}" fill="none" stroke="#000000" stroke-width="2" stroke-linecap="round"/><path d="M467.05637,229.59965l-3.94261,-3.83872" data-paper-data="{&quot;index&quot;:null}" fill="none" stroke="#000000" stroke-width="2" stroke-linecap="round"/><path d="M450.70311,216.7647c0,0 3.95336,4.17098 5.58001,6.61472c1.78024,2.67454 4.68228,8.80267 4.68228,8.80267" fill="none" stroke="#000000" stroke-width="2" stroke-linecap="round"/><g data-paper-data="{&quot;index&quot;:null}" stroke="#000000" stroke-width="2" stroke-linecap="butt"><path d="M439.2385,243.31803c0.05702,0.15767 0.11658,0.31493 0.17913,0.47175c0.86549,2.17003 1.65681,4.30793 2.31777,6.52182c0.28544,0.9561 0.54558,1.91326 0.83594,2.85783c-11.44894,2.77027 -20.6126,5.40402 -22.39882,0.06371c-1.86371,-5.8753 7.52967,-7.16031 19.06598,-9.91512z" data-paper-data="{&quot;index&quot;:null}" fill="#ffe4cb"/><path d="M453.96663,240.11249c4.25831,-0.46211 4.17962,2.91466 4.77286,4.36301c-0.34331,2.81028 0.13601,3.40853 -9.25735,6.94889c-7.77029,2.92862 -22.34208,7.35047 -22.37498,7.36094c-0.35176,-0.98176 -3.1216,-10.43747 -3.47082,-11.43019c-0.81894,-2.32798 26.27503,-6.80257 30.33029,-7.24265z" data-paper-data="{&quot;index&quot;:null}" fill="#161617"/></g></g></g></svg>