<svg version="1.1" xmlns="http://www.w3.org/2000/svg" xmlns:xlink="http://www.w3.org/1999/xlink" width="254.78352" height="154.31409" viewBox="0,0,254.78352,154.31409"><defs><radialGradient cx="339.0629" cy="112.88866" r="26.05961" gradientUnits="userSpaceOnUse" id="color-1"><stop offset="0" stop-color="#afb0e0" stop-opacity="0"/><stop offset="1" stop-color="#afb0e0" stop-opacity="0.31373"/></radialGradient></defs><g transform="translate(-224.79718,-90.0948)"><g data-paper-data="{&quot;isPaintingLayer&quot;:true}" fill-rule="nonzero" stroke-linejoin="miter" stroke-miterlimit="10" stroke-dasharray="" stroke-dashoffset="0" style="mix-blend-mode: normal"><path d="M323.86606,160.87822c-8.01003,-6.96289 -11.64542,-16.87805 -10.13854,-18.61157c0.91426,-1.05174 1.81088,-3.88616 7.80604,-0.33489c1.79372,1.06252 5.13147,6.26836 8.79645,9.30157c3.71307,3.07302 7.7531,3.97734 9.47897,5.61775c0.26146,0.24852 -0.36227,-0.03758 -0.13912,0.15643c8.01003,6.96289 4.5714,8.74049 3.06452,10.47401c-1.5069,1.73351 -10.8583,0.35957 -18.86834,-6.60331z" data-paper-data="{&quot;index&quot;:null}" fill="#ffffff" stroke="#000000" stroke-width="2" stroke-linecap="butt"/><g><path d="M301.3891,182.32184c-2.34794,-4.05184 -6.48618,-6.95387 -10.11027,-9.74447c-7.42043,-5.71383 -17.09836,-1.18735 -19.45259,-0.13401c-6.36177,2.84642 -14.35284,20.74915 -14.89452,20.0859c-1.96831,-2.41009 -5.37187,-2.47988 -1.82803,-6.55365c2.24939,-11.8091 11.35772,-16.55128 15.00383,-18.53631c1.34438,-0.73191 9.13456,-3.89179 15.83625,-2.74152c9.90366,1.69985 19.82051,9.05624 22.50564,16.98989c0.7898,2.3336 1.61882,7.06587 1.7343,9.40519c0.04539,0.91944 -4.46451,-0.96582 -4.52421,-0.05588c-0.20437,3.11508 -1.01961,-3.10525 -4.2704,-8.71513z" data-paper-data="{&quot;index&quot;:null}" fill="#ae7e26" stroke="#000000" stroke-width="2" stroke-linecap="butt"/><g><path d="M304.14232,193.03749c0,12.90339 -10.41183,23.36366 -23.25549,23.36366c-12.84365,0 -23.25549,-10.46027 -23.25549,-23.36366c0,-12.90339 10.41183,-23.36366 23.25549,-23.36366c12.84365,0 23.25549,10.46027 23.25549,23.36366z" fill="#141418" stroke="#000000" stroke-width="2.5" stroke-linecap="butt"/><path d="M294.6238,194.05724c0,7.49279 -5.95654,13.56689 -13.3043,13.56689c-7.34776,0 -13.3043,-6.07411 -13.3043,-13.56689c0,-7.49279 5.95654,-13.56689 13.3043,-13.56689c7.34776,0 13.3043,6.07411 13.3043,13.56689z" fill="#434955" stroke="#000000" stroke-width="2.5" stroke-linecap="butt"/><path d="M268.55076,198.06717c0,0 -0.42741,-3.31245 -0.42741,-4.65111c0,-1.15931 0.42741,-2.92046 0.42741,-2.92046h25.32377c0,0 0.6411,1.83422 0.6411,2.92046c0,1.37081 -0.6411,4.65111 -0.6411,4.65111z" fill="#434955" stroke="#000000" stroke-width="2.5" stroke-linecap="butt"/><path d="M286.51142,194.44364c0,2.77782 -2.22764,5.02967 -4.97559,5.02967c-2.74795,0 -4.97559,-2.25186 -4.97559,-5.02967c0,-2.77782 2.22764,-5.02967 4.97559,-5.02967c2.74795,0 4.97559,2.25186 4.97559,5.02967z" fill="#585f6f" stroke="#000000" stroke-width="2.5" stroke-linecap="butt"/><path d="M280.94092,191.27982c0,-0.35843 0.29057,-0.64899 0.64899,-0.64899c0.35843,0 0.64899,0.29057 0.64899,0.64899c0,0.35843 -0.29057,0.64899 -0.64899,0.64899c-0.35843,0 -0.64899,-0.29057 -0.64899,-0.64899z" fill="#8d5d15" stroke="none" stroke-width="0.5" stroke-linecap="butt"/><path d="M281.15725,197.87788c0,-0.35843 0.29057,-0.64899 0.64899,-0.64899c0.35843,0 0.64899,0.29057 0.64899,0.64899c0,0.35844 -0.29057,0.64899 -0.64899,0.64899c-0.35843,0 -0.64899,-0.29056 -0.64899,-0.64899z" fill="#8d5d15" stroke="none" stroke-width="0.5" stroke-linecap="butt"/><path d="M278.88578,197.01256c0,-0.35844 0.29057,-0.64899 0.64899,-0.64899c0.35843,0 0.64899,0.29057 0.64899,0.64899c0,0.35844 -0.29057,0.64899 -0.64899,0.64899c-0.35843,0 -0.64899,-0.29057 -0.64899,-0.64899z" fill="#8d5d15" stroke="none" stroke-width="0.5" stroke-linecap="butt"/><path d="M277.80413,194.7411c0,-0.35843 0.29057,-0.64899 0.64899,-0.64899c0.35843,0 0.64899,0.29057 0.64899,0.64899c0,0.35843 -0.29057,0.64899 -0.64899,0.64899c-0.35843,0 -0.64899,-0.29057 -0.64899,-0.64899z" fill="#8d5d15" stroke="none" stroke-width="0.5" stroke-linecap="butt"/><path d="M278.66945,192.09105c0,-0.35843 0.29057,-0.64899 0.64899,-0.64899c0.35843,0 0.64899,0.29056 0.64899,0.64899c0,0.35843 -0.29057,0.64899 -0.64899,0.64899c-0.35843,0 -0.64899,-0.29057 -0.64899,-0.64899z" fill="#8d5d15" stroke="none" stroke-width="0.5" stroke-linecap="butt"/><path d="M283.42871,192.52371c0,-0.35843 0.29057,-0.64899 0.64899,-0.64899c0.35843,0 0.64899,0.29057 0.64899,0.64899c0,0.35843 -0.29056,0.64899 -0.64899,0.64899c-0.35843,0 -0.64899,-0.29057 -0.64899,-0.64899z" fill="#8d5d15" stroke="none" stroke-width="0.5" stroke-linecap="butt"/><path d="M284.02362,195.28192c0,-0.35843 0.29057,-0.64899 0.64899,-0.64899c0.35843,0 0.64899,0.29057 0.64899,0.64899c0,0.35844 -0.29057,0.64899 -0.64899,0.64899c-0.35843,0 -0.64899,-0.29057 -0.64899,-0.64899z" fill="#8d5d15" stroke="none" stroke-width="0.5" stroke-linecap="butt"/><path d="M283.10423,196.9044c0,-0.35844 0.29057,-0.64899 0.64899,-0.64899c0.35843,0 0.64899,0.29057 0.64899,0.64899c0,0.35844 -0.29057,0.64899 -0.64899,0.64899c-0.35843,0 -0.64899,-0.29057 -0.64899,-0.64899z" fill="#8d5d15" stroke="none" stroke-width="0.5" stroke-linecap="butt"/><path d="M280.02152,194.63293c0,-0.89607 0.7264,-1.62248 1.62248,-1.62248c0.89607,0 1.62248,0.7264 1.62248,1.62248c0,0.89607 -0.7264,1.62248 -1.62248,1.62248c-0.89607,0 -1.62248,-0.7264 -1.62248,-1.62248z" fill="#434955" stroke="none" stroke-width="0.5" stroke-linecap="butt"/><path d="M293.65031,194.17323l-7.13889,0.10817" fill="none" stroke="#000000" stroke-width="2.5" stroke-linecap="round"/><path d="M276.6684,193.9569l-7.67972,0.43266" fill="none" stroke="#000000" stroke-width="2.5" stroke-linecap="round"/></g><path d="M272.36655,185.51911c-1.33335,0 -2.41424,-1.08089 -2.41424,-2.41424v-60.3558c0,-1.33335 1.08089,-2.41424 2.41424,-2.41424h28.36722c1.33335,0 2.41424,1.08089 2.41424,2.41424v60.3558c0,1.33335 -1.08089,2.41424 -2.41424,2.41424z" fill="#101317" stroke="#000000" stroke-width="2.5" stroke-linecap="butt"/><path d="M253.35448,186.72622c-1.33335,0 -2.41424,-1.08089 -2.41424,-2.41424v-27.46188c0,-1.33335 1.08089,-2.41424 2.41424,-2.41424c0,0 2.82917,0.37615 3.31957,-0.90533c0.41842,-1.09338 1.064,-5.07071 2.36586,-5.90425c6.59622,-4.22335 22.59533,-2.19452 24.70807,-0.97055c3.10966,1.80151 -0.2156,30.11178 -0.2156,30.11178c1.33335,0 -4.82847,0.77911 -4.82847,2.11245l-6.03558,5.43202c0,1.33335 -1.08089,2.41424 -2.41424,2.41424z" fill="#101317" stroke="#000000" stroke-width="2.5" stroke-linecap="butt"/><g><path d="M391.10997,198.92925c-0.33078,-0.80049 -4.86421,0.02119 -5.10335,-0.81984c-0.60843,-2.13982 -0.25357,-4.40211 -0.25357,-6.74212c0,-13.33881 10.72463,-24.15205 22.60229,-24.15205c1.70581,0 4.00577,-0.95947 7.55493,-0.34217c3.88481,0.67567 9.02205,2.96912 10.57151,3.87387c4.42882,2.58604 3.76939,3.45765 2.7324,6.22534c-0.28538,0.76167 -5.74601,-5.79743 -12.33637,-6.42117c-2.43882,-0.23082 -13.51441,-0.00891 -18.45064,7.39131c-2.41082,3.6142 -5.25028,7.48523 -6.12892,11.84558c-1.21649,6.03703 -0.05586,11.88164 -1.18828,9.14126z" fill="#ae7e26" stroke="#000000" stroke-width="2" stroke-linecap="butt"/><g><path d="M435.47809,193.80744c0,12.25594 -9.8894,22.19134 -22.0886,22.19134c-12.1992,0 -22.0886,-9.9354 -22.0886,-22.19134c0,-12.25594 9.8894,-22.19134 22.0886,-22.19134c12.1992,0 22.0886,9.9354 22.0886,22.19134z" fill="#141418" stroke="#000000" stroke-width="2.5" stroke-linecap="butt"/><path d="M426.43717,194.77602c0,7.11682 -5.65766,12.88615 -12.63673,12.88615c-6.97907,0 -12.63673,-5.76933 -12.63673,-12.88615c0,-7.11682 5.65766,-12.88615 12.63673,-12.88615c6.97907,0 12.63673,5.76932 12.63673,12.88615z" fill="#434955" stroke="#000000" stroke-width="2.5" stroke-linecap="butt"/><path d="M401.6724,198.58475c0,0 -0.40596,-3.14623 -0.40596,-4.41771c0,-1.10114 0.40596,-2.77392 0.40596,-2.77392h24.05309c0,0 0.60894,1.74219 0.60894,2.77392c0,1.30202 -0.60894,4.41771 -0.60894,4.41771z" fill="#434955" stroke="#000000" stroke-width="2.5" stroke-linecap="butt"/><path d="M418.73185,195.14304c0,2.63843 -2.11587,4.7773 -4.72593,4.7773c-2.61006,0 -4.72594,-2.13887 -4.72594,-4.7773c0,-2.63844 2.11588,-4.7773 4.72594,-4.7773c2.61006,0 4.72593,2.13887 4.72593,4.7773z" fill="#585f6f" stroke="#000000" stroke-width="2.5" stroke-linecap="butt"/><path d="M413.44086,192.13795c0,-0.34045 0.27598,-0.61643 0.61643,-0.61643c0.34045,0 0.61643,0.27598 0.61643,0.61643c0,0.34045 -0.27598,0.61643 -0.61643,0.61643c-0.34045,0 -0.61643,-0.27598 -0.61643,-0.61643z" fill="#8d5d15" stroke="none" stroke-width="0.5" stroke-linecap="butt"/><path d="M413.64633,198.40495c0,-0.34045 0.27598,-0.61643 0.61643,-0.61643c0.34045,0 0.61643,0.27598 0.61643,0.61643c0,0.34045 -0.27598,0.61643 -0.61643,0.61643c-0.34045,0 -0.61643,-0.27598 -0.61643,-0.61643z" fill="#8d5d15" stroke="none" stroke-width="0.5" stroke-linecap="butt"/><path d="M411.48883,197.58305c0,-0.34045 0.27598,-0.61643 0.61643,-0.61643c0.34045,0 0.61643,0.27598 0.61643,0.61643c0,0.34045 -0.27598,0.61643 -0.61643,0.61643c-0.34045,0 -0.61643,-0.27598 -0.61643,-0.61643z" fill="#8d5d15" stroke="none" stroke-width="0.5" stroke-linecap="butt"/><path d="M410.46146,195.42556c0,-0.34045 0.27598,-0.61643 0.61643,-0.61643c0.34045,0 0.61643,0.27598 0.61643,0.61643c0,0.34045 -0.27598,0.61643 -0.61643,0.61643c-0.34045,0 -0.61643,-0.27598 -0.61643,-0.61643z" fill="#8d5d15" stroke="none" stroke-width="0.5" stroke-linecap="butt"/><path d="M411.28336,192.90849c0,-0.34045 0.27598,-0.61643 0.61643,-0.61643c0.34045,0 0.61643,0.27598 0.61643,0.61643c0,0.34045 -0.27598,0.61643 -0.61643,0.61643c-0.34045,0 -0.61643,-0.27598 -0.61643,-0.61643z" fill="#8d5d15" stroke="none" stroke-width="0.5" stroke-linecap="butt"/><path d="M415.80383,193.31943c0,-0.34045 0.27598,-0.61643 0.61643,-0.61643c0.34045,0 0.61643,0.27598 0.61643,0.61643c0,0.34045 -0.27598,0.61643 -0.61643,0.61643c-0.34045,0 -0.61643,-0.27599 -0.61643,-0.61643z" fill="#8d5d15" stroke="none" stroke-width="0.5" stroke-linecap="butt"/><path d="M416.36888,195.93926c0,-0.34045 0.27598,-0.61643 0.61643,-0.61643c0.34045,0 0.61643,0.27598 0.61643,0.61643c0,0.34045 -0.27598,0.61643 -0.61643,0.61643c-0.34045,0 -0.61643,-0.27598 -0.61643,-0.61643z" fill="#8d5d15" stroke="none" stroke-width="0.5" stroke-linecap="butt"/><path d="M415.49561,197.48032c0,-0.34045 0.27598,-0.61643 0.61643,-0.61643c0.34045,0 0.61643,0.27598 0.61643,0.61643c0,0.34045 -0.27598,0.61643 -0.61643,0.61643c-0.34045,0 -0.61643,-0.27598 -0.61643,-0.61643z" fill="#8d5d15" stroke="none" stroke-width="0.5" stroke-linecap="butt"/><path d="M412.56758,195.32282c0,-0.8511 0.68996,-1.54106 1.54106,-1.54106c0.8511,0 1.54106,0.68996 1.54106,1.54106c0,0.8511 -0.68996,1.54106 -1.54106,1.54106c-0.8511,0 -1.54106,-0.68996 -1.54106,-1.54106z" fill="#434955" stroke="none" stroke-width="0.5" stroke-linecap="butt"/><path d="M418.73185,194.98893l6.78069,-0.10274" fill="none" stroke="#000000" stroke-width="2.5" stroke-linecap="round"/><path d="M409.38271,194.68072l-7.29437,0.41095" fill="none" stroke="#000000" stroke-width="2.5" stroke-linecap="round"/></g><path d="M413.97166,166.20525l1.36984,4.52046" fill="none" stroke="#000000" stroke-width="2" stroke-linecap="round"/><path d="M397.80759,176.06808l-3.2876,-3.28761" fill="none" stroke="#000000" stroke-width="2" stroke-linecap="round"/></g><path d="M300.68348,198.99856l6.43795,-8.651l78.66371,-1.81067l23.53876,10.46167z" fill="#2d3139" stroke="#000000" stroke-width="2.5" stroke-linecap="butt"/><path d="M402.48359,193.36535l12.8759,-20.72216l7.2427,8.651l0.80475,-0.80475c0,0 -4.09904,13.26272 -7.9352,15.62342c-2.24649,1.38245 -12.98815,-2.74752 -12.98815,-2.74752z" fill="#191b1f" stroke="#000000" stroke-width="2.5" stroke-linecap="butt"/><path d="M305.91432,191.4541c0,12.05565 -10.26844,21.82867 -22.9352,21.82867c-12.66676,0 -22.9352,-9.77302 -22.9352,-21.82867c0,-12.05565 10.26844,-21.82868 22.9352,-21.82868c3.5549,0 7.92684,-1.84565 10.92997,-0.47172c1.24478,0.56949 0.7914,5.33488 1.855,6.21484c0.5154,0.4264 6.85753,-0.96054 7.35452,-0.5368c4.81981,4.10943 2.79572,10.03205 2.79572,16.62236z" fill="#070e16" stroke="#000000" stroke-width="2.5" stroke-linecap="butt"/><path d="M301.68942,204.02821v-6.03558h106.42738v17.302c0,0 -1.85496,-0.56838 -6.27788,-3.83789c-2.82995,-2.09195 -7.18649,-7.42854 -11.22531,-7.42854c-22.36577,0 -59.66661,0 -72.02458,0c-3.79521,0 -14.30659,3.01778 -17.50317,3.01778c-3.41863,0 0.60356,-3.01778 0.60356,-3.01778z" fill="#2d3139" stroke="#000000" stroke-width="2.5" stroke-linecap="butt"/><path d="M315.37005,203.82703l-12.87591,-0.40237" fill="none" stroke="#000000" stroke-width="2.5" stroke-linecap="round"/><path d="M392.62547,203.82703l15.29014,-0.40237" fill="none" stroke="#000000" stroke-width="2.5" stroke-linecap="round"/><path d="M292.51725,195.01496c-3.27536,-5.6523 -9.04817,-9.7006 -14.10374,-13.59347c-10.35145,-7.97076 -23.85208,-1.65634 -27.13622,-0.18694c-8.87461,3.97073 -20.02211,28.94491 -20.77775,28.01968c-2.74577,-3.36205 -7.4937,-3.45941 -2.55008,-9.14229c3.13788,-16.4736 15.84394,-23.08891 20.93023,-25.85801c1.87539,-1.02102 12.74264,-5.429 22.09145,-3.8244c13.81553,2.37128 27.64945,12.63338 31.3952,23.70076c1.10178,3.25535 2.25826,9.85684 2.41934,13.12017c0.06332,1.28262 -6.22796,-1.34731 -6.31125,-0.07796c-0.2851,4.34553 -1.42236,-4.3318 -5.95717,-12.15756z" data-paper-data="{&quot;index&quot;:null}" fill="#ae7e26" stroke="#000000" stroke-width="2" stroke-linecap="butt"/><g><path d="M296.35798,209.9632c0,18.00013 -14.52443,32.59213 -32.44125,32.59213c-17.9168,0 -32.44125,-14.59199 -32.44125,-32.59213c0,-18.00013 14.52444,-32.59213 32.44125,-32.59213c17.91681,0 32.44125,14.59199 32.44125,32.59213z" fill="#141418" stroke="#000000" stroke-width="2.5" stroke-linecap="butt"/><path d="M283.0797,211.38574c0,10.45238 -8.30934,18.9257 -18.55941,18.9257c-10.25008,0 -18.55941,-8.47333 -18.55941,-18.9257c0,-10.45238 8.30934,-18.92571 18.55941,-18.92571c10.25008,0 18.55941,8.47333 18.55941,18.92571z" fill="#434955" stroke="#000000" stroke-width="2.5" stroke-linecap="butt"/><path d="M246.70802,216.97956c0,0 -0.59622,-4.62083 -0.59622,-6.48825c0,-1.61723 0.59622,-4.07401 0.59622,-4.07401h35.32647c0,0 0.89434,2.55873 0.89434,4.07401c0,1.91226 -0.89434,6.48825 -0.89434,6.48825z" fill="#434955" stroke="#000000" stroke-width="2.5" stroke-linecap="butt"/><path d="M271.76299,211.92476c0,3.87503 -3.10755,7.01636 -6.94092,7.01636c-3.83336,0 -6.94092,-3.14133 -6.94092,-7.01636c0,-3.87503 3.10755,-7.01636 6.94092,-7.01636c3.83336,0 6.94092,3.14133 6.94092,7.01636z" fill="#585f6f" stroke="#000000" stroke-width="2.5" stroke-linecap="butt"/><path d="M263.99218,207.51124c0,-0.49999 0.40533,-0.90533 0.90533,-0.90533c0.5,0 0.90533,0.40534 0.90533,0.90533c0,0.49999 -0.40533,0.90533 -0.90533,0.90533c-0.5,0 -0.90533,-0.40534 -0.90533,-0.90533z" fill="#8d5d15" stroke="none" stroke-width="0.5" stroke-linecap="butt"/><path d="M264.29396,216.7155c0,-0.49999 0.40533,-0.90533 0.90533,-0.90533c0.5,0 0.90533,0.40534 0.90533,0.90533c0,0.49999 -0.40533,0.90533 -0.90533,0.90533c-0.5,0 -0.90533,-0.40534 -0.90533,-0.90533z" fill="#8d5d15" stroke="none" stroke-width="0.5" stroke-linecap="butt"/><path d="M261.12528,215.50839c0,-0.49999 0.40533,-0.90533 0.90533,-0.90533c0.5,0 0.90533,0.40534 0.90533,0.90533c0,0.49999 -0.40533,0.90533 -0.90533,0.90533c-0.5,0 -0.90533,-0.40534 -0.90533,-0.90533z" fill="#8d5d15" stroke="none" stroke-width="0.5" stroke-linecap="butt"/><path d="M259.61639,212.33971c0,-0.49999 0.40533,-0.90533 0.90533,-0.90533c0.5,0 0.90533,0.40534 0.90533,0.90533c0,0.49999 -0.40533,0.90533 -0.90533,0.90533c-0.5,0 -0.90533,-0.40534 -0.90533,-0.90533z" fill="#8d5d15" stroke="none" stroke-width="0.5" stroke-linecap="butt"/><path d="M260.8235,208.64291c0,-0.49999 0.40533,-0.90533 0.90533,-0.90533c0.5,0 0.90533,0.40534 0.90533,0.90533c0,0.49999 -0.40533,0.90533 -0.90533,0.90533c-0.5,0 -0.90533,-0.40534 -0.90533,-0.90533z" fill="#8d5d15" stroke="none" stroke-width="0.5" stroke-linecap="butt"/><path d="M267.46264,209.24648c0,-0.49999 0.40533,-0.90533 0.90533,-0.90533c0.5,0 0.90533,0.40534 0.90533,0.90533c0,0.49999 -0.40533,0.90533 -0.90533,0.90533c-0.5,0 -0.90533,-0.40534 -0.90533,-0.90533z" fill="#8d5d15" stroke="none" stroke-width="0.5" stroke-linecap="butt"/><path d="M268.29254,213.09415c0,-0.49999 0.40533,-0.90533 0.90533,-0.90533c0.5,0 0.90533,0.40534 0.90533,0.90533c0,0.49999 -0.40533,0.90533 -0.90533,0.90533c-0.5,0 -0.90533,-0.40534 -0.90533,-0.90533z" fill="#8d5d15" stroke="none" stroke-width="0.5" stroke-linecap="butt"/><path d="M267.00997,215.3575c0,-0.49999 0.40533,-0.90533 0.90533,-0.90533c0.5,0 0.90533,0.40534 0.90533,0.90533c0,0.49999 -0.40533,0.90533 -0.90533,0.90533c-0.5,0 -0.90533,-0.40534 -0.90533,-0.90533z" fill="#8d5d15" stroke="none" stroke-width="0.5" stroke-linecap="butt"/><path d="M262.70963,212.18882c0,-1.25001 1.01333,-2.26334 2.26334,-2.26334c1.25001,0 2.26334,1.01333 2.26334,2.26334c0,1.25001 -1.01333,2.26334 -2.26334,2.26334c-1.25001,0 -2.26334,-1.01333 -2.26334,-2.26334z" fill="#434955" stroke="none" stroke-width="0.5" stroke-linecap="butt"/><path d="M281.72169,211.54754l-9.9587,0.15089" fill="none" stroke="#000000" stroke-width="2.5" stroke-linecap="round"/><path d="M247.31889,211.84932l10.71315,-0.60356" fill="none" stroke="#000000" stroke-width="2.5" stroke-linecap="round"/></g><path d="M251.28371,179.34579l-0.22273,-6.93369" data-paper-data="{&quot;index&quot;:null}" fill="none" stroke="#000000" stroke-width="2" stroke-linecap="round"/><path d="M277.78936,179.93057l3.02568,-6.12156" data-paper-data="{&quot;index&quot;:null}" fill="none" stroke="#000000" stroke-width="2" stroke-linecap="round"/><path d="M306.31668,195.98078v-12.67472h44.66329v12.67472z" fill="#191b1f" stroke="#000000" stroke-width="2.5" stroke-linecap="butt"/><path d="M304.77408,182.50131v-3.21898c0,0 -4.33512,-26.1092 -2.67661,-36.61217c0.47823,-3.02855 5.69536,-1.6237 6.42703,-1.78963c1.12608,-0.25539 6.31957,35.7864 6.84878,35.7864c6.74602,0 32.95387,0.40236 32.95387,0.40236l3.66154,5.43202c0,0 0.46957,1.81067 -1.15627,1.81067c-4.41409,0 -30.06712,1.07935 -42.02556,0.55275c-4.70522,-0.2072 -4.03276,-2.36343 -4.03276,-2.36343z" fill="#4c4f57" stroke="#000000" stroke-width="2.5" stroke-linecap="butt"/><g><path d="M413.16782,218.08909c-0.48582,-1.17566 -7.144,0.03113 -7.49522,-1.20408c-0.8936,-3.14273 -0.37242,-6.46532 -0.37242,-9.90207c0,-19.59054 15.75111,-35.4718 33.19568,-35.4718c2.50529,0 5.88323,-1.40917 11.09583,-0.50254c5.70556,0.99236 13.25055,4.3607 15.52624,5.6895c6.50454,3.79807 5.53606,5.07822 4.01304,9.14309c-0.41913,1.11866 -8.43909,-8.51462 -18.11826,-9.4307c-3.58187,-0.33901 -19.84844,-0.01308 -27.09822,10.85551c-3.54074,5.30814 -7.71102,10.99346 -9.00147,17.39746c-1.78665,8.86651 -0.08204,17.45042 -1.74521,13.42566z" fill="#ae7e26" stroke="#000000" stroke-width="2" stroke-linecap="butt"/><g><path d="M478.33069,210.56676c0,18.00013 -14.52444,32.59213 -32.44125,32.59213c-17.9168,0 -32.44125,-14.59199 -32.44125,-32.59213c0,-18.00013 14.52444,-32.59213 32.44125,-32.59213c17.9168,0 32.44125,14.59199 32.44125,32.59213z" fill="#141418" stroke="#000000" stroke-width="2.5" stroke-linecap="butt"/><path d="M465.05242,211.98929c0,10.45238 -8.30934,18.9257 -18.55941,18.9257c-10.25008,0 -18.55941,-8.47333 -18.55941,-18.9257c0,-10.45238 8.30934,-18.92571 18.55941,-18.92571c10.25008,0 18.55941,8.47333 18.55941,18.92571z" fill="#434955" stroke="#000000" stroke-width="2.5" stroke-linecap="butt"/><path d="M428.68074,217.58312c0,0 -0.59623,-4.62083 -0.59623,-6.48825c0,-1.61723 0.59623,-4.07401 0.59623,-4.07401h35.32647c0,0 0.89434,2.55873 0.89434,4.07401c0,1.91226 -0.89434,6.48825 -0.89434,6.48825z" fill="#434955" stroke="#000000" stroke-width="2.5" stroke-linecap="butt"/><path d="M453.73571,212.52833c0,3.87503 -3.10755,7.01636 -6.94092,7.01636c-3.83336,0 -6.94092,-3.14133 -6.94092,-7.01636c0,-3.87503 3.10755,-7.01636 6.94092,-7.01636c3.83336,0 6.94092,3.14133 6.94092,7.01636z" fill="#585f6f" stroke="#000000" stroke-width="2.5" stroke-linecap="butt"/><path d="M445.96491,208.1148c0,-0.49999 0.40534,-0.90533 0.90533,-0.90533c0.49999,0 0.90533,0.40534 0.90533,0.90533c0,0.49999 -0.40534,0.90533 -0.90533,0.90533c-0.49999,0 -0.90533,-0.40534 -0.90533,-0.90533z" fill="#8d5d15" stroke="none" stroke-width="0.5" stroke-linecap="butt"/><path d="M446.26668,217.31906c0,-0.49999 0.40534,-0.90533 0.90533,-0.90533c0.49999,0 0.90533,0.40534 0.90533,0.90533c0,0.49999 -0.40534,0.90533 -0.90533,0.90533c-0.49999,0 -0.90533,-0.40534 -0.90533,-0.90533z" fill="#8d5d15" stroke="none" stroke-width="0.5" stroke-linecap="butt"/><path d="M443.09801,216.11195c0,-0.49999 0.40534,-0.90533 0.90533,-0.90533c0.49999,0 0.90533,0.40534 0.90533,0.90533c0,0.49999 -0.40534,0.90533 -0.90533,0.90533c-0.49999,0 -0.90533,-0.40534 -0.90533,-0.90533z" fill="#8d5d15" stroke="none" stroke-width="0.5" stroke-linecap="butt"/><path d="M441.58911,212.94327c0,-0.49999 0.40534,-0.90533 0.90533,-0.90533c0.49999,0 0.90533,0.40534 0.90533,0.90533c0,0.49999 -0.40534,0.90533 -0.90533,0.90533c-0.49999,0 -0.90533,-0.40534 -0.90533,-0.90533z" fill="#8d5d15" stroke="none" stroke-width="0.5" stroke-linecap="butt"/><path d="M442.79622,209.24648c0,-0.49999 0.40534,-0.90533 0.90533,-0.90533c0.49999,0 0.90533,0.40534 0.90533,0.90533c0,0.49999 -0.40534,0.90533 -0.90533,0.90533c-0.49999,0 -0.90533,-0.40534 -0.90533,-0.90533z" fill="#8d5d15" stroke="none" stroke-width="0.5" stroke-linecap="butt"/><path d="M449.43536,209.85003c0,-0.49999 0.40534,-0.90533 0.90533,-0.90533c0.49999,0 0.90533,0.40534 0.90533,0.90533c0,0.49999 -0.40534,0.90533 -0.90533,0.90533c-0.49999,0 -0.90533,-0.40534 -0.90533,-0.90533z" fill="#8d5d15" stroke="none" stroke-width="0.5" stroke-linecap="butt"/><path d="M450.26526,213.69772c0,-0.49999 0.40534,-0.90533 0.90533,-0.90533c0.49999,0 0.90533,0.40534 0.90533,0.90533c0,0.49999 -0.40534,0.90533 -0.90533,0.90533c-0.49999,0 -0.90533,-0.40534 -0.90533,-0.90533z" fill="#8d5d15" stroke="none" stroke-width="0.5" stroke-linecap="butt"/><path d="M448.9827,215.96106c0,-0.49999 0.40534,-0.90533 0.90533,-0.90533c0.49999,0 0.90533,0.40534 0.90533,0.90533c0,0.49999 -0.40534,0.90533 -0.90533,0.90533c-0.49999,0 -0.90533,-0.40534 -0.90533,-0.90533z" fill="#8d5d15" stroke="none" stroke-width="0.5" stroke-linecap="butt"/><path d="M444.68235,212.79238c0,-1.25001 1.01333,-2.26334 2.26334,-2.26334c1.25001,0 2.26334,1.01333 2.26334,2.26334c0,1.25001 -1.01333,2.26334 -2.26334,2.26334c-1.25001,0 -2.26334,-1.01333 -2.26334,-2.26334z" fill="#434955" stroke="none" stroke-width="0.5" stroke-linecap="butt"/><path d="M463.69442,212.1511l-9.9587,0.15089" fill="none" stroke="#000000" stroke-width="2.5" stroke-linecap="round"/><path d="M440.00477,211.84932l-10.71315,0.60356" fill="none" stroke="#000000" stroke-width="2.5" stroke-linecap="round"/></g><path d="M446.7445,170.02778l2.01186,6.63914" fill="none" stroke="#000000" stroke-width="2" stroke-linecap="round"/><path d="M423.00457,184.51319l-4.82847,-4.82847" fill="none" stroke="#000000" stroke-width="2" stroke-linecap="round"/></g><path d="M303.33447,197.21016l-6.86121,-55.92724l7.19244,-0.85173l6.86121,57.93909z" fill="#191b1f" stroke="#000000" stroke-width="2.5" stroke-linecap="butt"/><path d="M309.33448,182.09895l7.0415,-7.2427" fill="none" stroke="#000000" stroke-width="2.5" stroke-linecap="round"/><path d="M407.46218,196.72146c-0.70481,1.51031 -2.42693,3.0158 -8.06545,0.3845c-5.63852,-2.63131 -13.25941,-7.19588 -12.5546,-8.70619c0.70481,-1.51031 4.03642,-0.80276 9.67494,1.82855c5.63852,2.63131 11.64993,4.98282 10.94511,6.49314z" fill="#070e16" stroke="#000000" stroke-width="2.5" stroke-linecap="butt"/><path d="M390.01006,187.93333c0,0 8.33019,-15.87743 8.95088,-18.0498c0.1608,-0.56278 0.50487,-0.45931 0.50487,-0.45931l17.90555,3.62135l-14.08302,21.32571z" fill="#191b1f" stroke="#000000" stroke-width="2.5" stroke-linecap="butt"/><path d="M400.01905,181.89776l4.82847,-10.56226" fill="none" stroke="#000000" stroke-width="2.5" stroke-linecap="round"/><path d="M393.98347,184.61377l8.14804,2.71601" fill="none" stroke="#000000" stroke-width="2.5" stroke-linecap="round"/><path d="M385.83544,191.55469l-33.19568,0.60356" fill="none" stroke="#000000" stroke-width="2.5" stroke-linecap="round"/></g><path d="M311.98472,172.28895c-0.48074,-3.23514 3.07998,-2.15753 5.84056,-2.18794c1.72729,-0.01901 14.44623,-3.09961 22.20372,4.12659c4.64051,4.32269 4.65816,7.44427 5.55542,11.73762c0.50945,2.43778 1.87572,3.04004 3.6869,5.10709c0.45925,0.52412 0.93311,1.06611 1.39284,1.60988c-0.4808,-0.18004 -0.99913,-0.34361 -1.59544,-0.47613c-2.35965,-0.52436 -5.4841,0.34466 -7.83795,0.50088c-1.10766,0.07351 -2.39916,0.12982 -3.62356,0.38629c-0.44739,0.07459 -0.87814,0.19838 -1.28646,0.36564c-0.07545,0.02831 -0.15021,0.05783 -0.22421,0.08863c-0.42263,-1.5917 -0.92026,-3.70829 -1.50883,-6.48302c-1.18959,-5.60817 -12.92034,-2.35824 -17.00381,-5.01574c-4.69202,-3.05355 -7.15472,-6.7561 -7.15472,-6.7561z" data-paper-data="{&quot;index&quot;:null}" fill="#a68f79" stroke="#000000" stroke-width="2" stroke-linecap="butt"/><path d="M311.5704,175.80834c0,0 -2.17041,-18.23714 0.44337,-27.76172c3.46285,-12.61855 13.75054,-14.47229 13.75054,-14.47229c0,0 5.26579,0.40194 5.82174,8.22341c0.74421,10.47024 0.7584,29.045 0.7584,29.045" fill="#334865" stroke="#000000" stroke-width="2" stroke-linecap="round"/><path d="M353.66945,119.97498c-0.7066,12.48442 -10.82782,22.06459 -22.60639,21.39795c-11.77856,-0.66664 -20.75416,-11.32768 -20.04757,-23.81209c0.7066,-12.48442 10.82782,-22.06459 22.60639,-21.39795c11.77856,0.66664 20.75417,11.32768 20.04757,23.81209z" fill="#ffffff" stroke="#000000" stroke-width="2" stroke-linecap="butt"/><path d="M334.65164,121.53197c0.07275,-2.00654 0.68087,-3.58843 1.35827,-3.53322c0.67738,0.05521 1.16755,1.7266 1.0948,3.73315c-0.07275,2.00654 -0.68087,3.58843 -1.35827,3.53322c-0.67738,-0.05521 -1.16755,-1.7266 -1.0948,-3.73315z" data-paper-data="{&quot;index&quot;:null}" fill="#000000" stroke="none" stroke-width="0.5" stroke-linecap="butt"/><path d="M326.88109,126.28236l22.11481,3.26127" fill="none" stroke="#000000" stroke-width="1.5" stroke-linecap="round"/><path d="M326.02495,127.99541l1.17279,-3.14594" fill="none" stroke="#000000" stroke-width="1.5" stroke-linecap="round"/><path d="M346.75795,123.48086c0.07275,-2.00654 0.68087,-3.58843 1.35827,-3.53322c0.67738,0.05521 1.16755,1.7266 1.0948,3.73315c-0.07275,2.00654 -0.68087,3.58843 -1.35827,3.53322c-0.67738,-0.05521 -1.16755,-1.7266 -1.0948,-3.73315z" data-paper-data="{&quot;index&quot;:null}" fill="#000000" stroke="none" stroke-width="0.5" stroke-linecap="butt"/><path d="M346.8234,183.86745l6.15778,-21.11178l2.95664,0.25447l-3.38885,21.979z" fill="#191b1f" stroke="#000000" stroke-width="2.5" stroke-linecap="butt"/><g fill="#191b1f" stroke="#000000" stroke-width="2.5" stroke-linecap="butt"><path d="M354.595,196.07752l-18.68441,-0.78287c0,0 2.55877,-10.77639 6.33606,-13.97711c4.81794,-4.08252 20.21685,-8.52273 20.21685,-8.52273l1.3005,22.75876z"/><path d="M364.76121,196.2441c0,0.76988 -6.75509,1.39399 -15.08793,1.39399c-8.33283,0 -43.85753,-0.42292 -43.85753,-1.19281c0,-0.76988 35.52469,-1.59518 43.85753,-1.59518c8.33283,0 15.08793,0.62411 15.08793,1.39399z"/></g><path d="M356.66706,164.77425c-1.46962,1.18666 -3.53809,1.0624 -4.62005,-0.27755c-1.08196,-1.33995 -0.76769,-3.38817 0.70194,-4.57484c1.46962,-1.18666 3.53809,-1.0624 4.62005,0.27755c1.08196,1.33995 0.76769,3.38817 -0.70194,4.57484z" fill="#1f1919" stroke="#000000" stroke-width="2.5" stroke-linecap="butt"/><path d="M326.20748,168.11157l2.92613,-7.02271" fill="none" stroke="#000000" stroke-width="2" stroke-linecap="round"/><path d="M319.27959,163.75921c-0.1316,-0.19777 -0.2607,-0.39641 -0.38731,-0.59576c1.14955,-0.65174 2.3209,-1.25876 3.54867,-1.75265c2.32166,-0.93394 4.72803,-2.23966 6.59423,-3.97479c2.59448,3.12237 5.59393,4.85469 6.68459,6.66314c0.18629,0.3089 -0.33938,-0.13219 -0.17557,0.11398c5.87945,8.83598 2.09278,9.6392 0.18052,10.91162c-1.91227,1.27242 -10.56567,-2.52958 -16.4451,-11.36556z" data-paper-data="{&quot;index&quot;:null}" fill="#ffffff" stroke="#000000" stroke-width="2" stroke-linecap="butt"/><path d="M320.3026,142.61782c1.30707,-0.48329 3.455,-2.53861 7.00738,3.45592c1.06286,1.79353 1.48969,7.96274 3.24716,12.38357c0.13688,0.34431 0.28161,0.67832 0.4325,1.00259c-2.16833,1.23822 -4.766,1.93687 -7.1912,2.30218c-1.33806,0.20156 -2.64574,0.53047 -3.94232,0.90841c-3.16111,-9.59636 -1.62568,-19.28646 0.44647,-20.05266z" data-paper-data="{&quot;index&quot;:null}" fill="#334865" stroke="#000000" stroke-width="2" stroke-linecap="butt"/><g stroke-linecap="butt"><path d="M356.24909,124.38723c-2.45317,8.82438 -8.98085,15.06945 -16.87886,17.45204c-0.82072,0.24758 0.25291,-0.11941 1.29095,0.75068c1.6476,1.38102 1.40291,2.40275 -2.19757,2.12864c-3.88254,-0.29558 -9.78949,-1.44763 -15.42096,-3.13887c-3.72661,-1.11917 -8.03112,-2.94511 -9.04135,-3.22595c-2.35642,-0.65508 -4.30747,-2.89438 -2.22239,-3.54096c1.54289,-0.47845 1.35869,-0.39432 0.91031,-0.94245c-4.99606,-6.10758 -6.93719,-14.57554 -4.56636,-23.10369c3.83776,-13.80488 17.52096,-22.53992 30.9488,-18.80699c13.42784,3.73293 21.0152,18.62269 17.17744,32.42759z" fill="url(#color-1)" stroke="#111111" stroke-width="2"/><path d="M351.99359,108.64345c-0.13666,2.63943 -2.44369,3.42208 -4.52309,1.75412c-0.382,-0.30642 -1.02304,-2.82863 -1.43314,-3.31352c-1.19153,-1.40883 -3.62831,-1.95094 -4.08123,-3.73964c-0.59344,-0.61635 -0.85488,-1.52155 -0.60911,-2.40559c0.36982,-1.33026 1.748,-2.10887 3.07826,-1.73905c0.50421,0.14017 0.92917,0.42521 1.24237,0.79761c3.30936,1.0567 6.50002,5.28372 6.32592,8.64607z" fill="#ffffff" stroke="none" stroke-width="0.5"/></g></g></g></svg>