<svg version="1.1" xmlns="http://www.w3.org/2000/svg" xmlns:xlink="http://www.w3.org/1999/xlink" width="793.87814" height="87" viewBox="0,0,793.87814,87"><defs><linearGradient x1="-30.2612" y1="144.16666" x2="757.7388" y2="144.16666" gradientUnits="userSpaceOnUse" id="color-1"><stop offset="0" stop-color="#ffffff" stop-opacity="0"/><stop offset="1" stop-color="#ffffff" stop-opacity="0.38039"/></linearGradient><linearGradient x1="419.77002" y1="142.61148" x2="736.25547" y2="142.61148" gradientUnits="userSpaceOnUse" id="color-2"><stop offset="0" stop-color="#c4f3ff"/><stop offset="1" stop-color="#c4ffc4"/></linearGradient></defs><g transform="translate(30.2612,-100.66666)"><g data-paper-data="{&quot;isPaintingLayer&quot;:true}" fill-rule="nonzero" stroke-linejoin="miter" stroke-miterlimit="10" stroke-dasharray="" stroke-dashoffset="0" style="mix-blend-mode: normal"><path d="M-30.2612,187.66666v-87h788v87z" fill="url(#color-1)" stroke="none" stroke-width="0" stroke-linecap="butt"/><path d="M729.12655,120.46284c-0.00029,4.58578 14.25652,38.89162 2.44806,52.8543c-3.06106,3.61948 -34.09894,4.55437 -36.60749,4.80681c-24.16824,2.43206 -111.34621,5.19966 -184.90624,2.16378c-29.03998,-1.19851 -60.83446,3.27558 -78.87792,-1.95185c-19.13121,-5.54257 -8.42877,-63.67712 -8.42865,-65.82557c0.00059,-9.3074 69.79713,-8.90806 153.96816,-8.9052c84.17102,0.00287 151.62367,4.19564 151.62306,13.50303z" data-paper-data="{&quot;index&quot;:null}" fill="url(#color-2)" stroke-opacity="0.41569" stroke="#000000" stroke-width="2.5" stroke-linecap="butt"/><path d="M762.5,150.16667c0,0.26389 1.81156,21.42275 -8.82553,22.63443c-59.85941,6.81861 -268.5984,5.53224 -300.17447,5.53224c-15.67936,0 -21.0997,-0.54829 -25.20934,-4.39823c-5.63731,-5.28107 -6.45732,-14.4236 -6.45732,-15.4351c0,-1.7489 30.14616,-3.16667 67.33333,-3.16667c37.18717,0 273.33333,-6.91557 273.33333,-5.16667z" fill="#639f3e" stroke="#639f3e" stroke-width="2" stroke-linecap="butt"/><path d="M754.84439,115.56559c-5.49258,17.51687 8.26014,51.40916 -22.18263,60.81206c-4.97026,1.53517 -219.22658,3.38202 -219.3252,3.3511c-0.70265,-0.22032 1.93516,-75.01115 2.63781,-74.79083c0.03178,0.00996 -0.44694,0.49704 0.51891,0.46517c20.39185,-0.67288 244.45149,-9.29277 238.35111,10.16251z" fill="#ffffff" stroke-opacity="0.43922" stroke="#000000" stroke-width="2.5" stroke-linecap="butt"/><text transform="translate(524.87392,128.06283) scale(0.42648,0.40397)" font-size="40" xml:space="preserve" fill="#30e340" fill-rule="nonzero" stroke="#2ac200" stroke-width="3" stroke-linecap="butt" stroke-linejoin="miter" stroke-miterlimit="10" stroke-dasharray="" stroke-dashoffset="0" font-family="Playful" font-weight="normal" text-anchor="start" style="mix-blend-mode: normal"><tspan x="0" dy="0">The True</tspan><tspan x="0" dy="46.150000000000006px">Child Kicking</tspan><tspan x="0" dy="46.150000000000006px">Experience</tspan></text><path d="M459.56279,140.36416c0.98724,1.79868 -4.9062,8.69166 -12.95318,13.10839c-8.04699,4.41675 -15.20031,4.68473 -16.18758,2.88604c-0.98724,-1.79868 4.73585,-6.83726 12.78283,-11.25401c8.04699,-4.41675 15.37069,-6.53912 16.35792,-4.74044z" fill="#ff2e2e" stroke="#000000" stroke-width="1.5" stroke-linecap="butt"/><path d="M490.73906,133.0578c1.01171,2.21256 1.28652,4.35464 1.90983,6.4852c4.56341,15.59808 -2.08933,26.16845 -14.52717,31.84834c-14.416,6.58322 -31.17858,1.90846 -38.55171,-14.21594c-7.37314,-16.12442 -1.30858,-34.21666 13.10742,-40.7999c14.416,-6.58322 30.6885,0.55787 38.06165,16.6823z" fill="#ffffff" stroke="#000000" stroke-width="2" stroke-linecap="butt"/><path d="M482.03111,150.0306c-1.53341,0.11579 -2.96754,-2.32036 -3.20321,-5.44135c-0.23566,-3.12098 0.81635,-5.74489 2.34976,-5.86067c1.53341,-0.11579 2.96752,2.32039 3.2032,5.44137c0.23566,3.12098 -0.81636,5.74487 -2.34974,5.86065z" data-paper-data="{&quot;index&quot;:null}" fill="#000000" stroke="none" stroke-width="0.5" stroke-linecap="butt"/><path d="M460.46457,156.6733c-1.44093,0.17166 -2.9364,-2.43769 -3.34031,-5.82809c-0.40392,-3.39041 0.43674,-6.27802 1.87767,-6.44968c1.44093,-0.17166 2.9364,2.43767 3.34033,5.82806c0.40392,3.39041 -0.43675,6.27805 -1.87766,6.44969z" data-paper-data="{&quot;index&quot;:null}" fill="#000000" stroke="none" stroke-width="0.5" stroke-linecap="butt"/><path d="M457.71388,108.88582c0.89134,1.8745 -1.64859,4.97259 -5.67314,6.91975c-4.02451,1.9472 -8.00962,2.0061 -8.90095,0.13162c-0.89134,-1.8745 1.64859,-4.9726 5.67314,-6.91975c4.02451,-1.9472 8.00963,-2.0061 8.90096,-0.13162z" fill="#ff4f4f" stroke="#000000" stroke-width="1.5" stroke-linecap="butt"/><path d="M490.13781,127.6995c0.60688,1.55528 -12.15526,3.38698 -26.94341,9.15731c-14.78814,5.77032 -25.21334,14.45381 -25.8202,12.89849c-0.60689,-1.55528 -13.21903,-27.65637 14.36586,-38.68653c24.37047,-9.74485 37.7909,15.07542 38.39777,16.63074z" fill="#ff4f4f" stroke="#000000" stroke-width="2" stroke-linecap="butt"/><path d="M475.96313,126.0484c0.6363,1.75666 -3.20857,3.6652 -8.32583,5.51878c-0.09539,0.03454 -0.37904,-0.01972 -0.4741,0.01362c-5.00405,1.75404 -9.10681,2.90391 -9.73127,1.17999c-0.6363,-1.75666 2.99622,-4.68337 8.11347,-6.53692c5.11725,-1.85355 9.78143,-1.93212 10.41773,-0.17545z" fill="#ffffff" stroke="#000000" stroke-width="1.5" stroke-linecap="butt"/><path d="M488.09088,152.98834c0,0 -3.90195,2.12405 -9.27394,4.01914c-2.39855,0.84613 -4.50548,1.13165 -6.8875,1.81821c-1.75836,0.5068 -3.30924,1.45869 -4.93235,1.87332c-6.51846,1.66521 -11.68066,2.07936 -11.68066,2.07936" fill="none" stroke="#000000" stroke-width="1.5" stroke-linecap="round"/><path d="M465.70608,161.90761c0,0 0.15925,4.43384 -4.53654,5.56903c-4.27325,1.03305 -3.95579,-4.06923 -3.95579,-4.06923" fill="#ffa0ce" stroke="#000000" stroke-width="1.5" stroke-linecap="round"/><path d="M377.89763,158.5v-28l26.5,15.5z" fill="#ffffff" stroke="none" stroke-width="0" stroke-linecap="butt"/></g></g></svg>