<svg version="1.1" xmlns="http://www.w3.org/2000/svg" xmlns:xlink="http://www.w3.org/1999/xlink" width="51.72481" height="139.47522" viewBox="0,0,51.72481,139.47522"><g transform="translate(-293.07206,-128.7225)"><g data-paper-data="{&quot;isPaintingLayer&quot;:true}" fill-rule="nonzero" stroke-linejoin="miter" stroke-miterlimit="10" stroke-dasharray="" stroke-dashoffset="0" style="mix-blend-mode: normal"><path d="M340.8889,257.15841c1.59748,2.38923 2.56404,4.53755 2.29638,4.51495c-0.24093,-0.02035 0.2503,0.88387 -2.54099,1.24522c-2.13973,0.27701 -7.40577,0.05444 -9.18325,-0.05851c-3.0933,-0.19657 -3.38444,-2.1399 -3.48071,-2.2235c-0.31152,-0.27052 -0.40664,-3.34723 -0.38124,-7.62244c1.61968,-0.05262 3.23862,-0.11766 4.85877,-0.18924c1.72438,-0.07618 3.43893,-0.2253 5.15332,-0.39411c0.69398,1.24726 2.15405,3.04705 3.27772,4.72764z" data-paper-data="{&quot;index&quot;:null}" fill="#ffffff" stroke="#000000" stroke-width="2" stroke-linecap="butt"/><path d="M315.9767,260.19698c2.09267,3.00099 4.59148,6.6394 1.42185,7.00075c-2.42975,0.27701 -8.40957,0.05445 -10.42797,-0.0585c-3.51257,-0.19657 -3.84316,-2.1399 -3.95248,-2.2235c-0.38362,-0.29336 -0.47825,-3.88705 -0.42275,-8.73054c0.85007,-0.00645 1.70015,-0.01807 2.55032,-0.03881c2.64008,-0.06439 5.28015,-0.12534 7.92041,-0.18169c0.14587,-0.00311 0.29173,-0.00636 0.43757,-0.00973c0.08754,1.81075 1.23431,2.46561 2.47305,4.24201z" data-paper-data="{&quot;index&quot;:null}" fill="#ffffff" stroke="#000000" stroke-width="2" stroke-linecap="butt"/><path d="M340.35074,253.87959c0.33458,1.22045 0.30512,1.06029 -4.70303,2.43324c-5.00815,1.37295 -9.33929,1.49657 -9.67386,0.27612c-0.06464,-0.23582 -0.79454,-2.56604 -1.17343,-5.96913c-1.63203,-14.65894 -9.5588,-50.48593 -9.5588,-50.48593c0,0 13.12802,-3.32991 15.79872,8.32916c1.5149,6.61335 5.63311,27.10826 7.85073,38.16755c0.29742,1.48329 1.42488,3.50306 1.64306,4.59064c0.41158,2.05157 -0.20137,2.59274 -0.18338,2.65833z" data-paper-data="{&quot;index&quot;:null}" fill="#a68f79" stroke="#000000" stroke-width="1.5" stroke-linecap="butt"/><path d="M316.99174,259.30247c0,1.26548 0.01634,1.10323 -6.06967,1.10323c-6.086,0 -11.01967,-1.02587 -11.01967,-2.29135c0,-0.24453 -0.10298,-2.68479 0.52324,-6.06696c2.6975,-14.56882 4.83927,-51.2167 4.83927,-51.2167c0,0 15.87005,0.25946 15.27605,12.20976c-0.33693,6.77855 -2.03266,27.63298 -2.95293,38.88505c-0.12343,1.50915 0.52506,3.75512 0.43467,4.86168c-0.1705,2.08738 -1.03098,2.44726 -1.03098,2.51527z" fill="#a68f79" stroke="#000000" stroke-width="1.5" stroke-linecap="butt"/><g stroke="#000000" stroke-width="2" stroke-linecap="butt"><path d="M327.81784,201.42779c0.17331,-0.03703 0.34629,-0.07693 0.51894,-0.12015c2.3891,-0.59807 4.73989,-1.12017 7.16661,-1.48759c1.04801,-0.15867 2.09594,-0.28952 3.13171,-0.4554c2.44507,12.96198 4.85255,23.40346 -1.01034,24.49948c-6.44536,1.09491 -7.38279,-9.38135 -9.80692,-22.43634z" data-paper-data="{&quot;index&quot;:null}" fill="#ffffff"/><path d="M327.5823,202.19474c-1.6445,-6.37816 -2.37952,-12.67852 -2.66018,-17.18286c-0.29471,-4.72988 -1.00709,-7.11917 0.58823,-7.53538c5.5245,1.50979 9.97938,8.69991 13.35071,21.77561c0.0215,0.08339 0.04299,0.16667 0.06449,0.24986c-1.07896,0.22706 -2.1732,0.41878 -3.26388,0.6413c-2.55773,0.52183 -5.02674,1.19394 -7.53147,1.94465c-0.1783,0.05344 -0.35715,0.10365 -0.53649,0.15106c-0.0038,-0.01475 -0.00759,-0.02948 -0.0114,-0.04424z" data-paper-data="{&quot;index&quot;:null}" fill="#334865"/></g><path d="M306.79625,182.94417c3.15524,-13.31033 11.58614,-11.68498 11.58614,-11.68498c0,0 9.23178,1.98998 11.40837,9.52481c2.42025,8.37825 3.93616,34.30266 4.38022,42.84358c-0.91363,-0.07931 -1.82728,-0.1586 -2.7409,-0.23791c-3.53578,-0.30691 -7.09202,-0.73368 -10.64331,-0.87605c-3.55716,-0.14262 -7.11432,-0.28521 -10.67149,-0.42783c-2.1915,-0.08785 -4.40573,-0.07397 -6.60143,-0.18048c0.31399,-8.11047 1.34167,-30.77426 3.28239,-38.96113z" fill="#334865" stroke="#000000" stroke-width="2" stroke-linecap="butt"/><path d="M315.57205,206.29706l-3.39561,10.31257" fill="none" stroke="#000000" stroke-width="2" stroke-linecap="round"/><path d="M328.0226,208.51048l1.76068,7.29426" fill="none" stroke="#000000" stroke-width="2" stroke-linecap="round"/><path d="M327.67985,177.5372c0,2.94696 -2.80557,4.58137 -7.3302,4.58137c-4.52463,0 -8.19256,-2.38899 -8.19256,-5.33595c0,-2.94696 3.66794,-5.33595 8.19256,-5.33595c4.52463,0 7.3302,3.14357 7.3302,6.09053z" fill="#1b2737" stroke="none" stroke-width="0" stroke-linecap="butt"/><path d="M326.65967,176.17932c0,1.99442 -2.10417,3.61119 -5.49764,3.61119c-3.39348,0 -6.7912,-1.61679 -6.7912,-3.61119c0,-1.99442 2.75095,-3.61119 6.14443,-3.61119c3.39348,0 6.14443,1.61678 6.14443,3.61119z" fill="#ffffff" stroke="#000000" stroke-width="1.5" stroke-linecap="butt"/><path d="M343.79687,154.37105c-0.71543,12.92011 -11.17705,22.84673 -23.36667,22.17176c-12.18963,-0.67498 -21.49129,-11.69597 -20.77586,-24.61607c0.71543,-12.92011 11.17704,-22.84673 23.36665,-22.17175c12.18963,0.67498 21.49131,11.69596 20.77589,24.61606z" fill="#ffffff" stroke="#000000" stroke-width="2" stroke-linecap="butt"/><path d="M319.67467,155.90606c-0.06436,-2.08104 0.72993,-3.79423 1.7741,-3.82653c1.04415,-0.0323 1.94279,1.62853 2.00715,3.70959c0.06436,2.08104 -0.72991,3.79424 -1.77408,3.82654c-1.04415,0.0323 -1.94281,-1.62855 -2.00717,-3.7096z" data-paper-data="{&quot;index&quot;:null}" fill="#000000" stroke="none" stroke-width="0.5" stroke-linecap="butt"/><path d="M335.35247,156.17419c-0.06305,-2.0388 0.63408,-3.71474 1.5571,-3.7433c0.92303,-0.02854 1.7224,1.60111 1.78546,3.63991c0.06305,2.0388 -0.63408,3.71475 -1.5571,3.74331c-0.92303,0.02854 -1.7224,-1.60112 -1.78546,-3.63992z" data-paper-data="{&quot;index&quot;:null}" fill="#000000" stroke="none" stroke-width="0.5" stroke-linecap="butt"/><path d="M336.56771,162.64814l-28.20309,-0.63757" fill="none" stroke="#000000" stroke-width="1.5" stroke-linecap="round"/><path d="M309.03599,159.94708l-1.23713,3.39342" fill="none" stroke="#000000" stroke-width="1.5" stroke-linecap="round"/><path d="M297.79616,222.77039c-5.99487,-1.12069 -3.5332,-11.79721 -1.03309,-25.05098c1.05908,0.1696 2.1306,0.3034 3.20221,0.46565c2.48134,0.37569 4.88505,0.90954 7.32793,1.52108c0.17654,0.04418 0.35342,0.08499 0.53063,0.12285c-2.47869,13.34888 -3.43723,24.06097 -10.02768,22.94141z" data-paper-data="{&quot;index&quot;:null}" fill="#ffffff" stroke="#000000" stroke-width="2" stroke-linecap="butt"/><path d="M308.06467,200.61319c-0.00389,0.01508 -0.00777,0.03016 -0.01166,0.04523c-0.18338,-0.04847 -0.36625,-0.09982 -0.54856,-0.15446c-2.5611,-0.76761 -5.08571,-1.45484 -7.70101,-1.98842c-1.11523,-0.22753 -2.23411,-0.42356 -3.33736,-0.65573c0.02198,-0.08506 0.04396,-0.17022 0.06595,-0.25549c3.44723,-13.37006 8.0024,-20.72201 13.65125,-22.2658c1.63122,0.42559 0.90281,2.86866 0.60146,7.70502c-0.28697,4.60574 -1.03854,11.04792 -2.72006,17.56967z" data-paper-data="{&quot;index&quot;:null}" fill="#334865" stroke="#000000" stroke-width="2" stroke-linecap="butt"/><path d="M312.93102,179.45523c0,3.73937 -0.70382,10.24596 -1.57205,10.24596c-0.86822,0 -2.32662,-3.63053 -2.32662,-7.3699c0,-3.73937 0.70382,-6.77074 1.57204,-6.77074c0.86822,0 2.32662,0.1553 2.32662,3.89468z" fill="#334865" stroke="none" stroke-width="0" stroke-linecap="butt"/><path d="M333.15209,187.28482c0.27945,1.14722 0.85027,3.18328 0.34414,3.30656c-0.50613,0.12329 -3.15518,-3.34779 -3.43463,-4.49502c-0.27945,-1.14722 -2.73672,-5.06973 -2.23058,-5.19302c0.28087,-0.06842 0.92235,-1.21568 2.26904,0.43547c0.60346,0.7399 1.69816,2.35002 2.34642,3.7159c0.51189,1.07855 0.65075,2.00482 0.70562,2.23009z" fill="#334865" stroke="none" stroke-width="0" stroke-linecap="butt"/></g></g></svg>