<svg version="1.1" xmlns="http://www.w3.org/2000/svg" xmlns:xlink="http://www.w3.org/1999/xlink" width="15.42672" height="44.08815" viewBox="0,0,15.42672,44.08815"><g transform="translate(-312.69406,-159.72118)"><g data-paper-data="{&quot;isPaintingLayer&quot;:true}" fill="#fff6b5" fill-rule="nonzero" stroke="#ddd173" stroke-width="4" stroke-linecap="butt" stroke-linejoin="miter" stroke-miterlimit="10" stroke-dasharray="" stroke-dashoffset="0" style="mix-blend-mode: normal"><path d="M325.66087,192.1521c0,0 -0.12611,2.11157 -0.84321,2.15067c-1.34173,0.07315 -7.35635,7.95157 -10.12359,7.48678c-1.13449,-0.19055 -0.84051,-2.02942 -0.84051,-2.02942c0,0 -0.26165,-6.12596 -0.12775,-12.48459c0.16596,-7.88116 0.77068,-16.6708 1.23626,-21.11713c0.19635,-1.87514 0.27985,-3.32355 0.29827,-4.43722c0.04742,-2.86624 -0.09341,-3.52078 0.31661,-3.53012c1.94906,-0.04441 7.67731,3.69412 9.07197,3.66234c0.59425,-0.01354 1.34926,1.22402 1.47585,3.22499c0.19878,3.14207 0.35437,4.26315 -0.15901,9.1577c-0.7751,7.38981 -0.30489,17.91601 -0.30489,17.91601z"/></g></g></svg>