<svg version="1.1" xmlns="http://www.w3.org/2000/svg" xmlns:xlink="http://www.w3.org/1999/xlink" width="446.37" height="513.75049" viewBox="0,0,446.37,513.75049"><defs><linearGradient x1="326.65279" y1="61.81426" x2="427.45279" y2="61.81426" gradientUnits="userSpaceOnUse" id="color-1"><stop offset="0" stop-color="#d8d1ff" stop-opacity="0.38039"/><stop offset="1" stop-color="#d1fffd" stop-opacity="0.41961"/></linearGradient><linearGradient x1="318.92942" y1="106.3763" x2="433.54331" y2="106.3763" gradientUnits="userSpaceOnUse" id="color-2"><stop offset="0" stop-color="#d8d1ff" stop-opacity="0.38039"/><stop offset="1" stop-color="#d1fffd" stop-opacity="0.41961"/></linearGradient><linearGradient x1="392.30474" y1="42.83679" x2="392.30473" y2="60.13916" gradientTransform="translate(-993.50976,-146.9385) rotate(-0.8278) scale(2.75714,2.92461) skewX(0)" gradientUnits="userSpaceOnUse" id="color-3"><stop offset="0" stop-color="#d9d2ff"/><stop offset="1" stop-color="#d2fffd"/></linearGradient><linearGradient x1="379.11708" y1="51.50679" x2="379.11709" y2="72.57338" gradientTransform="translate(-770.34466,-148.60127) rotate(-0.82786) scale(2.26442,2.40203) skewX(-0.00077)" gradientUnits="userSpaceOnUse" id="color-4"><stop offset="0" stop-color="#d9d2ff"/><stop offset="1" stop-color="#d2fffd"/></linearGradient></defs><g transform="translate(-314.51672,177.60221)"><g data-paper-data="{&quot;isPaintingLayer&quot;:true}" fill-rule="nonzero" stroke-linecap="butt" stroke-linejoin="miter" stroke-miterlimit="10" stroke-dasharray="" stroke-dashoffset="0" style="mix-blend-mode: normal"><path d="M385.38672,190.39779v-368h375.5v368z" fill-opacity="0.03137" fill="#d8d1ff" stroke="none" stroke-width="0"/><path d="M548.62537,217.83187c0,34.00281 -39.98342,100.87575 -58.79316,115.16526c-7.7516,5.88879 -105.79747,1.71807 -115.0634,1.71807c-31.7503,0 -57.489,-38.9243 -57.489,-86.93984c0,-8.42284 -2.66444,-99.9799 -1.18687,-107.68219c6.9455,-36.20571 32.49517,20.74236 58.67588,20.74236c31.7503,0 173.85656,8.98081 173.85656,56.99634z" fill-opacity="0.03137" fill="#d8d1ff" stroke="none" stroke-width="0"/><path d="M440.24474,133.89382c0,28.67796 -23.94427,37.44391 -58.41016,37.44391c-1.84682,0 -9.55117,0.31436 -11.35722,0.1836c-31.89901,-2.30952 -55.04468,-10.48623 -55.04468,-37.6275c0,-28.67796 -4.24636,-195.72568 30.21953,-195.72568c23.93012,0 72.03223,-26.32232 91.98921,32.50962c3.68263,10.85618 2.6033,158.12383 2.6033,163.21607z" fill="#3983e5" stroke="#000000" stroke-width="1.5"/><path d="M367.38362,151.85911l2.70199,1.66811c1.12147,1.50709 4.85999,7.73782 7.93686,7.74657c0.76779,0.00218 0.29195,-1.21364 0.81167,-1.64488c2.2911,-1.90105 5.10043,-3.47952 6.97902,-5.62789c0,0 2.35029,-2.63235 5.80003,-0.83895c3.44974,1.7934 1.09946,4.42575 1.09946,4.42575c-2.26625,2.49697 -5.08723,4.71763 -8.13923,6.66744c-1.68778,1.07826 -2.81289,3.23073 -5.01317,3.27995c-8.76152,0.19598 -13.16284,-6.11929 -16.72325,-10.84741l0.52135,0.75237c0,0 -3.65703,-1.53575 -1.6444,-4.32628c2.01263,-2.79052 5.66966,-1.25478 5.66966,-1.25478z" data-paper-data="{&quot;index&quot;:null}" fill="#ffffff" stroke="none" stroke-width="0.5"/><path d="M326.65279,65.56426v-7.5c0,0 36.09938,-2 53.31789,-2c16.33492,0 47.48211,2 47.48211,2v7.5c0,0 -30.99877,-2 -47.08421,-2c-17.40968,0 -53.71579,2 -53.71579,2z" fill="url(#color-1)" stroke="none" stroke-width="0"/><path d="M433.54331,106.3763c0,8.56082 6.71528,29.58705 -8.11042,36.61591c-18.6501,8.84201 -61.16374,2.71742 -78.7965,2.71742c-31.64975,0 -27.70696,-20.00337 -27.70696,-39.33333c0,-19.15832 4.8966,-35.72142 36.1583,-35.9963c0.28008,-0.00246 20.86761,0.9963 21.14865,0.9963c8.35956,0 31.44524,0.42653 38.60633,2.39161c19.95119,5.47482 18.70061,18.384 18.70061,32.60839z" fill="url(#color-2)" stroke="none" stroke-width="0"/><g stroke="#ffffff" stroke-width="1" font-family="Playful" font-weight="normal" font-size="40" text-anchor="start"><text transform="translate(359.53267,55.14474) rotate(0.78041) scale(0.36269,0.34193) skewX(-0.09208)" font-size="40" xml:space="preserve" data-paper-data="{&quot;index&quot;:null}" fill="url(#color-3)" fill-rule="nonzero" stroke="#ffffff" stroke-width="1" stroke-linecap="butt" stroke-linejoin="miter" stroke-miterlimit="10" stroke-dasharray="" stroke-dashoffset="0" font-family="Playful" font-weight="normal" text-anchor="start" style="mix-blend-mode: normal"><tspan x="0" dy="0">Kicker</tspan></text><text transform="translate(339.21301,66.49221) rotate(0.78044) scale(0.44161,0.41632) skewX(-0.0914)" font-size="40" xml:space="preserve" data-paper-data="{&quot;index&quot;:null}" fill="url(#color-4)" fill-rule="nonzero" stroke="#ffffff" stroke-width="1" stroke-linecap="butt" stroke-linejoin="miter" stroke-miterlimit="10" stroke-dasharray="" stroke-dashoffset="0" font-family="Playful" font-weight="normal" text-anchor="start" style="mix-blend-mode: normal"><tspan x="0" dy="0">Upgrades</tspan></text></g></g></g></svg>