<svg version="1.1" xmlns="http://www.w3.org/2000/svg" xmlns:xlink="http://www.w3.org/1999/xlink" width="271.57204" height="408.37426" viewBox="0,0,271.57204,408.37426"><g transform="translate(149.94305,-74.32114)"><g data-paper-data="{&quot;isPaintingLayer&quot;:true}" fill-rule="nonzero" stroke-linejoin="miter" stroke-miterlimit="10" stroke-dasharray="" stroke-dashoffset="0" style="mix-blend-mode: normal"><path d="" fill-opacity="0.40784" fill="#000000" stroke="none" stroke-width="0" stroke-linecap="butt"/><path d="" data-paper-data="{&quot;index&quot;:null}" fill="#ffffff" stroke="#000000" stroke-width="2" stroke-linecap="butt"/><path d="" data-paper-data="{&quot;index&quot;:null}" fill="#ffffff" stroke="#000000" stroke-width="2" stroke-linecap="butt"/><g stroke="none" stroke-width="0"><path d="M36.83247,414.76928c-0.22874,1.36499 -2.8103,21.22056 -1.60984,34.8114c0.85167,9.64288 8.01779,19.85376 4.90173,24.23632c-11.77587,16.56187 -42.98197,5.10904 -50.72814,3.87515c-12.68494,-2.02054 3.32706,-69.4279 4.33148,-75.42131c1.00442,-5.9934 11.24599,1.93706 23.93097,3.95771c12.68498,2.02062 20.17828,2.54732 19.17387,8.54072z" data-paper-data="{&quot;index&quot;:null}" fill="#ffffff" stroke-linecap="butt"/><path d="M93.80867,380.9319c0.37513,1.33219 6.4849,20.4003 13.26373,32.21699c4.80975,8.38416 15.38468,14.65458 14.5049,19.92328c-3.32459,19.91039 -35.46082,22.52106 -42.75974,24.62719c-11.95248,3.44893 -26.35144,-64.30209 -27.99866,-70.1515c-1.64718,-5.84941 10.65801,-2.9257 22.61046,-6.37459c11.95248,-3.44893 18.73202,-6.0907 20.37917,-0.2413z" fill="#ffffff" stroke-linecap="butt"/><path d="M21.11399,348.71369c9.50121,-4.78001 18.87114,-9.809 28.39451,-14.55008c4.77236,-2.37584 9.54469,-4.75168 14.31702,-7.12752c15.73975,22.09953 30.48587,51.76004 32.27084,54.87461c2.69837,4.70827 -2.54407,15.08324 -14.74716,22.41375c-12.20309,7.3305 -26.13024,9.45622 -28.82857,4.74795c-0.88647,-1.54674 -19.78014,-34.69652 -31.40665,-60.35871z" data-paper-data="{&quot;index&quot;:null}" fill="#222228" stroke-linecap="butt"/><path d="M41.17846,415.14549c0.62293,5.38613 -11.48374,10.96798 -27.04097,12.46747c-15.55723,1.4995 -28.67386,-1.65128 -29.29679,-7.03742c-0.1348,-1.16574 0.84121,-7.61576 -0.14359,-15.35775c-0.89518,-7.03742 -3.73141,-15.03533 -4.34718,-23.15145c-0.77723,-10.24472 -0.17292,-16.55064 -0.24433,-26.73695c5.76891,-0.97848 11.53782,-1.95693 17.3067,-2.93542c11.51204,-1.95257 23.07247,-3.58273 34.58979,-5.49082c6.13492,27.50044 8.9717,66.47291 9.17636,68.24237z" fill="#222228" stroke-linecap="butt"/><path d="M59.20646,345.88415c3.24147,8.65568 -6.97658,20.48312 -22.82264,26.41734c-15.84607,5.93422 -31.31962,3.72798 -34.56109,-4.9277c-3.24147,-8.65568 6.97661,-20.48308 22.82268,-26.4173c15.84607,-5.93422 31.31955,-3.72801 34.56102,4.92763z" fill="#222228" stroke-linecap="butt"/><path d="M44.78143,369.15665l-15.49579,6.56347" fill="none" stroke-linecap="round"/><path d="M67.55173,331.0964c1.23204,3.04302 -2.65441,4.13964 -28.2834,14.6333c-1.06086,0.43435 -26.30256,17.89014 -27.38404,18.32345c-27.20757,10.90178 -33.38246,5.74076 -34.66549,2.57181c-0.20269,-0.50062 -5.32924,-4.54703 -8.32986,-11.75341c-3.48421,-8.36784 -6.84621,-27.71244 -10.7207,-40.56543c-3.77009,-12.50659 -8.05816,-18.47384 -11.08323,-30.19766c-8.13673,-31.53432 -5.02419,-50.45167 20.19579,-62.88195c28.21018,-13.90406 48.04506,9.4502 65.24877,37.86156c19.32325,31.91167 34.34344,70.33188 35.02215,72.00832z" fill="#aefa7f" stroke-linecap="butt"/><path d="M-78.34315,291.84608c0.37454,-1.1507 0.7561,-2.29175 1.14429,-3.42247c5.10587,0.64394 10.19439,1.39994 15.32705,2.34996c8.51511,0.85374 17.03136,1.69349 25.54862,2.52305c-0.82927,2.97795 -1.74171,6.00397 -2.73714,9.06263c-11.44202,35.15741 -10.87068,59.80281 -34.83813,57.89374c-19.32687,-2.37627 -15.88678,-33.24955 -4.44474,-68.40688z" data-paper-data="{&quot;index&quot;:null}" fill="#ffffff" stroke-linecap="butt"/><path d="M-44.76925,245.29895c9.19494,1.0049 6.33012,28.06207 3.19406,59.631c-7.86525,0.55464 -17.60161,-3.49083 -25.46774,-2.94892c-4.69849,-0.11433 -9.33342,-0.04502 -13.96685,0.13654c0.85031,-5.09401 -1.91146,-5.98509 0.18057,-12.07027c7.23309,-21.03918 24.75144,-49.00762 33.50615,-45.96326z" data-paper-data="{&quot;index&quot;:null}" fill="#aefa7f" stroke-linecap="butt"/><path d="M-36.15301,252.03706c0.78927,5.72506 8.76395,11.92312 5.76197,18.29534c-3.66684,7.78358 -16.14961,21.32289 -22.19103,6.32487c-1.30593,-3.24199 -1.93274,-9.82141 -1.56004,-16.32057c-0.30561,-0.47653 -0.57121,-0.98827 -0.79042,-1.53252c-1.61652,-4.01301 0.2178,-11.43956 3.59883,-13.85892c2.57369,-6.19185 6.88515,-5.07491 14.4933,5.38539z" fill="#aefa7f" stroke-linecap="butt"/><path d="M-1.39432,218.70133c3.01694,7.49168 -4.23126,17.46868 -16.18913,22.28412c-11.95791,4.81544 -24.09739,2.64591 -27.1143,-4.84577c-3.01694,-7.49168 4.23118,-17.46861 16.1891,-22.28408c11.95791,-4.81544 24.09743,-2.64599 27.11433,4.84573z" fill="#ffffff" stroke-linecap="butt"/><path d="M-78.58449,158.73193c3.8811,3.8415 -5.93518,25.89178 -23.12142,43.25515c-17.18624,17.3634 -35.23448,23.46467 -39.11562,19.62317c-3.8811,-3.8415 6.90495,-21.03143 24.09118,-38.39479c17.18624,-17.3634 34.26472,-28.32503 38.14581,-24.48357z" fill="#ff2e2e" stroke-linecap="butt"/><path d="M-4.57414,114.63195c4.257,4.87897 6.58046,10.13619 9.78433,15.10005c23.4564,36.34123 14.48791,68.34913 -12.94464,92.26074c-31.79549,27.71455 -78.10438,28.48243 -109.12818,-7.07373c-31.02384,-35.5562 -29.25272,-86.31012 2.54277,-114.0247c31.79549,-27.71455 78.72184,-21.81856 109.74568,13.7376z" fill="#ffffff" stroke-linecap="butt"/><path d="M-13.93745,164.53169c-3.82465,1.45675 -9.32877,-3.67279 -12.29374,-11.45726c-2.96497,-7.78447 -2.26805,-15.27589 1.55664,-16.73264c3.82465,-1.45675 9.32874,3.67283 12.29374,11.45729c2.96497,7.78447 2.26801,15.27585 -1.55664,16.73261z" data-paper-data="{&quot;index&quot;:null}" fill="#000000" stroke-linecap="butt"/><path d="M-63.93194,197.81345c-3.54641,1.52927 -9.33819,-3.99565 -12.93647,-12.3401c-3.59828,-8.34445 -3.64035,-16.34868 -0.09394,-17.87791c3.54641,-1.52927 9.33819,3.99561 12.93647,12.34006c3.59828,8.34445 3.64032,16.34872 0.09394,17.87795z" data-paper-data="{&quot;index&quot;:null}" fill="#000000" stroke-linecap="butt"/><path d="M-107.75761,80.43332c3.69384,4.10758 -0.44026,13.93572 -9.23391,21.95173c-8.79354,8.01609 -18.91661,11.18449 -22.61042,7.07694c-3.69384,-4.10758 0.44026,-13.93575 9.23391,-21.95173c8.79354,-8.01609 18.91665,-11.18449 22.61046,-7.07694z" fill="#ff4f4f" stroke-linecap="butt"/><path d="M-8.38457,105.68935c2.66656,3.55417 -28.74593,17.36355 -62.54039,42.71781c-33.79443,25.35422 -54.32257,55.06194 -56.98913,51.50769c-2.66656,-3.55417 -53.64065,-61.46797 9.20705,-109.44558c55.52418,-42.38693 107.65595,11.66582 110.32251,15.22011z" fill="#ff4f4f" stroke-linecap="butt"/><path d="M-48.81368,109.78556c2.95389,4.00008 -5.41059,11.78149 -17.06308,20.3863c-0.21721,0.1604 -0.98199,0.23679 -1.19932,0.39386c-11.43905,8.2651 -21.03608,14.30612 -23.93493,10.38058c-2.95389,-4.00008 4.09768,-14.21842 15.75017,-22.8232c11.65249,-8.60477 23.49326,-12.33763 26.44715,-8.33754z" fill="#ffffff" stroke-linecap="butt"/></g></g></g></svg>