<svg version="1.1" xmlns="http://www.w3.org/2000/svg" xmlns:xlink="http://www.w3.org/1999/xlink" width="240.70095" height="271.24935" viewBox="0,0,240.70095,271.24935"><g transform="translate(-198.43102,-37.30729)"><g data-paper-data="{&quot;isPaintingLayer&quot;:true}" fill-rule="nonzero" stroke-linejoin="miter" stroke-miterlimit="10" stroke-dasharray="" stroke-dashoffset="0" style="mix-blend-mode: normal"><path d="M212.68454,251.09299c0,0 2.70283,-21.48234 2.76487,-48.21794c0.05469,-23.56981 -2.0173,-51.51951 -8.75383,-68.23562c-9.52298,-23.63053 -6.30356,-51.38917 -2.61631,-66.55884c2.34816,-9.66055 16.35359,-15.63539 27.37675,-15.57002c25.87057,0.15343 127.462,3.11692 163.61665,3.33134c7.60572,0.04511 9.66011,0.87183 10.53975,14.70983c0.34179,5.37674 0.22395,16.03623 3.86623,25.08925c8.63655,21.46653 20.18727,58.9023 23.26579,96.95192c2.48378,30.69899 -1.03644,61.60798 -1.03644,61.60798c0,0 5.45342,8.87792 -15.59128,9.79789c-51.33192,2.24398 -154.90183,2.16397 -179.79071,1.8108c-13.30217,-0.18876 -23.64148,-14.71659 -23.64148,-14.71659z" fill="#fff6b5" stroke="#ddd173" stroke-width="4" stroke-linecap="butt"/><path d="M234.02914,211.77335c0,0 7.04621,-53.29476 -4.56887,-79.33291c-7.69308,-17.24606 -5.36157,-43.16221 -2.38285,-54.23335c1.89695,-7.05047 13.87782,-13.74436 22.78282,-13.69665c15.35816,0.08228 65.42561,3.61251 102.48624,4.48027c13.37151,0.31309 25.04982,-1.46006 32.79381,-1.41857c6.14424,0.03292 4.03392,2.33919 4.74453,12.43845c0.27611,3.92405 1.52733,9.02756 4.46973,15.63465c6.97699,15.66672 18.37223,56.63723 20.85918,84.40663c2.0065,22.40477 -4.24774,33.9897 -4.24774,33.9897c0,0 4.40552,6.47929 -12.59532,7.1507c-26.04945,1.02877 -66.63504,3.47361 -101.66922,2.60676c-20.73685,-0.51309 -42.56047,-4.35192 -50.03644,-4.44776c-10.74608,-0.13776 -12.63588,-7.57792 -12.63588,-7.57792z" fill="#fffef9" stroke="none" stroke-width="0" stroke-linecap="butt"/><path d="" fill="#ff3e3e" stroke="#000000" stroke-width="0.5" stroke-linecap="butt"/><path d="" fill="#e23636" stroke="none" stroke-width="0" stroke-linecap="butt"/><path d="" data-paper-data="{&quot;index&quot;:null}" fill="#3053c7" stroke="#000000" stroke-width="0.5" stroke-linecap="butt"/><path d="" data-paper-data="{&quot;index&quot;:null}" fill="#3053c7" stroke="#000000" stroke-width="0.5" stroke-linecap="butt"/><path d="" data-paper-data="{&quot;index&quot;:null}" fill="#3053c7" stroke="#000000" stroke-width="0.5" stroke-linecap="butt"/><path d="M285.75465,255.05723c-1.1046,-0.68447 -2.62646,-0.91955 -3.47946,-1.87502c-0.13009,-0.14572 -0.24463,-0.30817 -0.33975,-0.49156c-1.98313,-3.82304 0.16646,-15.4882 3.86856,-18.38759c2.49209,-1.95176 5.02703,-2.8232 7.88903,-1.50486c1.49773,0.68991 2.1192,4.29187 3.60424,3.57046c4.01415,-1.95002 5.66584,-7.65972 11.56485,-4.24804c6.18879,3.57927 5.23007,11.1462 5.23007,17.93884c0,3.27822 -3.70312,6.92941 -6.62904,5.11633c-4.45675,-2.76166 0.47952,-11.90367 -2.3464,-13.77886c-0.5376,-0.35673 -6.98959,9.54962 -7.71943,9.70792c-2.3356,0.50655 -4.4888,-0.66368 -5.52108,-2.99353c-0.4605,-1.03936 -0.19497,-3.75036 -1.14356,-3.22931c-1.54955,0.85114 0.46238,6.80406 -1.21637,7.84432z" fill="#ff9638" stroke="none" stroke-width="0.5" stroke-linecap="butt"/><path d="M336.46135,231.93123c2.42965,2.08256 1.98555,5.3517 0.69142,7.83369c-0.09578,0.1837 -2.55209,4.27894 -2.55005,4.28031c2.58743,1.74227 6.19333,-1.96183 6.19333,4.73318c0,8.64596 -21.24069,8.76761 -25.04117,2.11673c-2.25019,-3.93783 2.93675,-7.45925 6.38762,-8.32197c1.03792,-0.25949 1.24228,-0.17979 2.0211,-0.82426c0.85229,-0.70524 3.33467,-2.38317 2.23089,-2.45708c-3.75837,-0.25172 -9.41255,2.61645 -11.28139,-0.65405c-1.39506,-0.82335 -2.33093,-2.34196 -2.33093,-4.07913c0,-2.61406 2.11912,-4.73318 4.73318,-4.73318c0.20532,0 0.40762,0.01307 0.60606,0.03845c5.72525,-2.64176 13.73616,-1.87879 18.33992,2.06729z" fill="#ff9638" stroke="none" stroke-width="0.5" stroke-linecap="butt"/><path d="M396.30396,227.58284c2.32503,-2.49082 4.00825,-4.57753 5.97679,-4.5681c1.1587,0.00555 2.41628,0.73733 3.96178,2.54043c0.98339,1.14727 2.18476,4.31994 2.55462,5.88643c0.3522,1.49163 -0.24724,5.76003 0.6884,4.54611c2.14174,-2.77874 3.06467,-11.96214 5.72783,-13.56002c3.82655,-2.29593 5.73983,-1.81762 8.03576,2.00893c1.29612,2.16018 -1.03069,5.76744 -1.68363,7.70491c-1.70631,5.0632 -7.53487,20.52464 -14.03671,20.88585c-6.22,0.34556 -6.80116,-15.32158 -7.95215,-19.32752c-0.26666,-0.92816 -2.50313,-3.37684 -2.51237,-3.54326z" fill="#6676ff" stroke="none" stroke-width="0.5" stroke-linecap="butt"/><path d="M377.31228,229.78154c0.01922,-0.0373 0.03904,-0.07386 0.05949,-0.10964c2.50187,-4.37867 10.98584,-4.454 14.78404,-2.71987c2.60902,1.1912 4.85591,6.82931 5.43322,9.55739c0.17916,0.84661 0.15333,1.5829 -0.01647,2.20522c0.20638,0.26486 0.39507,0.55197 0.56432,0.863l-1.377,2.53048c-0.60935,1.11977 -3.31573,0.2345 -4.3898,0.21397c-1.0924,-0.02088 -6.6875,0.374 -11.16312,-0.17938c0.63599,1.1197 1.46348,2.09507 2.46692,2.79239c3.48741,2.42346 6.76357,-0.36094 9.46449,-0.34987c2.98374,0.01222 4.89271,3.19563 2.35338,5.31455c-5.43819,4.53778 -15.29015,2.829 -19.81488,-2.1793c-2.27558,-2.51878 -1.44439,-6.33397 -1.57648,-9.67694c-0.14533,-3.67825 0.84412,-7.86055 3.21188,-8.26199zM392.22624,238.28733c1.20628,-0.25906 -0.51516,-4.39712 -0.64084,-4.56788c-1.10872,-1.50632 -4.94306,-1.87595 -7.79702,-0.84638c-1.85175,0.66799 -2.14198,4.71177 -2.15597,4.76868c0.20825,0.80192 8.28357,1.14172 10.59383,0.64558z" data-paper-data="{&quot;index&quot;:null}" fill="#6676ff" stroke="#6676ff" stroke-width="1" stroke-linecap="butt"/><path d="M344.0299,254.088c0.029,-0.05076 0.05807,-0.101 0.08719,-0.15074c-0.08538,-0.21754 -0.1645,-0.43842 -0.23817,-0.66247c-0.97765,-2.97284 -1.00206,-6.50127 -2.14999,-10.13462c-1.13426,-3.59008 -2.28581,-7.26835 -3.22527,-10.91064c-0.74123,-2.87375 -2.76446,-8.41329 -2.27278,-11.48028c0.2671,-1.6661 1.55606,-2.94563 3.08543,-3.52231c0.75439,-1.36304 2.20705,-2.2859 3.87523,-2.2859c0.27159,0 0.53748,0.02446 0.79555,0.0713c8.5357,-3.14139 22.32498,3.22178 25.33899,11.35336c0.23611,0.63701 1.62598,4.25626 2.2872,8.51873c0.9224,5.94616 0.93409,13.14405 -1.09179,15.24397c-4.0548,4.20302 -8.47475,4.37314 -13.61842,5.98488c-1.3138,0.41167 -5.89384,2.41399 -8.67133,2.51116l-0.02637,0.01507c-0.00788,-0.0045 -0.01576,-0.00902 -0.02361,-0.01354c-0.93331,0.02508 -1.65632,-0.17079 -1.97212,-0.72344zM359.6868,246.63644c9.62107,-4.64067 0.4018,-20.49179 -3.25766,-21.53049c-3.21596,-0.91282 -6.46696,-0.88551 -9.7321,-1.07757c1.97439,6.26198 2.8787,13.90021 4.38879,19.6691c0.22075,0.8433 0.79425,2.79471 1.25658,4.93303c2.22504,-0.396 4.66659,-0.70246 7.34438,-1.99407z" fill="#6676ff" stroke="none" stroke-width="0.5" stroke-linecap="butt"/><path d="M242.99355,218.5676c7.75041,4.15314 12.04616,18.7098 9.11422,26.25056c-2.65872,6.8381 -10.1041,12.76509 -17.20101,13.59237c-3.25226,0.37911 -8.37836,2.64264 -10.00554,-1.66584c-1.95343,-1.77104 -1.73308,-5.36688 -1.75947,-7.91114c-0.08298,-7.99411 2.217,-19.14094 -0.43704,-26.96124c-0.12099,-0.33468 -0.20779,-0.68754 -0.25577,-1.05499c-0.35652,-2.73161 1.56884,-5.23502 4.30046,-5.59157c0.02811,-0.00368 0.05619,-0.00711 0.08425,-0.01028c0.36505,-0.14122 0.75269,-0.24141 1.15808,-0.29433c0.77317,-0.10092 1.52808,-0.019 2.22119,0.21226c3.9785,-0.56486 8.7891,1.29528 12.78065,3.43421zM242.61991,241.43491c0.7439,-1.50274 -0.42116,-6.85894 -0.45025,-7.04483c-1.07729,-6.88187 -4.94593,-7.83449 -8.64758,-8.12459c0.48766,6.71132 0.35508,16.01119 0.05117,21.87522c3.76267,-1.75201 7.58581,-3.75477 9.04665,-6.7058z" fill="#ff9638" stroke="none" stroke-width="0.5" stroke-linecap="butt"/><path d="M258.59626,228.12877c2.87027,1.64017 3.90652,4.16272 4.24158,6.83602c0.7115,5.67682 -1.73887,12.0334 3.49662,12.06369c8.54667,0.04945 -1.94757,-20.85753 10.85855,-16.12482c3.34844,1.23746 2.10574,6.99626 2.08725,9.53111c-0.0682,9.34647 -3.2138,16.6268 -13.71388,16.06007c-9.20711,-0.49694 -13.05102,-8.85495 -12.25916,-16.85206c0.1412,-1.42599 0.10948,-8.55428 1.20991,-9.18308z" fill="#ff9638" stroke="none" stroke-width="0.5" stroke-linecap="butt"/><path d="M261.32401,275.6085c-3.4467,4.48551 -7.93223,1.03882 -7.93223,1.03882l1.92403,-1.199c-6.12952,-0.19846 -1.4861,15.18557 -1.12676,19.92005c0,0 -1.37206,6.84064 -7.01264,7.26861c-5.64058,0.42797 -5.26859,-6.21264 -5.26859,-6.21264c-0.31477,-4.14986 -0.84155,-8.28731 -0.98082,-12.17707c-1.04079,3.18235 -4.15653,5.89241 -8.14319,8.65556c-2.04139,1.41489 -3.9743,1.77208 -6.36144,2.4581l-1.64805,0.40484c0,0 -0.24636,0.06052 -0.64754,0.10377c0.36931,2.06637 0.30776,4.33716 0.60532,6.41295c0,0 1.19614,5.40051 -4.40436,6.19665c-5.60051,0.79614 -6.39665,-4.80436 -6.39665,-4.80436c-0.42685,-3.03094 -0.73705,-7.23724 -1.69899,-11.03544c-1.95506,-7.71948 -4.72388,-15.63161 -3.4831,-21.71704c4.38273,-21.49527 29.4801,-8.86822 32.54609,6.21018c0.96829,-5.57027 2.16953,-9.80177 9.72177,-11.87115c6.40231,-1.75429 9.2683,2.41492 9.2683,2.41492c0,0 4.48551,3.4467 1.03885,7.93223zM221.90734,285.42689c0.10728,-0.03312 0.16809,-0.04806 0.16809,-0.04806l1.64805,-0.40484c12.18151,-2.04055 1.93644,-17.37466 -4.08556,-13.00882c-1.47602,1.07008 0.0697,3.67099 0.47373,5.44877c0.60584,2.66585 1.2118,5.33644 1.79569,8.01296z" fill="#ffe966" stroke="none" stroke-width="0.5" stroke-linecap="butt"/><path d="M291.60114,283.64437c3.53378,4.41721 -0.08343,9.75104 -0.08343,9.75104l-4.73672,3.26373c-5.93477,1.68545 -10.20352,3.85417 -16.73497,1.39305c-4.16664,-1.57002 -6.18627,-5.34096 -8.00684,-9.31569c-0.87795,-0.76124 -1.58414,-1.94254 -1.75041,-3.77166c-0.07729,-0.85027 -0.01462,-1.58385 0.14759,-2.21664c-0.47189,-5.33496 3.96775,-10.91833 9.39539,-14.02915c11.48182,-6.5808 22.77974,4.8185 12.47161,16.96818c-0.21683,0.25557 -0.45483,0.49465 -0.71153,0.71842c0.72093,-0.19578 1.38145,-0.40294 1.93823,-0.58299l0.92009,-1.26172c0,0 2.98328,-2.05928 4.30297,-2.22843c0.8936,-0.11454 2.84802,1.31186 2.84802,1.31186z" fill="#ffe966" stroke="none" stroke-width="0.5" stroke-linecap="butt"/><path d="M296.94302,288.1371c3.53342,-1.17781 5.71588,-0.05364 6.65794,1.39832c2.9127,0.11622 6.29979,-1.01529 4.90022,-2.50595c-2.74559,-2.92428 -9.39473,0.2728 -12.04152,-2.74119c-10.44988,-11.8996 1.75386,-17.48149 11.18584,-18.06871c0,0 8.45682,-2.00002 8.45682,3.65679c0,5.65682 -5.45682,8.05682 -5.45682,8.05682c-13.65761,-2.03034 6.41154,2.15355 6.5325,2.34281c10.42163,16.3046 -7.49126,24.90604 -18.58131,20.37691c-5.65266,-2.30852 -5.23135,-5.36042 -5.23135,-5.36042c0,0 -1.78886,-5.36652 3.57769,-7.15538z" fill="#ffe966" stroke="none" stroke-width="0.5" stroke-linecap="butt"/><path d="M354.80853,286.07603c3.4735,3.4735 0,6.94701 0,6.94701l-3.40569,2.96338c-16.85491,5.76192 -34.68454,-1.0444 -26.84954,-18.89264c2.75678,-6.27995 11.92019,-9.99532 18.96851,-8.56547c11.00352,2.2322 12.9922,13.20095 1.5738,18.78143c-2.24927,1.09927 -5.88522,1.26179 -9.05178,1.27066c3.83166,0.92113 9.29217,-0.57267 11.29358,-1.5379l0.52414,-0.96645c0,0 3.4735,-3.4735 6.94701,0zM338.17808,277.91405c-0.11975,-0.00227 -0.23002,0.00372 -0.32879,0.01955c0.10955,-0.00682 0.2192,-0.01334 0.32879,-0.01955z" fill="#ffe966" stroke="none" stroke-width="0.5" stroke-linecap="butt"/><path d="M381.53373,294.12513c-5.54698,1.1094 -8.05635,-4.03758 -8.05635,-4.03758l-0.21062,-4.60144c-5.12265,-8.07994 -2.42407,0.14313 -3.05276,6.48333c0,0 -0.56288,5.62876 -6.19161,5.06588c-5.62874,-0.56288 -4.26586,-7.19161 -4.26586,-7.19161c0.6041,-5.99453 -0.88053,-10.24205 2.38971,-14.4865c3.08207,-4.00022 9.90051,-7.35537 17.49636,-1.76778c2.32766,1.71227 3.65107,3.9781 5.2766,6.36715l1.05211,7.5122c0,0 1.1094,5.54695 -4.43756,6.65635z" fill="#ffe966" stroke="none" stroke-width="0.5" stroke-linecap="butt"/><path d="M412.31941,278.84713c0,5.65682 -5.65682,3.25679 -5.65682,3.25679l-0.11946,-0.09126c-0.4853,0.08773 -0.97111,0.17272 -1.45743,0.25499c0.23099,3.31751 0.23404,4.44054 0.24552,7.81854c0,0 2.8,9.45679 -2.85682,9.45679c-5.65682,0 -7.65679,-5.85679 -7.65679,-5.85679c0.01153,-2.88153 -0.73321,-7.1349 -0.92268,-9.98359c-0.30149,0.02714 -0.60302,0.05341 -0.9046,0.07881c0,0 -5.63727,0.46976 -6.10705,-5.16751c-0.46979,-5.63727 5.16751,-6.10703 5.16751,-6.10703c0.37239,-0.03064 0.74469,-0.06276 1.11691,-0.09635c-0.05099,-1.28835 -0.08147,-2.58198 -0.08147,-3.88295v-2.26273c0,0 -1.00002,-5.45679 4.65679,-5.45679c5.65682,0 6.66755,9.30267 6.68691,10.08979c0.02977,-0.00544 0.05957,-0.01088 0.08935,-0.01631l2.14329,-0.09123c0,0 5.65682,0 5.65682,5.65682z" fill="#ffe966" stroke="none" stroke-width="0.5" stroke-linecap="butt"/><path d="M408.85257,293.23932l1.92365,0.54754c1.84484,0.06417 3.98917,-0.13745 6.11724,0.2315c-1.33967,-0.77952 -2.43144,-1.7516 -2.69072,-2.60152c-1.20552,-3.95177 -4.00116,-9.66156 -1.8869,-13.26384c3.90592,-6.6549 12.84129,-6.78239 18.83768,-6.7028c0,0 1.00462,-0.17417 1.61007,-0.06098c1.83968,0.34391 6.53352,4.23278 6.36391,8.87775c-0.22543,6.17364 -6.82483,5.96274 -6.82483,5.96274c-11.27865,-0.68843 -2.57105,-0.84406 0.64352,4.27669c1.69502,2.70013 6.0852,6.07693 1.6697,11.13536c-3.23952,3.7112 -19.36023,4.63786 -24.29053,4.49239l-4.50338,-0.87c0,0 -3.22706,-4.78527 -1.71175,-10.79764z" fill="#ffe966" stroke="none" stroke-width="0.5" stroke-linecap="butt"/><path d="M370.73246,165.87953c0,1.70228 2.19313,7.26166 2.05188,8.90866c-2.22417,25.93358 -23.85762,40.76508 -48.81317,40.76508c-24.32342,0 -46.16057,-16.80787 -49.53098,-41.72089c-0.30721,-2.27076 0.18085,-5.57161 0.18085,-7.95285c0,-28.5064 21.51527,-51.61539 48.0557,-51.61539c26.54043,0 48.0557,23.10899 48.0557,51.61539z" fill="#ffffff" stroke="#000000" stroke-width="2" stroke-linecap="butt"/><path d="M366.63427,120.68381c0.64021,6.40211 -23.01759,22.45588 -49.24847,25.07896c-26.23088,2.62309 -46.71976,-6.26534 -47.35998,-12.66746c-0.64021,-6.40211 15.89823,-16.63094 42.1291,-19.25404c26.23089,-2.62309 53.83914,0.44042 54.47935,6.84253z" fill-opacity="0.36859" fill="#191318" stroke="#000000" stroke-width="0" stroke-linecap="butt"/><path d="M369.54947,150.17237c-4.19844,1.34241 -5.54085,-2.85603 -5.54085,-2.85603l-1.3349,-4.25179c-0.03811,-0.8971 0.47938,-2.0177 -0.11433,-2.69129c-0.96652,-1.09656 -3.08519,-0.73252 -3.94519,-1.91447c-0.78235,-1.07525 -1.13447,-2.37129 -1.43664,-3.69294c-0.25766,0.35394 -0.53287,0.63705 -0.82878,0.77207c-2.78733,1.27175 -10.61798,0.92513 -13.50852,-0.04901c-2.02573,-0.68268 -3.90741,-1.84205 -5.55583,-3.20307c-0.80815,-0.66726 -1.9606,-4.33657 -4.13831,-3.95619c-2.74525,0.47951 -5.54796,0.98691 -8.07767,2.15609c-1.54368,0.71347 -2.32368,2.68451 -3.92362,3.26084c-5.52483,1.99015 -10.59105,-1.68818 -15.56979,-0.45752c-2.74158,0.67767 -4.35113,3.62577 -6.73505,5.13986c-3.80159,2.4145 -5.56157,2.7467 -9.6496,4.10716c-1.95213,1.23182 -4.59587,1.84528 -5.76594,3.83504c-1.21656,2.06883 0.31861,4.80359 0.15897,7.19829c-0.41588,6.23901 -1.85351,11.21853 -5.07074,16.40881c0.47364,0.81428 0.69728,1.91031 0.28247,3.36084c-1.21193,4.23795 -5.44987,3.02603 -5.44987,3.02603c-1.96551,-0.6396 -4.21124,-0.72211 -5.89653,-1.91879c-5.27645,-3.74666 -7.09289,-11.97336 -7.06094,-17.96148c0.01049,-1.9651 0.26581,-3.96163 0.87413,-5.83024c0.40242,-1.23612 0.46803,-5.00013 0.10383,-6.08443c-0.77853,-2.31787 -1.1782,-8.83711 -0.7255,-11.2345c0.37527,-1.98735 3.52246,-9.17668 4.83919,-10.58787c1.6401,-1.75778 5.20635,-1.98916 6.32698,-4.56801c1.96488,-4.52167 1.78238,-9.64926 5.21482,-13.77208c1.88864,-2.26851 7.02706,-5.13372 9.4826,-6.63368c4.65776,-1.07979 8.39299,-2.36199 13.20486,-2.01975c1.28623,0.09149 2.45792,1.33712 3.71864,1.06623c1.28933,-0.27705 1.86809,-1.93433 3.04942,-2.52051c10.56244,-5.2412 25.74781,-8.50803 36.16368,-1.85256c1.84942,1.18173 3.819,2.31629 5.23533,3.99286c0.90652,1.07308 0.50931,2.92649 1.47324,3.9483c0.66553,0.7055 1.89486,0.41494 2.84159,0.62559c3.48539,0.7755 6.97051,1.92311 10.02677,3.76935c9.21126,5.56436 13.1846,14.70106 13.90839,25.11357c-0.49714,5.84825 0.8359,10.28448 -5.04202,10.44257c0.06315,0.31072 0.13404,0.61777 0.21852,0.9184l1.10321,3.37352c0,0 1.34242,4.19843 -2.85602,5.54084z" fill="#000000" stroke="none" stroke-width="0.5" stroke-linecap="butt"/><path d="M317.24344,169.81434c0,5.09362 -2.75279,9.2228 -6.14853,9.2228c-3.39574,0 -6.14854,-4.12919 -6.14854,-9.2228c0,-5.09361 2.75279,-9.22281 6.14854,-9.22281c3.39574,0 6.14853,4.12919 6.14853,9.22281z" fill="#000000" stroke="#000000" stroke-width="0" stroke-linecap="butt"/><path d="M346.73958,168.63952c0,4.18883 -2.31815,7.58456 -5.17772,7.58456c-2.85957,0 -5.17772,-3.39573 -5.17772,-7.58456c0,-4.18883 2.31815,-7.58455 5.17772,-7.58455c2.85957,0 5.17772,3.39572 5.17772,7.58455z" fill="#000000" stroke="#000000" stroke-width="0" stroke-linecap="butt"/><path d="M358.29931,184.00617c0,0 -6.07662,1.62507 -13.89362,2.38692c-6.45673,0.62928 -14.29978,0.33807 -19.12775,0.98715c-9.99466,1.3437 -26.43916,3.00503 -30.16398,-2.16155" fill="none" stroke="#000000" stroke-width="2" stroke-linecap="round"/><g stroke-linecap="butt"><path d="M339.45544,131.00896c0.04877,0.31694 -0.1706,3.68784 0.44145,6.91863c0.69927,3.69116 3.70123,7.47265 1.46351,9.93719c-5.7133,6.29239 -22.61678,6.07344 -27.70061,6.7438c-4.68147,0.6173 -4.50707,-4.63768 -4.79984,-9.75247c-0.25867,-4.51922 -1.22094,-8.8843 -1.33669,-9.6365c-0.24676,-1.60354 6.70147,-3.84607 15.5193,-5.0088c8.81782,-1.16275 16.16612,-0.8054 16.41288,0.79815z" fill="#ffc98b" stroke="#000000" stroke-width="2"/><path d="M309.81852,137.95929c-0.15253,-0.99114 0.70895,-1.10475 0.70895,-1.10475l0.29624,-0.03608c7.43173,-0.31098 10.54643,13.41515 2.71324,14.51598c0,0 -0.00389,0.00051 -0.01118,0.00117c-0.10769,0.12115 -0.26604,0.21517 -0.49773,0.24572c-0.86147,0.11359 -1.014,-0.87756 -1.014,-0.87756l-0.05424,-0.3524c-0.59469,-3.86456 -1.04787,-7.74666 -1.63027,-11.60535c-0.21843,-0.10635 -0.44051,-0.32844 -0.51103,-0.78673zM313.55807,149.30064c4.82319,-0.94954 2.96648,-9.31703 -1.44656,-10.38109c0.51038,3.45353 0.93087,6.9223 1.44656,10.38109z" fill="#000000" stroke="none" stroke-width="0.5"/><path d="M321.95678,135.09741c0.74809,-0.29696 1.05323,0.65441 1.05323,0.65441l0.18364,0.62356c0.27326,1.77578 0.54694,3.55147 0.8191,5.32739c0.14506,1.72316 0.49493,4.49892 -0.47334,5.83198c-1.1841,1.63019 -3.23269,1.05009 -4.25307,-0.78614c-1.42154,-2.55812 -1.42483,-7.38222 -1.87835,-10.32944c0,0 -0.15252,-0.99114 0.64089,-1.09577c0.7934,-0.10462 0.94592,0.88653 0.94592,0.88653c0.41132,2.67287 0.38781,7.18381 1.60874,9.5258c1.76421,3.38411 1.89006,-3.02192 1.8111,-3.90629c-0.27022,-1.74815 -0.53876,-3.49652 -0.80779,-5.24483l-0.09299,-0.23886c0,0 -0.30516,-0.95139 0.44292,-1.24836z" fill="#000000" stroke="none" stroke-width="0.5"/><path d="M326.68451,146.95172c-0.83916,0.11065 -1.00554,-0.97052 -1.00554,-0.97052l-0.02957,-0.19221c-0.51319,-3.38665 -0.86972,-6.65375 -0.68176,-10.00583c0,0 0.05306,-0.94376 0.76435,-0.91366c0.52428,-0.06761 0.78524,0.33063 0.90704,0.63751c0.75939,0.9828 1.31461,2.13282 1.92827,3.24975c0.20471,-1.33395 0.27267,-2.75385 0.43685,-4.08289c0,0 0.13043,-1.0539 0.97593,-0.78841c0.01901,0.00597 0.03752,0.01233 0.05555,0.01908c0.66201,-0.16591 0.97554,0.71217 0.97554,0.71217l0.16409,0.47039c0.89639,3.25123 1.61273,6.83084 1.4855,10.14293c0,0 -0.04212,1.07574 -0.89658,0.92086c-0.85446,-0.15487 -0.81234,-1.2306 -0.81234,-1.2306c0.07317,-1.83118 -0.48764,-3.72864 -0.70247,-5.65524c-0.08288,0.57416 -0.18524,1.13817 -0.32161,1.68331l-0.23259,0.46538c-0.04284,0.13194 -0.11627,0.26438 -0.23211,0.39053c-0.17863,0.19456 -0.35494,0.26184 -0.51538,0.25913c-0.16028,-0.0003 -0.34596,-0.07098 -0.55126,-0.26912c-0.11464,-0.11067 -0.19845,-0.22538 -0.25835,-0.33999c-0.57748,-0.87484 -1.04505,-1.869 -1.55772,-2.80333c-0.03767,2.30938 0.38037,4.57354 0.74737,6.9167l0.02957,0.19221c0,0 0.16636,1.08119 -0.6728,1.19183z" fill="#000000" stroke="none" stroke-width="0.5"/><path d="M339.29066,145.6779c0.09641,1.0827 -0.63362,1.12037 -0.63362,1.12037l-0.26875,0.01066c-1.09467,0.18222 -4.10942,1.18948 -4.76824,-0.97517c-0.18802,-0.61776 0.23845,-1.22275 0.35646,-1.83479c0.2151,-1.1156 1.21409,-5.14793 2.12955,-6.71073c-0.84377,0.00018 -1.68189,0.06035 -2.52396,0.10381c0,0 -0.73003,0.03768 -0.82644,-1.04501c-0.09641,-1.0827 0.63362,-1.12037 0.63362,-1.12037c1.17019,-0.0604 2.32792,-0.13748 3.50693,-0.06889l0.06828,0.05322l0.00319,-0.03405l0.72367,0.24647c0.3282,0.10082 0.60162,0.51463 0.64682,1.02217c0.03316,0.37237 -0.06435,0.70737 -0.24,0.91217l-0.43896,0.52709c-0.61708,1.6268 -1.15532,3.28772 -1.7358,4.98163c-0.1918,0.55968 -0.31614,1.68716 -0.66435,2.17843c0.14195,-0.08112 0.29896,-0.1559 0.39312,-0.16928c0.80818,-0.11488 1.62371,-0.08384 2.43185,-0.21994l0.38017,-0.02283c0,0 0.73003,-0.03768 0.82644,1.04501z" fill="#000000" stroke="none" stroke-width="0.5"/></g><g stroke="#000000"><path d="M382.94154,103.71413c1.01454,7.67584 -5.04908,18.91837 -41.65746,27.33647c-67.07538,15.42398 -90.23236,9.33483 -91.24689,1.65899c-1.01454,-7.67584 27.91466,-20.38917 64.61519,-28.39605c36.70053,-8.00687 67.27463,-8.27525 68.28917,-0.59941z" fill="#1f1d1c" stroke-width="2" stroke-linecap="butt"/><path d="M355.9629,106.67528c0.53863,5.36885 -13.99113,13.15688 -39.7303,17.93054c-25.73917,4.77366 -42.29251,1.03295 -42.83114,-4.3359c-0.07033,-0.701 -16.47388,-61.76153 -15.86415,-62.54578c4.06009,-5.22225 22.42463,-11.97937 44.80314,-16.12975c21.44618,-3.97747 39.81213,-4.30593 45.65356,-1.19923c1.16931,0.62188 7.87906,65.38467 7.96889,66.28013z" fill="#1f1d1c" stroke-width="2" stroke-linecap="butt"/><path d="M355.53218,91.74638c0.16417,0.7002 3.45423,15.02738 1.802,16.05581c-41.19488,25.64177 -79.40675,16.08818 -81.6347,16.61052c-2.49726,0.58549 -3.56553,-1.771 -5.209,-7.53353c-1.42003,-4.97908 -2.34729,-10.11341 0.14997,-10.6989c1.44604,-0.33903 27.32081,-0.96075 50.88755,-5.84625c17.13227,-3.5516 33.36338,-11.32084 34.00417,-8.58765z" fill="#770e00" stroke-width="2" stroke-linecap="butt"/><path d="M271.70858,115.55857h9.38461" fill="none" stroke-width="1.5" stroke-linecap="round"/><path d="M347.75634,102.61427l7.11936,-3.23609" fill="none" stroke-width="1.5" stroke-linecap="round"/></g><path d="M368.42464,101.32307c0.72426,3.95552 -0.24707,19.40785 -42.81849,27.70793c-41.80587,8.15081 -63.1626,0.18806 -63.88686,-3.76746c-0.28724,-1.56877 2.77276,-3.85664 8.6703,-6.431c2.99187,-1.30599 0.27831,4.54268 5.57555,5.44806c10.58915,1.80987 31.85989,0.3484 45.40023,-2.13083c11.88272,-2.1757 22.47754,-5.57065 28.26841,-8.773c4.45732,-2.46488 4.88155,-5.07945 8.15049,-5.31512c1.01471,-0.07315 -1.58396,-8.84072 -0.65792,-8.82443c3.19574,0.05621 11.08752,0.93468 11.29828,2.08584z" fill-opacity="0.3426" fill="#0d0010" stroke="none" stroke-width="0" stroke-linecap="butt"/></g></g></svg>