<svg version="1.1" xmlns="http://www.w3.org/2000/svg" xmlns:xlink="http://www.w3.org/1999/xlink" width="128.16342" height="96.96854" viewBox="0,0,128.16342,96.96854"><defs><radialGradient cx="622.7504" cy="260.38541" r="2.21986" gradientUnits="userSpaceOnUse" id="color-1"><stop offset="0" stop-color="#7fff97"/><stop offset="1" stop-color="#50d231"/></radialGradient><radialGradient cx="622.77361" cy="261.86898" r="8.24566" gradientUnits="userSpaceOnUse" id="color-2"><stop offset="0" stop-color="#7fff97"/><stop offset="1" stop-color="#50d231"/></radialGradient></defs><g transform="translate(-508.21914,-250.00718)"><g data-paper-data="{&quot;isPaintingLayer&quot;:true}" fill-rule="nonzero" stroke-linecap="butt" stroke-linejoin="miter" stroke-miterlimit="10" stroke-dasharray="" stroke-dashoffset="0" style="mix-blend-mode: normal"><path d="M630.98732,333.97975c0,5.59331 -27.4826,10.12758 -61.38409,10.12758c-33.90149,0 -61.38409,-4.53427 -61.38409,-10.12758c0,-5.59331 27.4826,-10.12758 61.38409,-10.12758c33.90149,0 61.38409,4.53427 61.38409,10.12758z" fill-opacity="0.40392" fill="#000000" stroke="none" stroke-width="0"/><g stroke="#ffffff" stroke-width="4.5"><path d="M634.13256,335.08201c0,0 0,2.26888 -0.31554,2.81013c0,0 -0.22571,0.55585 -0.97694,0.60076h-5.49843v-6.97002h5.49843c0.75237,0.04548 0.97694,0.60133 0.97694,0.60133c0.31554,0.54125 0.31554,2.9578 0.31554,2.9578z" fill="#dedede"/><path d="M634.13144,335.08201c0,0 0,2.26888 -0.31554,2.81013c0,0 -0.22571,0.55585 -0.97695,0.60076h-4.9364v4.94089c-0.04492,0.7518 -0.60133,0.97639 -0.60133,0.97639c-0.54069,0.31554 -2.96005,0.31554 -2.96005,0.31554c0,0 -2.26944,0 -2.81013,-0.31554c0,0 -0.55641,-0.22515 -0.60133,-0.97639v-4.93808h-4.9364c-0.75237,-0.04492 -0.97695,-0.60077 -0.97695,-0.60077c-0.31554,-0.54125 -0.31554,-2.9606 -0.31554,-2.9606c0,0 0,-2.26888 0.31554,-2.81013c0,0 0.22571,-0.55585 0.97695,-0.60133h4.94033v-4.93696c0.04492,-0.75237 0.60133,-0.97695 0.60133,-0.97695c0.54069,-0.31554 2.96005,-0.31554 2.96005,-0.31554c0,0 2.26663,0 2.80732,0.31554c0,0 0.55585,0.22571 0.60133,0.97695v4.93696h4.9364c0.75237,0.04548 0.97694,0.60133 0.97694,0.60133c0.31554,0.54125 0.31442,2.9578 0.31442,2.9578z" fill="none"/></g><path d="M634.13144,335.08201c0,0 0,2.26888 -0.31554,2.81013c0,0 -0.22571,0.55585 -0.97695,0.60076h-4.9364v4.94089c-0.04492,0.7518 -0.60133,0.97639 -0.60133,0.97639c-0.54069,0.31554 -2.96005,0.31554 -2.96005,0.31554c0,0 -2.26944,0 -2.81013,-0.31554c0,0 -0.55641,-0.22515 -0.60133,-0.97639v-4.93808h-4.9364c-0.75237,-0.04492 -0.97695,-0.60077 -0.97695,-0.60077c-0.31554,-0.54125 -0.31554,-2.9606 -0.31554,-2.9606c0,0 0,-2.26888 0.31554,-2.81013c0,0 0.22571,-0.55585 0.97695,-0.60133h4.94033v-4.93696c0.04492,-0.75237 0.60133,-0.97695 0.60133,-0.97695c0.54069,-0.31554 2.96005,-0.31554 2.96005,-0.31554c0,0 2.26663,0 2.80732,0.31554c0,0 0.55585,0.22571 0.60133,0.97695v4.93696h4.9364c0.75237,0.04548 0.97694,0.60133 0.97694,0.60133c0.31554,0.54125 0.31442,2.9578 0.31442,2.9578z" fill="none" stroke="#363636" stroke-width="3"/><path d="M634.1698,335.21628c0,0 0,2.26888 -0.31554,2.81013c0,0 -0.22571,0.55585 -0.97695,0.60076h-4.9364v4.94089c-0.04492,0.7518 -0.60133,0.97639 -0.60133,0.97639c-0.54069,0.31554 -2.96005,0.31554 -2.96005,0.31554c0,0 -2.26944,0 -2.81013,-0.31554c0,0 -0.55641,-0.22515 -0.60133,-0.97639v-4.93808h-4.9364c-0.75237,-0.04492 -0.97695,-0.60077 -0.97695,-0.60077c-0.31554,-0.54125 -0.31554,-2.9606 -0.31554,-2.9606c0,0 0,-2.26888 0.31554,-2.81013c0,0 0.22571,-0.55585 0.97695,-0.60133h4.94033v-4.93696c0.04492,-0.75237 0.60133,-0.97695 0.60133,-0.97695c0.54069,-0.31554 2.96005,-0.31554 2.96005,-0.31554c0,0 2.26663,0 2.80732,0.31554c0,0 0.55585,0.22571 0.60133,0.97695v4.93696h4.9364c0.75237,0.04548 0.97694,0.60133 0.97694,0.60133c0.31554,0.54125 0.31442,2.9578 0.31442,2.9578z" fill="#dedede" stroke="#dedede" stroke-width="1.5"/><path d="M634.28601,335.21628c0,0 0,2.26888 -0.31554,2.81013c0,0 -0.22571,0.55585 -0.97695,0.60076h-5.49842v-6.97002h5.49842c0.75237,0.04548 0.97695,0.60133 0.97695,0.60133c0.31554,0.54125 0.31554,2.9578 0.31554,2.9578z" fill="#2a2a2a" stroke="none" stroke-width="1.5"/><path d="M615.03607,332.25848c0,0 0.22459,-0.55585 0.97695,-0.60133h5.49842v6.97002h-5.49842c-0.75124,-0.04492 -0.97695,-0.60076 -0.97695,-0.60076c-0.31554,-0.54125 -0.31554,-2.81013 -0.31554,-2.81013c0,0 0,-2.41655 0.31554,-2.9578z" data-paper-data="{&quot;index&quot;:null}" fill="#2a2a2a" stroke="none" stroke-width="1.5"/><text transform="translate(519.3157,339.19203) scale(0.41478,0.42651)" font-size="40" xml:space="preserve" fill="#ffffff" fill-rule="nonzero" stroke="#363636" stroke-width="5" stroke-linecap="butt" stroke-linejoin="miter" stroke-miterlimit="10" stroke-dasharray="" stroke-dashoffset="0" font-family="Playful" font-weight="normal" text-anchor="start" style="mix-blend-mode: normal"><tspan x="0" dy="0">Switch Cam</tspan></text><text transform="translate(518.15906,339.03184) scale(0.41478,0.41478)" font-size="40" xml:space="preserve" fill="#ffffff" fill-rule="nonzero" stroke="#000000" stroke-width="0" stroke-linecap="butt" stroke-linejoin="miter" stroke-miterlimit="10" stroke-dasharray="" stroke-dashoffset="0" font-family="Playful" font-weight="normal" text-anchor="start" style="mix-blend-mode: normal"><tspan x="0" dy="0">Switch Cam</tspan></text><path d="M630.94896,287.36985c0,5.59331 -17.64116,10.12758 -39.40263,10.12758c-21.76147,0 -39.40263,-4.53427 -39.40263,-10.12758c0,-5.59331 17.64116,-10.12758 39.40263,-10.12758c21.76147,0 39.40263,4.53427 39.40263,10.12758z" fill-opacity="0.40392" fill="#000000" stroke="none" stroke-width="0"/><path d="M631.89842,311.42286c0,5.59331 -20.97101,10.12758 -46.84007,10.12758c-25.86906,0 -46.84007,-4.53427 -46.84007,-10.12758c0,-5.59331 20.97101,-10.12758 46.84007,-10.12758c25.86906,0 46.84007,4.53427 46.84007,10.12758z" fill-opacity="0.40392" fill="#000000" stroke="none" stroke-width="0"/><text transform="translate(544.4527,316.41) scale(0.3868,0.39774)" font-size="40" xml:space="preserve" fill="#ffffff" fill-rule="nonzero" stroke="#363636" stroke-width="5" stroke-linecap="butt" stroke-linejoin="miter" stroke-miterlimit="10" stroke-dasharray="" stroke-dashoffset="0" font-family="Playful" font-weight="normal" text-anchor="start" style="mix-blend-mode: normal"><tspan x="0" dy="0">Hold Kick</tspan></text><text transform="translate(543.5172,316.36794) scale(0.3868,0.3868)" font-size="40" xml:space="preserve" fill="#ffffff" fill-rule="nonzero" stroke="#000000" stroke-width="0" stroke-linecap="butt" stroke-linejoin="miter" stroke-miterlimit="10" stroke-dasharray="" stroke-dashoffset="0" font-family="Playful" font-weight="normal" text-anchor="start" style="mix-blend-mode: normal"><tspan x="0" dy="0">Hold Kick</tspan></text><path d="M631.6308,319.39138c-0.16809,0.07134 -0.34896,0.10776 -0.53157,0.10702h-6.31692c-0.09877,-0.00013 -0.19725,-0.01101 -0.29367,-0.03246c-1.07479,-0.23433 -7.22992,-1.88129 -7.8533,-8.93417c-0.00253,-0.02891 -0.00557,-0.05783 -0.00557,-0.08725c-0.01724,-0.45345 -0.13744,-4.36462 0.73293,-6.69226c0.2008,-0.52525 0.70573,-0.87143 1.26805,-0.86938h11.37847c0.13035,0 0.25513,0.03602 0.38396,0.05528c1.48819,0.22368 0.73954,1.64238 0.69287,1.7839c-0.44383,1.35529 -2.21199,7.56672 0.86785,12.46341c0.03042,0.04792 0.06345,0.09416 0.09892,0.13847c0.21506,0.27238 1.02205,1.44355 -0.42202,2.06743zM624.12242,311.93271h-2.40525v-3.95633h-1.1453v4.96467h3.55054zM627.61868,307.97639h-4.17443v1.00835h1.5171v3.95633h1.14682v-3.95633h1.5105z" fill="#dedede" stroke="#ffffff" stroke-width="4.5"/><path d="M631.6308,319.50215c-0.16809,0.07134 -0.34895,0.10776 -0.53157,0.10702h-6.31692c-0.09877,-0.00013 -0.19725,-0.01101 -0.29367,-0.03246c-1.07479,-0.23433 -7.22992,-1.88129 -7.8533,-8.93417c-0.00253,-0.02891 -0.00557,-0.05783 -0.00557,-0.08725c-0.01724,-0.45345 -0.13746,-4.36462 0.73293,-6.69226c0.2008,-0.52525 0.70573,-0.87143 1.26805,-0.86938h11.37847c0.13035,0 0.25513,0.03602 0.38396,0.05528c1.48819,0.22368 0.73954,1.64239 0.69287,1.7839c-0.44383,1.35529 -2.21199,7.56671 0.86786,12.46341c0.03042,0.04792 0.06344,0.09416 0.09891,0.13847c0.21506,0.27238 1.02205,1.44355 -0.422,2.06743zM624.12242,312.04348h-2.40525v-3.95632h-1.14532v4.96466h3.55054zM627.61868,308.08716h-4.17443v1.00835h1.5171v3.95633h1.14682v-3.95633h1.5105z" fill="#dedede" stroke="#363636" stroke-width="1.5"/><path d="M631.85233,319.50215c-0.16809,0.07134 -0.34896,0.10776 -0.53157,0.10702h-6.31692c-0.09877,-0.00013 -0.19725,-0.01101 -0.29369,-0.03246c-1.07479,-0.23434 -7.22992,-1.88129 -7.85328,-8.93417c-0.00253,-0.02891 -0.00557,-0.05783 -0.00557,-0.08726c-0.01724,-0.45345 -0.13744,-4.36462 0.73293,-6.69226c0.2008,-0.52525 0.70573,-0.87143 1.26805,-0.86938h11.37847c0.13035,0 0.25514,0.03602 0.38397,0.05528c1.48819,0.22368 0.73953,1.64238 0.69287,1.7839c-0.44383,1.35529 -2.21198,7.56671 0.86787,12.46341c0.03042,0.04792 0.06344,0.09416 0.09891,0.13847c0.21506,0.27238 1.02205,1.44355 -0.422,2.06743zM624.34395,312.04348h-2.40524v-3.95632h-1.14532v4.96466h3.55053zM627.84023,308.08716h-4.17443v1.00835h1.51709v3.95633h1.14682v-3.95633h1.5105z" fill="#dedede" stroke="#363636" stroke-width="0"/><path d="M631.12595,286.47015c0,4.65704 -3.79248,8.44951 -8.44951,8.44951c-4.65703,0 -8.44951,-3.79246 -8.44951,-8.44951c0,-4.65704 3.79248,-8.44951 8.44951,-8.44951c4.65703,0 8.44951,3.79248 8.44951,8.44951zM627.46826,288.41022h-9.58363v1.09577h9.58363zM627.46826,285.83242h-9.58363v1.09577h9.58363zM627.46826,283.25734h-9.58363v1.09578h9.58363z" fill="#dedede" stroke="#ffffff" stroke-width="4.5"/><path d="M631.19594,286.66607c0,4.65704 -3.79248,8.44951 -8.44951,8.44951c-4.65703,0 -8.44951,-3.79248 -8.44951,-8.44951c0,-4.65704 3.79248,-8.44951 8.44951,-8.44951c4.65703,0 8.44951,3.79248 8.44951,8.44951zM627.53827,288.60612h-9.58363v1.09578h9.58363zM627.53827,286.02831h-9.58363v1.09578h9.58363zM627.53827,283.45326h-9.58363v1.09578h9.58363z" fill="#dedede" stroke="#363636" stroke-width="2"/><path d="M631.19596,286.83402c0,4.65704 -3.79248,8.44951 -8.44951,8.44951c-4.65703,0 -8.44951,-3.79248 -8.44951,-8.44951c0,-4.65704 3.79248,-8.44951 8.44951,-8.44951c4.65703,0 8.44951,3.79248 8.44951,8.44951zM627.53827,288.77409h-9.58363v1.09577h9.58363zM627.53827,286.19629h-9.58363v1.09577h9.58363zM627.53827,283.62121h-9.58363v1.09577h9.58363z" fill="#dedede" stroke="none" stroke-width="1"/><text transform="translate(561.28379,291.89161) scale(0.41478,0.42651)" font-size="40" xml:space="preserve" fill="#ffffff" fill-rule="nonzero" stroke="#363636" stroke-width="5" stroke-linecap="butt" stroke-linejoin="miter" stroke-miterlimit="10" stroke-dasharray="" stroke-dashoffset="0" font-family="Playful" font-weight="normal" text-anchor="start" style="mix-blend-mode: normal"><tspan x="0" dy="0">Pause</tspan></text><text transform="translate(560.2806,291.84651) scale(0.41478,0.41478)" font-size="40" xml:space="preserve" fill="#ffffff" fill-rule="nonzero" stroke="#000000" stroke-width="0" stroke-linecap="butt" stroke-linejoin="miter" stroke-miterlimit="10" stroke-dasharray="" stroke-dashoffset="0" font-family="Playful" font-weight="normal" text-anchor="start" style="mix-blend-mode: normal"><tspan x="0" dy="0">Pause</tspan></text><path d="M633.69896,262.36985c0,5.59331 -17.64116,10.12758 -39.40263,10.12758c-21.76147,0 -39.40263,-4.53427 -39.40263,-10.12758c0,-5.59331 17.64116,-10.12758 39.40263,-10.12758c21.76147,0 39.40263,4.53427 39.40263,10.12758z" fill-opacity="0.40392" fill="#000000" stroke="none" stroke-width="0"/><path d="M633,261.81124c0,5.82885 -4.60152,10.55406 -10.27778,10.55406c-5.67626,0 -10.27778,-4.72522 -10.27778,-10.55406c0,-5.82885 4.60152,-10.55406 10.27778,-10.55406c5.67626,0 10.27778,4.72522 10.27778,10.55406z" fill="#1b3620" stroke="#ffffff" stroke-width="2.5"/><path d="M622.78135,258.16555l1.50871,4.43973h-3.07931z" fill="url(#color-1)" stroke="none" stroke-width="0"/><path d="M631.01927,261.86898c0,4.55395 -3.69171,8.24566 -8.24566,8.24566c-4.55395,0 -8.24566,-3.69171 -8.24566,-8.24566c0,-4.55395 3.69171,-8.24566 8.24566,-8.24566c4.55234,0.00391 8.24175,3.69333 8.24566,8.24566zM627.7762,266.85287l-4.07479,-11.07223h-1.84075l-4.08963,11.07223h2.14314l0.98324,-2.76081h3.73953l0.99614,2.76081z" fill="url(#color-2)" stroke="none" stroke-width="0"/><text transform="translate(561.28379,268.14162) scale(0.41478,0.42651)" font-size="40" xml:space="preserve" fill="#ffffff" fill-rule="nonzero" stroke="#363636" stroke-width="5" stroke-linecap="butt" stroke-linejoin="miter" stroke-miterlimit="10" stroke-dasharray="" stroke-dashoffset="0" font-family="Playful" font-weight="normal" text-anchor="start" style="mix-blend-mode: normal"><tspan x="0" dy="0">Select</tspan></text><text transform="translate(560.2806,268.09652) scale(0.41697,0.41478)" font-size="40" xml:space="preserve" fill="#ffffff" fill-rule="nonzero" stroke="#000000" stroke-width="0" stroke-linecap="butt" stroke-linejoin="miter" stroke-miterlimit="10" stroke-dasharray="" stroke-dashoffset="0" font-family="Playful" font-weight="normal" text-anchor="start" style="mix-blend-mode: normal"><tspan x="0" dy="0">Select</tspan></text></g></g></svg>