<svg version="1.1" xmlns="http://www.w3.org/2000/svg" xmlns:xlink="http://www.w3.org/1999/xlink" width="230.64046" height="277.1713" viewBox="0,0,230.64046,277.1713"><g transform="translate(-205.92977,-39.91436)"><g data-paper-data="{&quot;isPaintingLayer&quot;:true}" fill-rule="nonzero" stroke-linejoin="miter" stroke-miterlimit="10" stroke-dasharray="" stroke-dashoffset="0" style="mix-blend-mode: normal"><path d="M218.85053,254.50831c0,0 7.88241,-76.31213 -5.11107,-108.55434c-8.60605,-21.35524 -5.99784,-43.1275 -2.66563,-56.83654c2.12207,-8.73037 14.77898,-14.12992 24.74076,-14.07085c23.37959,0.13865 119.40656,0.70815 152.08003,0.90192c6.8734,0.04077 4.51263,2.89654 5.30759,15.40214c0.30888,4.85903 1.70858,11.17855 5.00016,19.3599c7.80496,19.39961 17.94228,57.74942 20.72439,92.1354c2.24463,27.74311 -2.14159,54.47106 -2.14159,54.47106c0,0 4.92832,8.0231 -14.09006,8.8545c-46.38939,2.02792 -147.21669,-1.96048 -169.70913,-2.27965c-12.02136,-0.17058 -14.13542,-9.3835 -14.13542,-9.3835z" fill="#fff6b5" stroke="#ddd173" stroke-width="4" stroke-linecap="butt"/><path d="M238.44118,218.67336c0,0 6.36777,-55.69418 -4.12895,-79.22523c-6.95235,-15.58551 -4.84533,-31.47536 -2.15342,-41.4805c1.71429,-6.37161 11.93911,-10.31231 19.98668,-10.26919c18.88708,0.1012 96.4619,0.51682 122.85698,0.65823c5.55263,0.02975 3.64551,2.11396 4.2877,11.2408c0.24952,3.54622 1.38028,8.15833 4.03936,14.12926c6.30521,14.15824 14.49459,42.14672 16.74207,67.24233c1.8133,20.2475 -1.73008,39.75412 -1.73008,39.75412c0,0 3.98134,5.85542 -11.38257,6.46219c-37.4754,1.48002 -118.92816,-1.4308 -137.09856,-1.66374c-9.71139,-0.1245 -11.41922,-6.84827 -11.41922,-6.84827z" fill="#fffef9" stroke="none" stroke-width="0" stroke-linecap="butt"/><path d="M367.49429,168.07551c0.00719,1.69887 2.21944,7.23791 2.08544,8.88219c-2.11016,25.89118 -23.63772,40.78445 -48.54342,40.8899c-24.27484,0.10276 -46.13938,-16.57927 -49.60832,-41.42828c-0.31619,-2.26492 0.15695,-5.56125 0.14688,-7.93772c-0.12044,-28.44946 21.25421,-51.6032 47.74163,-51.71533c26.48742,-0.11214 48.05736,22.8598 48.17779,51.30925z" fill="#ffffff" stroke="#000000" stroke-width="2" stroke-linecap="butt"/><path d="M363.21333,122.98738c0.66598,6.38662 -22.87674,22.50828 -49.04413,25.23696c-26.16741,2.72868 -46.6529,-6.05544 -47.3189,-12.44206c-0.66598,-6.38662 15.7962,-16.66489 41.96359,-19.39358c26.16741,-2.72869 53.73345,0.21206 54.39944,6.59868z" fill-opacity="0.36859" fill="#191318" stroke="#000000" stroke-width="0" stroke-linecap="butt"/><path d="M366.2473,152.40474c-4.18437,1.35748 -5.54185,-2.82693 -5.54185,-2.82693l-1.3502,-4.23766c-0.04183,-0.89515 0.4699,-2.01569 -0.12547,-2.68543c-0.96922,-1.09029 -3.08214,-0.71803 -3.94541,-1.89398c-0.78533,-1.0698 -1.14222,-2.36177 -1.44937,-3.67948c-0.25564,0.35431 -0.52911,0.63804 -0.82386,0.77403c-2.77639,1.28098 -10.59287,0.96814 -13.48175,0.00816c-2.02457,-0.67275 -3.90739,-1.82186 -5.55826,-3.17319c-0.80935,-0.66251 -1.975,-4.31964 -4.14676,-3.9308c-2.73774,0.49015 -5.5327,1.00838 -8.05242,2.18592c-1.53758,0.71855 -2.3077,2.68895 -3.90201,3.2709c-5.50538,2.00953 -10.57703,-1.64008 -15.54063,-0.39083c-2.73324,0.68789 -4.32713,3.63691 -6.69987,5.15805c-3.7838,2.42574 -5.53885,2.76472 -9.61298,4.13972c-1.94302,1.23761 -4.5789,1.86102 -5.73822,3.85175c-1.20538,2.06983 0.33826,4.79266 0.18906,7.18323c-0.38868,6.2283 -1.8024,11.20395 -4.99126,16.39746c0.47613,0.81065 0.70396,1.90355 0.29611,3.35293c-1.1916,4.23461 -5.42619,3.04301 -5.42619,3.04301c-1.96429,-0.63002 -4.20586,-0.70287 -5.89285,-1.89003c-5.28173,-3.71688 -7.12932,-11.91946 -7.12273,-17.89577c0.00217,-1.96123 0.24855,-3.95484 0.84775,-5.82229c0.39639,-1.23537 0.44596,-4.99212 0.07793,-6.07271c-0.78676,-2.30995 -1.21318,-8.81449 -0.77151,-11.20899c0.36612,-1.98496 3.47666,-9.17323 4.78479,-10.58717c1.62939,-1.7612 5.18754,-2.00719 6.29504,-4.58562c1.94183,-4.52093 1.73805,-9.63752 5.14622,-13.7666c1.87528,-2.27195 6.99133,-5.15315 9.43562,-6.66048c4.64388,-1.0973 8.36624,-2.39275 13.16995,-2.07151c1.28405,0.08588 2.45866,1.32406 3.71572,1.04839c1.28559,-0.28194 1.85618,-1.93835 3.03268,-2.52836c10.5192,-5.27536 25.66043,-8.59982 36.08361,-2.00165c1.85072,1.17156 3.82116,2.29552 5.24174,3.96277c0.90924,1.06711 0.52065,2.9185 1.48698,3.93419c0.66718,0.70129 1.89283,0.4061 2.83856,0.61233c3.4817,0.75921 6.96471,1.88982 10.02267,3.71945c9.21636,5.51433 13.22037,14.61599 13.98671,25.00463c-0.47144,5.83869 0.87769,10.2604 -4.98782,10.44302c0.06432,0.30983 0.13639,0.61597 0.22195,0.91565l1.11527,3.36212c0,0 1.35747,4.18437 -2.82692,5.54185z" fill="#000000" stroke="none" stroke-width="0.5" stroke-linecap="butt"/><path d="M313.02849,172.50352c0.02152,5.08345 -2.70833,9.21601 -6.09729,9.23036c-3.38896,0.01434 -6.1537,-4.09496 -6.17522,-9.1784c-0.02152,-5.08345 2.70832,-9.21602 6.09728,-9.23037c3.38896,-0.01434 6.1537,4.09497 6.17522,9.17841z" fill="#000000" stroke="#000000" stroke-width="0" stroke-linecap="butt"/><path d="M344.1111,170.52727c0.01863,4.40299 -2.40291,7.98265 -5.40868,7.99537c-3.00576,0.01273 -5.45755,-3.5463 -5.47619,-7.94929c-0.01863,-4.40299 2.40291,-7.98264 5.4087,-7.99536c3.00576,-0.01273 5.45755,3.54629 5.47618,7.94928z" fill="#000000" stroke="#000000" stroke-width="0" stroke-linecap="butt"/><g stroke-linecap="butt"><path d="M336.13241,133.40674c0.05,0.3161 -0.15467,3.68119 0.46981,6.90296c0.71347,3.68082 3.72541,7.44209 1.50258,9.91116c-5.67531,6.30396 -22.54593,6.15686 -27.61678,6.84738c-4.66952,0.63586 -4.51765,-4.60938 -4.83146,-9.71271c-0.27724,-4.50909 -1.25604,-8.8614 -1.37474,-9.61161c-0.25305,-1.59929 6.67185,-3.8667 15.46713,-5.06437c8.7953,-1.19768 16.13043,-0.8721 16.38347,0.72721z" fill="#ffc98b" stroke="#000000" stroke-width="2"/><path d="M306.58406,140.46842c-0.1564,-0.98852 0.70288,-1.10553 0.70288,-1.10553l0.29549,-0.03727c7.41556,-0.34176 10.58205,13.34379 2.76916,14.47552c0,0 -0.00388,0.00052 -0.01116,0.00121c-0.10696,0.12137 -0.2646,0.21587 -0.49569,0.24733c-0.85928,0.11701 -1.01567,-0.87151 -1.01567,-0.87151l-0.05561,-0.35147c-0.60982,-3.85433 -1.07852,-7.72675 -1.67606,-11.57528c-0.21844,-0.10521 -0.44102,-0.32592 -0.51334,-0.78301zM310.36404,151.7713c4.80955,-0.96802 2.92119,-9.31094 -1.48753,-10.35425c0.52396,3.44446 0.95825,6.90454 1.48753,10.35425z" fill="#000000" stroke="none" stroke-width="0.5"/><path d="M318.68598,137.56095c0.74533,-0.29953 1.05389,0.64866 1.05389,0.64866l0.18591,0.62153c0.28022,1.77107 0.56086,3.54207 0.83998,5.3133c0.15205,1.71912 0.51296,4.48783 -0.44775,5.82232c-1.17485,1.63193 -3.22181,1.06164 -4.2479,-0.76661c-1.42951,-2.54701 -1.45318,-7.36146 -1.91824,-10.30086c0,0 -0.15641,-0.98852 0.63497,-1.09629c0.79137,-0.10776 0.94778,0.88077 0.94778,0.88077c0.42179,2.6658 0.41739,7.16783 1.64578,9.49997c1.77499,3.36989 1.87352,-3.02385 1.79098,-3.90613c-0.27705,-1.74353 -0.55245,-3.48727 -0.82833,-5.23093l-0.09381,-0.23799c0,0 -0.30855,-0.94819 0.43676,-1.24774z" fill="#000000" stroke="none" stroke-width="0.5"/><path d="M323.45436,149.37161c-0.83702,0.11396 -1.00763,-0.96433 -1.00763,-0.96433l-0.03033,-0.1917c-0.52648,-3.37771 -0.89609,-6.63678 -0.72267,-9.98295c0,0 0.04896,-0.94212 0.75897,-0.91506c0.52295,-0.06969 0.78508,0.32666 0.90791,0.63241c0.76203,0.97762 1.321,2.12301 1.93816,3.23511c0.19866,-1.33216 0.26049,-2.74949 0.41872,-4.07658c0,0 0.12571,-1.05234 0.97065,-0.79096c0.019,0.00587 0.0375,0.01215 0.05553,0.01881c0.65999,-0.16836 0.97659,0.70662 0.97659,0.70662l0.16575,0.46876c0.90835,3.24094 1.63836,6.81038 1.5254,10.1164c0,0 -0.0375,1.07376 -0.8909,0.92281c-0.8534,-0.15095 -0.81592,-1.22471 -0.81592,-1.22471c0.06529,-1.82783 -0.50242,-3.71913 -0.72496,-5.64098c-0.08029,0.57337 -0.18007,1.13667 -0.31385,1.6813l-0.23014,0.46543c-0.04221,0.13186 -0.11492,0.26432 -0.23,0.39073c-0.17745,0.19493 -0.35312,0.26282 -0.51325,0.26079c-0.15994,0.00036 -0.34557,-0.06936 -0.55129,-0.26624c-0.11488,-0.10996 -0.199,-0.22409 -0.25928,-0.3382c-0.58003,-0.87065 -1.05085,-1.86085 -1.56645,-2.79116c-0.02783,2.30492 0.39893,4.5628 0.7751,6.89971l0.03032,0.1917c0,0 0.1706,1.07833 -0.66642,1.1923z" fill="#000000" stroke="none" stroke-width="0.5"/><path d="M336.02994,148.04708c0.10078,1.08013 -0.62762,1.12083 -0.62762,1.12083l-0.26817,0.01179c-1.09172,0.18649 -4.09618,1.20446 -4.76284,-0.95309c-0.19025,-0.61574 0.23282,-1.22133 0.34799,-1.83262c0.20997,-1.11428 1.18991,-5.14277 2.09695,-6.70632c-0.8421,0.00374 -1.67827,0.06734 -2.51847,0.11428c0,0 -0.72839,0.0407 -0.8292,-1.03942c-0.10078,-1.08013 0.62762,-1.12082 0.62762,-1.12082c1.1676,-0.06523 2.3227,-0.14704 3.49964,-0.08358l0.06836,0.05283l0.00304,-0.03399l0.72327,0.24292c0.32797,0.09922 0.60259,0.51107 0.64983,1.01739c0.03468,0.37147 -0.06122,0.70624 -0.23566,0.91136l-0.43585,0.52788c-0.60898,1.62616 -1.13912,3.28603 -1.71128,4.97901c-0.18905,0.55937 -0.30837,1.68512 -0.65381,2.17689c0.14133,-0.08154 0.2977,-0.15685 0.39162,-0.1706c0.80609,-0.11806 1.6201,-0.09053 2.42606,-0.22978l0.37932,-0.02439c0,0 0.7284,-0.0407 0.8292,1.03942z" fill="#000000" stroke="none" stroke-width="0.5"/></g><g stroke="#000000"><path d="M379.41633,105.98269c1.04495,7.65622 -4.95906,18.90192 -41.45875,27.45788c-66.87623,15.67658 -90.01268,9.69742 -91.05762,2.0412c-1.04495,-7.65622 27.77276,-20.46638 64.36615,-28.61234c36.59339,-8.14594 67.10529,-8.54297 68.15023,-0.88673z" fill="#1f1d1c" stroke-width="2" stroke-linecap="butt"/><path d="M352.50409,109.05192c0.56024,5.35585 -13.90759,13.18971 -39.57518,18.06259c-25.66759,4.87288 -42.20367,1.20957 -42.76392,-4.14628c-0.07316,-0.69929 -16.70192,-61.56855 -16.09673,-62.35382c4.02991,-5.22898 23.32724,-12.05018 45.64351,-16.28683c21.38655,-4.06014 38.7164,-4.46554 44.55929,-1.38974c1.1696,0.6157 8.13958,65.22078 8.23301,66.11407z" fill="#1f1d1c" stroke-width="2" stroke-linecap="butt"/><path d="M352.01117,94.15466c0.16681,0.6981 3.51081,14.98278 1.86624,16.01613c-41.00425,25.76461 -79.18016,16.39156 -81.40146,16.92226c-2.48981,0.59487 -3.56589,-1.7524 -5.23043,-7.49648c-1.43824,-4.96313 -2.38533,-10.0833 0.10446,-10.67815c1.44171,-0.34445 27.26219,-1.07427 50.7612,-6.04958c17.08305,-3.61689 33.2489,-11.4392 33.89997,-8.71418z" fill="#770e00" stroke-width="2" stroke-linecap="butt"/><path d="M268.45558,118.27345l9.36587,-0.03964" fill="none" stroke-width="1.5" stroke-linecap="round"/><path d="M344.29676,105.03369l7.09147,-3.25971" fill="none" stroke-width="1.5" stroke-linecap="round"/></g><path d="M364.91832,103.65775c0.73951,3.94456 -0.16458,19.37012 -42.61589,27.83351c-41.68793,8.31118 -63.03564,0.45455 -63.77515,-3.49c-0.29331,-1.56442 2.75092,-3.86065 8.62581,-6.45479c2.98039,-1.31603 0.29693,4.53243 5.58742,5.41363c10.57565,1.76151 31.79773,0.21308 45.30053,-2.3184c11.84979,-2.22157 22.40911,-5.65448 28.17488,-8.87491c4.438,-2.47879 4.85033,-5.08993 8.11174,-5.33895c1.01237,-0.0773 -1.61815,-8.81635 -0.69389,-8.80403c3.18958,0.0426 11.06933,0.88596 11.28452,2.03392z" fill-opacity="0.3426" fill="#0d0010" stroke="none" stroke-width="0" stroke-linecap="butt"/><path d="M308.25852,190.50845c0,0 0.0068,6.72003 -9.07702,6.739c-5.77215,0.01204 -6.05135,-6.87654 -6.05135,-6.87654" fill="#ffa8d5" stroke="#000000" stroke-width="2.5" stroke-linecap="round"/><path d="M353.23106,186.245c0,0 -11.46616,1.81679 -21.04797,2.37676c-2.47227,0.14448 -5.89406,0.28967 -9.73209,0.42834c-2.91469,0.10531 -9.09511,1.30711 -12.25639,1.40175c-11.71939,0.35086 -20.50273,-0.49353 -20.50273,-0.49353" fill="none" stroke="#000000" stroke-width="2.5" stroke-linecap="round"/><path d="M288.32084,261.92656c-0.96828,-0.65895 -2.30235,-0.88526 -3.05009,-1.8051c-0.11403,-0.14028 -0.21445,-0.29668 -0.29783,-0.47323c-1.73841,-3.6805 0.14592,-14.91072 3.39118,-17.70201c2.18456,-1.87899 4.40669,-2.71794 6.91551,-1.44875c1.31291,0.66419 1.85769,4.13185 3.15947,3.43733c3.5188,-1.87731 4.96667,-7.37413 10.13773,-4.08965c5.42509,3.44581 4.58468,10.73061 4.58468,17.26999c0,3.15599 -3.24615,6.67105 -5.81101,4.92557c-3.90678,-2.65869 0.42034,-11.45984 -2.05686,-13.26511c-0.47126,-0.34343 -6.12707,9.19356 -6.76684,9.34595c-2.04739,0.48766 -3.93488,-0.63893 -4.83978,-2.88192c-0.40367,-1.0006 -0.17091,-3.61053 -1.00244,-3.10891c-1.35833,0.8194 0.40532,6.55037 -1.06628,7.55183z" fill="#ff9638" stroke="none" stroke-width="0.5" stroke-linecap="butt"/><path d="M332.77032,239.66282c2.12983,2.00492 1.74053,5.15217 0.6061,7.54161c-0.08396,0.17686 -2.23716,4.1194 -2.23537,4.12072c2.26814,1.67731 5.42906,-1.88868 5.42906,4.5567c0,8.32359 -18.61957,8.4407 -21.95108,2.03781c-1.97252,-3.791 2.57436,-7.18113 5.59938,-8.01169c0.90984,-0.24981 1.08898,-0.17308 1.7717,-0.79353c0.74711,-0.67894 2.92318,-2.29432 1.9556,-2.36547c-3.29459,-0.24234 -8.25105,2.51889 -9.88927,-0.62966c-1.22291,-0.79265 -2.0433,-2.25465 -2.0433,-3.92704c0,-2.5166 1.85762,-4.5567 4.1491,-4.5567c0.17998,0 0.35733,0.01259 0.53127,0.03702c5.01875,-2.54326 12.04112,-1.80874 16.07676,1.99021z" fill="#ff9638" stroke="none" stroke-width="0.5" stroke-linecap="butt"/><path d="M385.22832,235.47656c2.03812,-2.39794 3.51363,-4.40685 5.23925,-4.39778c1.01571,0.00534 2.11812,0.70983 3.4729,2.44571c0.86205,1.10449 1.91515,4.15887 2.23938,5.66694c0.30874,1.43602 -0.21672,5.54526 0.60345,4.37661c1.87745,-2.67513 2.68648,-11.51613 5.02101,-13.05444c3.35435,-2.21032 5.03154,-1.74985 7.04414,1.93403c1.13617,2.07964 -0.90351,5.5524 -1.47588,7.41762c-1.49575,4.87442 -6.60507,19.75937 -12.30457,20.10711c-5.45245,0.33268 -5.9619,-14.7503 -6.97085,-18.60688c-0.23376,-0.89356 -2.19423,-3.25093 -2.20235,-3.41114z" fill="#6676ff" stroke="none" stroke-width="0.5" stroke-linecap="butt"/><path d="M368.58022,237.59328c0.01685,-0.03591 0.03422,-0.07111 0.05215,-0.10556c2.19314,-4.21541 9.63019,-4.28794 12.95967,-2.61846c2.28706,1.14679 4.25669,6.57468 4.76277,9.20104c0.15706,0.81504 0.13441,1.52388 -0.01444,2.123c0.18091,0.25498 0.34632,0.5314 0.49468,0.83082l-1.20707,2.43614c-0.53416,1.07802 -2.90657,0.22575 -3.84809,0.206c-0.9576,-0.0201 -5.86226,0.36006 -9.78558,-0.17269c0.55751,1.07795 1.28288,2.01695 2.1625,2.68827c3.05706,2.3331 5.92894,-0.34749 8.29657,-0.33682c2.61554,0.01176 4.28893,3.07648 2.06297,5.1164c-4.76711,4.36859 -13.40334,2.72352 -17.36972,-2.09804c-1.99477,-2.42486 -1.26615,-6.0978 -1.38195,-9.31614c-0.1274,-3.54111 0.73995,-7.56747 2.81553,-7.95394zM381.65379,245.78194c1.05743,-0.2494 -0.45159,-4.23317 -0.56176,-4.39757c-0.9719,-1.45016 -4.33308,-1.80601 -6.83487,-0.81483c-1.62324,0.64308 -1.87767,4.53609 -1.88993,4.59088c0.18255,0.77202 7.26137,1.09915 9.28655,0.62151z" data-paper-data="{&quot;index&quot;:null}" fill="#6676ff" stroke="#6676ff" stroke-width="1" stroke-linecap="butt"/><path d="M339.40491,260.99347c0.02542,-0.04887 0.0509,-0.09724 0.07643,-0.14512c-0.07484,-0.20944 -0.1442,-0.42206 -0.20879,-0.63777c-0.85701,-2.862 -0.8784,-6.25887 -1.88468,-9.75674c-0.99429,-3.45623 -2.00373,-6.99734 -2.82727,-10.50383c-0.64976,-2.7666 -2.42332,-8.0996 -1.99232,-11.05223c0.23414,-1.60397 1.36404,-2.83581 2.70468,-3.39098c0.6613,-1.31222 1.9347,-2.20067 3.39703,-2.20067c0.23807,0 0.47115,0.02355 0.69738,0.06863c7.48239,-3.02426 19.57006,3.10165 22.21215,10.93005c0.20697,0.61326 1.42534,4.09757 2.00497,8.20111c0.80857,5.72446 0.81883,12.65397 -0.95707,14.6756c-3.55444,4.0463 -7.42896,4.21008 -11.93791,5.76174c-1.15167,0.39632 -5.16654,2.32399 -7.60128,2.41753l-0.02311,0.01451c-0.0069,-0.00433 -0.01381,-0.00868 -0.0207,-0.01303c-0.81815,0.02414 -1.45192,-0.16443 -1.72877,-0.69647zM353.12974,253.81974c8.43382,-4.46764 0.35221,-19.72774 -2.85567,-20.72771c-2.8191,-0.87879 -5.66893,-0.85249 -8.53115,-1.03739c1.73074,6.0285 2.52347,13.38193 3.84722,18.93572c0.19352,0.81186 0.69625,2.69051 1.10152,4.74911c1.95047,-0.38124 4.09073,-0.67627 6.43807,-1.91972z" fill="#6676ff" stroke="none" stroke-width="0.5" stroke-linecap="butt"/><path d="M250.8365,226.79746c6.794,3.99829 10.55965,18.0122 7.98952,25.2718c-2.33064,6.58314 -8.85726,12.28914 -15.07838,13.08557c-2.85093,0.36497 -7.34447,2.54411 -8.77084,-1.60373c-1.71238,-1.70501 -1.51922,-5.16677 -1.54235,-7.61618c-0.07274,-7.69605 1.94342,-18.42726 -0.38311,-25.95597c-0.10606,-0.32221 -0.18215,-0.66191 -0.22421,-1.01566c-0.31253,-2.62976 1.37523,-5.03983 3.76978,-5.38308c0.02463,-0.00354 0.04926,-0.00685 0.07386,-0.0099c0.32001,-0.13595 0.65981,-0.23241 1.01517,-0.28335c0.67776,-0.09716 1.33951,-0.01829 1.94709,0.20434c3.48754,-0.54381 7.70453,1.24698 11.20351,3.30617zM250.50896,248.81215c0.6521,-1.44671 -0.36919,-6.6032 -0.39469,-6.78216c-0.94436,-6.62527 -4.3356,-7.54238 -7.58047,-7.82166c0.42749,6.46108 0.31127,15.41421 0.04486,21.0596c3.29835,-1.68669 6.64972,-3.61477 7.93029,-6.45577z" fill="#ff9638" stroke="none" stroke-width="0.5" stroke-linecap="butt"/><path d="M264.51382,236.00214c2.51609,1.57902 3.42446,4.00752 3.71817,6.58113c0.62369,5.46516 -1.52429,11.58473 3.06512,11.61389c7.492,0.04761 -1.70723,-20.07985 9.5186,-15.52359c2.93523,1.19132 1.8459,6.7354 1.82967,9.17574c-0.05978,8.99798 -2.81722,16.00687 -12.02158,15.46127c-8.07095,-0.47841 -11.44052,-8.52479 -10.74637,-16.22373c0.12378,-1.37281 0.09597,-8.23533 1.0606,-8.84068z" fill="#ff9638" stroke="none" stroke-width="0.5" stroke-linecap="butt"/><path d="M258.74603,284.6096c-3.39732,4.42124 -7.81858,1.02394 -7.81858,1.02394l1.89646,-1.18182c-6.0417,-0.19562 -2.45048,15.16512 -2.09629,19.83177c0,0 0.42181,5.55982 -5.13795,5.98166c-5.55976,0.42184 -5.98164,-5.13795 -5.98164,-5.13795c-0.31026,-4.0904 -0.82949,-8.16857 -0.96677,-12.0026c-1.02588,3.13675 -3.30844,6.20225 -7.23798,8.92581c-2.01214,1.39462 -4.70589,1.35242 -7.05883,2.02861l-1.62444,0.39904c0,0 -0.24283,0.05965 -0.63826,0.10228c0.36402,2.03676 0.69762,4.07788 0.99092,6.12393c0,0 0.78473,5.52027 -4.73552,6.305c-5.52027,0.78473 -6.305,-4.73552 -6.305,-4.73552c-1.27584,-9.05934 -7.524,-22.74227 -5.69924,-31.6918c4.31993,-21.18728 29.64911,-9.33256 32.67117,5.5298c0.95442,-5.49046 3.8633,-9.9719 11.15955,-12.4896l7.55843,3.16886c0,0 4.42124,3.39732 1.02397,7.81858zM219.89411,293.69591c0.10574,-0.03265 0.16568,-0.04737 0.16568,-0.04737l1.62444,-0.39904c12.00697,-2.01131 1.90869,-17.12571 -4.02702,-12.82243c-1.45487,1.05475 0.0687,3.61839 0.46694,5.3707c0.59716,2.62765 1.19444,5.25998 1.76996,7.89815z" fill="#ffe966" stroke="none" stroke-width="0.5" stroke-linecap="butt"/><path d="M289.37787,293.71314c3.48315,4.35392 -0.87077,7.83712 -0.87077,7.83712l-4.66885,3.21697c-5.84974,1.6613 -8.87452,3.40468 -15.31238,0.97882c-4.10694,-1.54752 -7.28044,-4.87017 -9.07492,-8.78794c-0.86537,-0.75033 -1.56144,-1.91471 -1.72533,-3.71762c-0.07618,-0.83809 -0.01441,-1.56116 0.14548,-2.18488c-0.46513,-5.25852 1.54529,-10.56476 6.89516,-13.631c11.31731,-6.48651 24.81896,4.55233 14.65853,16.52792c-0.21372,0.25191 -0.44831,0.48756 -0.70134,0.70813c0.7106,-0.19297 1.36166,-0.39717 1.91046,-0.57464l0.90691,-1.24364c0,0 4.35394,-3.48315 7.83709,0.87077z" fill="#ffe966" stroke="none" stroke-width="0.5" stroke-linecap="butt"/><path d="M293.85469,296.36728c3.48279,-1.16093 5.43685,0.73567 6.36541,2.16682c2.87097,0.11455 6.80093,-1.00074 5.42141,-2.47004c-2.70625,-2.88238 -9.06299,0.86029 -11.67185,-2.11051c-10.30015,-11.7291 3.50294,-19.59663 12.79978,-20.17543c0,0 5.57577,-0.00002 5.57577,5.57574c0,5.57577 -5.57577,5.57577 -5.57577,5.57577c-13.46192,-2.00125 7.69962,4.29117 7.81884,4.47772c10.27231,16.07099 -9.39212,23.14893 -20.48355,19.09928l-3.77645,-5.08648c0,0 -1.76323,-5.28963 3.52643,-7.05286z" fill="#ffe966" stroke="none" stroke-width="0.5" stroke-linecap="butt"/><path d="M351.08821,293.94148c3.42373,3.42373 0,6.84747 0,6.84747l-3.35689,2.92092c-11.68505,5.08796 -34.38471,0.3505 -26.66197,-17.242c2.71728,-6.18997 9.97519,-11.23205 16.92252,-9.82268c10.84586,2.20022 14.77739,13.01181 3.52259,18.51233c-2.21704,1.08352 -5.8009,1.24371 -8.92209,1.25245c3.77676,0.90793 9.15903,-0.56446 11.13176,-1.51586l0.51663,-0.9526c0,0 3.42373,-3.42373 6.84747,0zM334.49891,286.29071c-0.11803,-0.00224 -0.22672,0.00367 -0.32408,0.01927c0.10798,-0.00672 0.21606,-0.01315 0.32408,-0.01927z" fill="#ffe966" stroke="none" stroke-width="0.5" stroke-linecap="butt"/><path d="M376.44481,302.66379c-5.4675,1.0935 -6.56098,-4.374 -6.56098,-4.374l-0.79901,-4.53551c-5.04925,-7.96417 -3.17788,0.53535 -3.79756,6.7847c0,0 -0.55481,5.54811 -6.1029,4.9933c-5.54809,-0.55481 -4.99328,-6.1029 -4.99328,-6.1029c1.15663,-11.47728 4.95852,-28.35837 20.38968,-17.00706c2.29431,1.68774 3.20449,4.70964 4.80673,7.06446l1.4313,6.61603c0,0 1.0935,5.46747 -4.37398,6.56098z" fill="#ffe966" stroke="none" stroke-width="0.5" stroke-linecap="butt"/><path d="M406.00086,283.0706c0,5.57577 -5.57577,5.57574 -5.57577,5.57574l-0.11775,-0.08995c-0.47835,0.08647 -0.9572,0.17025 -1.43655,0.25134c0.22768,3.26998 0.42782,6.54539 0.43914,9.87499c0,0 0,5.57574 -5.57577,5.57574c-5.57577,0 -5.57574,-5.57574 -5.57574,-5.57574c0.01136,-2.84024 -0.1313,-5.65273 -0.31806,-8.4606c-0.29717,0.02675 -0.59438,0.05264 -0.89164,0.07768c0,0 -5.5565,0.46303 -6.01955,-5.09347c-0.46306,-5.5565 5.09347,-6.01953 5.09347,-6.01953c0.36705,-0.0302 0.73402,-0.06186 1.10091,-0.09497c-0.05026,-1.26989 -0.0803,-2.54499 -0.0803,-3.82731v-2.23031c0,0 -0.00002,-5.57574 5.57574,-5.57574c5.57577,0 5.57577,5.57574 5.57577,5.57574v2.23031c0,0.78189 0.01058,1.56047 0.02966,2.33631c0.02934,-0.00536 0.05872,-0.01072 0.08807,-0.01608l2.11258,-0.08992c0,0 5.57577,0 5.57577,5.57577z" fill="#ffe966" stroke="none" stroke-width="0.5" stroke-linecap="butt"/><path d="M398.89495,304.96588c1.4936,-6.33497 7.82856,-4.84134 7.82856,-4.84134l1.89609,0.57691c1.81841,0.06762 4.12915,-0.14482 6.22673,0.24392c-1.32048,-0.82134 -2.59374,-1.84558 -2.8493,-2.7411c-1.18825,-4.1638 -2.16962,-9.19427 -0.08565,-12.98982c3.84996,-7.01196 12.46016,-5.56922 18.37064,-5.48536c0,0 6.50485,0.22219 6.28265,6.72707c-0.2222,6.50488 -6.72704,6.28266 -6.72704,6.28266c-16.97897,-1.10785 10.15501,2.77253 -2.45115,18.21032c-3.1931,3.91032 -14.35161,2.91536 -19.21127,2.76208l-4.43886,-0.91667c0,0 -6.33497,-1.4936 -4.84137,-7.82856z" fill="#ffe966" stroke="none" stroke-width="0.5" stroke-linecap="butt"/></g></g></svg>