<svg version="1.1" xmlns="http://www.w3.org/2000/svg" xmlns:xlink="http://www.w3.org/1999/xlink" width="87.14409" height="174.67212" viewBox="0,0,87.14409,174.67212"><g transform="translate(-261,-91.38687)"><g data-paper-data="{&quot;isPaintingLayer&quot;:true}" fill="#9966ff" fill-rule="nonzero" stroke="#000000" stroke-width="2" stroke-linecap="butt" stroke-linejoin="miter" stroke-miterlimit="10" stroke-dasharray="" stroke-dashoffset="0" style="mix-blend-mode: normal"><path d="M262,152.94646v-12h80v12z"/><path d="M267.11125,260.80723l24.26592,-57.81242l16.15681,4.09089l-16.01974,57.83723z" data-paper-data="{&quot;index&quot;:null}"/><path d="M325.5259,264.53166l-36.75868,-47.44025l13.39814,-9.91301l44.37935,44.28978z" data-paper-data="{&quot;index&quot;:null}"/><path d="M297,145.61313v-12h10v12z"/><path d="M278.37009,209.69646l14.47253,-71.14941c0.67736,0.60658 1.43311,1.07341 2.24318,1.36886c0.50462,0.18405 1.03032,0.3016 1.57127,0.34501c2.03058,0.35611 4.30381,0.48939 4.82854,0.53228c3.01676,0.2466 7.18398,0.17261 10.46391,-1.62929l14.34705,70.53255z"/><path d="M281.7271,113.77979c0,-11.81499 8.62877,-21.39292 19.2729,-21.39292c10.64414,0 19.2729,9.57794 19.2729,21.39292c0,11.81499 -8.62877,21.39293 -19.2729,21.39293c-10.64414,0 -19.2729,-9.57794 -19.2729,-21.39293zM300.90722,130.38754c13.25188,0.07281 14.61966,-13.7612 14.61966,-13.7612h-28.42062c0,0 1.01754,13.69096 13.80096,13.7612zM308.02987,110.00973c1.43958,0 2.60658,-1.29538 2.60658,-2.8933c0,-1.59793 -1.16701,-2.8933 -2.60658,-2.8933c-1.43958,0 -2.60658,1.29538 -2.60658,2.8933c0,1.59793 1.16701,2.8933 2.60658,2.8933zM293.97014,110.00973c1.43958,0 2.60658,-1.29538 2.60658,-2.8933c0,-1.59793 -1.16701,-2.8933 -2.60658,-2.8933c-1.43958,0 -2.60658,1.29538 -2.60658,2.8933c0,1.59793 1.16701,2.8933 2.60658,2.8933z"/></g></g></svg>