<svg version="1.1" xmlns="http://www.w3.org/2000/svg" xmlns:xlink="http://www.w3.org/1999/xlink" width="359.76836" height="408.93995" viewBox="0,0,359.76836,408.93995"><g transform="translate(-454.02512,-58.64934)"><g data-paper-data="{&quot;isPaintingLayer&quot;:true}" fill-rule="nonzero" stroke="none" stroke-linejoin="miter" stroke-miterlimit="10" stroke-dasharray="" stroke-dashoffset="0" style="mix-blend-mode: normal"><g data-paper-data="{&quot;index&quot;:null}" stroke-width="0" stroke-linecap="butt"><path d="M584.47652,213.89399c0.8222,0.8879 1.63255,1.77724 2.43066,2.66732c-3.05094,4.14444 -6.19128,8.2191 -9.52254,12.23774c-4.89585,7.01901 -9.78004,14.04586 -14.65581,21.07854c-2.19606,-2.17559 -4.39355,-4.44724 -6.5791,-6.80724c-25.12143,-27.12705 -46.91955,-38.6407 -33.57054,-58.63789c11.49509,-15.71744 36.77598,2.33443 61.89732,29.46147z" data-paper-data="{&quot;index&quot;:null}" fill="#ffffff"/><path d="M608.75572,265.89747c-5.35919,7.53895 -27.58837,-8.15058 -53.62488,-26.27603c3.34933,-7.13804 11.62736,-13.66773 14.98826,-20.80035c2.38995,-4.04686 4.58855,-8.12773 6.68841,-12.262c4.03348,3.22535 6.15769,1.24818 10.45139,6.04089c14.84529,16.57051 30.72783,45.49924 23.80241,51.65973z" data-paper-data="{&quot;index&quot;:null}" fill="#aefa7f"/></g><path d="M534.02407,390.12146c1.71319,-5.8305 8.68449,-3.03266 20.97874,0.68795c12.29428,3.72057 24.97065,1.05757 23.25747,6.88807c-1.71319,5.8305 -16.73907,73.46451 -29.03326,69.74385c-7.50756,-2.27202 -40.58255,-5.59355 -43.94554,-25.63493c-0.88987,-5.30328 10.01535,-11.36065 14.99177,-19.664c7.01396,-11.70285 13.3607,-30.69302 13.75089,-32.0209z" data-paper-data="{&quot;index&quot;:null}" fill="#ffffff" stroke-width="0" stroke-linecap="butt"/><path d="M502.53958,343.80323c4.03579,-4.54324 8.98155,0.79347 18.22874,9.11493c9.24716,8.3214 21.59405,11.06372 17.55822,15.60695c-4.03586,4.54321 -46.57095,59.20851 -55.81814,50.88706c-5.64689,-5.08161 -33.41834,-21.46144 -27.71613,-40.82535c1.5089,-5.12411 13.76037,-6.14811 21.74811,-11.5909c11.25792,-7.67113 25.07997,-22.15811 25.99911,-23.19282z" data-paper-data="{&quot;index&quot;:null}" fill="#ffffff" stroke-width="0" stroke-linecap="butt"/><path d="M582.0061,346.55761c-21.66427,18.01064 -53.13562,39.58454 -54.60846,40.58901c-4.48324,3.05765 -16.08467,-4.93553 -23.86255,-16.85847c-7.77788,-11.92293 -7.96437,-23.54568 -3.48108,-26.60332c2.96572,-2.02268 29.18227,-22.26833 52.99149,-35.27794c3.25608,4.22109 6.51218,8.44218 9.7683,12.66328c6.49767,8.42334 12.73158,17.03872 19.1923,25.48742z" data-paper-data="{&quot;index&quot;:null}" fill="#222228" stroke-width="0" stroke-linecap="butt"/><path d="M529.95001,388.56244c0.95668,-1.50254 20.52475,-35.32548 38.05112,-57.38761c9.52844,6.74525 19.21702,13.25927 28.72128,20.04223c4.76274,3.39907 9.52554,6.79812 14.2883,10.19721c-4.51174,9.13294 -6.72133,15.06989 -11.89356,23.94719c-4.09759,7.0328 -10.1412,12.98977 -14.0192,18.93012c-4.26624,6.5351 -6.20436,12.76399 -6.8346,13.75389c-2.91208,4.57364 -16.08812,1.68132 -29.42945,-6.46021c-13.34133,-8.14153 -21.79598,-18.44918 -18.88389,-23.02283z" data-paper-data="{&quot;index&quot;:null}" fill="#222228" stroke-width="0" stroke-linecap="butt"/><path d="M548.97174,327.38025c6.69536,-6.37176 21.57932,-1.60061 33.24424,10.65672c11.66492,12.25734 15.69359,27.35921 8.9982,33.731c-6.69538,6.37179 -21.57942,1.60064 -33.24434,-10.65669c-11.66492,-12.25734 -15.69354,-27.35923 -8.99816,-33.73102z" data-paper-data="{&quot;index&quot;:null}" fill="#222228" stroke-width="0" stroke-linecap="butt"/><path d="M562.86308,367.28604l-11.07506,-12.67051" data-paper-data="{&quot;index&quot;:null}" fill="none" stroke-width="0" stroke-linecap="round"/><path d="M521.85649,326.97951c0.53087,-1.72895 12.16502,-41.30628 28.65009,-74.77246c14.67683,-29.79536 32.41319,-54.78066 61.72218,-43.37363c26.20232,10.19793 30.94255,28.77437 25.56922,60.89519c-1.9977,11.94186 -5.75252,18.25827 -8.42459,31.04453c-2.74606,13.14039 -4.419,32.70358 -7.16493,41.34188c-2.36482,7.43931 -7.12142,11.91477 -7.27997,12.43107c-1.00357,3.26822 -6.70797,8.94494 -34.75794,0.442c-1.11496,-0.33797 -27.77443,-15.54062 -28.86894,-15.8814c-26.44196,-8.23315 -30.40883,-8.98884 -29.44513,-12.12719z" data-paper-data="{&quot;index&quot;:null}" fill="#aefa7f" stroke-width="0" stroke-linecap="butt"/><path d="M581.22077,280.4071c-35.85614,9.01643 -66.8922,10.34189 -67.94417,-9.10208c-0.26921,-24.04185 24.27976,-21.79019 60.13597,-30.8066c3.11946,-0.78439 6.20069,-1.48823 9.22827,-2.11238c0.24645,8.55401 0.50314,17.10772 0.77387,25.66123c0.59758,5.18552 1.00462,10.31376 1.29865,15.45168c-1.15457,0.31012 -2.319,0.61294 -3.49257,0.90809z" data-paper-data="{&quot;index&quot;:null}" fill="#ffffff" stroke-width="0" stroke-linecap="butt"/><path d="M633.8965,250.5872c2.4399,8.94203 -26.65871,24.51114 -48.1424,30.29178c-6.21374,1.67193 -6.91431,-1.14421 -12.05446,-0.64346c0.49729,-4.61024 0.88271,-9.22963 1.08924,-13.92498c1.07739,-7.81083 -2.29431,-17.80054 -1.20428,-25.60961c31.70935,-0.97465 58.89893,-1.98657 59.27408,7.2555z" data-paper-data="{&quot;index&quot;:null}" fill="#aefa7f" stroke-width="0" stroke-linecap="butt"/><path d="M618.85665,237.47092c6.67303,-11.08028 10.87147,-12.56665 13.97207,-6.62114c3.57797,2.11725 6.04899,9.3569 4.78632,13.4949c-0.17122,0.56119 -0.39148,1.09402 -0.65464,1.59525c0.93451,6.4424 0.88024,13.0514 -0.13982,16.39436c-4.71895,15.46515 -18.32808,3.05855 -22.65566,-4.37798c-3.54291,-6.0881 3.86463,-12.95392 4.1548,-18.72585z" data-paper-data="{&quot;index&quot;:null}" fill="#aefa7f" stroke-width="0" stroke-linecap="butt"/><path d="M580.80289,209.03236c2.35632,-7.72498 14.26215,-10.93829 26.59239,-7.17725c12.33024,3.76108 20.41571,13.07235 18.05935,20.79729c-2.35632,7.72494 -14.26211,10.93832 -26.59235,7.17728c-12.33019,-3.76104 -20.41574,-13.07238 -18.05938,-20.79732z" data-paper-data="{&quot;index&quot;:null}" fill="#ffffff" stroke-width="0" stroke-linecap="butt"/><path d="M652.50572,142.59917c3.53359,-4.16335 21.49777,5.277 40.12407,21.08571c18.6263,15.80867 30.86146,31.99921 27.32787,36.16259c-3.53363,4.16338 -22.04272,-0.35085 -40.66902,-16.15956c-18.6263,-15.80867 -30.31655,-36.92532 -26.78296,-41.0887z" data-paper-data="{&quot;index&quot;:null}" fill="#ff2e2e" stroke-width="0" stroke-linecap="butt"/><path d="M574.95206,105.07889c27.8258,-38.11095 74.06465,-48.05143 108.14229,-23.19657c34.07764,24.8549 40.24048,75.26439 12.41468,113.37537c-27.82576,38.11094 -74.02697,41.35911 -108.10461,16.50425c-29.40154,-21.44433 -41.11012,-52.5546 -20.89133,-90.79185c2.76164,-5.22284 4.62076,-10.66162 8.43893,-15.89116z" data-paper-data="{&quot;index&quot;:null}" fill="#ffffff" stroke-width="0" stroke-linecap="butt"/><path d="M588.60444,153.97951c-3.9365,-1.11983 -5.28005,-8.52263 -3.00084,-16.53476c2.27924,-8.01214 7.31809,-13.59941 11.25459,-12.47958c3.93655,1.11983 5.28006,8.52267 3.00085,16.5348c-2.2792,8.01213 -7.31809,13.59937 -11.25459,12.47954z" data-paper-data="{&quot;index&quot;:null}" fill="#000000" stroke-width="0" stroke-linecap="butt"/><path d="M641.29509,182.80351c-3.66556,-1.21615 -4.31734,-9.19394 -1.45573,-17.81883c2.8616,-8.62489 8.1528,-14.63091 11.8184,-13.41473c3.6656,1.21614 4.31734,9.1939 1.45573,17.81879c-2.86161,8.62488 -8.1528,14.63094 -11.8184,13.41476z" data-paper-data="{&quot;index&quot;:null}" fill="#000000" stroke-width="0" stroke-linecap="butt"/><path d="M674.78357,62.067c3.32395,-4.4122 13.68355,-2.13299 23.13869,5.09088c9.45524,7.22376 14.42551,16.65669 11.10153,21.06893c-3.32395,4.4122 -13.68351,2.13299 -23.13865,-5.09088c-9.45525,-7.2238 -14.42551,-16.65669 -11.10153,-21.06893z" data-paper-data="{&quot;index&quot;:null}" fill="#ff4f4f" stroke-width="0" stroke-linecap="butt"/><path d="M577.97309,95.8398c2.34851,-3.772 49.5999,-62.13918 108.58848,-24.72348c66.76904,42.35068 21.00558,104.46405 18.65706,108.23594c-2.34851,3.77196 -25.37393,-24.045 -61.23843,-46.37519c-35.86454,-22.33022 -68.35559,-33.36541 -66.00707,-37.1373z" data-paper-data="{&quot;index&quot;:null}" fill="#ff4f4f" stroke-width="0" stroke-linecap="butt"/><path d="M645.67533,102.43119c12.35435,7.56258 20.26491,17.13139 17.66879,21.37241c-2.54775,4.16199 -12.6322,-1.02462 -24.74447,-8.26731c-0.23012,-0.13765 -0.99865,-0.14748 -1.22894,-0.28845c-12.35435,-7.56262 -21.36169,-14.58988 -18.76557,-18.8309c2.59612,-4.24102 14.71584,-1.54834 27.07019,6.01425z" data-paper-data="{&quot;index&quot;:null}" fill="#ffffff" stroke-width="0" stroke-linecap="butt"/><path d="M811.29348,139.75c-1.38071,0 -2.5,-1.11929 -2.5,-2.5c0,-1.38071 1.11929,-2.5 2.5,-2.5c1.38071,0 2.5,1.11929 2.5,2.5c0,1.38071 -1.11929,2.5 -2.5,2.5z" data-paper-data="{&quot;index&quot;:null}" fill="#ffffff" stroke-width="0.5" stroke-linecap="butt"/></g></g></svg>