<svg version="1.1" xmlns="http://www.w3.org/2000/svg" xmlns:xlink="http://www.w3.org/1999/xlink" width="135.53184" height="69.09297" viewBox="0,0,135.53184,69.09297"><g transform="translate(-371.98649,-191.00499)"><g data-paper-data="{&quot;isPaintingLayer&quot;:true}" fill-rule="nonzero" stroke-linejoin="miter" stroke-miterlimit="10" stroke-dasharray="" stroke-dashoffset="0" style="mix-blend-mode: normal"><g data-paper-data="{&quot;index&quot;:null}" stroke="#000000" stroke-width="2" stroke-linecap="butt"><path d="M448.76484,220.49647c-0.06082,0.16644 -0.1195,0.33391 -0.17575,0.50264c-0.77837,2.33478 -1.58967,4.60146 -2.54461,6.86204c-0.4124,0.97627 -0.8438,1.93961 -1.24517,2.90866c-10.08677,-3.88371 -18.4298,-6.63496 -16.26533,-12.1928c2.4548,-6.05916 10.09085,-2.02528 20.23085,1.91946z" data-paper-data="{&quot;index&quot;:null}" fill="#ffe4cb"/><path d="M461.50868,225.79979c3.38367,1.93198 1.13993,4.7857 0.63171,6.35254c-2.06854,2.22308 -2.10879,2.99838 -11.20533,0.89926c-7.52475,-1.73641 -20.943,-5.91084 -20.97361,-5.91986c0.38098,-1.03454 4.49806,-10.6606 4.88797,-11.70314c0.91437,-2.44483 23.43693,8.53137 26.65926,10.37122z" data-paper-data="{&quot;index&quot;:null}" fill="#161617"/></g><path d="M490.39178,192.46571c2.09893,0.73595 5.31866,2.05157 7.68308,4.35981c3.29611,3.21781 5.60535,7.79934 6.88476,10.41783c3.90594,7.99394 1.20845,18.76707 -5.42872,26.11103c-2.72488,3.01506 -8.84083,7.63656 -12.33051,9.35081c-7.27677,3.5746 -13.86809,1.13851 -20.78019,-1.74102c-1.75006,-0.72905 -2.31254,3.45035 -4.45471,2.92966c-3.33765,-0.81125 -6.92929,-7.99069 -8.24835,-10.69031c-0.93401,-1.91156 -2.4419,-5.92638 -2.11903,-8.42796c0.31711,-2.45683 2.45382,-3.3989 2.78003,-5.4618c1.30092,-8.22675 6.62846,-16.66296 14.58933,-20.57361c7.20817,-3.5409 13.84909,-8.93057 21.42433,-6.27441z" data-paper-data="{&quot;index&quot;:null}" fill="#161617" stroke="#000000" stroke-width="1.5" stroke-linecap="butt"/><path d="M383.43915,232.81116c1.01184,-1.75019 2.35163,-3.64123 2.96293,-4.93105c1.72174,0.0568 3.44236,0.09397 5.16804,0.05771c1.62137,-0.03406 3.2411,-0.07458 4.86077,-0.12755c0.30374,4.26447 0.40915,7.34087 0.1159,7.63109c-0.09061,0.08969 -0.25459,2.04784 -3.32854,2.44543c-1.76636,0.22846 -7.00672,0.79346 -9.15995,0.65637c-2.80889,-0.17882 -2.37759,-1.1131 -2.61669,-1.07712c-0.26562,0.03997 0.559,-2.16673 1.99751,-4.65491z" data-paper-data="{&quot;index&quot;:null}" fill="#ffffff" stroke="#000000" stroke-width="2" stroke-linecap="butt"/><path d="M379.72553,233.72538c1.80366,1.1987 2.48402,2.33054 4.29628,2.37756c-0.0001,0.14587 -0.0001,0.29177 0.00005,0.43767c0.00271,2.64086 0.00084,5.28163 -0.00448,7.92248c-0.00172,0.85042 0.00569,1.70056 0.01827,2.55056c-4.84104,0.16383 -8.43595,0.1496 -8.73781,-0.22735c-0.08603,-0.10743 -2.03626,-0.39445 -2.31135,-3.90175c-0.15805,-2.01537 -0.51434,-7.98872 -0.29174,-10.42406c0.29036,-3.17692 3.98376,-0.76012 7.03082,1.26489z" data-paper-data="{&quot;index&quot;:null}" fill="#ffffff" stroke="#000000" stroke-width="2" stroke-linecap="butt"/><path d="M387.66218,225.29002c0.05056,-0.03245 0.02175,-0.84941 1.51476,-1.97319c0.79147,-0.59574 2.68442,-1.18106 3.76379,-1.9937c1.82072,-1.37073 3.99315,-3.00574 6.32195,-4.75565c7.96465,-5.98482 20.87434,-0.70475 21.60503,5.91741c8.67911,-6.14723 -5.46004,17.87759 -5.46004,17.87759c0,0 -5.0636,-15.6869 -9.58365,-12.05586c-2.75089,2.20984 -5.20115,4.25609 -7.06379,5.94427c-2.29861,2.08329 -4.14812,3.17041 -4.32989,3.2871c-0.94074,0.60379 -3.40234,-2.60637 -5.49815,-7.17012c-2.09579,-4.56374 -2.21079,-4.47407 -1.27005,-5.07786z" data-paper-data="{&quot;index&quot;:null}" fill="#282833" stroke="#000000" stroke-width="1.5" stroke-linecap="butt"/><path d="M380.87109,232.81641c0.06798,0.00224 0.45617,-0.84583 2.54805,-0.94706c1.10893,-0.05367 3.3322,0.6689 4.84461,0.59554c11.27638,-0.54686 32.17556,-1.55056 38.96156,-1.66266c6.17273,-0.10198 9.08958,4.0736 10.46704,8.13973c-0.11239,0.09883 -0.22298,0.19461 -0.3316,0.28575c-1.63856,1.37491 -4.90859,3.6784 -8.14328,6.53307c-1.60295,0.14213 -3.02153,0.00837 -4.55855,0.76963c-0.33512,0.16597 -0.65376,0.31972 -0.96056,0.46734c-11.85225,0.48915 -27.66506,1.33799 -36.12518,2.61606c-3.40106,0.51379 -5.83658,0.33 -6.08096,0.32189c-1.26478,-0.04194 -2.12659,-5.00689 -1.9249,-11.08956c0.20169,-6.08267 0.03899,-6.07172 1.30379,-6.02978z" data-paper-data="{&quot;index&quot;:null}" fill="#282833" stroke="#000000" stroke-width="1.5" stroke-linecap="butt"/><path d="M457.11234,246.32943c-8.25932,1.60471 -30.94616,1.70587 -39.0627,1.68835c-0.01675,-2.19822 0.08756,-4.41003 0.0893,-6.6033c0.00279,-3.56002 0.00561,-7.12005 0.00838,-10.68007c0.00281,-3.55415 -0.27838,-7.12485 -0.44062,-10.67022c-0.04194,-0.9161 -0.08382,-1.83221 -0.12577,-2.74833c8.51565,0.79253 34.35652,3.36602 42.62894,6.12646c7.43966,2.48253 9.05089,11.78788 9.05089,11.78788c0,0 1.27965,8.49024 -12.14846,11.09921z" data-paper-data="{&quot;index&quot;:null}" fill="#161617" stroke="#000000" stroke-width="2" stroke-linecap="butt"/><path d="M424.02403,235.07256l10.44266,-2.97157" data-paper-data="{&quot;index&quot;:null}" fill="none" stroke="#000000" stroke-width="2" stroke-linecap="round"/><path d="M432.26548,220.82132l-7.21626,-2.05713" data-paper-data="{&quot;index&quot;:null}" fill="none" stroke="#000000" stroke-width="2" stroke-linecap="round"/><path d="M465.21751,228.27954c2.23723,3.93282 1.97433,8.30225 -0.58718,9.7594c-2.56151,1.45715 -6.45165,-0.54981 -8.68887,-4.48262c-2.23724,-3.93283 -2.20382,-7.17956 0.35769,-8.63671c2.56151,-1.45715 6.68114,-0.57289 8.91837,3.35994z" data-paper-data="{&quot;index&quot;:null}" fill="#161617" stroke="none" stroke-width="0" stroke-linecap="butt"/><path d="M457.98383,225.13491c1.73354,-0.98613 4.49909,0.60557 6.17699,3.55518c1.67793,2.94962 1.63283,6.14018 -0.10071,7.12633c-1.73354,0.98613 -4.81889,-1.16773 -6.4968,-4.11736c-1.67792,-2.94961 -1.31302,-5.578 0.42052,-6.56413z" data-paper-data="{&quot;index&quot;:null}" fill="#ffffff" stroke="#000000" stroke-width="1.5" stroke-linecap="butt"/><path d="M467.61038,198.71598c10.96915,-6.86429 25.1114,-4.03941 31.58763,6.30956c6.47623,10.34896 2.83398,24.30306 -8.13517,31.16738c-10.96914,6.86432 -25.1114,4.03945 -31.58762,-6.30952c-6.47622,-10.34896 -2.83398,-24.30309 8.13517,-31.16741z" data-paper-data="{&quot;index&quot;:null}" fill="#ffe4cb" stroke="#000000" stroke-width="2" stroke-linecap="butt"/><path d="M461.92463,238.68771c3.25028,-1.84894 4.10638,-0.65808 4.53567,0.09655c0.4293,0.75466 -1.85757,2.8653 -5.10784,4.71424c-3.25027,1.84894 -7.12705,2.37643 -7.55634,1.62178c-0.4293,-0.75467 4.87824,-4.58365 8.12851,-6.43259z" data-paper-data="{&quot;index&quot;:null}" fill="#161617" stroke="none" stroke-width="0" stroke-linecap="butt"/><path d="M445.1207,224.98284c0.22294,-0.0637 1.0967,-0.40099 2.28731,-0.48934c1.50777,-0.1119 3.44856,0.0435 4.39007,0.20217c2.10107,0.35414 1.42105,1.47897 1.50045,1.75695c0.14312,0.5009 -4.48137,0.30453 -5.61671,0.62887c-1.13535,0.32435 -5.46227,-0.26192 -5.60536,-0.76281c-0.14311,-0.50089 1.90889,-1.01147 3.04423,-1.33582z" data-paper-data="{&quot;index&quot;:null}" fill="#161617" stroke="none" stroke-width="0" stroke-linecap="butt"/><path d="M498.21733,204.4493c1.08446,1.89191 4.00011,7.73058 4.31986,12.68998c0.11124,1.72512 -0.62759,9.56436 -4.41404,14.12654c-3.09466,3.72862 -9.36096,4.47364 -9.42123,4.5082c-0.06149,0.03525 -1.93068,1.20409 -1.28901,0.07313c1.34784,-2.37566 5.97607,-8.68086 6.97762,-13.31485c1.20459,-5.57337 -0.36048,-11.53557 -1.15517,-12.92195c-1.76999,-3.08785 -8.22773,-14.11019 -7.88168,-14.30852c0.34605,-0.19836 11.0937,6.05966 12.86369,9.1475z" data-paper-data="{&quot;index&quot;:null}" fill="#161617" stroke="none" stroke-width="0" stroke-linecap="butt"/><path d="M479.80933,237.60789c8.94169,-1.70057 18.10513,-7.54619 18.59524,-6.69117c0.90025,1.57053 -4.62079,5.53028 -9.11944,8.10898c-4.49867,2.57869 -18.61872,3.60202 -19.51898,2.03148c-0.90025,-1.57053 -12.2584,-3.02689 -7.75972,-5.60559c2.04955,-1.17483 10.32005,3.57942 17.80291,2.1563z" data-paper-data="{&quot;index&quot;:null}" fill="#161617" stroke="none" stroke-width="0" stroke-linecap="butt"/><path d="M503.62885,214.56432c0.2615,1.81565 0.64058,3.71571 0.5546,5.54982c-0.0922,1.96587 -1.50351,4.53052 -2.85782,6.69733l-0.51944,1.88381c-0.0676,0.24549 -0.22843,0.46541 -0.46681,0.60205c-0.10728,0.0615 -0.22117,0.10091 -0.33644,0.11967c-0.1571,0.26301 -0.48674,0.59873 -1.10496,0.43103c-0.96512,-0.26182 -0.70331,-1.22692 -0.70331,-1.22692c0.69466,-2.5361 0.61992,-5.13173 1.1876,-7.67121l0.18792,-0.98707c0.05143,-0.27916 0.2207,-0.53471 0.48625,-0.68694c0.47913,-0.27467 1.09022,-0.10887 1.36487,0.37026c0.11752,0.20498 0.1544,0.43413 0.12063,0.65076l-0.28555,1.9489l-0.09612,-0.0141c-0.00716,0.03975 -0.01422,0.07952 -0.02113,0.11932c0.00518,0.07082 0.01005,0.14158 0.01458,0.21232c0.32799,-0.52381 0.63932,-1.07225 0.84989,-1.67551c0.28981,-0.83021 0.29274,-1.78469 0.18688,-2.75263c-0.1092,-0.0801 -0.2038,-0.18382 -0.27549,-0.30888l-0.66307,-1.15678l0.05924,-0.03397l-0.13022,-0.11818c-0.09316,-0.49408 -0.08637,-0.99532 -0.01632,-1.49632c-0.00969,-0.01284 -0.01936,-0.02573 -0.02902,-0.03866l-0.21474,-0.02471l0.02703,-0.23499c-1.16638,-1.66606 -1.99753,-3.85621 -2.02287,-5.59867l-0.23865,-1.02373c-0.04221,-0.16389 -0.04116,-0.33334 -0.00101,-0.49282c-0.44768,-0.32231 -0.88906,-0.65654 -1.22417,-1.12858c-0.01401,-0.01972 -0.02782,-0.03974 -0.04145,-0.06006c-0.39603,-0.08043 -0.79883,-0.24027 -1.13655,-0.38464c-0.40451,-0.17293 -0.37041,-0.82227 -0.68908,-1.12558c-0.70704,-0.67299 -2.79541,-1.43074 -3.61939,-1.91761c-0.47968,-0.43221 -1.35346,-1.3647 -1.98638,-2.41167c-0.44055,0.19565 -0.96245,0.0474 -1.23345,-0.35464l-0.71982,-1.04402c-1.44012,-1.50839 -2.58639,-2.81911 -3.77879,-4.57033c0,0 -0.56238,-0.82688 0.26448,-1.38925c0.66979,-0.45552 1.166,0.00044 1.33039,0.19015l-0.10049,-0.21496c-0.22485,-0.46807 -0.05309,-1.03735 0.40457,-1.29969c0.4003,-0.22945 0.8927,-0.15151 1.20405,0.15975l1.43037,1.36564l-0.23289,0.24393c1.05309,0.89786 1.95632,1.90379 2.81405,2.94902c0.31519,0.0028 0.63259,0.01955 0.92543,0.00751c0.53584,-0.02204 1.08659,0.06345 1.5893,0.2503c4.2185,1.56801 6.5433,5.8362 7.95156,9.6793c0.32579,0.88908 1.2642,2.53448 1.60433,3.88449c0.46895,0.80341 0.92481,1.61396 1.37471,2.39687l0.22102,0.38559c0,0 0.49731,0.86758 -0.37025,1.36488c-0.45306,0.25968 -0.80514,0.14719 -1.03816,-0.01961zM499.08272,205.50191c0.09309,0.12617 0.1957,0.24236 0.30527,0.3514c-0.08338,-0.19666 -0.16861,-0.39231 -0.25605,-0.58686c-0.01105,0.08022 -0.02733,0.15879 -0.04922,0.23546z" data-paper-data="{&quot;index&quot;:null}" fill="#161617" stroke="none" stroke-width="0.5" stroke-linecap="butt"/><path d="M484.76821,195.5093c0,0 3.18039,3.99868 6.49768,9.97393c3.85471,6.94331 5.23033,16.14194 3.46427,19.21713c-1.77426,3.08945 -3.91894,11.0314 -15.35449,13.93077c-8.54269,2.16592 -14.08348,-4.03844 -14.08348,-4.03844" data-paper-data="{&quot;index&quot;:null}" fill="none" stroke="#000000" stroke-width="1.5" stroke-linecap="round"/><path d="M489.29755,212.09693c0.19768,-0.54809 -4.84625,-1.70955 -8.20423,-5.03893c-3.889,-3.85589 -6.17424,-9.93664 -5.93397,-10.43877c0.10071,-0.21049 9.55674,-1.03046 12.67535,1.16872c4.5834,3.23212 3.38732,9.93756 3.52211,9.69719c0.80563,2.34268 2.38458,5.55347 3.15779,6.92637c1.04435,1.85433 0.44885,7.79884 0.09378,9.69057c-0.20889,1.11294 -1.19193,2.56781 -2.02315,3.97832c-1.19782,-0.14299 -2.18279,-0.64059 -2.18279,-0.64059c0,0 0.67836,-2.73776 1.04318,-6.49774c0.05911,-0.60908 0.10996,-1.24501 0.1484,-1.90045c0.01398,-0.23841 -3.89103,0.3265 -3.87881,0.08443c0.11441,-2.26531 0.77625,-4.79409 1.58236,-7.02914z" data-paper-data="{&quot;index&quot;:null}" fill="#3c352f" stroke="#000000" stroke-width="1.5" stroke-linecap="butt"/><path d="M451.88139,225.87184c1.32301,2.3679 0.48333,5.3884 -1.87544,6.74644c-2.35877,1.35806 -5.34344,0.5394 -6.66645,-1.8285c-1.32301,-2.3679 -0.48333,-5.3884 1.87544,-6.74644c2.35877,-1.35806 5.34344,-0.5394 6.66645,1.8285z" data-paper-data="{&quot;index&quot;:null}" fill="#343434" stroke="none" stroke-width="0" stroke-linecap="butt"/><path d="M410.38576,243.87961l7.37737,-4.71675" data-paper-data="{&quot;index&quot;:null}" fill="none" stroke="#000000" stroke-width="1.5" stroke-linecap="round"/><path d="M417.09806,221.67603l-4.41118,-2.65937" data-paper-data="{&quot;index&quot;:null}" fill="none" stroke="#000000" stroke-width="1.5" stroke-linecap="round"/><path d="M466.83145,213.80537l-1.86017,-4.25559" data-paper-data="{&quot;index&quot;:null}" fill="none" stroke="#000000" stroke-width="2" stroke-linecap="round"/><path d="M475.87087,227.41568l-3.57808,-4.12597" data-paper-data="{&quot;index&quot;:null}" fill="none" stroke="#000000" stroke-width="2" stroke-linecap="round"/><path d="M461.02963,213.6203c0,0 3.58783,4.48309 5.06408,7.1097c1.61564,2.87468 4.24936,9.46137 4.24936,9.46137" fill="none" stroke="#000000" stroke-width="2" stroke-linecap="round"/><g data-paper-data="{&quot;index&quot;:null}" stroke="#000000" stroke-width="2" stroke-linecap="butt"><path d="M450.62504,242.16061c0.05175,0.16947 0.1058,0.3385 0.16257,0.50705c0.78547,2.33241 1.50362,4.63029 2.10347,7.00985c0.25905,1.02765 0.49514,2.05643 0.75865,3.07168c-10.39037,2.97757 -18.70676,5.8084 -20.32782,0.06848c-1.69139,-6.31495 6.83348,-7.69612 17.30314,-10.65707z" data-paper-data="{&quot;index&quot;:null}" fill="#ffe4cb"/><path d="M463.99141,238.7152c3.86459,-0.49669 3.79317,3.13276 4.33156,4.68949c-0.31157,3.02057 0.12343,3.66359 -8.40141,7.46888c-7.05185,3.14777 -20.27633,7.90051 -20.30619,7.91176c-0.31924,-1.05522 -2.83298,-11.21851 -3.14991,-12.28551c-0.74322,-2.50218 23.84564,-7.31161 27.52595,-7.78462z" data-paper-data="{&quot;index&quot;:null}" fill="#161617"/></g></g></g></svg>