<svg version="1.1" xmlns="http://www.w3.org/2000/svg" xmlns:xlink="http://www.w3.org/1999/xlink" width="47.92466" height="47.97737" viewBox="0,0,47.92466,47.97737"><g transform="translate(-295.52478,-160.6642)"><g data-paper-data="{&quot;isPaintingLayer&quot;:true}" fill-rule="nonzero" stroke-linejoin="miter" stroke-miterlimit="10" stroke-dasharray="" stroke-dashoffset="0" style="mix-blend-mode: normal"><path d="M340.01978,179.39622c2.95411,11.7298 -3.99604,23.59218 -15.52361,26.49536c-11.52756,2.90318 -23.26728,-4.25221 -26.22139,-15.98201c-2.95411,-11.7298 3.99604,-23.59218 15.52361,-26.49536c11.52756,-2.90318 23.26728,4.25221 26.22139,15.98201z" fill="#7c30e3" stroke="#000000" stroke-width="5.5" stroke-linecap="butt"/><path d="M341.05855,178.94242c2.95411,11.7298 -3.99604,23.59218 -15.52361,26.49536c-11.52756,2.90318 -23.26728,-4.25221 -26.22139,-15.98201c-2.95411,-11.7298 3.99604,-23.59218 15.52361,-26.49536c11.52756,-2.90318 23.26728,4.25221 26.22139,15.98201z" fill="#7c30e3" stroke="#7c30e3" stroke-width="0" stroke-linecap="butt"/><path d="M316.62436,174.30387l7.12338,19.79045" fill="none" stroke="#ffffff" stroke-width="6.5" stroke-linecap="round"/><path d="M310.02647,187.92599l20.31916,-7.45378" fill="none" stroke="#ffffff" stroke-width="6.5" stroke-linecap="round"/></g></g></svg>