<svg version="1.1" xmlns="http://www.w3.org/2000/svg" xmlns:xlink="http://www.w3.org/1999/xlink" width="48.18914" height="138.26328" viewBox="0,0,48.18914,138.26328"><g transform="translate(-294.42877,-129.86794)"><g data-paper-data="{&quot;isPaintingLayer&quot;:true}" fill-rule="nonzero" stroke-linejoin="miter" stroke-miterlimit="10" stroke-dasharray="" stroke-dashoffset="0" style="mix-blend-mode: normal"><path d="M321.72383,266.97413c-0.05554,0.38162 -4.86446,0.4847 -7.62728,0.15709c-5.96854,-0.70774 -12.52717,-2.74957 -12.40719,-3.57398c0.01688,-0.11594 0.18601,-1.22704 0.4708,-3.03105c1.85682,-0.39285 3.95888,-1.10663 5.24283,-1.5306c2.57803,-0.54255 5.29961,-1.59732 7.81805,-1.27913c1.35576,0.17129 2.81062,0.35512 4.18107,0.52827c-0.03152,0.22669 -0.04829,0.3469 -0.04829,0.3469c0,0 1.13248,1.60634 1.69054,3.18521c0.76189,2.15553 0.78078,4.50115 0.67947,5.19729z" fill="#ffffff" stroke="#000000" stroke-width="2" stroke-linecap="butt"/><path d="M341.00594,262.97843c-0.02789,0.51021 -4.61274,0.60917 -8.20925,0.24835c-4.97645,-0.49927 -9.40936,-1.71025 -9.37077,-2.41622c0.01002,-0.18314 0.07916,-2.622 0.22271,-6.27179c1.7849,-0.18222 4.20478,0.15499 5.49466,-0.09235c2.83303,-0.54683 6.07173,-0.33116 9.01358,-0.38943c0.38121,0.56094 0.96243,1.48714 1.34384,2.4282c0.83151,2.05167 1.54359,5.79124 1.50522,6.49323z" fill="#ffffff" stroke="#000000" stroke-width="2" stroke-linecap="butt"/><path d="M326.94471,178.53897c0,3.48943 -5.101,6.31817 -11.39342,6.31817c-6.29242,0 -11.39342,-2.82874 -11.39342,-6.31817c0,-3.48943 1.57941,-5.38598 7.87182,-5.38598c6.29242,0 14.91502,1.89655 14.91502,5.38598z" fill="#334865" stroke="#000000" stroke-width="2" stroke-linecap="butt"/><path d="M338.48429,215.82716c0.22841,4.04723 -2.3867,7.48043 -5.84103,7.66827c-3.45433,0.18784 -6.43979,-2.94083 -6.66819,-6.98806c-0.06526,-1.15627 -0.33084,-4.76385 -0.59674,-9.33638c1.84142,-0.65474 3.69643,-1.27963 5.57858,-1.73216c1.96808,-0.47319 3.81623,-1.31771 5.78372,-1.7602c0.08078,-0.01817 0.16518,-0.0305 0.25157,-0.03931c0.92626,5.87218 1.41423,10.80793 1.49211,12.18784z" data-paper-data="{&quot;index&quot;:null}" fill="#ffffff" stroke="#000000" stroke-width="2" stroke-linecap="butt"/><path d="M326.50418,178.009c4.18288,-0.4696 8.37608,12.11138 10.33361,21.93487c0.47673,2.3924 -0.28659,1.7797 0.06616,4.06225c-0.11649,0.00563 -0.21598,0.01369 -0.28333,0.02937c-1.97071,0.45892 -3.82099,1.3325 -5.79175,1.82303c-1.85489,0.46168 -3.68354,1.09469 -5.49885,1.76032c-0.64686,-11.80499 -1.24912,-29.33779 1.17414,-29.60984z" data-paper-data="{&quot;index&quot;:null}" fill="#334865" stroke="#000000" stroke-width="2" stroke-linecap="butt"/><path d="M321.49519,223.43812c0.37894,-11.03323 6.72532,-6.80912 12.06205,-7.30024c0.46638,-0.04292 3.75305,26.78169 4.65989,35.25733c0.17034,1.59207 -0.19293,2.42431 -0.18593,2.43159c-2.85215,0.41676 -6.80056,0.06497 -9.46612,0.95348c-1.37855,0.46152 -4.05606,0.43315 -5.79327,0.82557c-0.08556,-0.9357 -0.40913,-1.1294 -0.50221,-2.19614c-0.77526,-8.88502 -1.0288,-22.56485 -0.77441,-29.9716z" fill="#a68f79" stroke="#000000" stroke-width="2" stroke-linecap="butt"/><path d="M304.46863,223.54642c1.58511,-10.92654 8.22455,-3.22199 14.27618,-3.08276c0.57284,0.01317 0.22148,30.9766 0.15511,36.43297c-1.40668,0 -1.88118,0.34957 -3.28786,0.34957c-2.61352,0 -5.45621,1.28083 -8.00581,2.1673c-1.58202,0.75079 -4.33768,1.87581 -5.96962,2.39927c0.02853,-0.89219 -0.28187,-2.26983 -0.23308,-3.40603c0.4123,-9.60053 1.86258,-26.5712 3.06508,-34.86033z" fill="#a68f79" stroke="#000000" stroke-width="2" stroke-linecap="butt"/><path d="M314.09725,228.34834v-4.31137h14.09936v4.31137z" fill="#a68f79" stroke="none" stroke-width="0" stroke-linecap="butt"/><path d="M304.12663,225.22571c0,0 -0.17759,-17.61223 1.08049,-28.46941c1.42141,-12.26677 4.86953,-22.87543 14.01328,-23.14741c11.49567,-0.34194 12.49154,14.41192 14.04095,27.88541c1.18315,10.28856 1.78775,25.51554 1.78775,25.51554" fill="#334865" stroke="#000000" stroke-width="2" stroke-linecap="round"/><path d="M311.92605,178.17296c2.34759,0.41869 -0.10551,16.45942 -2.20199,28.57196c-2.13856,-0.16627 -4.2748,-0.35244 -6.4028,-0.62842c-1.56687,-0.20321 -3.13215,-0.31502 -4.70466,-0.41243c0.31286,-1.37575 -0.33015,-1.72895 0.03904,-3.19368c2.83814,-11.26 8.25952,-25.23111 13.27042,-24.33743z" fill="#334865" stroke="#000000" stroke-width="2" stroke-linecap="butt"/><path d="M306.54672,218.4748c-0.72753,4.23293 -3.21431,6.3953 -6.77937,5.78257c-3.56507,-0.61273 -4.87227,-4.65128 -4.14475,-8.88421c0.22353,-1.30057 1.17401,-5.57997 2.62148,-10.8307c1.58098,0.17348 3.15379,0.35988 4.72372,0.64022c2.10584,0.37605 4.22404,0.66368 6.34555,0.93129c-1.34147,6.00551 -2.52462,10.95272 -2.76664,12.36084z" fill="#ffffff" stroke="#000000" stroke-width="2" stroke-linecap="butt"/><path d="M315.34405,185.59758c0.05388,1.12792 -1.7167,1.33752 -2.37831,2.8265c-1.63089,3.67037 -3.42958,8.83831 -4.93453,8.9102c-2.11548,0.10106 -0.16129,-7.46246 -0.34799,-11.37073c-0.18671,-3.90827 1.87764,-7.57282 3.99312,-7.67388c0.43612,-0.02083 1.59407,-0.39122 1.96269,-0.13388c1.41942,0.99091 1.55681,4.33924 1.70503,7.44179z" fill="#334865" stroke="none" stroke-width="0" stroke-linecap="butt"/><path d="M324.56149,177.82256c0.58578,-0.08775 1.58355,0.019 2.73165,0.82067c1.62029,1.13137 4.4992,5.28519 4.74019,6.89762c0.41175,2.75494 1.99996,6.00788 0.58749,6.21949c-0.64801,0.09708 -0.73482,-2.66826 -1.80079,-4.28071c-0.58697,-0.88788 -1.96501,-1.69479 -2.52639,-2.52797c-0.64132,-0.95184 -1.84062,-0.86204 -1.95945,-1.65712c-0.41175,-2.75494 -3.18517,-5.26036 -1.7727,-5.47197z" data-paper-data="{&quot;index&quot;:null}" fill="#334865" stroke="none" stroke-width="0" stroke-linecap="butt"/><path d="M324.66365,229.00309l-7.72377,-0.33102" fill="none" stroke="#000000" stroke-width="2" stroke-linecap="round"/><path d="M327.04828,176.10492c0,0.78788 -0.41115,1.82496 -1.22398,2.80974c-0.92811,1.12448 -2.44288,2.14932 -5.56126,2.11015c-2.81373,-0.03534 -3.13628,-0.95102 -3.96732,-2.13634c-0.64567,-0.92093 -2.09093,-2.0457 -2.09093,-2.78355c0,-1.68751 2.87511,-3.05551 6.42174,-3.05551c3.54663,0 6.42175,1.368 6.42175,3.05551z" fill="#ffffff" stroke="#000000" stroke-width="2" stroke-linecap="butt"/><path d="M340.4792,151.45439c0.27415,1.85931 1.12978,4.36561 1.13834,6.08028c0.06271,12.55334 -8.0915,18.09904 -18.33175,19.6275c-11.86886,1.77155 -23.09362,-5.31293 -25.09155,-18.86298c-1.99793,-13.55006 6.19656,-25.6597 18.06543,-27.43125c11.86886,-1.77155 22.2216,7.03639 24.21953,20.58645z" fill="#ffffff" stroke="#000000" stroke-width="2" stroke-linecap="butt"/><path d="M319.11731,156.01757c0.2535,2.78804 -0.40197,5.12647 -1.46402,5.22303c-1.06204,0.09656 -2.1285,-2.0853 -2.382,-4.87334c-0.2535,-2.78804 0.40196,-5.12647 1.46401,-5.22303c1.06204,-0.09656 2.12851,2.0853 2.38201,4.87334z" fill="#000000" stroke="none" stroke-width="0" stroke-linecap="butt"/><path d="M333.19544,154.75738c0.20901,2.2987 -0.33142,4.22672 -1.20707,4.30634c-0.87565,0.07962 -1.75494,-1.71931 -1.96395,-4.01802c-0.20901,-2.2987 0.33142,-4.22672 1.20707,-4.30634c0.87565,-0.07962 1.75494,1.71932 1.96395,4.01802z" fill="#000000" stroke="none" stroke-width="0" stroke-linecap="butt"/><path d="M308.14937,164.5555l27.52156,-0.72963" fill="none" stroke="#000000" stroke-width="2" stroke-linecap="round"/><path d="M307.61989,162.38774l-0.63928,3.93594" fill="none" stroke="#000000" stroke-width="2" stroke-linecap="round"/><path d="M309.59393,221.3357l3.16535,-9.61327" fill="none" stroke="#000000" stroke-width="2" stroke-linecap="round"/><path d="M329.85508,213.06072l1.64128,6.79962" fill="none" stroke="#000000" stroke-width="2" stroke-linecap="round"/><path d="M328.49486,177.91172c0,0 -1.23297,4.86641 -5.79289,5.39337c-4.10253,0.47411 -7.66472,-1.09846 -9.24532,-2.54116c-1.95625,-1.78556 -1.40826,-3.58465 -1.40826,-3.58465" fill="none" stroke="#000000" stroke-width="1.5" stroke-linecap="round"/><path d="M318.97322,190.89579l0.13317,-7.79043" fill="none" stroke="#000000" stroke-width="1.5" stroke-linecap="round"/><path d="M323.8339,183.03877l-0.06658,7.9236" fill="none" stroke="#000000" stroke-width="1.5" stroke-linecap="round"/><path d="M304.65884,224.50306l30.06309,1.51481" fill="none" stroke="#000000" stroke-width="2" stroke-linecap="round"/></g></g></svg>