<svg version="1.1" xmlns="http://www.w3.org/2000/svg" xmlns:xlink="http://www.w3.org/1999/xlink" width="123.20708" height="180.65147" viewBox="0,0,123.20708,180.65147"><g transform="translate(-269.47707,-92.17836)"><g data-paper-data="{&quot;isPaintingLayer&quot;:true}" fill="#9966ff" fill-rule="nonzero" stroke="#000000" stroke-width="2" stroke-linecap="butt" stroke-linejoin="miter" stroke-miterlimit="10" stroke-dasharray="" stroke-dashoffset="0" style="mix-blend-mode: normal"><path d="M270.72989,141.22804l3.58054,-11.45337l76.35581,23.87027l-3.58054,11.45337z"/><path d="M320.2412,261.96532l-16.10995,-57.81217l16.15041,-4.11609l24.35607,57.7745z" data-paper-data="{&quot;index&quot;:null}"/><path d="M273.08664,271.68837l7.03332,-62.30284l16.65526,-0.61657l0.88722,60.00825z"/><path d="M305.96949,145.33455l1.88437,-11.85112l9.87594,1.57031l-1.88437,11.85112z"/><path d="M277.50766,205.69737l25.46561,-67.99408c0.5737,0.70542 1.24677,1.28514 2.0004,1.70413c0.46946,0.26101 0.97018,0.45965 1.4976,0.58747c1.94947,0.67056 4.17357,1.15915 4.68505,1.2839c2.94061,0.71726 7.06775,1.29857 10.58994,0.03408l3.09329,71.91043z"/><path d="M295.88486,111.49783c1.85531,-11.66841 11.88106,-19.77253 22.39314,-18.10108c10.51209,1.67146 17.52977,12.48555 15.67445,24.15395c-1.85531,11.66841 -11.88106,19.77254 -22.39314,18.10109c-10.51209,-1.67146 -17.52977,-12.48555 -15.67445,-24.15396zM312.2191,130.9114c13.07604,2.15286 16.59921,-11.29474 16.59921,-11.29474l-28.06803,-4.46291c0,0 -1.14498,13.68089 11.46881,15.75765zM322.45334,111.90488c1.42172,0.22606 2.77766,-0.87 3.02858,-2.44809c0.25092,-1.57811 -0.6982,-3.04066 -2.11991,-3.26672c-1.42172,-0.22606 -2.77766,0.87 -3.02858,2.44809c-0.25092,1.57811 0.6982,3.04066 2.11991,3.26672zM308.56803,109.69707c1.42172,0.22606 2.77766,-0.87 3.02858,-2.44809c0.25092,-1.57811 -0.6982,-3.04066 -2.11991,-3.26672c-1.42172,-0.22606 -2.77766,0.87 -3.02858,2.44809c-0.25092,1.57811 0.6982,3.04066 2.11991,3.26672z"/><g><path d="M328.3113,160.99002l22.49655,-23.2239l40.46226,39.19502l-22.49655,23.2239z"/><path d="M356.81588,144.97823l7.88539,-8.14034l20.11142,19.48155l-7.88539,8.14034z"/><path d="M379.99184,186.68771c-6.46843,6.67756 -17.17895,6.79518 -23.92263,0.26271c-6.74368,-6.53247 -6.96681,-17.24132 -0.49838,-23.91888c6.46843,-6.67756 17.17895,-6.79518 23.92263,-0.26271c6.74368,6.53247 6.96681,17.24132 0.49838,23.91888z"/><path d="M376.87936,183.67271c-4.54711,4.69413 -12.03862,4.81331 -16.73274,0.2662c-4.69413,-4.54711 -4.81331,-12.03862 -0.2662,-16.73274c4.54711,-4.69413 12.03862,-4.81331 16.73274,-0.2662c4.69413,4.54711 4.81331,12.03862 0.2662,16.73274z"/></g></g></g></svg>