<svg version="1.1" xmlns="http://www.w3.org/2000/svg" xmlns:xlink="http://www.w3.org/1999/xlink" width="177.08694" height="187.29283" viewBox="0,0,177.08694,187.29283"><g transform="translate(-307.87787,-71.43088)"><g data-paper-data="{&quot;isPaintingLayer&quot;:true}" fill-rule="nonzero" stroke-width="5.5" stroke-linejoin="miter" stroke-miterlimit="10" stroke-dasharray="" stroke-dashoffset="0" style="mix-blend-mode: normal"><path d="M400.41898,79.69043c1.22476,5.08948 -7.18506,11.43411 -18.78395,14.17112c-11.59888,2.73706 -21.99449,0.82999 -23.21928,-4.25945c-1.22476,-5.08948 7.18507,-11.43411 18.78395,-14.17111c11.59888,-2.73706 21.99448,-0.82999 23.21927,4.25945z" fill="#ff4f4f" stroke="#000000" stroke-linecap="butt"/><path d="M402.29438,167.42251c0.76421,5.65796 -19.13652,13.0163 -44.44953,16.43526c-25.31302,3.41896 -46.45277,1.60386 -47.21698,-4.0541c-0.76421,-5.65796 19.13652,-13.01629 44.44954,-16.43525c25.31302,-3.41896 46.45277,-1.60387 47.21698,4.0541z" fill="#ff2e2e" stroke="#000000" stroke-linecap="butt"/><path d="M481.45502,165.23447c5.94385,44.00652 -23.63359,84.32661 -66.06299,90.05744c-42.42942,5.73083 -81.64371,-25.29775 -87.58756,-69.30426c-5.94385,-44.00652 23.63359,-84.32661 66.06299,-90.05743c42.42942,-5.73083 81.64371,25.29774 87.58756,69.30426z" fill="#ffffff" stroke="#000000" stroke-linecap="butt"/><path d="M481.31725,146.66392c0.56327,4.17033 -35.38138,1.56582 -79.5777,7.5353c-44.19632,5.96948 -78.57382,21.54939 -79.13709,17.37909c-0.56328,-4.17033 -16.61018,-75.51066 66.01673,-87.30246c72.99865,-10.41773 92.13477,58.21774 92.69806,62.3881z" fill="#ff4f4f" stroke="#000000" stroke-linecap="butt"/><path d="M371.221,187.91867c-0.95637,-7.08065 0.04133,-13.06014 2.22842,-13.35555c2.18709,-0.2954 4.73536,5.20515 5.69173,12.2858c0.95637,7.08065 -0.04133,13.06014 -2.22842,13.35555c-2.18709,0.2954 -4.73536,-5.20515 -5.69172,-12.2858z" data-paper-data="{&quot;index&quot;:null}" fill="#000000" stroke="none" stroke-linecap="butt"/><path d="M447.77462,174.68597c-1.0433,-7.72434 0.01054,-14.24276 2.35387,-14.55927c2.34332,-0.31651 5.08871,5.68876 6.13202,13.41311c1.0433,7.72434 -0.01054,14.24276 -2.35386,14.55927c-2.34332,0.31651 -5.08872,-5.68876 -6.13202,-13.41311z" data-paper-data="{&quot;index&quot;:null}" fill="#000000" stroke="none" stroke-linecap="butt"/><g fill="#ffffff" stroke-linecap="butt"><path d="M454.19083,196.9247c0.41041,3.03853 10.56731,9.19748 -15.46891,12.71413c-11.68977,1.5789 -52.28311,9.02087 -67.50364,9.12365c-18.67973,0.12615 -11.08682,-7.42856 -11.31296,-9.10285c-0.41041,-3.03853 20.36344,-8.35256 46.39966,-11.86921c26.03622,-3.51665 47.47547,-3.90422 47.88588,-0.86569z" stroke="#000000"/><path d="M394.2541,213.39832c0.39356,2.91379 -2.52023,3.30735 -2.52023,3.30735l-2.49752,0.33733c-7.24435,0.97848 -13.79192,1.15374 -21.03743,1.11625c0,0 -2.94016,-0.02247 -2.9177,-2.96263c0.02247,-2.94016 2.96263,-2.9177 2.96263,-2.9177c6.99743,0.06857 13.2051,-0.11799 20.20539,-1.0635l2.49752,-0.33734c0,0 2.91379,-0.39356 3.30734,2.52023z" stroke="none"/></g><path d="M384.77814,215.37942l0.75552,9.55682c0,0 -0.05617,5.60467 -8.84737,5.83123c-6.05706,0.15609 -7.07698,-4.83946 -7.07698,-4.83946l-0.33234,-10.38668" fill="#ffffff" stroke="#000000" stroke-linecap="round"/></g></g></svg>