<svg version="1.1" xmlns="http://www.w3.org/2000/svg" xmlns:xlink="http://www.w3.org/1999/xlink" width="180.99803" height="230.56057" viewBox="0,0,180.99803,230.56057"><g transform="translate(-306.32891,-28.88919)"><g data-paper-data="{&quot;isPaintingLayer&quot;:true}" fill-rule="nonzero" stroke-linecap="butt" stroke-linejoin="miter" stroke-miterlimit="10" stroke-dasharray="" stroke-dashoffset="0" style="mix-blend-mode: normal"><path d="M316.08319,255.58393v-4.97321c2.26048,-1.35011 4.33689,-3.83047 4.33689,-8.38724c0,-4.43934 -1.97078,-6.90791 -4.16254,-8.28059c0.02774,-0.05703 0.05319,-0.11487 0.07496,-0.17398c1.34907,-3.66324 2.90313,-6.55043 3.06485,-10.4965c0.66605,-1.99816 0.59574,-4.17015 0.8936,-6.25523c0.40596,-2.84174 1.25296,-5.71727 0.8936,-8.56527c-0.34378,-2.72457 -1.79701,-5.45618 -2.68081,-8.04244c-0.2878,-0.84219 1.78112,-2.83601 1.95508,-3.28868c0.79078,-2.05774 1.37636,-4.21379 1.67354,-6.39812c0.81827,-6.0145 -1.82652,-12.07915 -6.04918,-16.50902v-27.13616c0,0 60.30436,-105.00623 87.70853,-105.00623c25.63425,0 71.76152,105.00623 71.76152,105.00623l0,20.0552c-8.02915,1.21902 -8.02915,9.85768 -8.02915,9.85768c0,5.22877 0.78119,11.10987 0.12913,16.27026c-0.80058,6.33582 -3.11825,12.48267 -1.64882,19.09062c0.348,1.56492 1.54768,2.83426 2.00987,4.36933c0.43038,1.42942 0.27888,2.98401 0.64021,4.43242c2.02312,8.10959 4.3255,15.73586 6.89877,23.53867v10.89224z" fill-opacity="0.41569" fill="#9a8bff" stroke="none" stroke-width="0"/><path d="M307.44983,140.92669l83.49629,-107.45451l11.22812,1.12798l-83.49629,112.78895z" fill="#fff1f7" stroke="#000000" stroke-width="1.5"/><path d="M320.13822,151.2212v-12.57403h154.69861v12.57403z" fill="#fff1f7" stroke="#000000" stroke-width="1.5"/><path d="M308.82357,137.53188h11.81196v55.3316c-1.28101,-2.46143 -3.10181,-4.66204 -5.85174,-6.50753c-1.41999,-0.95295 -3.1615,-1.3097 -4.77585,-1.87393c-0.34032,-0.11894 -0.74232,-0.26617 -1.18437,-0.4204z" fill="#fff1f7" stroke="#000000" stroke-width="1.5"/><path d="M308.82357,258.69975l0,-8.36312c0.40029,0.07018 0.80405,0.10652 1.21275,0.09228c2.72865,-0.09502 5.452,-0.76986 8.00372,-1.74109c0.91546,-0.34844 1.77587,-0.82816 2.59549,-1.37776v11.3897z" fill="#fff1f7" stroke="#000000" stroke-width="1.5"/><path d="M474.0484,137.38922h11.81196l0,40.93312c-5.85636,-2.76274 -10.93932,2.32021 -10.93932,2.32021c-0.29975,0.30592 -0.59059,0.61036 -0.87264,0.91381z" fill="#fff1f7" stroke="#000000" stroke-width="1.5"/><path d="M474.0484,258.5571l0,-39.91574c0.67871,1.47553 1.15126,3.07508 1.97542,4.47409c2.63991,4.48125 5.7194,7.27193 9.83654,9.73707v25.70459z" fill="#fff1f7" stroke="#000000" stroke-width="1.5"/><path d="M411.12585,33.71056l75.11361,106.31141l-11.22812,6.46242l-73.58948,-110.88379z" data-paper-data="{&quot;index&quot;:null}" fill="#fff1f7" stroke="#000000" stroke-width="1.5"/><path d="M387.58071,39.54599v-9.9068h26.29114v9.9068z" fill="#fff1f7" stroke="#000000" stroke-width="1.5"/><path d="M423.68431,258.44304v-5.33443h50.2961v5.33443z" fill="#fff1f7" stroke="#000000" stroke-width="1.5"/><path d="M320.56755,258.58569v-5.33443c0,0 33.45347,0 42.05607,0c0.33762,0 -4.77293,-83.18927 -1.88352,-83.23227c1.39744,-0.02079 62.98053,-2.45206 62.98053,-2.45206l0.72898,85.68433c0,0 2.00225,4.32919 0.67445,5.11043c-0.92324,0.54321 -7.8784,-0.87182 -7.8784,-0.87182l-0.83916,-81.56093l-49.02509,0.91819l3.48222,81.73856z" fill="#fff1f7" stroke="#000000" stroke-width="1.5"/></g></g></svg>