<svg version="1.1" xmlns="http://www.w3.org/2000/svg" xmlns:xlink="http://www.w3.org/1999/xlink" width="95.30869" height="62.91086" viewBox="0,0,95.30869,62.91086"><g transform="translate(-268.55112,-203.9595)"><g data-paper-data="{&quot;isPaintingLayer&quot;:true}" fill-rule="nonzero" stroke="none" stroke-linecap="butt" stroke-linejoin="miter" stroke-miterlimit="10" stroke-dasharray="" stroke-dashoffset="0" style="mix-blend-mode: normal"><path d="M315.69307,266.87036c-20.51732,0 -37.14989,-5.17761 -37.14989,-11.5645c0,-6.3869 -5.40116,-26.05866 15.11617,-26.05866c8.442,0 38.6596,-2.83737 49.28906,1.52766c15.20426,6.24368 9.89456,20.77203 9.89456,24.53099c0,6.3869 -16.63258,11.5645 -37.14989,11.5645z" data-paper-data="{&quot;index&quot;:null}" fill="#ff577e" stroke-width="0"/><path d="M316.20548,243.12459c-26.31876,0 -47.65435,-2.27815 -47.65435,-5.08838c0,-2.81024 19.54214,-34.07671 45.8609,-34.07671c26.31876,0 49.44779,31.26647 49.44779,34.07671c0,2.81024 -21.33558,5.08838 -47.65435,5.08838z" data-paper-data="{&quot;index&quot;:null}" fill="#ff577e" stroke-width="0"/><text transform="translate(283.41109,254.75686) scale(0.40648,0.48927)" font-size="40" xml:space="preserve" data-paper-data="{&quot;index&quot;:null}" fill="#ffffff" fill-rule="nonzero" stroke="none" stroke-width="1" stroke-linecap="butt" stroke-linejoin="miter" stroke-miterlimit="10" stroke-dasharray="" stroke-dashoffset="0" font-family="Playful" font-weight="normal" text-anchor="start" style="mix-blend-mode: normal"><tspan x="0" dy="0">Previous</tspan></text></g></g></svg>