<svg version="1.1" xmlns="http://www.w3.org/2000/svg" xmlns:xlink="http://www.w3.org/1999/xlink" width="337.04348" height="415.30761" viewBox="0,0,337.04348,415.30761"><g transform="translate(163.25,6.35066)"><g data-paper-data="{&quot;isPaintingLayer&quot;:true}" fill-rule="nonzero" stroke="none" stroke-linejoin="miter" stroke-miterlimit="10" stroke-dasharray="" stroke-dashoffset="0" style="mix-blend-mode: normal"><g stroke-width="0" stroke-linecap="butt"><path d="M102.7984,182.95816c20.31925,30.88829 31.78935,59.75748 13.77586,67.15268c-22.61274,8.16991 -28.56931,-15.75166 -48.88855,-46.64003c-1.76773,-2.68726 -3.44681,-5.36495 -5.03298,-8.01824c7.99592,-3.0491 15.9882,-6.10776 23.97566,-9.17962c4.69965,-2.27158 9.40795,-4.34438 14.16258,-6.31367c0.67297,0.98809 1.34229,1.98789 2.00738,2.99885z" data-paper-data="{&quot;index&quot;:null}" fill="#ffffff"/><path d="M60.26764,145.08207c7.64013,-5.248 31.92181,17.10209 44.45358,35.48467c3.62458,5.3168 1.19612,6.90552 3.36132,11.5942c-4.51693,1.04834 -9.00566,2.20533 -13.50721,3.55625c-7.73006,1.55439 -16.05266,8.02717 -23.78521,9.56903c-11.36053,-29.62044 -21.26813,-54.96086 -12.66487,-58.35802z" data-paper-data="{&quot;index&quot;:null}" fill="#aefa7f"/></g><path d="M90.83215,342.67544c-0.34617,1.34004 -4.63871,20.89718 -4.62056,34.54093c0.0128,9.68041 6.26708,20.4739 2.78295,24.56993c-13.16683,15.47905 -43.26302,1.36497 -50.87311,-0.53557c-12.46212,-3.11223 9.33122,-68.87838 10.85125,-74.76219c1.52003,-5.88381 11.03582,2.90435 23.49797,6.0167c12.46215,3.1123 19.88161,4.2864 18.36158,10.17021z" data-paper-data="{&quot;index&quot;:null}" fill="#ffffff" stroke-width="0" stroke-linecap="butt"/><path d="M150.52638,313.90296c0.25827,1.35969 4.69259,20.88553 10.42188,33.24523c4.06508,8.76944 14.05682,15.9327 12.72376,21.10534c-5.03753,19.54737 -37.2791,19.36326 -44.73308,20.82895c-12.20641,2.40014 -20.67983,-66.34381 -21.81394,-72.31396c-1.13407,-5.97015 10.87146,-1.99107 23.07782,-4.39117c12.20641,-2.40014 19.18937,-4.44445 20.32341,1.52569z" fill="#ffffff" stroke-width="0" stroke-linecap="butt"/><path d="M80.89724,275.50618c9.8797,-3.93864 19.6502,-8.13671 29.54861,-12.03464c4.9603,-1.95332 9.92057,-3.90665 14.88083,-5.85998c13.76537,23.38041 25.88561,54.20724 27.39396,57.46479c2.2802,4.9244 -3.84162,14.80602 -16.63407,21.05142c-12.79245,6.2454 -26.85142,7.15617 -29.13157,2.23178c-0.74909,-1.61774 -16.69889,-36.28015 -26.05776,-62.85336z" data-paper-data="{&quot;index&quot;:null}" fill="#222228" stroke-width="0" stroke-linecap="butt"/><path d="M95.12919,343.42686c0.15382,5.41986 -12.39104,9.93152 -28.01968,10.07717c-15.62864,0.14565 -28.42288,-4.12997 -28.5767,-9.54982c-0.03326,-1.17303 1.49803,-7.51421 1.18787,-15.31242c-0.28195,-7.08852 -2.4144,-15.30213 -2.3245,-23.44108c0.11351,-10.27353 1.26202,-16.50335 2.07364,-26.65754c5.832,-0.47487 11.66401,-0.94969 17.49598,-1.42456c11.63794,-0.94759 23.29615,-1.56977 34.9355,-2.47259c3.72863,27.92864 3.17736,67.00033 3.22789,68.78086z" fill="#222228" stroke-width="0" stroke-linecap="butt"/><path d="M119.09162,275.98841c2.47917,8.90402 -8.72542,19.80146 -25.02613,24.34012c-16.30071,4.53866 -31.52486,0.99977 -34.00403,-7.90425c-2.47917,-8.90402 8.72545,-19.80142 25.02616,-24.34008c16.30071,-4.53866 31.52479,-0.99981 34.00396,7.90417z" fill="#222228" stroke-width="0" stroke-linecap="butt"/><path d="M102.70404,297.92328l-16.00629,5.1959" fill="none" stroke-width="0" stroke-linecap="round"/><path d="M128.687,261.9795c0.9637,3.13835 -3.00317,3.89404 -29.44513,12.12719c-1.09451,0.34078 -27.75398,15.54343 -28.86894,15.8814c-28.04997,8.50294 -33.75437,2.82622 -34.75794,-0.442c-0.15855,-0.5163 -4.91515,-4.99176 -7.27997,-12.43107c-2.74593,-8.6383 -4.41887,-28.20149 -7.16493,-41.34188c-2.67207,-12.78626 -6.42689,-19.10267 -8.42459,-31.04453c-5.37333,-32.12082 -0.6331,-50.69726 25.56922,-60.89519c29.30899,-11.40703 47.04535,13.57827 61.72218,43.37363c16.48507,33.46618 28.11922,73.04351 28.65009,74.77246z" fill="#aefa7f" stroke-width="0" stroke-linecap="butt"/><path d="M-10.818,219.83316c0.24281,-1.18551 0.49369,-2.36222 0.7523,-3.52941c5.1459,0.06587 10.28715,0.24506 15.49407,0.61207c8.5571,-0.10889 17.11378,-0.23183 25.6703,-0.365c-0.48925,3.05229 -1.05574,6.1617 -1.70101,9.31288c-7.41726,36.22082 -4.07904,60.64577 -28.10917,61.44311c-19.47149,-0.18857 -19.52383,-31.25287 -12.10654,-67.47362z" data-paper-data="{&quot;index&quot;:null}" fill="#ffffff" stroke-width="0" stroke-linecap="butt"/><path d="M19.31048,166.80686c9.24962,-0.03512 9.44459,27.17259 9.87725,58.89396c-7.75304,1.4353 -17.88246,-1.49002 -25.63782,-0.06727c-4.68157,0.41457 -9.27932,1.00449 -13.86297,1.70576c0.27228,-5.1573 -2.57216,-5.73228 -1.17746,-12.01406c4.82212,-21.71893 19.08535,-51.47942 28.12679,-49.43851z" data-paper-data="{&quot;index&quot;:null}" fill="#aefa7f" stroke-width="0" stroke-linecap="butt"/><path d="M32.22376,174.23046c0.29017,5.77193 7.69771,12.63775 4.1548,18.72585c-4.32758,7.43653 -17.93671,19.84313 -22.65566,4.37798c-1.02006,-3.34296 -1.07433,-9.95196 -0.13982,-16.39436c-0.26316,-0.50123 -0.48342,-1.03406 -0.65464,-1.59525c-1.26267,-4.138 1.20835,-11.37765 4.78632,-13.4949c3.1006,-5.94551 7.29904,-4.45914 13.97207,6.62114z" fill="#aefa7f" stroke-width="0" stroke-linecap="butt"/><path d="M69.74058,144.03236c2.35636,7.72494 -5.72919,17.03628 -18.05938,20.79732c-12.33024,3.76104 -24.23603,0.54766 -26.59235,-7.17728c-2.35636,-7.72494 5.72911,-17.03621 18.05935,-20.79729c12.33024,-3.76104 24.23607,-0.54773 26.59239,7.17725z" fill="#ffffff" stroke-width="0" stroke-linecap="butt"/><path d="M-1.9622,77.59921c3.53359,4.16338 -8.15666,25.28003 -26.78296,41.0887c-18.6263,15.80871 -37.13539,20.32294 -40.66902,16.15956c-3.53359,-4.16338 8.70157,-20.35392 27.32787,-36.16259c18.6263,-15.80871 36.59048,-25.24906 40.12407,-21.08571z" fill="#ff2e2e" stroke-width="0" stroke-linecap="butt"/><path d="M75.59146,40.07893c3.81817,5.22954 5.67729,10.66832 8.43893,15.89116c20.21879,38.23725 8.51021,69.34752 -20.89133,90.79185c-34.07764,24.85486 -80.27885,21.60669 -108.10461,-16.50425c-27.8258,-38.11098 -21.66296,-88.52047 12.41468,-113.37537c34.07764,-24.85486 80.31649,-14.91438 108.14229,23.19657z" fill="#ffffff" stroke-width="0" stroke-linecap="butt"/><path d="M61.93903,88.97951c-3.9365,1.11983 -8.97539,-4.46741 -11.25459,-12.47954c-2.27921,-8.01213 -0.9357,-15.41497 3.00085,-16.5348c3.9365,-1.11983 8.97535,4.46744 11.25459,12.47958c2.27921,8.01213 0.93566,15.41493 -3.00084,16.53476z" data-paper-data="{&quot;index&quot;:null}" fill="#000000" stroke-width="0" stroke-linecap="butt"/><path d="M9.24839,117.8035c-3.6656,1.21618 -8.95679,-4.78988 -11.8184,-13.41476c-2.86161,-8.62489 -2.20987,-16.60265 1.45573,-17.81879c3.6656,-1.21618 8.9568,4.78984 11.8184,13.41473c2.86161,8.62489 2.20983,16.60268 -1.45573,17.81883z" data-paper-data="{&quot;index&quot;:null}" fill="#000000" stroke-width="0" stroke-linecap="butt"/><path d="M-24.24013,-2.933c3.32398,4.41224 -1.64628,13.84513 -11.10153,21.06893c-9.45514,7.22387 -19.8147,9.50308 -23.13865,5.09088c-3.32398,-4.41224 1.64629,-13.84517 11.10153,-21.06893c9.45514,-7.22387 19.81474,-9.50308 23.13869,-5.09088z" fill="#ff4f4f" stroke-width="0" stroke-linecap="butt"/><path d="M72.57035,30.83977c2.34852,3.77189 -30.14253,14.80708 -66.00707,37.1373c-35.8645,22.33019 -58.88992,50.14715 -61.23843,46.37519c-2.34852,-3.77189 -48.11198,-65.88526 18.65706,-108.23594c58.98858,-37.4157 106.23997,20.95148 108.58848,24.72348z" fill="#ff4f4f" stroke-width="0" stroke-linecap="butt"/><path d="M31.93834,31.41694c2.59612,4.24102 -6.41122,11.26828 -18.76557,18.8309c-0.23029,0.14097 -0.99882,0.1508 -1.22894,0.28845c-12.11227,7.24269 -22.19672,12.4293 -24.74447,8.26731c-2.59612,-4.24102 5.31444,-13.80983 17.66879,-21.37241c12.35435,-7.56259 24.47407,-10.25527 27.07019,-6.01425z" fill="#ffffff" stroke-width="0" stroke-linecap="butt"/><path d="M-163.25,72.25c0,-1.38071 1.11929,-2.5 2.5,-2.5c1.38071,0 2.5,1.11929 2.5,2.5c0,1.38071 -1.11929,2.5 -2.5,2.5c-1.38071,0 -2.5,-1.11929 -2.5,-2.5z" fill="#ffffff" stroke-width="0.5" stroke-linecap="butt"/></g></g></svg>