<svg version="1.1" xmlns="http://www.w3.org/2000/svg" xmlns:xlink="http://www.w3.org/1999/xlink" width="48.70326" height="138.98522" viewBox="0,0,48.70326,138.98522"><g transform="translate(-295.4131,-130.8779)"><g data-paper-data="{&quot;isPaintingLayer&quot;:true}" fill-rule="nonzero" stroke-linejoin="miter" stroke-miterlimit="10" stroke-dasharray="" stroke-dashoffset="0" style="mix-blend-mode: normal"><path d="M328.48205,180.11965c0,3.48943 -5.101,6.31817 -11.39342,6.31817c-6.29242,0 -11.39342,-2.82874 -11.39342,-6.31817c0,-3.48943 1.57941,-5.38598 7.87182,-5.38598c6.29242,0 14.91502,1.89655 14.91502,5.38598z" fill="#334865" stroke="#000000" stroke-width="2" stroke-linecap="butt"/><path d="M340.90096,216.33381c0.31667,4.04128 -2.22292,7.53072 -5.67233,7.79388c-3.44941,0.26316 -6.50242,-2.79962 -6.81907,-6.8409c-0.09047,-1.15457 -0.4347,-4.75549 -0.80031,-9.32114c1.8267,-0.69476 3.66763,-1.35997 5.53945,-1.85346c1.95729,-0.51602 3.78657,-1.40066 5.74394,-1.88598c0.08036,-0.01993 0.16447,-0.0341 0.25065,-0.04479c1.05417,5.85057 1.64972,10.7745 1.75768,12.15238z" data-paper-data="{&quot;index&quot;:null}" fill="#ffffff" stroke="#000000" stroke-width="2" stroke-linecap="butt"/><path d="M328.09855,178.78605c4.17164,-0.56075 8.63834,11.92574 10.80975,21.70418c0.52882,2.38143 -0.24769,1.78553 0.15478,4.05984c-0.11633,0.00817 -0.21562,0.0184 -0.28262,0.03555c-1.96022,0.5018 -3.79101,1.41555 -5.75059,1.94896c-1.84438,0.50204 -3.65877,1.1748 -5.45913,1.87988c-0.90428,-11.78807 -1.88894,-29.30355 0.52781,-29.62841z" data-paper-data="{&quot;index&quot;:null}" fill="#334865" stroke="#000000" stroke-width="2" stroke-linecap="butt"/><path d="M321.09843,223.01285c2.9453,-10.6396 6.23926,-4.88708 11.5431,-4.11822c0.30595,0.04435 4.94586,12.14033 3.75639,22.52984c-0.61255,5.3504 -8.48777,14.96028 -8.48266,14.96899c-2.87061,-0.26089 -4.23225,-1.95178 -7.03161,-1.71038c-1.44821,0.12679 -5.71915,-5.23754 -7.49997,-5.26171c0.13535,-0.9298 7.50304,-8.96713 7.52887,-10.0046c0.14546,-5.84378 -2.07516,-11.02715 -0.96568,-15.03505z" fill="#a68f79" stroke="#000000" stroke-width="2" stroke-linecap="butt"/><path d="M326.9476,265.21504c-0.58465,1.06849 -15.08262,-7.65461 -14.49798,-8.72311c0.08804,-0.1609 1.2026,-2.33129 2.90669,-5.56202c1.68886,0.60565 3.72648,1.95386 4.99686,2.28719c2.79174,0.72891 5.62049,2.3207 8.29962,3.53731c0.10191,0.67051 0.22668,1.75684 0.16477,2.77036c-0.13498,2.20965 -1.53251,5.07352 -1.86997,5.69027z" fill="#ffffff" stroke="#000000" stroke-width="2" stroke-linecap="butt"/><path d="M305.66645,227.15748c1.01534,-10.99413 8.04607,-3.6449 14.09676,-3.82023c0.57275,-0.0166 2.85591,33.69244 3.07308,39.14489c-1.40478,0.07307 -9.67309,-0.68672 -12.1732,0.331c-1.54088,0.83196 -4.23438,2.09861 -5.83692,2.70615c-0.01785,-0.89247 -0.39941,-2.25212 -0.40971,-3.38932c-0.087,-9.60899 0.47972,-26.63208 1.24998,-34.97249z" fill="#a68f79" stroke="#000000" stroke-width="2" stroke-linecap="butt"/><path d="M325.79178,268.00844c0.02236,1.21854 -20.30103,1.09543 -20.32339,-0.1231c-0.00214,-0.11715 -0.01542,-1.24096 -0.02692,-3.06727c1.76854,-0.68873 3.72705,-1.73392 4.92527,-2.36047c2.45594,-0.95339 4.97047,-2.43551 7.50718,-2.52988c1.36559,-0.05081 2.831,-0.10533 4.21139,-0.15669c0.00566,0.2288 0.00859,0.35015 0.00859,0.35015c0,0 1.37797,1.40144 2.18466,2.86894c1.10132,2.00346 1.5003,4.31498 1.51322,5.01834z" fill="#ffffff" stroke="#000000" stroke-width="2" stroke-linecap="butt"/><path d="M315.63459,229.92902v-4.31137h14.09936v4.31137z" fill="#a68f79" stroke="none" stroke-width="0" stroke-linecap="butt"/><path d="M305.66397,226.80639c0,0 -0.17759,-17.61223 1.08049,-28.46941c1.42141,-12.26677 4.86953,-22.87543 14.01328,-23.14741c11.49567,-0.34194 12.49154,14.41192 14.04095,27.88541c1.18315,10.28856 1.78775,25.51554 1.78775,25.51554" fill="#334865" stroke="#000000" stroke-width="2" stroke-linecap="round"/><path d="M313.96249,178.72268c2.32493,0.53024 -0.89081,16.43564 -3.56289,28.43434c-2.12818,-0.26812 -4.25311,-0.55603 -6.36552,-0.93324c-1.55539,-0.27775 -3.11355,-0.46412 -4.67962,-0.63646c0.37815,-1.35925 -0.24728,-1.74273 0.1914,-3.18818c3.37222,-11.11174 9.4541,-24.80824 14.41665,-23.67646z" fill="#334865" stroke="#000000" stroke-width="2" stroke-linecap="butt"/><path d="M307.53106,219.87115c-0.72753,4.23293 -3.21431,6.3953 -6.77937,5.78257c-3.56507,-0.61273 -4.87227,-4.65128 -4.14475,-8.88421c0.22353,-1.30057 1.17401,-5.57997 2.62148,-10.8307c1.58098,0.17348 3.15379,0.35988 4.72372,0.64022c2.10584,0.37605 4.22404,0.66368 6.34555,0.93129c-1.34147,6.00551 -2.52462,10.95272 -2.76664,12.36084z" fill="#ffffff" stroke="#000000" stroke-width="2" stroke-linecap="butt"/><path d="M317.02229,186.30195c0,1.12921 -1.77857,1.25408 -2.51048,2.70979c-1.80417,3.58837 -3.84742,8.66459 -5.35409,8.66459c-2.11789,0 0.195,-7.46166 0.195,-11.37439c0,-3.91272 2.23687,-7.47459 4.35476,-7.47459c0.43662,0 1.61092,-0.31471 1.96684,-0.04008c1.37052,1.05751 1.34798,4.40859 1.34798,7.51467z" fill="#334865" stroke="none" stroke-width="0" stroke-linecap="butt"/><path d="M326.09883,179.40324c0.58578,-0.08775 1.58355,0.019 2.73165,0.82067c1.62029,1.13137 4.4992,5.28519 4.74019,6.89762c0.41175,2.75494 1.99996,6.00788 0.58749,6.21949c-0.64801,0.09708 -0.73482,-2.66826 -1.80079,-4.28071c-0.58697,-0.88788 -1.96501,-1.69479 -2.52639,-2.52797c-0.64132,-0.95184 -1.84062,-0.86204 -1.95945,-1.65712c-0.41175,-2.75494 -3.18517,-5.26036 -1.7727,-5.47197z" data-paper-data="{&quot;index&quot;:null}" fill="#334865" stroke="none" stroke-width="0" stroke-linecap="butt"/><path d="M326.20099,230.58377l-7.72377,-0.33102" fill="none" stroke="#000000" stroke-width="2" stroke-linecap="round"/><path d="M328.58562,177.6856c0,0.78788 -0.41115,1.82496 -1.22398,2.80974c-0.92811,1.12448 -2.44288,2.14932 -5.56126,2.11015c-2.81373,-0.03534 -3.13628,-0.95102 -3.96732,-2.13634c-0.64567,-0.92093 -2.09093,-2.0457 -2.09093,-2.78355c0,-1.68751 2.87511,-3.05551 6.42174,-3.05551c3.54663,0 6.42175,1.368 6.42175,3.05551z" fill="#ffffff" stroke="#000000" stroke-width="2" stroke-linecap="butt"/><path d="M342.53326,154.57285c0.10467,1.8765 0.72983,4.44998 0.5831,6.15837c-1.07425,12.50745 -9.69713,17.29201 -20.0337,17.88694c-11.98052,0.68955 -22.51767,-7.38223 -23.28044,-21.05752c-0.76277,-13.67531 8.49458,-24.99319 20.4751,-25.68274c11.98052,-0.68955 21.49316,9.01964 22.25594,22.69495z" fill="#ffffff" stroke="#000000" stroke-width="2" stroke-linecap="butt"/><path d="M320.84593,157.18297c0,2.79954 -0.86452,5.06901 -1.93095,5.06901c-1.06642,0 -1.93093,-2.26947 -1.93093,-5.06901c0,-2.79954 0.86451,-5.06901 1.93093,-5.06901c1.06642,0 1.93095,2.26947 1.93095,5.06901z" fill="#000000" stroke="none" stroke-width="0" stroke-linecap="butt"/><path d="M334.98033,157.20272c0,2.30819 -0.71279,4.17934 -1.59205,4.17934c-0.87926,0 -1.59205,-1.87116 -1.59205,-4.17934c0,-2.30819 0.71279,-4.17935 1.59205,-4.17935c0.87926,0 1.59205,1.87116 1.59205,4.17935z" fill="#000000" stroke="none" stroke-width="0" stroke-linecap="butt"/><path d="M309.14994,164.69269l27.47456,1.76543" fill="none" stroke="#000000" stroke-width="2" stroke-linecap="round"/><path d="M308.81892,162.48588l-0.99305,3.86189" fill="none" stroke="#000000" stroke-width="2" stroke-linecap="round"/><path d="M311.13126,222.91638l3.16535,-9.61327" fill="none" stroke="#000000" stroke-width="2" stroke-linecap="round"/><path d="M331.39242,214.6414l1.64128,6.79962" fill="none" stroke="#000000" stroke-width="2" stroke-linecap="round"/><path d="M330.0322,179.4924c0,0 -1.23297,4.86641 -5.79289,5.39337c-4.10253,0.47411 -7.66472,-1.09846 -9.24532,-2.54116c-1.95625,-1.78556 -1.40826,-3.58465 -1.40826,-3.58465" fill="none" stroke="#000000" stroke-width="1.5" stroke-linecap="round"/><path d="M320.51056,192.47647l0.13317,-7.79043" fill="none" stroke="#000000" stroke-width="1.5" stroke-linecap="round"/><path d="M325.37124,184.61945l-0.06658,7.9236" fill="none" stroke="#000000" stroke-width="1.5" stroke-linecap="round"/><path d="M336.25927,227.59855l-30.06309,-1.51481" fill="none" stroke="#000000" stroke-width="2" stroke-linecap="round"/></g></g></svg>