<svg version="1.1" xmlns="http://www.w3.org/2000/svg" xmlns:xlink="http://www.w3.org/1999/xlink" width="128.16772" height="79.6927" viewBox="0,0,128.16772,79.6927"><g transform="translate(-350.30515,-151.74864)"><g data-paper-data="{&quot;isPaintingLayer&quot;:true}" fill-rule="nonzero" stroke-linejoin="miter" stroke-miterlimit="10" stroke-dasharray="" stroke-dashoffset="0" style="mix-blend-mode: normal"><g data-paper-data="{&quot;index&quot;:null}" stroke="#000000" stroke-width="2" stroke-linecap="butt"><path d="M432.39032,185.37159c-0.17643,0.01649 -0.35289,0.03535 -0.52942,0.05695c-2.4429,0.29884 -4.83841,0.53872 -7.29006,0.64624c-1.05878,0.04644 -2.11404,0.07017 -3.16157,0.12347c-0.8205,-10.77742 -1.91562,-19.49386 4.0333,-19.9238c6.52632,-0.38283 6.15953,8.24543 6.94775,19.09713z" data-paper-data="{&quot;index&quot;:null}" fill="#ffe4cb"/><path d="M433.06877,199.15819c-0.29305,3.88534 -3.8335,3.08329 -5.46683,3.2966c-2.89565,-0.91443 -3.6132,-0.61809 -5.6207,-9.73529c-1.66063,-7.54184 -3.64815,-21.45317 -3.65314,-21.48469c1.09793,-0.09982 11.55937,-0.51184 12.66836,-0.60703c2.60066,-0.22323 2.35137,24.83033 2.0723,28.5304z" data-paper-data="{&quot;index&quot;:null}" fill="#161617"/></g><path d="M454.49159,152.59815c2.22168,0.10632 5.68297,0.44833 8.60781,1.98577c4.07737,2.14329 7.59811,5.87523 9.57162,8.01968c6.02493,6.54674 6.51422,17.64166 2.24902,26.5744c-1.75107,3.66733 -6.2937,9.84208 -9.149,12.48097c-5.95395,5.50269 -12.9664,5.04904 -20.41282,4.26196c-1.88534,-0.19927 -1.23165,3.96684 -3.43333,4.07917c-3.43036,0.17504 -8.9216,-5.68077 -10.95626,-7.89166c-1.44071,-1.5655 -4.0317,-4.98299 -4.4362,-7.47268c-0.39725,-2.44515 1.38173,-3.95785 1.10563,-6.02805c-1.10106,-8.25588 1.59725,-17.86168 8.11095,-23.88168c5.89783,-5.45081 10.72436,-12.51162 18.7426,-12.12786z" data-paper-data="{&quot;index&quot;:null}" fill="#161617" stroke="#000000" stroke-width="1.5" stroke-linecap="butt"/><path d="M364.23111,188.22073c1.49881,1.35667 3.06649,3.06355 4.19926,3.93197c-0.41694,1.67146 -0.81445,3.34595 -1.14122,5.04079c-0.30703,1.5924 -0.6074,3.18455 -0.89559,4.77926c-4.23322,-0.59816 -7.26321,-1.14085 -7.48541,-1.48849c-0.06867,-0.10742 -1.94878,-0.67877 -1.69228,-3.76769c0.1474,-1.77496 0.69496,-7.01717 1.28097,-9.09365c0.76444,-2.70878 1.58737,-2.09098 1.60238,-2.33231c0.01667,-0.26809 2.00112,1.00136 4.13192,2.9301z" data-paper-data="{&quot;index&quot;:null}" fill="#ffffff" stroke="#000000" stroke-width="2" stroke-linecap="butt"/><path d="M357.34812,215.42705c1.8874,1.06197 2.64963,2.14038 4.4604,2.0532c0.01069,0.14548 0.02148,0.29098 0.03243,0.43647c0.19808,2.63342 0.39158,5.26709 0.58165,7.9011c0.0612,0.84822 0.13148,1.69548 0.20691,2.54222c-4.81565,0.52153 -8.40176,0.7733 -8.73068,0.41971c-0.09374,-0.10077 -2.05986,-0.24272 -2.59368,-3.72006c-0.30672,-1.99815 -1.10395,-7.92877 -1.06213,-10.37391c0.05453,-3.18969 3.91661,-1.05276 7.10513,0.74127z" data-paper-data="{&quot;index&quot;:null}" fill="#ffffff" stroke="#000000" stroke-width="2" stroke-linecap="butt"/><path d="M367.52747,189.36682c0.06139,0.02928 0.70227,-0.47851 2.64895,0.28878c1.03197,0.40675 2.82098,1.87306 4.22849,2.42765c10.49412,4.13513 29.94015,11.80672 36.18219,14.46529c11.0045,4.68697 5.40934,17.02098 5.40934,17.02098c0,0 -33.86497,-14.12696 -48.00557,-18.32117c-3.28275,-0.97371 -5.44752,-2.1035 -5.66824,-2.20875c-1.14222,-0.54478 -0.25595,-4.78606 1.97955,-9.4732c2.2355,-4.68712 2.08304,-4.74439 3.22526,-4.19962z" data-paper-data="{&quot;index&quot;:null}" fill="#282833" stroke="#000000" stroke-width="1.5" stroke-linecap="butt"/><path d="M358.4233,214.43582c0.06796,-0.00279 0.39234,-0.87726 2.471,-1.13298c1.10192,-0.13556 3.37255,0.42054 4.87539,0.23549c11.20502,-1.37961 31.97268,-3.92671 38.73178,-4.54054c6.14827,-0.55837 9.36604,3.38997 11.04055,7.34305c-0.10477,0.10687 -0.20797,0.21057 -0.30955,0.3095c-1.53235,1.49237 -4.623,4.03147 -7.63764,7.11762c-1.58804,0.26033 -3.01263,0.23189 -4.48912,1.10477c-0.32192,0.19031 -0.62831,0.36721 -0.92335,0.53712c-11.78358,1.36466 -27.49026,3.38103 -35.83265,5.28149c-3.35373,0.764 -5.79617,0.7609 -6.04048,0.77089c-1.26442,0.05174 -2.49118,-4.83584 -2.74005,-10.91676c-0.24887,-6.08092 -0.41031,-6.05796 0.85412,-6.10971z" data-paper-data="{&quot;index&quot;:null}" fill="#282833" stroke="#000000" stroke-width="1.5" stroke-linecap="butt"/><path d="M437.9687,213.71947c-7.45783,3.89514 -29.17225,10.46681 -36.95623,12.76644c-0.64341,-2.10201 -1.17468,-4.25161 -1.79896,-6.35415c-1.01334,-3.41276 -2.02665,-6.82553 -3.04001,-10.23828c-1.01165,-3.40713 -2.3002,-6.74908 -3.46752,-10.10069c-0.30165,-0.86603 -0.60324,-1.73209 -0.9049,-2.59814c8.38767,-1.67076 33.88827,-6.57916 42.60446,-6.29444c7.83874,0.25604 12.03867,8.71454 12.03867,8.71454c0,0 3.6495,7.77193 -8.47554,14.10471z" data-paper-data="{&quot;index&quot;:null}" fill="#161617" stroke="#000000" stroke-width="2" stroke-linecap="butt"/><path d="M412.20415,206.54575l-9.16028,5.82826" data-paper-data="{&quot;index&quot;:null}" fill="none" stroke="#000000" stroke-width="2" stroke-linecap="round"/><path d="M406.87533,196.36342l-7.50323,0.08791" data-paper-data="{&quot;index&quot;:null}" fill="none" stroke="#000000" stroke-width="2" stroke-linecap="round"/><path d="M440.58542,194.1071c3.26659,3.13076 4.26164,7.39349 2.22253,9.52108c-2.03911,2.12759 -6.34023,1.31433 -9.60681,-1.81642c-3.2666,-3.13076 -4.16118,-6.25201 -2.12206,-8.3796c2.03911,-2.12759 6.23977,-2.45582 9.50636,0.67495z" data-paper-data="{&quot;index&quot;:null}" fill="#161617" stroke="none" stroke-width="0" stroke-linecap="butt"/><path d="M432.75513,193.15771c1.38001,-1.43987 4.4848,-0.70363 6.93472,1.64444c2.44995,2.34807 3.3173,5.41881 1.9373,6.85869c-1.38001,1.43986 -4.95174,0.25612 -7.40167,-2.09197c-2.44994,-2.34807 -2.85035,-4.97127 -1.47034,-6.41114z" data-paper-data="{&quot;index&quot;:null}" fill="#ffffff" stroke="#000000" stroke-width="1.5" stroke-linecap="butt"/><path d="M434.44147,165.09017c8.5539,-9.70935 22.91418,-11.03809 32.07461,-2.96782c9.16042,8.07026 9.6521,22.48349 1.0982,32.19287c-8.55389,9.70937 -22.91417,11.03813 -32.07459,2.96785c-9.16042,-8.07027 -9.65211,-22.48352 -1.09821,-32.19289z" data-paper-data="{&quot;index&quot;:null}" fill="#ffe4cb" stroke="#000000" stroke-width="2" stroke-linecap="butt"/><path d="M440.39993,205.02216c2.58742,-2.69966 3.74779,-1.80266 4.37459,-1.20192c0.62682,0.60075 -0.96258,3.27627 -3.54999,5.97593c-2.58741,2.69966 -6.15242,4.31162 -6.77923,3.71087c-0.62683,-0.60076 3.36721,-5.78524 5.95462,-8.4849z" data-paper-data="{&quot;index&quot;:null}" fill="#161617" stroke="none" stroke-width="0" stroke-linecap="butt"/><path d="M420.38358,196.68304c0.19549,-0.12468 0.93665,-0.69731 2.05252,-1.12178c1.41313,-0.53756 3.31755,-0.94251 4.26519,-1.05914c2.11475,-0.26023 1.78404,1.0119 1.93947,1.25565c0.28012,0.43923 -4.20807,1.57083 -5.20363,2.2057c-0.99556,0.63489 -5.30984,1.30788 -5.58993,0.86866c-0.28011,-0.43921 1.54083,-1.51419 2.53638,-2.14907z" data-paper-data="{&quot;index&quot;:null}" fill="#161617" stroke="none" stroke-width="0" stroke-linecap="butt"/><path d="M465.41174,161.84996c1.5793,1.50372 6.04001,6.26746 7.76185,10.92934c0.59895,1.62163 2.12814,9.34568 -0.19881,14.79876c-1.90182,4.45675 -7.69488,6.95915 -7.74278,7.00947c-0.04888,0.05133 -1.50674,1.70503 -1.21453,0.43797c0.61378,-2.66153 3.25005,-10.02536 2.88743,-14.75247c-0.43613,-5.68536 -3.63769,-10.95292 -4.79499,-12.05484c-2.57763,-2.45428 -11.91252,-11.17519 -11.63746,-11.46404c0.27505,-0.28888 12.36171,2.64155 14.93934,5.09582z" data-paper-data="{&quot;index&quot;:null}" fill="#161617" stroke="none" stroke-width="0" stroke-linecap="butt"/><path d="M457.23263,198.88304c8.08447,-4.18176 15.19849,-12.39946 15.91223,-11.71988c1.31103,1.24828 -2.85029,6.61903 -6.4259,10.37437c-3.57563,3.75534 -16.81636,8.76591 -18.12741,7.51761c-1.31103,-1.24828 -12.61243,0.59749 -9.0368,-3.15787c1.62902,-1.7109 10.91239,0.48526 17.67788,-3.01425z" data-paper-data="{&quot;index&quot;:null}" fill="#161617" stroke="none" stroke-width="0" stroke-linecap="butt"/><path d="M473.48497,169.99988c0.76881,1.66551 1.67439,3.37836 2.11542,5.16073c0.47269,1.91042 -0.14799,4.77119 -0.82758,7.23439l0.03979,1.95371c0.00527,0.25457 -0.0861,0.51124 -0.27557,0.71023c-0.08527,0.08956 -0.18317,0.15984 -0.28829,0.21071c-0.0755,0.29691 -0.29562,0.71274 -0.93599,0.72845c-0.9997,0.02451 -1.02421,-0.97518 -1.02421,-0.97518c-0.05802,-2.62888 -0.87044,-5.09522 -1.05112,-7.6911l-0.1016,-0.99964c-0.03038,-0.28222 0.05892,-0.57546 0.26998,-0.79714c0.38082,-0.39999 1.01381,-0.41549 1.41378,-0.03467c0.17113,0.16292 0.27187,0.37201 0.30133,0.58927l0.28254,1.94934l-0.09615,0.01392c0.00449,0.04014 0.00907,0.08027 0.0138,0.12038c0.02517,0.0664 0.05004,0.13283 0.07457,0.19933c0.16486,-0.59563 0.30671,-1.21011 0.33636,-1.84838c0.04082,-0.87839 -0.22877,-1.79402 -0.60648,-2.69149c-0.12752,-0.0456 -0.24779,-0.11801 -0.35218,-0.21741l-0.96563,-0.91943l0.04708,-0.04946l-0.15853,-0.0761c-0.2303,-0.44694 -0.36683,-0.92927 -0.44268,-1.42943c-0.01295,-0.00954 -0.0259,-0.01914 -0.03884,-0.02877l-0.21286,0.0376l-0.04116,-0.23293c-1.59335,-1.26389 -3.015,-3.12575 -3.53658,-4.7885l-0.52089,-0.91304c-0.08723,-0.14503 -0.13458,-0.30772 -0.14162,-0.47203c-0.52105,-0.18114 -1.03946,-0.3755 -1.49535,-0.73227c-0.01906,-0.0149 -0.038,-0.03015 -0.05686,-0.04573c-0.40251,0.03594 -0.83418,-0.0023 -1.19906,-0.04428c-0.43704,-0.05029 -0.58968,-0.68236 -0.98166,-0.88211c-0.8697,-0.44321 -3.08747,-0.57344 -4.01613,-0.8049c-0.58308,-0.27733 -1.68665,-0.92166 -2.59205,-1.74446c-0.36639,0.31324 -0.90889,0.3201 -1.28336,0.01212l-0.98784,-0.79516c-1.81071,-1.03465 -3.28338,-1.96372 -4.92598,-3.3018c0,0 -0.77497,-0.63199 -0.143,-1.40696c0.51193,-0.62773 1.11763,-0.33235 1.32932,-0.19745l-0.15766,-0.17734c-0.34909,-0.38443 -0.34694,-0.97905 0.01682,-1.3611c0.31817,-0.33415 0.81233,-0.39998 1.19956,-0.19052l1.76063,0.90062l-0.15358,0.30025c1.26554,0.55997 2.41829,1.26629 3.53865,2.02325c0.30288,-0.08727 0.61186,-0.1618 0.88908,-0.25691c0.50727,-0.17405 1.05951,-0.2493 1.59464,-0.21369c4.49055,0.29886 7.93679,3.72605 10.38328,7.0074c0.56598,0.75913 1.93495,2.06827 2.64622,3.26506c0.67874,0.63616 1.34697,1.2829 2.00159,1.90485l0.32188,0.30647c0,0 0.72422,0.68957 0.03467,1.41378c-0.36011,0.37819 -0.72965,0.37085 -1.00058,0.27749zM466.54155,162.61182c0.12523,0.09436 0.25673,0.17643 0.39286,0.24966c-0.13604,-0.16469 -0.27357,-0.32788 -0.41289,-0.48938c0.0123,0.08004 0.01913,0.15999 0.02003,0.23971z" data-paper-data="{&quot;index&quot;:null}" fill="#161617" stroke="none" stroke-width="0.5" stroke-linecap="butt"/><path d="M449.97053,157.1201c0,0 4.18933,2.9247 9.07396,7.7047c5.67598,5.55442 9.61963,13.97788 8.80466,17.4292c-0.81875,3.46733 -0.60764,11.69105 -10.74011,17.73349c-7.56926,4.51389 -14.6503,0.14888 -14.6503,0.14888" data-paper-data="{&quot;index&quot;:null}" fill="none" stroke="#000000" stroke-width="1.5" stroke-linecap="round"/><path d="M459.04553,171.72519c0.03303,-0.58171 -5.13259,-0.25535 -9.3011,-2.48791c-4.82771,-2.58562 -8.75332,-7.76128 -8.66635,-8.31109c0.03645,-0.23048 8.86518,-3.71506 12.48173,-2.49737c5.31521,1.78962 6.08257,8.55753 6.14316,8.28869c1.44071,2.01533 3.87034,4.64195 5.00321,5.73708c1.53014,1.47916 2.65593,7.34638 2.85552,9.26077c0.11742,1.12627 -0.40951,2.80119 -0.80361,4.39026c-1.18881,0.20481 -2.27483,0.00901 -2.27483,0.00901c0,0 -0.1312,-2.8175 -0.85463,-6.52521c-0.11718,-0.60062 -0.24993,-1.22462 -0.40015,-1.86377c-0.05464,-0.23248 -3.63602,1.42341 -3.6934,1.18791c-0.53686,-2.20375 -0.62425,-4.81624 -0.48953,-7.18839z" data-paper-data="{&quot;index&quot;:null}" fill="#3c352f" stroke="#000000" stroke-width="1.5" stroke-linecap="butt"/><path d="M429.37299,200.84633c1.94377,1.89184 2.00106,5.02635 0.12797,7.0011c-1.87308,1.97476 -4.96726,2.04196 -6.91103,0.15012c-1.94377,-1.89184 -2.00106,-5.02635 -0.12797,-7.0011c1.87308,-1.97476 4.96726,-2.04196 6.91103,-0.15012z" data-paper-data="{&quot;index&quot;:null}" fill="#343434" stroke="none" stroke-width="0" stroke-linecap="butt"/><path d="M388.67556,223.28515l7.0082,-5.24962" data-paper-data="{&quot;index&quot;:null}" fill="none" stroke="#000000" stroke-width="1.5" stroke-linecap="round"/><path d="M392.58265,201.51129l-4.98669,-1.28984" data-paper-data="{&quot;index&quot;:null}" fill="none" stroke="#000000" stroke-width="1.5" stroke-linecap="round"/><path d="M438.00138,179.7743l-2.99733,-3.54772" data-paper-data="{&quot;index&quot;:null}" fill="none" stroke="#000000" stroke-width="2" stroke-linecap="round"/><path d="M445.94236,187.30554l4.6068,2.93321" data-paper-data="{&quot;index&quot;:null}" fill="none" stroke="#000000" stroke-width="2" stroke-linecap="round"/><path d="M432.38804,181.25274c0,0 4.71807,3.27268 6.88254,5.36874c2.36887,2.29403 6.77285,7.85512 6.77285,7.85512" fill="none" stroke="#000000" stroke-width="2" stroke-linecap="round"/><g data-paper-data="{&quot;index&quot;:null}" stroke="#000000" stroke-width="2" stroke-linecap="butt"><path d="M437.2289,195.439c-0.15402,0.08762 -0.30709,0.1774 -0.45911,0.26971c-2.10365,1.2774 -4.18837,2.48154 -6.37869,3.58816c-0.94593,0.47791 -1.89799,0.93366 -2.83084,1.4132c-5.18167,-9.48557 -9.76576,-16.9797 -4.52046,-19.81894c5.79096,-3.03385 9.00629,4.98131 14.18911,14.54788z" data-paper-data="{&quot;index&quot;:null}" fill="#ffe4cb"/><path d="M443.51906,207.72577c1.33132,3.66188 -2.2256,4.38738 -3.62655,5.25375c-3.01545,0.35778 -3.54754,0.92309 -9.12809,-6.56093c-4.61629,-6.19087 -12.15093,-18.05277 -12.16845,-18.07944c0.95964,-0.54267 10.32527,-5.22203 11.29691,-5.76503c2.27855,-1.27337 12.35834,21.66439 13.62618,25.15165z" data-paper-data="{&quot;index&quot;:null}" fill="#161617"/></g></g></g></svg>