<svg version="1.1" xmlns="http://www.w3.org/2000/svg" xmlns:xlink="http://www.w3.org/1999/xlink" width="55.87771" height="135.01208" viewBox="0,0,55.87771,135.01208"><defs><radialGradient cx="334.41947" cy="157.55057" r="26.05961" gradientUnits="userSpaceOnUse" id="color-1"><stop offset="0" stop-color="#afb0e0" stop-opacity="0"/><stop offset="1" stop-color="#afb0e0" stop-opacity="0.31373"/></radialGradient></defs><g transform="translate(-298.22236,-135.41887)"><g data-paper-data="{&quot;isPaintingLayer&quot;:true}" fill-rule="nonzero" stroke-linejoin="miter" stroke-miterlimit="10" stroke-dasharray="" stroke-dashoffset="0" style="mix-blend-mode: normal"><path d="M307.58562,236.13523c-0.26464,-10.87158 7.76327,-6.89353 14.24749,-7.52838c0.29674,-0.02906 2.08333,6.58542 2.35026,15.10688c1.01398,7.2781 -5.14392,22.30579 -5.13489,22.31276c-0.15551,0.02211 -13.33288,-1.855 -15.33398,-1.43902c-0.10762,-0.59498 3.11413,-8.93281 4.29839,-16.97068c0.64427,-4.37281 -0.36468,-8.91009 -0.42727,-11.48157z" fill="#a68f79" stroke="#000000" stroke-width="2" stroke-linecap="butt"/><path d="M313.18108,220.583c0.90712,4.77456 -0.5369,8.09067 -3.97813,8.92151c-3.44124,0.83085 -6.11148,-2.89457 -7.01861,-7.66911c-0.27871,-1.46698 -1.00194,-6.38309 -1.63568,-12.53165c1.48978,-0.47226 2.97698,-0.92749 4.49626,-1.28224c2.03791,-0.47585 4.05432,-1.05026 6.0663,-1.6472c1.00806,6.90218 1.76809,12.62042 2.06986,14.20872z" fill="#ffffff" stroke="#000000" stroke-width="2" stroke-linecap="butt"/><path d="M330.85767,185.67658c-0.03644,3.43154 -5.1667,6.16096 -11.45878,6.09633c-6.29208,-0.06462 -11.36326,-2.89883 -11.32682,-6.33036c0.03644,-3.43154 1.63557,-5.2804 7.92764,-5.21578c6.29208,0.06462 14.8944,2.01826 14.85796,5.4498z" fill="#334865" stroke="#000000" stroke-width="2" stroke-linecap="butt"/><path d="M337.23477,224.44575c-1.27644,3.78384 -4.97115,5.97739 -8.25236,4.89944c-3.28121,-1.07795 -4.90638,-5.0192 -3.62992,-8.80303c0.36467,-1.08102 1.44482,-4.47623 2.87965,-8.75402c1.95315,0.06745 3.90796,0.1671 5.8246,0.43418c2.00416,0.27929 4.03337,0.17561 6.02568,0.48274c0.0818,0.01261 0.16481,0.03186 0.24838,0.05506c-1.29887,5.70522 -2.66082,10.39551 -3.09604,11.68561z" data-paper-data="{&quot;index&quot;:null}" fill="#ffffff" stroke="#000000" stroke-width="2" stroke-linecap="butt"/><path d="M330.24458,185.72361c4.18709,-0.42333 8.26241,11.98764 10.12797,21.66626c0.45434,2.35712 -0.30322,1.74755 0.02815,3.99552c-0.11652,0.00446 -0.21609,0.01148 -0.28359,0.02628c-1.97491,0.43318 -3.83329,1.27525 -5.80855,1.73952c-1.85913,0.43696 -3.69361,1.04266 -5.51508,1.68054c-0.5364,-11.61522 -0.97461,-28.86286 1.45109,-29.10811z" data-paper-data="{&quot;index&quot;:null}" fill="#334865" stroke="#000000" stroke-width="2" stroke-linecap="butt"/><path d="M325.7705,234.50777c-1.02384,-9.98463 5.2827,-6.95834 10.08422,-8.05539c0.21974,-0.05021 2.05848,6.4415 4.02999,13.7176c1.79323,6.61813 -1.27724,20.93572 -1.26996,20.94141c-0.11463,0.03264 -12.11301,-0.65283 -13.57809,-0.11175c-0.12569,-0.53907 1.65054,-8.4675 1.92566,-15.95873c0.14967,-4.07543 -0.94965,-8.17146 -1.19182,-10.53316z" fill="#a68f79" stroke="#000000" stroke-width="2" stroke-linecap="butt"/><path d="M342.88924,265.35706c0.09305,1.104 -16.81621,1.64978 -16.90927,0.54579c-0.01401,-0.16624 -0.26422,-2.37252 -0.59894,-5.67901c1.74577,-0.3763 4.18897,-0.35991 5.43546,-0.7361c2.73726,-0.82944 5.97636,-1.01989 8.88536,-1.42194c0.45126,0.46026 1.14855,1.22596 1.64968,2.02877c1.09254,1.75029 1.484,4.62524 1.53771,5.26246z" fill="#ffffff" stroke="#000000" stroke-width="2" stroke-linecap="butt"/><path d="M323.72916,268.85593c-0.02296,1.19838 -20.32772,0.33428 -20.30476,-0.86409c0.00221,-0.1152 0.03073,-1.22015 0.08714,-3.01545c1.79293,-0.61221 3.78894,-1.56779 5.00962,-2.13974c2.48969,-0.84717 5.05759,-2.21184 7.59605,-2.21184c1.36654,0 2.83296,0 4.21431,0c-0.00285,0.22507 -0.00443,0.34443 -0.00443,0.34443c0,0 1.32491,1.4277 2.07648,2.89943c1.02607,2.00923 1.33884,4.29555 1.32559,4.98727z" fill="#ffffff" stroke="#000000" stroke-width="2" stroke-linecap="butt"/><path d="M317.40126,235.36844v-4.24007h14.09936v4.24007z" fill="#a68f79" stroke="none" stroke-width="0" stroke-linecap="butt"/><path d="M307.54492,232.14114c0,0 0.00634,-17.32185 1.37774,-27.98598c1.54943,-12.04866 5.10815,-22.4459 14.25424,-22.61946c11.49861,-0.2182 12.34035,14.30111 13.74898,27.56698c1.07564,10.13001 1.52119,25.11058 1.52119,25.11058" fill="#334865" stroke="#000000" stroke-width="2" stroke-linecap="round"/><path d="M317.17384,185.53745c2.24937,0.77861 -2.7578,15.95874 -6.77969,27.38272c-2.08376,-0.50045 -4.16205,-1.01988 -6.21772,-1.62516c-1.51361,-0.44568 -3.04038,-0.80239 -4.57662,-1.14627c0.53057,-1.28569 -0.04709,-1.73046 0.55343,-3.09359c4.61641,-10.47892 12.21935,-23.17963 17.02061,-21.5177z" fill="#334865" stroke="#000000" stroke-width="2" stroke-linecap="butt"/><path d="M319.32561,192.42535c-0.01179,1.11048 -1.79157,1.21501 -2.53864,2.63905c-1.84155,3.5103 -3.93769,8.48133 -5.44428,8.46585c-2.11777,-0.02175 0.27291,-7.33587 0.31377,-11.18368c0.04086,-3.84781 2.31481,-7.32761 4.43258,-7.30586c0.4366,0.00448 1.61412,-0.29294 1.96715,-0.01922c1.3594,1.05404 1.30187,4.3493 1.26943,7.40384z" fill="#334865" stroke="none" stroke-width="0" stroke-linecap="butt"/><path d="M328.4737,185.73431c0.58666,-0.08028 1.58327,0.03495 2.72293,0.83511c1.60839,1.12924 4.44376,5.24372 4.6679,6.83187c0.38296,2.71346 1.93711,5.92875 0.52251,6.12234c-0.64899,0.08882 -0.70692,-2.63154 -1.75599,-4.22818c-0.57767,-0.87918 -1.9472,-1.68686 -2.49985,-2.51198c-0.63134,-0.94264 -1.83152,-0.86664 -1.94204,-1.64975c-0.38296,-2.71346 -3.13006,-5.2058 -1.71546,-5.39939z" data-paper-data="{&quot;index&quot;:null}" fill="#334865" stroke="none" stroke-width="0" stroke-linecap="butt"/><path d="M321.91056,236.01465l7.72377,0.32555" fill="none" stroke="#000000" stroke-width="2" stroke-linecap="round"/><path d="M330.97829,184.07071c-0.00823,0.77481 -0.43019,1.79046 -1.25326,2.75055c-0.9398,1.0963 -2.46519,2.08857 -5.58299,2.01803c-2.81321,-0.06365 -3.12618,-0.96745 -3.94479,-2.14164c-0.63602,-0.91228 -2.06945,-2.03323 -2.06175,-2.75884c0.01762,-1.65952 2.90686,-2.97529 6.4533,-2.93886c3.54644,0.03643 6.40711,1.41126 6.38949,3.07077z" fill="#ffffff" stroke="#000000" stroke-width="2" stroke-linecap="butt"/><path d="M316.31811,218.95055l-3.26557,9.42127" fill="none" stroke="#000000" stroke-width="2" stroke-linecap="round"/><path d="M333.39901,220.44222l1.57018,6.70367" fill="none" stroke="#000000" stroke-width="2" stroke-linecap="round"/><path d="M332.40593,185.86239c0,0 -1.28372,4.77301 -5.8489,5.2444c-4.10726,0.42411 -7.65283,-1.15895 -9.21828,-2.59395c-1.9375,-1.77603 -1.37075,-3.53964 -1.37075,-3.53964" fill="none" stroke="#000000" stroke-width="1.5" stroke-linecap="round"/><path d="M322.96373,190.87345l0.66048,7.40981" fill="none" stroke="#000000" stroke-width="1.5" stroke-linecap="round"/><path d="M328.29236,198.89797l-0.60068,-8.04146" fill="none" stroke="#000000" stroke-width="1.5" stroke-linecap="round"/><path d="M338.02594,233.07651l-30.06309,-1.48976" fill="none" stroke="#000000" stroke-width="2" stroke-linecap="round"/><path d="M349.63721,165.23203c-0.11106,1.87613 0.21505,4.5043 -0.1265,6.18462c-2.50055,12.30192 -11.61495,16.06677 -21.95159,15.47319c-11.98061,-0.68798 -21.5233,-9.91417 -20.71382,-23.58677c0.80948,-13.67262 11.30288,-23.85502 23.28348,-23.16703c11.98061,0.68798 20.31788,11.42338 19.50842,25.09601z" fill="#ffffff" stroke="#000000" stroke-width="2" stroke-linecap="butt"/><path d="M329.54863,167.2957c-0.32083,2.7811 -1.43974,4.93654 -2.49914,4.81433c-1.0594,-0.12222 -1.65812,-2.47581 -1.33729,-5.25691c0.32083,-2.7811 1.43973,-4.93653 2.49912,-4.81433c1.0594,0.12222 1.65814,2.47581 1.33731,5.2569z" fill="#000000" stroke="none" stroke-width="0" stroke-linecap="butt"/><path d="M343.39941,168.88198c-0.26452,2.29298 -1.18707,4.07012 -2.06052,3.96936c-0.87346,-0.10077 -1.36713,-2.04129 -1.1026,-4.33426c0.26452,-2.29298 1.18707,-4.07012 2.06052,-3.96936c0.87346,0.10077 1.36713,2.04128 1.1026,4.33426z" fill="#000000" stroke="none" stroke-width="0" stroke-linecap="butt"/><path d="M340.67824,176.79903c0,0 -3.33039,-0.35348 -5.08155,-0.67038c-1.71282,-0.30995 -5.31295,-1.21062 -5.31295,-1.21062c0,0 -4.28666,-0.05096 -7.0197,-0.54553c-2.82921,-0.51198 -9.67703,-2.47591 -9.67703,-2.47591" fill="none" stroke="#000000" stroke-width="2" stroke-linecap="round"/><path d="M320.983,154.79853l7.26672,1.1524" fill="none" stroke="#000000" stroke-width="2" stroke-linecap="round"/><g stroke-linecap="butt"><path d="M352.733,167.1525c-1.49897,9.03553 -7.32409,15.94057 -14.92327,19.15113c-0.78967,0.33362 0.23875,-0.14568 1.36359,0.60885c1.78537,1.19761 1.65094,2.2396 -1.95826,2.35068c-3.89193,0.11979 -9.88801,-0.39632 -15.66762,-1.4779c-3.82465,-0.71573 -8.2992,-2.07263 -9.3336,-2.24424c-2.4128,-0.40027 -4.59135,-2.41895 -2.58703,-3.28401c1.48313,-0.64012 1.30894,-0.53685 0.80471,-1.03408c-5.61838,-5.54048 -8.45071,-13.7534 -7.00206,-22.48562c2.345,-14.13521 15.01959,-24.27847 28.76874,-21.99752c13.74915,2.28095 22.87981,16.27751 20.53481,30.41274z" fill="url(#color-1)" stroke="#111111" stroke-width="2"/><path d="M346.82422,151.95177c0.14535,2.63896 -2.06516,3.66297 -4.31044,2.22606c-0.41247,-0.26397 -1.31861,-2.70352 -1.77804,-3.14195c-1.33486,-1.27386 -3.81553,-1.55324 -4.45646,-3.2835c-0.65574,-0.54961 -1.01213,-1.4218 -0.86196,-2.32699c0.22597,-1.3621 1.51335,-2.28311 2.87544,-2.05714c0.51628,0.08565 0.96919,0.32379 1.32029,0.66069c3.40311,0.69807 7.02599,4.56107 7.21114,7.92283z" fill="#ffffff" stroke="none" stroke-width="0.5"/></g></g></g></svg>