<svg version="1.1" xmlns="http://www.w3.org/2000/svg" xmlns:xlink="http://www.w3.org/1999/xlink" width="345.98545" height="81.4623" viewBox="0,0,345.98545,81.4623"><defs><linearGradient x1="514.77002" y1="139.11148" x2="858.25547" y2="139.11148" gradientUnits="userSpaceOnUse" id="color-1"><stop offset="0" stop-color="#c4f3ff"/><stop offset="1" stop-color="#c4ffc4"/></linearGradient></defs><g transform="translate(-513.52002,-97.90869)"><g data-paper-data="{&quot;isPaintingLayer&quot;:true}" fill-rule="nonzero" stroke-linejoin="miter" stroke-miterlimit="10" stroke-dasharray="" stroke-dashoffset="0" style="mix-blend-mode: normal"><path d="M850.51837,116.96284c-0.00032,4.58578 15.47277,38.89162 2.65691,52.8543c-3.3222,3.61948 -37.00799,4.55437 -39.73055,4.80681c-26.23008,2.43206 -120.84538,5.19966 -200.68096,2.16378c-31.51744,-1.19851 -66.02437,3.27558 -85.60715,-1.95185c-20.76333,-5.54257 -9.14785,-63.67712 -9.14771,-65.82557c0.00064,-9.3074 75.75166,-8.90806 167.10349,-8.9052c91.35182,0.00287 164.55898,4.19564 164.55832,13.50303z" data-paper-data="{&quot;index&quot;:null}" fill="url(#color-1)" stroke-opacity="0.44706" stroke="#000000" stroke-width="2.5" stroke-linecap="butt"/><path d="M858,147.16667c0,0.26389 1.81156,21.42275 -8.82553,22.63443c-59.85941,6.81861 -268.5984,5.53224 -300.17447,5.53224c-15.67936,0 -21.0997,-0.54829 -25.20934,-4.39823c-5.63731,-5.28107 -6.45732,-14.4236 -6.45732,-15.4351c0,-1.7489 30.14616,-3.16667 67.33333,-3.16667c37.18717,0 273.33333,-6.91557 273.33333,-5.16667z" fill="#639f3e" stroke="none" stroke-width="0" stroke-linecap="butt"/><path d="M851.84439,112.56559c-5.49258,17.51687 8.26014,51.40916 -22.18263,60.81206c-4.97026,1.53517 -229.22658,4.38202 -229.3252,4.3511c-0.70265,-0.22032 -2.56484,-77.01115 -1.86219,-76.79083c0.70265,0.22032 259.75935,-8.7491 253.37002,11.62768z" fill="#505050" stroke="#000000" stroke-width="2.5" stroke-linecap="butt"/><path d="M556.56279,137.36416c0.98724,1.79868 -4.9062,8.69166 -12.95318,13.10839c-8.04699,4.41675 -15.20031,4.68473 -16.18758,2.88604c-0.98724,-1.79868 4.73585,-6.83726 12.78283,-11.25401c8.04699,-4.41675 15.37069,-6.53912 16.35792,-4.74044z" fill="#ff2e2e" stroke="#000000" stroke-width="1.5" stroke-linecap="butt"/><path d="M587.73906,130.0578c1.01171,2.21256 1.28652,4.35464 1.90983,6.4852c4.56341,15.59808 -2.08933,26.16845 -14.52717,31.84834c-14.416,6.58322 -31.17858,1.90846 -38.55171,-14.21594c-7.37314,-16.12442 -1.30858,-34.21666 13.10742,-40.7999c14.416,-6.58322 30.6885,0.55787 38.06165,16.6823z" fill="#ffffff" stroke="#000000" stroke-width="2" stroke-linecap="butt"/><path d="M579.03111,147.0306c-1.53341,0.11579 -2.96754,-2.32036 -3.20321,-5.44135c-0.23566,-3.12098 0.81635,-5.74489 2.34976,-5.86067c1.53341,-0.11579 2.96752,2.32039 3.2032,5.44137c0.23566,3.12098 -0.81636,5.74487 -2.34974,5.86065z" data-paper-data="{&quot;index&quot;:null}" fill="#000000" stroke="none" stroke-width="0.5" stroke-linecap="butt"/><path d="M557.46457,153.6733c-1.44093,0.17166 -2.9364,-2.43769 -3.34031,-5.82809c-0.40392,-3.39041 0.43674,-6.27802 1.87767,-6.44968c1.44093,-0.17166 2.9364,2.43767 3.34033,5.82806c0.40392,3.39041 -0.43675,6.27805 -1.87766,6.44969z" data-paper-data="{&quot;index&quot;:null}" fill="#000000" stroke="none" stroke-width="0.5" stroke-linecap="butt"/><path d="M554.71388,105.88581c0.89134,1.8745 -1.64859,4.97259 -5.67314,6.91975c-4.02451,1.9472 -8.00962,2.0061 -8.90095,0.13162c-0.89134,-1.8745 1.64859,-4.9726 5.67314,-6.91975c4.02451,-1.9472 8.00963,-2.0061 8.90096,-0.13162z" fill="#ff4f4f" stroke="#000000" stroke-width="1.5" stroke-linecap="butt"/><path d="M587.13781,124.6995c0.60688,1.55528 -12.15526,3.38698 -26.94341,9.15731c-14.78814,5.77032 -25.21334,14.45381 -25.8202,12.89849c-0.60689,-1.55528 -13.21903,-27.65637 14.36586,-38.68653c24.37047,-9.74485 37.7909,15.07542 38.39777,16.63074z" fill="#ff4f4f" stroke="#000000" stroke-width="2" stroke-linecap="butt"/><path d="M572.96313,123.0484c0.6363,1.75666 -3.20857,3.6652 -8.32583,5.51878c-0.09539,0.03454 -0.37904,-0.01972 -0.4741,0.01362c-5.00405,1.75404 -9.10681,2.90391 -9.73127,1.17999c-0.6363,-1.75666 2.99622,-4.68337 8.11347,-6.53692c5.11725,-1.85355 9.78143,-1.93212 10.41773,-0.17545z" fill="#ffffff" stroke="#000000" stroke-width="1.5" stroke-linecap="butt"/><path d="M585.09088,149.98834c0,0 -3.90195,2.12405 -9.27394,4.01914c-2.39855,0.84613 -4.50548,1.13165 -6.8875,1.81821c-1.75836,0.5068 -3.30924,1.45869 -4.93235,1.87332c-6.51846,1.66521 -11.68066,2.07936 -11.68066,2.07936" fill="none" stroke="#000000" stroke-width="1.5" stroke-linecap="round"/><path d="M562.70608,158.9076c0,0 0.15925,4.43384 -4.53654,5.56903c-4.27325,1.03305 -3.95579,-4.06923 -3.95579,-4.06923" fill="#ffa0ce" stroke="#000000" stroke-width="1.5" stroke-linecap="round"/><text transform="translate(620.27016,169.06158) rotate(-91.90909) scale(0.45852,0.49655) skewX(-0.05588)" font-size="40" xml:space="preserve" fill="#75ff66" fill-rule="nonzero" stroke="none" stroke-width="1" stroke-linecap="butt" stroke-linejoin="miter" stroke-miterlimit="10" stroke-dasharray="" stroke-dashoffset="0" font-family="Playful" font-weight="normal" text-anchor="start" style="mix-blend-mode: normal"><tspan x="0" dy="0">Classic</tspan></text></g></g></svg>