<svg version="1.1" xmlns="http://www.w3.org/2000/svg" xmlns:xlink="http://www.w3.org/1999/xlink" width="233.9203" height="285.1713" viewBox="0,0,233.9203,285.1713"><g transform="translate(-203.34444,-42.41435)"><g data-paper-data="{&quot;isPaintingLayer&quot;:true}" fill-rule="nonzero" stroke-linejoin="miter" stroke-miterlimit="10" stroke-dasharray="" stroke-dashoffset="0" style="mix-blend-mode: normal"><path d="M217.81477,260.11319c0,0 7.99699,-77.42143 -5.18537,-110.13233c-8.73115,-21.66567 -6.08503,-43.75442 -2.70438,-57.66274c2.15292,-8.85728 14.99381,-14.33532 25.1004,-14.27539c23.71945,0.14067 121.1423,0.71844 154.29073,0.91503c6.97331,0.04136 4.57823,2.93865 5.38474,15.62603c0.31337,4.92966 1.73342,11.34105 5.07284,19.64132c7.91842,19.68161 18.2031,58.58889 21.02565,93.47472c2.27726,28.1464 -2.17272,55.26287 -2.17272,55.26287c0,0 4.99996,8.13973 -14.29488,8.98321c-47.06372,2.0574 -149.35669,-1.98898 -172.17609,-2.31279c-12.19611,-0.17306 -14.3409,-9.5199 -14.3409,-9.5199z" fill="#fff6b5" stroke="#ddd173" stroke-width="4" stroke-linecap="butt"/><path d="M237.6902,223.75733c0,0 6.46033,-56.50377 -4.18897,-80.37688c-7.05341,-15.81207 -4.91576,-31.9329 -2.18472,-42.08348c1.73921,-6.46423 12.11266,-10.46221 20.27721,-10.41847c19.16163,0.10267 97.86411,0.52433 124.64288,0.6678c5.63335,0.03018 3.6985,2.14469 4.35003,11.4042c0.25315,3.59777 1.40034,8.27692 4.09808,14.33465c6.39686,14.36405 14.70529,42.75938 16.98544,68.21979c1.83966,20.54183 -1.75523,40.332 -1.75523,40.332c0,0 4.03921,5.94054 -11.54803,6.55613c-38.02016,1.50153 -120.65695,-1.4516 -139.09148,-1.68792c-9.85256,-0.12631 -11.58521,-6.94782 -11.58521,-6.94782z" fill="#fffef9" stroke="none" stroke-width="0" stroke-linecap="butt"/><path d="M368.61927,172.42397c0.00729,1.72357 2.2517,7.34312 2.11575,9.01131c-2.14083,26.26754 -23.98133,41.37731 -49.24907,41.48429c-24.62771,0.10425 -46.81008,-16.82027 -50.32945,-42.0305c-0.32079,-2.29784 0.15923,-5.64209 0.14902,-8.05311c-0.12219,-28.86301 21.56317,-52.35332 48.43562,-52.46708c26.87245,-0.11377 48.75594,23.1921 48.87812,52.0551z" fill="#ffffff" stroke="#000000" stroke-width="2" stroke-linecap="butt"/><path d="M364.27608,126.68042c0.67566,6.47946 -23.20929,22.83547 -49.75706,25.60381c-26.54779,2.76835 -47.33107,-6.14346 -48.00675,-12.62292c-0.67566,-6.47946 16.02582,-16.90714 42.57359,-19.67549c26.54779,-2.76836 54.51454,0.21514 55.19021,6.6946z" fill-opacity="0.36859" fill="#191318" stroke="#000000" stroke-width="0" stroke-linecap="butt"/><path d="M367.35416,156.5254c-4.2452,1.37721 -5.62241,-2.86802 -5.62241,-2.86802l-1.36983,-4.29926c-0.04244,-0.90816 0.47673,-2.04499 -0.12729,-2.72447c-0.98331,-1.10614 -3.12694,-0.72847 -4.00276,-1.92151c-0.79675,-1.08535 -1.15882,-2.3961 -1.47044,-3.73297c-0.25936,0.35946 -0.5368,0.64731 -0.83584,0.78528c-2.81675,1.2996 -10.74685,0.98221 -13.67773,0.00828c-2.054,-0.68253 -3.96419,-1.84834 -5.63906,-3.21932c-0.82111,-0.67214 -2.00371,-4.38243 -4.20704,-3.98794c-2.77754,0.49727 -5.61313,1.02304 -8.16947,2.2177c-1.55993,0.729 -2.34125,2.72804 -3.95873,3.31845c-5.58541,2.03874 -10.73078,-1.66392 -15.76653,-0.39651c-2.77297,0.69789 -4.39003,3.68978 -6.79726,5.23303c-3.8388,2.461 -5.61937,2.80491 -9.75272,4.1999c-1.97126,1.2556 -4.64546,1.88807 -5.82163,3.90774c-1.2229,2.09992 0.34318,4.86233 0.19181,7.28765c-0.39433,6.31884 -1.8286,11.36682 -5.06382,16.63582c0.48305,0.82243 0.71419,1.93122 0.30041,3.40167c-1.20892,4.29617 -5.50507,3.08724 -5.50507,3.08724c-1.99284,-0.63918 -4.267,-0.71309 -5.97851,-1.9175c-5.35851,-3.77091 -7.23295,-12.09273 -7.22627,-18.15591c0.0022,-1.98974 0.25216,-4.01233 0.86007,-5.90693c0.40215,-1.25333 0.45244,-5.06469 0.07906,-6.16099c-0.7982,-2.34353 -1.23082,-8.94262 -0.78273,-11.37193c0.37144,-2.01381 3.5272,-9.30658 4.85434,-10.74107c1.65308,-1.7868 5.26295,-2.03637 6.38655,-4.65228c1.97006,-4.58665 1.76331,-9.77761 5.22103,-13.96672c1.90254,-2.30498 7.09296,-5.22806 9.57278,-6.7573c4.71139,-1.11325 8.48786,-2.42753 13.36139,-2.10162c1.30272,0.08713 2.4944,1.34331 3.76973,1.06363c1.30428,-0.28604 1.88316,-1.96653 3.07676,-2.56511c10.67211,-5.35204 26.03344,-8.72483 36.60814,-2.03075c1.87762,1.18859 3.87671,2.32889 5.31794,4.02037c0.92246,1.08262 0.52822,2.96092 1.5086,3.99138c0.67688,0.71148 1.92035,0.412 2.87982,0.62123c3.53231,0.77025 7.06595,1.91729 10.16836,3.77352c9.35033,5.59449 13.41255,14.82845 14.19003,25.36811c-0.47829,5.92356 0.89045,10.40955 -5.06032,10.59482c0.06526,0.31433 0.13837,0.62492 0.22518,0.92896l1.13148,3.41099c0,0 1.3772,4.2452 -2.86801,5.62241z" fill="#000000" stroke="none" stroke-width="0.5" stroke-linecap="butt"/><path d="M313.36174,176.91635c0.02183,5.15734 -2.7477,9.34998 -6.18592,9.36454c-3.43822,0.01455 -6.24315,-4.15449 -6.26499,-9.31182c-0.02183,-5.15734 2.74769,-9.34999 6.18591,-9.36455c3.43822,-0.01455 6.24315,4.1545 6.26499,9.31183z" fill="#000000" stroke="#000000" stroke-width="0" stroke-linecap="butt"/><path d="M344.89618,174.91137c0.0189,4.46699 -2.43784,8.09869 -5.4873,8.11159c-3.04945,0.01291 -5.53688,-3.59785 -5.55579,-8.06484c-0.0189,-4.46699 2.43784,-8.09868 5.48732,-8.11158c3.04945,-0.01291 5.53688,3.59784 5.55578,8.06483z" fill="#000000" stroke="#000000" stroke-width="0" stroke-linecap="butt"/><g stroke-linecap="butt"><path d="M336.8015,137.25124c0.05073,0.3207 -0.15692,3.7347 0.47664,7.0033c0.72384,3.73433 3.77956,7.55027 1.52442,10.05523c-5.75781,6.3956 -22.87367,6.24636 -28.01823,6.94692c-4.7374,0.6451 -4.58332,-4.67638 -4.90169,-9.8539c-0.28127,-4.57464 -1.2743,-8.99021 -1.39472,-9.75133c-0.25673,-1.62254 6.76883,-3.92291 15.69197,-5.13799c8.92315,-1.21509 16.36491,-0.88478 16.62163,0.73778z" fill="#ffc98b" stroke="#000000" stroke-width="2"/><path d="M306.82363,144.41557c-0.15867,-1.00289 0.7131,-1.1216 0.7131,-1.1216l0.29979,-0.03781c7.52336,-0.34673 10.73587,13.53776 2.80941,14.68594c0,0 -0.00394,0.00053 -0.01132,0.00123c-0.10851,0.12313 -0.26845,0.21901 -0.5029,0.25093c-0.87177,0.11871 -1.03043,-0.88418 -1.03043,-0.88418l-0.05642,-0.35658c-0.61868,-3.91036 -1.0942,-7.83907 -1.70042,-11.74354c-0.22162,-0.10674 -0.44743,-0.33066 -0.5208,-0.79439zM310.65856,155.88276c4.87946,-0.98209 2.96365,-9.44629 -1.50915,-10.50476c0.53158,3.49453 0.97218,7.00491 1.50915,10.50476z" fill="#000000" stroke="none" stroke-width="0.5"/><path d="M319.10147,141.46584c0.75616,-0.30388 1.06921,0.65809 1.06921,0.65809l0.18861,0.63056c0.28429,1.79682 0.56901,3.59356 0.85219,5.39054c0.15426,1.74411 0.52042,4.55307 -0.45426,5.90696c-1.19193,1.65565 -3.26864,1.07707 -4.30965,-0.77775c-1.45029,-2.58403 -1.4743,-7.46847 -1.94612,-10.4506c0,0 -0.15868,-1.00289 0.6442,-1.11223c0.80287,-0.10933 0.96156,0.89357 0.96156,0.89357c0.42792,2.70455 0.42346,7.27202 1.6697,9.63807c1.80079,3.41888 1.90075,-3.06781 1.81701,-3.96291c-0.28108,-1.76887 -0.56048,-3.53796 -0.84037,-5.30697l-0.09517,-0.24145c0,0 -0.31304,-0.96197 0.44311,-1.26588z" fill="#000000" stroke="none" stroke-width="0.5"/><path d="M323.93916,153.44818c-0.84919,0.11562 -1.02228,-0.97835 -1.02228,-0.97835l-0.03077,-0.19449c-0.53413,-3.42681 -0.90912,-6.73325 -0.73318,-10.12807c0,0 0.04967,-0.95581 0.77,-0.92836c0.53055,-0.0707 0.79649,0.33141 0.92111,0.6416c0.77311,0.99183 1.3402,2.15387 1.96633,3.28214c0.20155,-1.35152 0.26428,-2.78946 0.42481,-4.13584c0,0 0.12754,-1.06764 0.98476,-0.80246c0.01928,0.00596 0.03805,0.01233 0.05634,0.01908c0.66958,-0.17081 0.99079,0.71689 0.99079,0.71689l0.16816,0.47557c0.92155,3.28805 1.66218,6.90938 1.54757,10.26346c0,0 -0.03805,1.08937 -0.90385,0.93622c-0.86581,-0.15314 -0.82778,-1.24251 -0.82778,-1.24251c0.06624,-1.8544 -0.50972,-3.77319 -0.7355,-5.72298c-0.08146,0.5817 -0.18269,1.15319 -0.31841,1.70574l-0.23349,0.4722c-0.04282,0.13378 -0.11659,0.26816 -0.23334,0.39641c-0.18003,0.19776 -0.35825,0.26664 -0.52071,0.26458c-0.16227,0.00037 -0.35059,-0.07037 -0.5593,-0.27011c-0.11655,-0.11156 -0.20189,-0.22735 -0.26305,-0.34312c-0.58846,-0.88331 -1.06613,-1.8879 -1.58922,-2.83173c-0.02823,2.33843 0.40473,4.62913 0.78637,7.00001l0.03076,0.19449c0,0 0.17308,1.094 -0.67611,1.20963z" fill="#000000" stroke="none" stroke-width="0.5"/><path d="M336.69755,152.1044c0.10225,1.09583 -0.63674,1.13712 -0.63674,1.13712l-0.27207,0.01196c-1.10759,0.1892 -4.15572,1.22197 -4.83207,-0.96694c-0.19302,-0.62469 0.2362,-1.23908 0.35305,-1.85926c0.21302,-1.13048 1.20721,-5.21753 2.12743,-6.80381c-0.85434,0.00379 -1.70267,0.06832 -2.55508,0.11594c0,0 -0.73898,0.04129 -0.84125,-1.05453c-0.10225,-1.09583 0.63674,-1.13711 0.63674,-1.13711c1.18457,-0.06618 2.35646,-0.14918 3.55051,-0.08479l0.06935,0.0536l0.00308,-0.03448l0.73378,0.24645c0.33274,0.10066 0.61135,0.5185 0.65928,1.03218c0.03518,0.37687 -0.06211,0.71651 -0.23909,0.92461l-0.44219,0.53555c-0.61783,1.6498 -1.15568,3.3338 -1.73616,5.05139c-0.1918,0.5675 -0.31285,1.70962 -0.66331,2.20853c0.14338,-0.08273 0.30203,-0.15913 0.39731,-0.17308c0.81781,-0.11978 1.64365,-0.09185 2.46133,-0.23312l0.38483,-0.02474c0,0 0.73899,-0.04129 0.84125,1.05453z" fill="#000000" stroke="none" stroke-width="0.5"/></g><g stroke="#000000"><path d="M380.71462,109.42855c1.06014,7.76751 -5.03115,19.17669 -42.06141,27.85702c-67.84837,15.90446 -91.32114,9.83839 -92.38127,2.07087c-1.06014,-7.76751 28.17648,-20.76389 65.3018,-29.02826c37.12533,-8.26435 68.08076,-8.66715 69.14089,-0.89962z" fill="#1f1d1c" stroke-width="2" stroke-linecap="butt"/><path d="M353.41117,112.54239c0.56838,5.4337 -14.10976,13.38144 -40.15046,18.32515c-26.0407,4.94371 -42.81716,1.22715 -43.38555,-4.20655c-0.07422,-0.70946 -16.94471,-62.46353 -16.33072,-63.26022c4.08849,-5.30499 23.66633,-12.22535 46.307,-16.52358c21.69743,-4.11916 39.2792,-4.53045 45.20702,-1.40994c1.1866,0.62465 8.2579,66.16886 8.35269,67.07513z" fill="#1f1d1c" stroke-width="2" stroke-linecap="butt"/><path d="M352.91108,97.42858c0.16923,0.70825 3.56184,15.20058 1.89337,16.24895c-41.6003,26.13913 -80.33115,16.62983 -82.58474,17.16825c-2.526,0.60352 -3.61773,-1.77787 -5.30646,-7.60545c-1.45915,-5.03528 -2.42,-10.22987 0.10598,-10.83337c1.46267,-0.34946 27.65848,-1.08989 51.49909,-6.13752c17.33138,-3.66947 33.73222,-11.60548 34.39275,-8.84085z" fill="#770e00" stroke-width="2" stroke-linecap="butt"/><path d="M268.1409,121.89797l9.50202,-0.04022" fill="none" stroke-width="1.5" stroke-linecap="round"/><path d="M352.27908,105.15866l-7.19455,3.30709" fill="none" stroke-width="1.5" stroke-linecap="round"/></g><path d="M366.00586,107.06981c0.75026,4.0019 -0.16697,19.65169 -43.23537,28.23811c-42.29392,8.43199 -63.95195,0.46116 -64.70221,-3.54073c-0.29757,-1.58716 2.79091,-3.91677 8.7512,-6.54862c3.02371,-1.33516 0.30125,4.59832 5.66864,5.49232c10.72938,1.78712 32.25995,0.21618 45.95904,-2.3521c12.02204,-2.25386 22.73486,-5.73668 28.58444,-9.00392c4.50251,-2.51482 4.92084,-5.16392 8.22966,-5.41656c1.02709,-0.07842 -1.64167,-8.94451 -0.70398,-8.93201c3.23595,0.04322 11.23024,0.89884 11.44856,2.06349z" fill-opacity="0.3426" fill="#0d0010" stroke="none" stroke-width="0" stroke-linecap="butt"/><path d="M308.52243,195.18301c0,0 0.0069,6.81772 -9.20897,6.83696c-5.85606,0.01222 -6.13931,-6.9765 -6.13931,-6.9765" fill="#ffa8d5" stroke="#000000" stroke-width="2.5" stroke-linecap="round"/><path d="M354.14871,190.85758c0,0 -11.63284,1.8432 -21.35393,2.41131c-2.50821,0.14658 -5.97974,0.29388 -9.87356,0.43457c-2.95706,0.10684 -9.22732,1.32611 -12.43455,1.42213c-11.88975,0.35596 -20.80077,-0.5007 -20.80077,-0.5007" fill="none" stroke="#000000" stroke-width="2.5" stroke-linecap="round"/><path d="M288.29493,267.63928c-0.98236,-0.66853 -2.33582,-0.89813 -3.09443,-1.83134c-0.11569,-0.14232 -0.21757,-0.30099 -0.30216,-0.48011c-1.76368,-3.734 0.14804,-15.12747 3.44048,-17.95933c2.21632,-1.9063 4.47075,-2.75745 7.01604,-1.46981c1.332,0.67384 1.88469,4.19191 3.2054,3.4873c3.56995,-1.9046 5.03887,-7.48132 10.2851,-4.1491c5.50395,3.4959 4.65132,10.88659 4.65132,17.52103c0,3.20187 -3.29334,6.76802 -5.89548,4.99717c-3.96357,-2.69734 0.42645,-11.62642 -2.08676,-13.45794c-0.47811,-0.34842 -6.21614,9.3272 -6.86521,9.48181c-2.07715,0.49475 -3.99208,-0.64822 -4.91013,-2.92381c-0.40954,-1.01515 -0.17339,-3.66301 -1.01701,-3.1541c-1.37808,0.83131 0.41121,6.64559 -1.08178,7.66161z" fill="#ff9638" stroke="none" stroke-width="0.5" stroke-linecap="butt"/><path d="M333.39054,245.0519c2.16079,2.03406 1.76583,5.22706 0.61491,7.65124c-0.08518,0.17943 -2.26968,4.17928 -2.26786,4.18062c2.30111,1.70169 5.50798,-1.91613 5.50798,4.62294c0,8.44459 -18.89023,8.5634 -22.27017,2.06743c-2.00119,-3.84611 2.61178,-7.28552 5.68077,-8.12815c0.92307,-0.25344 1.10481,-0.1756 1.79745,-0.80507c0.75797,-0.68881 2.96567,-2.32767 1.98403,-2.39986c-3.34248,-0.24586 -8.37099,2.55551 -10.03302,-0.63881c-1.24069,-0.80417 -2.073,-2.28742 -2.073,-3.98412c0,-2.55318 1.88462,-4.62294 4.20941,-4.62294c0.1826,0 0.36252,0.01277 0.53899,0.03756c5.0917,-2.58023 12.21615,-1.83503 16.31046,2.01914z" fill="#ff9638" stroke="none" stroke-width="0.5" stroke-linecap="butt"/><path d="M386.61109,240.80479c2.06775,-2.4328 3.56471,-4.47091 5.31541,-4.46171c1.03047,0.00542 2.14891,0.72015 3.52338,2.48126c0.87458,1.12055 1.94299,4.21933 2.27193,5.74932c0.31323,1.45689 -0.21987,5.62587 0.61222,4.44023c1.90474,-2.71402 2.72553,-11.68353 5.094,-13.2442c3.40311,-2.24245 5.10468,-1.77529 7.14654,1.96214c1.15269,2.10987 -0.91664,5.63311 -1.49733,7.52545c-1.51749,4.94528 -6.70108,20.0466 -12.48343,20.3994c-5.53171,0.33752 -6.04856,-14.96472 -7.07218,-18.87736c-0.23716,-0.90655 -2.22613,-3.29819 -2.23436,-3.46073z" fill="#6676ff" stroke="none" stroke-width="0.5" stroke-linecap="butt"/><path d="M369.72099,242.95228c0.0171,-0.03643 0.03472,-0.07214 0.05291,-0.10709c2.22502,-4.27669 9.77018,-4.35027 13.14806,-2.65652c2.32031,1.16346 4.31857,6.67025 4.832,9.33479c0.15934,0.82689 0.13636,1.54603 -0.01465,2.15386c0.18354,0.25869 0.35135,0.53912 0.50187,0.8429l-1.22462,2.47155c-0.54192,1.09369 -2.94882,0.22903 -3.90403,0.20899c-0.97152,-0.02039 -5.94748,0.36529 -9.92783,-0.1752c0.56561,1.09362 1.30153,2.04627 2.19393,2.72735c3.1015,2.36701 6.01513,-0.35254 8.41717,-0.34172c2.65356,0.01193 4.35128,3.1212 2.09296,5.19077c-4.83641,4.43209 -13.59818,2.76311 -17.62221,-2.12854c-2.02377,-2.46011 -1.28456,-6.18644 -1.40204,-9.45156c-0.12925,-3.59258 0.75071,-7.67747 2.85646,-8.06956zM382.9846,251.25997c1.0728,-0.25303 -0.45815,-4.29471 -0.56993,-4.46149c-0.98603,-1.47124 -4.39607,-1.83226 -6.93422,-0.82667c-1.64684,0.65243 -1.90496,4.60203 -1.9174,4.65761c0.1852,0.78324 7.36692,1.11513 9.42154,0.63054z" data-paper-data="{&quot;index&quot;:null}" fill="#6676ff" stroke="#6676ff" stroke-width="1" stroke-linecap="butt"/><path d="M340.12157,266.69262c0.02579,-0.04958 0.05164,-0.09865 0.07754,-0.14723c-0.07593,-0.21248 -0.1463,-0.4282 -0.21182,-0.64704c-0.86947,-2.9036 -0.89117,-6.34985 -1.91208,-9.89857c-1.00874,-3.50647 -2.03286,-7.09906 -2.86837,-10.65652c-0.65921,-2.80682 -2.45855,-8.21734 -2.02128,-11.21289c0.23754,-1.62729 1.38387,-2.87703 2.744,-3.44027c0.67091,-1.33129 1.96282,-2.23266 3.44641,-2.23266c0.24153,0 0.478,0.02389 0.70752,0.06963c7.59116,-3.06822 19.85454,3.14674 22.53503,11.08893c0.20998,0.62217 1.44606,4.15713 2.03411,8.32032c0.82032,5.80767 0.83073,12.83791 -0.97098,14.88893c-3.60611,4.10512 -7.53695,4.27128 -12.11144,5.84549c-1.16841,0.40208 -5.24164,2.35777 -7.71178,2.45267l-0.02345,0.01472c-0.007,-0.00439 -0.01401,-0.00881 -0.021,-0.01322c-0.83004,0.02449 -1.47303,-0.16682 -1.7539,-0.70659zM354.04591,259.41461c8.55642,-4.53258 0.35733,-20.01451 -2.89718,-21.02902c-2.86008,-0.89156 -5.75134,-0.86488 -8.65516,-1.05247c1.7559,6.11613 2.56015,13.57646 3.90314,19.21098c0.19633,0.82366 0.70637,2.72962 1.11753,4.81814c1.97882,-0.38678 4.15019,-0.6861 6.53166,-1.94763z" fill="#6676ff" stroke="none" stroke-width="0.5" stroke-linecap="butt"/><path d="M250.2657,231.99953c6.89276,4.05641 10.71315,18.27403 8.10566,25.63916c-2.36452,6.67884 -8.98601,12.46778 -15.29757,13.27579c-2.89237,0.37028 -7.45123,2.58109 -8.89834,-1.62704c-1.73727,-1.72979 -1.5413,-5.24188 -1.56477,-7.72689c-0.0738,-7.80792 1.97167,-18.69513 -0.38868,-26.33328c-0.1076,-0.32689 -0.1848,-0.67153 -0.22747,-1.03042c-0.31707,-2.66799 1.39522,-5.11309 3.82458,-5.46133c0.02499,-0.00359 0.04998,-0.00695 0.07493,-0.01004c0.32466,-0.13793 0.6694,-0.23579 1.02993,-0.28747c0.68761,-0.09857 1.35898,-0.01856 1.97539,0.20731c3.53824,-0.55171 7.81653,1.26511 11.36637,3.35423zM249.9334,254.33423c0.66158,-1.46774 -0.37456,-6.69919 -0.40043,-6.88075c-0.95809,-6.72158 -4.39862,-7.65202 -7.69066,-7.93536c0.4337,6.555 0.31579,15.63828 0.04551,21.36573c3.3463,-1.71121 6.74638,-3.66732 8.04557,-6.54961z" fill="#ff9638" stroke="none" stroke-width="0.5" stroke-linecap="butt"/><path d="M264.14184,241.33801c2.55266,1.60197 3.47424,4.06577 3.77222,6.6768c0.63276,5.5446 -1.54645,11.75313 3.10968,11.78271c7.60091,0.0483 -1.73205,-20.37174 9.65697,-15.74925c2.9779,1.20864 1.87273,6.83331 1.85627,9.30912c-0.06065,9.12878 -2.85817,16.23955 -12.19633,15.68602c-8.18827,-0.48536 -11.60682,-8.64871 -10.90258,-16.45956c0.12558,-1.39277 0.09737,-8.35504 1.07602,-8.96919z" fill="#ff9638" stroke="none" stroke-width="0.5" stroke-linecap="butt"/><path d="M256.85562,294.63751c-3.4467,4.48551 -7.93223,1.03882 -7.93223,1.03882l1.92403,-1.199c-6.12952,-0.19846 -2.4861,15.38557 -2.12676,20.12005c0,0 0.42794,5.64064 -5.21264,6.06861c-5.64058,0.42797 -6.06859,-5.21264 -6.06859,-5.21264c-0.31477,-4.14986 -0.84155,-8.28731 -0.98082,-12.17707c-1.04079,3.18235 -3.35653,6.29241 -7.34319,9.05556c-2.04139,1.41489 -4.7743,1.37208 -7.16144,2.0581l-1.64805,0.40484c0,0 -0.24636,0.06052 -0.64754,0.10377c0.36931,2.06637 0.70776,4.13716 1.00532,6.21295c0,0 0.79614,5.60051 -4.80436,6.39665c-5.60051,0.79614 -6.39665,-4.80436 -6.39665,-4.80436c-1.29439,-9.19103 -7.63337,-23.07286 -5.78209,-32.15248c4.38273,-21.49527 30.0801,-9.46822 33.14609,5.61018c0.96829,-5.57027 3.91946,-10.11686 11.32177,-12.67115l7.6683,3.21492c0,0 4.48551,3.4467 1.03885,7.93223zM217.43893,303.8559c0.10728,-0.03312 0.16809,-0.04806 0.16809,-0.04806l1.64805,-0.40484c12.18151,-2.04055 1.93644,-17.37466 -4.08556,-13.00882c-1.47602,1.07008 0.0697,3.67099 0.47373,5.44877c0.60584,2.66585 1.2118,5.33644 1.79569,8.01296z" fill="#ffe966" stroke="none" stroke-width="0.5" stroke-linecap="butt"/><path d="M287.93274,303.87338c3.53378,4.41721 -0.88343,7.95104 -0.88343,7.95104l-4.73672,3.26373c-5.93477,1.68545 -9.00352,3.45417 -15.53497,0.99305c-4.16664,-1.57002 -7.38627,-4.94096 -9.20684,-8.91569c-0.87795,-0.76124 -1.58414,-1.94254 -1.75041,-3.77166c-0.07729,-0.85027 -0.01462,-1.58385 0.14759,-2.21664c-0.47189,-5.33496 1.56775,-10.71833 6.99539,-13.82915c11.48182,-6.5808 25.17974,4.6185 14.87161,16.76818c-0.21683,0.25557 -0.45483,0.49465 -0.71153,0.71842c0.72093,-0.19578 1.38145,-0.40294 1.93823,-0.58299l0.92009,-1.26172c0,0 4.41723,-3.53378 7.95101,0.88343z" fill="#ffe966" stroke="none" stroke-width="0.5" stroke-linecap="butt"/><path d="M292.47463,306.56611c3.53342,-1.17781 5.51588,0.74636 6.45794,2.19832c2.9127,0.11622 6.89979,-1.01529 5.50022,-2.50595c-2.74559,-2.92428 -9.19473,0.8728 -11.84152,-2.14119c-10.44988,-11.8996 3.55386,-19.88149 12.98584,-20.46871c0,0 5.65682,-0.00002 5.65682,5.65679c0,5.65682 -5.65682,5.65682 -5.65682,5.65682c-13.65761,-2.03034 7.81154,4.35355 7.9325,4.54281c10.42163,16.3046 -9.52865,23.48543 -20.78131,19.37691l-3.83135,-5.16042c0,0 -1.78886,-5.36652 3.57769,-7.15538z" fill="#ffe966" stroke="none" stroke-width="0.5" stroke-linecap="butt"/><path d="M350.54012,304.10504c3.4735,3.4735 0,6.94701 0,6.94701l-3.40569,2.96338c-11.85491,5.16192 -34.88454,0.3556 -27.04954,-17.49264c2.75678,-6.27995 10.12019,-11.39532 17.16851,-9.96547c11.00352,2.2322 14.9922,13.20095 3.5738,18.78143c-2.24927,1.09927 -5.88522,1.26179 -9.05178,1.27066c3.83166,0.92113 9.29217,-0.57267 11.29358,-1.5379l0.52414,-0.96645c0,0 3.4735,-3.4735 6.94701,0zM333.70967,296.34306c-0.11975,-0.00227 -0.23002,0.00372 -0.32879,0.01955c0.10955,-0.00682 0.2192,-0.01334 0.32879,-0.01955z" fill="#ffe966" stroke="none" stroke-width="0.5" stroke-linecap="butt"/><path d="M376.26532,312.95414c-5.54698,1.1094 -6.65635,-4.43758 -6.65635,-4.43758l-0.81062,-4.60144c-5.12265,-8.07994 -3.22407,0.54313 -3.85276,6.88333c0,0 -0.56288,5.62876 -6.19161,5.06588c-5.62874,-0.56288 -5.06586,-6.19161 -5.06586,-6.19161c1.17344,-11.64412 5.0306,-28.7706 20.68607,-17.25428c2.32766,1.71227 3.25107,4.7781 4.8766,7.16715l1.45211,6.7122c0,0 1.1094,5.54695 -4.43756,6.65635z" fill="#ffe966" stroke="none" stroke-width="0.5" stroke-linecap="butt"/><path d="M406.251,293.07614c0,5.65682 -5.65682,5.65679 -5.65682,5.65679l-0.11946,-0.09126c-0.4853,0.08773 -0.97111,0.17272 -1.45743,0.25499c0.23099,3.31751 0.43404,6.64054 0.44552,10.01854c0,0 0,5.65679 -5.65682,5.65679c-5.65682,0 -5.65679,-5.65679 -5.65679,-5.65679c0.01153,-2.88153 -0.13321,-5.7349 -0.32268,-8.58359c-0.30149,0.02714 -0.60302,0.05341 -0.9046,0.07881c0,0 -5.63727,0.46976 -6.10705,-5.16751c-0.46979,-5.63727 5.16751,-6.10703 5.16751,-6.10703c0.37239,-0.03064 0.74469,-0.06276 1.11691,-0.09635c-0.05099,-1.28835 -0.08147,-2.58198 -0.08147,-3.88295v-2.26273c0,0 -0.00002,-5.65679 5.65679,-5.65679c5.65682,0 5.65682,5.65679 5.65682,5.65679v2.26273c0,0.79326 0.01073,1.58315 0.03009,2.37027c0.02977,-0.00544 0.05957,-0.01088 0.08935,-0.01631l2.14329,-0.09123c0,0 5.65682,0 5.65682,5.65682z" fill="#ffe966" stroke="none" stroke-width="0.5" stroke-linecap="butt"/><path d="M399.0418,315.2897c1.51531,-6.42706 7.94236,-4.91172 7.94236,-4.91172l1.92365,0.5853c1.84484,0.0686 4.18917,-0.14693 6.31724,0.24747c-1.33967,-0.83328 -2.63144,-1.87241 -2.89072,-2.78095c-1.20552,-4.22433 -2.20116,-9.32792 -0.0869,-13.17865c3.90592,-7.11389 12.64129,-5.65018 18.63768,-5.5651c0,0 6.59941,0.22542 6.37398,6.82486c-0.22543,6.59944 -6.82483,6.37399 -6.82483,6.37399c-17.22578,-1.12395 10.30263,2.81283 -2.48678,18.47503c-3.23952,3.96716 -14.56023,2.95774 -19.49053,2.80223l-4.50338,-0.93c0,0 -6.42706,-1.51531 -4.91175,-7.94236z" fill="#ffe966" stroke="none" stroke-width="0.5" stroke-linecap="butt"/></g></g></svg>