<svg version="1.1" xmlns="http://www.w3.org/2000/svg" xmlns:xlink="http://www.w3.org/1999/xlink" width="49" height="168.33333" viewBox="0,0,49,168.33333"><g transform="translate(-302.46673,-31.24787)"><g data-paper-data="{&quot;isPaintingLayer&quot;:true}" fill-rule="nonzero" stroke-linecap="butt" stroke-linejoin="miter" stroke-miterlimit="10" stroke-dasharray="" stroke-dashoffset="0" style="mix-blend-mode: normal"><path d="M306.53195,198.5812c-1.69287,0 -3.06522,-1.6893 -3.06522,-3.77316v-158.78702c0,-2.08386 1.37234,-3.77316 3.06522,-3.77316h40.86957c1.69287,0 3.06522,1.6893 3.06522,3.77316v158.78702c0,2.08386 -1.37234,3.77316 -3.06522,3.77316z" fill-opacity="0.33333" fill="#aebbff" stroke="#000000" stroke-width="2"/><path d="M313.1334,193.125c-2.76606,0 -5.0084,-2.24234 -5.0084,-5.0084v-25.35504c0,-2.76606 2.24234,-5.0084 5.0084,-5.0084h27.23319c2.76606,0 5.0084,2.24234 5.0084,5.0084v25.35504c0,2.76606 -2.24234,5.0084 -5.0084,5.0084z" fill="#d5dbff" stroke-opacity="0.44314" stroke="#000000" stroke-width="2"/><path d="M336.06836,174.96973c0,5.79899 -11.90279,10.75 -14.25,10.75c-2.34721,0 -4.25,-4.70101 -4.25,-10.5c0,-5.79899 1.90279,-10.5 4.25,-10.5c2.34721,0 14.25,4.45101 14.25,10.25z" fill="#6a80ff" stroke="none" stroke-width="0"/></g></g></svg>