<svg version="1.1" xmlns="http://www.w3.org/2000/svg" xmlns:xlink="http://www.w3.org/1999/xlink" width="52.01601" height="141.44981" viewBox="0,0,52.01601,141.44981"><defs><radialGradient cx="326.8985" cy="149.61445" r="26.05961" gradientUnits="userSpaceOnUse" id="color-1"><stop offset="0" stop-color="#afb0e0" stop-opacity="0"/><stop offset="1" stop-color="#afb0e0" stop-opacity="0.31373"/></radialGradient></defs><g transform="translate(-295.52056,-128.4478)"><g data-paper-data="{&quot;isPaintingLayer&quot;:true}" fill-rule="nonzero" stroke-linejoin="miter" stroke-miterlimit="10" stroke-dasharray="" stroke-dashoffset="0" style="mix-blend-mode: normal"><path d="M328.291,180.40159c-0.03644,3.48924 -5.1667,6.26456 -11.45878,6.19884c-6.29208,-0.06571 -11.36326,-2.94757 -11.32682,-6.43681c0.03644,-3.48924 1.63557,-5.36919 7.92764,-5.30348c6.29208,0.06571 14.8944,2.0522 14.85796,5.54144z" fill="#334865" stroke="#000000" stroke-width="2" stroke-linecap="butt"/><path d="M337.97918,219.28498c-0.22461,4.04745 -3.20649,7.1674 -6.66021,6.96861c-3.45372,-0.19879 -6.07142,-3.64104 -5.84679,-7.68848c0.06417,-1.15633 0.20279,-4.77101 0.44877,-9.34466c1.90298,-0.44517 3.81613,-0.85916 5.73702,-1.09886c2.0086,-0.25063 3.93943,-0.88365 5.94401,-1.10385c0.0823,-0.00904 0.16754,-0.01188 0.25438,-0.01099c0.26524,5.93886 0.19942,10.89824 0.12282,12.27822z" data-paper-data="{&quot;index&quot;:null}" fill="#ffffff" stroke="#000000" stroke-width="2" stroke-linecap="butt"/><path d="M327.67791,180.44941c4.18709,-0.43045 8.26241,12.18921 10.12797,22.03058c0.45434,2.39676 -0.30322,1.77694 0.02815,4.0627c-0.11652,0.00454 -0.21609,0.01167 -0.28359,0.02672c-1.97491,0.44046 -3.83329,1.29669 -5.80855,1.76877c-1.85913,0.44431 -3.69361,1.06019 -5.51508,1.7088c-0.5364,-11.81053 -0.97461,-29.34819 1.45109,-29.59756z" data-paper-data="{&quot;index&quot;:null}" fill="#334865" stroke="#000000" stroke-width="2" stroke-linecap="butt"/><path d="M322.23253,226.0188c0.37894,-11.03323 6.72532,-6.80912 12.06205,-7.30024c0.46638,-0.04292 3.75305,26.78169 4.65989,35.25733c0.17034,1.59207 -0.19293,2.42431 -0.18593,2.43159c-2.85215,0.41676 -6.80056,0.06496 -9.46612,0.95348c-1.37855,0.46151 -4.05606,0.43315 -5.79327,0.82557c-0.08556,-0.9357 -0.40913,-1.1294 -0.50221,-2.19615c-0.77526,-8.88502 -1.0288,-22.56484 -0.77441,-29.9716z" fill="#a68f79" stroke="#000000" stroke-width="2" stroke-linecap="butt"/><path d="M341.52257,264.25958c0.09305,1.21443 -16.81621,1.81482 -16.90927,0.60039c-0.01401,-0.18288 -0.26422,-2.60985 -0.59894,-6.2471c1.74577,-0.41395 4.18897,-0.39591 5.43546,-0.80973c2.73726,-0.91242 5.97636,-1.12192 8.88536,-1.56419c0.45126,0.5063 1.14855,1.34859 1.64968,2.23172c1.09254,1.92539 1.484,5.08792 1.53771,5.7889z" fill="#ffffff" stroke="#000000" stroke-width="2" stroke-linecap="butt"/><path d="M305.20597,226.1271c1.58511,-10.92654 8.22455,-3.22199 14.27618,-3.08276c0.57284,0.01317 0.22148,30.9766 0.15511,36.43297c-1.40668,0 -1.88118,0.34957 -3.28786,0.34957c-2.61352,0 -5.45621,1.28083 -8.00581,2.1673c-1.58202,0.75079 -4.33768,1.87581 -5.96962,2.39927c0.02853,-0.89219 -0.28187,-2.26983 -0.23308,-3.40603c0.4123,-9.60053 1.86258,-26.5712 3.06508,-34.86033z" fill="#a68f79" stroke="#000000" stroke-width="2" stroke-linecap="butt"/><path d="M323.02916,268.31293c-0.02296,1.21853 -20.32772,0.3399 -20.30476,-0.87862c0.00221,-0.11714 0.03073,-1.24067 0.08714,-3.06615c1.79293,-0.6225 3.78894,-1.59415 5.00962,-2.17572c2.48969,-0.86142 5.05759,-2.24903 7.59605,-2.24903c1.36654,0 2.83296,0 4.21431,0c-0.00285,0.22885 -0.00443,0.35022 -0.00443,0.35022c0,0 1.32491,1.45171 2.07648,2.94818c1.02607,2.04302 1.33884,4.36778 1.32559,5.07113z" fill="#ffffff" stroke="#000000" stroke-width="2" stroke-linecap="butt"/><path d="M314.83459,230.92902v-4.31137h14.09936v4.31137z" fill="#a68f79" stroke="none" stroke-width="0" stroke-linecap="butt"/><path d="M304.97825,227.64745c0,0 0.00634,-17.61312 1.37774,-28.45657c1.54943,-12.25126 5.10815,-22.82333 14.25424,-22.99981c11.49861,-0.22187 12.34035,14.54158 13.74898,28.03052c1.07564,10.30035 1.52119,25.53282 1.52119,25.53282" fill="#334865" stroke="#000000" stroke-width="2" stroke-linecap="round"/><path d="M313.77846,179.65303c2.31927,0.55449 -1.0624,16.42544 -3.85964,28.39558c-2.12526,-0.29033 -4.24707,-0.60041 -6.35543,-0.99966c-1.5524,-0.29398 -3.10853,-0.49661 -4.67272,-0.68529c0.39232,-1.35523 -0.22907,-1.74522 0.22468,-3.18601c3.48808,-11.07592 9.71266,-24.70816 14.66312,-23.52462z" fill="#334865" stroke="#000000" stroke-width="2" stroke-linecap="butt"/><path d="M308.06046,220.19945c-0.31943,4.2826 -2.53034,6.66936 -6.03751,6.39481c-3.50718,-0.27455 -5.13996,-4.17216 -4.82054,-8.45476c0.09815,-1.31583 0.62919,-5.66567 1.55307,-11.02928c1.54637,0.02395 3.08602,0.06152 4.63141,0.1929c2.07293,0.17623 4.14979,0.26327 6.22802,0.33006c-0.75263,6.10507 -1.4482,11.14164 -1.55446,12.56629z" fill="#ffffff" stroke="#000000" stroke-width="2" stroke-linecap="butt"/><path d="M316.75894,187.26384c-0.01179,1.12915 -1.79157,1.23544 -2.53864,2.68343c-1.84155,3.56933 -3.93769,8.62394 -5.44428,8.6082c-2.11777,-0.02212 0.27291,-7.45922 0.31377,-11.37173c0.04086,-3.91251 2.31481,-7.45082 4.43258,-7.42871c0.4366,0.00456 1.61412,-0.29787 1.96715,-0.01954c1.3594,1.07176 1.30187,4.42243 1.26943,7.52834z" fill="#334865" stroke="none" stroke-width="0" stroke-linecap="butt"/><path d="M325.90703,180.46029c0.58666,-0.08163 1.58327,0.03554 2.72293,0.84915c1.60839,1.14823 4.44376,5.33189 4.6679,6.94675c0.38296,2.75909 1.93711,6.02844 0.52251,6.22529c-0.64899,0.09031 -0.70692,-2.67579 -1.75599,-4.29928c-0.57767,-0.89396 -1.9472,-1.71522 -2.49985,-2.55422c-0.63134,-0.95849 -1.83152,-0.88121 -1.94204,-1.67749c-0.38296,-2.75909 -3.13006,-5.29334 -1.71546,-5.49018z" data-paper-data="{&quot;index&quot;:null}" fill="#334865" stroke="none" stroke-width="0" stroke-linecap="butt"/><path d="M325.40099,231.58377l-7.72377,-0.33102" fill="none" stroke="#000000" stroke-width="2" stroke-linecap="round"/><path d="M328.41162,178.76871c-0.00823,0.78784 -0.43019,1.82057 -1.25326,2.7968c-0.9398,1.11473 -2.46519,2.12369 -5.58299,2.05196c-2.81321,-0.06472 -3.12618,-0.98372 -3.94479,-2.17765c-0.63602,-0.92762 -2.06945,-2.06742 -2.06175,-2.80523c0.01762,-1.68742 2.90686,-3.02532 6.4533,-2.98828c3.54644,0.03704 6.40711,1.43499 6.38949,3.12241z" fill="#ffffff" stroke="#000000" stroke-width="2" stroke-linecap="butt"/><path d="M343.04133,156.04751c0.0637,1.87834 0.63255,4.46485 0.44857,6.16963c-1.34694,12.48102 -10.07218,17.07628 -20.41927,17.44549c-11.99271,0.42794 -22.35121,-7.87186 -22.81537,-21.56055c-0.46415,-13.6887 9.03797,-24.80187 21.03068,-25.2298c11.99271,-0.42794 21.29121,9.48653 21.75538,23.17523z" fill="#ffffff" stroke="#000000" stroke-width="2" stroke-linecap="butt"/><path d="M322.03132,158.56841c-0.06109,2.79887 -0.97493,5.04893 -2.0411,5.02567c-1.06617,-0.02328 -1.88095,-2.31107 -1.81986,-5.10994c0.06109,-2.79887 0.97492,-5.04893 2.04108,-5.02567c1.06617,0.02328 1.88097,2.31107 1.81988,5.10994z" fill="#000000" stroke="none" stroke-width="0" stroke-linecap="butt"/><path d="M335.96957,159.26116c-0.05037,2.30764 -0.80383,4.16279 -1.68287,4.1436c-0.87905,-0.01919 -1.55084,-1.90546 -1.50046,-4.21309c0.05037,-2.30764 0.80383,-4.1628 1.68287,-4.14361c0.87905,0.01919 1.55084,1.90546 1.50046,4.2131z" fill="#000000" stroke="none" stroke-width="0" stroke-linecap="butt"/><path d="M337.39563,167.99676c0,0 -3.34882,-0.04257 -5.12185,-0.19542c-1.73421,-0.1495 -5.40244,-0.71184 -5.40244,-0.71184c0,0 -4.27285,0.34747 -7.04001,0.10893c-2.86454,-0.24694 -9.86519,-1.56625 -9.86519,-1.56625" fill="none" stroke="#000000" stroke-width="2" stroke-linecap="round"/><path d="M313.75145,214.23506l-3.26557,9.57969" fill="none" stroke="#000000" stroke-width="2" stroke-linecap="round"/><path d="M332.40252,222.5682l-1.57018,-6.81639" fill="none" stroke="#000000" stroke-width="2" stroke-linecap="round"/><path d="M329.83926,180.59052c0,0 -1.28372,4.85327 -5.8489,5.33258c-4.10726,0.43124 -7.65283,-1.17844 -9.21828,-2.63757c-1.9375,-1.80589 -1.37075,-3.59916 -1.37075,-3.59916" fill="none" stroke="#000000" stroke-width="1.5" stroke-linecap="round"/><path d="M320.39706,185.68584c0,0 -0.07405,2.68847 -0.11029,4.0044c-0.03523,1.27924 -0.97923,4.03421 -0.97923,4.03421" fill="none" stroke="#000000" stroke-width="1.5" stroke-linecap="round"/><path d="M325.12501,185.66862c0,0 -0.04298,2.28017 -0.06632,3.51881c-0.02612,1.38566 -1.333,4.27866 -1.333,4.27866" fill="none" stroke="#000000" stroke-width="1.5" stroke-linecap="round"/><path d="M335.45927,228.59855l-30.06309,-1.51481" fill="none" stroke="#000000" stroke-width="2" stroke-linecap="round"/><path d="M317.56243,143.6561l-6.29894,3.8022" fill="none" stroke="#000000" stroke-width="2" stroke-linecap="round"/><g stroke-linecap="butt"><path d="M346.53657,156.08971c0,9.15902 -4.6165,16.92431 -11.58777,21.33526c-0.72442,0.45836 0.21169,-0.18279 1.44485,0.37747c1.9573,0.88926 1.99521,1.93921 -1.54714,2.63948c-3.81985,0.75513 -9.81955,1.2273 -15.69825,1.1062c-3.89022,-0.08014 -8.52651,-0.68643 -9.57505,-0.68643c-2.44577,0 -4.92533,-1.63491 -3.08961,-2.81634c1.35837,-0.87422 1.20343,-0.74383 0.62462,-1.15184c-6.44938,-4.54627 -10.58766,-12.1849 -10.58766,-21.03647c0,-14.32841 10.84364,-26.40924 24.78071,-26.40924c13.93707,0 25.2353,12.31351 25.2353,26.64193z" fill="url(#color-1)" stroke="#111111" stroke-width="2"/><path d="M338.21969,142.06097c0.57528,2.57959 -1.43783,3.95156 -3.888,2.90149c-0.45011,-0.19291 -1.74329,-2.45126 -2.26828,-2.80859c-1.52535,-1.03822 -4.01829,-0.90784 -4.93375,-2.50988c-0.73685,-0.43488 -1.23117,-1.23698 -1.23117,-2.15454c0,-1.38071 1.11929,-2.5 2.5,-2.5c0.52334,0 1.00911,0.1608 1.41062,0.4357c3.47147,0.1317 7.67773,3.3497 8.41057,6.63583z" fill="#ffffff" stroke="none" stroke-width="0.5"/></g></g></g></svg>