<svg version="1.1" xmlns="http://www.w3.org/2000/svg" xmlns:xlink="http://www.w3.org/1999/xlink" width="35.72222" height="36.6153" viewBox="0,0,35.72222,36.6153"><defs><radialGradient cx="404.43443" cy="328.25321" r="3.58778" gradientUnits="userSpaceOnUse" id="color-1"><stop offset="0" stop-color="#7fff97"/><stop offset="1" stop-color="#50d231"/></radialGradient><radialGradient cx="404.47194" cy="330.65097" r="13.32677" gradientUnits="userSpaceOnUse" id="color-2"><stop offset="0" stop-color="#7fff97"/><stop offset="1" stop-color="#50d231"/></radialGradient></defs><g transform="translate(-386.52778,-312.25)"><g data-paper-data="{&quot;isPaintingLayer&quot;:true}" fill-rule="nonzero" stroke-linecap="butt" stroke-linejoin="miter" stroke-miterlimit="10" stroke-dasharray="" stroke-dashoffset="0" style="mix-blend-mode: normal"><g><path d="M421,330.55765c0,9.42068 -7.43705,17.05765 -16.61111,17.05765c-9.17406,0 -16.61111,-7.63697 -16.61111,-17.05765c0,-9.42068 7.43705,-17.05765 16.61111,-17.05765c9.17406,0 16.61111,7.63697 16.61111,17.05765z" fill="#1b3620" stroke="#ffffff" stroke-width="2.5"/><path d="M404.48445,324.66544l2.4384,7.17556h-4.97683z" fill="url(#color-1)" stroke="none" stroke-width="0"/><path d="M417.79872,330.65097c0,7.36017 -5.9666,13.32677 -13.32677,13.32677c-7.36017,0 -13.32677,-5.9666 -13.32677,-13.32677c0,-7.36017 5.9666,-13.32677 13.32677,-13.32677c7.35756,0.00632 13.32045,5.96922 13.32677,13.32677zM412.55721,338.70602l-6.58575,-17.89512h-2.97505l-6.60972,17.89512h3.46377l1.58913,-4.46206h6.04389l1.60997,4.46206z" fill="url(#color-2)" stroke="none" stroke-width="0"/></g></g></g></svg>