<svg version="1.1" xmlns="http://www.w3.org/2000/svg" xmlns:xlink="http://www.w3.org/1999/xlink" width="258.83324" height="524.29464" viewBox="0,0,258.83324,524.29464"><g transform="translate(-129.15137,-31.51418)"><g data-paper-data="{&quot;isPaintingLayer&quot;:true}" fill-rule="nonzero" stroke-linecap="butt" stroke-linejoin="miter" stroke-miterlimit="10" stroke-dasharray="" stroke-dashoffset="0" style="mix-blend-mode: normal"><path d="M310.21571,181.40243c0,8.34836 -12.58161,15.63728 -41.15684,15.63728c-28.57523,0 -131.70189,-2.61818 -131.70189,-10.96653c0,-0.67288 -6.90497,-21.49021 -6.61329,-22.13984c3.32717,-7.41022 133.79746,-130.50249 160.06951,-130.50249c28.57523,0 19.40251,139.62324 19.40251,147.9716z" fill="#42d263" stroke="#000000" stroke-width="2.5"/><path d="M371.36302,146.06014c0,21.9349 -20.84669,24.30422 -66.14492,24.30422c-45.29823,0 -146.69474,-2.36932 -146.69474,-24.30422c0,-21.9349 127.85448,-90.69622 173.15271,-90.69622c45.29823,0 39.68695,68.76132 39.68695,90.69622z" fill="#6c66ff" stroke="#000000" stroke-width="2.5"/><text transform="translate(246.6998,161.76383) scale(0.91008,0.91756)" font-size="40" xml:space="preserve" fill="#ffffff" fill-rule="nonzero" stroke="none" stroke-width="1" stroke-linecap="butt" stroke-linejoin="miter" stroke-miterlimit="10" stroke-dasharray="" stroke-dashoffset="0" font-family="&quot;Puffy&quot;, Playful" font-weight="normal" text-anchor="start" style="mix-blend-mode: normal"><tspan x="0" dy="0">Points</tspan></text><path d="M309.88238,179.52987c0,8.28032 -12.58161,15.50984 -41.15684,15.50984c-28.57523,0 -131.70189,-2.59684 -131.70189,-10.87716c0,-0.6674 -6.90497,-21.31508 -6.61329,-21.95941c3.32717,-7.34983 133.79746,-129.43896 160.06951,-129.43896c28.57523,0 19.40251,138.48538 19.40251,146.7657z" fill="#4dff62" stroke="#000000" stroke-width="2.5"/><path d="M371.02969,144.4756c0,21.75614 -20.84669,24.10615 -66.14492,24.10615c-45.29823,0 -146.69474,-2.35001 -146.69474,-24.10615c0,-21.75614 127.85448,-89.95709 173.15271,-89.95709c45.29823,0 39.68695,68.20095 39.68695,89.95709z" fill="#3375cc" stroke="#000000" stroke-width="1.5"/><path d="M365.55046,138.23844c0,19.71389 -18.88981,21.84331 -59.9359,21.84331c-41.04609,0 -132.92452,-2.12941 -132.92452,-21.84331c0,-19.71389 115.85279,-81.51283 156.89889,-81.51283c41.04609,0 35.96154,61.79893 35.96154,81.51283z" fill="#3983e5" stroke="none" stroke-width="0"/><text transform="translate(246.36647,160.05131) scale(0.91008,0.91008)" font-size="40" xml:space="preserve" fill="#ffffff" fill-rule="nonzero" stroke="none" stroke-width="1" stroke-linecap="butt" stroke-linejoin="miter" stroke-miterlimit="10" stroke-dasharray="" stroke-dashoffset="0" font-family="&quot;Puffy&quot;, Playful" font-weight="normal" text-anchor="start" style="mix-blend-mode: normal"><tspan x="0" dy="0">Points</tspan></text><path d="M303.11024,179.75c0,2.57331 -5.6905,7.07661 -17.69641,9.06273c-7.96359,1.3174 -19.54583,0.68727 -31.05359,0.68727c-28.85688,0 -74.25,-0.46979 -74.25,-4.75c0,-2.57971 -16.96999,-18.09155 6.05799,-20.07752c6.00526,-0.5179 21.41098,4.44255 37.94485,5.7927c25.25907,2.06265 53.81809,1.03482 60.74716,1.03482c28.85688,0 18.25,3.96979 18.25,8.25z" fill-opacity="0.16471" fill="#0d0f2e" stroke="none" stroke-width="0"/><text transform="translate(246.03314,161.05131) scale(0.91008,0.91008)" font-size="40" xml:space="preserve" fill="#303030" fill-rule="nonzero" stroke="none" stroke-width="1" stroke-linecap="butt" stroke-linejoin="miter" stroke-miterlimit="10" stroke-dasharray="" stroke-dashoffset="0" font-family="&quot;Puffy&quot;, Playful" font-weight="normal" text-anchor="start" style="mix-blend-mode: normal"><tspan x="0" dy="0">Points</tspan></text><path d="M361.0372,149.40888c0,4.85009 -27.15947,8.78186 -60.66238,8.78186c-33.50291,0 -60.66238,-3.93177 -60.66238,-8.78186c0,-4.85009 27.15947,-8.78186 60.66238,-8.78186c33.50291,0 60.66238,3.93177 60.66238,8.78186z" fill="#151515" stroke="none" stroke-width="0"/><text transform="translate(251.15761,153.36895) scale(0.28558,0.28558)" font-size="40" xml:space="preserve" fill="#d1d1d1" fill-rule="nonzero" stroke="none" stroke-width="1" stroke-linecap="butt" stroke-linejoin="miter" stroke-miterlimit="10" stroke-dasharray="" stroke-dashoffset="0" font-family="&quot;Puffy&quot;, Playful" font-weight="normal" text-anchor="start" style="mix-blend-mode: normal"><tspan x="0" dy="0">Not Enough Points</tspan></text><path d="M346.82643,547.55882c-45.29823,0 -173.15271,-64.92513 -173.15271,-85.63628c0,-7.13936 -25.9515,-15.41542 -8.30556,-18.82948c33.54461,-6.49006 125.31686,-4.11881 155.0003,-4.11881c45.29823,0 66.14492,2.23713 66.14492,22.94829c0,20.71115 5.61128,85.63628 -39.68695,85.63628z" data-paper-data="{&quot;index&quot;:null}" fill="#306fc1" stroke="#000000" stroke-width="2.5"/><path d="M339.32643,554.55882c-45.29823,0 -173.15271,-65.51151 -173.15271,-86.40972c0,-9.24717 -19.64716,-16.28542 6.41376,-19.65245c32.83565,-4.24232 115.02659,-3.5031 140.28098,-3.5031c45.29823,0 66.14492,2.25734 66.14492,23.15555c0,20.89821 5.61128,86.40972 -39.68695,86.40972z" data-paper-data="{&quot;index&quot;:null}" fill="#3f90fb" stroke="#3f90fb" stroke-width="2.5"/><path d="M371.97994,470.74778c0,7.67807 2.31846,16.82918 -36.34126,16.82918c-38.65972,0 -163.65763,-4.02918 -163.65763,-11.70725c0,-4.05758 -6.55449,-11.24901 32.07258,-14.36867c34.46602,-2.78359 113.35561,-1.72881 131.58506,-1.72881c38.65972,0 36.34126,3.29748 36.34126,10.97555z" fill="#ffe245" stroke="none" stroke-width="0"/><text transform="translate(239.70017,457.0581) scale(0.34302,0.34302)" font-size="40" xml:space="preserve" fill="#ffffff" fill-rule="nonzero" stroke="none" stroke-width="1" stroke-linecap="butt" stroke-linejoin="miter" stroke-miterlimit="10" stroke-dasharray="" stroke-dashoffset="0" font-family="Playful" font-weight="normal" text-anchor="start" style="mix-blend-mode: normal"><tspan x="0" dy="0">Distance Traveled</tspan></text></g></g></svg>