<svg version="1.1" xmlns="http://www.w3.org/2000/svg" xmlns:xlink="http://www.w3.org/1999/xlink" width="41.6377" height="42.35759" viewBox="0,0,41.6377,42.35759"><g transform="translate(-298.82312,-165.43966)"><g data-paper-data="{&quot;isPaintingLayer&quot;:true}" fill-rule="nonzero" stroke-linejoin="miter" stroke-miterlimit="10" stroke-dasharray="" stroke-dashoffset="0" style="mix-blend-mode: normal"><path d="M337.71082,188.44903c-1.02873,10.12684 -9.93057,17.5167 -19.88281,16.5057c-9.95224,-1.011 -17.18618,-10.04 -16.15744,-20.16684c1.02873,-10.12684 9.93057,-17.5167 19.88281,-16.5057c9.95224,1.011 17.18618,10.04 16.15744,20.16684z" fill="#7c30e3" stroke="#000000" stroke-width="5.5" stroke-linecap="butt"/><path d="M338.66278,188.3881c-1.02873,10.12684 -9.93057,17.5167 -19.88281,16.5057c-9.95224,-1.011 -17.18618,-10.04 -16.15744,-20.16684c1.02873,-10.12684 9.93057,-17.5167 19.88281,-16.5057c9.95224,1.011 17.18618,10.04 16.15744,20.16684z" fill="#7c30e3" stroke="#7c30e3" stroke-width="0" stroke-linecap="butt"/><path d="M320.66433,177.70765l-0.04337,17.69976" fill="none" stroke="#ffffff" stroke-width="6.5" stroke-linecap="round"/><path d="M311.53624,186.59068l18.21282,-0.06629" fill="none" stroke="#ffffff" stroke-width="6.5" stroke-linecap="round"/></g></g></svg>