<svg version="1.1" xmlns="http://www.w3.org/2000/svg" xmlns:xlink="http://www.w3.org/1999/xlink" width="48.7927" height="282.82192" viewBox="0,0,48.7927,282.82192"><g transform="translate(-295.53578,-38.58904)"><g data-paper-data="{&quot;isPaintingLayer&quot;:true}" fill="#fff6b5" fill-rule="nonzero" stroke="#ddd173" stroke-width="4" stroke-linecap="butt" stroke-linejoin="miter" stroke-miterlimit="10" stroke-dasharray="" stroke-dashoffset="0" style="mix-blend-mode: normal"><path d="M299.85417,305.54584c0,0 1.67336,-112.66673 -1.08504,-160.26892c-1.827,-31.52874 -1.27329,-63.67317 -0.56589,-83.91306c0.45051,-12.88945 3.13742,-20.86137 5.25222,-20.77412c4.96326,0.2047 25.96342,22.87481 32.8997,23.16088c1.45917,0.06018 0.95801,4.27646 1.12677,22.73964c0.06558,7.17384 0.36271,16.50395 1.0615,28.58284c1.65691,28.64146 3.19443,43.16144 3.78505,93.92872c0.47652,40.95975 -0.45464,80.42069 -0.45464,80.42069c0,0 1.04623,11.84523 -2.99118,13.07272c-9.84802,2.99401 -31.25271,17.37561 -36.02765,16.90441c-2.55202,-0.25189 -3.00082,-13.85375 -3.00082,-13.85375z" data-paper-data="{&quot;index&quot;:null}"/></g></g></svg>