<svg version="1.1" xmlns="http://www.w3.org/2000/svg" xmlns:xlink="http://www.w3.org/1999/xlink" width="58.96859" height="125.13884" viewBox="0,0,58.96859,125.13884"><g transform="translate(-274.94974,-147.02937)"><g data-paper-data="{&quot;isPaintingLayer&quot;:true}" fill-rule="nonzero" stroke-linejoin="miter" stroke-miterlimit="10" stroke-dasharray="" stroke-dashoffset="0" style="mix-blend-mode: normal"><path d="M321.4342,261.29143c1.12105,3.31678 2.44055,7.3265 -0.96224,6.69634c-2.60846,-0.48306 -8.71395,-2.48159 -10.76163,-3.19004c-3.56348,-1.2329 -3.23013,-3.07247 -3.31409,-3.18017c-0.29471,-0.3781 0.85605,-3.62439 2.59625,-7.94458c0.88117,0.25002 1.76415,0.49538 2.65034,0.73261c2.75206,0.73672 5.50295,1.47649 8.25238,2.22048c0.15191,0.0411 0.30383,0.08209 0.4558,0.12294c-0.53862,1.64771 0.41956,2.57912 1.08315,4.54243z" data-paper-data="{&quot;index&quot;:null}" fill="#ffffff" stroke="#000000" stroke-width="2" stroke-linecap="butt"/><path d="M300.85839,266.43109c0.82103,2.62013 1.0735,4.83461 0.80462,4.73382c-0.24202,-0.09075 -0.04847,0.86674 -3.05997,0.34991c-2.30853,-0.39616 -7.67559,-2.18081 -9.47403,-2.81707c-3.12976,-1.10726 -2.75518,-2.93486 -2.82566,-3.03872c-0.228,-0.33599 0.74322,-3.11937 2.25569,-6.93953c1.69287,0.44051 3.38922,0.86966 5.08915,1.29333c1.80928,0.45094 3.63376,0.83358 5.46491,1.19859c0.2839,1.32567 1.16777,3.37668 1.74525,5.2197z" data-paper-data="{&quot;index&quot;:null}" fill="#ffffff" stroke="#000000" stroke-width="2" stroke-linecap="butt"/><path d="M320.66721,262.66261c-0.238,-0.11376 -10.04318,-3.35422 -12.97032,-5.44587c-3.82949,-2.73646 10.52595,-9.23733 4.24769,-12.98178c-5.91371,-3.52703 -11.84833,-6.84399 -16.7884,-9.52813c-0.00904,-0.15914 -0.00032,-0.31536 0.03748,-0.46623c0.17332,-0.69186 1.48527,-1.86489 1.9266,-2.5399c1.95791,-2.99455 4.33556,-6.98896 5.39825,-10.96573c0.42934,0.17846 0.86178,0.38342 1.29684,0.61673c5.01763,2.69048 12.5957,8.85499 22.9754,14.81833c1.27381,0.73184 5.98579,4.86952 4.51195,10.60924c-1.83803,7.15783 -10.17568,16.10316 -10.63549,15.88336z" fill="#a68f79" stroke="#000000" stroke-width="2" stroke-linecap="butt"/><path d="M302.40763,237.74123c0.39012,-1.34735 1.46592,-1.70345 2.28577,-1.76826c0.47907,-2.0766 2.99135,-1.81131 2.99135,-1.81131c0.92016,0.09716 1.84029,0.19433 2.76047,0.29149l2.71031,0.28621c1.28823,0.11381 2.33725,1.01256 2.43911,2.17c0.07679,0.87275 -0.40444,1.6708 -1.18318,2.13129l-2.5539,1.56726l-0.07726,-0.09443c-0.18309,0.13743 -0.37388,0.26758 -0.57385,0.38899c-0.94337,0.57271 -2.29153,0.20852 -3.43727,0.3128l-3.37974,-0.60898c0,0 -2.64503,-0.57437 -1.98178,-2.86497z" fill="#a68f79" stroke="none" stroke-width="0.5" stroke-linecap="butt"/><path d="M303.04322,240.34293l9.57871,0.07834" fill="none" stroke="#000000" stroke-width="2" stroke-linecap="round"/><path d="M313.20549,190.40501c0.28923,3.28662 -5.02419,6.31711 -11.86786,6.76879c-6.84368,0.45168 -12.62602,-1.84651 -12.91524,-5.13311c-0.28923,-3.28662 1.27136,-5.1863 8.11501,-5.63799c6.84368,-0.45168 16.37887,0.71571 16.6681,4.00234z" fill="#334865" stroke="#000000" stroke-width="2" stroke-linecap="butt"/><path d="M329.77299,224.62334c0.252,3.82291 -2.59806,7.06754 -6.36577,7.24707c-3.7677,0.17954 -7.02631,-2.77402 -7.2783,-6.59693c-0.07199,-1.09219 -0.3642,-4.49977 -0.65748,-8.81888c2.0081,-0.61959 4.031,-1.211 6.08366,-1.63961c2.14636,-0.44817 4.16167,-1.24704 6.30742,-1.66623c0.08808,-0.01719 0.18015,-0.02892 0.27437,-0.0373c1.01446,5.54634 1.5502,10.20843 1.63611,11.51184z" data-paper-data="{&quot;index&quot;:null}" fill="#ffffff" stroke="#000000" stroke-width="2" stroke-linecap="butt"/><path d="M311.51375,192.74668c4.2607,-1.48116 12.32826,8.91637 17.24347,17.36663c1.19703,2.05796 0.21637,1.69243 1.25112,3.68163c-0.12081,0.03447 -0.22308,0.06687 -0.28931,0.09812c-1.93824,0.91418 -3.62927,2.17561 -5.55838,3.11859c-1.8157,0.88755 -3.55395,1.92446 -5.26872,2.98774c-4.11371,-10.58439 -9.84655,-26.39462 -7.37819,-27.25271z" data-paper-data="{&quot;index&quot;:null}" fill="#334865" stroke="#000000" stroke-width="2" stroke-linecap="butt"/><path d="M292.25813,236.01615c0,0 -1.65297,-16.57583 -1.18458,-26.89228c0.52918,-11.65583 3.40007,-21.8954 13.32231,-22.80792c12.47441,-1.14724 14.78043,12.67763 17.58235,25.2568c2.13959,9.60565 4.05925,23.90423 4.05925,23.90423" fill="#334865" stroke="#000000" stroke-width="2" stroke-linecap="round"/><path d="M297.45442,192.86435c2.44304,0.77313 -3.21884,15.29613 -7.75648,26.22273c-2.26612,-0.50412 -4.52599,-1.0264 -6.76007,-1.63085c-1.64496,-0.44508 -3.30548,-0.80486 -4.97649,-1.15242c0.5957,-1.22882 -0.02848,-1.6625 0.64451,-2.96493c5.17355,-10.01224 13.63384,-22.12472 18.84852,-20.47452z" fill="#334865" stroke="#000000" stroke-width="2" stroke-linecap="butt"/><path d="M288.26523,229.23454c-0.00352,4.0571 -2.27936,6.4666 -6.22499,6.46406c-3.94566,-0.00254 -6.094,-3.55452 -6.0905,-7.61162c0.00108,-1.24654 0.23573,-5.38242 0.82605,-10.50185c1.73168,-0.09034 3.45696,-0.16736 5.1964,-0.15645c2.33324,0.01465 4.6635,-0.05498 6.99365,-0.14379c-0.3375,5.80531 -0.69946,10.60004 -0.70064,11.94967z" fill="#ffffff" stroke="#000000" stroke-width="2" stroke-linecap="butt"/><path d="M300.83621,199.98635c-0.17526,1.05582 -2.1149,0.93349 -3.13105,2.19622c-2.50486,3.11261 -5.49877,7.58421 -7.12546,7.38167c-2.2866,-0.28469 1.36869,-6.95041 1.976,-10.60882c0.60731,-3.65838 3.5752,-6.68804 5.86181,-6.40338c0.4714,0.05869 1.78809,-0.07773 2.12975,0.2269c1.31557,1.17299 0.77109,4.30322 0.28897,7.20739z" fill="#334865" stroke="none" stroke-width="0" stroke-linecap="butt"/><path d="M310.55409,189.90131c0.62983,-0.12469 1.72386,-0.09576 3.039,0.57688c1.85603,0.94931 5.33143,4.65504 5.72718,6.15647c0.67617,2.56527 2.67315,5.51514 1.15446,5.81583c-0.69674,0.13796 -1.02035,-2.46042 -2.31336,-3.90265c-0.71198,-0.79413 -2.27765,-1.45524 -2.95725,-2.1997c-0.77639,-0.85049 -2.07331,-0.67982 -2.26846,-1.42016c-0.67617,-2.56527 -3.90023,-4.72598 -2.38155,-5.02668z" data-paper-data="{&quot;index&quot;:null}" fill="#334865" stroke="none" stroke-width="0" stroke-linecap="butt"/><path d="M313.11637,188.10501c0.0653,0.74209 -0.29591,1.7484 -1.09833,2.73429c-0.91621,1.12575 -2.47873,2.19973 -5.87354,2.3867c-3.06315,0.16868 -3.48986,-0.67062 -4.49196,-1.72739c-0.77856,-0.82106 -2.44367,-1.77672 -2.50483,-2.47168c-0.13987,-1.58942 2.87372,-3.08429 6.73105,-3.33887c3.85733,-0.25457 7.09773,0.82753 7.23761,2.41696z" fill="#ffffff" stroke="#000000" stroke-width="2" stroke-linecap="butt"/><path d="M321.58088,228.99801l-2.34867,-6.2866" fill="none" stroke="#000000" stroke-width="2" stroke-linecap="round"/><path d="M314.83944,189.70295c0,0 -0.93762,4.67208 -5.85335,5.49573c-4.42264,0.74104 -8.42723,-0.48444 -10.2659,-1.72983c-2.27562,-1.54136 -1.82875,-3.27521 -1.82875,-3.27521" fill="none" stroke="#000000" stroke-width="1.5" stroke-linecap="round"/><path d="M305.05898,195.26864l0.50088,7.3472" fill="none" stroke="#000000" stroke-width="1.5" stroke-linecap="round"/><path d="M310.77948,202.33442l-0.58434,-7.46784" fill="none" stroke="#000000" stroke-width="1.5" stroke-linecap="round"/><path d="M325.59941,234.56613l-32.82234,0.73118" fill="none" stroke="#000000" stroke-width="2" stroke-linecap="round"/><g><path d="M332.8599,171.19643c-0.06153,1.77452 0.37746,4.24709 0.05843,5.84306c-2.33577,11.68435 -12.15367,15.48973 -23.44253,15.21348c-13.08428,-0.3202 -23.78153,-8.76928 -23.33306,-21.70136c0.4485,-12.93208 11.56616,-22.8349 24.65045,-22.51469c13.08428,0.3202 22.5152,10.22745 22.06673,23.15951z" fill="#ffffff" stroke="#000000" stroke-width="2" stroke-linecap="butt"/><path d="M309.04734,171.89852c-0.2615,2.63474 -1.41304,4.70071 -2.57197,4.61443c-1.15893,-0.08628 -1.88645,-2.2921 -1.62492,-4.92687c0.2615,-2.63474 1.41302,-4.7007 2.57195,-4.61444c1.15893,0.08628 1.88646,2.2921 1.62495,4.92686z" fill="#000000" stroke="none" stroke-width="0" stroke-linecap="butt"/><path d="M324.40609,173.06052c-0.21561,2.17233 -1.16503,3.87569 -2.12057,3.80456c-0.95553,-0.07114 -1.55538,-1.88981 -1.33977,-4.06213c0.21561,-2.17233 1.16503,-3.8757 2.12057,-3.80456c0.95553,0.07114 1.55538,1.88981 1.33977,4.06213z" fill="#000000" stroke="none" stroke-width="0" stroke-linecap="butt"/><path d="M325.32831,181.90415l-29.69314,-3.88409" fill="none" stroke="#000000" stroke-width="2" stroke-linecap="round"/><path d="M295.4816,175.91637l-1.43996,3.55424" fill="none" stroke="#000000" stroke-width="2" stroke-linecap="round"/></g><path d="M302.74401,264.68708c-0.23128,1.18418 -0.18599,1.03428 -6.01872,0.31728c-5.83273,-0.71701 -12.39484,-2.67139 -12.16355,-3.85555c0.04469,-0.2288 0.34504,-2.75707 1.56335,-5.84815c1.79597,-4.55674 2.37855,-10.81157 3.78251,-15.90561c0.71853,-2.60708 1.62167,-5.73701 5.1814,-7.05588c5.47088,-2.02693 13.92164,-0.35964 11.92313,9.50688c-1.56178,6.30336 0.59002,5.58749 -2.34841,16.00826c-0.39412,1.39764 -0.18308,3.57574 -0.47194,4.60057c-0.54489,1.93319 -1.43535,2.16854 -1.44777,2.2322z" data-paper-data="{&quot;index&quot;:null}" fill="#a68f79" stroke="#000000" stroke-width="2" stroke-linecap="butt"/></g></g></svg>