<svg version="1.1" xmlns="http://www.w3.org/2000/svg" xmlns:xlink="http://www.w3.org/1999/xlink" width="39.25" height="37.37185" viewBox="0,0,39.25,37.37185"><g transform="translate(-307.125,-156.75315)"><g data-paper-data="{&quot;isPaintingLayer&quot;:true}" fill-rule="nonzero" stroke-linecap="butt" stroke-linejoin="miter" stroke-miterlimit="10" stroke-dasharray="" stroke-dashoffset="0" style="mix-blend-mode: normal"><path d="M313.1334,193.125c-2.76606,0 -5.0084,-2.24234 -5.0084,-5.0084v-25.35504c0,-2.76606 2.24234,-5.0084 5.0084,-5.0084h27.23319c2.76606,0 5.0084,2.24234 5.0084,5.0084v25.35504c0,2.76606 -2.24234,5.0084 -5.0084,5.0084z" fill="#d5dbff" stroke-opacity="0.44314" stroke="#000000" stroke-width="2"/><path d="M325.06836,175.21973c0,5.79899 -1.90279,10.5 -4.25,10.5c-2.34721,0 -4.25,-4.70101 -4.25,-10.5c0,-5.79899 1.90279,-10.5 4.25,-10.5c2.34721,0 4.25,4.70101 4.25,10.5z" fill="#6a80ff" stroke="none" stroke-width="0"/><path d="M336.31836,175.21973c0,5.79899 -1.90279,10.5 -4.25,10.5c-2.34721,0 -4.25,-4.70101 -4.25,-10.5c0,-5.79899 1.90279,-10.5 4.25,-10.5c2.34721,0 4.25,4.70101 4.25,10.5z" fill="#6a80ff" stroke="none" stroke-width="0"/></g></g></svg>