<svg version="1.1" xmlns="http://www.w3.org/2000/svg" xmlns:xlink="http://www.w3.org/1999/xlink" width="744.61607" height="168.46233" viewBox="0,0,744.61607,168.46233"><defs><radialGradient cx="326.51105" cy="130.31442" r="26.05961" gradientUnits="userSpaceOnUse" id="color-1"><stop offset="0" stop-color="#afb0e0" stop-opacity="0"/><stop offset="1" stop-color="#afb0e0" stop-opacity="0.31373"/></radialGradient></defs><g transform="translate(-291.1933,-81.5851)"><g data-paper-data="{&quot;isPaintingLayer&quot;:true}" fill-rule="nonzero" stroke-linejoin="miter" stroke-miterlimit="10" stroke-dasharray="" stroke-dashoffset="0" style="mix-blend-mode: normal"><g><g><path d="M835.19647,144.82211c-2.64546,-4.05184 -7.30808,-6.95387 -11.3914,-9.74447c-8.36072,-5.71383 -19.26499,-1.18735 -21.91754,-0.13401c-7.16791,2.84642 -16.17157,20.74915 -16.78189,20.0859c-2.21773,-2.41009 -6.05257,-2.47988 -2.05967,-6.55365c2.53442,-11.8091 12.79692,-16.55128 16.90505,-18.53631c1.51473,-0.73191 10.29205,-3.89179 17.84295,-2.74152c11.15861,1.69985 22.33208,9.05624 25.35746,16.98989c0.88988,2.3336 1.82395,7.06587 1.95406,9.40519c0.05114,0.91944 -5.03023,-0.96582 -5.0975,-0.05588c-0.23027,3.11508 -1.14881,-3.10525 -4.81153,-8.71513z" data-paper-data="{&quot;index&quot;:null}" fill="#ae7e26" stroke="#000000" stroke-width="2" stroke-linecap="butt"/><g><path d="M838.29857,155.53776c0,12.90339 -11.73117,23.36366 -26.20233,23.36366c-14.47114,0 -26.20233,-10.46027 -26.20233,-23.36366c0,-12.90339 11.73117,-23.36366 26.20233,-23.36366c14.47114,0 26.20233,10.46027 26.20233,23.36366z" fill="#141418" stroke="#000000" stroke-width="2.5" stroke-linecap="butt"/><path d="M827.5739,156.55751c0,7.49279 -6.71133,13.56689 -14.99017,13.56689c-8.27884,0 -14.99017,-6.07411 -14.99017,-13.56689c0,-7.49279 6.71133,-13.56689 14.99017,-13.56689c8.27884,0 14.99017,6.07411 14.99017,13.56689z" fill="#434955" stroke="#000000" stroke-width="2.5" stroke-linecap="butt"/><path d="M798.197,160.56744c0,0 -0.48157,-3.31245 -0.48157,-4.65111c0,-1.15931 0.48157,-2.92046 0.48157,-2.92046h28.53269c0,0 0.72234,1.83422 0.72234,2.92046c0,1.37081 -0.72234,4.65111 -0.72234,4.65111z" fill="#434955" stroke="#000000" stroke-width="2.5" stroke-linecap="butt"/><path d="M818.43356,156.94391c0,2.77782 -2.50992,5.02967 -5.60608,5.02967c-3.09616,0 -5.60608,-2.25186 -5.60608,-5.02967c0,-2.77782 2.50992,-5.02967 5.60608,-5.02967c3.09616,0 5.60608,2.25186 5.60608,5.02967z" fill="#585f6f" stroke="#000000" stroke-width="2.5" stroke-linecap="butt"/><path d="M812.15719,153.78009c0,-0.35843 0.32739,-0.64899 0.73123,-0.64899c0.40385,0 0.73123,0.29057 0.73123,0.64899c0,0.35843 -0.32739,0.64899 -0.73123,0.64899c-0.40385,0 -0.73123,-0.29057 -0.73123,-0.64899z" fill="#8d5d15" stroke="none" stroke-width="0.5" stroke-linecap="butt"/><path d="M812.40093,160.37815c0,-0.35843 0.32739,-0.64899 0.73123,-0.64899c0.40385,0 0.73123,0.29057 0.73123,0.64899c0,0.35844 -0.32739,0.64899 -0.73123,0.64899c-0.40385,0 -0.73123,-0.29056 -0.73123,-0.64899z" fill="#8d5d15" stroke="none" stroke-width="0.5" stroke-linecap="butt"/><path d="M809.84163,159.51283c0,-0.35844 0.32739,-0.64899 0.73123,-0.64899c0.40385,0 0.73123,0.29057 0.73123,0.64899c0,0.35844 -0.32739,0.64899 -0.73123,0.64899c-0.40385,0 -0.73123,-0.29057 -0.73123,-0.64899z" fill="#8d5d15" stroke="none" stroke-width="0.5" stroke-linecap="butt"/><path d="M808.62291,157.24137c0,-0.35843 0.32739,-0.64899 0.73123,-0.64899c0.40385,0 0.73123,0.29057 0.73123,0.64899c0,0.35843 -0.32739,0.64899 -0.73123,0.64899c-0.40385,0 -0.73123,-0.29057 -0.73123,-0.64899z" fill="#8d5d15" stroke="none" stroke-width="0.5" stroke-linecap="butt"/><path d="M809.59788,154.59132c0,-0.35843 0.32739,-0.64899 0.73123,-0.64899c0.40385,0 0.73123,0.29056 0.73123,0.64899c0,0.35843 -0.32739,0.64899 -0.73123,0.64899c-0.40385,0 -0.73123,-0.29057 -0.73123,-0.64899z" fill="#8d5d15" stroke="none" stroke-width="0.5" stroke-linecap="butt"/><path d="M814.96022,155.02398c0,-0.35843 0.32739,-0.64899 0.73123,-0.64899c0.40385,0 0.73123,0.29057 0.73123,0.64899c0,0.35843 -0.32738,0.64899 -0.73123,0.64899c-0.40385,0 -0.73123,-0.29057 -0.73123,-0.64899z" fill="#8d5d15" stroke="none" stroke-width="0.5" stroke-linecap="butt"/><path d="M815.63051,157.78219c0,-0.35843 0.32739,-0.64899 0.73123,-0.64899c0.40385,0 0.73123,0.29057 0.73123,0.64899c0,0.35844 -0.32739,0.64899 -0.73123,0.64899c-0.40385,0 -0.73123,-0.29057 -0.73123,-0.64899z" fill="#8d5d15" stroke="none" stroke-width="0.5" stroke-linecap="butt"/><path d="M814.59462,159.40467c0,-0.35844 0.32739,-0.64899 0.73123,-0.64899c0.40385,0 0.73123,0.29057 0.73123,0.64899c0,0.35844 -0.32739,0.64899 -0.73123,0.64899c-0.40385,0 -0.73123,-0.29057 -0.73123,-0.64899z" fill="#8d5d15" stroke="none" stroke-width="0.5" stroke-linecap="butt"/><path d="M811.12128,157.1332c0,-0.89607 0.81845,-1.62248 1.82807,-1.62248c1.00962,0 1.82807,0.7264 1.82807,1.62248c0,0.89607 -0.81845,1.62248 -1.82807,1.62248c-1.00962,0 -1.82807,-0.7264 -1.82807,-1.62248z" fill="#434955" stroke="none" stroke-width="0.5" stroke-linecap="butt"/><path d="M826.47706,156.6735l-8.0435,0.10817" fill="none" stroke="#000000" stroke-width="2.5" stroke-linecap="round"/><path d="M807.34327,156.45717l-8.65286,0.43266" fill="none" stroke="#000000" stroke-width="2.5" stroke-linecap="round"/></g><path d="M802.49631,148.01938c-1.50231,0 -2.72016,-1.08089 -2.72016,-2.41424v-60.3558c0,-1.33335 1.21786,-2.41424 2.72016,-2.41424h31.9618c1.50231,0 2.72016,1.08089 2.72016,2.41424v60.3558c0,1.33335 -1.21786,2.41424 -2.72016,2.41424z" fill="#101317" stroke="#000000" stroke-width="2.5" stroke-linecap="butt"/><path d="M781.07511,149.22649c-1.50231,0 -2.72016,-1.08089 -2.72016,-2.41424v-27.46188c0,-1.33335 1.21786,-2.41424 2.72016,-2.41424c0,0 3.18767,0.37615 3.74021,-0.90533c0.47144,-1.09338 1.19883,-5.07071 2.66565,-5.90425c7.43207,-4.22335 25.45852,-2.19452 27.83897,-0.97055c3.5037,1.80151 -0.24292,30.11178 -0.24292,30.11178c1.50231,0 -5.44031,0.77911 -5.44031,2.11245l-6.80038,5.43202c0,1.33335 -1.21786,2.41424 -2.72016,2.41424z" fill="#101317" stroke="#000000" stroke-width="2.5" stroke-linecap="butt"/><g><path d="M936.2864,161.42952c-0.3727,-0.80049 -5.48058,0.02119 -5.75003,-0.81984c-0.68553,-2.13982 -0.2857,-4.40211 -0.2857,-6.74212c0,-13.33881 12.08361,-24.15205 25.46636,-24.15205c1.92196,0 4.51336,-0.95947 8.51226,-0.34217c4.37708,0.67567 10.16529,2.96912 11.91109,3.87387c4.99002,2.58604 4.24703,3.45765 3.07864,6.22534c-0.32154,0.76167 -6.47412,-5.79743 -13.89958,-6.42117c-2.74786,-0.23082 -15.2269,-0.00891 -20.78863,7.39131c-2.71631,3.6142 -5.91557,7.48523 -6.90555,11.84558c-1.37064,6.03703 -0.06294,11.88164 -1.33885,9.14126z" fill="#ae7e26" stroke="#000000" stroke-width="2" stroke-linecap="butt"/><g><path d="M986.27666,156.30771c0,12.25594 -11.14254,22.19134 -24.88758,22.19134c-13.74503,0 -24.88758,-9.9354 -24.88758,-22.19134c0,-12.25594 11.14254,-22.19134 24.88758,-22.19134c13.74503,0 24.88758,9.9354 24.88758,22.19134z" fill="#141418" stroke="#000000" stroke-width="2.5" stroke-linecap="butt"/><path d="M976.09012,157.27629c0,7.11682 -6.37458,12.88615 -14.238,12.88615c-7.86343,0 -14.238,-5.76933 -14.238,-12.88615c0,-7.11682 6.37458,-12.88615 14.238,-12.88615c7.86343,0 14.238,5.76932 14.238,12.88615z" fill="#434955" stroke="#000000" stroke-width="2.5" stroke-linecap="butt"/><path d="M948.18726,161.08502c0,0 -0.4574,-3.14623 -0.4574,-4.41771c0,-1.10114 0.4574,-2.77392 0.4574,-2.77392h27.101c0,0 0.6861,1.74219 0.6861,2.77392c0,1.30202 -0.6861,4.41771 -0.6861,4.41771z" fill="#434955" stroke="#000000" stroke-width="2.5" stroke-linecap="butt"/><path d="M967.40841,157.64331c0,2.63843 -2.38398,4.7773 -5.32478,4.7773c-2.9408,0 -5.32479,-2.13887 -5.32479,-4.7773c0,-2.63844 2.384,-4.7773 5.32479,-4.7773c2.9408,0 5.32478,2.13887 5.32478,4.7773z" fill="#585f6f" stroke="#000000" stroke-width="2.5" stroke-linecap="butt"/><path d="M961.44697,154.63822c0,-0.34045 0.31095,-0.61643 0.69454,-0.61643c0.38359,0 0.69454,0.27598 0.69454,0.61643c0,0.34045 -0.31095,0.61643 -0.69454,0.61643c-0.38359,0 -0.69454,-0.27598 -0.69454,-0.61643z" fill="#8d5d15" stroke="none" stroke-width="0.5" stroke-linecap="butt"/><path d="M961.67847,160.90522c0,-0.34045 0.31095,-0.61643 0.69454,-0.61643c0.38359,0 0.69454,0.27598 0.69454,0.61643c0,0.34045 -0.31095,0.61643 -0.69454,0.61643c-0.38359,0 -0.69454,-0.27598 -0.69454,-0.61643z" fill="#8d5d15" stroke="none" stroke-width="0.5" stroke-linecap="butt"/><path d="M959.24759,160.08332c0,-0.34045 0.31095,-0.61643 0.69454,-0.61643c0.38359,0 0.69454,0.27598 0.69454,0.61643c0,0.34045 -0.31095,0.61643 -0.69454,0.61643c-0.38359,0 -0.69454,-0.27598 -0.69454,-0.61643z" fill="#8d5d15" stroke="none" stroke-width="0.5" stroke-linecap="butt"/><path d="M958.09003,157.92583c0,-0.34045 0.31095,-0.61643 0.69454,-0.61643c0.38359,0 0.69454,0.27598 0.69454,0.61643c0,0.34045 -0.31095,0.61643 -0.69454,0.61643c-0.38359,0 -0.69454,-0.27598 -0.69454,-0.61643z" fill="#8d5d15" stroke="none" stroke-width="0.5" stroke-linecap="butt"/><path d="M959.01608,155.40876c0,-0.34045 0.31095,-0.61643 0.69454,-0.61643c0.38359,0 0.69454,0.27598 0.69454,0.61643c0,0.34045 -0.31095,0.61643 -0.69454,0.61643c-0.38359,0 -0.69454,-0.27598 -0.69454,-0.61643z" fill="#8d5d15" stroke="none" stroke-width="0.5" stroke-linecap="butt"/><path d="M964.10936,155.8197c0,-0.34045 0.31095,-0.61643 0.69454,-0.61643c0.38359,0 0.69454,0.27598 0.69454,0.61643c0,0.34045 -0.31095,0.61643 -0.69454,0.61643c-0.38359,0 -0.69454,-0.27599 -0.69454,-0.61643z" fill="#8d5d15" stroke="none" stroke-width="0.5" stroke-linecap="butt"/><path d="M964.74601,158.43953c0,-0.34045 0.31095,-0.61643 0.69454,-0.61643c0.38359,0 0.69454,0.27598 0.69454,0.61643c0,0.34045 -0.31095,0.61643 -0.69454,0.61643c-0.38359,0 -0.69454,-0.27598 -0.69454,-0.61643z" fill="#8d5d15" stroke="none" stroke-width="0.5" stroke-linecap="butt"/><path d="M963.76209,159.98059c0,-0.34045 0.31095,-0.61643 0.69454,-0.61643c0.38359,0 0.69454,0.27598 0.69454,0.61643c0,0.34045 -0.31095,0.61643 -0.69454,0.61643c-0.38359,0 -0.69454,-0.27598 -0.69454,-0.61643z" fill="#8d5d15" stroke="none" stroke-width="0.5" stroke-linecap="butt"/><path d="M960.46303,157.82309c0,-0.8511 0.77739,-1.54106 1.73634,-1.54106c0.95895,0 1.73634,0.68996 1.73634,1.54106c0,0.8511 -0.77739,1.54106 -1.73634,1.54106c-0.95895,0 -1.73634,-0.68996 -1.73634,-1.54106z" fill="#434955" stroke="none" stroke-width="0.5" stroke-linecap="butt"/><path d="M975.04832,157.38646l-7.63991,0.10274" fill="none" stroke="#000000" stroke-width="2.5" stroke-linecap="round"/><path d="M956.87458,157.18099l-8.21868,0.41095" fill="none" stroke="#000000" stroke-width="2.5" stroke-linecap="round"/></g><path d="M963.58845,133.22598l-1.54342,-4.52046" fill="none" stroke="#000000" stroke-width="2" stroke-linecap="round"/><path d="M940.12852,135.28074l3.70419,3.28761" fill="none" stroke="#000000" stroke-width="2" stroke-linecap="round"/></g><path d="M834.40144,161.49883l7.25374,-8.651l88.63165,-1.81067l26.52149,10.46167z" fill="#2d3139" stroke="#000000" stroke-width="2.5" stroke-linecap="butt"/><path d="M949.10124,155.86562l14.50748,-20.72216l8.16046,8.651l0.90672,-0.80475c0,0 -4.61845,13.26272 -8.94072,15.62342c-2.53116,1.38245 -14.63395,-2.74752 -14.63395,-2.74752z" fill="#191b1f" stroke="#000000" stroke-width="2.5" stroke-linecap="butt"/><path d="M840.29511,153.95437c0,12.05565 -11.56961,21.82867 -25.84145,21.82867c-14.27184,0 -25.84145,-9.77302 -25.84145,-21.82867c0,-12.05565 11.56961,-21.82868 25.84145,-21.82868c4.00536,0 8.9313,-1.84565 12.31497,-0.47172c1.40251,0.56949 0.89168,5.33488 2.09006,6.21484c0.58071,0.4264 7.72649,-0.96054 8.28645,-0.5368c5.43056,4.10943 3.14998,10.03205 3.14998,16.62236z" fill="#070e16" stroke="#000000" stroke-width="2.5" stroke-linecap="butt"/><path d="M835.53485,166.52848v-6.03558h119.91342v17.302c0,0 -2.09001,-0.56838 -7.07339,-3.83789c-3.18855,-2.09195 -8.09713,-7.42854 -12.64773,-7.42854c-25.19987,0 -67.22732,0 -81.15124,0c-4.27612,0 -16.11946,3.01778 -19.7211,3.01778c-3.85182,0 0.68004,-3.01778 0.68004,-3.01778z" fill="#2d3139" stroke="#000000" stroke-width="2.5" stroke-linecap="butt"/><path d="M836.44154,165.92493l14.50749,0.40237" fill="none" stroke="#000000" stroke-width="2.5" stroke-linecap="round"/><path d="M937.99394,166.3273l17.22764,-0.40237" fill="none" stroke="#000000" stroke-width="2.5" stroke-linecap="round"/><path d="M825.20042,157.51523c-3.6904,-5.6523 -10.19472,-9.7006 -15.89091,-13.59347c-11.66314,-7.97076 -26.87452,-1.65634 -30.57481,-0.18694c-9.99916,3.97073 -22.55923,28.94491 -23.41062,28.01968c-3.0937,-3.36205 -8.44327,-3.45941 -2.87322,-9.14229c3.5355,-16.4736 17.85162,-23.08891 23.58242,-25.85801c2.11303,-1.02102 14.35733,-5.429 24.89079,-3.8244c15.56618,2.37128 31.15307,12.63338 35.37347,23.70076c1.24139,3.25535 2.54442,9.85684 2.72591,13.12017c0.07134,1.28262 -7.01714,-1.34731 -7.11099,-0.07796c-0.32123,4.34553 -1.6026,-4.3318 -6.71204,-12.15756z" data-paper-data="{&quot;index&quot;:null}" fill="#ae7e26" stroke="#000000" stroke-width="2" stroke-linecap="butt"/><g><path d="M829.52783,172.46347c0,18.00013 -16.36491,32.59213 -36.55207,32.59213c-20.18714,0 -36.55207,-14.59199 -36.55207,-32.59213c0,-18.00013 16.36492,-32.59213 36.55207,-32.59213c20.18715,0 36.55207,14.59199 36.55207,32.59213z" fill="#141418" stroke="#000000" stroke-width="2.5" stroke-linecap="butt"/><path d="M814.56698,173.88601c0,10.45238 -9.36227,18.9257 -20.91118,18.9257c-11.54893,0 -20.91118,-8.47333 -20.91118,-18.9257c0,-10.45238 9.36227,-18.92571 20.91118,-18.92571c11.54893,0 20.91118,8.47333 20.91118,18.92571z" fill="#434955" stroke="#000000" stroke-width="2.5" stroke-linecap="butt"/><path d="M773.58643,179.47983c0,0 -0.67177,-4.62083 -0.67177,-6.48825c0,-1.61723 0.67177,-4.07401 0.67177,-4.07401h39.80289c0,0 1.00767,2.55873 1.00767,4.07401c0,1.91226 -1.00767,6.48825 -1.00767,6.48825z" fill="#434955" stroke="#000000" stroke-width="2.5" stroke-linecap="butt"/><path d="M801.81627,174.42503c0,3.87503 -3.50133,7.01636 -7.82044,7.01636c-4.31911,0 -7.82044,-3.14133 -7.82044,-7.01636c0,-3.87503 3.50133,-7.01636 7.82044,-7.01636c4.31911,0 7.82044,3.14133 7.82044,7.01636z" fill="#585f6f" stroke="#000000" stroke-width="2.5" stroke-linecap="butt"/><path d="M793.06077,170.01151c0,-0.49999 0.45669,-0.90533 1.02005,-0.90533c0.56336,0 1.02005,0.40534 1.02005,0.90533c0,0.49999 -0.45669,0.90533 -1.02005,0.90533c-0.56336,0 -1.02005,-0.40534 -1.02005,-0.90533z" fill="#8d5d15" stroke="none" stroke-width="0.5" stroke-linecap="butt"/><path d="M793.40079,179.21577c0,-0.49999 0.45669,-0.90533 1.02005,-0.90533c0.56336,0 1.02005,0.40534 1.02005,0.90533c0,0.49999 -0.45669,0.90533 -1.02005,0.90533c-0.56336,0 -1.02005,-0.40534 -1.02005,-0.90533z" fill="#8d5d15" stroke="none" stroke-width="0.5" stroke-linecap="butt"/><path d="M789.83059,178.00866c0,-0.49999 0.45669,-0.90533 1.02005,-0.90533c0.56336,0 1.02005,0.40534 1.02005,0.90533c0,0.49999 -0.45669,0.90533 -1.02005,0.90533c-0.56336,0 -1.02005,-0.40534 -1.02005,-0.90533z" fill="#8d5d15" stroke="none" stroke-width="0.5" stroke-linecap="butt"/><path d="M788.1305,174.83998c0,-0.49999 0.45669,-0.90533 1.02005,-0.90533c0.56336,0 1.02005,0.40534 1.02005,0.90533c0,0.49999 -0.45669,0.90533 -1.02005,0.90533c-0.56336,0 -1.02005,-0.40534 -1.02005,-0.90533z" fill="#8d5d15" stroke="none" stroke-width="0.5" stroke-linecap="butt"/><path d="M789.49057,171.14318c0,-0.49999 0.45669,-0.90533 1.02005,-0.90533c0.56336,0 1.02005,0.40534 1.02005,0.90533c0,0.49999 -0.45669,0.90533 -1.02005,0.90533c-0.56336,0 -1.02005,-0.40534 -1.02005,-0.90533z" fill="#8d5d15" stroke="none" stroke-width="0.5" stroke-linecap="butt"/><path d="M796.97099,171.74675c0,-0.49999 0.45669,-0.90533 1.02005,-0.90533c0.56336,0 1.02005,0.40534 1.02005,0.90533c0,0.49999 -0.45669,0.90533 -1.02005,0.90533c-0.56336,0 -1.02005,-0.40534 -1.02005,-0.90533z" fill="#8d5d15" stroke="none" stroke-width="0.5" stroke-linecap="butt"/><path d="M797.90606,175.59442c0,-0.49999 0.45669,-0.90533 1.02005,-0.90533c0.56336,0 1.02005,0.40534 1.02005,0.90533c0,0.49999 -0.45669,0.90533 -1.02005,0.90533c-0.56336,0 -1.02005,-0.40534 -1.02005,-0.90533z" fill="#8d5d15" stroke="none" stroke-width="0.5" stroke-linecap="butt"/><path d="M796.46096,177.85777c0,-0.49999 0.45669,-0.90533 1.02005,-0.90533c0.56336,0 1.02005,0.40534 1.02005,0.90533c0,0.49999 -0.45669,0.90533 -1.02005,0.90533c-0.56336,0 -1.02005,-0.40534 -1.02005,-0.90533z" fill="#8d5d15" stroke="none" stroke-width="0.5" stroke-linecap="butt"/><path d="M791.6157,174.68909c0,-1.25001 1.14173,-2.26334 2.55014,-2.26334c1.40841,0 2.55014,1.01333 2.55014,2.26334c0,1.25001 -1.14173,2.26334 -2.55014,2.26334c-1.40841,0 -2.55014,-1.01333 -2.55014,-2.26334z" fill="#434955" stroke="none" stroke-width="0.5" stroke-linecap="butt"/><path d="M801.81627,174.1987l11.22063,-0.15089" fill="none" stroke="#000000" stroke-width="2.5" stroke-linecap="round"/><path d="M786.34539,173.74603l-12.07068,0.60356" fill="none" stroke="#000000" stroke-width="2.5" stroke-linecap="round"/></g><path d="M778.74193,141.84607l-0.25095,-6.93369" data-paper-data="{&quot;index&quot;:null}" fill="none" stroke="#000000" stroke-width="2" stroke-linecap="round"/><path d="M808.60627,142.43084l3.40908,-6.12156" data-paper-data="{&quot;index&quot;:null}" fill="none" stroke="#000000" stroke-width="2" stroke-linecap="round"/><path d="M840.74846,158.48105v-12.67472h50.32284v12.67472z" fill="#191b1f" stroke="#000000" stroke-width="2.5" stroke-linecap="butt"/><path d="M839.01038,145.00158v-3.21898c0,0 -4.88445,-26.1092 -3.01578,-36.61217c0.53883,-3.02855 6.41705,-1.6237 7.24144,-1.78963c1.26877,-0.25539 7.12036,35.7864 7.71663,35.7864c7.60085,0 37.12965,0.40236 37.12965,0.40236l4.12552,5.43202c0,0 0.52907,1.81067 -1.30279,1.81067c-4.97343,0 -33.8771,1.07935 -47.35086,0.55275c-5.30145,-0.2072 -4.54377,-2.36343 -4.54377,-2.36343z" fill="#4c4f57" stroke="#000000" stroke-width="2.5" stroke-linecap="butt"/><g><path d="M961.13933,180.58936c-0.54738,-1.17566 -8.04926,0.03113 -8.44498,-1.20408c-1.00683,-3.14273 -0.41961,-6.46532 -0.41961,-9.90207c0,-19.59054 17.74703,-35.4718 37.4021,-35.4718c2.82275,0 6.62873,-1.40917 12.50185,-0.50254c6.42854,0.99236 14.9296,4.3607 17.49366,5.6895c7.32877,3.79807 6.23757,5.07822 4.52156,9.14309c-0.47224,1.11866 -9.50846,-8.51462 -20.41413,-9.4307c-4.03575,-0.33901 -22.36355,-0.01308 -30.53199,10.85551c-3.98941,5.30814 -8.68813,10.99346 -10.1421,17.39746c-2.01305,8.86651 -0.09244,17.45042 -1.96636,13.42566z" fill="#ae7e26" stroke="#000000" stroke-width="2" stroke-linecap="butt"/><g><path d="M1034.55937,173.06703c0,18.00013 -16.36492,32.59213 -36.55207,32.59213c-20.18714,0 -36.55207,-14.59199 -36.55207,-32.59213c0,-18.00013 16.36492,-32.59213 36.55207,-32.59213c20.18714,0 36.55207,14.59199 36.55207,32.59213z" fill="#141418" stroke="#000000" stroke-width="2.5" stroke-linecap="butt"/><path d="M1019.59853,174.48956c0,10.45238 -9.36227,18.9257 -20.91118,18.9257c-11.54893,0 -20.91118,-8.47333 -20.91118,-18.9257c0,-10.45238 9.36227,-18.92571 20.91118,-18.92571c11.54893,0 20.91118,8.47333 20.91118,18.92571z" fill="#434955" stroke="#000000" stroke-width="2.5" stroke-linecap="butt"/><path d="M978.61798,180.08339c0,0 -0.67178,-4.62083 -0.67178,-6.48825c0,-1.61723 0.67178,-4.07401 0.67178,-4.07401h39.80289c0,0 1.00767,2.55873 1.00767,4.07401c0,1.91226 -1.00767,6.48825 -1.00767,6.48825z" fill="#434955" stroke="#000000" stroke-width="2.5" stroke-linecap="butt"/><path d="M1006.84781,175.0286c0,3.87503 -3.50133,7.01636 -7.82044,7.01636c-4.31911,0 -7.82044,-3.14133 -7.82044,-7.01636c0,-3.87503 3.50133,-7.01636 7.82044,-7.01636c4.31911,0 7.82044,3.14133 7.82044,7.01636z" fill="#585f6f" stroke="#000000" stroke-width="2.5" stroke-linecap="butt"/><path d="M998.09233,170.61507c0,-0.49999 0.4567,-0.90533 1.02005,-0.90533c0.56335,0 1.02005,0.40534 1.02005,0.90533c0,0.49999 -0.4567,0.90533 -1.02005,0.90533c-0.56335,0 -1.02005,-0.40534 -1.02005,-0.90533z" fill="#8d5d15" stroke="none" stroke-width="0.5" stroke-linecap="butt"/><path d="M998.43234,179.81933c0,-0.49999 0.4567,-0.90533 1.02005,-0.90533c0.56335,0 1.02005,0.40534 1.02005,0.90533c0,0.49999 -0.4567,0.90533 -1.02005,0.90533c-0.56335,0 -1.02005,-0.40534 -1.02005,-0.90533z" fill="#8d5d15" stroke="none" stroke-width="0.5" stroke-linecap="butt"/><path d="M994.86215,178.61222c0,-0.49999 0.4567,-0.90533 1.02005,-0.90533c0.56335,0 1.02005,0.40534 1.02005,0.90533c0,0.49999 -0.4567,0.90533 -1.02005,0.90533c-0.56335,0 -1.02005,-0.40534 -1.02005,-0.90533z" fill="#8d5d15" stroke="none" stroke-width="0.5" stroke-linecap="butt"/><path d="M993.16205,175.44354c0,-0.49999 0.4567,-0.90533 1.02005,-0.90533c0.56335,0 1.02005,0.40534 1.02005,0.90533c0,0.49999 -0.4567,0.90533 -1.02005,0.90533c-0.56335,0 -1.02005,-0.40534 -1.02005,-0.90533z" fill="#8d5d15" stroke="none" stroke-width="0.5" stroke-linecap="butt"/><path d="M994.52212,171.74675c0,-0.49999 0.4567,-0.90533 1.02005,-0.90533c0.56335,0 1.02005,0.40534 1.02005,0.90533c0,0.49999 -0.4567,0.90533 -1.02005,0.90533c-0.56335,0 -1.02005,-0.40534 -1.02005,-0.90533z" fill="#8d5d15" stroke="none" stroke-width="0.5" stroke-linecap="butt"/><path d="M1002.00254,172.3503c0,-0.49999 0.4567,-0.90533 1.02005,-0.90533c0.56335,0 1.02005,0.40534 1.02005,0.90533c0,0.49999 -0.4567,0.90533 -1.02005,0.90533c-0.56335,0 -1.02005,-0.40534 -1.02005,-0.90533z" fill="#8d5d15" stroke="none" stroke-width="0.5" stroke-linecap="butt"/><path d="M1002.9376,176.19799c0,-0.49999 0.4567,-0.90533 1.02005,-0.90533c0.56335,0 1.02005,0.40534 1.02005,0.90533c0,0.49999 -0.4567,0.90533 -1.02005,0.90533c-0.56335,0 -1.02005,-0.40534 -1.02005,-0.90533z" fill="#8d5d15" stroke="none" stroke-width="0.5" stroke-linecap="butt"/><path d="M1001.49252,178.46133c0,-0.49999 0.4567,-0.90533 1.02005,-0.90533c0.56335,0 1.02005,0.40534 1.02005,0.90533c0,0.49999 -0.4567,0.90533 -1.02005,0.90533c-0.56335,0 -1.02005,-0.40534 -1.02005,-0.90533z" fill="#8d5d15" stroke="none" stroke-width="0.5" stroke-linecap="butt"/><path d="M996.64725,175.29265c0,-1.25001 1.14173,-2.26334 2.55014,-2.26334c1.40841,0 2.55014,1.01333 2.55014,2.26334c0,1.25001 -1.14173,2.26334 -2.55014,2.26334c-1.40841,0 -2.55014,-1.01333 -2.55014,-2.26334z" fill="#434955" stroke="none" stroke-width="0.5" stroke-linecap="butt"/><path d="M1006.84783,174.80226l11.22063,-0.15089" fill="none" stroke="#000000" stroke-width="2.5" stroke-linecap="round"/><path d="M979.30627,174.95315l12.07068,-0.60356" fill="none" stroke="#000000" stroke-width="2.5" stroke-linecap="round"/></g><path d="M998.97071,132.52805l2.26679,6.63914" fill="none" stroke="#000000" stroke-width="2" stroke-linecap="round"/><path d="M972.22255,147.01346l-5.44031,-4.82847" fill="none" stroke="#000000" stroke-width="2" stroke-linecap="round"/></g><path d="M837.38835,159.71043l-7.73063,-55.92724l8.10384,-0.85173l7.73063,57.93909z" fill="#191b1f" stroke="#000000" stroke-width="2.5" stroke-linecap="butt"/><path d="M844.14866,144.59922l7.93377,-7.2427" fill="none" stroke="#000000" stroke-width="2.5" stroke-linecap="round"/><path d="M954.71069,159.22173c-0.79412,1.51031 -2.73446,3.0158 -9.08747,0.3845c-6.35301,-2.63131 -14.93959,-7.19588 -14.14547,-8.70619c0.79412,-1.51031 4.5479,-0.80276 10.90091,1.82855c6.35301,2.63131 13.12616,4.98282 12.33203,6.49314z" fill="#070e16" stroke="#000000" stroke-width="2.5" stroke-linecap="butt"/><path d="M935.04711,150.4336c0,0 9.38576,-15.87743 10.0851,-18.0498c0.18118,-0.56278 0.56885,-0.45931 0.56885,-0.45931l20.17447,3.62135l-15.86756,21.32571z" fill="#191b1f" stroke="#000000" stroke-width="2.5" stroke-linecap="butt"/><path d="M946.32441,144.39803l5.44031,-10.56226" fill="none" stroke="#000000" stroke-width="2.5" stroke-linecap="round"/><path d="M939.52402,147.11404l9.18053,2.71601" fill="none" stroke="#000000" stroke-width="2.5" stroke-linecap="round"/><path d="M892.9414,154.65852l37.4021,-0.60356" fill="none" stroke="#000000" stroke-width="2.5" stroke-linecap="round"/></g><path d="M886.38802,146.36772l6.93807,-21.11178l3.33129,0.25447l-3.81827,21.979z" fill="#191b1f" stroke="#000000" stroke-width="2.5" stroke-linecap="butt"/><g fill="#191b1f" stroke="#000000" stroke-width="2.5" stroke-linecap="butt"><path d="M895.1444,158.57779l-21.05202,-0.78287c0,0 2.88301,-10.77639 7.13894,-13.97711c5.42845,-4.08252 22.77865,-8.52273 22.77865,-8.52273l1.46529,22.75876z"/><path d="M906.59883,158.74437c0,0.76988 -7.61107,1.39399 -16.99981,1.39399c-9.38873,0 -49.41497,-0.42292 -49.41497,-1.19281c0,-0.76988 40.02623,-1.59518 49.41497,-1.59518c9.38873,0 16.99981,0.62411 16.99981,1.39399z"/></g><path d="M897.47903,127.27452c-1.65584,1.18666 -3.98642,1.0624 -5.20548,-0.27755c-1.21906,-1.33995 -0.86497,-3.38817 0.79089,-4.57484c1.65584,-1.18666 3.98642,-1.0624 5.20548,0.27755c1.21906,1.33995 0.86497,3.38817 -0.79089,4.57484z" fill="#1f1919" stroke="#000000" stroke-width="2.5" stroke-linecap="butt"/></g><path d="M351.08852,237.28454c2.31774,2.13665 3.856,4.12539 3.5407,4.14148c-0.28381,0.01446 0.46168,0.83939 -2.71092,1.59855c-2.43203,0.58194 -8.5923,1.11852 -10.67896,1.26218c-3.63131,0.24999 -4.34532,-1.63283 -4.47334,-1.70179c-0.41419,-0.22313 -1.11968,-3.25664 -1.91693,-7.49445c1.8713,-0.28496 3.73935,-0.58209 5.60755,-0.8859c1.98837,-0.32333 3.95121,-0.71749 5.91008,-1.13113c1.04735,1.13553 3.09148,2.70814 4.72178,4.21105z" data-paper-data="{&quot;index&quot;:null}" fill="#ffffff" stroke="#000000" stroke-width="2" stroke-linecap="butt"/><path d="M347.97365,233.37374c0.73968,1.02816 0.65796,0.88646 -4.22607,4.56597c-4.88403,3.67952 -9.44294,5.82886 -10.18262,4.80069c-0.14292,-0.19867 -1.65188,-2.11904 -3.12626,-5.24553c-6.35082,-13.46746 -26.05296,-44.53729 -26.05296,-44.53729c0,0 12.8874,-9.38398 19.39575,0.68428c3.69173,5.71101 14.52042,23.67963 20.35884,33.37787c0.78304,1.30074 2.61626,2.73345 3.19051,3.68713c1.08326,1.79899 0.60307,2.6116 0.64283,2.66685z" data-paper-data="{&quot;index&quot;:null}" fill="#a68f79" stroke="#000000" stroke-width="1.5" stroke-linecap="butt"/><path d="M305.16179,242.46657c-0.47118,3.62812 -1.07082,8.00105 -3.65873,6.13562c-1.98384,-1.42998 -6.25774,-5.61823 -7.67489,-7.05989c-2.46621,-2.50891 -1.40317,-4.16896 -1.4278,-4.30436c-0.08639,-0.47514 2.26167,-3.19731 5.56173,-6.743c0.63319,0.56722 1.26988,1.13059 1.91276,1.6873c1.99637,1.72878 3.99041,3.46011 5.98149,5.19496c0.11,0.09584 0.22009,0.19159 0.33024,0.28723c-1.15362,1.39843 -0.74593,2.65449 -1.02484,4.80212z" data-paper-data="{&quot;index&quot;:null}" fill="#ffffff" stroke="#000000" stroke-width="2" stroke-linecap="butt"/><path d="M306.19838,244.75483c-0.84699,0.94022 -0.72625,0.83063 -5.24809,-3.24276c-4.52184,-4.07339 -7.50089,-8.1377 -6.65388,-9.07793c0.16367,-0.18169 1.72043,-2.06371 4.4494,-4.15749c1.33209,-1.02203 3.73786,-3.03051 5.37996,-4.42148c2.95553,-2.50349 -0.91212,-17.10681 2.51335,-20.24352c1.2317,-1.12786 8.09846,1.36456 9.3454,0.40037c1.42648,2.41684 3.20598,4.77478 5.31162,7.52269l0.31253,0.10444c1.48431,1.3371 -2.23049,-3.76553 -0.47837,-2.82542c-1.23445,4.78235 0.01378,21.099 -1.86216,22.87569c-4.13078,3.91224 -4.60874,5.07941 -7.68926,7.98349c-1.10179,1.03868 -2.1232,3.14142 -2.93097,3.90311c-1.52377,1.43679 -2.40396,1.12824 -2.44948,1.17879z" fill="#a68f79" stroke="#000000" stroke-width="1.5" stroke-linecap="butt"/><g stroke="#000000" stroke-width="2" stroke-linecap="butt"><path d="M328.60348,183.96592c0.16212,-0.0716 0.32333,-0.14592 0.48355,-0.22345c2.21693,-1.0727 4.41185,-2.06323 6.71264,-2.91779c0.99363,-0.36906 1.99285,-0.71086 2.97304,-1.08447c5.03699,12.19098 9.52319,21.9221 4.007,24.19069c-6.08664,2.38628 -9.14076,-7.67866 -14.17622,-19.96497z" data-paper-data="{&quot;index&quot;:null}" fill="#ffffff"/><path d="M328.52929,184.76478c-2.91062,-5.90877 -4.91501,-11.92684 -6.10834,-16.2793c-1.25307,-4.57039 -2.43773,-6.7642 -0.9608,-7.49698c5.71629,0.35147 11.54383,6.48202 17.5108,18.59545c0.03805,0.07725 0.07607,0.1544 0.11408,0.23146c-1.00998,0.44232 -2.04212,0.85315 -3.0645,1.29341c-2.39758,1.03245 -4.67764,2.19395 -6.97664,3.43966c-0.16366,0.08868 -0.32851,0.1743 -0.49442,0.25729c-0.00673,-0.01366 -0.01344,-0.02732 -0.02018,-0.04099z" data-paper-data="{&quot;index&quot;:null}" fill="#334865"/></g><path d="M306.29198,168.28902c2.19193,-13.48842 10.56645,-12.42431 10.56645,-12.42431c0,0 9.18428,1.37494 11.82799,8.74854c2.93964,8.19897 2.65695,35.16565 3.67041,43.6576c-0.90096,-0.01871 1.7217,-1.23945 0.82075,-1.25816c-0.65677,-0.01364 -1.31454,-0.03147 -1.97296,-0.05081c-2.83711,-0.08335 -5.6863,-0.19473 -8.5196,-0.11942c-3.49662,0.09293 -6.99322,0.18589 -10.48984,0.27882c-2.15419,0.05728 -4.32377,0.21753 -6.48334,0.25647c-0.24124,-8.11262 -0.76809,-30.79232 0.58013,-39.08873z" fill="#334865" stroke="#000000" stroke-width="2" stroke-linecap="butt"/><path d="M315.24777,191.47446l-2.69174,10.51827" fill="none" stroke="#000000" stroke-width="2" stroke-linecap="round"/><path d="M329.75874,200.76518l-2.24904,-7.15878" fill="none" stroke="#000000" stroke-width="2" stroke-linecap="round"/><path d="M326.82774,161.47959c0.19892,2.94024 -2.48992,4.76031 -7.00423,5.06573c-4.51431,0.30543 -8.33514,-1.83053 -8.53406,-4.77077c-0.19892,-2.94024 3.2994,-5.57138 7.81369,-5.8768c4.51431,-0.30543 7.52568,2.6416 7.7246,5.58184z" fill="#1b2737" stroke="none" stroke-width="0" stroke-linecap="butt"/><path d="M325.71825,160.19367c0.13464,1.98988 -1.85561,3.74498 -5.24134,3.97406c-3.38574,0.22907 -6.88484,-1.15467 -7.01947,-3.14452c-0.13464,-1.98988 2.50091,-3.78865 5.88665,-4.01772c3.38574,-0.22907 6.23955,1.19834 6.37417,3.1882z" fill="#ffffff" stroke="#000000" stroke-width="1.5" stroke-linecap="butt"/><path d="M344.27756,140.14601c-1.5195,12.85037 -12.57959,22.1055 -24.70344,20.67193c-12.12383,-1.43358 -20.72035,-13.013 -19.20086,-25.86337c1.5195,-12.85037 12.57958,-22.1055 24.70343,-20.67192c12.12383,1.43358 20.72035,13.01299 19.20087,25.86336z" fill="#ffffff" stroke="#000000" stroke-width="2" stroke-linecap="butt"/><path d="M316.95842,139.87581c0.06552,-2.08101 0.96506,-3.74133 2.00918,-3.70848c1.04413,0.03286 1.83749,1.74648 1.772,3.8275c-0.06552,2.08101 -0.96503,3.74135 -2.00919,3.70849c-1.04413,-0.03286 -1.8375,-1.7465 -1.77201,-3.82752z" data-paper-data="{&quot;index&quot;:null}" fill="#000000" stroke="none" stroke-width="0.5" stroke-linecap="butt"/><path d="M331.67438,140.71647c0.06417,-2.03877 0.86443,-3.66798 1.78744,-3.63896c0.923,0.02905 1.61924,1.70538 1.55506,3.74414c-0.06417,2.03877 -0.86443,3.66798 -1.78744,3.63896c-0.923,-0.02905 -1.61923,-1.70538 -1.55506,-3.74415z" data-paper-data="{&quot;index&quot;:null}" fill="#000000" stroke="none" stroke-width="0.5" stroke-linecap="butt"/><path d="M308.43797,145.56178l28.10849,2.39455" fill="none" stroke="#000000" stroke-width="1.5" stroke-linecap="round"/><path d="M309.23665,143.54419l-1.44627,3.3097" fill="none" stroke="#000000" stroke-width="1.5" stroke-linecap="round"/><path d="M296.92073,204.12544c-6.04243,-0.82676 -4.10476,-11.61071 -2.25448,-24.97071c1.06609,0.11771 2.14286,0.19905 3.22112,0.30881c2.49671,0.25414 4.92362,0.67004 7.39343,1.16163c0.17849,0.03552 0.35715,0.06763 0.53599,0.0968c-1.82423,13.45395 -2.25884,24.20006 -8.89607,23.40348z" data-paper-data="{&quot;index&quot;:null}" fill="#ffffff" stroke="#000000" stroke-width="2" stroke-linecap="butt"/><path d="M305.07698,184.45397c-0.00714,0.01387 -0.01425,0.02772 -0.02136,0.04157c-0.1761,-0.09434 -0.35111,-0.19137 -0.52482,-0.29152c-2.44049,-1.40679 -4.86081,-2.72518 -7.40562,-3.91533c-1.08517,-0.5075 -2.18068,-0.98492 -3.2527,-1.49394c0.04023,-0.07816 0.08048,-0.15641 0.12077,-0.2348c6.31595,-12.288 12.49109,-18.3689 18.5551,-18.45305c1.56772,0.83367 0.31355,3.05398 -1.01041,7.73929c-1.26081,4.4619 -3.38009,10.61387 -6.46095,16.6078z" data-paper-data="{&quot;index&quot;:null}" fill="#334865" stroke="#000000" stroke-width="2" stroke-linecap="butt"/><path d="M313.91041,164.44232c0.25242,3.73084 -0.01059,10.2701 -0.87684,10.32872c-0.86624,0.05861 -2.56638,-3.4652 -2.8188,-7.19604c-0.25242,-3.73084 0.24517,-6.8028 1.11141,-6.86141c0.86624,-0.05861 2.33179,-0.00211 2.58421,3.72874z" fill="#334865" stroke="none" stroke-width="0" stroke-linecap="butt"/><g stroke-linecap="butt"><path d="M346.27443,136.39644c0.1828,9.1572 -4.27778,17.01307 -11.15963,21.56229c-0.71513,0.47272 0.208,-0.18698 1.45209,0.34857c1.97466,0.85002 2.03352,1.89899 -1.49415,2.66983c-3.80402,0.83121 -9.79309,1.42304 -15.67304,1.41929c-3.89104,-0.00248 -8.53851,-0.51612 -9.58684,-0.49519c-2.44529,0.04882 -4.95698,-1.53629 -3.14521,-2.75412c1.34066,-0.90116 1.18835,-0.7677 0.60151,-1.16406c-6.53884,-4.41664 -10.82875,-11.97117 -11.00542,-20.82098c-0.28598,-14.32555 10.3144,-26.6204 24.24868,-26.89856c13.93428,-0.27817 25.47604,11.80739 25.76201,26.13296z" fill="url(#color-1)" stroke="#111111" stroke-width="2"/><path d="M337.67923,122.53648c0.62666,2.5676 -1.35868,3.97949 -3.82932,2.97853c-0.45387,-0.18389 -1.79187,-2.41599 -2.32389,-2.76277c-1.54577,-1.00756 -4.0356,-0.82746 -4.98286,-2.4109c-0.74538,-0.42009 -1.25563,-1.21216 -1.27394,-2.12955c-0.02756,-1.38044 1.06917,-2.52184 2.4496,-2.5494c0.52323,-0.01044 1.01212,0.14064 1.41903,0.40747c3.47341,0.06239 7.74305,3.19578 8.54134,6.46663z" fill="#ffffff" stroke="none" stroke-width="0.5"/></g></g></g></svg>