<svg version="1.1" xmlns="http://www.w3.org/2000/svg" xmlns:xlink="http://www.w3.org/1999/xlink" width="58.55992" height="145.52948" viewBox="0,0,58.55992,145.52948"><g transform="translate(-307.08743,-108.39471)"><g data-paper-data="{&quot;isPaintingLayer&quot;:true}" fill-rule="nonzero" stroke-linejoin="miter" stroke-miterlimit="10" stroke-dasharray="" stroke-dashoffset="0" style="mix-blend-mode: normal"><g data-paper-data="{&quot;index&quot;:null}" stroke="#000000" stroke-width="2" stroke-linecap="butt"><path d="M309.07819,166.77303c3.9773,-4.83617 9.61001,2.72855 17.50561,11.37881c-0.10335,0.13594 -0.20509,0.2739 -0.30503,0.41426c-1.38293,1.94205 -2.77522,3.80136 -4.294,5.58737c-0.65592,0.77131 -1.32498,1.52092 -1.96892,2.29026c-7.86602,-8.565 -14.508,-15.1938 -10.93766,-19.6707z" data-paper-data="{&quot;index&quot;:null}" fill="#ffe4cb"/><path d="M324.44282,174.3046c0,0 6.85183,-14.78709 9.18823,-11.45892c0.63872,0.92099 1.58367,0.11517 1.90787,1.12075c2.58186,8.0081 -4.36435,19.7974 -5.17766,20.96117c-0.98492,0.48291 -5.83664,4.10121 -9.75899,1.91086c-6.04351,-3.37486 -11.6948,-13.2893 -11.70977,-13.30341c0.64502,-0.84362 7.59778,-7.23362 8.25312,-8.08096c1.53683,-1.98704 7.29719,8.8505 7.29719,8.8505z" data-paper-data="{&quot;index&quot;:null}" fill="#161617"/></g><path d="M323.19324,114.18059c1.70056,-1.43363 4.46993,-3.53792 7.65949,-4.40111c4.44642,-1.20333 9.56575,-0.86367 12.4711,-0.63477c8.86968,0.6988 16.77685,8.49709 19.7285,17.94556c1.2118,3.87906 2.0837,11.49502 1.78653,15.37163c-0.61967,8.08364 -6.06757,12.52218 -12.06037,17.01162c-1.51729,1.13667 1.79625,3.74517 0.25912,5.32544c-2.39494,2.46218 -10.40341,1.90664 -13.39876,1.67064c-2.12097,-0.16711 -6.34497,-0.90889 -8.33531,-2.45831c-1.95473,-1.52172 -1.68015,-3.84069 -3.29098,-5.17004c-6.42394,-5.30141 -10.98185,-14.17708 -10.30391,-23.02068c0.61384,-8.00743 -0.65284,-16.46591 5.48463,-21.63998z" data-paper-data="{&quot;index&quot;:null}" fill="#161617" stroke="#000000" stroke-width="1.5" stroke-linecap="butt"/><path d="M318.02299,240.20195c1.12725,-1.67819 2.59116,-3.47486 3.2878,-4.72065c1.71402,0.17246 3.42826,0.32524 5.15247,0.4051c1.62,0.07504 3.23879,0.14353 4.85835,0.1996c0.01629,4.27525 -0.0854,7.35175 -0.3975,7.62161c-0.09645,0.08339 -0.39173,2.0261 -3.48544,2.21608c-1.77771,0.10916 -7.04422,0.3205 -9.18336,0.03893c-2.79051,-0.3673 -2.29736,-1.27047 -2.53833,-1.25064c-0.26771,0.02203 0.70343,-2.12423 2.306,-4.51005z" data-paper-data="{&quot;index&quot;:null}" fill="#ffffff" stroke="#000000" stroke-width="2" stroke-linecap="butt"/><path d="M345.11498,244.46751c1.08983,-1.87146 2.17941,-2.61761 2.11908,-4.42947c0.14563,-0.00853 0.29127,-0.01718 0.43691,-0.02596c2.63607,-0.15903 5.27232,-0.31347 7.90886,-0.46448c0.84903,-0.04862 1.69724,-0.10633 2.545,-0.16919c0.45009,4.82285 0.64869,8.41229 0.29025,8.73594c-0.10214,0.09223 -0.27323,2.05604 -3.7581,2.53825c-2.00248,0.27708 -7.94426,0.9863 -10.38851,0.90825c-3.18854,-0.1018 -0.99459,-3.93178 0.84651,-7.09335z" data-paper-data="{&quot;index&quot;:null}" fill="#ffffff" stroke="#000000" stroke-width="2" stroke-linecap="butt"/><path d="M318.68354,236.77512c0.02016,-0.06496 -0.57444,-0.62622 -0.09483,-2.66296c0.25425,-1.07971 1.44829,-3.06085 1.7949,-4.53343c2.58439,-10.97938 7.38229,-31.32591 9.1164,-37.88518c3.05717,-11.56374 16.06712,-7.79885 16.06712,-7.79885c0,0 -9.11452,35.54339 -11.23342,50.1399c-0.49192,3.38859 -1.29895,5.69324 -1.3714,5.92678c-0.375,1.20864 -4.69962,0.94098 -9.65932,-0.59786c-4.9597,-1.53884 -4.99447,-1.37974 -4.61946,-2.58838z" data-paper-data="{&quot;index&quot;:null}" fill="#282833" stroke="#000000" stroke-width="1.5" stroke-linecap="butt"/><path d="M344.1398,243.37776c-0.00178,-0.06799 -0.87135,-0.40531 -1.09622,-2.48753c-0.11921,-1.10382 0.47049,-3.36594 0.30774,-4.87136c-1.21338,-11.22424 -3.45236,-32.02737 -3.96593,-38.79483c-0.90543,-11.93074 14.95246,-12.60396 14.95246,-12.60396c0,0 3.09671,36.57957 6.1732,51.07309c0.71421,3.36469 0.6749,5.80681 0.68127,6.05125c0.033,1.26505 -4.87224,2.41923 -10.95618,2.57793c-6.08394,0.15871 -6.06338,0.32047 -6.09637,-0.94458z" data-paper-data="{&quot;index&quot;:null}" fill="#282833" stroke="#000000" stroke-width="1.5" stroke-linecap="butt"/><path d="M353.61169,165.77443c1.81021,8.21672 2.47716,30.89398 2.66207,39.00843c-2.19712,0.07157 -4.41084,0.02244 -6.60347,0.07541c-3.55899,0.086 -7.11797,0.17197 -10.67695,0.25799c-3.5531,0.08584 -7.11569,0.45598 -10.65591,0.70659c-0.91477,0.06477 -1.82956,0.1295 -2.74434,0.19427c0.5799,-8.53277 2.5081,-34.42978 5.06136,-42.76847c2.2962,-7.49925 11.55848,-9.34208 11.55848,-9.34208c0,0 8.45569,-1.491 11.39875,11.86785z" data-paper-data="{&quot;index&quot;:null}" fill="#161617" stroke="#000000" stroke-width="2" stroke-linecap="butt"/><path d="M347.6965,199.35002l-3.23109,-10.3653" data-paper-data="{&quot;index&quot;:null}" fill="none" stroke="#000000" stroke-width="2" stroke-linecap="round"/><path d="M330.10469,198.26507l1.87652,-7.26532" data-paper-data="{&quot;index&quot;:null}" fill="none" stroke="#000000" stroke-width="2" stroke-linecap="round"/><path d="M340.24293,154.06272c4.52405,0.07199 8.15351,2.51904 8.10663,5.46563c-0.04688,2.94659 -3.75237,5.27691 -8.27642,5.20492c-4.52406,-0.07199 -7.30326,-1.75083 -7.25638,-4.69742c0.04688,-2.94659 2.90212,-6.04512 7.42618,-5.97313z" data-paper-data="{&quot;index&quot;:null}" fill="#161617" stroke="none" stroke-width="0" stroke-linecap="butt"/><path d="M333.85838,158.69437c0.03174,-1.99415 2.80807,-3.56696 6.2011,-3.51296c3.39305,0.05399 6.11793,1.71433 6.0862,3.70849c-0.03174,1.99414 -3.45475,3.55668 -6.8478,3.50268c-3.39304,-0.05399 -5.47122,-1.70404 -5.43948,-3.6982z" data-paper-data="{&quot;index&quot;:null}" fill="#ffffff" stroke="#000000" stroke-width="1.5" stroke-linecap="butt"/><path d="M316.99813,136.97709c-0.33695,-12.9355 9.28332,-23.67951 21.48748,-23.99743c12.20415,-0.31792 22.37073,9.91065 22.7077,22.84617c0.33697,12.93551 -9.28328,23.67953 -21.48744,23.99744c-12.20416,0.31791 -22.37075,-9.91066 -22.70772,-22.84618z" data-paper-data="{&quot;index&quot;:null}" fill="#ffe4cb" stroke="#000000" stroke-width="2" stroke-linecap="butt"/><path d="M338.38418,143.46774c-1.25116,-0.38518 -2.05766,-1.93456 -1.80139,-3.46065c0.2563,-1.52611 1.47834,-2.451 2.72948,-2.06582c1.25116,0.38518 2.0577,1.93458 1.8014,3.46067c-0.2563,1.5261 -1.47835,2.451 -2.72949,2.06582z" data-paper-data="{&quot;index&quot;:null}" fill="#ffffff" stroke="#000000" stroke-width="1" stroke-linecap="butt"/><path d="M325.11551,144.11907c-1.07615,-0.34063 -1.80687,-1.88171 -1.63205,-3.4421c0.17482,-1.56039 1.18894,-2.54925 2.26514,-2.20864c1.07615,0.34063 1.80687,1.88172 1.63205,3.44211c-0.17482,1.56039 -1.18894,2.54925 -2.26514,2.20864z" data-paper-data="{&quot;index&quot;:null}" fill="#ffffff" stroke="#000000" stroke-width="1" stroke-linecap="butt"/><path d="M347.53319,162.1883c0.0595,-3.7389 1.52019,-3.87098 2.38829,-3.85717c0.86811,0.01381 1.52361,3.056 1.46411,6.79489c-0.0595,3.73889 -1.57548,7.34576 -2.44359,7.33195c-0.86812,-0.01381 -1.46832,-6.53078 -1.40883,-10.26967z" data-paper-data="{&quot;index&quot;:null}" fill="#161617" stroke="none" stroke-width="0" stroke-linecap="butt"/><path d="M327.19009,169.69514c0.05845,-0.22438 0.21202,-1.1483 0.74102,-2.21858c0.66991,-1.3554 1.7901,-2.94789 2.40525,-3.67809c1.37279,-1.62951 1.99594,-0.47219 2.27569,-0.39931c0.50412,0.13132 -2.01525,4.01424 -2.31293,5.15687c-0.29766,1.14264 -3.00161,4.57113 -3.50572,4.4398c-0.50411,-0.13131 0.09904,-2.15804 0.3967,-3.30066z" data-paper-data="{&quot;index&quot;:null}" fill="#161617" stroke="none" stroke-width="0" stroke-linecap="butt"/><path d="M337.49094,113.53134c2.1805,0.02754 8.69072,0.48386 13.12438,2.72896c1.54226,0.78095 7.91812,5.4013 9.92283,10.98091c1.63842,4.56017 -0.90463,10.3355 -0.90551,10.40497c-0.0009,0.07088 0.05579,2.27471 -0.59212,1.1473c-1.36098,-2.36816 -4.43901,-9.55855 -7.92092,-12.77622c-4.18774,-3.86993 -10.11794,-5.55217 -11.7158,-5.57235c-3.55889,-0.04495 -16.33357,-0.08517 -16.32852,-0.484c0.00503,-0.39884 10.8568,-6.47453 14.41567,-6.42958z" data-paper-data="{&quot;index&quot;:null}" fill="#161617" stroke="none" stroke-width="0" stroke-linecap="butt"/><path d="M356.69262,146.23673c3.07979,-8.56508 2.70245,-19.42775 3.6879,-19.4153c1.81011,0.02286 2.41444,6.79015 2.34896,11.97507c-0.06549,5.18492 -6.36029,17.86555 -8.17041,17.84269c-1.81011,-0.02286 -8.83682,9.01892 -8.77134,3.83399c0.02984,-2.3622 8.32757,-7.06876 10.90489,-14.23645z" data-paper-data="{&quot;index&quot;:null}" fill="#161617" stroke="none" stroke-width="0" stroke-linecap="butt"/><path d="M348.95251,114.01148c1.69659,0.69754 3.52563,1.33672 5.06151,2.34292c1.6462,1.0785 3.13768,3.59737 4.3155,5.86495l1.3584,1.40476c0.17706,0.18299 0.28473,0.43325 0.28126,0.708c-0.00156,0.12365 -0.02549,0.24176 -0.06792,0.35056c0.14668,0.26897 0.26827,0.72348 -0.19035,1.17067c-0.71598,0.69812 -1.41409,-0.01785 -1.41409,-0.01785c-1.83111,-1.88716 -4.10453,-3.14194 -6.00308,-4.92147l-0.75458,-0.66349c-0.21428,-0.18616 -0.34834,-0.46183 -0.34448,-0.7679c0.00696,-0.55224 0.46031,-0.99426 1.01254,-0.9873c0.23627,0.00297 0.45236,0.08767 0.62175,0.22685l1.53332,1.23639l-0.06099,0.07562c0.0306,0.02637 0.06126,0.05266 0.09201,0.07884c0.06362,0.03154 0.12704,0.0633 0.19027,0.09535c-0.28443,-0.54868 -0.59853,-1.09553 -1.01106,-1.58348c-0.56771,-0.67153 -1.38825,-1.15915 -2.27567,-1.5599c-0.12448,0.05334 -0.26188,0.0821 -0.40602,0.08028l-1.33323,-0.01685l0.00086,-0.06828l-0.16796,0.05209c-0.47286,-0.17086 -0.90108,-0.43146 -1.29696,-0.74641c-0.01599,0.00182 -0.03201,0.0036 -0.04804,0.00534l-0.13042,0.17238l-0.18864,-0.1427c-2.02763,0.15778 -4.33626,-0.23949 -5.84979,-1.10322l-1.00295,-0.31475c-0.1626,-0.04694 -0.30799,-0.13396 -0.42494,-0.24958c-0.5051,0.22175 -1.01727,0.43201 -1.59412,0.48072c-0.02411,0.00205 -0.04836,0.00376 -0.07279,0.00517c-0.27054,0.3002 -0.61291,0.56586 -0.90888,0.78334c-0.35451,0.26049 -0.89642,-0.09889 -1.31959,0.0214c-0.93893,0.2669 -2.65287,1.68034 -3.49095,2.14254c-0.61601,0.19345 -1.86316,0.47207 -3.08651,0.48507c-0.0554,0.47884 -0.44832,0.85297 -0.9323,0.88204l-1.26496,0.08934c-2.03096,0.47367 -3.74235,0.79474 -5.85655,0.93165c0,0 -0.99793,0.06409 -1.06204,-0.93384c-0.05191,-0.80834 0.59296,-1.00397 0.83989,-1.04913l-0.2362,-0.0227c-0.51739,-0.04423 -0.92038,-0.48148 -0.91371,-1.00896c0.00583,-0.46136 0.3232,-0.84581 0.74951,-0.95576l1.90307,-0.53783l0.09172,0.32454c1.30846,-0.45064 2.63384,-0.71729 3.96993,-0.92478c0.1626,-0.27003 0.33833,-0.53486 0.47679,-0.79319c0.25335,-0.47268 0.60688,-0.90356 1.02328,-1.24155c3.49434,-2.83618 8.35174,-2.66917 12.37723,-1.92886c0.93128,0.17128 2.82525,0.19931 4.16078,0.59249c0.93026,0.00444 1.86,0.02377 2.76291,0.03421l0.44441,0.00561c0,0 0.99992,0.01263 0.9873,1.01254c-0.00661,0.52217 -0.28243,0.76821 -0.54451,0.88412zM338.83729,113.321c0.15598,-0.01605 0.30819,-0.04536 0.45778,-0.08432c-0.21175,-0.02814 -0.42357,-0.05417 -0.63555,-0.07774c0.06347,0.05029 0.12287,0.10424 0.17777,0.16205z" data-paper-data="{&quot;index&quot;:null}" fill="#161617" stroke="none" stroke-width="0.5" stroke-linecap="butt"/><path d="M322.95644,120.57058c0,0 5.06011,-0.70683 11.89207,-0.52701c7.9388,0.20896 16.56002,3.69919 18.3109,6.78306c1.759,3.09817 7.50883,8.98149 4.19406,20.3036c-2.47623,8.45796 -10.63554,10.07664 -10.63554,10.07664" data-paper-data="{&quot;index&quot;:null}" fill="none" stroke="#000000" stroke-width="1.5" stroke-linecap="round"/><path d="M339.54405,125.09998c-0.37156,-0.44879 -3.93528,3.30489 -8.50923,4.5048c-5.29726,1.38966 -11.69557,0.26739 -12.00592,-0.19472c-0.1301,-0.19371 3.96948,-8.75422 7.44843,-10.32238c5.11297,-2.3047 10.27999,2.13324 10.14149,1.89499c2.42702,0.49678 5.99468,0.76873 7.57003,0.80056c2.12777,0.04299 6.94467,3.57698 8.39343,4.8442c0.85232,0.74552 1.60571,2.33154 2.39803,3.76426c-0.7319,0.95893 -1.66104,1.55431 -1.66104,1.55431c0,0 -2.01308,-1.97562 -5.06584,-4.2007c-0.49452,-0.36045 -1.01635,-0.72745 -1.5613,-1.09366c-0.19822,-0.1332 -1.6963,3.517 -1.89859,3.38345c-1.8928,-1.24982 -3.73429,-3.10498 -5.24949,-4.93513z" data-paper-data="{&quot;index&quot;:null}" fill="#3c352f" stroke="#000000" stroke-width="1.5" stroke-linecap="butt"/><path d="M338.76133,170.38026c4.02328,0.06402 7.24968,2.32223 7.20638,5.04387c-0.0433,2.72163 -3.33994,4.87605 -7.36322,4.81203c-4.02328,-0.06402 -7.24968,-2.32224 -7.20637,-5.04387c0.0433,-2.72163 3.33993,-4.87605 7.36321,-4.81203z" data-paper-data="{&quot;index&quot;:null}" fill="#343434" stroke="none" stroke-width="0" stroke-linecap="butt"/><path d="M348.29141,206.17476l5.14516,7.08524" data-paper-data="{&quot;index&quot;:null}" fill="none" stroke="#000000" stroke-width="1.5" stroke-linecap="round"/><path d="M327.73174,207.97251l-1.80763,4.82319" data-paper-data="{&quot;index&quot;:null}" fill="none" stroke="#000000" stroke-width="1.5" stroke-linecap="round"/><path d="M321.62127,130.7889l3.94234,-2.45525" data-paper-data="{&quot;index&quot;:null}" fill="none" stroke="#000000" stroke-width="1.5" stroke-linecap="round"/><path d="M342.61417,127.88651l-4.72375,-2.7409" data-paper-data="{&quot;index&quot;:null}" fill="none" stroke="#000000" stroke-width="1.5" stroke-linecap="round"/><path d="M342.32531,140.42372c0,0 -0.12836,1.02352 -0.19722,1.57255c-0.07571,0.60369 -0.90172,1.83404 -0.90172,1.83404" fill="none" stroke="#000000" stroke-width="1" stroke-linecap="round"/><path d="M324.92256,145.19402c0,0 -0.86694,-0.28793 -1.13727,-0.52107c-0.23943,-0.20651 -0.40331,-0.80762 -0.40331,-0.80762" fill="none" stroke="#000000" stroke-width="1" stroke-linecap="round"/><path d="M326.54798,151.47316c0,0 5.52789,-1.55341 8.52236,-1.88734c3.27727,-0.36545 10.36949,-0.21934 10.36949,-0.21934" fill="none" stroke="#000000" stroke-width="2" stroke-linecap="round"/><g data-paper-data="{&quot;index&quot;:null}" stroke="#000000" stroke-width="2" stroke-linecap="butt"><path d="M328.47531,172.67558c2.9519,-5.52211 9.95846,0.79138 19.39684,7.72567c-0.07469,0.15356 -0.14741,0.3088 -0.21789,0.46602c-0.97531,2.1755 -1.97603,4.27171 -3.11515,6.32084c-0.49196,0.88494 -1.00105,1.7512 -1.48166,2.63185c-9.39266,-6.85649 -17.20542,-12.05434 -14.58216,-17.14438z" data-paper-data="{&quot;index&quot;:null}" fill="#ffe4cb"/><path d="M345.01842,177.04844c0,0 3.81956,-15.8435 6.76316,-13.03802c0.8069,0.77788 1.57551,-0.19758 2.09059,0.72492c4.10187,7.34645 -0.398,20.26885 -0.96735,21.5695c-0.87113,0.66664 -4.91924,5.16598 -9.19491,3.7872c-6.58791,-2.12441 -14.0734,-10.73839 -14.09085,-10.74929c0.46709,-0.95371 6.03203,-8.5829 6.50851,-9.54227c1.1174,-2.24979 8.89084,7.24797 8.89084,7.24797z" data-paper-data="{&quot;index&quot;:null}" fill="#161617"/></g><g data-paper-data="{&quot;index&quot;:null}" fill="#404040" stroke="#000000" stroke-width="1.5" stroke-linecap="butt"><path d="M331.86827,246.8194c1.72674,-0.15193 16.57891,2.07065 16.98464,2.13146c0.90382,0.13548 0.72474,0.97728 -0.39999,1.88021c-1.12473,0.90293 -2.11886,2.47036 -3.02268,2.33487c-0.6319,-0.09472 -10.98084,-1.28443 -15.74215,-2.01632c-0.07372,-0.01133 -2.24852,-0.32402 -2.32004,-0.3351c-1.04624,-0.16215 3.03497,-3.8662 4.5002,-3.99512z"/><path d="M333.12274,247.31784c0.60412,0.04789 0.97893,0.2587 0.83713,0.47087c-0.1418,0.21217 -0.74645,0.34535 -1.35059,0.29746c-0.60412,-0.04789 -0.97893,-0.25871 -0.83714,-0.47087c0.1418,-0.21217 0.74646,-0.34534 1.3506,-0.29746z"/></g></g></g></svg>