<svg version="1.1" xmlns="http://www.w3.org/2000/svg" xmlns:xlink="http://www.w3.org/1999/xlink" width="192.45217" height="431.16056" viewBox="0,0,192.45217,431.16056"><g transform="translate(-104.56062,64.53369)"><g data-paper-data="{&quot;isPaintingLayer&quot;:true}" fill-rule="nonzero" stroke="none" stroke-width="0" stroke-linejoin="miter" stroke-miterlimit="10" stroke-dasharray="" stroke-dashoffset="0" style="mix-blend-mode: normal"><g stroke-linecap="butt"><path d="M258.79841,139.45816c20.31925,30.88829 31.78935,59.75748 13.77586,67.15268c-22.61274,8.16991 -28.56931,-15.75166 -48.88855,-46.64003c-1.76773,-2.68726 -3.44681,-5.36495 -5.03298,-8.01824c7.99592,-3.0491 15.9882,-6.10776 23.97566,-9.17962c4.69965,-2.27158 9.40795,-4.34438 14.16258,-6.31367c0.67297,0.98809 1.34229,1.98789 2.00738,2.99885z" data-paper-data="{&quot;index&quot;:null}" fill="#ffffff"/><path d="M216.26765,101.58207c7.64013,-5.248 31.92181,17.10209 44.45358,35.48467c3.62458,5.3168 1.19612,6.90552 3.36132,11.5942c-4.51693,1.04834 -9.00566,2.20533 -13.50721,3.55625c-7.73006,1.55439 -16.05266,8.02717 -23.78521,9.56903c-11.36053,-29.62044 -21.26813,-54.96086 -12.66487,-58.35802z" data-paper-data="{&quot;index&quot;:null}" fill="#aefa7f"/></g><path d="M219.73791,304.43079c-0.58105,1.25616 -8.31384,19.72536 -10.74465,33.15083c-1.72477,9.52553 2.49084,21.26623 -1.67184,24.67046c-15.73109,12.86465 -42.80554,-6.42167 -49.95097,-9.65716c-11.70122,-5.29829 21.54142,-66.08532 24.09275,-71.6008c2.55132,-5.51547 10.33539,4.83781 22.03661,10.13623c11.70123,5.29837 18.7895,7.78498 16.23818,13.30046z" data-paper-data="{&quot;index&quot;:null}" fill="#ffffff" stroke-linecap="butt"/><path d="M283.62673,286.8389c0.01005,1.38397 0.86804,21.3886 4.28609,34.57586c2.42521,9.35662 10.96912,18.1968 8.72936,23.04621c-8.46393,18.32589 -40.14896,12.35832 -47.74496,12.46244c-12.43897,0.17047 -8.43722,-68.97804 -8.48145,-75.05479c-0.04418,-6.07675 11.05228,-0.00762 23.4912,-0.17806c12.43897,-0.17047 19.67545,-0.92834 19.7196,5.14839z" fill="#ffffff" stroke-linecap="butt"/><path d="M222.01929,236.56912c10.42616,-2.10156 20.79145,-4.47794 31.22871,-6.53609c5.23032,-1.03137 10.46062,-2.06276 15.69091,-3.09415c9.34574,25.47128 15.73665,57.97281 16.63587,61.44818c1.35938,5.25368 -6.43651,13.87615 -20.14212,17.72427c-13.70561,3.84811 -27.69977,2.22091 -29.05911,-3.03275c-0.44659,-1.72591 -9.91649,-38.68805 -14.35428,-66.50945z" data-paper-data="{&quot;index&quot;:null}" fill="#222228" stroke-linecap="butt"/><path d="M223.83032,305.94121c-0.82139,5.35947 -13.97228,7.54642 -29.3733,4.88481c-15.40102,-2.66161 -27.22017,-9.16401 -26.39878,-14.52347c0.17781,-1.15996 2.8223,-7.12335 3.91673,-14.85061c0.99482,-7.02403 0.3711,-15.48698 1.92025,-23.47765c1.95547,-10.08634 4.20341,-16.00889 6.82424,-25.85255c5.82254,0.57952 11.64506,1.15909 17.46757,1.7386c11.61904,1.15647 23.19962,2.63671 34.81201,3.83749c-1.34431,28.14435 -8.89888,66.48271 -9.16874,68.24339z" fill="#222228" stroke-linecap="butt"/><path d="M259.50696,243.89832c0.8409,9.20438 -12.13755,17.91398 -28.98815,19.45343c-16.8506,1.53945 -31.19243,-4.67428 -32.03332,-13.87866c-0.8409,-9.20438 12.13757,-17.91393 28.98817,-19.45339c16.8506,-1.53945 31.19236,4.67422 32.03327,13.87858z" fill="#222228" stroke-linecap="butt"/><path d="M239.44878,262.53593l-16.67891,2.23886" fill="none" stroke-linecap="round"/><path d="M271.46074,231.83897c0.38481,3.26035 -3.65328,3.29183 -31.14352,6.64571c-1.1379,0.13881 -30.09295,10.31 -31.25046,10.44238c-29.12057,3.33071 -33.71353,-3.27762 -34.11425,-6.67288c-0.06331,-0.53637 -3.93947,-5.79284 -4.93074,-13.53578c-1.15102,-8.99086 0.71424,-28.53665 0.3711,-41.95652c-0.33392,-13.05822 -2.89415,-19.94595 -2.71619,-32.05244c0.47869,-32.56364 8.4759,-49.98772 36.08302,-55.3175c30.88034,-5.96169 43.84457,21.80111 52.93567,53.74676c10.21118,35.88139 14.55342,76.90411 14.76537,78.70027z" fill="#aefa7f" stroke-linecap="butt"/><path d="M141.10787,155.45813c0.66509,-1.01096 1.33441,-2.01076 2.00738,-2.99885c4.75463,1.96929 9.46293,4.04209 14.16258,6.31367c7.98746,3.07186 15.97974,6.13052 23.97566,9.17962c-1.58617,2.65329 -3.26525,5.33098 -5.03298,8.01824c-20.31924,30.88837 -26.27581,54.80994 -48.88855,46.64003c-18.01349,-7.3952 -6.54339,-36.26439 13.77586,-67.15268z" data-paper-data="{&quot;index&quot;:null}" fill="#ffffff" stroke-linecap="butt"/><path d="M185.78097,119.4282c8.60326,3.39716 -1.30434,28.73758 -12.66487,58.35802c-7.73255,-1.54186 -16.05515,-8.01464 -23.78521,-9.56903c-4.50155,-1.35092 -8.99028,-2.50791 -13.50721,-3.55625c2.1652,-4.68868 -0.26326,-6.2774 3.36132,-11.5942c12.53177,-18.38258 36.81345,-40.73267 44.45358,-35.48467z" data-paper-data="{&quot;index&quot;:null}" fill="#aefa7f" stroke-linecap="butt"/><path d="M192.31223,128.20228c-0.75044,5.73028 5.30461,13.81407 0.72658,19.16747c-5.59196,6.53911 -21.20676,16.30181 -23.07353,0.24085c-0.40353,-3.47176 0.72921,-9.98318 2.80477,-16.15326c-0.16893,-0.54032 -0.28999,-1.10403 -0.35771,-1.68684c-0.49952,-4.29742 3.2307,-10.97604 7.13056,-12.41678c4.1173,-5.2925 7.98081,-3.07677 12.5569,9.02122z" fill="#aefa7f" stroke-linecap="butt"/><path d="M234.63959,105.22771c0.93169,8.02241 -8.69369,15.73144 -21.49868,17.21849c-12.80503,1.48704 -23.9408,-3.81091 -24.87246,-11.83331c-0.93169,-8.02241 8.6936,-15.73138 21.49864,-17.21846c12.80503,-1.48704 23.94086,3.81084 24.8725,11.83329z" fill="#ffffff" stroke-linecap="butt"/><path d="M185.73654,18.36792c2.19947,4.99823 -15.02765,21.9039 -37.38894,31.7439c-22.3613,9.84003 -41.38914,8.88809 -43.58864,3.88985c-2.19947,-4.99823 14.14502,-17.02697 36.50632,-26.86697c22.3613,-9.84003 42.27176,-13.76504 44.47124,-8.76682z" fill="#ff2e2e" stroke-linecap="butt"/><path d="M266.69364,9.61139c2.16816,6.10128 2.39896,11.84439 3.55638,17.63793c8.47402,42.41554 -11.62079,68.89455 -45.91709,81.06311c-39.75085,14.10386 -83.10695,-2.18578 -98.90803,-46.64972c-15.80111,-44.46399 4.48231,-91.02234 44.23318,-105.12623c39.75085,-14.10386 81.23441,8.6109 97.03554,53.07485z" fill="#ffffff" stroke-linecap="butt"/><path d="M237.34817,55.35268c-4.09238,-0.04934 -7.32856,-6.84161 -7.22808,-15.17101c0.10047,-8.3294 3.49943,-15.04163 7.59186,-14.99227c4.09238,0.04934 7.32851,6.84163 7.22807,15.17105c-0.10047,8.3294 -3.49947,15.04159 -7.59184,14.99224z" data-paper-data="{&quot;index&quot;:null}" fill="#000000" stroke-linecap="butt"/><path d="M177.02565,68.78375c-3.86021,0.12026 -7.21876,-7.14538 -7.50176,-16.22818c-0.283,-9.08281 2.61689,-16.54337 6.4771,-16.6636c3.86021,-0.12026 7.21878,7.14535 7.50177,16.22816c0.283,9.08281 -2.61695,16.54339 -6.47712,16.66364z" data-paper-data="{&quot;index&quot;:null}" fill="#000000" stroke-linecap="butt"/><path d="M183.27488,-60.08571c1.92759,5.17697 -5.52646,12.80062 -16.64923,17.02782c-11.12268,4.22729 -21.70202,3.45735 -23.62958,-1.71957c-1.92759,-5.17697 5.52649,-12.80065 16.64923,-17.02782c11.12268,-4.22729 21.70206,-3.45735 23.62962,1.71959z" fill="#ff4f4f" stroke-linecap="butt"/><path d="M266.43296,-0.10566c1.17526,4.28502 -33.1136,5.59563 -73.85713,16.77008c-40.74349,11.17443 -70.74591,31.2694 -71.92114,26.9843c-1.17526,-4.28502 -27.32372,-76.87031 48.75057,-98.41995c67.20953,-19.03855 95.85252,50.38047 97.02773,54.6656z" fill="#ff4f4f" stroke-linecap="butt"/><path d="M227.32381,-11.14052c1.27879,4.80529 -9.35861,8.97186 -23.35671,12.697c-0.26093,0.06944 -1.00035,-0.14032 -1.26016,-0.07402c-13.67482,3.48755 -24.81965,5.58271 -26.07461,0.86696c-1.27879,-4.80529 9.03222,-11.72065 23.03031,-15.44575c13.99809,-3.72511 26.38239,-2.84948 27.66118,1.95581z" fill="#ffffff" stroke-linecap="butt"/></g></g></svg>