<svg version="1.1" xmlns="http://www.w3.org/2000/svg" xmlns:xlink="http://www.w3.org/1999/xlink" width="198.76212" height="135.83179" viewBox="0,-0.00014,198.76212,135.83179"><defs><linearGradient x1="293.25419" y1="164.56344" x2="306.93247" y2="164.56344" gradientTransform="translate(694.18593,-1024.04111) rotate(90) scale(3.37396,3.37396)" gradientUnits="userSpaceOnUse" id="color-1"><stop offset="0" stop-color="#828282" stop-opacity="0.49804"/><stop offset="1" stop-color="#303030" stop-opacity="0.52157"/></linearGradient></defs><g transform="translate(-201.43642,-93.81855)"><g data-paper-data="{&quot;isPaintingLayer&quot;:true}" fill-rule="nonzero" stroke-linecap="butt" stroke-linejoin="miter" stroke-miterlimit="10" stroke-dasharray="" stroke-dashoffset="0" style="mix-blend-mode: normal"><g><path d="M262.68434,106.93168c-1.10748,0.05453 -2.02744,-1.69158 -2.05478,-3.90005l-0.05261,-4.24871c-0.02735,-2.20847 0.84828,-4.04298 1.95576,-4.09751l12.53294,-0.6171c1.10748,-0.05453 2.02744,1.69158 2.05478,3.90005l0.05261,4.24871c0.02735,2.20847 -0.84828,4.04298 -1.95576,4.09751z" fill="#e7e7e7" stroke="#000000" stroke-width="1.5"/><path d="M229.03,107.43168c-2.20847,0.05453 -4.04299,-1.69158 -4.09752,-3.90005l-0.10491,-4.24871c-0.05453,-2.20847 1.69158,-4.04299 3.90005,-4.09752l24.99238,-0.6171c2.20847,-0.05453 4.04299,1.69158 4.09752,3.90005l0.10491,4.24871c0.05453,2.20847 -1.69158,4.04299 -3.90005,4.09752z" fill="#e7e7e7" stroke="#000000" stroke-width="1.5"/><path d="M288.44666,228.50104c-10.73648,0.26081 -69.33445,0.95868 -77.83092,-6.1642c-11.90759,-30.63366 -0.74045,-105.00462 -1.39708,-111.82666c-0.82084,-8.52842 2.62151,-11.20815 12.15642,-11.74234c7.40901,-0.41513 116.92541,-4.87644 161.12428,-2.17502c0.00039,0.86773 0.00077,1.73546 0.00116,2.60319c0.00153,3.49997 0.00263,6.99993 0.00265,10.4999c0.00002,3.5 0.00002,7 0.00004,10.5c0.00002,3.5 0.00003,7 0.00004,10.5c0.00002,3.5 0.00001,7 0.00001,10.5c0,3.5 0,7 0,10.5c0,3.5 0,7 0,10.5c0,3.5 0,7 0,10.5c0,3.5 0,7 0,10.5c0,3.5 0,7 0,10.5c0,3.5 0,7 0,10.5c0,3.5 0,7 0,10.5c0,3.12158 0,6.24314 0,9.36472c-26.63292,5.64947 -68.48815,3.81934 -94.0566,4.44041z" fill="#e7e7e7" stroke="#000000" stroke-width="2"/><path d="M396.31675,100.51068c0.10152,1.62855 6.77204,108.2297 -0.53486,116.15447c-2.86278,3.10485 -7.31441,5.46895 -12.73084,7.28028c0,-3.08318 0,-6.16635 0,-9.24953c0,-3.5 0,-7 0,-10.5c0,-3.5 0,-7 0,-10.5c0,-3.5 0,-7 0,-10.5c0,-3.5 0,-7 0,-10.5c0,-3.5 0,-7 0,-10.5c0,-3.5 0,-7 0,-10.5c0,-3.5 0,-7 0,-10.5c0,-3.5 0,-7 -0.00001,-10.5c-0.00001,-3.5 -0.00002,-7 -0.00003,-10.5c-0.00001,-3.5 -0.00001,-7 -0.00002,-10.5c-0.00001,-3.50003 -0.00072,-7.00007 -0.00172,-10.5001c-0.00024,-0.85656 -0.00048,-1.71312 -0.00072,-2.56968c8.01278,0.77722 13.15138,2.01018 13.2682,3.88467z" fill="#e7e7e7" stroke="#000000" stroke-width="2"/><path d="M205.815,101.0108c0.15479,-1.87449 8.96384,-2.10745 19.5814,-2.88467c-0.00031,0.85656 -0.00063,1.71312 -0.00095,2.56968c-0.00132,3.50003 -0.00226,7.00007 -0.00227,10.5001c-0.00001,3.5 -0.00001,7 -0.00003,10.5c-0.00001,3.5 -0.00002,7 -0.00004,10.5c-0.00001,3.5 -0.00001,7 -0.00001,10.5c0,3.5 0,7 0,10.5c0,3.5 0,7 0,10.5c0,3.5 0,7 0,10.5c0,3.5 0,7 0,10.5c0,3.5 0,7 0,10.5c0,3.5 0,7 0,10.5c0,3.5 0,7 0,10.5c0,3.08318 0,6.16635 0,9.24952c-7.17719,-1.81133 -14.07594,-0.42544 -17.86935,-3.53028c-9.68222,-7.92478 -2.59325,-118.52592 -2.45873,-120.15447z" data-paper-data="{&quot;index&quot;:null}" fill="#e7e7e7" stroke="#000000" stroke-width="2"/><g fill="#1d1d1d" stroke="#000000" stroke-width="2"><path d="M211.75791,218.5c-1.45412,0 -2.63291,-1.17879 -2.63291,-2.63291v-7.73418c0,-1.45412 1.17879,-2.63291 2.63291,-2.63291h7.73418c1.45412,0 2.63291,1.17879 2.63291,2.63291v7.73418c0,1.45412 -1.17879,2.63291 -2.63291,2.63291z"/><path d="M218.83386,212.08228c0,1.81765 -1.43666,3.29114 -3.20886,3.29114c-1.7722,0 -3.20886,-1.47349 -3.20886,-3.29114c0,-1.81765 1.43666,-3.29114 3.20886,-3.29114c1.7722,0 3.20886,1.47349 3.20886,3.29114z"/></g><text transform="translate(303.5129,205.74797) rotate(-90) scale(0.29639,0.29639)" font-size="40" xml:space="preserve" fill-opacity="0.14902" fill="#6e6e6e" fill-rule="nonzero" stroke="url(#color-1)" stroke-width="4" stroke-linecap="butt" stroke-linejoin="miter" stroke-miterlimit="10" stroke-dasharray="" stroke-dashoffset="0" font-family="Malgun Gothic" font-weight="normal" text-anchor="start" style="mix-blend-mode: normal"><tspan x="0" dy="0">SAMISSINGING</tspan></text></g></g></g></svg>