<svg version="1.1" xmlns="http://www.w3.org/2000/svg" xmlns:xlink="http://www.w3.org/1999/xlink" width="70.36423" height="138.49155" viewBox="0,0,70.36423,138.49155"><defs><radialGradient cx="336.66616" cy="151.39379" r="26.05961" gradientUnits="userSpaceOnUse" id="color-1"><stop offset="0" stop-color="#afb0e0" stop-opacity="0"/><stop offset="1" stop-color="#afb0e0" stop-opacity="0.31373"/></radialGradient></defs><g transform="translate(-285.95034,-129.48082)"><g data-paper-data="{&quot;isPaintingLayer&quot;:true}" fill-rule="nonzero" stroke-linejoin="miter" stroke-miterlimit="10" stroke-dasharray="" stroke-dashoffset="0" style="mix-blend-mode: normal"><path d="M287.02042,242.08512c-0.53331,-0.36958 2.04383,-5.98062 5.46654,-9.57348c2.83461,-2.97555 6.53308,-4.11462 6.97476,-3.80855c0.09373,0.06495 0.98849,0.69296 2.43642,1.72018c-0.53079,1.56083 -0.89573,3.44937 -1.12915,4.59745c-0.73947,2.16576 -1.0974,4.66992 -2.56368,6.40241c-0.78936,0.93266 -1.6364,1.9335 -2.43432,2.87624c-0.18395,-0.12591 -0.28147,-0.19271 -0.28147,-0.19271c0,0 -1.9427,0.11795 -3.5905,-0.17965c-2.24965,-0.40627 -4.31576,-1.45194 -4.87855,-1.84195z" fill="#ffffff" stroke="#000000" stroke-width="2" stroke-linecap="butt"/><path d="M306.92833,230.16954c0.57126,0.95916 4.43053,16.36874 0.59437,18.96943c-7.37028,4.99661 -14.75219,-9.8701 -15.32345,-10.82925c-0.57126,-0.95916 2.26286,-3.55894 6.33018,-5.8068c4.06733,-2.24784 7.82764,-3.29252 8.3989,-2.33336z" fill="#a68f79" stroke="#000000" stroke-width="2" stroke-linecap="butt"/><path d="M304.7575,221.67593c5.05958,-10.62654 8.82634,-0.34784 14.50277,1.96802c0.2903,0.11843 -1.73917,13.60877 -6.39126,22.91003c-2.22315,4.44488 -8.34463,5.71294 -11.55165,2.31948c-2.50411,-2.64971 -2.63865,-9.55025 -1.64293,-10.75352c2.9785,-7.55843 3.16889,-12.42372 5.08308,-16.44404z" fill="#a68f79" stroke="#000000" stroke-width="2" stroke-linecap="butt"/><path d="M296.4738,238.30493c3.28227,-4.25928 7.24291,3.73946 9.4181,5.96502c0.90722,0.92823 1.83095,2.70095 1.0442,3.97791c-2.1754,3.53086 -5.17319,-0.66979 -7.23774,-1.86913c-0.75566,-0.43898 -4.62918,-3.83797 -4.18405,-5.22344c-0.03781,-0.22099 1.2567,1.9301 1.27158,1.69576c0.00922,-0.14531 0.02882,-0.28709 0.05797,-0.42457c0.0071,-1.19555 -0.84442,-3.50601 -0.37006,-4.12156z" fill="#a68f79" stroke="none" stroke-width="0.5" stroke-linecap="butt"/><path d="M334.66539,181.64492c-0.61409,3.43497 -6.13329,5.32186 -12.32751,4.21448c-6.19421,-1.10737 -10.71778,-4.78967 -10.10368,-8.22464c0.61409,-3.43497 2.50261,-5.02396 8.6968,-3.91659c6.19421,1.10737 14.34848,4.49178 13.73438,7.92674z" fill="#334865" stroke="#000000" stroke-width="2" stroke-linecap="butt"/><path d="M342.15186,219.09161c-0.11252,4.0521 -3.00689,7.25338 -6.4648,7.15027c-3.4579,-0.10312 -6.16986,-3.47162 -6.05735,-7.52371c0.03213,-1.15766 0.07068,-4.77479 0.18997,-9.35351c1.88993,-0.49768 3.79088,-0.96444 5.7044,-1.25722c2.00089,-0.30612 3.91346,-0.99232 5.91118,-1.26792c0.08201,-0.0113 0.16715,-0.01652 0.25399,-0.01802c0.42952,5.92927 0.50096,10.88855 0.46261,12.2701z" data-paper-data="{&quot;index&quot;:null}" fill="#ffffff" stroke="#000000" stroke-width="2" stroke-linecap="butt"/><path d="M333.39227,180.40044c4.20755,-0.11641 7.32862,12.77246 8.45372,22.7257c0.274,2.424 -0.43513,1.74931 -0.27546,4.05344c-0.11655,-0.00418 -0.21635,-0.0045 -0.28478,0.00545c-2.00229,0.29166 -3.91945,1.00668 -5.92446,1.32985c-1.88713,0.30416 -3.76251,0.78127 -5.62734,1.29198c0.34749,-11.81761 1.22078,-29.33899 3.65834,-29.40643z" data-paper-data="{&quot;index&quot;:null}" fill="#334865" stroke="#000000" stroke-width="2" stroke-linecap="butt"/><path d="M319.68304,227.15659c0.77237,-11.01267 6.96399,-6.56483 12.31485,-6.86523c0.46761,-0.02625 2.79512,26.89855 3.39898,35.40115c0.11343,1.59713 -0.2793,2.41589 -0.27257,2.4234c-2.86519,0.31473 -6.79856,-0.17771 -9.49412,0.61512c-1.39414,0.41204 -4.06894,0.28817 -5.81905,0.61834c-0.05212,-0.93815 -0.36857,-1.14327 -0.42353,-2.21267c-0.45775,-8.90702 -0.22304,-22.58717 0.29545,-29.98014z" fill="#a68f79" stroke="#000000" stroke-width="2" stroke-linecap="butt"/><path d="M337.5964,266.06128c0.04968,1.21699 -16.87026,1.21369 -16.91991,-0.00332c-0.00746,-0.18326 -0.17094,-2.61762 -0.37567,-6.26451c1.75943,-0.3514 4.20041,-0.2462 5.4609,-0.61527c2.76806,-0.81418 6.01257,-0.90796 8.93551,-1.24619c0.4329,0.52207 1.09969,1.38872 1.56899,2.28916c1.02315,1.96315 1.30152,5.13763 1.33019,5.84008z" fill="#ffffff" stroke="#000000" stroke-width="2" stroke-linecap="butt"/><path d="M312.51051,228.3081l0.75875,-4.24408l13.8793,2.48128l-0.75874,4.24408z" fill="#a68f79" stroke="none" stroke-width="0" stroke-linecap="butt"/><path d="M303.24503,223.47952c0,0 2.92468,-17.3686 6.07383,-27.83493c3.55801,-11.82516 8.81927,-21.66145 17.86817,-20.32c11.37643,1.68648 9.76029,16.38532 8.91437,29.92121c-0.64597,10.3362 -2.73052,25.43194 -2.73052,25.43194" fill="#334865" stroke="#000000" stroke-width="2" stroke-linecap="round"/><path d="M320.6413,178.60261c2.11101,1.1091 -5.0787,15.65664 -10.7404,26.56782c-1.98812,-0.80527 -3.96801,-1.62885 -5.91286,-2.53553c-1.43203,-0.66759 -2.89018,-1.24757 -4.35956,-1.81603c0.71429,-1.2167 0.20821,-1.74782 1.00313,-3.0323c6.1108,-9.87424 15.50381,-21.55136 20.00974,-19.18398z" fill="#334865" stroke="#000000" stroke-width="2" stroke-linecap="butt"/><path d="M303.8657,216.72268c-1.78943,3.90448 -4.74783,5.35629 -8.03626,3.84923c-3.28843,-1.5071 -3.51548,-5.74584 -1.72606,-9.65032c0.54979,-1.19966 2.56665,-5.09182 5.31307,-9.79529c1.48352,0.57338 2.95582,1.15714 4.40123,1.831c1.93883,0.90386 3.91228,1.72543 5.89406,2.52851c-2.83769,5.46015 -5.25078,9.93806 -5.84604,11.23693z" fill="#ffffff" stroke="#000000" stroke-width="2" stroke-linecap="butt"/><path d="M321.55429,185.60614c-0.19871,1.11159 -1.97152,0.9215 -2.94819,2.22569c-2.40752,3.21486 -5.31222,7.85226 -6.79537,7.5871c-2.08483,-0.3727 1.50509,-7.31087 2.19367,-11.16254c0.68859,-3.85164 3.51739,-6.96429 5.60221,-6.59156c0.42982,0.07683 1.64116,-0.0263 1.94319,0.30668c1.16302,1.28219 0.5511,4.577 0.00448,7.6346z" fill="#334865" stroke="none" stroke-width="0" stroke-linecap="butt"/><path d="M331.70323,180.41245c0.59208,0.01672 1.5555,0.29739 2.54459,1.2886c1.3959,1.39887 3.49885,5.99449 3.45233,7.62417c-0.0795,2.78441 0.91146,6.26609 -0.51623,6.22581c-0.65497,-0.01848 -0.25378,-2.75592 -1.01935,-4.53081c-0.42154,-0.97732 -1.63608,-2.01416 -2.04208,-2.93315c-0.4638,-1.04986 -1.66018,-1.17251 -1.63724,-1.97607c0.0795,-2.78441 -2.20972,-5.73882 -0.78204,-5.69853z" data-paper-data="{&quot;index&quot;:null}" fill="#334865" stroke="none" stroke-width="0" stroke-linecap="butt"/><path d="M315.2518,229.12703l7.54497,1.68513" fill="none" stroke="#000000" stroke-width="2" stroke-linecap="round"/><path d="M334.45349,179.15926c-0.13866,0.77559 -0.72589,1.72413 -1.69935,2.55048c-1.11151,0.94358 -2.78299,1.68586 -5.84581,1.09852c-2.7636,-0.52998 -2.91996,-1.48812 -3.52943,-2.8012c-0.47351,-1.02019 -1.69829,-2.38174 -1.56844,-3.10807c0.29698,-1.66116 3.36797,-2.50184 6.85923,-1.8777c3.49128,0.62416 6.08078,2.47678 5.78381,4.13795z" fill="#ffffff" stroke="#000000" stroke-width="2" stroke-linecap="butt"/><path d="M351.87314,159.72233c-0.21891,1.86661 -0.04468,4.50921 -0.48242,6.16707c-3.20476,12.13753 -12.52081,15.37131 -22.80612,14.18353c-11.92114,-1.3767 -20.91671,-11.13704 -19.32131,-24.74036c1.59543,-13.60334 12.65772,-23.16461 24.57885,-21.7879c11.92114,1.3767 19.6264,12.57435 18.03099,26.17769z" fill="#ffffff" stroke="#000000" stroke-width="2" stroke-linecap="butt"/><path d="M327.79228,160.26775c-0.48043,2.75801 -1.72161,4.84544 -2.7722,4.66243c-1.05059,-0.18301 -1.51282,-2.56715 -1.03237,-5.32518c0.48043,-2.75801 1.72161,-4.84545 2.7722,-4.66245c1.05059,0.18301 1.51283,2.56717 1.03238,5.3252z" fill="#000000" stroke="none" stroke-width="0" stroke-linecap="butt"/><path d="M341.60633,163.4509c-0.3961,2.27395 -1.41944,3.995 -2.28567,3.84411c-0.86621,-0.1509 -1.2473,-2.11661 -0.85119,-4.39055c0.3961,-2.27395 1.41943,-3.99501 2.28565,-3.84412c0.86621,0.1509 1.24731,2.11662 0.85121,4.39056z" fill="#000000" stroke="none" stroke-width="0" stroke-linecap="butt"/><path d="M342.7352,172.2527l-26.76399,-6.45424" fill="none" stroke="#000000" stroke-width="2" stroke-linecap="round"/><path d="M314.1713,166.91842l1.64108,-3.63417" fill="none" stroke="#000000" stroke-width="2" stroke-linecap="round"/><path d="M309.3116,220.6124l4.80773,-8.90617" fill="none" stroke="#000000" stroke-width="2" stroke-linecap="round"/><path d="M330.71279,216.03223l0.41903,6.98234" fill="none" stroke="#000000" stroke-width="2" stroke-linecap="round"/><path d="M335.55953,181.19244c0,0 -2.07016,4.57347 -6.65162,4.28972c-4.12192,-0.25527 -7.35176,-2.43021 -8.65382,-4.12856c-1.61149,-2.10196 -0.75542,-3.77653 -0.75542,-3.77653" fill="none" stroke="#000000" stroke-width="1.5" stroke-linecap="round"/><path d="M325.40357,184.65278l-1.5021,7.64541" fill="none" stroke="#000000" stroke-width="1.5" stroke-linecap="round"/><path d="M330.06902,185.41919l-1.46,7.78822" fill="none" stroke="#000000" stroke-width="1.5" stroke-linecap="round"/><path d="M303.89611,222.86182l29.3273,6.78184" fill="none" stroke="#000000" stroke-width="2" stroke-linecap="round"/><g stroke-linecap="butt"><path d="M355.31457,160.32795c-1.17162,9.08378 -6.74352,16.19472 -14.22177,19.67768c-0.77711,0.36193 0.23333,-0.1542 1.38469,0.5592c1.82747,1.13234 1.73076,2.1785 -1.87207,2.41988c-3.88506,0.26029 -9.89587,-0.0389 -15.71078,-0.91101c-3.84801,-0.57711 -8.36865,-1.77151 -9.40858,-1.90564c-2.42568,-0.31286 -4.67572,-2.25153 -2.70396,-3.18842c1.45904,-0.69327 1.28869,-0.58378 0.76683,-1.06247c-5.81484,-5.33392 -8.94198,-13.43918 -7.80969,-22.21803c1.8329,-14.21069 14.13284,-24.80515 27.9554,-23.02232c13.82256,1.78283 23.45283,15.44045 21.61994,29.65116z" fill="url(#color-1)" stroke="#111111" stroke-width="2"/><path d="M348.86058,145.35057c0.24057,2.63199 -1.93151,3.73517 -4.22722,2.3803c-0.42174,-0.2489 -1.41541,-2.65412 -1.89037,-3.07567c-1.38,-1.22481 -3.86915,-1.4144 -4.57216,-3.12038c-0.67516,-0.52557 -1.06282,-1.38432 -0.94545,-2.29434c0.17662,-1.36937 1.42989,-2.33629 2.79926,-2.15966c0.51903,0.06695 0.98025,0.28857 1.34329,0.61257c3.42611,0.57469 7.18615,4.3043 7.49262,7.65718z" fill="#ffffff" stroke="none" stroke-width="0.5"/></g></g></g></svg>