<svg version="1.1" xmlns="http://www.w3.org/2000/svg" xmlns:xlink="http://www.w3.org/1999/xlink" width="52.32204" height="141.81999" viewBox="0,0,52.32204,141.81999"><g transform="translate(-305.48719,-109.73261)"><g data-paper-data="{&quot;isPaintingLayer&quot;:true}" fill-rule="nonzero" stroke-linejoin="miter" stroke-miterlimit="10" stroke-dasharray="" stroke-dashoffset="0" style="mix-blend-mode: normal"><path d="M313.31175,117.09132c1.58213,-1.56335 4.17681,-3.87962 7.28831,-4.99181c4.3376,-1.55045 9.46777,-1.61583 12.38212,-1.6169c8.89716,-0.0033 17.39505,7.14671 21.08309,16.33279c1.51412,3.77134 2.98429,11.29475 2.99396,15.18272c0.02015,8.10733 -5.0605,12.96193 -10.68035,17.91027c-1.42286,1.25286 2.08619,3.59175 0.67855,5.28839c-2.19318,2.64349 -10.22051,2.72164 -13.22514,2.72275c-2.12754,0.00078 -6.39691,-0.40536 -8.50331,-1.79289c-2.06872,-1.36272 -1.97799,-3.69613 -3.68869,-4.89422c-6.82225,-4.77796 -12.06634,-13.26628 -12.08838,-22.1358c-0.01995,-8.0309 -1.95015,-16.36305 3.75988,-22.0053z" data-paper-data="{&quot;index&quot;:null}" fill="#161617" stroke="#000000" stroke-width="1.5" stroke-linecap="butt"/><path d="M314.523,240.10195c1.12725,-1.67819 2.59116,-3.47486 3.2878,-4.72065c1.71402,0.17246 3.42826,0.32524 5.15247,0.4051c1.62,0.07504 3.23879,0.14353 4.85835,0.1996c0.01629,4.27525 -0.0854,7.35175 -0.3975,7.62161c-0.09645,0.08339 -0.39173,2.0261 -3.48544,2.21608c-1.77771,0.10916 -7.04422,0.3205 -9.18336,0.03893c-2.79051,-0.3673 -2.29736,-1.27047 -2.53833,-1.25064c-0.26771,0.02203 0.70343,-2.12423 2.306,-4.51005z" data-paper-data="{&quot;index&quot;:null}" fill="#ffffff" stroke="#000000" stroke-width="2" stroke-linecap="butt"/><path d="M341.61498,244.36751c1.08983,-1.87146 2.17941,-2.61761 2.11908,-4.42947c0.14563,-0.00853 0.29127,-0.01718 0.43691,-0.02596c2.63607,-0.15903 5.27232,-0.31347 7.90886,-0.46448c0.84903,-0.04862 1.69724,-0.10633 2.545,-0.16919c0.45009,4.82285 0.64869,8.41229 0.29025,8.73594c-0.10214,0.09223 -0.27323,2.05604 -3.7581,2.53825c-2.00248,0.27708 -7.94426,0.9863 -10.38851,0.90825c-3.18854,-0.1018 -0.99459,-3.93178 0.84651,-7.09335z" data-paper-data="{&quot;index&quot;:null}" fill="#ffffff" stroke="#000000" stroke-width="2" stroke-linecap="butt"/><path d="M315.18354,236.67512c0.02016,-0.06496 -0.57444,-0.62622 -0.09483,-2.66296c0.25425,-1.07971 1.44829,-3.06085 1.7949,-4.53343c2.58439,-10.97938 7.38229,-31.32591 9.1164,-37.88518c3.05717,-11.56374 16.06712,-7.79885 16.06712,-7.79885c0,0 -9.11452,35.54339 -11.23342,50.1399c-0.49192,3.38859 -1.29895,5.69324 -1.3714,5.92678c-0.375,1.20864 -4.69962,0.94098 -9.65932,-0.59786c-4.9597,-1.53884 -4.99447,-1.37974 -4.61946,-2.58838z" data-paper-data="{&quot;index&quot;:null}" fill="#282833" stroke="#000000" stroke-width="1.5" stroke-linecap="butt"/><path d="M340.6398,243.27776c-0.00178,-0.06799 -0.87135,-0.40531 -1.09622,-2.48753c-0.11921,-1.10382 0.47049,-3.36594 0.30774,-4.87136c-1.21338,-11.22424 -3.45236,-32.02737 -3.96593,-38.79483c-0.90543,-11.93074 14.95246,-12.60396 14.95246,-12.60396c0,0 3.09671,36.57957 6.1732,51.07309c0.71421,3.36469 0.6749,5.80681 0.68127,6.05125c0.033,1.26505 -4.87224,2.41923 -10.95618,2.57793c-6.08394,0.15871 -6.06338,0.32047 -6.09637,-0.94458z" data-paper-data="{&quot;index&quot;:null}" fill="#282833" stroke="#000000" stroke-width="1.5" stroke-linecap="butt"/><g data-paper-data="{&quot;index&quot;:null}" stroke="#000000" stroke-width="2" stroke-linecap="butt"><path d="M306.83339,192.10069c-2.36386,-6.09537 7.71227,-9.11241 20.01704,-14.10259c0.071,0.16238 0.14473,0.32386 0.22166,0.48436c1.06453,2.22086 2.04695,4.41942 2.89305,6.72335c0.36539,0.99498 0.70351,1.99545 1.07352,2.977c-12.20945,4.99207 -21.95701,9.44239 -24.20528,3.91789z" data-paper-data="{&quot;index&quot;:null}" fill="#ffe4cb"/><path d="M322.11534,178.76623c0,0 -2.64496,-14.09801 1.71185,-15.2753c10.76922,-2.84598 10.63892,11.66752 11.36627,13.14714c-0.08024,1.23099 0.67888,7.77777 -3.47162,11.07757c-6.39506,5.0843 -18.66955,7.20562 -18.69074,7.21598c-0.43859,-1.01162 -2.64851,-10.86284 -3.08501,-11.88684c-1.02361,-2.40135 12.16925,-4.27855 12.16925,-4.27855z" data-paper-data="{&quot;index&quot;:null}" fill="#161617"/></g><path d="M347.42296,166.27482c2.36821,8.07359 4.58532,30.65207 5.32504,38.73484c-2.18707,0.22174 -4.39897,0.32421 -6.58283,0.52709c-3.54476,0.32933 -7.08952,0.65863 -10.63427,0.98797c-3.5389,0.32877 -7.06781,0.94181 -10.58258,1.43408c-0.90819,0.12721 -1.81641,0.25439 -2.72461,0.3816c-0.00533,-8.55245 0.14631,-34.5207 2.123,-43.01456c1.77767,-7.63879 10.89214,-10.11109 10.89214,-10.11109c0,0 8.33385,-2.0661 12.18411,11.06006z" data-paper-data="{&quot;index&quot;:null}" fill="#161617" stroke="#000000" stroke-width="2" stroke-linecap="butt"/><path d="M343.8191,200.17647l-3.93278,-10.11991" data-paper-data="{&quot;index&quot;:null}" fill="none" stroke="#000000" stroke-width="2" stroke-linecap="round"/><path d="M326.19428,200.29782l1.37498,-7.3767" data-paper-data="{&quot;index&quot;:null}" fill="none" stroke="#000000" stroke-width="2" stroke-linecap="round"/><path d="M333.28414,155.50534c4.51837,-0.23774 8.30677,1.95522 8.46162,4.89811c0.15485,2.94289 -3.38249,5.5213 -7.90087,5.75905c-4.51838,0.23774 -7.40595,-1.24699 -7.5608,-4.18988c-0.15485,-2.94289 2.48167,-6.22953 7.00005,-6.46728z" data-paper-data="{&quot;index&quot;:null}" fill="#161617" stroke="none" stroke-width="0" stroke-linecap="butt"/><path d="M327.23149,160.56301c-0.10479,-1.99165 2.55741,-3.75075 5.94619,-3.92905c3.38879,-0.17831 6.2209,1.29168 6.32569,3.28334c0.10479,1.99164 -3.20328,3.78474 -6.59207,3.96304c-3.38878,0.17831 -5.575,-1.32567 -5.67979,-3.31733z" data-paper-data="{&quot;index&quot;:null}" fill="#ffffff" stroke="#000000" stroke-width="1.5" stroke-linecap="butt"/><path d="M308.92472,140.05032c-1.22129,-12.88213 7.64125,-24.25923 19.79505,-25.4115c12.15379,-1.15226 22.99645,8.35667 24.21776,21.23881c1.22131,12.88213 -7.64121,24.25925 -19.79501,25.41151c-12.1538,1.15225 -22.99647,-8.35668 -24.21778,-21.23882z" data-paper-data="{&quot;index&quot;:null}" fill="#ffe4cb" stroke="#000000" stroke-width="2" stroke-linecap="butt"/><path d="M330.70477,145.06238c-1.27458,-0.29866 -2.18521,-1.78923 -2.03397,-3.32928c0.15127,-1.54007 1.30716,-2.54641 2.58173,-2.24775c1.27458,0.29866 2.18525,1.78924 2.03398,3.3293c-0.15127,1.54006 -1.30717,2.54641 -2.58174,2.24775z" data-paper-data="{&quot;index&quot;:null}" fill="#ffffff" stroke="#000000" stroke-width="1" stroke-linecap="butt"/><path d="M317.51177,146.62011c-1.09694,-0.26619 -1.93139,-1.75366 -1.86376,-3.32236c0.06764,-1.5687 1.01172,-2.62463 2.1087,-2.35846c1.09694,0.26619 1.93139,1.75367 1.86376,3.32237c-0.06764,1.5687 -1.01172,2.62463 -2.1087,2.35846z" data-paper-data="{&quot;index&quot;:null}" fill="#ffffff" stroke="#000000" stroke-width="1" stroke-linecap="butt"/><path d="M341.11332,163.11303c-0.19648,-3.73421 1.25175,-3.96593 2.11876,-4.01155c0.86702,-0.04562 1.72915,2.94458 1.92563,6.67878c0.19648,3.7342 -1.06914,7.43635 -1.93616,7.48197c-0.86703,0.04562 -1.91176,-6.415 -2.10825,-10.1492z" data-paper-data="{&quot;index&quot;:null}" fill="#161617" stroke="none" stroke-width="0" stroke-linecap="butt"/><path d="M321.33157,171.99428c0.04296,-0.22785 0.13295,-1.16012 0.58747,-2.26409c0.57559,-1.39806 1.58419,-3.06347 2.14793,-3.83405c1.25807,-1.71963 1.95895,-0.60766 2.24303,-0.55409c0.51192,0.09652 -1.73585,4.14273 -1.95464,5.30305c-0.21878,1.16033 -2.68179,4.76581 -3.1937,4.66928c-0.51191,-0.09651 -0.04886,-2.15976 0.16992,-3.32007z" data-paper-data="{&quot;index&quot;:null}" fill="#161617" stroke="none" stroke-width="0" stroke-linecap="butt"/><path d="M327.76518,115.25727c2.17727,-0.12173 8.70346,-0.11195 13.28035,1.82451c1.59208,0.67359 8.26915,4.84683 10.65096,10.27619c1.94662,4.43737 -0.19529,10.37318 -0.19141,10.44254c0.00395,0.07078 0.21131,2.26556 -0.51223,1.18513c-1.51984,-2.26948 -5.08266,-9.2324 -8.77659,-12.20427c-4.44273,-3.57431 -10.47414,-4.84682 -12.06964,-4.75762c-3.55362,0.19868 -16.30111,1.03268 -16.32337,0.63444c-0.02227,-0.39825 10.38832,-7.20225 13.94193,-7.40093z" data-paper-data="{&quot;index&quot;:null}" fill="#161617" stroke="none" stroke-width="0" stroke-linecap="butt"/><path d="M349.15977,146.5721c2.48649,-8.75574 1.36674,-19.56713 2.35073,-19.62214c1.80743,-0.10105 2.87341,6.60902 3.16287,11.78627c0.28945,5.17725 -5.1229,18.25889 -6.93035,18.35994c-1.80743,0.10105 -8.19897,9.60245 -8.48843,4.4252c-0.13187,-2.35871 7.82436,-7.62202 9.90518,-14.94927z" data-paper-data="{&quot;index&quot;:null}" fill="#161617" stroke="none" stroke-width="0" stroke-linecap="butt"/><path d="M339.23274,114.95201c1.74034,0.57981 3.60883,1.09234 5.20996,1.99109c1.71614,0.96333 3.37648,3.37424 4.7067,5.55591l1.45134,1.30852c0.18917,0.17045 0.31371,0.41275 0.32905,0.68709c0.0069,0.12347 -0.00889,0.24294 -0.04377,0.35439c0.16474,0.2583 0.31715,0.70343 -0.1098,1.18095c-0.66653,0.74548 -1.412,0.07895 -1.412,0.07895c-1.95595,-1.75744 -4.3099,-2.85372 -6.32577,-4.49916l-0.79821,-0.6103c-0.22652,-0.17106 -0.37912,-0.43691 -0.39622,-0.74253c-0.03084,-0.55142 0.3912,-1.02343 0.94261,-1.05427c0.23592,-0.0132 0.4573,0.05651 0.63582,0.18377l1.61433,1.12857l-0.05567,0.07962c0.03233,0.02421 0.06472,0.04834 0.09719,0.07236c0.06563,0.02711 0.13107,0.05446 0.19635,0.08211c-0.32131,-0.52793 -0.67209,-1.05201 -1.11704,-1.51059c-0.61233,-0.63111 -1.46431,-1.06144 -2.37708,-1.40053c-0.12054,0.06173 -0.25565,0.09983 -0.39958,0.10787l-1.33126,0.07442l-0.00381,-0.06818l-0.164,0.06346c-0.48344,-0.1381 -0.92849,-0.36879 -1.34499,-0.65591c-0.01583,0.00291 -0.03169,0.00578 -0.04756,0.00861l-0.11832,0.1809l-0.19796,-0.12946c-2.01208,0.29615 -4.34248,0.05779 -5.91157,-0.70035l-1.02214,-0.24538c-0.16543,-0.0357 -0.31643,-0.11257 -0.44102,-0.21992c-0.48874,0.25579 -0.98532,0.50061 -1.55749,0.58867c-0.02391,0.00369 -0.04799,0.00706 -0.07227,0.01014c-0.24936,0.31801 -0.57275,0.60647 -0.85315,0.8437c-0.33585,0.28414 -0.90109,-0.03732 -1.31503,0.11164c-0.91847,0.33052 -2.53167,1.85793 -3.33616,2.37639c-0.60133,0.23515 -1.82649,0.59845 -3.04608,0.69513c-0.0225,0.48151 -0.3889,0.88165 -0.86976,0.94377l-1.25588,0.17569c-1.99379,0.61153 -3.6792,1.04895 -5.77907,1.33021c0,0 -0.99121,0.13223 -1.12345,-0.85898c-0.1071,-0.80289 0.52287,-1.04219 0.76613,-1.10414l-0.2372,-0.00648c-0.5192,-0.00872 -0.95117,-0.41737 -0.98061,-0.94407c-0.02575,-0.46068 0.26457,-0.86594 0.68235,-1.00481l1.86181,-0.66679l0.11371,0.3175c1.27456,-0.53912 2.57859,-0.89583 3.89735,-1.19426c0.14374,-0.28052 0.30094,-0.55676 0.4214,-0.82396c0.22041,-0.48891 0.54363,-0.94297 0.93593,-1.30866c3.29208,-3.06864 8.14952,-3.23439 12.21623,-2.77127c0.94082,0.10715 2.83227,0.00552 4.19157,0.30639c0.92838,-0.05922 1.85727,-0.10356 2.75877,-0.15493l0.44375,-0.02481c0,0 0.99844,-0.05582 1.05427,0.94261c0.02914,0.5214 -0.2292,0.78574 -0.48274,0.91931zM329.09398,114.9553c0.15452,-0.02669 0.30436,-0.06634 0.45094,-0.11545c-0.21318,-0.01358 -0.42628,-0.02506 -0.63938,-0.03407c0.06676,0.04583 0.12971,0.09559 0.18844,0.14951z" data-paper-data="{&quot;index&quot;:null}" fill="#161617" stroke="none" stroke-width="0.5" stroke-linecap="butt"/><path d="M313.74642,123.27456c0,0 4.99988,-1.05142 11.82814,-1.33951c7.93449,-0.33475 16.77433,2.55737 18.73212,5.51421c1.96687,2.97055 8.1058,8.44664 5.57354,19.96903c-1.89168,8.60758 -9.9211,10.78078 -9.9211,10.78078" data-paper-data="{&quot;index&quot;:null}" fill="none" stroke="#000000" stroke-width="1.5" stroke-linecap="round"/><path d="M330.60508,126.65831c-0.4014,-0.42231 -3.69991,3.56642 -8.18104,5.0765c-5.18975,1.74888 -11.64986,1.06705 -11.9911,0.62726c-0.14305,-0.18435 3.36115,-9.00532 6.72465,-10.80786c4.94328,-2.64916 10.40187,1.42482 10.24739,1.1966c2.45532,0.32954 6.03323,0.35673 7.60707,0.28069c2.12572,-0.10271 7.17315,3.0934 8.70523,4.25851c0.90134,0.68545 1.76149,2.2162 2.64999,3.59135c-0.66457,1.00676 -1.55079,1.66433 -1.55079,1.66433c0,0 -2.14355,-1.83324 -5.34141,-3.84422c-0.51803,-0.32577 -1.06374,-0.6562 -1.63248,-0.98426c-0.20687,-0.11932 -1.45167,3.62483 -1.66262,3.50543c-1.97388,-1.11737 -3.938,-2.84218 -5.57488,-4.56436z" data-paper-data="{&quot;index&quot;:null}" fill="#3c352f" stroke="#000000" stroke-width="1.5" stroke-linecap="butt"/><path d="M332.92257,171.88601c4.01823,-0.21143 7.39159,1.82072 7.53462,4.53894c0.14303,2.71821 -2.99846,5.09316 -7.01669,5.30459c-4.01823,0.21143 -7.39159,-1.82073 -7.53461,-4.53894c-0.14303,-2.71821 2.99845,-5.09316 7.01668,-5.30459z" data-paper-data="{&quot;index&quot;:null}" fill="#343434" stroke="none" stroke-width="0" stroke-linecap="butt"/><path d="M344.79141,206.07476l5.14516,7.08524" data-paper-data="{&quot;index&quot;:null}" fill="none" stroke="#000000" stroke-width="1.5" stroke-linecap="round"/><path d="M324.23174,207.87251l-1.80763,4.82319" data-paper-data="{&quot;index&quot;:null}" fill="none" stroke="#000000" stroke-width="1.5" stroke-linecap="round"/><path d="M313.11358,133.56029l3.7651,-2.71926" data-paper-data="{&quot;index&quot;:null}" fill="none" stroke="#000000" stroke-width="1.5" stroke-linecap="round"/><path d="M333.85868,129.22823l-4.90023,-2.41125" data-paper-data="{&quot;index&quot;:null}" fill="none" stroke="#000000" stroke-width="1.5" stroke-linecap="round"/><path d="M334.42837,141.75582c0,0 -0.05802,1.0299 -0.08915,1.58236c-0.03422,0.60746 -0.77411,1.89144 -0.77411,1.89144" fill="none" stroke="#000000" stroke-width="1" stroke-linecap="round"/><path d="M317.39283,147.70575c0,0 -0.88461,-0.22793 -1.17026,-0.44203c-0.253,-0.18964 -0.45763,-0.77813 -0.45763,-0.77813" fill="none" stroke="#000000" stroke-width="1" stroke-linecap="round"/><path d="M319.4441,153.85895c0,0 5.40864,-1.92802 8.37324,-2.46607c3.24458,-0.58885 10.33018,-0.92837 10.33018,-0.92837" fill="none" stroke="#000000" stroke-width="2" stroke-linecap="round"/><g data-paper-data="{&quot;index&quot;:null}" stroke="#000000" stroke-width="2" stroke-linecap="butt"><path d="M326.23339,193.1007c-2.36386,-6.09537 7.71226,-9.11241 20.01703,-14.10259c0.07099,0.16239 0.14473,0.32386 0.22167,0.48436c1.06453,2.22087 2.04696,4.41942 2.89306,6.72335c0.36539,0.99499 0.70351,1.99545 1.07351,2.977c-12.20945,4.99207 -21.95702,9.44239 -24.20528,3.91789z" data-paper-data="{&quot;index&quot;:null}" fill="#ffe4cb"/><path d="M341.51534,179.76623c0,0 -2.64496,-14.09801 1.71185,-15.27529c10.76921,-2.84598 10.63893,11.66752 11.36628,13.14713c-0.08024,1.231 0.67888,7.77777 -3.47163,11.07757c-6.39506,5.0843 -18.66955,7.20562 -18.69074,7.21598c-0.4386,-1.01162 -2.64851,-10.86284 -3.08501,-11.88684c-1.02361,-2.40135 12.16925,-4.27855 12.16925,-4.27855z" data-paper-data="{&quot;index&quot;:null}" fill="#161617"/></g><g data-paper-data="{&quot;index&quot;:null}" fill="#404040" stroke="#000000" stroke-width="1.5" stroke-linecap="butt"><path d="M325.78515,181.75848c1.66066,0.65325 9.78026,14.72729 10.00189,15.112c0.49371,0.85701 -1.12122,2.76818 -3.60705,4.2687c-2.48584,1.50053 -6.02671,4.66992 -6.52042,3.8129c-0.34518,-0.59918 -6.62985,-9.54592 -9.19898,-14.1042c-0.03979,-0.07057 -1.25103,-2.10085 -1.28947,-2.16953c-0.56222,-1.00479 9.20486,-7.47419 10.61402,-6.91987z"/><path d="M325.9283,183.69158c0.40453,0.47061 0.3392,1.19645 -0.14595,1.62121c-0.48514,0.42476 -1.20634,0.38759 -1.61087,-0.08304c-0.40453,-0.47061 -0.3392,-1.19647 0.14594,-1.62122c0.48514,-0.42476 1.20634,-0.38758 1.61088,0.08305z"/></g></g></g></svg>