<svg version="1.1" xmlns="http://www.w3.org/2000/svg" xmlns:xlink="http://www.w3.org/1999/xlink" width="12.00969" height="18.41032" viewBox="0,0,12.00969,18.41032"><g transform="translate(-313.99516,-170.79484)"><g data-paper-data="{&quot;isPaintingLayer&quot;:true}" fill="#ff0000" fill-rule="nonzero" stroke="none" stroke-width="0.5" stroke-linecap="butt" stroke-linejoin="miter" stroke-miterlimit="10" stroke-dasharray="" stroke-dashoffset="0" style="mix-blend-mode: normal"><path d="M324.71647,187.56738c-2.13718,2.0358 -10.72131,2.85412 -10.72131,-1.64754c0,-5.10686 7.7481,-0.06304 6.60959,-2.81164c-0.21319,-0.5147 -0.77775,-0.26389 -1.00343,-0.65882c-0.29585,-0.17461 -0.5526,-0.40841 -0.75396,-0.68512c-0.44985,-0.38813 -0.7272,-1.05954 -0.7272,-2.09441c0,-1.17927 2.19469,-1.52403 2.2864,-2.69973c0.04569,-0.58578 -1.57112,-0.96594 -2.89115,-1.20633c-0.12874,0.02045 -0.26075,0.03107 -0.39525,0.03107c-0.45005,0 -0.87233,-0.11892 -1.23712,-0.32706c-0.75435,-0.4304 -1.26288,-1.24228 -1.26288,-2.17294c0,-1.38071 1.11929,-2.5 2.5,-2.5c0.42283,0 0.82114,0.10497 1.1703,0.29027c3.61169,-0.26798 8.03608,2.75115 7.5797,6.58473c-0.08582,0.72092 -0.57872,1.51985 -1.27789,2.24321c1.56479,2.21574 2.12804,5.74555 0.12421,7.65433z"/></g></g></svg>