<svg version="1.1" xmlns="http://www.w3.org/2000/svg" xmlns:xlink="http://www.w3.org/1999/xlink" width="128.16342" height="76.16855" viewBox="0,0,128.16342,76.16855"><defs><radialGradient cx="621.2504" cy="184.38541" r="2.21987" gradientUnits="userSpaceOnUse" id="color-1"><stop offset="0" stop-color="#7fff97"/><stop offset="1" stop-color="#50d231"/></radialGradient><radialGradient cx="621.27361" cy="185.86897" r="8.24566" gradientUnits="userSpaceOnUse" id="color-2"><stop offset="0" stop-color="#7fff97"/><stop offset="1" stop-color="#50d231"/></radialGradient></defs><g transform="translate(-508.06914,-174.00717)"><g data-paper-data="{&quot;isPaintingLayer&quot;:true}" fill-rule="nonzero" stroke-linecap="butt" stroke-linejoin="miter" stroke-miterlimit="10" stroke-dasharray="" stroke-dashoffset="0" style="mix-blend-mode: normal"><path d="M630.83732,237.17975c0,5.59331 -27.4826,10.12758 -61.38409,10.12758c-33.90149,0 -61.38409,-4.53427 -61.38409,-10.12758c0,-5.59331 27.4826,-10.12758 61.38409,-10.12758c33.90149,0 61.38409,4.53427 61.38409,10.12758z" fill-opacity="0.40392" fill="#000000" stroke="none" stroke-width="0"/><g stroke="#ffffff" stroke-width="4.5"><path d="M633.98256,238.28201c0,0 0,2.26888 -0.31554,2.81013c0,0 -0.22571,0.55585 -0.97694,0.60076h-5.49843v-6.97002h5.49843c0.75237,0.04548 0.97694,0.60133 0.97694,0.60133c0.31554,0.54125 0.31554,2.9578 0.31554,2.9578z" fill="#dedede"/><path d="M633.98144,238.28201c0,0 0,2.26888 -0.31554,2.81013c0,0 -0.22571,0.55585 -0.97695,0.60076h-4.9364v4.94089c-0.04492,0.7518 -0.60133,0.97639 -0.60133,0.97639c-0.54069,0.31554 -2.96005,0.31554 -2.96005,0.31554c0,0 -2.26944,0 -2.81013,-0.31554c0,0 -0.55641,-0.22515 -0.60133,-0.97639v-4.93808h-4.9364c-0.75237,-0.04492 -0.97695,-0.60077 -0.97695,-0.60077c-0.31554,-0.54125 -0.31554,-2.9606 -0.31554,-2.9606c0,0 0,-2.26888 0.31554,-2.81013c0,0 0.22571,-0.55585 0.97695,-0.60133h4.94033v-4.93696c0.04492,-0.75237 0.60133,-0.97695 0.60133,-0.97695c0.54069,-0.31554 2.96005,-0.31554 2.96005,-0.31554c0,0 2.26663,0 2.80732,0.31554c0,0 0.55585,0.22571 0.60133,0.97695v4.93696h4.9364c0.75237,0.04548 0.97694,0.60133 0.97694,0.60133c0.31554,0.54125 0.31442,2.9578 0.31442,2.9578z" fill="none"/></g><path d="M633.98144,238.28201c0,0 0,2.26888 -0.31554,2.81013c0,0 -0.22571,0.55585 -0.97695,0.60076h-4.9364v4.94089c-0.04492,0.7518 -0.60133,0.97639 -0.60133,0.97639c-0.54069,0.31554 -2.96005,0.31554 -2.96005,0.31554c0,0 -2.26944,0 -2.81013,-0.31554c0,0 -0.55641,-0.22515 -0.60133,-0.97639v-4.93808h-4.9364c-0.75237,-0.04492 -0.97695,-0.60077 -0.97695,-0.60077c-0.31554,-0.54125 -0.31554,-2.9606 -0.31554,-2.9606c0,0 0,-2.26888 0.31554,-2.81013c0,0 0.22571,-0.55585 0.97695,-0.60133h4.94033v-4.93696c0.04492,-0.75237 0.60133,-0.97695 0.60133,-0.97695c0.54069,-0.31554 2.96005,-0.31554 2.96005,-0.31554c0,0 2.26663,0 2.80732,0.31554c0,0 0.55585,0.22571 0.60133,0.97695v4.93696h4.9364c0.75237,0.04548 0.97694,0.60133 0.97694,0.60133c0.31554,0.54125 0.31442,2.9578 0.31442,2.9578z" fill="none" stroke="#363636" stroke-width="3"/><path d="M634.0198,238.41628c0,0 0,2.26888 -0.31554,2.81013c0,0 -0.22571,0.55585 -0.97695,0.60076h-4.9364v4.94089c-0.04492,0.7518 -0.60133,0.97639 -0.60133,0.97639c-0.54069,0.31554 -2.96005,0.31554 -2.96005,0.31554c0,0 -2.26944,0 -2.81013,-0.31554c0,0 -0.55641,-0.22515 -0.60133,-0.97639v-4.93808h-4.9364c-0.75237,-0.04492 -0.97695,-0.60077 -0.97695,-0.60077c-0.31554,-0.54125 -0.31554,-2.9606 -0.31554,-2.9606c0,0 0,-2.26888 0.31554,-2.81013c0,0 0.22571,-0.55585 0.97695,-0.60133h4.94033v-4.93696c0.04492,-0.75237 0.60133,-0.97695 0.60133,-0.97695c0.54069,-0.31554 2.96005,-0.31554 2.96005,-0.31554c0,0 2.26663,0 2.80732,0.31554c0,0 0.55585,0.22571 0.60133,0.97695v4.93696h4.9364c0.75237,0.04548 0.97694,0.60133 0.97694,0.60133c0.31554,0.54125 0.31442,2.9578 0.31442,2.9578z" fill="#dedede" stroke="#dedede" stroke-width="1.5"/><path d="M634.13601,238.41628c0,0 0,2.26888 -0.31554,2.81013c0,0 -0.22571,0.55585 -0.97695,0.60076h-5.49842v-6.97002h5.49842c0.75237,0.04548 0.97695,0.60133 0.97695,0.60133c0.31554,0.54125 0.31554,2.9578 0.31554,2.9578z" fill="#2a2a2a" stroke="none" stroke-width="1.5"/><path d="M614.88607,235.45848c0,0 0.22459,-0.55585 0.97695,-0.60133h5.49842v6.97002h-5.49842c-0.75124,-0.04492 -0.97695,-0.60076 -0.97695,-0.60076c-0.31554,-0.54125 -0.31554,-2.81013 -0.31554,-2.81013c0,0 0,-2.41655 0.31554,-2.9578z" data-paper-data="{&quot;index&quot;:null}" fill="#2a2a2a" stroke="none" stroke-width="1.5"/><text transform="translate(519.1657,242.39203) scale(0.41478,0.42651)" font-size="40" xml:space="preserve" fill="#ffffff" fill-rule="nonzero" stroke="#363636" stroke-width="5" stroke-linecap="butt" stroke-linejoin="miter" stroke-miterlimit="10" stroke-dasharray="" stroke-dashoffset="0" font-family="Playful" font-weight="normal" text-anchor="start" style="mix-blend-mode: normal"><tspan x="0" dy="0">Switch Cam</tspan></text><text transform="translate(518.00906,242.23184) scale(0.41478,0.41478)" font-size="40" xml:space="preserve" fill="#ffffff" fill-rule="nonzero" stroke="#000000" stroke-width="0" stroke-linecap="butt" stroke-linejoin="miter" stroke-miterlimit="10" stroke-dasharray="" stroke-dashoffset="0" font-family="Playful" font-weight="normal" text-anchor="start" style="mix-blend-mode: normal"><tspan x="0" dy="0">Switch Cam</tspan></text><path d="M630.79896,212.16984c0,5.59331 -17.64116,10.12758 -39.40263,10.12758c-21.76147,0 -39.40263,-4.53427 -39.40263,-10.12758c0,-5.59331 17.64116,-10.12758 39.40263,-10.12758c21.76147,0 39.40263,4.53427 39.40263,10.12758z" fill-opacity="0.40392" fill="#000000" stroke="none" stroke-width="0"/><path d="M630.97595,211.27014c0,4.65704 -3.79248,8.44951 -8.44951,8.44951c-4.65703,0 -8.44951,-3.79246 -8.44951,-8.44951c0,-4.65704 3.79248,-8.44951 8.44951,-8.44951c4.65703,0 8.44951,3.79248 8.44951,8.44951zM627.31826,213.21022h-9.58363v1.09577h9.58363zM627.31826,210.63242h-9.58363v1.09577h9.58363zM627.31826,208.05734h-9.58363v1.09578h9.58363z" fill="#dedede" stroke="#ffffff" stroke-width="4.5"/><path d="M631.04594,211.46606c0,4.65704 -3.79248,8.44951 -8.44951,8.44951c-4.65703,0 -8.44951,-3.79248 -8.44951,-8.44951c0,-4.65704 3.79248,-8.44951 8.44951,-8.44951c4.65703,0 8.44951,3.79248 8.44951,8.44951zM627.38827,213.40612h-9.58363v1.09578h9.58363zM627.38827,210.82831h-9.58363v1.09578h9.58363zM627.38827,208.25326h-9.58363v1.09578h9.58363z" fill="#dedede" stroke="#363636" stroke-width="2"/><path d="M631.04596,211.63402c0,4.65704 -3.79248,8.44951 -8.44951,8.44951c-4.65703,0 -8.44951,-3.79248 -8.44951,-8.44951c0,-4.65704 3.79248,-8.44951 8.44951,-8.44951c4.65703,0 8.44951,3.79248 8.44951,8.44951zM627.38827,213.57409h-9.58363v1.09577h9.58363zM627.38827,210.99629h-9.58363v1.09577h9.58363zM627.38827,208.42121h-9.58363v1.09577h9.58363z" fill="#dedede" stroke="none" stroke-width="1"/><text transform="translate(561.13379,216.69161) scale(0.41478,0.42651)" font-size="40" xml:space="preserve" fill="#ffffff" fill-rule="nonzero" stroke="#363636" stroke-width="5" stroke-linecap="butt" stroke-linejoin="miter" stroke-miterlimit="10" stroke-dasharray="" stroke-dashoffset="0" font-family="Playful" font-weight="normal" text-anchor="start" style="mix-blend-mode: normal"><tspan x="0" dy="0">Pause</tspan></text><text transform="translate(560.1306,216.64651) scale(0.41478,0.41478)" font-size="40" xml:space="preserve" fill="#ffffff" fill-rule="nonzero" stroke="#000000" stroke-width="0" stroke-linecap="butt" stroke-linejoin="miter" stroke-miterlimit="10" stroke-dasharray="" stroke-dashoffset="0" font-family="Playful" font-weight="normal" text-anchor="start" style="mix-blend-mode: normal"><tspan x="0" dy="0">Pause</tspan></text><g><path d="M632.19896,186.36985c0,5.59331 -17.64116,10.12758 -39.40263,10.12758c-21.76147,0 -39.40263,-4.53427 -39.40263,-10.12758c0,-5.59331 17.64116,-10.12758 39.40263,-10.12758c21.76147,0 39.40263,4.53427 39.40263,10.12758z" fill-opacity="0.40392" fill="#000000" stroke="none" stroke-width="0"/><path d="M631.5,185.81124c0,5.82885 -4.60152,10.55406 -10.27778,10.55406c-5.67626,0 -10.27778,-4.72521 -10.27778,-10.55406c0,-5.82885 4.60152,-10.55407 10.27778,-10.55407c5.67626,0 10.27778,4.72522 10.27778,10.55407z" fill="#1b3620" stroke="#ffffff" stroke-width="2.5"/><path d="M621.28135,182.16555l1.50871,4.43973h-3.07931z" fill="url(#color-1)" stroke="none" stroke-width="0"/><path d="M629.51928,185.86897c0,4.55395 -3.69171,8.24566 -8.24566,8.24566c-4.55395,0 -8.24566,-3.69171 -8.24566,-8.24566c0,-4.55395 3.69171,-8.24566 8.24566,-8.24566c4.55233,0.00391 8.24175,3.69333 8.24566,8.24566zM626.2762,190.85287l-4.07479,-11.07223h-1.84075l-4.08962,11.07223h2.14314l0.98324,-2.76081h3.73953l0.99613,2.76081z" fill="url(#color-2)" stroke="none" stroke-width="0"/><text transform="translate(559.78379,192.14161) scale(0.41478,0.42651)" font-size="40" xml:space="preserve" fill="#ffffff" fill-rule="nonzero" stroke="#363636" stroke-width="5" stroke-linecap="butt" stroke-linejoin="miter" stroke-miterlimit="10" stroke-dasharray="" stroke-dashoffset="0" font-family="Playful" font-weight="normal" text-anchor="start" style="mix-blend-mode: normal"><tspan x="0" dy="0">Select</tspan></text><text transform="translate(558.7806,192.09652) scale(0.41697,0.41478)" font-size="40" xml:space="preserve" fill="#ffffff" fill-rule="nonzero" stroke="#000000" stroke-width="0" stroke-linecap="butt" stroke-linejoin="miter" stroke-miterlimit="10" stroke-dasharray="" stroke-dashoffset="0" font-family="Playful" font-weight="normal" text-anchor="start" style="mix-blend-mode: normal"><tspan x="0" dy="0">Select</tspan></text></g></g></g></svg>