<svg version="1.1" xmlns="http://www.w3.org/2000/svg" xmlns:xlink="http://www.w3.org/1999/xlink" width="180.99803" height="230.56057" viewBox="0,0,180.99803,230.56057"><g transform="translate(-306.32892,-28.88919)"><g data-paper-data="{&quot;isPaintingLayer&quot;:true}" fill-rule="nonzero" stroke-linecap="butt" stroke-linejoin="miter" stroke-miterlimit="10" stroke-dasharray="" stroke-dashoffset="0" style="mix-blend-mode: normal"><path d="M316.08319,255.58393v-108.50644c0,0 60.30436,-105.00623 87.70853,-105.00623c25.63425,0 71.76152,105.00623 71.76152,105.00623v108.50644z" fill-opacity="0.41569" fill="#9a8bff" stroke="none" stroke-width="0"/><path d="M307.44983,140.92669l83.49629,-107.45451l11.22812,1.12798l-83.49629,112.78895z" fill="#fff1f7" stroke="#000000" stroke-width="1.5"/><path d="M320.13822,151.2212v-12.57403h154.69861v12.57403z" fill="#fff1f7" stroke="#000000" stroke-width="1.5"/><path d="M308.82357,258.69975v-121.16787h11.81196v121.16788z" fill="#fff1f7" stroke="#000000" stroke-width="1.5"/><path d="M474.0484,258.5571v-121.16788h11.81196v121.16788z" fill="#fff1f7" stroke="#000000" stroke-width="1.5"/><path d="M411.12585,33.71056l75.11361,106.31141l-11.22812,6.46242l-73.58948,-110.88379z" data-paper-data="{&quot;index&quot;:null}" fill="#fff1f7" stroke="#000000" stroke-width="1.5"/><path d="M387.58071,39.54599v-9.9068h26.29114v9.9068z" fill="#fff1f7" stroke="#000000" stroke-width="1.5"/><path d="M423.68431,258.44304v-5.33443h50.2961v5.33443z" fill="#fff1f7" stroke="#000000" stroke-width="1.5"/><path d="M320.56755,258.58569v-5.33443c0,0 33.45347,0 42.05607,0c0.33762,0 -4.77293,-83.18927 -1.88352,-83.23227c1.39744,-0.02079 62.98053,-2.45206 62.98053,-2.45206l0.72898,85.68433c0,0 2.00225,4.32919 0.67445,5.11043c-0.92324,0.54321 -7.8784,-0.87182 -7.8784,-0.87182l-0.83916,-81.56093l-49.02509,0.91819l3.48222,81.73856z" fill="#fff1f7" stroke="#000000" stroke-width="1.5"/></g></g></svg>