<svg version="1.1" xmlns="http://www.w3.org/2000/svg" xmlns:xlink="http://www.w3.org/1999/xlink" width="109.43564" height="68.33479" viewBox="0,0,109.43564,68.33479"><g transform="translate(-274.08195,-160.52087)"><g data-paper-data="{&quot;isPaintingLayer&quot;:true}" fill-rule="nonzero" stroke-linecap="butt" stroke-linejoin="miter" stroke-miterlimit="10" stroke-dasharray="" stroke-dashoffset="0" style="mix-blend-mode: normal"><path d="M349.8819,189.14569c3.5606,0.13417 3.56168,5.45409 0,5.58504c-0.57285,0.02106 -1.20791,0.04948 -1.88483,0.07634c-0.0108,1.55721 -0.03389,3.11428 -0.06993,4.67094c-0.07191,3.10653 -3.37513,3.2571 -5.23597,1.39626c-1.58819,-1.58819 -1.8491,-3.76355 -1.64181,-6.13266c-0.9686,-0.0914 -1.90003,-0.23317 -2.74863,-0.44532c-1.04712,-0.26178 -3.00206,-3.43958 -1.43704,-4.33388c0.48576,-0.82307 1.38172,-1.37522 2.40664,-1.37522c0.46205,0 0.89789,0.11222 1.28175,0.31088c0.48926,0.09735 0.95724,0.16545 1.4157,0.21189c0.19681,-1.14265 0.3512,-2.26131 0.37432,-3.31529c0,-0.02962 0.00046,-0.05913 0.00138,-0.08853c0.04675,-1.5013 1.2785,-2.70399 2.79114,-2.70399c1.02282,0 1.9172,0.54989 2.40364,1.37016c0.20897,0.26399 0.3359,0.61777 0.37628,1.15536c0.00833,0.08787 0.0126,0.17693 0.0126,0.26699c0.02428,1.10656 0.04299,2.21331 0.05589,3.32017c0.58868,-0.00245 1.21754,0.00518 1.89887,0.03085z" fill="#ffffff" stroke="#000000" stroke-width="1.5"/><g fill="#9966ff" stroke="#000000" stroke-width="3"><path d="M300.83195,198.27791c-1.21405,5.75325 -7.89051,9.56262 -9.57645,2.65411c-0.92762,-3.80114 1.52117,-12.36313 6.20145,-9.24411c0.55671,0.371 4.40852,2.87336 3.375,4.70999z"/><path d="M303.31418,191.51787c4.6282,-8.85509 12.98002,3.78074 9.20526,8.54899c-1.66667,2.10532 -2.70833,2.10532 -4.375,0c-0.49532,-0.62569 -0.29874,-4.11338 -0.3125,-4.30727c-0.01758,-0.24759 -0.24802,-0.92417 -0.25,-0.6756c-0.0014,0.17505 -0.10676,0.65722 -0.28846,1.27003c0.02528,0.18014 0.03846,0.36556 0.03846,0.55486c0,1.31866 -0.63983,2.44855 -1.54871,2.92132c-0.7024,1.01881 -1.50842,1.37357 -2.22012,-0.19972c-0.73685,-0.54934 -1.23116,-1.56254 -1.23116,-2.7216c0,-0.38026 0.05321,-0.74482 0.15073,-1.08246c0.16411,-1.58914 0.0996,-2.9082 0.83151,-4.30855z"/><path d="M316.70695,189.39585c0.63268,0.40315 1.50434,0.54161 1.99291,1.10439c0.07451,0.08583 0.14011,0.18152 0.19459,0.28954c0.0682,0.13521 0.11956,0.27714 0.15715,0.42432c0.10046,0.30198 0.15535,0.62864 0.15535,0.9696c0,0.36698 -0.06359,0.7174 -0.17914,1.0383c-0.13108,0.92299 -0.29042,1.82182 0.05414,2.4465c0.74601,1.35252 0.91856,-2.76672 1.0625,-2.92723c5.14676,-5.73934 6.66438,7.06311 2.55554,8.20858c-6.01112,1.6758 -8.70085,-0.41986 -8.61804,-6.81466c0.00756,-0.58429 0.03612,-3.08964 0.47046,-3.36641z"/><path d="M333.06802,195.40282c0.3507,1.40279 0.63859,3.56584 -0.38975,4.76557c-2.58774,3.01903 -7.9086,0.85475 -4.88155,-2.8653c0.42758,-0.52546 -1.19556,-0.66745 -1.68608,-1.1347c-0.70105,-0.6678 -0.53457,-2.78996 -0.23014,-3.76283c0.52254,-1.66986 5.31066,-6.41235 7.09529,-3.28925c0.73685,0.43488 1.23116,1.23699 1.23116,2.15454c0,1.33482 -1.04613,2.42532 -2.36324,2.49633c-0.63365,0.24957 1.05914,0.97494 1.22431,1.63564z"/><path d="M285.33195,198.45835c-0.00439,-0.14753 -0.4664,-0.17582 -0.55777,-0.1875c-1.09218,-0.13971 -2.69332,-0.28976 -3.7141,-1.00068c0.00515,0.33441 0.01228,0.66878 0.02187,1.00313c0.04282,1.49401 0.88361,3.22728 1.40138,4.87139c1.60735,-0.76442 2.95547,-1.09071 2.84862,-4.68634zM290.01945,196.27085c1.1596,3.8101 -0.05424,10.04164 -4.25716,11.32992c-1.04059,0.31896 -3.72493,1.38412 -4.72102,0.59057c-0.86703,0.19613 -1.91846,-0.16421 -2.89682,-1.04549c-1.42016,-1.27925 -2.05169,-6.95406 -2.0625,-8.625c-0.02301,-3.55627 -0.25,-7.00467 -0.25,-10.40897c-0.16017,-0.32969 -0.25,-0.69987 -0.25,-1.09103c0,-1.38071 1.11929,-2.5 2.5,-2.5c0.76409,0 1.44812,0.34278 1.90669,0.88297c3.2725,-0.32639 7.0101,2.99363 7.32212,6.54134c0.04444,0.50536 -0.01099,1.13399 -0.16451,1.77528c1.41137,0.61237 2.55999,1.5213 2.8732,2.55041zM281.49036,191.07566c-0.10679,-0.10821 -0.24473,-0.19261 -0.40467,-0.25937c-0.00399,0.89008 -0.01473,1.78023 -0.02361,2.67033c0.25876,-0.17086 0.55959,-0.30111 0.89113,-0.39426c0.13216,-0.71522 0.12949,-1.4165 -0.46285,-2.01671z"/><g><path d="M308.33195,182.17072c0.01742,0.89506 0.8444,2.22625 0.0625,3.10013c-2.30832,2.57988 -5.0307,-0.04286 -5.0625,-2.75c-0.02758,-2.34752 0.29072,-4.7283 0.00579,-7.05151c-1.64837,0.41729 -4.06479,1.03024 -5.73588,1.42378c0.25074,2 0.39673,3.89191 0.54469,5.38617c0.09431,0.95245 0.71148,5.03324 0.12289,6.24157c-0.39042,0.80149 -2.01363,1.28059 -2.77994,0.91146c-2.93075,-1.41172 -1.98158,-3.69228 -2.28256,-6.66391c-0.20253,-1.99969 -0.96942,-5.03651 -1.33396,-7.04227c-0.15324,-0.84316 -1.2985,-4.83654 -1.74018,-7.51523c-0.19189,-0.35386 -0.30086,-0.75922 -0.30086,-1.19004c0,-0.30345 0.05406,-0.59427 0.15308,-0.86336c0.35153,-0.95528 1.26965,-1.63664 2.34692,-1.63664c1.38071,0 2.5,1.11929 2.5,2.5c0,0.01984 -0.00023,0.03961 -0.00069,0.05934c0.78645,1.28367 1.36557,2.84794 1.80239,4.51636c1.77276,-0.64586 3.91377,-0.91303 5.69257,-1.17266c-0.34356,-1.7156 -0.6832,-3.58944 -0.82425,-4.99503c-0.10976,-0.28146 -0.17001,-0.58769 -0.17001,-0.90801c0,-0.28988 0.04934,-0.56824 0.14008,-0.82713c0.34144,-0.97423 1.26909,-1.67287 2.35992,-1.67287c1.38071,0 2.5,1.11929 2.5,2.5c0,0.08454 -0.0042,0.16811 -0.0124,0.25049c0.92582,1.7741 1.42858,4.06209 1.69976,6.45481c0.19746,0.34559 0.31264,0.77302 0.31264,1.29469c0,0.23486 -0.05132,0.46299 -0.13824,0.68278c0.22145,3.37218 0.09471,6.73051 0.13824,8.96708z"/><path d="M311.33195,171.77085c0.0731,-2.77785 3.01664,-2.92085 4.6875,-1.25c2.79994,2.79994 0.4113,7.91653 0.3125,11.875c-0.00072,0.02904 -0.0012,0.05886 -0.00157,0.08928c-0.04701,1.33936 -1.14761,2.41072 -2.49843,2.41072c-0.91548,0 -1.71604,-0.49208 -2.15159,-1.22618c-0.18235,-0.23085 -0.29455,-0.53907 -0.33409,-1.00461c-0.00947,-0.08844 -0.01432,-0.17826 -0.01432,-0.26922c-0.08837,-3.54056 -0.09317,-7.08456 0,-10.625zM311.33195,182.39585z"/><path d="M310.83195,164.77085c0,-1.38071 1.11929,-2.5 2.5,-2.5c1.38071,0 2.5,1.11929 2.5,2.5c0,1.38071 -1.11929,2.5 -2.5,2.5c-1.38071,0 -2.5,-1.11929 -2.5,-2.5z"/><path d="M327.65638,171.83752c1.23102,0.28963 4.17755,1.04589 3.92557,2.93333c-0.3687,2.76171 -3.21339,2.61202 -5.73332,2.03515c0.01677,1.73857 0.02873,3.47705 -0.01668,5.21485v0c0,0.03118 -0.00058,0.06223 -0.00171,0.09313c-0.04899,1.33757 -1.14876,2.40687 -2.49829,2.40687c-1.18908,0 -2.18428,-0.83016 -2.43761,-1.94252c-1.3411,-1.66796 -1.26948,-3.66207 -0.77599,-6.72538c-1.1592,-0.21737 -2.0364,-1.23479 -2.0364,-2.4571c0,-1.38071 1.11929,-2.5 2.5,-2.5c0.12106,0 0.24011,0.00861 0.35658,0.02524c0.00756,-0.00161 0.01513,-0.0032 0.0227,-0.00477c0.15315,-1.10781 0.38286,-3.63483 1.05822,-4.27047c1.71717,-1.61616 2.65783,-1.71717 4.375,0c1.15112,1.15113 -0.16997,3.28141 -0.49428,4.75431c0.60076,0.14925 1.1916,0.30452 1.75621,0.43735z"/></g></g><g fill="#9966ff" stroke="none" stroke-width="0"><path d="M301.58195,202.11323c-1.21405,5.84613 -7.89051,9.71699 -9.57645,2.69696c-0.92762,-3.8625 1.52117,-12.56271 6.20145,-9.39334c0.55671,0.37699 4.40852,2.91975 3.375,4.78603z"/><path d="M304.06418,195.24406c4.6282,-8.99804 12.98002,3.84177 9.20526,8.687c-1.66667,2.13931 -2.70833,2.13931 -4.375,0c-0.49532,-0.63579 -0.29874,-4.17978 -0.3125,-4.3768c-0.01758,-0.25159 -0.24802,-0.93909 -0.25,-0.68651c-0.0014,0.17788 -0.10676,0.66783 -0.28846,1.29053c0.02528,0.18305 0.03846,0.37146 0.03846,0.56382c0,1.33995 -0.63983,2.48808 -1.54871,2.96848c-0.7024,1.03526 -1.50842,1.39574 -2.22012,-0.20294c-0.73685,-0.55821 -1.23116,-1.58776 -1.23116,-2.76554c0,-0.3864 0.05321,-0.75684 0.15073,-1.09993c0.16411,-1.61479 0.0996,-2.95515 0.83151,-4.37811z"/><path d="M317.45695,193.08778c0.63268,0.40966 1.50434,0.55035 1.99291,1.12222c0.07451,0.08722 0.14011,0.18445 0.19459,0.29421c0.0682,0.13739 0.11956,0.28161 0.15715,0.43117c0.10046,0.30686 0.15535,0.63879 0.15535,0.98525c0,0.3729 -0.06359,0.72898 -0.17914,1.05506c-0.13108,0.93789 -0.29042,1.85123 0.05414,2.486c0.74601,1.37435 0.91856,-2.81138 1.0625,-2.97449c5.14676,-5.83199 6.66438,7.17713 2.55554,8.3411c-6.01112,1.70285 -8.70085,-0.42664 -8.61804,-6.92467c0.00756,-0.59372 0.03612,-3.13952 0.47046,-3.42076z"/><path d="M333.81802,199.19172c0.3507,1.42544 0.63859,3.62341 -0.38975,4.8425c-2.58774,3.06777 -7.9086,0.86855 -4.88155,-2.91156c0.42758,-0.53394 -1.19556,-0.67822 -1.68608,-1.15302c-0.70105,-0.67858 -0.53457,-2.835 -0.23014,-3.82358c0.52254,-1.69682 5.31066,-6.51587 7.09529,-3.34235c0.73685,0.4419 1.23116,1.25696 1.23116,2.18932c0,1.35637 -1.04613,2.46447 -2.36324,2.53663c-0.63365,0.2536 1.05914,0.99068 1.22431,1.66204z"/><path d="M286.08195,202.29658c-0.00439,-0.14991 -0.4664,-0.17866 -0.55777,-0.19053c-1.09218,-0.14197 -2.69332,-0.29444 -3.7141,-1.01683c0.00515,0.33981 0.01228,0.67958 0.02187,1.01932c0.04282,1.51813 0.88361,3.27938 1.40138,4.95003c1.60735,-0.77676 2.95547,-1.10832 2.84862,-4.76199zM290.76945,200.07377c1.1596,3.87161 -0.05424,10.20375 -4.25716,11.51282c-1.04059,0.32411 -3.72493,1.40646 -4.72102,0.6001c-0.86703,0.1993 -1.91846,-0.16686 -2.89682,-1.06237c-1.42016,-1.2999 -2.05169,-7.06632 -2.0625,-8.76424c-0.02301,-3.61368 -0.25,-7.11775 -0.25,-10.57701c-0.16017,-0.33501 -0.25,-0.71117 -0.25,-1.10864c0,-1.403 1.11929,-2.54036 2.5,-2.54036c0.76409,0 1.44812,0.34831 1.90669,0.89722c3.2725,-0.33166 7.0101,3.04196 7.32212,6.64694c0.04444,0.51352 -0.01099,1.1523 -0.16451,1.80394c1.41137,0.62226 2.55999,1.54586 2.8732,2.59158zM282.24036,194.79471c-0.10679,-0.10996 -0.24473,-0.19572 -0.40467,-0.26356c-0.00399,0.90445 -0.01473,1.80897 -0.02361,2.71344c0.25876,-0.17362 0.55959,-0.30597 0.89113,-0.40062c0.13216,-0.72677 0.12949,-1.43937 -0.46285,-2.04927z"/><g><path d="M309.08195,185.74601c0.01742,0.90951 0.8444,2.26219 0.0625,3.15018c-2.30832,2.62153 -5.0307,-0.04355 -5.0625,-2.79439c-0.02758,-2.38542 0.29072,-4.80463 0.00579,-7.16535c-1.64837,0.42403 -4.06479,1.04687 -5.73588,1.44676c0.25074,2.03229 0.39673,3.95474 0.54469,5.47312c0.09431,0.96783 0.71148,5.11449 0.12289,6.34233c-0.39042,0.81443 -2.01363,1.30126 -2.77994,0.92617c-2.93075,-1.43451 -1.98158,-3.75189 -2.28256,-6.77149c-0.20253,-2.03197 -0.96942,-5.11782 -1.33396,-7.15596c-0.15324,-0.85677 -1.2985,-4.91462 -1.74018,-7.63655c-0.19189,-0.35957 -0.30086,-0.77148 -0.30086,-1.20925c0,-0.30835 0.05406,-0.60386 0.15308,-0.8773c0.35153,-0.9707 1.26965,-1.66306 2.34692,-1.66306c1.38071,0 2.5,1.13736 2.5,2.54036c0,0.02016 -0.00023,0.04025 -0.00069,0.0603c0.78645,1.30439 1.36557,2.89392 1.80239,4.58927c1.77276,-0.65629 3.91377,-0.92777 5.69257,-1.19159c-0.34356,-1.7433 -0.6832,-3.64739 -0.82425,-5.07567c-0.10976,-0.286 -0.17001,-0.59718 -0.17001,-0.92267c0,-0.29456 0.04934,-0.57741 0.14008,-0.84048c0.34144,-0.98996 1.26909,-1.69988 2.35992,-1.69988c1.38071,0 2.5,1.13736 2.5,2.54036c0,0.0859 -0.0042,0.17082 -0.0124,0.25453c0.92582,1.80274 1.42858,4.12767 1.69976,6.55901c0.19746,0.35117 0.31264,0.7855 0.31264,1.31559c0,0.23865 -0.05132,0.47046 -0.13824,0.6938c0.22145,3.42662 0.09471,6.83916 0.13824,9.11184z"/><path d="M312.08195,175.17825c0.0731,-2.82269 3.01664,-2.968 4.6875,-1.27018c2.79994,2.84514 0.4113,8.04433 0.3125,12.0667c-0.00072,0.02951 -0.0012,0.05981 -0.00157,0.09072c-0.04701,1.36098 -1.14761,2.44964 -2.49843,2.44964c-0.91548,0 -1.71604,-0.50002 -2.15159,-1.24597c-0.18235,-0.23458 -0.29455,-0.54777 -0.33409,-1.02083c-0.00947,-0.08987 -0.01432,-0.18114 -0.01432,-0.27357c-0.08837,-3.59772 -0.09317,-7.19893 0,-10.79652zM312.08195,185.97478z"/><path d="M311.58195,168.06525c0,-1.403 1.11929,-2.54036 2.5,-2.54036c1.38071,0 2.5,1.13736 2.5,2.54036c0,1.403 -1.11929,2.54036 -2.5,2.54036c-1.38071,0 -2.5,-1.13736 -2.5,-2.54036z"/><path d="M328.40638,175.246c1.23102,0.29431 4.17755,1.06277 3.92557,2.98068c-0.3687,2.80629 -3.21339,2.65419 -5.73332,2.068c0.01677,1.76664 0.02873,3.53318 -0.01668,5.29904v0c0,0.03168 -0.00058,0.06323 -0.00171,0.09463c-0.04899,1.35916 -1.14876,2.44573 -2.49829,2.44573c-1.18908,0 -2.18428,-0.84356 -2.43761,-1.97388c-1.3411,-1.69489 -1.26948,-3.72119 -0.77599,-6.83395c-1.1592,-0.22088 -2.0364,-1.25472 -2.0364,-2.49677c0,-1.403 1.11929,-2.54036 2.5,-2.54036c0.12106,0 0.24011,0.00875 0.35658,0.02565c0.00756,-0.00164 0.01513,-0.00325 0.0227,-0.00485c0.15315,-1.12569 0.38286,-3.69351 1.05822,-4.33941c1.71717,-1.64225 2.65783,-1.74489 4.375,0c1.15112,1.16971 -0.16997,3.33438 -0.49428,4.83106c0.60076,0.15166 1.1916,0.30944 1.75621,0.44441z"/></g></g><g fill="#ffffff" stroke="#000000" stroke-width="1"><path d="M356.43413,218.92391c1.3146,0.18651 1.69354,1.61133 1.79459,2.63246c0.06808,0.01816 0.13626,0.03549 0.20457,0.05185c1.4897,0.35669 4.23339,1.04043 3.91889,-2.40002c-0.05579,-0.61028 0.09751,-1.37197 -0.14462,-1.83729c-1.84121,-3.53833 -6.47472,0.39201 -8.22065,-4.15542c-0.67363,-1.75452 -0.09368,-7.28467 0.30561,-11.03281c-0.17397,-0.51339 -0.26682,-1.18909 -0.19886,-2.07762c0.11027,-1.4418 0.55007,-2.21638 1.01885,-2.63054c0.34557,-0.6636 0.90038,-1.20535 1.78472,-1.07988c0.59648,0.08462 1.00033,0.42418 1.27299,0.8653c1.77419,0.25172 3.54838,0.50342 5.32257,0.75514l2.26223,1.08718c0,0 1.97165,1.02238 1.26817,4.26453c-0.70348,3.24215 -2.67512,2.21976 -2.67512,2.21976l-1.37331,-0.79801c-1.4939,-0.21195 -2.98782,-0.4239 -4.48172,-0.63585c-0.06687,1.13753 -0.16216,2.26762 -0.34736,3.3742c-0.11257,0.67263 -0.66613,1.16718 -0.61744,1.85012c0.02898,0.40653 0.46402,-0.43585 0.71727,-0.44991c1.37527,-0.07638 3.27781,0.57031 4.48055,1.44564c2.82216,2.05392 3.41129,2.47192 3.78472,7.79732c0.78005,11.12413 -6.40617,10.90872 -10.95551,9.5132l-1.45747,-5.66736c0,0 0.25901,-3.38673 2.33631,-3.09201z"/><path d="M374.82218,207.91709c-0.82626,2.79162 -1.06494,5.84355 -1.16722,8.90218c-0.0323,0.96583 0.58801,5.06359 2.12533,4.47349c3.03277,-1.16413 2.67784,-10.71189 0.75232,-12.79573c-0.44536,-0.48198 -1.10438,-0.37207 -1.65657,-0.5581zM372.56206,202.29638c0.93649,-2.02824 2.78478,-1.27214 2.78478,-1.27214l1.17411,0.48366c1.06824,0.58285 2.35121,0.69722 3.2047,1.74854c2.77022,3.41235 4.16295,12.93603 2.70562,17.64259c-2.39215,7.72563 -9.92297,9.75222 -12.99666,1.51311c-1.47977,-3.96657 -0.57245,-6.19987 -0.29771,-10.11248c0.1895,-2.69858 0.58457,-5.42273 1.3619,-7.91834c0,0 0.64285,-1.9812 2.06326,-2.08494z"/></g></g></g></svg>