<svg version="1.1" xmlns="http://www.w3.org/2000/svg" xmlns:xlink="http://www.w3.org/1999/xlink" width="13.33331" height="18.5" viewBox="0,0,13.33331,18.5"><g transform="translate(-313.00183,-170.5625)"><g data-paper-data="{&quot;isPaintingLayer&quot;:true}" fill="#ff0000" fill-rule="nonzero" stroke="none" stroke-width="0.5" stroke-linecap="butt" stroke-linejoin="miter" stroke-miterlimit="10" stroke-dasharray="" stroke-dashoffset="0" style="mix-blend-mode: normal"><path d="M314.97746,182.16291c-1.89561,-2.23122 -3.44871,-10.67563 0.39754,-10.89965c1.97623,-0.11511 3.06632,3.08811 3,4.80789c-0.00234,0.06066 0.0266,0.93091 0.1373,0.93832c0.35029,0.02346 0.72368,0.05598 1.10722,0.09057c-0.08409,-1.81754 -0.98603,-4.30056 0.35094,-5.15714c0.43488,-0.82617 1.23699,-1.3804 2.15454,-1.3804c0.81357,0 1.53638,0.43573 1.99291,1.1104c0.07451,0.08629 0.14011,0.18251 0.19459,0.29111c0.03188,0.06353 0.0625,0.14679 0.09175,0.2482c0.14181,0.35176 0.22075,0.7422 0.22075,1.15332c0,0.05184 -0.00126,0.10336 -0.00374,0.15451c0.10219,0.98605 0.15837,2.32297 0.15069,3.80117c0.66465,0.38546 1.15533,1.09546 1.30523,1.94299c0.48836,0.88546 0.24886,1.61678 -0.42887,2.19501c-0.28835,0.44463 -0.69044,0.79054 -1.15835,0.98401c-0.39332,3.54937 -1.23314,6.61928 -2.73997,6.61928c-2.32851,0 -2.71183,-2.95365 -2.6003,-5.95847c-1.92604,0.01467 -3.62771,-0.30017 -4.17225,-0.94112z"/></g></g></svg>