<svg version="1.1" xmlns="http://www.w3.org/2000/svg" xmlns:xlink="http://www.w3.org/1999/xlink" width="464.74599" height="82.4623" viewBox="0,0,464.74599,82.4623"><g transform="translate(-394.75949,-184.40869)"><g data-paper-data="{&quot;isPaintingLayer&quot;:true}" fill-rule="nonzero" stroke-linejoin="miter" stroke-miterlimit="10" stroke-dasharray="" stroke-dashoffset="0" style="mix-blend-mode: normal"><path d="M850.51838,204.46284c-0.00032,4.58578 15.47277,38.89162 2.65691,52.8543c-3.3222,3.61948 -37.00799,4.55437 -39.73055,4.80681c-26.23008,2.43206 -120.84538,5.19966 -200.68096,2.16378c-31.51744,-1.19851 -66.02437,3.27558 -85.60715,-1.95185c-20.76333,-5.54257 -9.14785,-63.67712 -9.14771,-65.82557c0.00064,-9.3074 75.75166,-8.90806 167.10349,-8.9052c91.35182,0.00287 164.55898,4.19564 164.55832,13.50303z" data-paper-data="{&quot;index&quot;:null}" fill="#c4f3ff" stroke-opacity="0.4549" stroke="#000000" stroke-width="2.5" stroke-linecap="butt"/><path d="M851.8444,199.06559c-5.49258,17.51687 8.26014,51.40916 -22.18263,60.81206c-4.97026,1.53517 -229.22658,4.38202 -229.3252,4.3511c-0.70265,-0.22032 -2.56484,-77.01115 -1.86219,-76.79083c0.70265,0.22032 259.75935,-8.7491 253.37002,11.62768z" fill="#505050" stroke="#000000" stroke-width="2.5" stroke-linecap="butt"/><text transform="translate(617.95904,259.74597) rotate(-90.37406) scale(0.42812,0.49655) skewX(-0.11132)" font-size="40" xml:space="preserve" fill="#75ff66" fill-rule="nonzero" stroke="none" stroke-width="1" stroke-linecap="butt" stroke-linejoin="miter" stroke-miterlimit="10" stroke-dasharray="" stroke-dashoffset="0" font-family="Playful" font-weight="normal" text-anchor="start" style="mix-blend-mode: normal"><tspan x="0" dy="0">Sandbox</tspan></text><path d="M394.7595,263.05448v-66.75904h201.12576v66.75904z" fill-opacity="0.00784" fill="#00ffff" stroke="none" stroke-width="NaN" stroke-linecap="butt"/><path d="M586.01848,224.97938c0,16.95884 -12.49746,30.7067 -27.91386,30.7067c-15.4164,0 -27.91385,-13.74785 -27.91385,-30.7067c0,-16.95884 12.49746,-30.7067 27.91386,-30.7067c15.4164,0 27.91386,13.74786 27.91386,30.70671z" fill="#4a46af" stroke="none" stroke-width="NaN" stroke-linecap="butt"/><g fill="none" stroke="#00c0fb"><path d="M557.62973,243.07226c-8.83053,2.04427 -17.6346,3.97563 -17.6346,3.97563l-0.70156,-40.04289h28.06256c0,0 1.35217,4.57624 2.94939,10.2632" stroke-width="4.5" stroke-linecap="butt"/><path d="M562.97133,214.66025l-18.94223,2.55175" stroke-width="2.5" stroke-linecap="round"/><path d="M545.43225,225.45613l20.16997,-4.31835" stroke-width="2.5" stroke-linecap="round"/><path d="M562.67126,230.4061l-16.53746,5.06075" stroke-width="2.5" stroke-linecap="round"/><path d="M585.42139,216.23056l-16.13598,27.08784l-8.24338,3.53319l0.70156,-9.61814l15.25902,-21.19918z" stroke-width="4" stroke-linecap="round"/></g></g></g></svg>