<svg version="1.1" xmlns="http://www.w3.org/2000/svg" xmlns:xlink="http://www.w3.org/1999/xlink" width="31.46616" height="33.56994" viewBox="0,0,31.46616,33.56994"><g transform="translate(-301.2095,-170.52488)"><g data-paper-data="{&quot;isPaintingLayer&quot;:true}" fill-rule="nonzero" stroke-linejoin="miter" stroke-miterlimit="10" stroke-dasharray="" stroke-dashoffset="0" style="mix-blend-mode: normal"><path d="M329.92566,194.12139c-3.82791,6.7756 -12.32905,9.21868 -18.98783,5.45677c-6.65878,-3.76191 -8.95366,-12.30425 -5.12574,-19.07985c3.82791,-6.7756 12.32905,-9.21868 18.98783,-5.45677c6.65878,3.76191 8.95366,12.30425 5.12574,19.07985z" fill="#7c30e3" stroke="#000000" stroke-width="5.5" stroke-linecap="butt"/><path d="M330.61096,194.37084c-3.82791,6.7756 -12.32905,9.21868 -18.98783,5.45677c-6.65878,-3.76191 -8.95366,-12.30425 -5.12574,-19.07985c3.82791,-6.7756 12.32905,-9.21868 18.98783,-5.45677c6.65878,3.76191 8.95366,12.30425 5.12574,19.07985z" fill="#7c30e3" stroke="#7c30e3" stroke-width="0" stroke-linecap="butt"/><path d="M320.46143,182.29633l-4.97155,11.26968" fill="none" stroke="#ffffff" stroke-width="6.5" stroke-linecap="round"/><path d="M323.78932,190.45366l-11.62733,-5.04497" fill="none" stroke="#ffffff" stroke-width="6.5" stroke-linecap="round"/></g></g></svg>