<svg version="1.1" xmlns="http://www.w3.org/2000/svg" xmlns:xlink="http://www.w3.org/1999/xlink" width="50.91137" height="137.52495" viewBox="0,0,50.91137,137.52495"><g transform="translate(-289.27699,-132.85356)"><g data-paper-data="{&quot;isPaintingLayer&quot;:true}" fill-rule="nonzero" stroke-linejoin="miter" stroke-miterlimit="10" stroke-dasharray="" stroke-dashoffset="0" style="mix-blend-mode: normal"><path d="M319.59279,180.22913c0.24289,3.48097 -4.64883,6.65792 -10.92599,7.09592c-6.27716,0.43801 -11.56269,-2.0288 -11.80558,-5.50977c-0.24289,-3.48097 1.20067,-5.48286 7.47782,-5.92086c6.27716,-0.43801 15.01086,0.85374 15.25375,4.3347z" fill="#334865" stroke="#000000" stroke-width="2" stroke-linecap="butt"/><path d="M334.50238,215.49099c0.59721,4.00943 -1.69333,7.66719 -5.11605,8.16982c-3.42272,0.50263 -6.68152,-2.34021 -7.27871,-6.34964c-0.17062,-1.14547 -0.76467,-4.7137 -1.4472,-9.24282c1.77391,-0.82023 3.56407,-1.61197 5.397,-2.23456c1.91662,-0.65101 3.67989,-1.66084 5.59873,-2.28123c0.07878,-0.02548 0.1617,-0.04547 0.24692,-0.06213c1.45886,5.763 2.39571,10.63353 2.59932,12.00055z" data-paper-data="{&quot;index&quot;:null}" fill="#ffffff" stroke="#000000" stroke-width="2" stroke-linecap="butt"/><path d="M319.11739,178.92546c4.12249,-0.84977 9.44752,11.29551 12.29432,20.89908c0.6933,2.33884 -0.1228,1.79844 0.437,4.03922c-0.11548,0.01625 -0.21382,0.03336 -0.27946,0.05514c-1.92054,0.63703 -3.68328,1.676 -5.60098,2.34452c-1.80496,0.62921 -3.56812,1.42663 -5.31503,2.25532c-1.72264,-11.69653 -3.92413,-29.10099 -1.53586,-29.59328z" data-paper-data="{&quot;index&quot;:null}" fill="#334865" stroke="#000000" stroke-width="2" stroke-linecap="butt"/><path d="M317.28184,225.3987c-0.38998,-11.03285 6.23504,-7.26074 11.52463,-8.12215c0.46226,-0.07528 5.60818,26.45548 7.10279,34.84744c0.28075,1.57635 -0.02371,2.43186 -0.01622,2.43863c-2.81622,0.61428 -6.77954,0.53818 -9.37679,1.61009c-1.34308,0.55635 -4.01607,0.71444 -5.72175,1.22683c-0.15049,-0.92747 -0.48675,-1.09818 -0.65386,-2.15586c-1.39185,-8.8095 -2.59701,-22.43849 -2.85881,-29.845z" fill="#a68f79" stroke="#000000" stroke-width="2" stroke-linecap="butt"/><path d="M339.18697,262.20398c0.17736,1.20501 -16.64909,2.98097 -16.82646,1.77596c-0.02671,-0.18146 -0.44525,-2.58513 -1.03234,-6.19026c1.71272,-0.53447 4.15125,-0.68654 5.36591,-1.18612c2.66711,-1.10074 5.88377,-1.5352 8.75493,-2.17889c0.48541,0.47366 1.23964,1.26537 1.80102,2.11148c1.22391,1.84467 1.83456,4.97228 1.93694,5.66782z" fill="#ffffff" stroke="#000000" stroke-width="2" stroke-linecap="butt"/><path d="M300.21083,225.93839c2.14962,-10.82963 8.38057,-2.79113 14.41684,-2.33826c0.57139,0.04286 -1.38525,30.9464 -1.73449,36.39199c-1.40479,-0.07295 -1.89678,0.25154 -3.30156,0.17859c-2.61,-0.13554 -5.51529,0.99615 -8.10743,1.74921c-1.61883,0.66774 -4.42912,1.64834 -6.08601,2.08646c0.07476,-0.88951 -0.16378,-2.28139 -0.05613,-3.41353c0.90962,-9.56623 3.23804,-26.43885 4.86879,-34.65447z" fill="#a68f79" stroke="#000000" stroke-width="2" stroke-linecap="butt"/><path d="M315.8223,268.99175c-0.08612,1.2157 -20.31799,-0.71474 -20.23187,-1.93043c0.00828,-0.11687 0.09503,-1.23741 0.24603,-3.05751c1.8228,-0.52868 3.86651,-1.39551 5.11571,-1.913c2.53101,-0.73115 5.16742,-1.98372 7.70246,-1.85208c1.3647,0.07087 2.82915,0.14692 4.20864,0.21855c-0.01471,0.22839 -0.02259,0.34952 -0.02259,0.34952c0,0 1.24784,1.51847 1.9208,3.0519c0.91874,2.09348 1.11053,4.43133 1.06082,5.13305z" fill="#ffffff" stroke="#000000" stroke-width="2" stroke-linecap="butt"/><path d="M310.24364,230.81197l-0.30011,-4.30091l14.06516,-0.98143l0.30011,4.30091z" fill="#a68f79" stroke="none" stroke-width="0" stroke-linecap="butt"/><path d="M300.07984,228.39095c0,0 -1.40312,-17.55715 -0.90384,-28.47557c0.56409,-12.33596 3.2654,-23.1589 12.36804,-24.06671c11.44398,-1.14131 13.46443,13.50745 15.94795,26.8404c1.89645,10.18125 3.55951,25.32921 3.55951,25.32921" fill="#334865" stroke="#000000" stroke-width="2" stroke-linecap="round"/><path d="M305.01121,179.84623c2.3562,0.36712 0.25541,16.45778 -1.57498,28.61338c-2.14168,-0.11933 -4.2815,-0.25863 -6.41504,-0.48788c-1.57095,-0.16881 -3.1383,-0.24626 -4.71257,-0.30918c0.28262,-1.38228 -0.36799,-1.72129 -0.03099,-3.19377c2.59057,-11.31952 7.70431,-25.40615 12.7336,-24.62255z" fill="#334865" stroke="#000000" stroke-width="2" stroke-linecap="butt"/><path d="M301.45965,221.34257c-0.43112,4.2733 -2.76135,6.60353 -6.36041,6.24044c-3.59907,-0.36308 -5.18422,-4.30085 -4.75311,-8.57415c0.13246,-1.31297 0.78275,-5.64816 1.86121,-10.98691c1.58922,0.06301 3.17119,0.13948 4.75683,0.30986c2.12691,0.22855 4.25999,0.36804 6.39498,0.48733c-0.92018,6.08432 -1.75609,11.10189 -1.89951,12.52344z" fill="#ffffff" stroke="#000000" stroke-width="2" stroke-linecap="butt"/><path d="M308.59116,187.19413c0.0786,1.12647 -1.68696,1.37484 -2.31577,2.87797c-1.55001,3.70525 -3.23496,8.91139 -4.73797,9.01626c-2.11275,0.14742 -0.32487,-7.45713 -0.59723,-11.36037c-0.27236,-3.90323 1.71115,-7.61216 3.8239,-7.75959c0.43556,-0.03039 1.58511,-0.42608 1.95928,-0.17689c1.44081,0.95955 1.65159,4.30407 1.86779,7.40261z" fill="#334865" stroke="none" stroke-width="0" stroke-linecap="butt"/><path d="M317.16548,179.68035c0.57825,-0.12831 1.58103,-0.09127 2.78215,0.62853c1.69511,1.01584 4.85618,4.95919 5.20882,6.55093c0.60252,2.7196 2.41331,5.85409 1.01899,6.16351c-0.63968,0.14195 -0.91877,-2.61064 -2.0944,-4.14498c-0.64735,-0.84487 -2.07822,-1.5539 -2.69623,-2.34598c-0.70602,-0.90489 -1.89616,-0.73183 -2.07005,-1.51671c-0.60252,-2.7196 -3.54361,-5.02589 -2.1493,-5.3353z" data-paper-data="{&quot;index&quot;:null}" fill="#334865" stroke="none" stroke-width="0" stroke-linecap="butt"/><path d="M313.10191,230.93704l7.72808,-0.20742" fill="none" stroke="#000000" stroke-width="2" stroke-linecap="round"/><path d="M319.52668,177.79377c0.05484,0.78597 -0.28312,1.84915 -1.02543,2.88812c-0.84759,1.18636 -2.28734,2.31415 -5.40089,2.49214c-2.80936,0.1606 -3.19487,-0.7304 -4.1064,-1.855c-0.70821,-0.87375 -2.22826,-1.89519 -2.27962,-2.63125c-0.11746,-1.68342 2.65545,-3.24823 6.19347,-3.49511c3.53803,-0.24688 6.5014,0.91767 6.61886,2.60109z" fill="#ffffff" stroke="#000000" stroke-width="2" stroke-linecap="butt"/><path d="M335.93269,156.63566c0.09731,1.87689 0.71237,4.45281 0.55893,6.16061c-1.12331,12.50314 -9.7649,17.25383 -20.10372,17.8082c-11.98313,0.64254 -22.48854,-7.47052 -23.19764,-21.1487c-0.70911,-13.67819 8.59257,-24.95967 20.57571,-25.60221c11.98313,-0.64254 21.45761,9.1039 22.16673,22.78209z" fill="#ffffff" stroke="#000000" stroke-width="2" stroke-linecap="butt"/><path d="M314.23528,159.16067c-0.01099,2.79952 -0.8844,5.06558 -1.95082,5.06139c-1.06641,-0.00419 -1.92201,-2.27703 -1.91102,-5.07655c0.01099,-2.79952 0.88439,-5.06558 1.9508,-5.06139c1.06641,0.00419 1.92203,2.27702 1.91105,5.07654z" fill="#000000" stroke="none" stroke-width="0" stroke-linecap="butt"/><path d="M328.3695,159.23588c-0.00906,2.30817 -0.72918,4.17651 -1.60843,4.17306c-0.87926,-0.00345 -1.5847,-1.87739 -1.57565,-4.18555c0.00906,-2.30817 0.72918,-4.17652 1.60843,-4.17307c0.87926,0.00345 1.5847,1.87739 1.57564,4.18556z" fill="#000000" stroke="none" stroke-width="0" stroke-linecap="butt"/><path d="M302.50992,166.62444l27.46743,1.87321" fill="none" stroke="#000000" stroke-width="2" stroke-linecap="round"/><path d="M302.18756,164.41636l-1.00819,3.85797" fill="none" stroke="#000000" stroke-width="2" stroke-linecap="round"/><path d="M307.75161,214.31952l-2.48851,9.81029" fill="none" stroke="#000000" stroke-width="2" stroke-linecap="round"/><path d="M324.8991,214.46455l2.11061,6.66888" fill="none" stroke="#000000" stroke-width="2" stroke-linecap="round"/><path d="M321.09552,179.49549c0,0 -0.89124,4.94043 -5.40341,5.78352c-4.05958,0.75853 -7.72259,-0.56227 -9.39978,-1.89144c-2.07579,-1.64506 -1.65437,-3.47793 -1.65437,-3.47793" fill="none" stroke="#000000" stroke-width="1.5" stroke-linecap="round"/><path d="M312.50077,193.11086l-0.40943,-7.7808" fill="none" stroke="#000000" stroke-width="1.5" stroke-linecap="round"/><path d="M317.28788,192.84357l-0.48513,-7.90901" fill="none" stroke="#000000" stroke-width="1.5" stroke-linecap="round"/><path d="M330.65607,227.0515l-30.09561,0.58151" fill="none" stroke="#000000" stroke-width="2" stroke-linecap="round"/></g></g></svg>