<svg version="1.1" xmlns="http://www.w3.org/2000/svg" xmlns:xlink="http://www.w3.org/1999/xlink" width="223.53717" height="430.93978" viewBox="0,0,223.53717,430.93978"><g transform="translate(-383.02277,29.67296)"><g data-paper-data="{&quot;isPaintingLayer&quot;:true}" fill-rule="nonzero" stroke="none" stroke-width="0" stroke-linejoin="miter" stroke-miterlimit="10" stroke-dasharray="" stroke-dashoffset="0" style="mix-blend-mode: normal"><g data-paper-data="{&quot;index&quot;:null}" stroke-linecap="butt"><path d="M439.371,163.08878c0.9741,-0.71801 1.9483,-1.42407 2.92187,-2.11789c3.77816,3.4943 7.47701,7.06964 11.0989,10.82847c6.42895,5.6484 12.867,11.28609 19.31177,16.91607c-2.40703,1.93961 -4.90966,3.86993 -7.49878,5.77853c-29.76051,21.93798 -43.63431,42.31542 -62.01727,26.81865c-14.33678,-13.17693 6.42299,-36.2859 36.18348,-58.22381z" data-paper-data="{&quot;index&quot;:null}" fill="#ffffff"/><path d="M493.75865,144.76326c6.89396,6.16686 -11.17775,26.50675 -32.09496,50.35842c-6.71979,-4.12482 -12.28512,-13.07969 -18.99823,-17.2154c-3.75494,-2.82654 -7.56503,-5.46672 -11.43921,-8.01474c3.65523,-3.64843 1.92741,-5.97998 7.16925,-9.71216c18.12336,-12.90381 48.6435,-25.45958 53.99285,-17.89006z" data-paper-data="{&quot;index&quot;:null}" fill="#aefa7f"/></g><path d="M467.60068,333.55951c-1.07647,-5.98089 6.40994,-6.59773 19.06967,-8.77087c12.65974,-2.17319 22.80514,-10.22632 23.88161,-4.24545c1.07648,5.98089 17.8986,73.19065 5.23889,75.36371c-7.73075,1.32705 -38.79676,13.15462 -50.7711,-3.26433c-3.16857,-4.34475 3.87414,-14.64113 4.60968,-24.29357c1.0368,-13.60431 -1.78354,-33.42735 -2.02869,-34.78951z" data-paper-data="{&quot;index&quot;:null}" fill="#ffffff" stroke-linecap="butt"/><path d="M410.22159,300.41039c1.57662,-5.8688 8.38747,-3.30882 20.38059,-0.00399c11.99309,3.30478 24.2622,0.23319 22.68554,6.10201c-1.57671,5.86881 -15.1592,73.78821 -27.15233,70.48339c-7.32374,-2.01815 -39.48907,-4.24185 -43.05304,-24.11078c-0.94313,-5.25774 9.55556,-11.65497 14.26407,-20.09642c6.63613,-11.89742 12.51596,-31.03767 12.87503,-32.37429z" data-paper-data="{&quot;index&quot;:null}" fill="#ffffff" stroke-linecap="butt"/><path d="M482.52311,267.31953c-11.31683,25.80026 -29.81015,59.17504 -30.67794,60.73233c-2.64146,4.7404 -16.59319,2.78247 -28.88363,-4.40064c-12.29043,-7.18311 -17.65736,-17.49423 -15.01585,-22.23463c1.74737,-3.13584 16.13544,-32.97167 31.60806,-55.25904c4.80057,2.31824 9.60116,4.63648 14.40175,6.95469c9.57975,4.62611 19.00953,9.54196 28.56758,14.20727z" data-paper-data="{&quot;index&quot;:null}" fill="#222228" stroke-linecap="butt"/><path d="M463.25963,333.98801c0.18331,-1.77179 2.55085,-40.77558 8.35435,-68.34787c11.53945,1.76933 23.11867,3.26023 34.65337,5.07412c5.78024,0.90899 11.56051,1.81792 17.34078,2.72691c0.0512,10.18645 0.73136,16.48464 0.07748,26.73796c-0.51804,8.12295 -3.25781,16.1544 -4.06822,23.20209c-0.89155,7.75328 0.16202,14.19109 0.04127,15.35837c-0.55806,5.39324 -13.63583,8.70165 -29.20996,7.38951c-15.57414,-1.31215 -27.74713,-6.74786 -27.18907,-12.14112z" data-paper-data="{&quot;index&quot;:null}" fill="#222228" stroke-linecap="butt"/><path d="M440.87743,273.31847c1.36938,-9.14069 16.04506,-14.51845 32.77909,-12.01152c16.73403,2.50694 29.1896,11.94917 27.82023,21.08988c-1.36936,9.14071 -16.04511,14.51852 -32.77915,12.01159c-16.73404,-2.50693 -29.18958,-11.94921 -27.82021,-21.08992z" data-paper-data="{&quot;index&quot;:null}" fill="#222228" stroke-linecap="butt"/><path d="M476.35177,296.27519l-16.52237,-3.1953" data-paper-data="{&quot;index&quot;:null}" fill="none" stroke-linecap="round"/><path d="M448.90905,182.87125c10.91503,-31.36933 25.45597,-58.33978 55.94191,-50.6103c27.25452,6.91019 34.23542,24.76575 32.83874,57.30294c-0.51927,12.09666 -3.47175,18.82558 -4.55684,31.84292c-1.11511,13.37786 -0.37813,32.99862 -2.04481,41.90831c-1.43536,7.67304 -5.60769,12.69765 -5.70177,13.22949c-0.59551,3.36656 -5.56127,9.69953 -34.44181,4.69797c-1.14797,-0.19879 -29.46948,-12.01996 -30.5975,-12.22405c-27.25158,-4.93084 -31.28116,-5.19473 -30.7093,-8.42752c0.315,-1.78098 7.01158,-42.4857 19.27139,-77.71977z" data-paper-data="{&quot;index&quot;:null}" fill="#aefa7f" stroke-linecap="butt"/><path d="M510.72953,215.66726c-23.39976,28.62533 -47.5187,48.20262 -59.96163,33.22438c-14.5574,-19.13546 6.48881,-31.97211 29.88865,-60.59745c2.03578,-2.49036 4.08892,-4.89325 6.14656,-7.20019c5.3004,6.71845 10.60884,13.43056 15.92843,20.13413c3.57286,3.80545 6.95862,7.67859 10.25946,11.62688c-0.74167,0.93762 -1.4956,1.87526 -2.26145,2.81221z" data-paper-data="{&quot;index&quot;:null}" fill="#ffffff" stroke-linecap="butt"/><path d="M532.68743,163.17165c7.29233,5.72145 -6.77506,35.57502 -20.56967,53.0299c-3.98982,5.04849 -6.23197,3.20615 -10.05876,6.67422c-2.35094,-3.99684 -4.79715,-7.93427 -7.43223,-11.82597c-3.79458,-6.91166 -12.45971,-12.91817 -16.24308,-19.83595c24.86858,-19.69735 46.08736,-36.72852 51.9015,-29.53459z" data-paper-data="{&quot;index&quot;:null}" fill="#aefa7f" stroke-linecap="butt"/><path d="M514.9382,159.87043c5.26494,-11.8145 9.2496,-13.80414 13.0554,-8.2834c3.81045,1.66285 7.15002,8.54513 6.40394,12.80667c-0.10116,0.57795 -0.25447,1.13375 -0.45422,1.66345c1.71693,6.27933 2.47295,12.84516 1.87023,16.28793c-2.78825,15.92686 -17.81515,5.28146 -23.0214,-1.56872c-4.26226,-5.60806 2.2481,-13.32988 1.82878,-19.09386z" data-paper-data="{&quot;index&quot;:null}" fill="#aefa7f" stroke-linecap="butt"/><path d="M473.68633,136.3094c1.39192,-7.95551 12.81426,-12.60356 25.51246,-10.38184c12.6982,2.22176 21.86375,10.47204 20.47178,18.42751c-1.39194,7.95546 -12.81423,12.60358 -25.51242,10.38186c-12.69815,-2.22172 -21.86379,-10.47207 -20.47182,-18.42754z" data-paper-data="{&quot;index&quot;:null}" fill="#ffffff" stroke-linecap="butt"/><path d="M527.50853,52.40879c2.48356,-4.86331 22.13506,0.20136 43.89282,11.31234c21.75776,11.11095 37.38269,24.06064 34.89914,28.92396c-2.48358,4.86333 -21.53467,4.71833 -43.29243,-6.39265c-21.75775,-11.11095 -37.9831,-28.98029 -35.49955,-33.84361z" data-paper-data="{&quot;index&quot;:null}" fill="#ff2e2e" stroke-linecap="butt"/><path d="M447.18977,39.00633c18.33457,-43.4806 61.05695,-63.76962 99.92996,-47.40082c38.87304,16.36883 56.44261,64.01761 38.10806,107.49825c-18.33452,43.48059 -62.55646,57.24735 -101.42948,40.87856c-33.53892,-14.1227 -52.0761,-41.71459 -41.17441,-83.57197c1.48902,-5.7173 2.05004,-11.4376 4.56584,-17.40395z" data-paper-data="{&quot;index&quot;:null}" fill="#ffffff" stroke-linecap="butt"/><path d="M473.85337,86.36116c-4.08842,-0.18632 -7.09539,-7.08304 -6.7162,-15.40441c0.37922,-8.32139 4.001,-14.91612 8.08943,-14.7298c4.08848,0.18631 7.09541,7.08307 6.71622,15.40445c-0.37918,8.32137 -4.001,14.91608 -8.08944,14.72976z" data-paper-data="{&quot;index&quot;:null}" fill="#000000" stroke-linecap="butt"/><path d="M533.30269,103.24253c-3.84685,-0.34227 -6.31251,-7.95742 -5.50711,-17.00887c0.80539,-9.05146 4.57664,-16.11168 8.42353,-15.7694c3.84689,0.34225 6.31249,7.95737 5.50709,17.00883c-0.8054,9.05145 -4.57664,16.1117 -8.42352,15.76942z" data-paper-data="{&quot;index&quot;:null}" fill="#000000" stroke-linecap="butt"/><path d="M534.48235,-25.77297c2.22238,-5.05739 12.82854,-5.21704 23.68943,-0.35646c10.86095,4.86046 17.8638,12.9006 15.64139,17.95802c-2.22238,5.05737 -12.8285,5.21702 -23.68938,0.35644c-10.86098,-4.86049 -17.8638,-12.9006 -15.64139,-17.95802z" data-paper-data="{&quot;index&quot;:null}" fill="#ff4f4f" stroke-linecap="butt"/><path d="M448.00934,29.32049c1.41994,-4.21037 34.01165,-71.86539 100.01374,-48.98939c74.70759,25.89324 44.424,96.85289 43.00402,101.06314c-1.41996,4.21034 -30.21583,-17.57844 -70.24848,-31.07981c-40.03269,-13.50139 -74.18924,-16.78372 -72.76925,-20.99398z" data-paper-data="{&quot;index&quot;:null}" fill="#ff4f4f" stroke-linecap="butt"/><path d="M487.68889,20.55528c1.55329,-4.72371 13.96746,-4.88496 27.7279,-0.36021c13.76043,4.52475 23.65625,12.02221 22.10296,16.74591c-1.52435,4.63569 -12.53009,1.90243 -25.98146,-2.36655c-0.25556,-0.08115 -1.00583,0.0857 -1.26233,0.00135c-13.76044,-4.52479 -24.14035,-9.29681 -22.58705,-14.02051z" data-paper-data="{&quot;index&quot;:null}" fill="#ffffff" stroke-linecap="butt"/></g></g></svg>