<svg version="1.1" xmlns="http://www.w3.org/2000/svg" xmlns:xlink="http://www.w3.org/1999/xlink" width="109.68564" height="48.5799" viewBox="0,0,109.68564,48.5799"><g transform="translate(-272.83195,-157.27087)"><g data-paper-data="{&quot;isPaintingLayer&quot;:true}" fill-rule="nonzero" stroke-linecap="butt" stroke-linejoin="miter" stroke-miterlimit="10" stroke-dasharray="" stroke-dashoffset="0" style="mix-blend-mode: normal"><path d="M348.8819,177.89569c3.5606,0.13417 3.56168,5.45409 0,5.58504c-0.57285,0.02106 -1.20791,0.04948 -1.88483,0.07634c-0.0108,1.55721 -0.03389,3.11428 -0.06993,4.67094c-0.07191,3.10653 -3.37513,3.2571 -5.23597,1.39626c-1.58819,-1.58819 -1.8491,-3.76355 -1.64181,-6.13266c-0.9686,-0.0914 -1.90003,-0.23317 -2.74863,-0.44532c-1.04712,-0.26178 -3.00206,-3.43958 -1.43704,-4.33388c0.48576,-0.82307 1.38172,-1.37522 2.40664,-1.37522c0.46205,0 0.89789,0.11222 1.28175,0.31088c0.48926,0.09735 0.95724,0.16545 1.4157,0.21189c0.19681,-1.14265 0.3512,-2.26131 0.37432,-3.31529c0,-0.02962 0.00046,-0.05913 0.00138,-0.08853c0.04675,-1.5013 1.2785,-2.70399 2.79114,-2.70399c1.02282,0 1.9172,0.54989 2.40364,1.37016c0.20897,0.26399 0.3359,0.61777 0.37628,1.15536c0.00833,0.08787 0.0126,0.17693 0.0126,0.26699c0.02428,1.10656 0.04299,2.21331 0.05589,3.32017c0.58868,-0.00245 1.21754,0.00518 1.89887,0.03085z" fill="#ffffff" stroke="#000000" stroke-width="1.5"/><g fill="#9966ff" stroke="#000000" stroke-width="3"><path d="M299.58195,195.02791c-1.21405,5.75325 -7.89051,9.56262 -9.57645,2.65411c-0.92762,-3.80114 1.52117,-12.36313 6.20145,-9.24411c0.55671,0.371 4.40852,2.87336 3.375,4.70999z"/><path d="M302.06418,188.26787c4.6282,-8.85509 12.98002,3.78074 9.20526,8.54899c-1.66667,2.10532 -2.70833,2.10532 -4.375,0c-0.49532,-0.62569 -0.29874,-4.11338 -0.3125,-4.30727c-0.01758,-0.24759 -0.24802,-0.92417 -0.25,-0.6756c-0.0014,0.17505 -0.10676,0.65722 -0.28846,1.27003c0.02528,0.18014 0.03846,0.36556 0.03846,0.55486c0,1.31866 -0.63983,2.44855 -1.54871,2.92132c-0.7024,1.01881 -1.50842,1.37357 -2.22012,-0.19972c-0.73685,-0.54934 -1.23116,-1.56254 -1.23116,-2.7216c0,-0.38026 0.05321,-0.74482 0.15073,-1.08246c0.16411,-1.58914 0.0996,-2.9082 0.83151,-4.30855z"/><path d="M315.45695,186.14585c0.63268,0.40315 1.50434,0.54161 1.99291,1.10439c0.07451,0.08583 0.14011,0.18152 0.19459,0.28954c0.0682,0.13521 0.11956,0.27714 0.15715,0.42432c0.10046,0.30198 0.15535,0.62864 0.15535,0.9696c0,0.36698 -0.06359,0.7174 -0.17914,1.0383c-0.13108,0.92299 -0.29042,1.82182 0.05414,2.4465c0.74601,1.35252 0.91856,-2.76672 1.0625,-2.92723c5.14676,-5.73934 6.66438,7.06311 2.55554,8.20858c-6.01112,1.6758 -8.70085,-0.41986 -8.61804,-6.81466c0.00756,-0.58429 0.03612,-3.08964 0.47046,-3.36641z"/><path d="M331.81802,192.15282c0.3507,1.40279 0.63859,3.56584 -0.38975,4.76557c-2.58774,3.01903 -7.9086,0.85475 -4.88155,-2.8653c0.42758,-0.52546 -1.19556,-0.66745 -1.68608,-1.1347c-0.70105,-0.6678 -0.53457,-2.78996 -0.23014,-3.76283c0.52254,-1.66986 5.31066,-6.41235 7.09529,-3.28925c0.73685,0.43488 1.23116,1.23699 1.23116,2.15454c0,1.33482 -1.04613,2.42532 -2.36324,2.49633c-0.63365,0.24957 1.05914,0.97494 1.22431,1.63564z"/><path d="M284.08195,195.20835c-0.00439,-0.14753 -0.4664,-0.17582 -0.55777,-0.1875c-1.09218,-0.13971 -2.69332,-0.28976 -3.7141,-1.00068c0.00515,0.33441 0.01228,0.66878 0.02187,1.00313c0.04282,1.49401 0.88361,3.22728 1.40138,4.87139c1.60735,-0.76442 2.95547,-1.09071 2.84862,-4.68634zM288.76945,193.02085c1.1596,3.8101 -0.05424,10.04164 -4.25716,11.32992c-1.04059,0.31896 -3.72493,1.38412 -4.72102,0.59057c-0.86703,0.19613 -1.91846,-0.16421 -2.89682,-1.04549c-1.42016,-1.27925 -2.05169,-6.95406 -2.0625,-8.625c-0.02301,-3.55627 -0.25,-7.00467 -0.25,-10.40897c-0.16017,-0.32969 -0.25,-0.69987 -0.25,-1.09103c0,-1.38071 1.11929,-2.5 2.5,-2.5c0.76409,0 1.44812,0.34278 1.90669,0.88297c3.2725,-0.32639 7.0101,2.99363 7.32212,6.54134c0.04444,0.50536 -0.01099,1.13399 -0.16451,1.77528c1.41137,0.61237 2.55999,1.5213 2.8732,2.55041zM280.24036,187.82566c-0.10679,-0.10821 -0.24473,-0.19261 -0.40467,-0.25937c-0.00399,0.89008 -0.01473,1.78023 -0.02361,2.67033c0.25876,-0.17086 0.55959,-0.30111 0.89113,-0.39426c0.13216,-0.71522 0.12949,-1.4165 -0.46285,-2.01671z"/><g><path d="M307.08195,178.92072c0.01742,0.89506 0.8444,2.22625 0.0625,3.10013c-2.30832,2.57988 -5.0307,-0.04286 -5.0625,-2.75c-0.02758,-2.34752 0.29072,-4.7283 0.00579,-7.05151c-1.64837,0.41729 -4.06479,1.03024 -5.73588,1.42378c0.25074,2 0.39673,3.89191 0.54469,5.38617c0.09431,0.95245 0.71148,5.03324 0.12289,6.24157c-0.39042,0.80149 -2.01363,1.28059 -2.77994,0.91146c-2.93075,-1.41172 -1.98158,-3.69228 -2.28256,-6.66391c-0.20253,-1.99969 -0.96942,-5.03651 -1.33396,-7.04227c-0.15324,-0.84316 -1.2985,-4.83654 -1.74018,-7.51523c-0.19189,-0.35386 -0.30086,-0.75922 -0.30086,-1.19004c0,-0.30345 0.05406,-0.59427 0.15308,-0.86336c0.35153,-0.95528 1.26965,-1.63664 2.34692,-1.63664c1.38071,0 2.5,1.11929 2.5,2.5c0,0.01984 -0.00023,0.03961 -0.00069,0.05934c0.78645,1.28367 1.36557,2.84794 1.80239,4.51636c1.77276,-0.64586 3.91377,-0.91303 5.69257,-1.17266c-0.34356,-1.7156 -0.6832,-3.58944 -0.82425,-4.99503c-0.10976,-0.28146 -0.17001,-0.58769 -0.17001,-0.90801c0,-0.28988 0.04934,-0.56824 0.14008,-0.82713c0.34144,-0.97423 1.26909,-1.67287 2.35992,-1.67287c1.38071,0 2.5,1.11929 2.5,2.5c0,0.08454 -0.0042,0.16811 -0.0124,0.25049c0.92582,1.7741 1.42858,4.06209 1.69976,6.45481c0.19746,0.34559 0.31264,0.77302 0.31264,1.29469c0,0.23486 -0.05132,0.46299 -0.13824,0.68278c0.22145,3.37218 0.09471,6.73051 0.13824,8.96708z"/><path d="M310.08195,168.52085c0.0731,-2.77785 3.01664,-2.92085 4.6875,-1.25c2.79994,2.79994 0.4113,7.91653 0.3125,11.875c-0.00072,0.02904 -0.0012,0.05886 -0.00157,0.08928c-0.04701,1.33936 -1.14761,2.41072 -2.49843,2.41072c-0.91548,0 -1.71604,-0.49208 -2.15159,-1.22618c-0.18235,-0.23085 -0.29455,-0.53907 -0.33409,-1.00461c-0.00947,-0.08844 -0.01432,-0.17826 -0.01432,-0.26922c-0.08837,-3.54056 -0.09317,-7.08456 0,-10.625zM310.08195,179.14585z"/><path d="M309.58195,161.52085c0,-1.38071 1.11929,-2.5 2.5,-2.5c1.38071,0 2.5,1.11929 2.5,2.5c0,1.38071 -1.11929,2.5 -2.5,2.5c-1.38071,0 -2.5,-1.11929 -2.5,-2.5z"/><path d="M326.40638,168.58752c1.23102,0.28963 4.17755,1.04589 3.92557,2.93333c-0.3687,2.76171 -3.21339,2.61202 -5.73332,2.03515c0.01677,1.73857 0.02873,3.47705 -0.01668,5.21485v0c0,0.03118 -0.00058,0.06223 -0.00171,0.09313c-0.04899,1.33757 -1.14876,2.40687 -2.49829,2.40687c-1.18908,0 -2.18428,-0.83016 -2.43761,-1.94252c-1.3411,-1.66796 -1.26948,-3.66207 -0.77599,-6.72538c-1.1592,-0.21737 -2.0364,-1.23479 -2.0364,-2.4571c0,-1.38071 1.11929,-2.5 2.5,-2.5c0.12106,0 0.24011,0.00861 0.35658,0.02524c0.00756,-0.00161 0.01513,-0.0032 0.0227,-0.00477c0.15315,-1.10781 0.38286,-3.63483 1.05822,-4.27047c1.71717,-1.61616 2.65783,-1.71717 4.375,0c1.15112,1.15113 -0.16997,3.28141 -0.49428,4.75431c0.60076,0.14925 1.1916,0.30452 1.75621,0.43735z"/></g></g><g fill="#9966ff" stroke="none" stroke-width="0"><path d="M300.08195,195.52791c-1.21405,5.75325 -7.89051,9.56262 -9.57645,2.65411c-0.92762,-3.80114 1.52117,-12.36313 6.20145,-9.24411c0.55671,0.371 4.40852,2.87336 3.375,4.70999z"/><path d="M302.56418,188.76787c4.6282,-8.85509 12.98002,3.78074 9.20526,8.54899c-1.66667,2.10532 -2.70833,2.10532 -4.375,0c-0.49532,-0.62569 -0.29874,-4.11338 -0.3125,-4.30727c-0.01758,-0.24759 -0.24802,-0.92417 -0.25,-0.6756c-0.0014,0.17505 -0.10676,0.65722 -0.28846,1.27003c0.02528,0.18014 0.03846,0.36556 0.03846,0.55486c0,1.31866 -0.63983,2.44855 -1.54871,2.92132c-0.7024,1.01881 -1.50842,1.37357 -2.22012,-0.19972c-0.73685,-0.54934 -1.23116,-1.56254 -1.23116,-2.7216c0,-0.38026 0.05321,-0.74482 0.15073,-1.08246c0.16411,-1.58914 0.0996,-2.9082 0.83151,-4.30855z"/><path d="M315.95695,186.64585c0.63268,0.40315 1.50434,0.54161 1.99291,1.10439c0.07451,0.08583 0.14011,0.18152 0.19459,0.28954c0.0682,0.13521 0.11956,0.27714 0.15715,0.42432c0.10046,0.30198 0.15535,0.62864 0.15535,0.9696c0,0.36698 -0.06359,0.7174 -0.17914,1.0383c-0.13108,0.92299 -0.29042,1.82182 0.05414,2.4465c0.74601,1.35252 0.91856,-2.76672 1.0625,-2.92723c5.14676,-5.73934 6.66438,7.06311 2.55554,8.20858c-6.01112,1.6758 -8.70085,-0.41986 -8.61804,-6.81466c0.00756,-0.58429 0.03612,-3.08964 0.47046,-3.36641z"/><path d="M332.31802,192.65282c0.3507,1.40279 0.63859,3.56584 -0.38975,4.76557c-2.58774,3.01903 -7.9086,0.85475 -4.88155,-2.8653c0.42758,-0.52546 -1.19556,-0.66745 -1.68608,-1.1347c-0.70105,-0.6678 -0.53457,-2.78996 -0.23014,-3.76283c0.52254,-1.66986 5.31066,-6.41235 7.09529,-3.28925c0.73685,0.43488 1.23116,1.23699 1.23116,2.15454c0,1.33482 -1.04613,2.42532 -2.36324,2.49633c-0.63365,0.24957 1.05914,0.97494 1.22431,1.63564z"/><path d="M284.58195,195.70835c-0.00439,-0.14753 -0.4664,-0.17582 -0.55777,-0.1875c-1.09218,-0.13971 -2.69332,-0.28976 -3.7141,-1.00068c0.00515,0.33441 0.01228,0.66878 0.02187,1.00313c0.04282,1.49401 0.88361,3.22728 1.40138,4.87139c1.60735,-0.76442 2.95547,-1.09071 2.84862,-4.68634zM289.26945,193.52085c1.1596,3.8101 -0.05424,10.04164 -4.25716,11.32992c-1.04059,0.31896 -3.72493,1.38412 -4.72102,0.59057c-0.86703,0.19613 -1.91846,-0.16421 -2.89682,-1.04549c-1.42016,-1.27925 -2.05169,-6.95406 -2.0625,-8.625c-0.02301,-3.55627 -0.25,-7.00467 -0.25,-10.40897c-0.16017,-0.32969 -0.25,-0.69987 -0.25,-1.09103c0,-1.38071 1.11929,-2.5 2.5,-2.5c0.76409,0 1.44812,0.34278 1.90669,0.88297c3.2725,-0.32639 7.0101,2.99363 7.32212,6.54134c0.04444,0.50536 -0.01099,1.13399 -0.16451,1.77528c1.41137,0.61237 2.55999,1.5213 2.8732,2.55041zM280.74036,188.32566c-0.10679,-0.10821 -0.24473,-0.19261 -0.40467,-0.25937c-0.00399,0.89008 -0.01473,1.78023 -0.02361,2.67033c0.25876,-0.17086 0.55959,-0.30111 0.89113,-0.39426c0.13216,-0.71522 0.12949,-1.4165 -0.46285,-2.01671z"/><g><path d="M307.58195,179.42072c0.01742,0.89506 0.8444,2.22625 0.0625,3.10013c-2.30832,2.57988 -5.0307,-0.04286 -5.0625,-2.75c-0.02758,-2.34752 0.29072,-4.7283 0.00579,-7.05151c-1.64837,0.41729 -4.06479,1.03024 -5.73588,1.42378c0.25074,2 0.39673,3.89191 0.54469,5.38617c0.09431,0.95245 0.71148,5.03324 0.12289,6.24157c-0.39042,0.80149 -2.01363,1.28059 -2.77994,0.91146c-2.93075,-1.41172 -1.98158,-3.69228 -2.28256,-6.66391c-0.20253,-1.99969 -0.96942,-5.03651 -1.33396,-7.04227c-0.15324,-0.84316 -1.2985,-4.83654 -1.74018,-7.51523c-0.19189,-0.35386 -0.30086,-0.75922 -0.30086,-1.19004c0,-0.30345 0.05406,-0.59427 0.15308,-0.86336c0.35153,-0.95528 1.26965,-1.63664 2.34692,-1.63664c1.38071,0 2.5,1.11929 2.5,2.5c0,0.01984 -0.00023,0.03961 -0.00069,0.05934c0.78645,1.28367 1.36557,2.84794 1.80239,4.51636c1.77276,-0.64586 3.91377,-0.91303 5.69257,-1.17266c-0.34356,-1.7156 -0.6832,-3.58944 -0.82425,-4.99503c-0.10976,-0.28146 -0.17001,-0.58769 -0.17001,-0.90801c0,-0.28988 0.04934,-0.56824 0.14008,-0.82713c0.34144,-0.97423 1.26909,-1.67287 2.35992,-1.67287c1.38071,0 2.5,1.11929 2.5,2.5c0,0.08454 -0.0042,0.16811 -0.0124,0.25049c0.92582,1.7741 1.42858,4.06209 1.69976,6.45481c0.19746,0.34559 0.31264,0.77302 0.31264,1.29469c0,0.23486 -0.05132,0.46299 -0.13824,0.68278c0.22145,3.37218 0.09471,6.73051 0.13824,8.96708z"/><path d="M310.58195,169.02085c0.0731,-2.77785 3.01664,-2.92085 4.6875,-1.25c2.79994,2.79994 0.4113,7.91653 0.3125,11.875c-0.00072,0.02904 -0.0012,0.05886 -0.00157,0.08928c-0.04701,1.33936 -1.14761,2.41072 -2.49843,2.41072c-0.91548,0 -1.71604,-0.49208 -2.15159,-1.22618c-0.18235,-0.23085 -0.29455,-0.53907 -0.33409,-1.00461c-0.00947,-0.08844 -0.01432,-0.17826 -0.01432,-0.26922c-0.08837,-3.54056 -0.09317,-7.08456 0,-10.625zM310.58195,179.64585z"/><path d="M310.08195,162.02085c0,-1.38071 1.11929,-2.5 2.5,-2.5c1.38071,0 2.5,1.11929 2.5,2.5c0,1.38071 -1.11929,2.5 -2.5,2.5c-1.38071,0 -2.5,-1.11929 -2.5,-2.5z"/><path d="M326.90638,169.08752c1.23102,0.28963 4.17755,1.04589 3.92557,2.93333c-0.3687,2.76171 -3.21339,2.61202 -5.73332,2.03515c0.01677,1.73857 0.02873,3.47705 -0.01668,5.21485v0c0,0.03118 -0.00058,0.06223 -0.00171,0.09313c-0.04899,1.33757 -1.14876,2.40687 -2.49829,2.40687c-1.18908,0 -2.18428,-0.83016 -2.43761,-1.94252c-1.3411,-1.66796 -1.26948,-3.66207 -0.77599,-6.72538c-1.1592,-0.21737 -2.0364,-1.23479 -2.0364,-2.4571c0,-1.38071 1.11929,-2.5 2.5,-2.5c0.12106,0 0.24011,0.00861 0.35658,0.02524c0.00756,-0.00161 0.01513,-0.0032 0.0227,-0.00477c0.15315,-1.10781 0.38286,-3.63483 1.05822,-4.27047c1.71717,-1.61616 2.65783,-1.71717 4.375,0c1.15112,1.15113 -0.16997,3.28141 -0.49428,4.75431c0.60076,0.14925 1.1916,0.30452 1.75621,0.43735z"/></g></g><g fill="#ffffff" stroke="#000000" stroke-width="1"><path d="M355.43413,184.93085c1.3146,0.13693 1.69354,1.18304 1.79459,1.93276c0.06808,0.01334 0.13626,0.02606 0.20457,0.03807c1.4897,0.26189 4.23339,0.76388 3.91889,-1.7621c-0.05579,-0.44807 0.09751,-1.0073 -0.14462,-1.34894c-1.84121,-2.59785 -6.47472,0.28781 -8.22065,-3.05092c-0.67363,-1.28817 -0.09368,-5.34842 0.30561,-8.10031c-0.17397,-0.37694 -0.26682,-0.87304 -0.19886,-1.5254c0.11027,-1.05857 0.55007,-1.62727 1.01885,-1.93135c0.34557,-0.48722 0.90038,-0.88497 1.78472,-0.79285c0.59648,0.06213 1.00033,0.31143 1.27299,0.6353c1.77419,0.18481 3.54838,0.36962 5.32257,0.55443l2.26223,0.79821c0,0 1.97165,0.75063 1.26817,3.13103c-0.70348,2.38039 -2.67512,1.62976 -2.67512,1.62976l-1.37331,-0.5859c-1.4939,-0.15562 -2.98782,-0.31122 -4.48172,-0.46684c-0.06687,0.83517 -0.16216,1.66489 -0.34736,2.47734c-0.11257,0.49384 -0.66613,0.85695 -0.61744,1.35837c0.02898,0.29847 0.46402,-0.32 0.71727,-0.33033c1.37527,-0.05607 3.27781,0.41872 4.48055,1.0614c2.82216,1.50799 3.41129,1.81489 3.78472,5.72481c0.78005,8.16736 -6.40617,8.00921 -10.95551,6.98461l-1.45747,-4.16099c0,0 0.25901,-2.48655 2.33631,-2.27016z"/><path d="M373.82218,176.84962c-0.82626,2.04961 -1.06494,4.29035 -1.16722,6.536c-0.0323,0.70911 0.58801,3.7177 2.12533,3.28445c3.03277,-0.8547 2.67784,-7.86469 0.75232,-9.39465c-0.44536,-0.35387 -1.10438,-0.27318 -1.65657,-0.40976zM371.56206,172.72288c0.93649,-1.48914 2.78478,-0.93401 2.78478,-0.93401l1.17411,0.35511c1.06824,0.42793 2.35121,0.5119 3.2047,1.28378c2.77022,2.50536 4.16295,9.49766 2.70562,12.95323c-2.39215,5.67218 -9.92297,7.1601 -12.99666,1.11093c-1.47977,-2.91226 -0.57245,-4.55196 -0.29771,-7.42461c0.1895,-1.9813 0.58457,-3.98138 1.3619,-5.81366c0,0 0.64285,-1.4546 2.06326,-1.53077z"/></g></g></g></svg>