<svg version="1.1" xmlns="http://www.w3.org/2000/svg" xmlns:xlink="http://www.w3.org/1999/xlink" width="68.26912" height="69.54174" viewBox="0,0,68.26912,69.54174"><defs><radialGradient cx="320" cy="180" r="34.13456" gradientUnits="userSpaceOnUse" id="color-1"><stop offset="0" stop-color="#ffe047"/><stop offset="1" stop-color="#ffe047" stop-opacity="0"/></radialGradient></defs><g transform="translate(-285.86544,-145.22913)"><g data-paper-data="{&quot;isPaintingLayer&quot;:true}" fill-rule="nonzero" stroke="none" stroke-width="0" stroke-linecap="butt" stroke-linejoin="miter" stroke-miterlimit="10" stroke-dasharray="" stroke-dashoffset="0" style="mix-blend-mode: normal"><path d="M354.13456,180c0,19.20342 -15.28256,34.77087 -34.13456,34.77087c-18.85199,0 -34.13456,-15.56746 -34.13456,-34.77087c0,-19.20342 15.28256,-34.77087 34.13456,-34.77087c18.85199,0 34.13456,15.56746 34.13456,34.77087zM319.96512,196.38847c8.56041,0 15.5,-6.93959 15.5,-15.5c0,-8.56041 -6.93959,-15.5 -15.5,-15.5c-8.56041,0 -15.5,6.93959 -15.5,15.5c0,8.56041 6.93959,15.5 15.5,15.5z" fill="url(#color-1)"/><path d="M347.11875,180c0,14.93456 -12.14149,27.04142 -27.11875,27.04142c-14.97727,0 -27.11875,-12.10685 -27.11875,-27.04142c0,-14.93456 12.14149,-27.04142 27.11875,-27.04142c14.97727,0 27.11875,12.10685 27.11875,27.04142zM319.96512,196.38847c8.56041,0 15.5,-6.93959 15.5,-15.5c0,-8.56041 -6.93959,-15.5 -15.5,-15.5c-8.56041,0 -15.5,6.93959 -15.5,15.5c0,8.56041 6.93959,15.5 15.5,15.5z" fill="#fff3b6"/></g></g></svg>