<svg version="1.1" xmlns="http://www.w3.org/2000/svg" xmlns:xlink="http://www.w3.org/1999/xlink" width="11.33889" height="14.49626" viewBox="0,0,11.33889,14.49626"><g transform="translate(-314.33056,-172.75187)"><g data-paper-data="{&quot;isPaintingLayer&quot;:true}" fill="#ff0000" fill-rule="nonzero" stroke="none" stroke-width="0.5" stroke-linecap="butt" stroke-linejoin="miter" stroke-miterlimit="10" stroke-dasharray="" stroke-dashoffset="0" style="mix-blend-mode: normal"><path d="M325.58991,178.68007l-0.02846,0.31548l0.04253,0.31483l-0.00087,0.00964l0.01062,0.07862l-0.02846,0.31548l0.04253,0.31483l-0.00087,0.00964l0.04251,0.31469l-0.08798,0.97535l0.01063,0.07869l-0.03716,0.41196l0.02658,0.41405l-0.03996,0.24643l-0.05918,0.14381l-0.00943,0.10454l-0.05136,0.04321l-0.06985,0.16974l0.01647,0.19668l-0.13014,0.16139l0.02652,0.13268l-0.1881,0.30303l-0.00238,0.03624l-0.02049,0.06794l-0.00664,0.0736l-0.02084,0.01753l-0.10379,0.34414l-0.07945,0.13654l-0.02907,0.15934l-0.0985,0.22622l0.00331,0.03942l-0.04345,0.05388l-0.00358,0.0397l-0.08835,0.07431l-0.06915,0.08575l-0.16301,0.42611l-0.24488,0.35618l-0.29331,0.2579l-0.24886,0.30863l-0.13307,0.0994l-0.08547,0.03425l-0.0029,0.00806l-0.08263,0.03585l-0.06405,0.05632l-0.05208,0.04836l-0.20492,0.10975l-0.37001,0.08547l-0.3507,0.1522l-0.57481,0.08285l-0.2892,-0.03616l-0.28747,0.04143l-0.00883,-0.0011l-0.49423,0.07123l-0.01968,0.01908l-0.06763,-0.0065l-0.06507,0.00938l-0.53979,-0.0675l-0.15144,-0.01455l-0.09189,0.0424l-0.13659,-0.06435l-0.16109,-0.01547l-0.0625,-0.02348l-0.04001,-0.00501l-0.00007,0.00001l-0.29804,-0.03726l-0.24482,-0.09983l-0.25929,-0.02492l-0.12471,-0.04685l-0.03535,0.00785l-0.31243,-0.2345l-0.16911,-0.06897l-0.03375,-0.08292l-0.12583,-0.08873l-0.17096,-0.08638l-0.15839,-0.01152l-0.08849,-0.11321l-0.12344,-0.06237l-0.01042,-0.03192l-0.56652,-0.28623l-0.15839,-0.01152l-0.08849,-0.11321l-0.12344,-0.06237l-0.03501,-0.1073l-0.01114,-0.00081l-0.19854,-0.25402l-0.2567,-0.18102l-0.03076,-0.16435l-0.2562,-0.26483l-0.136,-0.23086l-0.12689,-0.05635l-0.16495,-0.43901l-0.23548,-0.39971l0.03105,-0.14436l-0.09527,-0.25356l-0.15946,-1.18036l0.02846,-0.31548l-0.04253,-0.31483l0.00087,-0.00964l-0.11693,-0.86552l0.09689,-1.07409l-0.02233,-0.11172l0.03792,-0.06109l0.00667,-0.07389l0.03837,-0.03227l0.04862,-0.539l-0.02233,-0.11172l0.03792,-0.06109l0.00667,-0.07389l0.08202,-0.06898l0.16766,-0.2701l0.00804,-0.12199l0.02049,-0.06794l0.00664,-0.0736l0.02084,-0.01753l0.0532,-0.1764l0.10266,-0.17642l-0.01075,-0.12832l0.04345,-0.05388l0.00358,-0.0397l0.08835,-0.07431l0.02175,-0.02698l0.06663,-0.2493l0.23425,-0.43488l0.04979,-0.05492l0.00353,-0.07607l0.29719,-0.27594l0.16283,-0.26231l0.00839,-0.02194l0.0538,-0.07824l0.06464,-0.10414l0.19429,-0.18845l0.08091,-0.04572l0.02211,-0.01945l0.24886,-0.30863l0.13995,-0.10454l0.00964,-0.02682l0.06266,-0.0272l0.02837,-0.02119l0.22293,-0.38311l0.03545,-0.00733l0.17116,-0.16601l0.08381,-0.04736l0.02909,-0.08089l0.11227,-0.04872l0.00749,-0.01367l0.25551,-0.27749l0.16477,-0.10636l0.04283,-0.11911l0.43246,-0.18767l0.40004,-0.25822l0.11377,0.03523l0.17812,-0.07729l1.36516,-0.19676l0.1918,0.02398l0.10009,-0.06605l0.45319,0.13524l0.46568,0.05823l0.07277,0.10245l0.18666,0.0557l0.14728,0.08978l0.17786,0.07253l0.18317,-0.01513l0.16072,0.15537l0.20049,0.08175l0.07518,0.18474l0.47497,0.45916l0.02552,0.0167l0.05106,0.0553l0.06968,0.00507l0.35433,0.45334l0.3415,0.28293l0.24075,0.32469l0.28646,0.27693l0.09792,0.15462l0.02469,0.01097l0.02589,0.06892l0.03771,0.05955l0.04365,0.12536l0.0148,0.01997l-0.00189,0.01714l0.13733,0.39439l0.20715,0.55133l0.00963,0.07126l0.02424,0.0696l-0.01132,0.02599zM320.04392,178.83834l-0.01303,0.03625l-0.06438,0.02794c-0.12392,0.09832 -0.25762,0.18375 -0.39971,0.25429l-0.05219,0.04846l-0.00453,0.05023l-0.06185,0.05202l-0.01004,0.02626l0.00711,0.08493l-0.07535,0.09345l-0.03252,0.08501l-0.02971,0.32929l-0.10691,0.08991l-0.05036,0.08113l-0.04327,0.47958l0.05315,0.39346l-0.02846,0.31548l0.01946,0.14408l0.04625,-0.00382l0.30119,0.29117l0.15373,0.07767l0.15839,0.01152l0.08849,0.11321l0.0627,0.03168l0.06768,-0.03123l0.27365,0.12893l0.26356,-0.03799l-0.01788,-0.08948l0.03792,-0.06109l0.00667,-0.07389l0.08202,-0.06898l0.1046,-0.16852l0.10764,-0.26156l-0.02187,-0.16192l0.05865,-0.65023l-0.01063,-0.07869l0.02846,-0.31548l-0.04253,-0.31483l0.00087,-0.00964l-0.01062,-0.07862l0.02846,-0.31548l-0.04253,-0.31483l0.00087,-0.00964l-0.08026,-0.59409l-0.065,-0.08766l-0.08653,-0.05664l-0.0837,-0.09065c-0.13868,0.23924 -0.31353,0.45224 -0.51765,0.62904z"/></g></g></svg>