<svg version="1.1" xmlns="http://www.w3.org/2000/svg" xmlns:xlink="http://www.w3.org/1999/xlink" width="520.33359" height="336.82219" viewBox="0,0,520.33359,336.82219"><g transform="translate(-44.70062,-7.86408)"><g data-paper-data="{&quot;isPaintingLayer&quot;:true}" fill-rule="nonzero" stroke-linejoin="miter" stroke-miterlimit="10" stroke-dasharray="" stroke-dashoffset="0" style="mix-blend-mode: normal"><path d="M202.79335,100.78285c0,25.34604 -18.11874,45.89307 -40.46934,45.89307c-22.3506,0 -40.46934,-20.54703 -40.46934,-45.89307c0,-25.34604 18.11874,-45.89307 40.46934,-45.89307c22.3506,0 40.46934,20.54703 40.46934,45.89307z" fill="#000000" stroke="#000000" stroke-width="3" stroke-linecap="butt"/><path d="M147.44352,114.82891c0,28.95593 -22.66399,52.42935 -50.62145,52.42935c-27.95745,0 -50.62145,-23.47342 -50.62145,-52.42935c0,-28.95593 22.66399,-52.42935 50.62145,-52.42935c27.95745,0 50.62145,23.47342 50.62145,52.42935z" fill="#000000" stroke="#000000" stroke-width="3" stroke-linecap="butt"/><path d="M109.42108,9.38313c38.02212,-0.91659 71.81566,31.34957 75.47998,72.06849c3.66432,40.71892 -24.18818,74.47116 -62.21031,75.38775c-38.02212,0.91659 -71.81566,-31.34957 -75.47998,-72.06849c-3.66432,-40.71892 24.18818,-74.47116 62.21031,-75.38775z" fill="#000000" stroke="#000000" stroke-width="3" stroke-linecap="butt"/><path d="M175.68938,246.00408c6.2253,-7.05019 12.62253,-10.91538 14.28863,-8.63313c0.7708,1.05586 14.8951,7.95011 23.90984,15.8572c2.06208,1.8087 5.83302,8.01492 6.18255,14.71734c0.3496,6.70388 -2.72248,13.90391 -3.12641,15.03888c-2.47988,6.96795 -4.96593,14.52357 -6.28433,19.65755c-1.511,-0.41051 -3.00762,-0.86831 -4.38173,-1.17552c-3.26401,-1.26799 -6.5892,-2.20373 -9.93618,-3.28127c-3.29175,-1.05976 -6.38829,-2.74338 -9.11878,-4.86582c-1.75524,-1.36437 -3.53618,-3.01469 -5.44059,-4.30319c3.55897,-6.89922 7.57245,-14.67135 3.60404,-16.42003c-3.91611,-1.72563 -22.43173,-16.22938 -22.75176,-16.66776c-1.6661,-2.28223 6.82943,-2.8741 13.05472,-9.92427z" fill="#334cff" stroke="#000000" stroke-width="3" stroke-linecap="butt"/><path d="M209.76815,308.5286c2.22295,7.17242 5.51323,16.81416 0.68487,17.15919c-11.65407,0.83277 -21.01305,-9.7942 -26.40061,-17.50479c-2.99443,-4.28559 -6.48223,-10.42668 -4.83768,-14.01385c0.66227,-1.44461 1.48215,-3.04752 2.33938,-4.71044c1.8775,1.27368 3.63568,2.91348 5.362,4.25536c2.77547,2.1574 5.92637,3.86975 9.27241,4.947c3.35052,1.07868 6.67302,2.02329 9.94392,3.28369c1.38304,0.31317 2.88622,0.76984 4.40489,1.18003c-0.67651,2.70891 -0.996,4.67194 -0.76917,5.40381z" fill="#ffffff" stroke="#000000" stroke-width="3" stroke-linecap="butt"/><path d="M143.49595,255.31199c8.69145,-2.81801 16.04555,-2.78167 16.42585,0.08116c0.38029,2.86284 25.05818,39.54638 16.36672,42.3644c-1.31879,0.42759 -20.94195,18.92338 -28.45715,22.15494c-0.9293,-1.72008 -1.85899,-3.4424 -2.8983,-5.12405c-1.83938,-2.97621 -3.80091,-5.91251 -5.93572,-8.68608c-2.13512,-2.77398 -4.24906,-5.56597 -6.41486,-8.31605c-0.78167,-0.99254 -1.54249,-1.97478 -2.27699,-2.9712c5.83386,-3.82554 11.59862,-7.97802 9.19223,-11.29419c-6.29231,-8.6712 -10.92622,-16.98766 -11.05044,-17.92279c-0.38029,-2.86283 6.35723,-7.46808 15.04869,-10.28609z" fill="#334cff" stroke="#000000" stroke-width="3" stroke-linecap="butt"/><path d="M146.32948,320.37164c-2.88268,0.36506 -3.19659,25.95499 -9.86377,22.49258c-10.49954,-5.45261 -13.65931,-19.63139 -14.73472,-29.17563c-0.59772,-5.30475 -0.75744,-12.48071 2.34356,-14.72148c1.67843,-1.21283 3.73732,-2.52291 5.812,-3.87789c0.74284,1.00853 1.51243,2.00244 2.30311,3.00643c2.16466,2.74863 4.27746,5.53915 6.41145,8.31167c2.12443,2.76009 4.07618,5.68224 5.90662,8.64398c1.02397,1.65684 1.94128,3.35312 2.85677,5.04784c-0.38566,0.14147 -0.73238,0.23418 -1.03503,0.27251z" fill="#ffffff" stroke="#000000" stroke-width="3" stroke-linecap="butt"/><path d="M119.24192,173.59188c1.8315,-6.86449 25.70552,-6.99596 53.32404,-0.29352c5.83098,1.41505 11.36269,3.02159 16.44435,4.74028c-0.29402,1.25872 -0.58685,2.51773 -0.87787,3.77717c-0.78898,3.4144 -1.72192,6.78785 -2.412,10.22462c-0.64648,3.21961 -1.147,6.47264 -2.29568,9.54925c-5.51925,-0.81411 -11.41466,-1.95795 -17.49134,-3.43264c-27.61849,-6.70243 -48.52304,-17.7006 -46.69149,-24.56516z" data-paper-data="{&quot;index&quot;:null}" fill="#ff3333" stroke="#000000" stroke-width="3" stroke-linecap="butt"/><path d="M219.25746,197.86352c-1.41621,5.30791 -16.0117,6.59012 -35.32688,3.8c1.1313,-3.07238 1.63529,-6.31346 2.28008,-9.52466c0.68912,-3.43201 1.62106,-6.80079 2.40895,-10.21048c0.28724,-1.24308 0.57624,-2.48571 0.8664,-3.72808c18.72377,6.39383 31.2042,14.29331 29.77145,19.66322z" data-paper-data="{&quot;index&quot;:null}" fill="#ffffff" stroke="#000000" stroke-width="3" stroke-linecap="butt"/><path d="M136.89133,188.51743c-6.65456,6.73568 -16.53532,15.66034 -28.04405,23.38897c-3.64762,2.44954 -7.26777,4.71486 -10.7969,6.77292c-0.30177,-0.47005 -0.60352,-0.9401 -0.90529,-1.41014c-1.89083,-2.94529 -3.78166,-5.89059 -5.67248,-8.83589c-1.89168,-2.94663 -3.78813,-5.88841 -5.71872,-8.80973c-0.42477,-0.64276 -0.82717,-1.30492 -1.21059,-1.98073c2.9827,-2.2638 6.15407,-4.53135 9.48017,-6.76497c9.72096,-6.52805 19.42586,-11.57769 27.76409,-14.85285c1.47771,2.68593 3.54796,5.10165 6.179,7.03847c3.12589,2.30108 6.66207,3.64547 10.25859,4.08633c-0.42876,0.44598 -0.87359,0.9018 -1.33379,1.36764z" data-paper-data="{&quot;index&quot;:null}" fill="#ff3333" stroke="#000000" stroke-width="3" stroke-linecap="butt"/><path d="M58.71511,230.08069c-3.49048,-4.95143 7.48895,-18.44221 25.42683,-32.13239c0.37893,0.66532 0.77615,1.31742 1.19481,1.95093c1.92937,2.91948 3.82461,5.85941 5.7151,8.80418c1.89083,2.94529 3.78165,5.89059 5.67248,8.83588c0.29779,0.46386 0.59558,0.92772 0.89337,1.39158c-19.11284,11.07757 -35.46786,16.02222 -38.90259,11.14981z" data-paper-data="{&quot;index&quot;:null}" fill="#ffffff" stroke="#000000" stroke-width="3" stroke-linecap="butt"/><path d="M115.82383,229.92816c-2.78388,-11.34327 -8.1323,-34.98296 -2.90019,-48.77746c5.84232,-15.40325 6.54139,-15.81929 6.54139,-15.81929c0,0 31.94118,-15.31063 46.70886,6.52546c1.87033,2.76556 5.25387,9.82264 10.92821,21.08006c4.37652,8.68267 9.25936,17.61104 12.50332,25.62953c1.44234,3.5652 2.49881,7.17908 3.32924,10.2535c-0.35945,0.15417 -0.71995,0.30754 -1.08154,0.46032c-3.22402,1.36224 -6.44804,2.72447 -9.67206,4.08671c-3.25901,1.37702 -6.46313,2.4804 -9.86201,3.46158c-3.36269,0.97073 -6.72539,1.94145 -10.08808,2.91218c-3.36269,0.97073 -6.72538,1.94145 -10.08807,2.91218c-3.36457,0.97127 -6.72743,1.94204 -10.07555,2.96872c-3.34622,1.02609 -6.69243,2.05217 -10.03864,3.07826c-3.11098,0.95396 -6.22196,1.90792 -9.33294,2.86187c-2.31954,-5.88263 -4.79922,-13.18805 -6.87195,-21.63363z" data-paper-data="{&quot;index&quot;:null}" fill="#ff3333" stroke="#000000" stroke-width="3" stroke-linecap="butt"/><path d="M130.36337,267.85949c0,0 -3.47829,-5.76757 -7.48288,-15.83136c3.09827,-0.95006 6.19654,-1.90011 9.29481,-2.85018c3.34622,-1.02609 6.69242,-2.05217 10.03864,-3.07826c3.34549,-1.02587 6.70571,-1.99586 10.06764,-2.96636c3.36269,-0.97073 6.72538,-1.94146 10.08807,-2.91219c3.36269,-0.97073 6.72539,-1.94145 10.08808,-2.91218c3.41726,-0.98648 6.64126,-2.09689 9.91794,-3.48138c3.22402,-1.36224 6.44804,-2.72448 9.67206,-4.08671c0.34031,-0.14379 0.67963,-0.28809 1.01805,-0.43311c0.95904,3.58433 1.61071,6.36192 2.22351,7.34472c3.85111,6.17637 5.99761,7.59413 5.99761,7.59413z" data-paper-data="{&quot;index&quot;:null}" fill="#334cff" stroke="#000000" stroke-width="3" stroke-linecap="butt"/><path d="M159.09979,173.88733c0.51829,4.46868 -6.51826,9.29515 -15.71658,10.78024c-9.19833,1.48508 -17.0752,-0.9336 -17.5935,-5.40229c-0.51829,-4.46868 6.51825,-9.29515 15.71658,-10.78023c9.19833,-1.48508 17.07521,0.9336 17.5935,5.40228z" fill="#ffffff" stroke="#000000" stroke-width="3" stroke-linecap="butt"/><path d="M118.95616,59.95405c23.85721,-5.36875 33.96201,1.98562 46.98126,21.93005c3.89405,5.96537 20.56876,16.24394 22.23424,23.64484c7.23379,32.14487 -12.02677,63.85743 -43.01961,70.83198c-30.99289,6.97455 -61.98172,-13.43003 -69.21551,-45.57489c-7.23378,-32.14487 12.02679,-63.85744 43.01963,-70.83198z" fill="#ffffff" stroke="#000000" stroke-width="3" stroke-linecap="butt"/><path d="M117.15366,138.12521c-1.59759,0.35951 -3.83623,-3.54188 -5.00014,-8.71399c-1.16391,-5.17211 -0.81235,-9.6564 0.78522,-10.01591c1.59758,-0.35951 3.83622,3.54189 5.00013,8.714c1.16393,5.17212 0.81237,9.65639 -0.7852,10.0159z" data-paper-data="{&quot;index&quot;:null}" fill="#000000" stroke="none" stroke-width="3" stroke-linecap="butt"/><path d="M164.61769,128.87455c-1.7117,0.38519 -4.12863,-3.87656 -5.39835,-9.51885c-1.26973,-5.64229 -0.91146,-10.52857 0.80024,-10.91376c1.71171,-0.38519 4.12862,3.87656 5.39834,9.51885c1.26972,5.64231 0.91146,10.52857 -0.80024,10.91376z" data-paper-data="{&quot;index&quot;:null}" fill="#000000" stroke="none" stroke-width="3" stroke-linecap="butt"/><path d="M114.37208,205.5957c-1.52445,1.0163 -3.41787,2.09746 -5.21445,1.73815c-6.55939,-1.31188 -3.66188,-14.876 -0.50229,-21.55059c0.25921,-1.11233 0.85879,-2.09391 1.68299,-2.82898c0.18739,-0.16709 0.38635,-0.32146 0.59557,-0.46174c1.62733,-2.85748 5.94281,-4.14024 5.94281,-4.14024l7.0713,0.93642c1.14624,4.51223 6.27398,8.6543 4.86557,13.09171c-1.03514,3.26138 -5.57145,3.97385 -8.35717,5.96079c0,0 -1.74167,0.79167 -3.63082,0.40573c-0.54669,3.13828 -1.25517,6.04984 -2.45351,6.84875z" fill="#ff3333" stroke="none" stroke-width="3" stroke-linecap="butt"/><path d="M178.72948,181.46049c10.51586,2.62896 2.50447,13.6658 -5.75288,12.09046c-6.03549,-1.15144 -5.36622,-7.405 -7.59298,-10.38813c-2.04816,-2.74387 -6.48271,-2.75779 -3.68717,-8.34888c3.07575,-6.15149 16.74597,1.66067 17.02296,6.64655z" fill="#ff3333" stroke="none" stroke-width="3" stroke-linecap="butt"/><path d="M171.87886,251.36661l-15.27137,6.9812" fill="none" stroke="#000000" stroke-width="3" stroke-linecap="round"/><path d="M122.1459,302.61805c0,-2.84584 3.04752,-5.98352 6.77668,-8.86989c1.03404,1.4774 2.1287,2.90201 3.26709,4.34749c1.645,2.08877 3.26005,4.20175 4.87722,6.31263c-0.69282,2.26492 -1.28026,4.46868 -1.6902,6.50171c-1.84128,9.13161 4.20982,28.48728 1.28734,28.48728c-8.19631,0 -14.51811,-27.51382 -14.51811,-36.77921z" data-paper-data="{&quot;index&quot;:null}" fill-opacity="0.46275" fill="#edb493" stroke="none" stroke-width="3" stroke-linecap="butt"/><path d="M104.49658,182.93104c2.33004,-1.65367 4.08453,-2.26926 5.3941,-2.15983c-3.30287,6.14272 -5.69103,13.37946 -13.70843,15.16111l-1.14047,0.57023c-1.49154,0.70708 -2.72109,1.87679 -3.5033,3.3238c-0.88288,0.81511 -1.65168,1.75195 -2.27977,2.78386c-0.70233,0.18001 -1.36525,0.43625 -1.97719,0.78074c-5.97051,3.36107 -20.28602,14.1285 -23.11894,20.51293c-1.3763,3.10172 8.83076,4.18302 7.00216,4.76902c-7.49018,2.40033 -13.44978,2.57286 -12.84277,-3.39854c2.34251,-9.41759 43.9283,-40.74908 46.17461,-42.34331z" data-paper-data="{&quot;index&quot;:null}" fill-opacity="0.46275" fill="#edb493" stroke="none" stroke-width="3" stroke-linecap="butt"/><path d="M76.41605,126.54734c0,-1.82181 0.17915,-3.61199 0.52487,-5.36103c2.15482,-0.63202 4.16836,-1.34546 5.78333,-1.87716c0.06539,10.01 0.21806,24.58507 10.91623,33.20768c33.12722,26.70016 55.00561,14.70878 60.86882,15.94642c0.81184,0.17137 2.79119,0.87989 4.65289,1.31342c-3.52672,2.64809 -8.05402,4.52238 -13.86578,5.32568c-44.34864,6.12987 -68.88037,-28.68786 -68.88037,-48.55501z" data-paper-data="{&quot;index&quot;:null}" fill-opacity="0.46275" fill="#edb493" stroke="none" stroke-width="3" stroke-linecap="butt"/><text transform="translate(268.37559,94.77973) scale(1.37758,1.37758)" font-size="40" xml:space="preserve" fill="#ffffff" fill-rule="nonzero" stroke="none" stroke-width="1" stroke-linecap="butt" stroke-linejoin="miter" stroke-miterlimit="10" stroke-dasharray="" stroke-dashoffset="0" font-family="Playful" font-weight="normal" text-anchor="start" style="mix-blend-mode: normal"><tspan x="0" dy="0">Dumz Child</tspan></text><path d="M167.583,57.16763c2.11736,6.17563 -19.01865,19.0171 -47.20859,28.68223c-28.18995,9.66512 -52.75887,12.49392 -54.87623,6.31828c-2.11736,-6.17563 19.01865,-19.0171 47.20859,-28.68223c28.18995,-9.66512 52.75887,-12.49392 54.87623,-6.31828z" fill="#000000" stroke="#000000" stroke-width="3" stroke-linecap="butt"/><path d="M88.17033,107.62745c0,21.50573 -6.10184,38.93957 -13.62885,38.93957c-7.52701,0 -13.62885,-17.43384 -13.62885,-38.93957c0,-21.50573 6.10184,-38.93957 13.62885,-38.93957c7.52701,0 13.62885,17.43384 13.62885,38.93957z" fill="#000000" stroke="#000000" stroke-width="3" stroke-linecap="butt"/><text transform="translate(270.6187,122.12055) scale(0.47282,0.47282)" font-size="40" xml:space="preserve" fill-opacity="0.81569" fill="#edddd4" fill-rule="nonzero" stroke="none" stroke-width="1" stroke-linecap="butt" stroke-linejoin="miter" stroke-miterlimit="10" stroke-dasharray="" stroke-dashoffset="0" font-family="Playful" font-weight="normal" text-anchor="start" style="mix-blend-mode: normal"><tspan x="0" dy="0">fatty</tspan></text><path d="M185.08516,247.96232c0.02516,0.05031 0.04862,0.10005 0.07044,0.14923c3.99198,-1.58784 7.87077,-3.39969 11.8297,-5.55926c0,0 2.19474,-1.19713 3.39187,0.99761c1.19713,2.19474 -0.9976,3.39187 -0.9976,3.39187c-7.63377,4.16358 -15.02838,7.10902 -23.34777,9.58475l-0.2167,-0.05159l0.01076,0.08612l-2.62754,0.32844c-0.11411,0.01595 -0.2307,0.0242 -0.34921,0.0242c-1.38071,0 -2.5,-1.11929 -2.5,-2.5c0,-0.94657 0.52607,-1.77027 1.30179,-2.19468l2.2912,-1.30926l0.04147,0.07258c0.08716,-0.07573 0.17603,-0.14969 0.26678,-0.22171c0.71771,-0.56956 1.81153,-0.33766 2.66666,-0.66667c1.4432,-0.55526 2.51185,-1.63197 3.66496,-2.60081l1.1491,-0.64884c0,0 2.23606,-1.11804 3.3541,1.11803z" fill="#334cff" stroke="none" stroke-width="0.5" stroke-linecap="butt"/><path d="M129.42375,267.02002c-0.60634,-2.42536 1.81901,-3.0317 1.81901,-3.0317l1.93968,-0.40798c4.76838,0.19722 9.27665,-4.00394 14.06844,-4.48663c0.01979,-0.002 0.03959,-0.00394 0.05938,-0.00583l-0.00564,-0.01504l2.61272,-0.97976c0.28795,-0.11572 0.60242,-0.17941 0.93176,-0.17941c0.08603,0 0.17105,0.00435 0.25484,0.01283c0.16237,-0.55011 0.56222,-1.10673 1.42703,-1.47736c2.29787,-0.9848 3.28266,1.31307 3.28266,1.31307c0.13404,0.44226 0.2681,0.88452 0.40214,1.32678l1.56517,0.67079c0.9192,0.36946 1.56816,1.26922 1.56816,2.32056c0,1.05134 -0.64897,1.9511 -1.56816,2.32056l-2.28037,0.97731l-0.03182,-0.07425c-0.14644,0.08113 -0.29636,0.15654 -0.45031,0.22532c-0.14327,0.06401 -5.5689,0.05106 -6.16933,0.05106h-2.66666c-0.4732,0 -0.9157,-0.13147 -1.29296,-0.35988c-0.43108,0.10198 -0.76409,0.18078 -0.90893,0.22906c-3.76785,1.25595 -6.80087,3.02963 -10.79811,3.13082l-0.727,0.25869c0,0 -2.42535,0.60634 -3.03169,-1.81902z" fill="#334cff" stroke="none" stroke-width="0.5" stroke-linecap="butt"/><path d="M139.71099,286.43871c1.76959,-1.19048 -4.48402,-11.63951 -10.02827,-22.60645c-5.39037,-10.66255 -10.07489,-21.86764 -8.50468,-21.86764c0.06954,0 -2.49237,-7.71632 -4.31303,-15.8075c-0.15868,-0.70517 -1.7376,-8.94729 -3.34379,-13.97622c0.20812,-0.90724 0.31928,-1.86557 0.31928,-2.87053c0,-0.78803 -0.14914,-1.65484 -0.4246,-2.55561c0.59525,0.18826 1.17913,0.39889 1.74001,0.64859c0.11258,1.16427 0.23651,2.21 0.41897,2.71431c4.91392,13.58115 14.36907,43.08942 18.0717,48.75703c6.44264,9.8617 12.84341,20.63586 12.32757,22.03397c-1.33588,3.62081 -5.8461,13.69242 -8.72618,22.91382c-1.54647,-2.01887 -3.0923,-4.03858 -4.66549,-6.03619c-1.13737,-1.4442 -2.2306,-2.8666 -3.26283,-4.34262c3.60533,-2.73958 7.75649,-5.23236 10.39135,-7.00497z" data-paper-data="{&quot;index&quot;:null}" fill-opacity="0.46275" fill="#edb493" stroke="none" stroke-width="3" stroke-linecap="butt"/><path d="M97,149.0513l80,-15.66667" fill="none" stroke="#000000" stroke-width="3" stroke-linecap="round"/><path d="M97.33334,144.38463l-1.66667,10.66667" fill="none" stroke="#000000" stroke-width="3" stroke-linecap="round"/></g></g></svg>