<svg version="1.1" xmlns="http://www.w3.org/2000/svg" xmlns:xlink="http://www.w3.org/1999/xlink" width="78.76552" height="38.40225" viewBox="0,0,78.76552,38.40225"><g transform="translate(-547.15391,-305.00581)"><g data-paper-data="{&quot;isPaintingLayer&quot;:true}" fill-rule="nonzero" stroke-linecap="butt" stroke-linejoin="miter" stroke-miterlimit="10" stroke-dasharray="" stroke-dashoffset="0" style="mix-blend-mode: normal"><path d="M622.94889,312.85256c-0.00007,2.1974 3.44075,18.63591 0.59083,25.32649c-0.73877,1.73436 -8.22963,2.18234 -8.83506,2.30331c-5.8329,1.16538 -26.87292,2.49155 -44.62631,1.03683c-7.00867,-0.5743 -14.45975,0.13205 -18.81446,-2.37281c-4.61723,-2.65586 -2.25662,-26.19994 -2.25659,-27.22942c0.00014,-4.45988 0.92177,-5.66253 21.23608,-5.66115c20.31431,0.00137 52.51716,0.5294 52.51701,4.98927z" data-paper-data="{&quot;index&quot;:null}" fill="#ff3b3b" stroke="#000000" stroke-width="2.5"/><path d="M563.97036,332.43238c-1.19967,1.63347 -2.64134,0.2742 -2.64134,0.2742l-0.29942,-0.3269c-2.81216,-1.81389 -5.20542,-4.06998 -7.29164,-6.87489c0,0 -1.20381,-1.62955 0.2344,-2.99352c0.15532,-0.1473 0.30791,-0.25969 0.45654,-0.34299l0.28954,-0.39423c2.01343,-2.74149 3.87315,-5.53653 6.2846,-7.83908c0,0 1.43821,-1.36397 2.64203,0.26558c1.20381,1.62955 -0.2344,2.99352 -0.2344,2.99352c-2.16927,2.04091 -3.83857,4.59581 -5.63087,7.05516c1.49797,1.75135 3.19031,3.22226 5.09465,4.42989l0.85391,0.76052c0,0 1.44167,1.35927 0.242,2.99274z" fill="#ffffff" stroke="none" stroke-width="0.5"/><text transform="translate(568.57213,329.65397) scale(0.5,0.5)" font-size="40" xml:space="preserve" fill="#ffffff" fill-rule="nonzero" stroke="none" stroke-width="1" stroke-linecap="butt" stroke-linejoin="miter" stroke-miterlimit="10" stroke-dasharray="" stroke-dashoffset="0" font-family="Playful" font-weight="normal" text-anchor="start" style="mix-blend-mode: normal"><tspan x="0" dy="0">Back</tspan></text></g></g></svg>