<svg version="1.1" xmlns="http://www.w3.org/2000/svg" xmlns:xlink="http://www.w3.org/1999/xlink" width="1421.75057" height="1673.73436" viewBox="0,0,1421.75057,1673.73436"><defs><linearGradient x1="557.70569" y1="-368.27326" x2="39.33771" y2="187.85662" gradientUnits="userSpaceOnUse" id="color-1"><stop offset="0" stop-color="#ca57ff" stop-opacity="0.44314"/><stop offset="1" stop-color="#ca57ff" stop-opacity="0"/></linearGradient><linearGradient x1="377.12577" y1="2.2224" x2="377.12577" y2="449.84614" gradientUnits="userSpaceOnUse" id="color-2"><stop offset="0" stop-color="#ffffff" stop-opacity="0"/><stop offset="1" stop-color="#ffffff"/></linearGradient><linearGradient x1="618.27246" y1="355.91523" x2="933.455" y2="902.13401" gradientUnits="userSpaceOnUse" id="color-3"><stop offset="0" stop-color="#eeff66" stop-opacity="0"/><stop offset="1" stop-color="#eeff66"/></linearGradient></defs><g transform="translate(239.19378,627.89212)"><g data-paper-data="{&quot;isPaintingLayer&quot;:true}" fill-rule="nonzero" stroke="none" stroke-width="0" stroke-linecap="butt" stroke-linejoin="miter" stroke-miterlimit="10" stroke-dasharray="" stroke-dashoffset="0" style="mix-blend-mode: normal"><path d="M-239.19378,-71.76224l518.36798,-556.12988l557.06299,519.23772c0,0 160.16619,454.56704 70.16011,551.12985c-82.0449,88.02168 -588.52808,5.00003 -588.52808,5.00003z" fill="url(#color-1)"/><path d="M338.87577,434.88908c0,0 -427,35.19363 -427,-2.38908c0,-38.10483 72,-428.2776 72,-428.2776l858.5,-2v432.66667z" fill="url(#color-2)"/><path d="M273.12661,580.70454c0,0 92.45505,-102.53352 161.58405,-145.4047c109.60918,-67.97545 432.61155,-223.09284 432.61155,-223.09284c0,0 217.13062,-94.88765 261.71005,-17.63045c57.26934,99.24912 53.47249,563.84923 53.47249,563.84923l-498.09951,287.41646z" fill="url(#color-3)"/></g></g></svg>