<svg version="1.1" xmlns="http://www.w3.org/2000/svg" xmlns:xlink="http://www.w3.org/1999/xlink" width="57.57732" height="135.08963" viewBox="0,0,57.57732,135.08963"><g transform="translate(-290.62272,-132.54239)"><g data-paper-data="{&quot;isPaintingLayer&quot;:true}" fill-rule="nonzero" stroke-linejoin="miter" stroke-miterlimit="10" stroke-dasharray="" stroke-dashoffset="0" style="mix-blend-mode: normal"><path d="M303.11084,265.56468c-0.68609,0.92776 -12.14459,-12.37512 -11.45851,-13.30288c0.06595,-0.08919 0.70288,-0.94007 1.74365,-2.31627c1.39821,0.63342 3.1086,1.12319 4.14761,1.43247c1.93993,0.88189 4.21632,1.40561 5.70945,2.98378c0.80381,0.84958 1.66639,1.76126 2.47889,2.62007c-0.12799,0.17515 -0.19591,0.26799 -0.19591,0.26799c0,0 -0.02197,1.94603 -0.40588,3.57019c-0.52413,2.21738 -1.62332,4.20909 -2.01934,4.74461z" fill="#ffffff" stroke="#000000" stroke-width="2" stroke-linecap="butt"/><path d="M331.90068,181.39907c-0.31457,3.47522 -5.64982,5.83257 -11.91662,5.26531c-6.2668,-0.56726 -11.09202,-3.84436 -10.77743,-7.31958c0.31458,-3.47522 2.05852,-5.22166 8.3253,-4.65439c6.2668,0.56726 14.68331,3.23344 14.36873,6.70865z" fill="#334865" stroke="#000000" stroke-width="2" stroke-linecap="butt"/><path d="M340.25553,218.54214c-0.04895,4.05337 -2.89277,7.29965 -6.35187,7.25078c-3.45909,-0.04888 -6.22355,-3.37443 -6.17459,-7.42779c0.01398,-1.15802 -0.00421,-4.77531 0.04326,-9.35533c1.88189,-0.52725 3.77529,-1.02378 5.68398,-1.34653c1.99584,-0.33746 3.89742,-1.05358 5.89057,-1.36047c0.08183,-0.01259 0.16687,-0.01914 0.25367,-0.02201c0.52245,5.9218 0.67167,10.87935 0.65498,12.26135z" data-paper-data="{&quot;index&quot;:null}" fill="#ffffff" stroke="#000000" stroke-width="2" stroke-linecap="butt"/><path d="M330.89022,179.99312c4.20521,-0.18238 7.52804,12.65595 8.80908,22.59033c0.31198,2.4194 -0.40765,1.75593 -0.21185,4.05726c-0.11659,-0.00235 -0.2164,-0.0011 -0.28467,0.00993c-1.99747,0.32303 -3.90319,1.06802 -5.90288,1.4226c-1.88212,0.33372 -3.74979,0.84018 -5.60638,1.38008c0.16212,-11.82159 0.76051,-29.35452 3.19671,-29.46018z" data-paper-data="{&quot;index&quot;:null}" fill="#334865" stroke="#000000" stroke-width="2" stroke-linecap="butt"/><path d="M321.91291,226.86793c0.71165,-11.01677 6.9277,-6.60312 12.27681,-6.93299c0.46746,-0.02883 2.94333,26.88273 3.59404,35.38188c0.12223,1.59648 -0.26598,2.41739 -0.2592,2.42487c-2.86342,0.33052 -6.79943,-0.14024 -9.49058,0.66744c-1.39185,0.41971 -4.06728,0.31059 -5.81554,0.6504c-0.05729,-0.93785 -0.37487,-1.14123 -0.43572,-2.2103c-0.50683,-8.90437 -0.34754,-22.5856 0.1302,-29.98132z" fill="#a68f79" stroke="#000000" stroke-width="2" stroke-linecap="butt"/><path d="M340.04043,265.67329c0.05638,1.21669 -16.86331,1.30664 -16.91967,0.08994c-0.00849,-0.18322 -0.18535,-2.61663 -0.4102,-6.26233c1.75747,-0.36109 4.19901,-0.26935 5.45742,-0.64536c2.76354,-0.82943 6.00748,-0.9411 8.9285,-1.29541c0.43578,0.51968 1.10734,1.38264 1.58159,2.28048c1.03395,1.95748 1.32982,5.13037 1.36235,5.83266z" fill="#ffffff" stroke="#000000" stroke-width="2" stroke-linecap="butt"/><path d="M303.86368,224.14698c2.55524,-10.74117 8.47959,-2.47408 14.49454,-1.79459c0.30761,0.03474 1.32307,12.59384 -1.1302,22.05021c-2.08777,8.04755 -7.33739,13.16199 -10.7071,13.75366c-0.89377,-0.08019 -1.42242,0.0152 -2.05178,0.06216c-0.17764,-0.12597 -0.35965,-0.24634 -0.54579,-0.36082c-0.28769,-0.33395 -0.52415,-0.66092 -0.68445,-0.98259l-0.01024,-0.00319c-2.18019,-2.85735 -6.38039,-5.36778 -10.45441,-6.90816c1.74744,-2.68067 8.20298,-6.85811 9.79771,-9.86835c3.31691,-6.26103 0.32498,-11.88467 1.29171,-15.94835z" fill="#a68f79" stroke="#000000" stroke-width="2" stroke-linecap="butt"/><path d="M313.86641,229.8042l0.38869,-4.29382l14.04194,1.27107l-0.38868,4.29382z" fill="#a68f79" stroke="none" stroke-width="0" stroke-linecap="butt"/><path d="M304.21789,225.79543c0,0 1.41089,-17.55653 3.64263,-28.25608c2.5215,-12.08867 6.91194,-22.34329 16.04299,-21.78983c11.47969,0.69581 11.14142,15.47936 11.46987,29.03767c0.2508,10.35333 -0.51978,25.57281 -0.51978,25.57281" fill="#334865" stroke="#000000" stroke-width="2" stroke-linecap="round"/><path d="M316.81742,178.65562c2.26766,0.73767 -2.36887,16.2884 -6.11176,27.99735c-2.09535,-0.45888 -4.18567,-0.93718 -6.25547,-1.50331c-1.52402,-0.41683 -3.05903,-0.74292 -4.60318,-1.05575c0.49914,-1.31963 -0.08916,-1.75792 0.47803,-3.15794c4.36023,-10.76248 11.65209,-23.85493 16.49241,-22.28037z" fill="#334865" stroke="#000000" stroke-width="2" stroke-linecap="butt"/><path d="M306.7026,219.05674c-1.10617,4.15011 -3.77776,6.07949 -7.27306,5.14787c-3.49531,-0.93164 -4.4331,-5.07157 -3.32694,-9.22168c0.33986,-1.27513 1.67228,-5.4514 3.58721,-10.55027c1.55891,0.3153 3.1085,0.64272 4.64676,1.06347c2.06337,0.56437 4.14701,1.04177 6.23576,1.49956c-1.87741,5.86012 -3.50176,10.68052 -3.86973,12.06109z" fill="#ffffff" stroke="#000000" stroke-width="2" stroke-linecap="butt"/><path d="M319.1815,186.47988c-0.10179,1.12462 -1.88439,1.08863 -2.74455,2.47244c-2.12032,3.41111 -4.61288,8.28246 -6.11341,8.14662c-2.10926,-0.19092 0.86688,-7.41369 1.21961,-11.3105c0.35274,-3.89678 2.90161,-7.2425 5.01087,-7.05156c0.43485,0.03935 1.63273,-0.1682 1.96244,0.13739c1.2696,1.17675 0.94505,4.51216 0.66504,7.60559z" fill="#334865" stroke="none" stroke-width="0" stroke-linecap="butt"/><path d="M328.84299,180.42752c0.5913,-0.03458 1.5754,0.16168 2.64655,1.06359c1.5117,1.27284 4.00441,5.66928 4.09906,7.29687c0.16172,2.78085 1.45021,6.16373 0.0244,6.24714c-0.65412,0.03826 -0.49129,-2.72363 -1.40755,-4.42563c-0.50453,-0.93717 -1.80422,-1.86504 -2.28821,-2.74545c-0.5529,-1.00579 -1.75541,-1.02446 -1.80209,-1.82701c-0.16172,-2.78085 -2.69798,-5.5261 -1.27217,-5.6095z" data-paper-data="{&quot;index&quot;:null}" fill="#334865" stroke="none" stroke-width="0" stroke-linecap="butt"/><path d="M316.66827,230.38287l7.66249,1.02599" fill="none" stroke="#000000" stroke-width="2" stroke-linecap="round"/><path d="M331.47451,178.94106c-0.07103,0.78468 -0.574,1.78047 -1.4723,2.68795c-1.0257,1.03622 -2.62669,1.92033 -5.72884,1.60021c-2.79909,-0.28886 -3.03778,-1.22989 -3.75857,-2.4853c-0.56001,-0.97539 -1.89799,-2.22587 -1.83148,-2.96072c0.15213,-1.68063 3.13887,-2.78387 6.67104,-2.46415c3.53219,0.31974 6.27228,1.94136 6.12015,3.622z" fill="#ffffff" stroke="#000000" stroke-width="2" stroke-linecap="butt"/><path d="M347.14704,158.06981c-0.05658,1.87855 0.34565,4.49617 0.053,6.18568c-2.14254,12.3693 -11.14385,16.39703 -21.49337,16.10363c-11.99554,-0.34006 -21.8019,-9.28546 -21.38949,-22.9758c0.41241,-13.69036 10.60594,-24.17295 22.60147,-23.83288c11.99554,0.34006 20.64079,10.82903 20.22839,24.51938z" fill="#ffffff" stroke="#000000" stroke-width="2" stroke-linecap="butt"/><path d="M323.20369,160.69678c-0.23999,2.78923 -1.2959,4.97623 -2.35839,4.88481c-1.06249,-0.09142 -1.72927,-2.42664 -1.48926,-5.21589c0.23999,-2.78923 1.29589,-4.97623 2.35838,-4.88482c1.06249,0.09142 1.72929,2.42665 1.48928,5.2159z" fill="#000000" stroke="none" stroke-width="0" stroke-linecap="butt"/><path d="M337.24136,162.67272c-0.19787,2.29969 -1.06845,4.10284 -1.94448,4.02746c-0.87602,-0.07538 -1.42577,-2.00075 -1.22789,-4.30044c0.19787,-2.29969 1.06845,-4.10285 1.94447,-4.02747c0.87602,0.07538 1.42577,2.00075 1.2279,4.30044z" fill="#000000" stroke="none" stroke-width="0" stroke-linecap="butt"/><path d="M339.12757,171.34385l-27.22207,-4.11429" fill="none" stroke="#000000" stroke-width="2" stroke-linecap="round"/><path d="M311.52972,164.73851l-1.32047,3.76254" fill="none" stroke="#000000" stroke-width="2" stroke-linecap="round"/><path d="M310.01362,222.41414l4.01911,-9.28876" fill="none" stroke="#000000" stroke-width="2" stroke-linecap="round"/><path d="M330.93826,215.99942l1.02161,6.9199" fill="none" stroke="#000000" stroke-width="2" stroke-linecap="round"/><path d="M332.75231,180.87092c0,0 -1.66667,4.73544 -6.25552,4.84917c-4.12855,0.10234 -7.53447,-1.78498 -8.97858,-3.36429c-1.78732,-1.95465 -1.07936,-3.69701 -1.07936,-3.69701" fill="none" stroke="#000000" stroke-width="1.5" stroke-linecap="round"/><path d="M322.0989,192.94373l0.83495,-7.74671" fill="none" stroke="#000000" stroke-width="1.5" stroke-linecap="round"/><path d="M327.64812,185.5569l-0.78064,7.88533" fill="none" stroke="#000000" stroke-width="1.5" stroke-linecap="round"/><path d="M334.6172,229.34257l-29.80411,-4.21887" fill="none" stroke="#000000" stroke-width="2" stroke-linecap="round"/></g></g></svg>