<svg version="1.1" xmlns="http://www.w3.org/2000/svg" xmlns:xlink="http://www.w3.org/1999/xlink" width="67.65186" height="138.10039" viewBox="0,0,67.65186,138.10039"><defs><radialGradient cx="333.87504" cy="151.74268" r="26.05961" gradientUnits="userSpaceOnUse" id="color-1"><stop offset="0" stop-color="#afb0e0" stop-opacity="0"/><stop offset="1" stop-color="#afb0e0" stop-opacity="0.31373"/></radialGradient></defs><g transform="translate(-285.87159,-129.82971)"><g data-paper-data="{&quot;isPaintingLayer&quot;:true}" fill-rule="nonzero" stroke-linejoin="miter" stroke-miterlimit="10" stroke-dasharray="" stroke-dashoffset="0" style="mix-blend-mode: normal"><path d="M287.02024,247.82677c-0.59927,-0.23681 0.6451,-6.81099 3.15941,-11.51524c2.08229,-3.89596 5.41165,-6.11669 5.90795,-5.92056c0.10532,0.04162 1.11252,0.44723 2.74486,1.11504c-0.16582,1.77681 -0.09779,3.84929 -0.06763,5.11242c-0.23297,2.46628 -0.02068,5.1792 -1.05466,7.3962c-0.55662,1.1935 -1.15391,2.47423 -1.71659,3.68063c-0.20636,-0.08004 -0.31577,-0.12253 -0.31577,-0.12253c0,0 -1.85608,0.66522 -3.51917,0.81455c-2.27053,0.20388 -4.50599,-0.31066 -5.13839,-0.56056z" fill="#ffffff" stroke="#000000" stroke-width="2" stroke-linecap="butt"/><path d="M304.59621,231.5891c0.66518,0.93276 6.06991,16.59738 2.52552,19.81408c-6.80968,6.18012 -15.65736,-8.4655 -16.32254,-9.39827c-0.66518,-0.93276 1.88417,-4.02058 5.69411,-6.89683c3.80994,-2.87624 7.43774,-4.45174 8.10291,-3.51897z" fill="#a68f79" stroke="#000000" stroke-width="2" stroke-linecap="butt"/><path d="M302.85089,222.6829c4.71868,-11.58796 8.80883,-0.69679 14.55458,1.5801c0.29385,0.11643 -1.30607,14.66623 -5.65962,24.81721c-2.08047,4.85095 -8.15722,6.43599 -11.46958,2.91229c-2.58636,-2.7514 -2.93976,-10.15088 -1.98294,-11.47852c2.73648,-8.21952 2.77235,-13.44706 4.55757,-17.83112z" fill="#a68f79" stroke="#000000" stroke-width="2" stroke-linecap="butt"/><path d="M295.10091,240.8298c3.14471,-4.69062 7.35624,3.74701 9.60046,6.05536c0.93601,0.96275 1.91531,2.83106 1.16965,4.2301c-2.06176,3.86843 -5.19065,-0.52906 -7.29174,-1.74029c-0.76903,-0.44332 -4.74757,-3.94852 -4.34673,-5.45149c-0.0448,-0.23575 1.31702,2.02496 1.32445,1.77297c0.0046,-0.15625 0.01969,-0.30911 0.04446,-0.45769c-0.03084,-1.2831 -0.95505,-3.73106 -0.50057,-4.40895z" fill="#a68f79" stroke="none" stroke-width="0.5" stroke-linecap="butt"/><path d="M332.10361,181.81306c-0.54066,3.44729 -6.01834,5.45151 -12.23478,4.47655c-6.21643,-0.97495 -10.81754,-4.5599 -10.27687,-8.00719c0.54066,-3.44729 2.39484,-5.07621 8.61125,-4.10126c6.21643,0.97495 14.44105,4.18461 13.90039,7.63189z" fill="#334865" stroke="#000000" stroke-width="2" stroke-linecap="butt"/><path d="M340.38738,219.09148c-0.02603,4.05358 -2.85144,7.31589 -6.31076,7.28658c-3.45931,-0.02932 -6.24253,-3.33918 -6.2165,-7.39275c0.00742,-1.15808 -0.03122,-4.77521 -0.00965,-9.35543c1.87888,-0.53789 3.76944,-1.04511 5.67628,-1.37865c1.9939,-0.34874 3.8914,-1.0756 5.88278,-1.39376c0.08175,-0.01305 0.16676,-0.02008 0.25355,-0.02344c0.55593,5.91876 0.73317,10.87538 0.72431,12.25744z" data-paper-data="{&quot;index&quot;:null}" fill="#ffffff" stroke="#000000" stroke-width="2" stroke-linecap="butt"/><path d="M330.80423,180.59603c4.20411,-0.20616 7.59948,12.61318 8.93669,22.54015c0.32566,2.4176 -0.39771,1.7582 -0.18891,4.05839c-0.11661,-0.00169 -0.2164,0.00012 -0.2846,0.01153c-1.99561,0.33432 -3.89708,1.09008 -5.89474,1.45596c-1.88021,0.34436 -3.74498,0.86137 -5.59849,1.41176c0.09526,-11.82233 0.5945,-29.35836 3.03006,-29.47779z" data-paper-data="{&quot;index&quot;:null}" fill="#334865" stroke="#000000" stroke-width="2" stroke-linecap="butt"/><path d="M318.95775,227.37757c0.44327,-11.03082 6.76491,-6.7698 12.10441,-7.22979c0.46662,-0.0402 3.59686,26.80312 4.45427,35.28391c0.16106,1.59303 -0.20706,2.42315 -0.2001,2.43046c-2.85452,0.40012 -6.80083,0.02532 -9.47152,0.89827c-1.38122,0.45347 -4.05852,0.40951 -5.79799,0.79177c-0.08011,-0.93618 -0.40253,-1.13176 -0.4894,-2.19904c-0.72343,-8.88939 -0.89722,-22.57044 -0.59966,-29.9756z" fill="#a68f79" stroke="#000000" stroke-width="2" stroke-linecap="butt"/><path d="M338.02452,265.73016c0.08599,1.21496 -16.82651,1.71676 -16.91247,0.50179c-0.01294,-0.18296 -0.249,-2.61135 -0.56252,-6.25049c1.74816,-0.40376 4.1912,-0.37148 5.44009,-0.77802c2.74252,-0.89645 5.98279,-1.08705 8.89432,-1.51237c0.4483,0.50892 1.14066,1.35527 1.63663,2.24131c1.0813,1.93173 1.45431,5.09648 1.50393,5.79777z" fill="#ffffff" stroke="#000000" stroke-width="2" stroke-linecap="butt"/><path d="M310.94943,228.93833l0.66802,-4.2593l13.92908,2.18457l-0.66801,4.2593z" fill="#a68f79" stroke="none" stroke-width="0" stroke-linecap="butt"/><path d="M301.58303,224.30855c0,0 2.55342,-17.42705 5.47854,-27.95819c3.30489,-11.89838 8.35507,-21.84469 17.43054,-20.69663c11.40982,1.44336 10.10768,16.17334 9.55077,29.72419c-0.42528,10.34763 -2.18726,25.48441 -2.18726,25.48441" fill="#334865" stroke="#000000" stroke-width="2" stroke-linecap="round"/><path d="M318.0178,179.07067c2.13419,1.06381 -4.74348,15.76144 -10.17108,26.79094c-2.00485,-0.76267 -4.00186,-1.54381 -5.96561,-2.40879c-1.44595,-0.63688 -2.91614,-1.18562 -4.39732,-1.7226c0.68817,-1.23166 0.17087,-1.75186 0.9382,-3.05301c5.89872,-10.00238 15.04044,-21.87726 19.59586,-19.60656z" fill="#334865" stroke="#000000" stroke-width="2" stroke-linecap="butt"/><path d="M302.05939,217.54c-1.70571,3.94177 -4.63246,5.45637 -7.9523,4.01982c-3.31984,-1.43659 -3.63728,-5.66952 -1.93158,-9.61129c0.52407,-1.21112 2.45742,-5.14543 5.10286,-9.90642c1.49542,0.5416 2.97984,1.09381 4.4393,1.73667c1.95767,0.86229 3.9482,1.64156 5.94667,2.40217c-2.72054,5.51945 -5.03754,10.04783 -5.60495,11.35911z" fill="#ffffff" stroke="#000000" stroke-width="2" stroke-linecap="butt"/><path d="M319.08002,186.05313c-0.17495,1.11558 -1.95141,0.96336 -2.90003,2.28809c-2.33838,3.2655 -5.14347,7.96382 -6.63194,7.73037c-2.09231,-0.32813 1.34876,-7.34132 1.955,-11.20681c0.60625,-3.86546 3.36799,-7.03775 5.46029,-6.70959c0.43136,0.06764 1.64023,-0.06131 1.94929,0.26515c1.19011,1.25708 0.64863,4.5642 0.16738,7.63277z" fill="#334865" stroke="none" stroke-width="0" stroke-linecap="butt"/><path d="M329.11583,180.64407c0.5923,0.00408 1.56149,0.26413 2.57151,1.23401c1.42543,1.36877 3.62596,5.91847 3.61422,7.54877c-0.02007,2.78547 1.04495,6.24522 -0.38327,6.23541c-0.65522,-0.0045 -0.31253,-2.74988 -1.11579,-4.50803c-0.4423,-0.9681 -1.67868,-1.97879 -2.1042,-2.88891c-0.4861,-1.03972 -1.68482,-1.13682 -1.67903,-1.94069c0.02007,-2.78547 -2.33167,-5.69036 -0.90345,-5.68055z" data-paper-data="{&quot;index&quot;:null}" fill="#334865" stroke="none" stroke-width="0" stroke-linecap="butt"/><path d="M313.70756,229.69858l7.57921,1.52376" fill="none" stroke="#000000" stroke-width="2" stroke-linecap="round"/><path d="M331.83872,179.33248c-0.12208,0.77837 -0.68894,1.73923 -1.64454,2.58616c-1.09112,0.96708 -2.74639,1.74486 -5.82104,1.223c-2.77428,-0.47089 -2.95105,-1.42548 -3.5884,-2.72525c-0.49517,-1.00985 -1.74872,-2.34496 -1.6344,-3.0739c0.26147,-1.66712 3.31382,-2.57313 6.8176,-2.02363c3.5038,0.54952 6.13224,2.34647 5.87078,4.0136z" fill="#ffffff" stroke="#000000" stroke-width="2" stroke-linecap="butt"/><path d="M348.83968,159.5283c-0.17903,1.87086 0.05154,4.50914 -0.35072,6.17596c-2.94505,12.20315 -12.18998,15.63497 -22.4983,14.66691c-11.9478,-1.12203 -21.14958,-10.68821 -19.84479,-24.32247c1.30481,-13.63428 12.16058,-23.42941 24.10837,-22.30738c11.9478,1.12203 19.89023,12.15272 18.58544,25.787z" fill="#ffffff" stroke="#000000" stroke-width="2" stroke-linecap="butt"/><path d="M324.77594,160.58741c-0.42147,2.76763 -1.61783,4.88107 -2.67209,4.72052c-1.05426,-0.16055 -1.56725,-2.53429 -1.14576,-5.30194c0.42147,-2.76763 1.61783,-4.88108 2.67209,-4.72054c1.05426,0.16055 1.56726,2.53431 1.14577,5.30196z" fill="#000000" stroke="none" stroke-width="0" stroke-linecap="butt"/><path d="M338.65477,163.47508c-0.34749,2.28188 -1.33388,4.02438 -2.20313,3.892c-0.86923,-0.13238 -1.29218,-2.08951 -0.94468,-4.37139c0.34749,-2.28188 1.33387,-4.02439 2.20311,-3.89201c0.86923,0.13238 1.29219,2.08952 0.9447,4.3714z" fill="#000000" stroke="none" stroke-width="0" stroke-linecap="butt"/><path d="M339.97118,172.25079l-26.89561,-5.88171" fill="none" stroke="#000000" stroke-width="2" stroke-linecap="round"/><path d="M312.86313,163.85883l-1.56316,3.66836" fill="none" stroke="#000000" stroke-width="2" stroke-linecap="round"/><path d="M307.58704,221.31263l4.61661,-9.00672" fill="none" stroke="#000000" stroke-width="2" stroke-linecap="round"/><path d="M329.45355,223.24869l-0.56792,-6.97181" fill="none" stroke="#000000" stroke-width="2" stroke-linecap="round"/><path d="M332.98789,181.3416c0,0 -1.9721,4.6166 -6.55858,4.43067c-4.12643,-0.16726 -7.40194,-2.27279 -8.73994,-3.94297c-1.65597,-2.0671 -0.83583,-3.75955 -0.83583,-3.75955" fill="none" stroke="#000000" stroke-width="1.5" stroke-linecap="round"/><path d="M321.56945,192.69357l1.33863,-7.67572" fill="none" stroke="#000000" stroke-width="1.5" stroke-linecap="round"/><path d="M327.58882,185.68454l-1.29349,7.8176" fill="none" stroke="#000000" stroke-width="1.5" stroke-linecap="round"/><path d="M331.68611,229.83164l-29.46533,-6.15454" fill="none" stroke="#000000" stroke-width="2" stroke-linecap="round"/><g stroke-linecap="butt"><path d="M352.52345,160.67685c-1.17162,9.08378 -6.74352,16.19472 -14.22177,19.67767c-0.77711,0.36193 0.23333,-0.1542 1.38469,0.5592c1.82747,1.13234 1.73076,2.17851 -1.87207,2.41988c-3.88506,0.26029 -9.89587,-0.0389 -15.71078,-0.91101c-3.84801,-0.57711 -8.36865,-1.77151 -9.40858,-1.90564c-2.42568,-0.31286 -4.67572,-2.25153 -2.70396,-3.18842c1.45904,-0.69327 1.28869,-0.58378 0.76683,-1.06247c-5.81484,-5.33392 -8.94198,-13.43918 -7.80969,-22.21803c1.8329,-14.21069 14.13284,-24.80514 27.9554,-23.02231c13.82256,1.78283 23.45283,15.44045 21.61994,29.65116z" fill="url(#color-1)" stroke="#111111" stroke-width="2"/><path d="M346.06946,145.69947c0.24057,2.63199 -1.93151,3.73518 -4.22722,2.38031c-0.42174,-0.2489 -1.41541,-2.65413 -1.89037,-3.07568c-1.38,-1.22481 -3.86914,-1.4144 -4.57215,-3.12038c-0.67516,-0.52557 -1.06283,-1.38432 -0.94545,-2.29434c0.17662,-1.36937 1.42989,-2.33629 2.79926,-2.15966c0.51903,0.06695 0.98025,0.28857 1.34329,0.61257c3.42611,0.57469 7.18615,4.3043 7.49262,7.65718z" fill="#ffffff" stroke="none" stroke-width="0.5"/></g></g></g></svg>