<svg version="1.1" xmlns="http://www.w3.org/2000/svg" xmlns:xlink="http://www.w3.org/1999/xlink" width="90.33936" height="43.44005" viewBox="0,0,90.33936,43.44005"><g transform="translate(-495.28477,-295.56784)"><g data-paper-data="{&quot;isPaintingLayer&quot;:true}" fill-rule="nonzero" stroke="none" stroke-linecap="butt" stroke-linejoin="miter" stroke-miterlimit="10" stroke-dasharray="" stroke-dashoffset="0" style="mix-blend-mode: normal"><path d="M498.00844,339.00789c-1.50425,0 -2.72368,-1.21943 -2.72368,-2.72368v-35.83982c0,-1.50425 1.21943,-2.72368 2.72368,-2.72368h84.892c1.50425,0 2.72368,1.21943 2.72368,2.72368v35.83982c0,1.50425 -1.21943,2.72368 -2.72368,2.72368z" data-paper-data="{&quot;index&quot;:null}" fill="#ff9292" stroke-width="0"/><path d="M500.2464,318.69542c0.14014,-8.61183 18.04353,-15.59011 39.98832,-15.58643c21.94479,0.00368 39.62097,6.98794 39.48083,15.59977c-0.14014,8.61183 -18.04353,15.59011 -39.98832,15.58643c-21.94479,-0.00368 -39.62097,-6.98794 -39.48083,-15.59977z" data-paper-data="{&quot;index&quot;:null}" fill="#ff5757" stroke-width="0"/><text transform="translate(509.21415,329.8902) scale(0.87632,0.87632)" font-size="40" xml:space="preserve" fill="#ffffff" fill-rule="nonzero" stroke="none" stroke-width="1" stroke-linecap="butt" stroke-linejoin="miter" stroke-miterlimit="10" stroke-dasharray="" stroke-dashoffset="0" font-family="Playful" font-weight="normal" text-anchor="start" style="mix-blend-mode: normal"><tspan x="0" dy="0">Exit</tspan></text></g></g></svg>