<svg version="1.1" xmlns="http://www.w3.org/2000/svg" xmlns:xlink="http://www.w3.org/1999/xlink" width="65.58303" height="135.70273" viewBox="0,0,65.58303,135.70273"><g transform="translate(-309.79857,-131.07437)"><g data-paper-data="{&quot;isPaintingLayer&quot;:true}" fill-rule="nonzero" stroke-linejoin="miter" stroke-miterlimit="10" stroke-dasharray="" stroke-dashoffset="0" style="mix-blend-mode: normal"><path d="M342.63306,264.40972c0.10382,1.21356 -16.79947,1.9638 -16.90328,0.75023c-0.01563,-0.18275 -0.28734,-2.60741 -0.65429,-6.24155c1.74203,-0.4294 4.1853,-0.43302 5.42806,-0.85787c2.72906,-0.93664 5.96617,-1.17484 8.87115,-1.64288c0.45574,0.50228 1.16047,1.33836 1.66939,2.21701c1.10956,1.91563 1.52904,5.07456 1.58896,5.77504z" fill="#ffffff" stroke="#000000" stroke-width="2" stroke-linecap="butt"/><path d="M339.5824,180.15065c0.37698,3.46901 -4.38859,6.83226 -10.64419,7.51204c-6.25559,0.67978 -11.63234,-1.58134 -12.0093,-5.05035c-0.37698,-3.46901 0.98832,-5.52508 7.2439,-6.20485c6.25559,-0.67978 15.03262,0.27416 15.40958,3.74317z" fill="#334865" stroke="#000000" stroke-width="2" stroke-linecap="butt"/><path d="M331.5164,226.27993c3.09918,-10.59579 8.20194,-4.93174 13.49409,-4.08608c0.46249,0.0739 -2.99551,26.87696 -4.21564,35.31319c-0.22919,1.58467 -0.78723,2.30104 -0.78226,2.30982c-2.86653,-0.30248 -6.60486,-1.62103 -9.40741,-1.42021c-1.4499,0.10578 -4.037,-0.5847 -5.81728,-0.63466c0.1488,-0.92775 -0.11673,-1.19554 0.05725,-2.25211c1.449,-8.80029 4.59075,-22.11687 6.67127,-29.22997z" fill="#a68f79" stroke="#000000" stroke-width="2" stroke-linecap="butt"/><path d="M331.88034,235.88156c-6.00386,-2.18032 -8.56253,-7.64193 -7.70284,-10.75255c0.6263,-2.26615 4.00539,-2.03318 4.58025,-4.51882c0.12911,-0.55826 30.37744,6.06708 35.70691,7.23897c-0.28536,1.37744 -0.03933,1.91297 -0.32469,3.2904c-0.53018,2.55919 0.14734,5.6026 0.49816,8.27901c0.41424,1.70142 0.95687,4.62802 1.13839,6.33222c-0.86785,-0.20892 -2.27981,-0.18446 -3.38249,-0.46273c-9.31728,-2.3513 -25.64087,-7.21413 -33.51371,-10.07318z" fill="#a68f79" stroke="#000000" stroke-width="2" stroke-linecap="butt"/><path d="M373.80466,226.32019c1.18854,0.26967 -3.79086,19.97402 -4.97941,19.70433c-0.11425,-0.02593 -1.20866,-0.28176 -2.98473,-0.70734c-0.24584,-1.88193 -0.79238,-4.03356 -1.11422,-5.34683c-0.33844,-2.61267 -1.17628,-5.40868 -0.66132,-7.89437c0.27721,-1.33813 0.57468,-2.77407 0.85493,-4.12667c0.22353,0.0492 0.34204,0.07538 0.34204,0.07538c0,0 1.69029,-1.00287 3.30811,-1.43523c2.20868,-0.5903 4.54856,-0.42495 5.2346,-0.26929z" fill="#ffffff" stroke="#000000" stroke-width="2" stroke-linecap="butt"/><path d="M331.65099,228.51632l-0.46576,-4.28614l14.01684,-1.52317l0.46576,4.28614z" fill="#a68f79" stroke="none" stroke-width="0" stroke-linecap="butt"/><path d="M324.1975,226.04222c0,0 -1.95227,-17.48516 -2.05209,-28.38939c-0.11279,-12.31993 1.58035,-23.17801 8.93172,-24.28663c9.24227,-1.39378 11.56133,13.17596 14.19562,26.42264c2.01157,10.11536 4.06346,25.19113 4.06346,25.19113" fill="#334865" stroke="#000000" stroke-width="2" stroke-linecap="round"/><path d="M335.3671,212.53931l-2.10829,9.89896" fill="none" stroke="#000000" stroke-width="2" stroke-linecap="round"/><path d="M337.01545,183.31242l0.70922,7.75922" fill="none" stroke="#000000" stroke-width="1.5" stroke-linecap="round"/><path d="M341.12451,180.20401l0.7898,7.88441" fill="none" stroke="#000000" stroke-width="1.5" stroke-linecap="round"/><path d="M321.85447,225.82004l26.55405,-1.53913" fill="none" stroke="#000000" stroke-width="2" stroke-linecap="round"/><path d="M327.40001,178.19388c2.33676,0.47544 -0.5042,16.45204 -2.89347,28.51024c-2.1339,-0.21801 -4.265,-0.4559 -6.3857,-0.78335c-1.56149,-0.24111 -3.1236,-0.3908 -4.69329,-0.52629c0.34609,-1.36777 -0.28818,-1.73643 0.1164,-3.19179c3.11007,-11.18795 8.86829,-25.02363 13.85609,-24.00882z" fill="#334865" stroke="#000000" stroke-width="2" stroke-linecap="butt"/><path d="M321.93769,219.48217c-0.62782,4.24886 -3.06308,6.46909 -6.64156,5.94034c-3.57848,-0.52875 -4.98027,-4.53546 -4.35245,-8.78432c0.19289,-1.30547 1.04251,-5.60602 2.36614,-10.88934c1.58462,0.13627 3.16138,0.28565 4.73746,0.529c2.1141,0.32644 4.23848,0.56419 6.36569,0.78186c-1.19992,6.03537 -2.26645,11.00904 -2.4753,12.42246z" fill="#ffffff" stroke="#000000" stroke-width="2" stroke-linecap="butt"/><path d="M332.34058,185.60458c0.24605,1.10208 -1.46258,1.61149 -1.85973,3.19169c-0.97894,3.89526 -1.86703,9.29472 -3.33749,9.62302c-2.06701,0.46148 -1.43553,-7.32487 -2.28807,-11.14359c-0.85255,-3.81871 0.55448,-7.78239 2.62148,-8.24387c0.24936,-0.05568 0.72179,-0.27157 1.15243,-0.40294c0.51147,2.17324 1.71929,4.04495 3.35387,5.39841c0.12295,0.52347 0.2407,1.05399 0.35753,1.57725z" fill="#334865" stroke="none" stroke-width="0" stroke-linecap="butt"/><path d="M341.52198,179.45778c0,0 -0.57587,4.96873 -4.35068,5.97171c-3.39617,0.90237 -6.53188,-0.28724 -7.99339,-1.55586c-1.80886,-1.57011 -1.51866,-3.4167 -1.51866,-3.4167" fill="none" stroke="#000000" stroke-width="1.5" stroke-linecap="round"/><path d="M340.46115,177.8068c0.07653,0.78343 -0.18125,1.85811 -0.79436,2.92323c-0.70006,1.21622 -1.92134,2.39535 -4.64427,2.68595c-2.45691,0.26221 -2.82709,-0.61422 -3.66687,-1.70502c-0.65245,-0.8475 -2.02191,-1.81319 -2.09358,-2.54688c-0.16391,-1.67798 2.21022,-3.34211 5.30275,-3.71691c3.09254,-0.3748 5.73242,0.68165 5.89632,2.35963z" fill="#ffffff" stroke="#000000" stroke-width="2" stroke-linecap="butt"/><path d="M355.59004,154.05366c0.164,1.87225 0.87029,4.42465 0.77769,6.13682c-0.67792,12.53518 -9.14507,17.59022 -19.45764,18.51195c-11.9527,1.06833 -22.74001,-6.66596 -23.93514,-20.31025c-1.19515,-13.64432 7.69942,-25.24949 19.65212,-26.31781c11.9527,-1.06833 21.76782,8.33498 22.96297,21.97929z" fill="#ffffff" stroke="#000000" stroke-width="2" stroke-linecap="butt"/><path d="M336.55092,159.04355c0.0886,2.79813 -0.70368,5.09383 -1.76957,5.12757c-1.06589,0.03375 -2.00178,-2.20723 -2.09037,-5.00537c-0.0886,-2.79813 0.70367,-5.09383 1.76955,-5.12758c1.06589,-0.03375 2.0018,2.20723 2.09039,5.00537z" fill="#000000" stroke="none" stroke-width="0" stroke-linecap="butt"/><path d="M350.67887,158.61601c0.07305,2.30703 -0.58018,4.19981 -1.459,4.22763c-0.87882,0.02783 -1.65047,-1.81984 -1.72351,-4.12687c-0.07305,-2.30703 0.58018,-4.19982 1.459,-4.22764c0.87882,-0.02783 1.65047,1.81984 1.72351,4.12688z" fill="#000000" stroke="none" stroke-width="0" stroke-linecap="butt"/><path d="M323.09881,166.95814l27.51667,0.89511" fill="none" stroke="#000000" stroke-width="2" stroke-linecap="round"/><path d="M321.82777,168.65429l0.87034,-3.89138" fill="none" stroke="#000000" stroke-width="2" stroke-linecap="round"/></g></g></svg>