<svg version="1.1" xmlns="http://www.w3.org/2000/svg" xmlns:xlink="http://www.w3.org/1999/xlink" width="48.70326" height="137.97636" viewBox="0,0,48.70326,137.97636"><g transform="translate(-296.4131,-129.8779)"><g data-paper-data="{&quot;isPaintingLayer&quot;:true}" fill-rule="nonzero" stroke-linejoin="miter" stroke-miterlimit="10" stroke-dasharray="" stroke-dashoffset="0" style="mix-blend-mode: normal"><path d="M343.82564,266.32481c-0.02943,1.21763 -16.91346,0.1161 -16.88404,-1.10153c0.00443,-0.18336 -0.00067,-2.6232 0.03174,-6.27566c1.77852,-0.23645 4.20755,0.02697 5.48931,-0.25953c2.81509,-0.63279 6.05884,-0.5158 8.99755,-0.66356c0.39811,0.54907 1.00725,1.45716 1.41711,2.38618c0.89356,2.02541 0.9653,5.21128 0.94832,5.9141z" fill="#ffffff" stroke="#000000" stroke-width="2" stroke-linecap="butt"/><path d="M320.22598,225.86339c-0.69806,-11.01883 7.38518,-4.84601 13.33586,-5.95548c0.56328,-0.10503 8.03489,32.84475 9.09313,38.19792c-1.37656,0.28956 -9.66284,0.81832 -11.97537,2.21062c-1.39358,1.06037 -3.85866,2.72854 -5.34789,3.57673c-0.15573,-0.87896 -0.74307,-2.1632 -0.92922,-3.28511c-1.57279,-9.4798 -3.64695,-26.38556 -4.17652,-34.7447z" fill="#a68f79" stroke="#000000" stroke-width="2" stroke-linecap="butt"/><path d="M309.14673,221.96477c3.87521,-10.33725 6.64723,-4.31582 11.86223,-3.08066c0.30083,0.07125 3.8522,12.53035 1.74807,22.77385c-1.08359,5.27521 -9.77826,14.15054 -9.77394,14.15967c-2.83626,-0.51388 -4.04294,-2.31862 -6.85268,-2.32587c-1.45375,-0.00185 -5.23326,-5.72306 -7.00496,-5.90472c0.21709,-0.91418 8.26708,-8.26804 8.38461,-9.29915c0.66198,-5.80799 -1.09127,-11.16752 0.36851,-15.06152z" fill="#a68f79" stroke="#000000" stroke-width="2" stroke-linecap="butt"/><path d="M311.23864,264.51899c-0.6769,1.01257 -14.34613,-8.95919 -13.66923,-9.97177c0.10193,-0.15248 1.40417,-2.21573 3.38745,-5.283c1.62864,0.75272 3.53897,2.27594 4.77487,2.72037c2.71629,0.97308 5.39309,2.80893 7.95406,4.25784c0.04218,0.6769 0.07033,1.77001 -0.08102,2.77407c-0.32997,2.18904 -1.97544,4.91801 -2.36615,5.50248z" fill="#ffffff" stroke="#000000" stroke-width="2" stroke-linecap="butt"/><path d="M329.48205,179.11965c0,3.48943 -5.101,6.31817 -11.39342,6.31817c-6.29242,0 -11.39342,-2.82874 -11.39342,-6.31817c0,-3.48943 1.57941,-5.38598 7.87182,-5.38598c6.29242,0 14.91502,1.89655 14.91502,5.38598z" fill="#334865" stroke="#000000" stroke-width="2" stroke-linecap="butt"/><path d="M341.90096,215.33381c0.31667,4.04128 -2.22292,7.53072 -5.67233,7.79388c-3.44941,0.26316 -6.50242,-2.79962 -6.81907,-6.8409c-0.09047,-1.15457 -0.4347,-4.75549 -0.80031,-9.32114c1.8267,-0.69476 3.66763,-1.35997 5.53945,-1.85346c1.95729,-0.51602 3.78657,-1.40066 5.74394,-1.88598c0.08036,-0.01993 0.16447,-0.0341 0.25065,-0.04479c1.05417,5.85057 1.64972,10.7745 1.75768,12.15238z" data-paper-data="{&quot;index&quot;:null}" fill="#ffffff" stroke="#000000" stroke-width="2" stroke-linecap="butt"/><path d="M329.09855,177.78605c4.17164,-0.56075 8.63834,11.92574 10.80975,21.70418c0.52882,2.38143 -0.24769,1.78553 0.15478,4.05984c-0.11633,0.00817 -0.21562,0.0184 -0.28262,0.03555c-1.96022,0.5018 -3.79101,1.41555 -5.75059,1.94896c-1.84438,0.50204 -3.65877,1.1748 -5.45913,1.87988c-0.90428,-11.78807 -1.88894,-29.30355 0.52781,-29.62841z" data-paper-data="{&quot;index&quot;:null}" fill="#334865" stroke="#000000" stroke-width="2" stroke-linecap="butt"/><path d="M316.78057,227.98003l0.3815,-4.29446l14.04405,1.2476l-0.3815,4.29446z" fill="#a68f79" stroke="none" stroke-width="0" stroke-linecap="butt"/><path d="M306.66397,225.80639c0,0 -0.17759,-17.61223 1.08049,-28.46941c1.42141,-12.26677 4.86953,-22.87543 14.01328,-23.14741c11.49567,-0.34194 12.49154,14.41192 14.04095,27.88541c1.18315,10.28856 1.78775,25.51554 1.78775,25.51554" fill="#334865" stroke="#000000" stroke-width="2" stroke-linecap="round"/><path d="M314.96249,177.72268c2.32493,0.53024 -0.89081,16.43564 -3.56289,28.43434c-2.12818,-0.26812 -4.25311,-0.55603 -6.36552,-0.93324c-1.55539,-0.27775 -3.11355,-0.46412 -4.67962,-0.63646c0.37815,-1.35925 -0.24728,-1.74273 0.1914,-3.18818c3.37222,-11.11174 9.4541,-24.80824 14.41665,-23.67646z" fill="#334865" stroke="#000000" stroke-width="2" stroke-linecap="butt"/><path d="M308.53106,218.87115c-0.72753,4.23293 -3.21431,6.3953 -6.77937,5.78257c-3.56507,-0.61273 -4.87227,-4.65128 -4.14475,-8.88421c0.22353,-1.30057 1.17401,-5.57997 2.62148,-10.8307c1.58098,0.17348 3.15379,0.35988 4.72372,0.64022c2.10584,0.37605 4.22404,0.66368 6.34555,0.93129c-1.34147,6.00551 -2.52462,10.95272 -2.76664,12.36084z" fill="#ffffff" stroke="#000000" stroke-width="2" stroke-linecap="butt"/><path d="M318.02229,185.30195c0,1.12921 -1.77857,1.25408 -2.51048,2.70979c-1.80417,3.58837 -3.84742,8.66459 -5.35409,8.66459c-2.11789,0 0.195,-7.46166 0.195,-11.37439c0,-3.91272 2.23687,-7.47459 4.35476,-7.47459c0.43662,0 1.61092,-0.31471 1.96684,-0.04008c1.37052,1.05751 1.34798,4.40859 1.34798,7.51467z" fill="#334865" stroke="none" stroke-width="0" stroke-linecap="butt"/><path d="M327.09883,178.40324c0.58578,-0.08775 1.58355,0.019 2.73165,0.82067c1.62029,1.13137 4.4992,5.28519 4.74019,6.89762c0.41175,2.75494 1.99996,6.00788 0.58749,6.21949c-0.64801,0.09708 -0.73482,-2.66826 -1.80079,-4.28071c-0.58697,-0.88788 -1.96501,-1.69479 -2.52639,-2.52797c-0.64132,-0.95184 -1.84062,-0.86204 -1.95945,-1.65712c-0.41175,-2.75494 -3.18517,-5.26036 -1.7727,-5.47197z" data-paper-data="{&quot;index&quot;:null}" fill="#334865" stroke="none" stroke-width="0" stroke-linecap="butt"/><path d="M327.24758,229.5672l-7.66418,-1.01317" fill="none" stroke="#000000" stroke-width="2" stroke-linecap="round"/><path d="M329.58562,176.6856c0,0.78788 -0.41115,1.82496 -1.22398,2.80974c-0.92811,1.12448 -2.44288,2.14932 -5.56126,2.11015c-2.81373,-0.03534 -3.13628,-0.95102 -3.96732,-2.13634c-0.64567,-0.92093 -2.09093,-2.0457 -2.09093,-2.78355c0,-1.68751 2.87511,-3.05551 6.42174,-3.05551c3.54663,0 6.42175,1.368 6.42175,3.05551z" fill="#ffffff" stroke="#000000" stroke-width="2" stroke-linecap="butt"/><path d="M343.53326,153.57285c0.10467,1.8765 0.72983,4.44998 0.5831,6.15837c-1.07425,12.50745 -9.69713,17.29201 -20.0337,17.88694c-11.98052,0.68955 -22.51767,-7.38223 -23.28044,-21.05752c-0.76277,-13.67531 8.49458,-24.99319 20.4751,-25.68274c11.98052,-0.68955 21.49316,9.01964 22.25594,22.69495z" fill="#ffffff" stroke="#000000" stroke-width="2" stroke-linecap="butt"/><path d="M321.84593,156.18297c0,2.79954 -0.86452,5.06901 -1.93095,5.06901c-1.06642,0 -1.93093,-2.26947 -1.93093,-5.06901c0,-2.79954 0.86451,-5.06901 1.93093,-5.06901c1.06642,0 1.93095,2.26947 1.93095,5.06901z" fill="#000000" stroke="none" stroke-width="0" stroke-linecap="butt"/><path d="M335.98033,156.20272c0,2.30819 -0.71279,4.17934 -1.59205,4.17934c-0.87926,0 -1.59205,-1.87116 -1.59205,-4.17934c0,-2.30819 0.71279,-4.17935 1.59205,-4.17935c0.87926,0 1.59205,1.87116 1.59205,4.17935z" fill="#000000" stroke="none" stroke-width="0" stroke-linecap="butt"/><path d="M310.14994,163.69269l27.47456,1.76543" fill="none" stroke="#000000" stroke-width="2" stroke-linecap="round"/><path d="M309.81892,161.48588l-0.99305,3.86189" fill="none" stroke="#000000" stroke-width="2" stroke-linecap="round"/><path d="M315.29661,212.30311l-3.16535,9.61327" fill="none" stroke="#000000" stroke-width="2" stroke-linecap="round"/><path d="M332.39242,213.6414l1.64128,6.79962" fill="none" stroke="#000000" stroke-width="2" stroke-linecap="round"/><path d="M331.0322,178.4924c0,0 -1.23297,4.86641 -5.79289,5.39337c-4.10253,0.47411 -7.66472,-1.09846 -9.24532,-2.54116c-1.95625,-1.78556 -1.40826,-3.58465 -1.40826,-3.58465" fill="none" stroke="#000000" stroke-width="1.5" stroke-linecap="round"/><path d="M321.51056,191.47647l0.13317,-7.79043" fill="none" stroke="#000000" stroke-width="1.5" stroke-linecap="round"/><path d="M326.37124,183.61945l-0.06658,7.9236" fill="none" stroke="#000000" stroke-width="1.5" stroke-linecap="round"/><path d="M307.19618,225.08374l30.06309,1.51481" fill="none" stroke="#000000" stroke-width="2" stroke-linecap="round"/></g></g></svg>