<svg version="1.1" xmlns="http://www.w3.org/2000/svg" xmlns:xlink="http://www.w3.org/1999/xlink" width="262.77126" height="190.5913" viewBox="0,0,262.77126,190.5913"><g transform="translate(-294.6131,-131.8779)"><g data-paper-data="{&quot;isPaintingLayer&quot;:true}" fill-rule="nonzero" stroke-linejoin="miter" stroke-miterlimit="10" stroke-dasharray="" stroke-dashoffset="0" style="mix-blend-mode: normal"><path d="M332.0125,227.38482c0.17713,0.13809 12.90572,10.29163 8.95676,17.11409c-3.71369,6.41601 -4.88225,8.25383 -6.95195,11.67668c-0.80218,1.32663 -1.67368,-0.41444 -1.67309,-0.40436c-2.19091,-1.5208 -8.68802,1.66404 -11.02355,0.62412c-1.20902,-0.53629 -1.16652,-1.85609 -2.58094,-2.67648c0.48141,-0.77031 0.37191,-1.12702 0.9238,-2.00233c1.66033,-2.63336 3.72818,-5.70092 5.90213,-8.80448c3.84473,-5.48879 -9.08671,-6.81358 -6.24544,-10.3249c0,0 8.75938,-8.26858 12.69228,-5.20233z" fill="#a68f79" stroke="#000000" stroke-width="2" stroke-linecap="butt"/><path d="M319.07202,227.12959c0.1228,0.18805 6.67255,11.15169 0.92868,20.04091c-5.59277,4.86596 -8.8478,8.59168 -11.91518,11.15892c-1.18886,0.99501 -2.00839,1.13894 -2.0111,1.14867c-1.57972,-2.14882 -3.02957,-5.62137 -4.90196,-7.36214c-0.96993,-0.89921 -2.11992,-3.14136 -3.19208,-4.3759c0.70509,-0.57269 0.71712,-0.94563 1.52292,-1.59482c2.42423,-1.95305 2.22568,-2.14947 5.2882,-4.38087c5.4162,-3.94632 -3.23874,-11.42625 0.58725,-13.82711c0,0 10.96654,-4.98312 13.69328,-0.80767z" fill="#a68f79" stroke="#000000" stroke-width="2" stroke-linecap="butt"/><path d="M327.68205,181.11965c0,3.48943 -5.101,6.31817 -11.39342,6.31817c-6.29242,0 -11.39342,-2.82874 -11.39342,-6.31817c0,-3.48943 1.57941,-5.38598 7.87182,-5.38598c6.29242,0 14.91502,1.89655 14.91502,5.38598z" fill="#334865" stroke="#000000" stroke-width="2" stroke-linecap="butt"/><path d="M340.10096,217.33381c0.31667,4.04128 -2.22292,7.53072 -5.67233,7.79388c-3.44941,0.26316 -6.50242,-2.79962 -6.81907,-6.8409c-0.09047,-1.15457 -0.4347,-4.75549 -0.80031,-9.32114c1.8267,-0.69476 3.66763,-1.35997 5.53945,-1.85346c1.95729,-0.51602 3.78657,-1.40066 5.74394,-1.88598c0.08036,-0.01993 0.16447,-0.0341 0.25065,-0.04479c1.05417,5.85057 1.64972,10.7745 1.75768,12.15238z" data-paper-data="{&quot;index&quot;:null}" fill="#ffffff" stroke="#000000" stroke-width="2" stroke-linecap="butt"/><path d="M327.29855,179.78605c4.17164,-0.56075 8.63834,11.92574 10.80975,21.70418c0.52882,2.38143 -0.24769,1.78553 0.15478,4.05984c-0.11633,0.00817 -0.21562,0.0184 -0.28262,0.03555c-1.96022,0.5018 -3.79101,1.41555 -5.75059,1.94896c-1.84438,0.50204 -3.65877,1.1748 -5.45913,1.87988c-0.90428,-11.78807 -1.88894,-29.30355 0.52781,-29.62841z" data-paper-data="{&quot;index&quot;:null}" fill="#334865" stroke="#000000" stroke-width="2" stroke-linecap="butt"/><path d="M337.2326,260.30999c0.09305,1.21443 -16.81621,1.81482 -16.90927,0.60039c-0.01401,-0.18288 -0.26422,-2.60985 -0.59894,-6.2471c1.74577,-0.41395 4.18897,-0.39591 5.43546,-0.80973c2.73726,-0.91242 5.97636,-1.12192 8.88536,-1.56419c0.45126,0.5063 1.14855,1.34859 1.64968,2.23172c1.09254,1.92539 1.484,5.08792 1.53771,5.7889z" fill="#ffffff" stroke="#000000" stroke-width="2" stroke-linecap="butt"/><path d="M317.49128,259.6574c-0.02296,1.21853 -20.32772,0.3399 -20.30476,-0.87862c0.00221,-0.11714 0.03073,-1.24067 0.08714,-3.06615c1.79293,-0.6225 3.78894,-1.59415 5.00962,-2.17572c2.48969,-0.86142 5.05759,-2.24903 7.59605,-2.24903c1.36654,0 2.83296,0 4.21431,0c-0.00285,0.22885 -0.00443,0.35022 -0.00443,0.35022c0,0 1.32491,1.45171 2.07648,2.94818c1.02607,2.04302 1.33884,4.36778 1.32559,5.07113z" fill="#ffffff" stroke="#000000" stroke-width="2" stroke-linecap="butt"/><path d="M314.83459,230.92902v-4.31137h14.09936v4.31137z" fill="#a68f79" stroke="none" stroke-width="0" stroke-linecap="butt"/><path d="M304.86397,227.80639c0,0 -0.17759,-17.61223 1.08049,-28.46941c1.42141,-12.26677 4.86953,-22.87543 14.01328,-23.14741c11.49567,-0.34194 12.49154,14.41192 14.04095,27.88541c1.18315,10.28856 1.78775,25.51554 1.78775,25.51554" fill="#334865" stroke="#000000" stroke-width="2" stroke-linecap="round"/><path d="M313.16249,179.72268c2.32493,0.53024 -0.89081,16.43564 -3.56289,28.43434c-2.12818,-0.26812 -4.25311,-0.55603 -6.36552,-0.93324c-1.55539,-0.27775 -3.11355,-0.46412 -4.67962,-0.63646c0.37815,-1.35925 -0.24728,-1.74273 0.1914,-3.18818c3.37222,-11.11174 9.4541,-24.80824 14.41665,-23.67646z" fill="#334865" stroke="#000000" stroke-width="2" stroke-linecap="butt"/><path d="M306.73106,220.87115c-0.72753,4.23293 -3.21431,6.3953 -6.77937,5.78257c-3.56507,-0.61273 -4.87227,-4.65128 -4.14475,-8.88421c0.22353,-1.30057 1.17401,-5.57997 2.62148,-10.8307c1.58098,0.17348 3.15379,0.35988 4.72372,0.64022c2.10584,0.37605 4.22404,0.66368 6.34555,0.93129c-1.34147,6.00551 -2.52462,10.95272 -2.76664,12.36084z" fill="#ffffff" stroke="#000000" stroke-width="2" stroke-linecap="butt"/><path d="M316.22229,187.30195c0,1.12921 -1.77857,1.25408 -2.51048,2.70979c-1.80417,3.58837 -3.84742,8.66459 -5.35409,8.66459c-2.11789,0 0.195,-7.46166 0.195,-11.37439c0,-3.91272 2.23687,-7.47459 4.35476,-7.47459c0.43662,0 1.61092,-0.31471 1.96684,-0.04008c1.37052,1.05751 1.34798,4.40859 1.34798,7.51467z" fill="#334865" stroke="none" stroke-width="0" stroke-linecap="butt"/><path d="M325.29883,180.40324c0.58578,-0.08775 1.58355,0.019 2.73165,0.82067c1.62029,1.13137 4.4992,5.28519 4.74019,6.89762c0.41175,2.75494 1.99996,6.00788 0.58749,6.21949c-0.64801,0.09708 -0.73482,-2.66826 -1.80079,-4.28071c-0.58697,-0.88788 -1.96501,-1.69479 -2.52639,-2.52797c-0.64132,-0.95184 -1.84062,-0.86204 -1.95945,-1.65712c-0.41175,-2.75494 -3.18517,-5.26036 -1.7727,-5.47197z" data-paper-data="{&quot;index&quot;:null}" fill="#334865" stroke="none" stroke-width="0" stroke-linecap="butt"/><path d="M318.30118,231.04476l7.72377,0.33102" fill="none" stroke="#000000" stroke-width="2" stroke-linecap="round"/><path d="M327.78562,178.6856c0,0.78788 -0.41115,1.82496 -1.22398,2.80974c-0.92811,1.12448 -2.44288,2.14932 -5.56126,2.11015c-2.81373,-0.03534 -3.13628,-0.95102 -3.96732,-2.13634c-0.64567,-0.92093 -2.09093,-2.0457 -2.09093,-2.78355c0,-1.68751 2.87511,-3.05551 6.42174,-3.05551c3.54663,0 6.42175,1.368 6.42175,3.05551z" fill="#ffffff" stroke="#000000" stroke-width="2" stroke-linecap="butt"/><path d="M341.73326,155.57285c0.10467,1.8765 0.72983,4.44998 0.5831,6.15837c-1.07425,12.50745 -9.69713,17.29201 -20.0337,17.88694c-11.98052,0.68955 -22.51767,-7.38223 -23.28044,-21.05752c-0.76277,-13.67531 8.49458,-24.99319 20.4751,-25.68274c11.98052,-0.68955 21.49316,9.01964 22.25594,22.69495z" fill="#ffffff" stroke="#000000" stroke-width="2" stroke-linecap="butt"/><path d="M320.78326,158.55164c0,2.79954 -0.86452,5.06901 -1.93095,5.06901c-1.06642,0 -1.93093,-2.26947 -1.93093,-5.06901c0,-2.79954 0.86451,-5.06901 1.93093,-5.06901c1.06642,0 1.93095,2.26947 1.93095,5.06901z" fill="#000000" stroke="none" stroke-width="0" stroke-linecap="butt"/><path d="M334.73333,158.94005c0,2.30819 -0.71279,4.17934 -1.59205,4.17934c-0.87926,0 -1.59205,-1.87116 -1.59205,-4.17934c0,-2.30819 0.71279,-4.17935 1.59205,-4.17935c0.87926,0 1.59205,1.87116 1.59205,4.17935z" fill="#000000" stroke="none" stroke-width="0" stroke-linecap="butt"/><path d="M308.34994,165.87702l27.47456,1.76543" fill="none" stroke="#000000" stroke-width="2" stroke-linecap="round"/><path d="M308.74089,164.02308l-2.43701,3.15616" fill="none" stroke="#000000" stroke-width="2" stroke-linecap="round"/><path d="M310.33127,223.91638l3.16535,-9.61327" fill="none" stroke="#000000" stroke-width="2" stroke-linecap="round"/><path d="M330.59242,215.6414l1.64128,6.79962" fill="none" stroke="#000000" stroke-width="2" stroke-linecap="round"/><path d="M329.2322,180.4924c0,0 -1.23297,4.86641 -5.79289,5.39337c-4.10253,0.47411 -7.66472,-1.09846 -9.24532,-2.54116c-1.95625,-1.78556 -1.40826,-3.58465 -1.40826,-3.58465" fill="none" stroke="#000000" stroke-width="1.5" stroke-linecap="round"/><path d="M319.71056,193.47647l0.13317,-7.79043" fill="none" stroke="#000000" stroke-width="1.5" stroke-linecap="round"/><path d="M324.57124,185.61945l-0.06658,7.9236" fill="none" stroke="#000000" stroke-width="1.5" stroke-linecap="round"/><path d="M335.45927,228.59855l-30.06309,-1.51481" fill="none" stroke="#000000" stroke-width="2" stroke-linecap="round"/><path d="M556.38437,315.49549c-0.56067,1.22182 -20.19635,5.52477 -31.91317,5.97371c-6.49084,0.2487 -6.40933,-2.75639 -9.15056,-3.20222c-0.75172,-0.12225 -1.25647,-0.64538 -1.53056,-1.37753c-0.27572,-0.73648 6.94369,-5.346 6.93058,-8.62008c-0.00098,-0.24313 -0.03159,-0.4817 -0.08922,-0.71591c2.30243,-0.40794 5.0219,-1.51762 7.1115,-2.08276c3.37603,-0.92035 6.7497,-1.84681 10.13742,-2.72325c3.38612,-0.87604 6.76284,-1.78484 10.17694,-2.54523c0.21112,-0.04702 0.42229,-0.09388 0.63351,-0.1406c6.19991,5.92955 9.31174,11.90756 7.69356,15.43388z" data-paper-data="{&quot;index&quot;:null}" fill="#ffffff" stroke="#000000" stroke-width="2" stroke-linecap="butt"/><path d="M504.1865,292.08076c-1.02414,-12.34551 16.81303,-32.78755 18.24666,-33.23561c13.83434,-4.3238 16.86967,-2.22172 15.10096,4.70393c-0.6291,2.46332 0.51837,-0.32937 -1.03152,5.61157c-0.97708,3.74525 -5.65803,16.47583 -4.23979,18.80843c0.4628,0.76118 12.17498,5.40711 15.44561,8.11126c0.89418,0.73931 -0.25689,2.81867 0.54348,3.5664c-0.1011,0.02244 -0.2022,0.04492 -0.30328,0.06743c-3.41964,0.76162 -1.46853,2.67176 -4.86015,3.54921c-3.38964,0.87694 -13.76525,3.47057 -17.1432,4.39145c-2.09322,0.56612 -3.84749,-0.63205 -6.13693,-0.24536c-0.6007,-1.46605 -4.00486,-3.50246 -7.35145,-6.25426c-4.06052,-3.33885 -8.13448,-7.43629 -8.27037,-9.07444z" data-paper-data="{&quot;index&quot;:null}" fill="#a68f79" stroke="#000000" stroke-width="2" stroke-linecap="butt"/><path d="M515.12741,268.58753l-11.46921,-1.78737" data-paper-data="{&quot;index&quot;:null}" fill="none" stroke="#000000" stroke-width="2" stroke-linecap="round"/></g></g></svg>