<svg version="1.1" xmlns="http://www.w3.org/2000/svg" xmlns:xlink="http://www.w3.org/1999/xlink" width="10.50071" height="16.84642" viewBox="0,0,10.50071,16.84642"><g transform="translate(-314.74965,-171.57679)"><g data-paper-data="{&quot;isPaintingLayer&quot;:true}" fill="#ff0000" fill-rule="nonzero" stroke="none" stroke-width="0.5" stroke-linecap="butt" stroke-linejoin="miter" stroke-miterlimit="10" stroke-dasharray="" stroke-dashoffset="0" style="mix-blend-mode: normal"><path d="M322.4834,184.01103c-1.00243,1.2296 -0.90705,4.70692 -3.42536,4.39213c-2.96304,-0.37038 -2.23693,-4.72642 -0.79534,-7.95228c-1.27343,-0.05332 -2.64142,-0.71931 -3.16139,-1.75926c-1.21427,-2.42855 0.9285,-5.86513 3.18438,-6.69964c0.853,-0.31554 3.31943,-0.77868 3.80795,0.06006c1.89224,0.65243 3.36028,3.34776 3.05465,5.60332c0.06642,0.22487 0.10206,0.46294 0.10206,0.70934c0,0.4927 -0.14253,0.95212 -0.38861,1.33926c-0.25185,1.41819 -1.24582,2.9179 -2.37834,4.30707zM319.38462,177.55769c0.41421,0 0.98077,-0.48963 0.98077,-0.90385c0,-0.41421 -0.33579,-0.75 -0.75,-0.75c-0.41421,0 -0.75,0.33579 -0.75,0.75c0,0.41421 0.10502,0.90385 0.51923,0.90385z"/></g></g></svg>