<svg version="1.1" xmlns="http://www.w3.org/2000/svg" xmlns:xlink="http://www.w3.org/1999/xlink" width="192.48556" height="425.58353" viewBox="0,0,192.48556,425.58353"><g transform="translate(-294.55052,52.78529)"><g data-paper-data="{&quot;isPaintingLayer&quot;:true}" fill-rule="nonzero" stroke="none" stroke-width="0" stroke-linejoin="miter" stroke-miterlimit="10" stroke-dasharray="" stroke-dashoffset="0" style="mix-blend-mode: normal"><g data-paper-data="{&quot;index&quot;:null}" stroke-linecap="butt"><path d="M444.69374,302.71002c-0.09639,1.38064 -0.77904,21.39202 1.61496,34.80305c1.69862,9.51539 9.53754,18.98633 6.93155,23.64916c-9.8479,17.62088 -40.9803,9.23481 -48.56182,8.75457c-12.41525,-0.78643 -3.10871,-69.42258 -2.68559,-75.48473c0.42317,-6.06216 11.02015,0.84218 23.43535,1.62864c12.41524,0.78643 19.68857,0.5872 19.26537,6.64933z" fill="#ffffff"/><path d="M387.13377,247.85221c10.55688,-1.29371 21.0742,-2.86609 31.63881,-4.11565c5.29414,-0.62617 10.58826,-1.25236 15.88237,-1.87856c7.35967,26.11445 11.2327,59.01116 11.86205,62.54537c0.9514,5.34264 -7.48435,13.34019 -21.44526,16.12312c-13.96091,2.78294 -27.78854,0.08459 -28.73991,-5.25804c-0.31256,-1.75514 -6.91252,-39.33599 -9.19806,-67.41623z" data-paper-data="{&quot;index&quot;:null}" fill="#222228"/></g><g data-paper-data="{&quot;index&quot;:null}" stroke-linecap="butt"><path d="M325.26047,301.32545c0.22621,-6.07267 7.43673,-5.0983 19.86501,-4.55517c12.42823,0.54309 23.70157,-5.1908 23.47532,0.88189c-0.2263,6.07269 1.7016,75.31006 -10.72667,74.76694c-7.58947,-0.33168 -39.43909,4.68376 -47.35008,-13.88753c-2.09344,-4.91435 6.71153,-13.49453 9.41602,-22.77428c3.81168,-13.07892 5.26872,-33.04886 5.32024,-34.4319z" fill="#ffffff"/><path d="M388.34644,252.92426c-5.26947,27.67592 -15.8427,64.33771 -16.3408,66.04946c-1.51615,5.21057 -15.5528,6.41769 -29.13694,2.16062c-13.58415,-4.25707 -21.11816,-13.10928 -19.60196,-18.31987c1.00295,-3.44685 8.36489,-35.74229 18.4697,-60.92208c5.19705,1.18765 10.39408,2.3753 15.59115,3.56294c10.37089,2.36998 20.66032,5.05589 31.01883,7.46894z" data-paper-data="{&quot;index&quot;:null}" fill="#222228"/></g><g data-paper-data="{&quot;index&quot;:null}" stroke-linecap="butt"><path d="M315.02798,163.54638c0.62078,-1.03876 1.24627,-2.06655 1.87592,-3.08279c4.8353,1.76197 9.62877,3.62937 14.42219,5.69572c8.11275,2.72381 16.22974,5.43422 24.34996,8.13492c-1.47002,2.71937 -3.03181,5.46711 -4.68176,8.22826c-18.9654,31.73762 -23.88261,55.89426 -46.82729,48.70921c-18.31625,-6.60982 -8.10447,-35.94774 10.86093,-67.68529z" data-paper-data="{&quot;index&quot;:null}" fill="#ffffff"/><path d="M364.71114,128.85898c8.43381,3.79835 -2.65556,28.64433 -15.39773,57.6972c-7.65142,-1.90413 -15.66012,-8.76147 -23.30844,-10.67799c-4.43297,-1.5613 -8.86226,-2.9283 -13.32485,-4.18809c2.3835,-4.58157 0.0325,-6.28283 3.90333,-11.42314c13.38314,-17.77233 38.68992,-38.95471 46.07456,-33.35291z" data-paper-data="{&quot;index&quot;:null}" fill="#aefa7f"/></g><path d="M349.88579,259.3783c0.23158,-9.23979 14.13198,-16.38646 31.04745,-15.9625c16.91546,0.42397 30.44046,8.25796 30.20888,17.49777c-0.23158,9.23981 -14.13204,16.38655 -31.0475,15.96258c-16.91546,-0.42396 -30.44043,-8.258 -30.20886,-17.49781z" data-paper-data="{&quot;index&quot;:null}" fill="#222228" stroke-linecap="butt"/><path d="M371.13027,276.65149l16.7903,1.13319" data-paper-data="{&quot;index&quot;:null}" fill="none" stroke-linecap="round"/><path d="M337.16213,248.13424c0.09295,-1.80623 1.71824,-43.02609 9.53901,-79.50319c6.96288,-32.47602 18.06652,-61.03391 49.27299,-57.1233c27.89869,3.4961 37.02845,20.35438 39.65527,52.81543c0.97658,12.06835 -1.12347,19.11005 -0.59483,32.16183c0.5433,13.41326 3.6945,32.79333 3.13939,41.84055c-0.47808,7.79149 -3.99886,13.29231 -4.02663,13.83169c-0.17576,3.41431 -4.32257,10.31135 -33.59946,8.90986c-1.16373,-0.0557 -30.72694,-8.2937 -31.87151,-8.35711c-27.65166,-1.53223 -31.68302,-1.29713 -31.51423,-4.57577z" data-paper-data="{&quot;index&quot;:null}" fill="#aefa7f" stroke-linecap="butt"/><path d="M409.38946,137.66238c3.76766,-12.37362 7.47651,-14.83951 11.93413,-9.8303c3.98645,1.18021 8.14931,7.59806 7.93451,11.91909c-0.02911,0.58601 -0.11268,1.15648 -0.24559,1.70677c2.47826,6.01964 4.03828,12.44211 3.86476,15.93292c-0.80269,16.14915 -17.02778,7.43831 -23.03912,1.28252c-4.92137,-5.03958 0.58696,-13.50538 -0.54004,-19.17364z" data-paper-data="{&quot;index&quot;:null}" fill="#aefa7f" stroke-linecap="butt"/><path d="M365.54673,119.36886c0.40013,-8.06644 11.16201,-14.08774 24.03727,-13.44906c12.87526,0.63872 22.98837,7.69562 22.58818,15.76203c-0.40016,8.0664 -11.16198,14.08775 -24.03724,13.44908c-12.87523,-0.63869 -22.98841,-7.69563 -22.58822,-15.76204z" data-paper-data="{&quot;index&quot;:null}" fill="#ffffff" stroke-linecap="butt"/><path d="M403.83293,30.14125c1.95067,-5.10047 22.03025,-2.16074 44.84901,6.56616c22.81875,8.72687 39.73577,19.93612 37.78512,25.03659c-1.95068,5.10049 -20.90855,6.98832 -43.7273,-1.73857c-22.81875,-8.72686 -40.85748,-24.76366 -38.90683,-29.86413z" data-paper-data="{&quot;index&quot;:null}" fill="#ff2e2e" stroke-linecap="butt"/><path d="M331.23609,25.90921c13.59228,-45.18815 53.90691,-69.91824 94.30409,-57.78905c40.3972,12.12921 62.94882,57.6322 49.35654,102.82038c-13.59225,45.18813 -56.09354,63.5931 -96.49072,51.46392c-34.85393,-10.46485 -56.22836,-35.92215 -49.8534,-78.70354c0.87071,-5.8435 0.81839,-11.59102 2.68347,-17.79167z" data-paper-data="{&quot;index&quot;:null}" fill="#ffffff" stroke-linecap="butt"/><path d="M357.32166,67.38274c-4.05261,-0.57126 -6.3954,-7.72096 -5.23271,-15.96941c1.16273,-8.24849 5.39059,-14.47204 9.44321,-13.90078c4.05266,0.57126 6.39542,7.72099 5.23273,15.96944c-1.16268,8.24846 -5.39059,14.47199 -9.44321,13.90073z" data-paper-data="{&quot;index&quot;:null}" fill="#000000" stroke-linecap="butt"/><path d="M421.66896,79.36786c-3.82579,-0.52791 -5.92026,-8.2534 -4.67805,-17.25532c1.24219,-9.00189 5.35048,-15.87147 9.17633,-15.34354c3.82583,0.52789 5.92025,8.25335 4.67805,17.25527c-1.24221,9.00191 -5.35047,15.8715 -9.17632,15.34357z" data-paper-data="{&quot;index&quot;:null}" fill="#000000" stroke-linecap="butt"/><path d="M411.12127,-47.81129c1.67029,-5.26558 12.19892,-6.55559 23.51628,-2.88117c11.31741,3.67429 19.13787,10.92165 17.46757,16.18726c-1.67027,5.26557 -12.19887,6.55556 -23.51623,2.88114c-11.31744,-3.67432 -19.13789,-10.92163 -17.46758,-16.18725z" data-paper-data="{&quot;index&quot;:null}" fill="#ff4f4f" stroke-linecap="butt"/><path d="M331.01787,16.19119c0.96275,-4.33782 26.15239,-75.08315 94.21794,-59.37748c77.04322,17.77715 54.50101,91.56208 53.53819,95.89977c-0.96279,4.33777 -31.91839,-14.25532 -73.16274,-23.40975c-41.24439,-9.15444 -75.55619,-8.77488 -74.59337,-13.11258z" data-paper-data="{&quot;index&quot;:null}" fill="#ff4f4f" stroke-linecap="butt"/><path d="M369.53615,3.24372c1.04059,-4.86243 13.36675,-6.34687 27.5313,-3.31563c14.16454,3.03124 24.80359,9.43043 23.763,14.29286c-1.02121,4.77182 -12.2557,3.22804 -26.08567,0.41815c-0.26276,-0.05343 -0.99095,0.1925 -1.25498,0.13599c-14.16456,-3.03127 -24.99422,-6.66894 -23.95363,-11.53137z" data-paper-data="{&quot;index&quot;:null}" fill="#ffffff" stroke-linecap="butt"/><g data-paper-data="{&quot;index&quot;:null}" stroke-linecap="butt"><path d="M465.56796,164.05301c19.5637,31.37229 30.32986,60.51133 12.14222,67.46721c-22.80434,7.61876 -28.17865,-16.44031 -47.74235,-47.81266c-1.70199,-2.72937 -3.3156,-5.44701 -4.83692,-8.13802c8.06756,-2.85417 16.13171,-5.71799 24.19136,-8.59511c4.75339,-2.15687 9.51059,-4.11481 14.31161,-5.96813c0.64881,1.00413 1.29366,2.01988 1.93403,3.04668z" data-paper-data="{&quot;index&quot;:null}" fill="#ffffff"/><path d="M417.25192,128.33025c7.2771,-5.7408 32.98093,14.95799 46.69862,32.47339c3.96759,5.06599 1.64927,6.81152 4.1192,11.34708c-4.4379,1.34417 -8.84047,2.79489 -13.24305,4.43996c-7.61061,2.06118 -15.48786,9.06913 -23.1018,11.11798c-13.29069,-28.80607 -24.84913,-53.43734 -16.48884,-57.39491z" data-paper-data="{&quot;index&quot;:null}" fill="#aefa7f"/></g></g></g></svg>