<svg version="1.1" xmlns="http://www.w3.org/2000/svg" xmlns:xlink="http://www.w3.org/1999/xlink" width="60.76344" height="134.99422" viewBox="0,0,60.76344,134.99422"><g transform="translate(-266.84606,-133.52228)"><g data-paper-data="{&quot;isPaintingLayer&quot;:true}" fill-rule="nonzero" stroke-linejoin="miter" stroke-miterlimit="10" stroke-dasharray="" stroke-dashoffset="0" style="mix-blend-mode: normal"><g><path d="M311.5784,254.90945c-0.54542,3.61771 -1.23453,7.97744 -3.78369,6.05936c-1.9541,-1.47034 -6.1413,-5.74529 -7.52861,-7.2157c-2.41426,-2.5589 -1.31744,-4.19685 -1.33928,-4.33268c-0.07664,-0.47681 2.32672,-3.15028 5.69875,-6.62761c0.62143,0.58009 1.24644,1.1564 1.87775,1.72614c1.96051,1.76933 3.91868,3.54115 5.87377,5.31645c0.10802,0.09808 0.21611,0.19606 0.32429,0.29393c-1.18205,1.37451 -0.80016,2.63867 -1.12301,4.78011z" data-paper-data="{&quot;index&quot;:null}" fill="#ffffff" stroke="#000000" stroke-width="2" stroke-linecap="butt"/><path d="M298.24689,262.59073c1.00181,2.69384 1.44549,5.00741 1.1903,4.92356c-0.2297,-0.0755 0.03918,0.9178 -2.76005,0.62399c-2.14581,-0.22521 -7.2177,-1.65926 -8.92091,-2.18012c-2.96404,-0.90643 -2.79798,-2.86441 -2.87232,-2.96802c-0.24051,-0.33521 0.37828,-3.35056 1.39142,-7.50406c1.58798,0.32328 3.17805,0.63431 4.77086,0.93925c1.69527,0.32457 3.39784,0.57588 5.10481,0.80804c0.38681,1.37392 1.39121,3.46252 2.09586,5.35739z" data-paper-data="{&quot;index&quot;:null}" fill="#ffffff" stroke="#000000" stroke-width="2" stroke-linecap="butt"/><path d="M311.25041,254.50313c-0.19516,-0.155 -8.48967,-5.03117 -10.76811,-7.66051c-2.98081,-3.43991 11.14055,-8.03998 6.1232,-12.90511c-4.72602,-4.58264 -9.5079,-8.94916 -13.50192,-12.50359c0.01981,-0.16751 0.05517,-0.32926 0.11588,-0.481c0.27837,-0.69585 1.67073,-1.7206 2.18843,-2.35805c2.2967,-2.8279 5.1487,-6.63566 6.8088,-10.62527c0.35677,0.25169 0.71166,0.53151 1.06395,0.84133c4.06304,3.57286 9.82989,11.16232 18.16494,18.96847c1.02289,0.95799 4.55509,5.99508 2.21323,11.76247c-2.9205,7.19232 -12.03135,15.26076 -12.40839,14.96128z" fill="#a68f79" stroke="#000000" stroke-width="2" stroke-linecap="butt"/><path d="M299.80057,260.59491c-0.09717,1.26771 -0.07024,1.1059 -5.46452,0.83623c-5.39427,-0.26967 -11.57357,-1.78305 -11.47639,-3.05072c0.01878,-0.24494 0.04962,-2.93541 0.86438,-6.29576c3.50959,-14.4749 10.17231,-50.58386 10.17231,-50.58386c0,0 14.04638,0.96313 12.60228,12.90809c-0.81913,6.77553 -3.92345,27.59144 -5.6031,38.82253c-0.22529,1.50633 0.17705,3.78499 0.01198,4.88951c-0.31139,2.0835 -1.10172,2.40585 -1.10693,2.47399z" data-paper-data="{&quot;index&quot;:null}" fill="#a68f79" stroke="#000000" stroke-width="2" stroke-linecap="butt"/><path d="M298.39959,228.46522c0.22648,-1.45297 1.1744,-1.91807 1.91668,-2.05475c0.23749,-2.2292 2.55673,-2.15895 2.55673,-2.15895c0.84946,0.02573 1.69888,0.05146 2.54835,0.07718l2.50205,0.07579c1.1871,0.01259 2.23136,0.87265 2.43578,2.08439c0.15412,0.9137 -0.20842,1.79516 -0.87508,2.34555l-2.18083,1.86519l-0.07963,-0.09312c-0.15394,0.16015 -0.31559,0.31326 -0.48648,0.45793c-0.80616,0.68242 -2.07208,0.41087 -3.1081,0.61631l-3.14431,-0.36027c0,0 -2.47018,-0.38503 -2.08514,-2.8552z" fill="#a68f79" stroke="none" stroke-width="0.5" stroke-linecap="butt"/><path d="M299.23033,231.15508l8.75285,-0.71593" fill="none" stroke="#000000" stroke-width="2" stroke-linecap="round"/><path d="M303.70132,177.66074c0.58044,3.44082 -3.97896,7.07866 -10.18371,8.12536c-6.20476,1.0467 -11.70523,-0.89414 -12.28566,-4.33494c-0.58044,-3.44082 0.6615,-5.57366 6.86624,-6.62036c6.20476,-1.0467 15.02271,-0.61086 15.60315,2.82996z" fill="#334865" stroke="#000000" stroke-width="2" stroke-linecap="butt"/><path d="M326.00432,207.58722c1.50181,3.76521 0.11227,7.85115 -3.10362,9.1262c-3.21588,1.27505 -7.04033,-0.74364 -8.54213,-4.50885c-0.42905,-1.0757 -1.82648,-4.41221 -3.53067,-8.66364c1.53821,-1.2056 3.09874,-2.3872 4.73977,-3.41399c1.71595,-1.07366 3.20027,-2.46136 4.9254,-3.50574c0.07082,-0.04286 0.14694,-0.08139 0.22606,-0.11718c2.74305,5.27409 4.77314,9.79943 5.28517,11.08317z" data-paper-data="{&quot;index&quot;:null}" fill="#ffffff" stroke="#000000" stroke-width="2" stroke-linecap="butt"/><path d="M299.43194,180.88673c3.20783,-2.72521 13.71144,5.37035 20.82064,12.4267c1.73136,1.7185 0.756,1.63643 2.32317,3.33303c-0.09349,0.06971 -0.17154,0.13196 -0.21865,0.18258c-1.37861,1.48109 -2.42578,3.239 -3.78679,4.74635c-1.281,1.41874 -2.44454,2.96495 -3.57882,4.5308c-7.12833,-9.43204 -17.41795,-23.64066 -15.55956,-25.21947z" data-paper-data="{&quot;index&quot;:null}" fill="#334865" stroke="#000000" stroke-width="2" stroke-linecap="butt"/><path d="M288.96709,227.49264c0,0 -3.10477,-17.33732 -3.67021,-28.25251c-0.63887,-12.33231 0.99656,-23.36673 9.96767,-25.15591c11.27863,-2.24939 14.71481,12.13327 18.48384,25.16133c2.87809,9.94842 6.00713,24.8627 6.00713,24.8627" fill="#334865" stroke="#000000" stroke-width="2" stroke-linecap="round"/><path d="M290.97643,182.02193c2.15471,1.02158 -4.43218,15.85181 -9.64155,26.98605c-2.01947,-0.72305 -4.03146,-1.46472 -6.01189,-2.29082c-1.4582,-0.60829 -2.93892,-1.12797 -4.43042,-1.63566c0.6638,-1.24496 0.13635,-1.75489 0.8779,-3.0709c5.70059,-10.11662 14.6067,-22.16919 19.20595,-19.98866z" fill="#334865" stroke="#000000" stroke-width="2" stroke-linecap="butt"/><path d="M279.03604,219.5835c-0.39941,4.27639 -2.71229,6.62383 -6.31394,6.28747c-3.60168,-0.33637 -5.21599,-4.26228 -4.8166,-8.53867c0.12272,-1.31392 0.74082,-5.65381 1.77965,-11.0004c1.58964,0.05122 3.17214,0.11594 4.75899,0.27455c2.12855,0.21277 4.2626,0.33644 6.39842,0.43988c-0.87502,6.09097 -1.67368,11.11461 -1.80655,12.53719z" fill="#ffffff" stroke="#000000" stroke-width="2" stroke-linecap="butt"/><path d="M293.33056,188.79304c-0.05838,1.12771 -1.84103,1.16044 -2.64722,2.57638c-1.9873,3.49029 -4.29028,8.45408 -5.79494,8.37615c-2.11506,-0.10951 0.58054,-7.44159 0.78285,-11.3491c0.20231,-3.90748 2.62034,-7.34893 4.7354,-7.23944c0.43604,0.02257 1.62504,-0.23101 1.96629,0.06167c1.31402,1.12696 1.11824,4.4724 0.95763,7.57432z" fill="#334865" stroke="none" stroke-width="0" stroke-linecap="butt"/><path d="M301.23213,177.35074c0.56302,-0.18396 1.56465,-0.24467 2.83012,0.35484c1.78592,0.84609 5.31566,4.46314 5.82151,6.01303c0.86428,2.64807 2.97146,5.59151 1.61386,6.03511c-0.62284,0.20353 -1.16842,-2.50885 -2.48776,-3.92152c-0.72648,-0.77786 -2.21956,-1.34432 -2.9117,-2.07252c-0.79071,-0.83191 -1.95836,-0.54386 -2.2078,-1.3081c-0.86428,-2.64807 -4.01582,-4.65724 -2.65822,-5.10086z" data-paper-data="{&quot;index&quot;:null}" fill="#334865" stroke="none" stroke-width="0" stroke-linecap="butt"/><path d="M303.39856,175.24338c0.13106,0.7769 -0.10186,1.86792 -0.73956,2.97419c-0.72812,1.2632 -2.05132,2.52571 -5.13277,3.00582c-2.7804,0.43319 -3.25078,-0.41607 -4.26741,-1.44664c-0.78986,-0.80071 -2.40209,-1.66939 -2.52482,-2.39696c-0.2807,-1.66399 2.32679,-3.49119 5.824,-4.08114c3.49721,-0.58994 6.55984,0.28074 6.84055,1.94474z" fill="#ffffff" stroke="#000000" stroke-width="2" stroke-linecap="butt"/><path d="M312.31355,211.21742l2.74948,6.43188" fill="none" stroke="#000000" stroke-width="2" stroke-linecap="round"/><path d="M305.12553,176.78437c0,0 -0.4063,5.00371 -4.81505,6.28184c-3.96651,1.14993 -7.74065,0.1918 -9.53923,-0.96787c-2.226,-1.43528 -1.98491,-3.30045 -1.98491,-3.30045" fill="none" stroke="#000000" stroke-width="1.5" stroke-linecap="round"/><path d="M297.89633,191.1714l-1.16455,-7.70405" fill="none" stroke="#000000" stroke-width="1.5" stroke-linecap="round"/><path d="M302.63473,190.43959l-1.25237,-7.82428" fill="none" stroke="#000000" stroke-width="1.5" stroke-linecap="round"/><path d="M319.26792,223.18451l-29.89623,3.50703" fill="none" stroke="#000000" stroke-width="2" stroke-linecap="round"/><g><path d="M323.37685,160.82206c-0.21803,1.86673 -0.04255,4.50923 -0.47948,6.16731c-3.19901,12.13905 -12.51355,15.37723 -22.79942,14.19432c-11.92178,-1.37105 -20.92197,-11.12714 -19.33301,-24.73122c1.58898,-13.60408 12.64677,-23.1706 24.56854,-21.79954c11.92178,1.37105 19.63234,12.56507 18.04339,26.16913z" fill="#ffffff" stroke="#000000" stroke-width="2" stroke-linecap="butt"/><path d="M301.56282,159.68195c-0.47912,2.75822 -1.71932,4.84626 -2.77,4.66373c-1.05068,-0.18253 -1.51402,-2.56647 -1.03487,-5.32471c0.47912,-2.75822 1.71931,-4.84625 2.76999,-4.66374c1.05068,0.18253 1.51404,2.56646 1.0349,5.3247z" fill="#000000" stroke="none" stroke-width="0" stroke-linecap="butt"/><path d="M315.48528,162.12048c-0.39504,2.27413 -1.41756,3.99569 -2.28385,3.84521c-0.86628,-0.15049 -1.24832,-2.11602 -0.85328,-4.39015c0.39504,-2.27413 1.41756,-3.9957 2.28385,-3.84521c0.86628,0.15049 1.24832,2.11602 0.85328,4.39015z" fill="#000000" stroke="none" stroke-width="0" stroke-linecap="butt"/><path d="M315.52115,171.52071l-26.76704,-6.44159" fill="none" stroke="#000000" stroke-width="2" stroke-linecap="round"/><path d="M288.80568,162.84824l-1.63936,3.63494" fill="none" stroke="#000000" stroke-width="2" stroke-linecap="round"/></g></g></g></g></svg>