<svg version="1.1" xmlns="http://www.w3.org/2000/svg" xmlns:xlink="http://www.w3.org/1999/xlink" width="65.07734" height="137.80231" viewBox="0,0,65.07734,137.80231"><defs><radialGradient cx="332.47947" cy="151.74268" r="26.05961" gradientUnits="userSpaceOnUse" id="color-1"><stop offset="0" stop-color="#afb0e0" stop-opacity="0"/><stop offset="1" stop-color="#afb0e0" stop-opacity="0.31373"/></radialGradient></defs><g transform="translate(-287.05054,-129.82971)"><g data-paper-data="{&quot;isPaintingLayer&quot;:true}" fill-rule="nonzero" stroke-linejoin="miter" stroke-miterlimit="10" stroke-dasharray="" stroke-dashoffset="0" style="mix-blend-mode: normal"><path d="M297.09306,263.74055c-0.83607,0.79526 -9.82374,-14.28737 -8.98768,-15.08263c0.08037,-0.07645 0.85474,-0.80449 2.11764,-1.98016c1.26774,0.86548 2.86778,1.64341 3.83772,2.12756c1.75838,1.20381 3.91004,2.11297 5.10804,3.9254c0.64493,0.97569 1.33701,2.02269 1.98891,3.00897c-0.15633,0.1504 -0.23927,0.23011 -0.23927,0.23011c0,0 -0.35788,1.91297 -1.01664,3.44637c-0.89937,2.09347 -2.32616,3.86531 -2.80875,4.32435z" fill="#ffffff" stroke="#000000" stroke-width="2" stroke-linecap="butt"/><path d="M331.90068,181.39906c-0.31457,3.47522 -5.64982,5.83257 -11.91662,5.26531c-6.2668,-0.56726 -11.09202,-3.84436 -10.77743,-7.31958c0.31458,-3.47522 2.05852,-5.22166 8.3253,-4.65439c6.2668,0.56726 14.68331,3.23344 14.36873,6.70865z" fill="#334865" stroke="#000000" stroke-width="2" stroke-linecap="butt"/><path d="M340.25553,218.54213c-0.04895,4.05337 -2.89277,7.29965 -6.35187,7.25078c-3.45909,-0.04888 -6.22355,-3.37443 -6.17459,-7.42779c0.01398,-1.15802 -0.00421,-4.77531 0.04326,-9.35533c1.88189,-0.52725 3.77529,-1.02378 5.68398,-1.34653c1.99584,-0.33746 3.89742,-1.05358 5.89057,-1.36047c0.08183,-0.01259 0.16687,-0.01914 0.25367,-0.02201c0.52245,5.9218 0.67167,10.87935 0.65498,12.26135z" data-paper-data="{&quot;index&quot;:null}" fill="#ffffff" stroke="#000000" stroke-width="2" stroke-linecap="butt"/><path d="M330.89022,179.99311c4.20521,-0.18238 7.52804,12.65595 8.80908,22.59033c0.31198,2.4194 -0.40765,1.75593 -0.21185,4.05726c-0.11659,-0.00235 -0.2164,-0.0011 -0.28467,0.00993c-1.99747,0.32303 -3.90319,1.06802 -5.90288,1.4226c-1.88212,0.33372 -3.74979,0.84018 -5.60638,1.38008c0.16212,-11.82159 0.76051,-29.35452 3.19671,-29.46018z" data-paper-data="{&quot;index&quot;:null}" fill="#334865" stroke="#000000" stroke-width="2" stroke-linecap="butt"/><path d="M321.91291,226.86792c0.71165,-11.01677 6.9277,-6.60312 12.27681,-6.93299c0.46746,-0.02883 2.94333,26.88273 3.59404,35.38188c0.12223,1.59648 -0.26598,2.41739 -0.2592,2.42487c-2.86342,0.33052 -6.79943,-0.14024 -9.49058,0.66744c-1.39185,0.41971 -4.06728,0.31059 -5.81554,0.6504c-0.05729,-0.93785 -0.37487,-1.14123 -0.43572,-2.2103c-0.50683,-8.90437 -0.34754,-22.5856 0.1302,-29.98132z" fill="#a68f79" stroke="#000000" stroke-width="2" stroke-linecap="butt"/><path d="M340.04043,265.67328c0.05638,1.21669 -16.86331,1.30664 -16.91967,0.08994c-0.00849,-0.18322 -0.18535,-2.61663 -0.4102,-6.26233c1.75747,-0.36109 4.19901,-0.26935 5.45742,-0.64536c2.76354,-0.82943 6.00748,-0.9411 8.9285,-1.29541c0.43578,0.51968 1.10734,1.38264 1.58159,2.28048c1.03395,1.95748 1.32982,5.13037 1.36235,5.83266z" fill="#ffffff" stroke="#000000" stroke-width="2" stroke-linecap="butt"/><path d="M304.99081,223.07584c4.37269,-10.13812 8.77953,-0.97175 14.58662,0.7368c0.29698,0.08737 -0.87282,12.63303 -4.92308,21.5233c-3.44684,7.56579 -9.50119,11.69627 -12.92245,11.69681c-0.86647,-0.23341 -1.40365,-0.2308 -2.03166,-0.29329c-0.1532,-0.15477 -0.31168,-0.30478 -0.47524,-0.4497c-0.22566,-0.37863 -0.40207,-0.74154 -0.50438,-1.08607l-0.00954,-0.00491c-1.6537,-3.19107 -5.35697,-6.38946 -9.10357,-8.6106c2.18433,-2.33843 9.26457,-5.33764 11.35543,-8.02706c4.34882,-5.59376 2.37355,-11.64977 4.02787,-15.4853z" fill="#a68f79" stroke="#000000" stroke-width="2" stroke-linecap="butt"/><path d="M313.86641,229.80419l0.38869,-4.29382l14.04194,1.27107l-0.38868,4.29382z" fill="#a68f79" stroke="none" stroke-width="0" stroke-linecap="butt"/><path d="M304.21789,225.79542c0,0 1.41089,-17.55653 3.64263,-28.25608c2.5215,-12.08867 6.91194,-22.34329 16.04299,-21.78983c11.47969,0.69581 11.14142,15.47936 11.46987,29.03767c0.2508,10.35333 -0.51978,25.57281 -0.51978,25.57281" fill="#334865" stroke="#000000" stroke-width="2" stroke-linecap="round"/><path d="M316.81742,178.65561c2.26766,0.73767 -2.36887,16.2884 -6.11176,27.99735c-2.09535,-0.45888 -4.18567,-0.93718 -6.25547,-1.50331c-1.52402,-0.41683 -3.05903,-0.74292 -4.60318,-1.05575c0.49914,-1.31963 -0.08916,-1.75792 0.47803,-3.15794c4.36023,-10.76248 11.65209,-23.85493 16.49241,-22.28037z" fill="#334865" stroke="#000000" stroke-width="2" stroke-linecap="butt"/><path d="M306.7026,219.05673c-1.10617,4.15011 -3.77776,6.07949 -7.27306,5.14787c-3.49531,-0.93164 -4.4331,-5.07157 -3.32694,-9.22168c0.33986,-1.27513 1.67228,-5.4514 3.58721,-10.55027c1.55891,0.3153 3.1085,0.64272 4.64676,1.06347c2.06337,0.56437 4.14701,1.04177 6.23576,1.49956c-1.87741,5.86012 -3.50176,10.68052 -3.86973,12.06109z" fill="#ffffff" stroke="#000000" stroke-width="2" stroke-linecap="butt"/><path d="M319.1815,186.47987c-0.10179,1.12462 -1.88439,1.08863 -2.74455,2.47244c-2.12032,3.41111 -4.61288,8.28246 -6.11341,8.14662c-2.10926,-0.19092 0.86688,-7.41369 1.21961,-11.3105c0.35274,-3.89678 2.90161,-7.2425 5.01087,-7.05156c0.43485,0.03935 1.63273,-0.1682 1.96244,0.13739c1.2696,1.17675 0.94505,4.51216 0.66504,7.60559z" fill="#334865" stroke="none" stroke-width="0" stroke-linecap="butt"/><path d="M328.84299,180.42751c0.5913,-0.03458 1.5754,0.16168 2.64655,1.06359c1.5117,1.27284 4.00441,5.66928 4.09906,7.29687c0.16172,2.78085 1.45021,6.16373 0.0244,6.24714c-0.65412,0.03826 -0.49129,-2.72363 -1.40755,-4.42563c-0.50453,-0.93717 -1.80422,-1.86504 -2.28821,-2.74545c-0.5529,-1.00579 -1.75541,-1.02446 -1.80209,-1.82701c-0.16172,-2.78085 -2.69798,-5.5261 -1.27217,-5.6095z" data-paper-data="{&quot;index&quot;:null}" fill="#334865" stroke="none" stroke-width="0" stroke-linecap="butt"/><path d="M316.66827,230.38286l7.66249,1.02599" fill="none" stroke="#000000" stroke-width="2" stroke-linecap="round"/><path d="M331.47451,178.94105c-0.07103,0.78468 -0.574,1.78047 -1.4723,2.68795c-1.0257,1.03622 -2.62669,1.92033 -5.72884,1.60021c-2.79909,-0.28886 -3.03778,-1.22989 -3.75857,-2.4853c-0.56001,-0.97539 -1.89799,-2.22587 -1.83148,-2.96072c0.15213,-1.68063 3.13887,-2.78387 6.67104,-2.46415c3.53219,0.31974 6.27228,1.94136 6.12015,3.622z" fill="#ffffff" stroke="#000000" stroke-width="2" stroke-linecap="butt"/><path d="M347.14704,158.0698c-0.05658,1.87855 0.34565,4.49617 0.053,6.18568c-2.14254,12.3693 -11.14385,16.39703 -21.49337,16.10363c-11.99554,-0.34006 -21.8019,-9.28546 -21.38949,-22.9758c0.41241,-13.69036 10.60594,-24.17295 22.60147,-23.83288c11.99554,0.34006 20.64079,10.82903 20.22839,24.51938z" fill="#ffffff" stroke="#000000" stroke-width="2" stroke-linecap="butt"/><path d="M323.20369,160.69677c-0.23999,2.78923 -1.2959,4.97623 -2.35839,4.88481c-1.06249,-0.09142 -1.72927,-2.42664 -1.48926,-5.21589c0.23999,-2.78923 1.29589,-4.97623 2.35838,-4.88482c1.06249,0.09142 1.72929,2.42665 1.48928,5.2159z" fill="#000000" stroke="none" stroke-width="0" stroke-linecap="butt"/><path d="M337.24136,162.67271c-0.19787,2.29969 -1.06845,4.10284 -1.94448,4.02746c-0.87602,-0.07538 -1.42577,-2.00075 -1.22789,-4.30044c0.19787,-2.29969 1.06845,-4.10285 1.94447,-4.02747c0.87602,0.07538 1.42577,2.00075 1.2279,4.30044z" fill="#000000" stroke="none" stroke-width="0" stroke-linecap="butt"/><path d="M339.12757,171.34384l-27.22207,-4.11429" fill="none" stroke="#000000" stroke-width="2" stroke-linecap="round"/><path d="M311.52972,164.7385l-1.32047,3.76254" fill="none" stroke="#000000" stroke-width="2" stroke-linecap="round"/><path d="M310.01362,222.41413l4.01911,-9.28876" fill="none" stroke="#000000" stroke-width="2" stroke-linecap="round"/><path d="M330.93826,215.99941l1.02161,6.9199" fill="none" stroke="#000000" stroke-width="2" stroke-linecap="round"/><path d="M332.75231,180.87091c0,0 -1.66667,4.73544 -6.25552,4.84917c-4.12855,0.10234 -7.53447,-1.78498 -8.97858,-3.36429c-1.78732,-1.95465 -1.07936,-3.69701 -1.07936,-3.69701" fill="none" stroke="#000000" stroke-width="1.5" stroke-linecap="round"/><path d="M322.0989,192.94372l0.83495,-7.74671" fill="none" stroke="#000000" stroke-width="1.5" stroke-linecap="round"/><path d="M327.64812,185.55689l-0.78064,7.88533" fill="none" stroke="#000000" stroke-width="1.5" stroke-linecap="round"/><path d="M334.6172,229.34256l-29.80411,-4.21887" fill="none" stroke="#000000" stroke-width="2" stroke-linecap="round"/><g stroke-linecap="butt"><path d="M351.12788,160.67685c-1.17162,9.08378 -6.74352,16.19472 -14.22177,19.67767c-0.77711,0.36193 0.23333,-0.1542 1.38469,0.5592c1.82747,1.13234 1.73076,2.17851 -1.87207,2.41988c-3.88506,0.26029 -9.89587,-0.0389 -15.71078,-0.91101c-3.84801,-0.57711 -8.36865,-1.77151 -9.40858,-1.90564c-2.42568,-0.31286 -4.67572,-2.25153 -2.70396,-3.18842c1.45904,-0.69327 1.28869,-0.58378 0.76683,-1.06247c-5.81484,-5.33392 -8.94198,-13.43918 -7.80969,-22.21803c1.8329,-14.21069 14.13284,-24.80514 27.9554,-23.02231c13.82256,1.78283 23.45283,15.44045 21.61994,29.65116z" fill="url(#color-1)" stroke="#111111" stroke-width="2"/><path d="M344.6739,145.69947c0.24057,2.63199 -1.93151,3.73518 -4.22722,2.38031c-0.42174,-0.2489 -1.41541,-2.65413 -1.89037,-3.07568c-1.38,-1.22481 -3.86914,-1.4144 -4.57215,-3.12038c-0.67516,-0.52557 -1.06283,-1.38432 -0.94545,-2.29434c0.17662,-1.36937 1.42989,-2.33629 2.79926,-2.15966c0.51903,0.06695 0.98025,0.28857 1.34329,0.61257c3.42611,0.57469 7.18615,4.3043 7.49262,7.65718z" fill="#ffffff" stroke="none" stroke-width="0.5"/></g></g></g></svg>