<svg version="1.1" xmlns="http://www.w3.org/2000/svg" xmlns:xlink="http://www.w3.org/1999/xlink" width="20.61821" height="20.39738" viewBox="0,0,20.61821,20.39738"><g transform="translate(-307.54582,-181.28906)"><g data-paper-data="{&quot;isPaintingLayer&quot;:true}" fill-rule="nonzero" stroke-linejoin="miter" stroke-miterlimit="10" stroke-dasharray="" stroke-dashoffset="0" style="mix-blend-mode: normal"><path d="M320.5379,198.31831c-4.01229,1.6731 -8.59782,-0.1671 -10.24208,-4.11021c-1.64426,-3.94311 0.27541,-8.49595 4.2877,-10.16905c4.01229,-1.6731 8.59782,0.1671 10.24208,4.11021c1.64426,3.94311 -0.27541,8.49595 -4.2877,10.16905z" fill="#7c30e3" stroke="#000000" stroke-width="5.5" stroke-linecap="butt"/><path d="M320.75437,198.66342c-4.01229,1.6731 -8.59782,-0.1671 -10.24208,-4.11021c-1.64426,-3.94311 0.27541,-8.49595 4.2877,-10.16905c4.01229,-1.6731 8.59782,0.1671 10.24208,4.11021c1.64426,3.94311 -0.27541,8.49595 -4.2877,10.16905z" fill="#7c30e3" stroke="#7c30e3" stroke-width="0" stroke-linecap="butt"/><path d="M314.36533,193.12001l6.05849,-3.26162" fill="none" stroke="#ffffff" stroke-width="6.5" stroke-linecap="round"/><path d="M319.09161,194.59599l-3.39407,-6.21358" fill="none" stroke="#ffffff" stroke-width="6.5" stroke-linecap="round"/></g></g></svg>