<svg version="1.1" xmlns="http://www.w3.org/2000/svg" xmlns:xlink="http://www.w3.org/1999/xlink" width="790.90605" height="512" viewBox="0,0,790.90605,512"><defs><linearGradient x1="437.5" y1="194.5" x2="-97.5" y2="194.5" gradientUnits="userSpaceOnUse" id="color-1"><stop offset="0" stop-color="#ffffff" stop-opacity="0"/><stop offset="1" stop-color="#ffffff"/></linearGradient><linearGradient x1="432.5" y1="189.5" x2="-102.5" y2="189.5" gradientUnits="userSpaceOnUse" id="color-2"><stop offset="0" stop-color="#ffffff" stop-opacity="0"/><stop offset="1" stop-color="#ffffff"/></linearGradient><linearGradient x1="150.5" y1="180.5" x2="685.5" y2="180.5" gradientUnits="userSpaceOnUse" id="color-3"><stop offset="0" stop-color="#ffffff" stop-opacity="0"/><stop offset="1" stop-color="#ffffff"/></linearGradient><linearGradient x1="320.29193" y1="136.01092" x2="320.29193" y2="393.94788" gradientUnits="userSpaceOnUse" id="color-4"><stop offset="0" stop-color="#b9b1ff" stop-opacity="0"/><stop offset="1" stop-color="#b9b1ff"/></linearGradient><linearGradient x1="324.29193" y1="227.9479" x2="324.29193" y2="-29.98906" gradientUnits="userSpaceOnUse" id="color-5"><stop offset="0" stop-color="#ffffff" stop-opacity="0"/><stop offset="1" stop-color="#ffffff"/></linearGradient></defs><g transform="translate(102.5,68.5)"><g data-paper-data="{&quot;isPaintingLayer&quot;:true}" fill-rule="nonzero" stroke-linejoin="miter" stroke-miterlimit="10" stroke-dasharray="" stroke-dashoffset="0" style="mix-blend-mode: normal"><path d="M-97.5,443.5v-498h535v498z" data-paper-data="{&quot;index&quot;:null}" fill="url(#color-1)" stroke="none" stroke-width="0" stroke-linecap="butt"/><path d="M-102.5,438.5v-498h535v498z" data-paper-data="{&quot;index&quot;:null}" fill="url(#color-2)" stroke="none" stroke-width="0" stroke-linecap="butt"/><path d="M150.5,429.5v-498h535v498z" fill="url(#color-3)" stroke="none" stroke-width="0" stroke-linecap="butt"/><path d="M-43.82218,393.94788v-257.93694h728.22823v257.93694z" fill="url(#color-4)" stroke="none" stroke-width="0" stroke-linecap="butt"/><path d="M688.40605,-29.98906v257.93694h-728.22823v-257.93694z" data-paper-data="{&quot;index&quot;:null}" fill="url(#color-5)" stroke="none" stroke-width="0" stroke-linecap="butt"/><path d="M539.92809,21.97697c0.74311,-3.92664 8.59829,-5.77055 17.54509,-4.11841c8.9468,1.65208 15.59719,6.17456 14.85414,10.10122c-0.74311,3.92664 -7.69296,0.44108 -16.63976,-1.21107c-8.9468,-1.65208 -16.50252,-0.84505 -15.75946,-4.77173z" fill="none" stroke="#beb7ff" stroke-width="2" stroke-linecap="butt"/><path d="M629.38537,87.98473c-0.32383,3.79507 -12.62191,5.93594 -28.68478,5.3093c0.18418,-2.487 -0.49582,-6.38457 0.26282,-8.53006c0.79857,-2.25848 2.34095,-4.29653 3.06613,-6.59137c14.90256,2.1804 25.66582,6.17885 25.3558,9.81216z" fill="none" stroke="#beb7ff" stroke-width="2" stroke-linecap="butt"/><path d="M599.19642,88.45048c0.39018,3.86762 0.42923,7.83245 0.0859,11.85604c-2.88223,33.77798 -31.61986,58.90764 -64.1873,56.1287c-32.5674,-2.77894 -56.63205,-32.41419 -53.74982,-66.19213c0.37158,-4.35465 1.17289,-8.56554 2.35671,-12.59143" fill="none" stroke="#beb7ff" stroke-width="2" stroke-linecap="butt"/><path d="M480.754,76.07781c0.27314,-3.20104 12.29109,-56.25327 68.34338,-51.04671c63.44537,5.89328 53.88439,60.89216 53.61125,64.09318c-0.27314,3.20098 -27.07023,-7.3898 -60.99388,-10.28447c-33.92365,-2.89466 -61.2339,0.43898 -60.96076,-2.76202z" fill="none" stroke="#beb7ff" stroke-width="2" stroke-linecap="butt"/><path d="M562.77367,150.0925c0,0 12.67919,12.45618 18.21733,32.1831c6.83062,24.33074 6.78704,57.00929 6.70584,58.36905c-0.34055,5.70245 -1.47844,15.51682 -5.28056,17.90334c-1.69352,1.06297 -5.67851,0.54649 -8.19166,-2.03168c-1.51105,-1.55015 -2.44861,-3.88914 -3.3005,-5.74754c-0.23721,-0.51744 -5.04989,-13.79355 -8.07147,-28.03974c-3.4865,-16.43822 -5.24477,-34.13074 -5.54183,-34.39591c-0.77838,-0.69488 0.18537,14.14348 3.09475,29.7315c3.05575,16.37245 8.08479,33.55717 8.08092,33.80666c-0.18947,12.15152 -0.50137,45.41061 1.5723,53.99303c3.40759,14.10332 17.65367,27.69206 17.65367,27.69206c0,0 -6.33851,1.34821 -15.44794,1.27209c-10.79575,-0.0902 -24.76577,-3.46962 -28.45034,-9.10665c-7.24665,-11.08675 -5.3458,-55.86677 -4.53051,-70.23607c0.09417,-1.66019 -10.62796,-2.12601 -16.58118,-2.44007c-0.3243,-0.01712 -2.88643,16.82202 -6.06305,34.98518c-2.48493,14.20816 -4.33277,29.06316 -12.48675,38.37486c-8.16602,9.32546 -44.80395,-1.38798 -45.03691,-1.39693c-0.43296,-0.01666 19.87875,-13.52296 22.34157,-22.55848c1.39139,-5.10462 9.17796,-32.87021 13.45268,-60.42723c2.78155,-17.93109 4.6594,-35.42748 6.65081,-46.1064c0.77057,-4.13216 0.76629,-7.58481 2.01656,-9.13901l21.83416,-30.73166" fill="none" stroke="#beb7ff" stroke-width="2" stroke-linecap="round"/><path d="M492.35655,252.97001c0,0 -4.7777,1.42062 -6.85546,-6.73039c-1.15044,-4.51311 -0.20971,-19.80246 3.11734,-35.5853c3.38103,-16.03889 9.18068,-32.59134 11.97908,-39.35488c6.41339,-15.50074 15.17059,-21.08758 15.17059,-21.08758" fill="none" stroke="#beb7ff" stroke-width="2" stroke-linecap="round"/><path d="M540.73136,155.2017c0,0 -6.38564,-26.72343 -3.54414,-55.2707c4.11533,-41.34476 14.47391,-72.81945 14.47391,-72.81945" fill="none" stroke="#beb7ff" stroke-width="2" stroke-linecap="round"/><path d="M598.12608,110.99639c0,0 -30.69114,6.13947 -59.56267,3.90697c-29.72832,-2.29875 -56.87811,-8.58614 -56.87811,-8.58614" fill="none" stroke="#beb7ff" stroke-width="2" stroke-linecap="round"/><path d="M453.48036,335.66164l16.06184,-323.2052l162.17514,0.32134l8.95455,324.82374z" fill="none" stroke="#beb7ff" stroke-width="2" stroke-linecap="round"/><path d="M586.38742,131.82258c0,0 -31.76628,4.26027 -47.88108,3.3068c-16.21081,-0.95914 -49.09743,-9.04472 -49.09743,-9.04472" fill="none" stroke="#beb7ff" stroke-width="1.5" stroke-linecap="round"/><path d="M570.56107,146.3292c0,0 -18.20785,7.36932 -28.54705,7.29586c-11.21284,-0.07967 -36.32189,-7.75678 -36.32189,-7.75678" fill="none" stroke="#beb7ff" stroke-width="1.5" stroke-linecap="round"/><path d="M484.63587,82.96811c0,0 27.82255,-1.59667 57.51054,1.17448c28.8324,2.6913 58.03966,13.94183 58.03966,13.94183" data-paper-data="{&quot;index&quot;:null}" fill="none" stroke="#beb7ff" stroke-width="2" stroke-linecap="round"/><path d="M487.20904,56.55005c0,0 40.21647,-1.84778 59.47812,0.2199c19.14758,2.05543 55.75158,12.14963 55.75158,12.14963" data-paper-data="{&quot;index&quot;:null}" fill="none" stroke="#beb7ff" stroke-width="1.5" stroke-linecap="round"/><path d="M502.91521,38.01755c0,0 38.30224,-3.41772 54.6455,-0.9636c15.06989,2.26293 39.90415,15.16132 39.90415,15.16132" data-paper-data="{&quot;index&quot;:null}" fill="none" stroke="#beb7ff" stroke-width="1.5" stroke-linecap="round"/><path d="M498.14499,138.2436c-5.18584,-10.74555 -10.16456,-25.55472 -8.30484,-40.49506c4.17659,-33.5528 20.56204,-59.91856 26.66048,-68.75542" fill="none" stroke="#beb7ff" stroke-width="2" stroke-linecap="round"/><path d="M562.22973,26.96976c0,0 2.53152,32.68062 -0.60783,74.24533c-2.16764,28.69911 -10.35776,54.26462 -10.35776,54.26462" data-paper-data="{&quot;index&quot;:null}" fill="none" stroke="#beb7ff" stroke-width="2" stroke-linecap="round"/><path d="M574.77709,32.38688c4.51308,9.74233 16.1947,38.503 14.62624,72.27836c-0.69839,15.03943 -8.1142,28.79099 -15.04561,38.50259" data-paper-data="{&quot;index&quot;:null}" fill="none" stroke="#beb7ff" stroke-width="2" stroke-linecap="round"/><path d="M607.79538,79.41991c0,0 2.04487,4.37985 2.09786,6.45423c0.05189,2.03148 -1.78319,5.86607 -1.78319,5.86607" fill="none" stroke="#beb7ff" stroke-width="2" stroke-linecap="round"/><path d="M616.96187,81.76317c0,0 2.49958,3.06062 2.75844,4.66607c0.25134,1.5589 -1.22719,4.83103 -1.22719,4.83103" fill="none" stroke="#beb7ff" stroke-width="2" stroke-linecap="round"/><path d="M603.40846,85.09478l23.79495,2.42066" fill="none" stroke="#beb7ff" stroke-width="2" stroke-linecap="round"/><path d="M567.25889,241.9076c0,0 7.80337,-4.45307 11.24724,-4.74404c2.84157,-0.24009 7.95861,3.12133 7.95861,3.12133" fill="none" stroke="#beb7ff" stroke-width="2" stroke-linecap="round"/><path d="M560.84002,223.04516c0,0 9.97778,-5.3816 14.19366,-5.83999c3.9555,-0.43009 10.37026,3.16916 10.37026,3.16916" fill="none" stroke="#beb7ff" stroke-width="2" stroke-linecap="round"/><path d="M559.47235,200.85043c0,0 10.22094,-4.20242 14.66224,-4.72082c3.70108,-0.43198 10.172,1.82216 10.172,1.82216" fill="none" stroke="#beb7ff" stroke-width="2" stroke-linecap="round"/><path d="M557.37611,190.13433c0,0 6.46246,-13.7184 9.61581,-17.69362c2.2592,-2.84801 7.53293,-3.92468 7.53293,-3.92468" fill="none" stroke="#beb7ff" stroke-width="2" stroke-linecap="round"/><path d="M549.42886,156.84092l6.66533,30.67516" fill="none" stroke="#beb7ff" stroke-width="2" stroke-linecap="round"/><path d="M559.00586,153.39303c0,0 4.02623,4.54693 7.65729,11.37817c2.89991,5.45572 5.26177,12.52577 7.21737,18.74626c2.66208,8.4677 4.71606,17.21989 6.05277,23.6433c3.4474,16.566 5.3353,50.08236 5.3353,50.08236" fill="none" stroke="#beb7ff" stroke-width="2" stroke-linecap="round"/><path d="M550.71076,159.45919c0,0 4.92963,5.62532 7.69148,15.02159c3.18226,10.82657 4.29755,25.82461 5.01318,29.26348c3.4474,16.566 14.11067,53.08913 14.11067,53.08913" fill="none" stroke="#beb7ff" stroke-width="1.5" stroke-linecap="round"/><path d="M487.38544,237.09923l6.82528,2.3386" fill="none" stroke="#beb7ff" stroke-width="2" stroke-linecap="round"/><path d="M495.52841,223.99527l-6.84653,-2.08952" fill="none" stroke="#beb7ff" stroke-width="2" stroke-linecap="round"/><path d="M497.22866,204.06943l-6.0143,-3.02206" fill="none" stroke="#beb7ff" stroke-width="2" stroke-linecap="round"/><path d="M505.45329,181.18787l-2.42437,-12.75121" fill="none" stroke="#beb7ff" stroke-width="2" stroke-linecap="round"/><path d="M490.18043,251.38738c0,0 3.91779,-48.4127 8.91817,-64.90845c4.88461,-16.11382 20.74498,-32.94705 20.74498,-32.94705c0,0 -10.55167,-27.2076 -7.50268,-55.8787c4.41582,-41.52411 18.48619,-72.84115 18.48619,-72.84115" fill="none" stroke="#beb7ff" stroke-width="2" stroke-linecap="round"/><path d="M563.7659,244.62021c0,0 -21.014,1.84065 -31.96192,1.2312c-11.57359,-0.64427 -35.70696,-4.9982 -35.70696,-4.9982" fill="none" stroke="#beb7ff" stroke-width="2" stroke-linecap="round"/><path d="M561.07716,229.08667c0,0 -21.41501,0.89816 -32.11693,0.20282c-9.75214,-0.63363 -29.51042,-4.20698 -29.51042,-4.20698" fill="none" stroke="#beb7ff" stroke-width="2" stroke-linecap="round"/><path d="M557.13375,207.67572c0,0 -17.56457,2.23318 -27.26342,2.09918c-8.95209,-0.12368 -28.86903,-2.87472 -28.86903,-2.87472" fill="none" stroke="#beb7ff" stroke-width="2" stroke-linecap="round"/><path d="M554.55127,190.89685c0,0 -16.61031,0.31546 -25.09731,-0.16273c-8.81232,-0.49652 -26.83743,-2.76348 -26.83743,-2.76348" fill="none" stroke="#beb7ff" stroke-width="2" stroke-linecap="round"/><path d="M508.91906,181.73448l-7.73429,58.29842c0,0 -10.23654,49.39569 -16.30446,64.22059c-5.21228,12.73444 -20.16944,19.22305 -20.16944,19.22305" fill="none" stroke="#beb7ff" stroke-width="2" stroke-linecap="round"/><path d="M518.51992,166.24605l-9.24326,75.98263c0,0 -5.10419,31.42473 -9.33699,44.53287c-4.79102,14.83686 -17.94244,39.94621 -17.94244,39.94621" fill="none" stroke="#beb7ff" stroke-width="2" stroke-linecap="round"/><path d="M529.62455,156.65636l-7.87297,86.3859l-16.45705,81.13747" fill="none" stroke="#beb7ff" stroke-width="2" stroke-linecap="round"/><path d="M540.08562,157.54898l-3.28936,88.53323l-1.61264,7.13812" fill="none" stroke="#beb7ff" stroke-width="2" stroke-linecap="round"/><path d="M514.99972,172.21787c0,0 11.49376,-0.32889 17.10525,-0.01117c6.01255,0.34043 17.85001,1.99031 17.85001,1.99031l-1.15471,69.39709c0,0 -0.99686,44.46666 1.67302,61.44748c1.82929,11.63454 12.80086,30.60854 12.80086,30.60854" fill="none" stroke="#beb7ff" stroke-width="2" stroke-linecap="round"/><path d="M563.96607,154.0672l-10.01996,17.45974" fill="none" stroke="#beb7ff" stroke-width="2" stroke-linecap="round"/><path d="M509.30084,156.67837l7.53932,8.6717" fill="none" stroke="#beb7ff" stroke-width="2" stroke-linecap="round"/><path d="M519.79891,254.16556c0,0 -7.76631,1.57895 -11.94838,0.96805c-4.0751,-0.59528 -12.83143,-4.58781 -12.83143,-4.58781" fill="none" stroke="#beb7ff" stroke-width="2" stroke-linecap="round"/><path d="M519.94844,272.9948c0,0 -11.40552,0.88671 -16.85566,-0.10547c-4.85755,-0.88431 -12.96341,-6.20226 -12.96341,-6.20226" fill="none" stroke="#beb7ff" stroke-width="2" stroke-linecap="round"/><path d="M515.52962,292.43784c0,0 -9.00986,2.1291 -13.77677,1.12573c-5.21541,-1.09779 -16.29136,-7.45471 -16.29136,-7.45471" fill="none" stroke="#beb7ff" stroke-width="2" stroke-linecap="round"/><path d="M506.43026,316.75003c0,0 -10.60634,0.15363 -14.42837,-1.98588c-4.52066,-2.53062 -10.95323,-12.22245 -10.95323,-12.22245" fill="none" stroke="#beb7ff" stroke-width="2" stroke-linecap="round"/><path d="M480.66684,327.59778c0,0 -5.16757,-4.95828 -6.07262,-7.74433c-0.88263,-2.71705 0.70785,-8.7702 0.70785,-8.7702" fill="none" stroke="#beb7ff" stroke-width="2" stroke-linecap="round"/><path d="M567.55721,258.99338c0,0 -9.16058,2.73075 -13.7475,2.33936c-4.62843,-0.39494 -13.89964,-4.69845 -13.89964,-4.69845" fill="none" stroke="#beb7ff" stroke-width="2" stroke-linecap="round"/><path d="M568.45393,277.8864c0,0 -10.05819,1.99592 -15.18238,1.60239c-4.62946,-0.35555 -14.2295,-3.86119 -14.2295,-3.86119" fill="none" stroke="#beb7ff" stroke-width="2" stroke-linecap="round"/><path d="M568.04752,294.41025c0,0 -9.07594,3.9964 -13.81681,4.09443c-4.72584,0.09773 -14.58349,-3.50716 -14.58349,-3.50716" fill="none" stroke="#beb7ff" stroke-width="2" stroke-linecap="round"/><path d="M571.20719,313.24548c0,0 -9.90341,5.00421 -14.89055,5.97388c-4.87492,0.94786 -14.7033,-0.21982 -14.7033,-0.21982" fill="none" stroke="#beb7ff" stroke-width="2" stroke-linecap="round"/><path d="M577.20956,322.28779c0,0 -1.54709,4.934 -3.57877,6.7249c-1.94335,1.71304 -8.35809,3.79733 -8.35809,3.79733" fill="none" stroke="#beb7ff" stroke-width="2" stroke-linecap="round"/><path d="M580.34462,332.59074c0,0 -16.12457,-20.62128 -17.65862,-34.86289c-2.13606,-19.83055 -2.17409,-76.71778 -2.17409,-76.71778" fill="none" stroke="#beb7ff" stroke-width="2" stroke-linecap="round"/><path d="M548.20875,18.24734l-2.66671,4.79018" fill="none" stroke="#beb7ff" stroke-width="2" stroke-linecap="round"/><path d="M554.9218,24.84143l1.07197,-6.68247" fill="none" stroke="#beb7ff" stroke-width="2" stroke-linecap="round"/><path d="M564.79039,20.91669l0.57123,5.06647" fill="none" stroke="#beb7ff" stroke-width="2" stroke-linecap="round"/></g></g></svg>