<svg version="1.1" xmlns="http://www.w3.org/2000/svg" xmlns:xlink="http://www.w3.org/1999/xlink" width="232.14159" height="251.04632" viewBox="0,0,232.14159,251.04632"><g transform="translate(-203.58353,-54.66024)"><g data-paper-data="{&quot;isPaintingLayer&quot;:true}" fill-rule="nonzero" stroke-linejoin="miter" stroke-miterlimit="10" stroke-dasharray="" stroke-dashoffset="0" style="mix-blend-mode: normal"><path d="M217.39166,290.80219c0,0 8.52289,-84.43328 -5.52637,-120.10672c-9.30534,-23.62787 -6.4852,-47.71713 -2.88222,-62.8851c2.2945,-9.65947 15.97984,-15.63364 26.75107,-15.56827c25.27932,0.15342 129.10896,0.7835 164.43732,0.9979c7.43189,0.04511 4.87932,3.2048 5.73886,17.04124c0.33397,5.37613 1.8474,12.36817 5.40645,21.42018c8.43916,21.46411 19.40019,63.89512 22.40835,101.94047c2.42701,30.69554 -2.31561,60.26788 -2.31561,60.26788c0,0 5.32879,8.87692 -15.23495,9.79679c-50.15876,2.24373 -159.17881,-2.16912 -183.49888,-2.52225c-12.99816,-0.18874 -15.28399,-10.3821 -15.28399,-10.3821z" fill="#fff6b5" stroke="#ddd173" stroke-width="4" stroke-linecap="butt"/><path d="M238.57416,251.15368c0,0 6.88518,-61.62116 -4.46444,-87.65639c-7.51727,-17.24413 -5.23903,-34.82497 -2.32839,-45.89487c1.85359,-7.04968 12.90922,-11.40975 21.6107,-11.36204c20.42175,0.11196 104.29993,0.57181 132.83975,0.72829c6.00382,0.03291 3.94172,2.33893 4.6361,12.43705c0.2698,3.92361 1.49243,9.02654 4.36758,15.63289c6.81754,15.66496 15.67234,46.63199 18.10245,74.39827c1.96064,22.40225 -1.87066,43.98476 -1.87066,43.98476c0,0 4.30484,6.47856 -12.30746,7.1499c-40.52047,1.63751 -128.59169,-1.58306 -148.23853,-1.84079c-10.50048,-0.13775 -12.3471,-7.57706 -12.3471,-7.57706z" fill="#fffef9" stroke="none" stroke-width="0" stroke-linecap="butt"/><path d="M376.00423,196.23637c0.00796,1.87967 2.45563,8.00816 2.30736,9.82744c-2.33472,28.64652 -26.15326,45.12474 -53.70943,45.24141c-26.85817,0.1137 -51.04954,-18.34363 -54.88765,-45.83708c-0.34984,-2.50594 0.17365,-6.15308 0.16252,-8.78246c-0.13326,-31.47706 23.51609,-57.09481 52.8223,-57.21888c29.30621,-0.12407 53.17163,25.29254 53.30488,56.76959z" fill="#ffffff" stroke="#000000" stroke-width="2" stroke-linecap="butt"/><path d="M371.26769,146.34994c0.73686,7.06629 -25.31128,24.90361 -54.26343,27.92268c-28.95214,3.01907 -51.61772,-6.69986 -52.35458,-13.76614c-0.73686,-7.06629 17.47724,-18.43838 46.42937,-21.45745c28.95214,-3.01908 59.45178,0.23462 60.18863,7.30092z" fill-opacity="0.36859" fill="#191318" stroke="#000000" stroke-width="0" stroke-linecap="butt"/><path d="M376.48777,181.21485c-4.6684,1.37685 -6.04525,-3.2916 -6.04525,-3.2916l-1.36721,-4.72713c-0.01962,-0.99129 0.57972,-2.21541 -0.05884,-2.97388c-1.03953,-1.23474 -3.38753,-0.8859 -4.30732,-2.21221c-0.83675,-1.20659 -1.19301,-2.64615 -1.4935,-4.11273c-0.2933,0.38427 -0.60419,0.68992 -0.93425,0.83157c-3.10887,1.33414 -11.74473,0.75547 -14.91132,-0.39227c-2.21919,-0.80434 -4.26742,-2.13131 -6.05309,-3.67506c-0.87543,-0.75684 -2.0558,-4.83639 -4.46939,-4.47097c-3.04259,0.46062 -6.14929,0.9506 -8.9712,2.17798c-1.72198,0.74897 -2.63241,2.90535 -4.41306,3.50154c-6.14888,2.05871 -11.64958,-2.12879 -17.1766,-0.89486c-3.04349,0.67947 -4.89415,3.8937 -7.56372,5.50547c-4.25716,2.57029 -6.20838,2.89297 -10.75536,4.29248c-2.18585,1.31099 -5.11974,1.92202 -6.46123,4.0893c-1.39479,2.2534 0.23146,5.31084 -0.00472,7.95043c-0.61529,6.87707 -2.327,12.33814 -6.00853,17.98734c0.50248,0.91077 0.72193,2.12632 0.2277,3.71722c-1.44398,4.6481 -6.09206,3.20411 -6.09206,3.20411c-2.15379,-0.75529 -4.63086,-0.90258 -6.46136,-2.26582c-5.73107,-4.26816 -7.53037,-13.39538 -7.34519,-20.00509c0.06078,-2.16908 0.39262,-4.36674 1.11094,-6.41434c0.47518,-1.35454 0.64184,-5.50811 0.26694,-6.71423c-0.80141,-2.57827 -1.07943,-9.78511 -0.51966,-12.42034c0.46402,-2.18451 4.11831,-10.0423 5.60721,-11.5672c1.85456,-1.89942 5.79727,-2.06558 7.09893,-4.88441c2.28228,-4.94245 2.20919,-10.60755 6.10161,-15.07294c2.14173,-2.45701 7.88594,-5.49138 10.63424,-7.08577c5.16889,-1.0754 9.32445,-2.39738 14.62788,-1.89911c1.41763,0.1332 2.67991,1.53762 4.07845,1.27014c1.43028,-0.27357 2.11067,-2.08861 3.42946,-2.70614c11.79147,-5.52154 28.63694,-8.74775 39.96877,-1.13979c2.01205,1.35086 4.15795,2.65264 5.67952,4.53892c0.97388,1.2073 0.48899,3.24341 1.52752,4.39555c0.71704,0.79549 2.08142,0.5055 3.12127,0.76173c3.82822,0.94334 7.64685,2.29749 10.97455,4.41212c10.02935,6.37329 14.18693,16.5591 14.72528,28.07195c-0.69522,6.44366 0.66532,11.37433 -5.82747,11.40172c0.06193,0.34459 0.13251,0.68534 0.21823,1.01933l1.13343,3.75176c0,0 1.37683,4.6684 -3.29159,6.04525z" fill="#000000" stroke="none" stroke-width="0.5" stroke-linecap="butt"/><path d="M313.49771,201.63015c0.02381,5.62442 -2.99655,10.19678 -6.74616,10.21266c-3.74961,0.01587 -6.80858,-4.53075 -6.8324,-10.15516c-0.02381,-5.62442 2.99654,-10.19679 6.74615,-10.21267c3.74961,-0.01587 6.80858,4.53076 6.83239,10.15517z" fill="#000000" stroke="#000000" stroke-width="0" stroke-linecap="butt"/><path d="M347.92619,199.1283c0.01958,4.91948 -2.52426,8.91907 -5.68182,8.93327c-3.15756,0.01422 -5.73317,-3.9623 -5.75275,-8.88179c-0.01958,-4.91948 2.52428,-8.91905 5.68185,-8.93326c3.15756,-0.01422 5.73317,3.96229 5.75274,8.88178z" fill="#000000" stroke="#000000" stroke-width="0" stroke-linecap="butt"/><path d="M358.89836,217.64157c0,0 -6.70228,1.82283 -15.33033,2.70061c-7.12665,0.72505 -15.78838,0.44015 -21.11644,1.17944c-11.02992,1.53044 -29.18034,3.44179 -33.31747,-2.24579" fill="none" stroke="#000000" stroke-width="2" stroke-linecap="round"/><g stroke-linecap="butt"><path d="M338.90818,158.14443c0.05532,0.34975 -0.17113,4.07294 0.5198,7.63757c0.7894,4.07254 4.12187,8.23407 1.66248,10.9659c-6.27928,6.97484 -24.94528,6.81208 -30.55577,7.57607c-5.16645,0.70352 -4.99842,-5.0999 -5.34563,-10.74634c-0.30675,-4.98895 -1.38971,-9.80442 -1.52104,-10.63448c-0.27998,-1.7695 7.38186,-4.2782 17.11315,-5.60332c9.73129,-1.32514 17.84704,-0.9649 18.127,0.8046z" fill="#ffc98b" stroke="#000000" stroke-width="2"/><path d="M306.21529,165.95761c-0.17305,-1.09371 0.77768,-1.22318 0.77768,-1.22318l0.32694,-0.04123c8.20474,-0.37813 11.70819,14.76384 3.06385,16.01601c0,0 -0.00429,0.00058 -0.01235,0.00134c-0.11834,0.13427 -0.29276,0.23884 -0.54844,0.27365c-0.95073,0.12946 -1.12376,-0.96426 -1.12376,-0.96426l-0.06153,-0.38887c-0.67472,-4.2645 -1.1933,-8.54903 -1.85442,-12.80712c-0.24169,-0.1164 -0.48795,-0.36061 -0.56797,-0.86633zM310.39755,178.46335c5.32138,-1.07104 3.23207,-10.30182 -1.64583,-11.45615c0.57972,3.81103 1.06024,7.63932 1.64583,11.45615z" fill="#000000" stroke="none" stroke-width="0.5"/><path d="M319.6051,162.74073c0.82465,-0.33141 1.16604,0.71769 1.16604,0.71769l0.20568,0.68767c0.31004,1.95956 0.62054,3.91903 0.92937,5.87874c0.16823,1.90207 0.56755,4.96544 -0.4954,6.44194c-1.29988,1.8056 -3.56467,1.17462 -4.69996,-0.84818c-1.58163,-2.81806 -1.60783,-8.14486 -2.12238,-11.39708c0,0 -0.17306,-1.09371 0.70254,-1.21296c0.87559,-0.11923 1.04865,0.9745 1.04865,0.9745c0.46668,2.94949 0.46181,7.93063 1.82092,10.51096c1.96388,3.72852 2.0729,-3.34566 1.98157,-4.32183c-0.30654,-1.92907 -0.61125,-3.85839 -0.91648,-5.78762l-0.10379,-0.26331c0,0 -0.3414,-1.04909 0.48324,-1.38052z" fill="#000000" stroke="none" stroke-width="0.5"/><path d="M324.88093,175.80829c-0.9261,0.12609 -1.11487,-1.06696 -1.11487,-1.06696l-0.03355,-0.2121c-0.58251,-3.73717 -0.99146,-7.34307 -0.79958,-11.04534c0,0 0.05417,-1.04237 0.83973,-1.01244c0.5786,-0.07711 0.86862,0.36142 1.00454,0.69971c0.84312,1.08167 1.46158,2.34894 2.14442,3.5794c0.21981,-1.47391 0.28821,-3.0421 0.46328,-4.51041c0,0 0.13909,-1.16433 1.07394,-0.87513c0.02103,0.0065 0.0415,0.01344 0.06144,0.02081c0.73021,-0.18629 1.08052,0.78182 1.08052,0.78182l0.18339,0.51864c1.00501,3.58584 1.81272,7.53514 1.68773,11.19299c0,0 -0.04149,1.18803 -0.98571,1.02102c-0.94423,-0.16701 -0.90275,-1.35504 -0.90275,-1.35504c0.07224,-2.02235 -0.55589,-4.11491 -0.80211,-6.24129c-0.08883,0.63438 -0.19923,1.25763 -0.34726,1.86023l-0.25464,0.51497c-0.0467,0.1459 -0.12715,0.29245 -0.25448,0.43231c-0.19633,0.21566 -0.39069,0.29079 -0.56787,0.28854c-0.17697,0.0004 -0.38234,-0.07675 -0.60996,-0.29458c-0.12711,-0.12166 -0.22018,-0.24794 -0.28687,-0.3742c-0.64175,-0.96331 -1.16269,-2.05888 -1.73315,-3.08819c-0.03079,2.55021 0.44138,5.04838 0.85759,7.63399l0.03354,0.2121c0,0 0.18876,1.19308 -0.73734,1.31918z" fill="#000000" stroke="none" stroke-width="0.5"/><path d="M338.79482,174.3428c0.11151,1.19507 -0.69441,1.2401 -0.69441,1.2401l-0.2967,0.01304c-1.2079,0.20633 -4.53209,1.33264 -5.2697,-1.0545c-0.2105,-0.68126 0.25759,-1.35129 0.38503,-2.02765c0.23231,-1.23287 1.31655,-5.69007 2.3201,-7.42002c-0.93171,0.00413 -1.85687,0.0745 -2.78649,0.12644c0,0 -0.80592,0.04502 -0.91745,-1.15004c-0.11151,-1.19507 0.69441,-1.24009 0.69441,-1.24009c1.29185,-0.07217 2.56987,-0.16269 3.87207,-0.09247l0.07564,0.05846l0.00337,-0.03761l0.80024,0.26877c0.36287,0.10978 0.66672,0.56545 0.719,1.12566c0.03837,0.41101 -0.06774,0.7814 -0.26074,1.00835l-0.48223,0.58406c-0.67378,1.79922 -1.26035,3.63573 -1.8934,5.50888c-0.20917,0.6189 -0.34118,1.86446 -0.72339,2.40854c0.15637,-0.09023 0.32939,-0.17354 0.4333,-0.18876c0.89187,-0.13063 1.79252,-0.10017 2.68424,-0.25423l0.41968,-0.02698c0,0 0.80593,-0.04502 0.91745,1.15004z" fill="#000000" stroke="none" stroke-width="0.5"/></g><g stroke="#000000"><path d="M389.91227,130.4585c0.72201,8.51899 -6.54774,20.60595 -47.36251,27.99758c-74.78249,13.54325 -100.00985,5.62904 -100.73186,-2.88995c-0.72201,-8.51899 31.84474,-21.04551 72.73988,-27.97879c40.89513,-6.93327 74.63249,-5.64783 75.3545,2.87118z" fill="#1f1d1c" stroke-width="2" stroke-linecap="butt"/><path d="M360.00146,132.32917c0.3164,5.94975 -16.11287,13.78844 -44.7503,17.72244c-28.63743,3.93401 -46.7024,-1.04827 -47.01881,-6.99801c-0.04131,-0.77684 -14.97615,-68.97558 -14.26305,-69.80908c4.74844,-5.55018 26.45696,-11.99701 51.35532,-15.41736c23.86105,-3.27786 43.03303,-2.74655 49.31548,0.98231c1.25759,0.74643 5.30859,72.52736 5.36135,73.51971z" fill="#1f1d1c" stroke-width="2" stroke-linecap="butt"/><path d="M360.29859,115.8402c0.14486,0.78082 3.03273,16.754 1.15712,17.8029c-46.76461,26.15223 -88.41845,13.63801 -90.90291,14.09891c-2.78478,0.51662 -3.8412,-2.13785 -5.35589,-8.57898c-1.30876,-5.56541 -2.06594,-11.27658 0.71883,-11.79321c1.61252,-0.29914 30.18476,0.35348 56.43177,-3.81627c19.08075,-3.03126 37.38564,-10.76123 37.95108,-7.71335z" fill="#770e00" stroke-width="2" stroke-linecap="butt"/><path d="M266.60879,137.76938l10.3513,0.48543" fill="none" stroke-width="1.5" stroke-linecap="round"/><path d="M359.17972,124.22418l-8.02011,3.20118" fill="none" stroke-width="1.5" stroke-linecap="round"/></g><path d="M375.55075,124.69696c0.81822,4.36434 -0.18209,21.4315 -47.15108,30.79555c-46.12437,9.19565 -69.7439,0.50293 -70.56212,-3.86141c-0.32451,-1.7309 3.04367,-4.2715 9.54378,-7.14171c3.29755,-1.45608 0.32854,5.01477 6.18204,5.98974c11.7011,1.94897 35.18164,0.23576 50.12143,-2.56512c13.11084,-2.45798 24.79389,-6.25624 31.17325,-9.81938c4.91029,-2.74258 5.3665,-5.6316 8.975,-5.90712c1.12011,-0.08552 -1.79034,-9.7546 -0.76774,-9.74095c3.52902,0.04713 12.24733,0.98024 12.48543,2.25038z" fill-opacity="0.3426" fill="#0d0010" stroke="none" stroke-width="0" stroke-linecap="butt"/><path d="M310.19303,223.31026c0,0 -2.87423,7.43327 -12.92191,7.67268c-6.38464,0.15214 -3.81578,-7.46101 -3.81578,-7.46101" fill="#ffa8d5" stroke="#000000" stroke-width="2.5" stroke-linecap="round"/><path d="M292.42911,297.41215c-1.06257,-0.72907 -2.52651,-0.97947 -3.34705,-1.99721c-0.12514,-0.15522 -0.23532,-0.32825 -0.32683,-0.52359c-1.90767,-4.07218 0.16013,-16.49752 3.72135,-19.58585c2.39726,-2.07895 4.83574,-3.00718 7.58883,-1.60293c1.44073,0.73487 2.03856,4.57156 3.46709,3.80314c3.8614,-2.0771 5.45024,-8.15888 11.12477,-4.52487c5.95329,3.81252 5.03105,11.87256 5.03105,19.10786c0,3.49185 -3.56221,7.38098 -6.37679,5.44975c-4.28716,-2.94163 0.46127,-12.6794 -2.25711,-14.67679c-0.51714,-0.37998 -6.72362,10.17194 -7.42568,10.34056c-2.24672,0.53956 -4.31799,-0.70693 -5.31099,-3.18861c-0.44298,-1.10709 -0.18755,-3.99476 -1.10004,-3.43975c-1.49058,0.90661 0.44478,7.24746 -1.17009,8.35551z" fill="#ff9638" stroke="none" stroke-width="0.5" stroke-linecap="butt"/><path d="M341.20629,272.7791c2.3372,2.21827 1.90999,5.70045 0.66511,8.34419c-0.09214,0.19567 -2.45498,4.55779 -2.45302,4.55924c2.48898,1.85581 5.95766,-2.08968 5.95766,5.04163c0,9.20939 -20.43243,9.33897 -24.08829,2.25467c-2.16457,-4.19445 2.825,-7.94535 6.14455,-8.86429c0.99842,-0.2764 1.19501,-0.19151 1.9442,-0.87797c0.81986,-0.7512 3.20778,-2.53847 2.146,-2.6172c-3.61536,-0.26812 -9.05438,2.78696 -10.8521,-0.69667c-1.34197,-0.87701 -2.24223,-2.49458 -2.24223,-4.34495c0,-2.78441 2.03848,-5.04163 4.55307,-5.04163c0.1975,0 0.39211,0.01392 0.583,0.04096c5.50739,-2.81392 13.21346,-2.00122 17.64204,2.20201z" fill="#ff9638" stroke="none" stroke-width="0.5" stroke-linecap="butt"/><path d="M398.77174,268.14734c2.23655,-2.65314 3.85572,-4.87583 5.74936,-4.86579c1.11461,0.00591 2.32433,0.78538 3.81103,2.70598c0.94597,1.22203 2.10163,4.60146 2.45741,6.27003c0.3388,1.58883 -0.23783,6.13539 0.6622,4.84237c2.06025,-2.95982 2.94805,-12.74168 5.50987,-14.44368c3.68094,-2.44555 5.52141,-1.93607 7.72998,2.13985c1.2468,2.30095 -0.99147,6.14329 -1.61956,8.20702c-1.64138,5.39315 -7.24815,21.86217 -13.50258,22.24692c-5.98331,0.36808 -6.54236,-16.32004 -7.64955,-20.58703c-0.25651,-0.98865 -2.40788,-3.5969 -2.41677,-3.77416z" fill="#6676ff" stroke="none" stroke-width="0.5" stroke-linecap="butt"/><path d="M380.50274,270.48932c0.01849,-0.03973 0.03756,-0.07867 0.05723,-0.11678c2.40667,-4.66401 10.5678,-4.74425 14.22147,-2.89712c2.50974,1.26883 4.67113,7.27436 5.22648,10.18022c0.17234,0.90178 0.14749,1.68605 -0.01584,2.34893c0.19853,0.28212 0.38004,0.58794 0.54284,0.91924l-1.3246,2.69538c-0.58616,1.19274 -3.18956,0.24978 -4.22276,0.22791c-1.05083,-0.02224 -6.43302,0.39837 -10.73833,-0.19107c0.61179,1.19267 1.40779,2.2316 2.37304,2.97436c3.3547,2.58139 6.5062,-0.38446 9.10434,-0.37267c2.8702,0.01302 4.70653,3.40388 2.26383,5.66088c-5.23125,4.83349 -14.70833,3.01336 -19.06087,-2.32132c-2.18899,-2.68292 -1.38943,-6.74674 -1.51649,-10.30756c-0.1398,-3.91795 0.812,-8.3728 3.08966,-8.8004zM394.84918,279.54941c1.16038,-0.27594 -0.49556,-4.68367 -0.61645,-4.86555c-1.06653,-1.60448 -4.75497,-1.9982 -7.50032,-0.90154c-1.78129,0.71152 -2.06047,5.01882 -2.07393,5.07944c0.20033,0.85418 7.96835,1.21612 10.19071,0.68765z" data-paper-data="{&quot;index&quot;:null}" fill="#6676ff" stroke="#6676ff" stroke-width="1" stroke-linecap="butt"/><path d="M348.48684,296.37975c0.0279,-0.05407 0.05586,-0.10758 0.08387,-0.16056c-0.08214,-0.23172 -0.15824,-0.46699 -0.22911,-0.70564c-0.94045,-3.16657 -0.96393,-6.92494 -2.06818,-10.79506c-1.0911,-3.82403 -2.19882,-7.74201 -3.10254,-11.62165c-0.71302,-3.06102 -2.65926,-8.96156 -2.1863,-12.22841c0.25694,-1.77467 1.49685,-3.13759 2.96802,-3.75185c0.72569,-1.45187 2.12307,-2.43487 3.72776,-2.43487c0.26125,0 0.51703,0.02605 0.76528,0.07595c8.21089,-3.3461 21.47546,3.43173 24.37478,12.09322c0.22713,0.67852 1.56411,4.53363 2.20017,9.07387c0.88731,6.33365 0.89854,14.00061 -1.05024,16.23737c-3.9005,4.47692 -8.15227,4.65812 -13.1002,6.3749c-1.26381,0.4385 -5.66956,2.5713 -8.34136,2.6748l-0.02536,0.01605c-0.00758,-0.00479 -0.01516,-0.00961 -0.02271,-0.01442c-0.8978,0.02671 -1.5933,-0.18192 -1.89707,-0.77058zM363.54795,288.4426c9.25496,-4.94309 0.38651,-21.82718 -3.1337,-22.93357c-3.09359,-0.97231 -6.22087,-0.94322 -9.36177,-1.14779c1.89926,6.67005 2.76916,14.80604 4.22179,20.95087c0.21235,0.89826 0.76402,2.97683 1.20876,5.2545c2.14037,-0.42181 4.48902,-0.74824 7.06491,-2.12402z" fill="#6676ff" stroke="none" stroke-width="0.5" stroke-linecap="butt"/><path d="M251.29519,258.5446c7.45549,4.42379 11.58777,19.92906 8.7674,27.96123c-2.55755,7.28372 -9.71962,13.59695 -16.54646,14.47814c-3.1285,0.40382 -8.05954,2.81485 -9.62481,-1.7744c-1.87909,-1.88645 -1.66714,-5.71662 -1.69252,-8.42668c-0.07982,-8.51506 2.13263,-20.3883 -0.42041,-28.71822c-0.11639,-0.35649 -0.19988,-0.73234 -0.24603,-1.12374c-0.34295,-2.90962 1.50914,-5.57617 4.13682,-5.95596c0.02704,-0.00392 0.05405,-0.00757 0.08105,-0.01095c0.35116,-0.15042 0.72405,-0.25714 1.11402,-0.31351c0.74375,-0.1075 1.46993,-0.02024 2.13667,0.22609c3.82711,-0.60167 8.45466,1.37969 12.29432,3.65801zM250.93576,282.9021c0.71559,-1.60067 -0.40514,-7.30592 -0.43312,-7.50392c-1.0363,-7.33034 -4.75773,-8.34504 -8.31852,-8.65404c0.4691,7.14868 0.34157,17.05459 0.04922,23.30076c3.61949,-1.86618 7.29715,-3.99946 8.7024,-7.1428z" fill="#ff9638" stroke="none" stroke-width="0.5" stroke-linecap="butt"/><path d="M266.30417,268.72884c2.76105,1.74705 3.75787,4.43399 4.08018,7.2815c0.68442,6.04676 -1.67271,12.81758 3.36356,12.84984c8.22145,0.05267 -1.87346,-22.21675 10.44536,-17.17562c3.22102,1.3181 2.02561,7.45218 2.00783,10.15222c-0.0656,9.95555 -3.09151,17.71032 -13.19203,17.10666c-8.85676,-0.52932 -12.5544,-9.432 -11.79267,-17.95026c0.13583,-1.51892 0.10531,-9.11174 1.16387,-9.78151z" fill="#ff9638" stroke="none" stroke-width="0.5" stroke-linecap="butt"/></g></g></svg>