<svg version="1.1" xmlns="http://www.w3.org/2000/svg" xmlns:xlink="http://www.w3.org/1999/xlink" width="86.06624" height="104.4052" viewBox="0,0,86.06624,104.4052"><g transform="translate(-276.84254,-127.64708)"><g data-paper-data="{&quot;isPaintingLayer&quot;:true}" fill-rule="nonzero" stroke-linecap="butt" stroke-linejoin="miter" stroke-miterlimit="10" stroke-dasharray="" stroke-dashoffset="0" style="mix-blend-mode: normal"><path d="M283.09013,223.9252c0,0 3.06582,-40.08958 -1.98794,-57.0276c-3.34729,-11.2187 -2.33283,-22.65647 -1.03676,-29.85832c0.82537,-4.58639 5.74818,-7.42298 9.62278,-7.39194c9.09338,0.07285 46.44257,0.37203 59.15076,0.47381c2.67339,0.02141 1.7552,1.52166 2.06437,8.09132c0.12014,2.55263 0.66453,5.8725 1.94478,10.17046c3.03569,10.19134 6.97857,30.33788 8.06065,48.40212c0.87304,14.57448 -0.83294,28.61565 -0.83294,28.61565c0,0 1.91683,4.21483 -5.48024,4.65158c-18.0429,1.06534 -57.2592,-1.02992 -66.00752,-1.19757c-4.67565,-0.08962 -5.49789,-4.9295 -5.49789,-4.9295z" data-paper-data="{&quot;index&quot;:null}" fill="#fff6b5" stroke="#ddd173" stroke-width="4"/><path d="M292.32047,207.85782c0,0 2.52498,-25.61217 -1.63724,-38.12547c-2.75678,-8.28804 -1.92129,-20.74271 -0.85389,-26.06323c0.67977,-3.38828 4.97305,-6.60521 8.16412,-6.58227c5.50353,0.03954 23.44497,1.73608 36.72547,2.15311c4.79161,0.15047 8.97649,-0.70167 11.75151,-0.68173c2.20176,0.01582 1.44554,1.12416 1.70018,5.97762c0.09894,1.8858 0.54731,4.33842 1.60171,7.51363c2.50017,7.52905 6.5836,27.21848 7.47479,40.56378c0.71902,10.76719 -1.52216,16.33462 -1.52216,16.33462c0,0 1.5787,3.11379 -4.51347,3.43645c-9.3347,0.4944 -23.87835,1.66933 -36.43269,1.25275c-7.43096,-0.24658 -15.25134,-2.09143 -17.93032,-2.13749c-3.85081,-0.06621 -4.52801,-3.64176 -4.52801,-3.64176z" fill="#fffef9" stroke="none" stroke-width="0"/></g></g></svg>