<svg version="1.1" xmlns="http://www.w3.org/2000/svg" xmlns:xlink="http://www.w3.org/1999/xlink" width="44" height="44.67544" viewBox="0,0,44,44.67544"><g transform="translate(-297.16667,-164.16228)"><g data-paper-data="{&quot;isPaintingLayer&quot;:true}" fill-rule="nonzero" stroke-linejoin="miter" stroke-miterlimit="10" stroke-dasharray="" stroke-dashoffset="0" style="mix-blend-mode: normal"><path d="M338.41667,186.5c0,10.818 -8.61852,19.58772 -19.25,19.58772c-10.63148,0 -19.25,-8.76972 -19.25,-19.58772c0,-10.818 8.61852,-19.58772 19.25,-19.58772c10.63148,0 19.25,8.76972 19.25,19.58772z" fill="#7c30e3" stroke="#000000" stroke-width="5.5" stroke-linecap="butt"/><path d="M339.41667,186.33333c0,10.818 -8.61852,19.58772 -19.25,19.58772c-10.63148,0 -19.25,-8.76972 -19.25,-19.58772c0,-10.818 8.61852,-19.58772 19.25,-19.58772c10.63148,0 19.25,8.76972 19.25,19.58772z" fill="#7c30e3" stroke="#7c30e3" stroke-width="0" stroke-linecap="butt"/><path d="M319.23904,176.97368l1.85526,18.7193" fill="none" stroke="#ffffff" stroke-width="6.5" stroke-linecap="round"/><path d="M310.54167,187.34649l19.25,-2.02632" fill="none" stroke="#ffffff" stroke-width="6.5" stroke-linecap="round"/></g></g></svg>