<svg version="1.1" xmlns="http://www.w3.org/2000/svg" xmlns:xlink="http://www.w3.org/1999/xlink" width="192.32973" height="429.36339" viewBox="0,0,192.32973,429.36339"><g transform="translate(-217.59149,62.05423)"><g data-paper-data="{&quot;isPaintingLayer&quot;:true}" fill-rule="nonzero" stroke="none" stroke-width="0" stroke-linejoin="miter" stroke-miterlimit="10" stroke-dasharray="" stroke-dashoffset="0" style="mix-blend-mode: normal"><g data-paper-data="{&quot;index&quot;:null}" stroke-linecap="butt"><path d="M255.29891,291.78488c-0.09863,-6.07608 7.15366,-5.48845 19.59319,-5.61027c12.43949,-0.12186 23.3903,-6.45002 23.4889,-0.37391c0.09855,6.0761 5.72381,75.11152 -6.71573,75.23334c-7.59635,0.07439 -39.13242,6.78473 -48.02457,-11.33725c-2.35308,-4.79544 5.98078,-13.83392 8.18548,-23.24494c3.10728,-13.26393 3.49503,-33.28319 3.47256,-34.66701z" fill="#ffffff"/><path d="M315.70812,240.08149c-3.78291,27.91797 -12.38179,65.09241 -12.7877,66.82834c-1.23553,5.28415 -15.1876,7.23969 -28.97984,3.71464c-13.79224,-3.52504 -21.78854,-11.96198 -20.55298,-17.24614c0.81732,-3.49552 6.44285,-36.13824 15.18758,-61.82207c5.25308,0.90822 10.50617,1.81644 15.75928,2.72464c10.48273,1.81236 20.90099,3.94455 31.37365,5.80058z" data-paper-data="{&quot;index&quot;:null}" fill="#222228"/></g><g stroke-linecap="butt"><path d="M374.6355,296.78483c-0.02247,1.38382 0.36528,21.40309 3.47256,34.66702c2.20471,9.41102 10.53857,18.44949 8.18549,23.24494c-8.89215,18.12198 -40.42823,11.41163 -48.02458,11.33725c-12.43954,-0.12183 -6.81428,-69.15723 -6.71573,-75.23334c0.0986,-6.07611 11.04941,0.25205 23.4889,0.37391c12.43954,0.12183 19.69183,-0.46581 19.59319,5.61027z" fill="#ffffff"/><path d="M314.22614,245.08149c10.47266,-1.85603 20.89093,-3.98823 31.37365,-5.80059c5.25311,-0.9082 10.50619,-1.81642 15.75928,-2.72464c8.74473,25.68382 14.37026,58.32654 15.18757,61.82206c1.23557,5.28417 -6.76074,13.7211 -20.55298,17.24614c-13.79223,3.52504 -27.74431,1.56951 -28.97984,-3.71464c-0.40591,-1.73592 -9.00479,-38.91036 -12.7877,-66.82834z" data-paper-data="{&quot;index&quot;:null}" fill="#222228"/></g><g data-paper-data="{&quot;index&quot;:null}" stroke-linecap="butt"><path d="M392.2163,159.74955c17.24221,32.70573 25.87155,62.54745 7.22824,68.16899c-23.29587,5.9486 -26.9151,-18.4363 -44.15731,-51.1421c-1.50003,-2.84538 -2.91275,-5.67266 -4.23534,-8.4667c8.25294,-2.26289 16.50318,-4.53565 24.7499,-6.82201c4.897,-1.80724 9.78342,-3.4158 14.70597,-4.91685c0.57444,1.04844 1.14411,2.10819 1.70849,3.17864z" data-paper-data="{&quot;index&quot;:null}" fill="#ffffff"/><path d="M346.61193,120.62415c7.67345,-5.19915 31.81206,17.30538 44.22631,35.76752c3.5906,5.33982 1.15204,6.91301 3.28729,11.61541c-4.52353,1.0195 -9.01955,2.14784 -13.52962,3.47001c-7.73981,1.50505 -16.10353,7.9246 -23.84577,9.41711c-11.17134,-29.69231 -20.91708,-55.09541 -12.29233,-58.43762z" data-paper-data="{&quot;index&quot;:null}" fill="#aefa7f"/></g><path d="M352.28693,253.58172c-0.26254,9.23899 -14.18684,16.33904 -31.10079,15.85842c-16.91395,-0.48062 -30.41261,-8.36 -30.15008,-17.59898c0.26254,-9.23899 14.18686,-16.33899 31.10081,-15.85838c16.91395,0.48062 30.41256,8.35993 30.15003,17.59889z" fill="#222228" stroke-linecap="butt"/><path d="M313.32281,269.92913l16.82687,-0.23428" fill="none" stroke-linecap="round"/><path d="M365.59328,243.03363c-0.00666,3.28297 -4.0197,2.83277 -31.71373,2.88508c-1.14633,0.00215 -31.10754,6.64849 -32.27258,6.64192c-29.30996,-0.16509 -33.08225,-7.27389 -33.0753,-10.69271c0.00109,-0.54009 -3.22069,-6.22121 -3.2817,-14.02711c-0.07083,-9.06396 4.11156,-28.24793 5.3709,-41.61299c1.22539,-13.00488 -0.49535,-20.14874 1.12478,-32.14766c4.35782,-32.27428 14.37545,-48.62057 42.42111,-50.62074c31.37087,-2.23731 40.93248,26.87316 46.14986,59.67487c5.86022,36.84292 5.28036,78.09073 5.27665,79.89935z" fill="#aefa7f" stroke-linecap="butt"/><path d="M299.3659,130.69938c-1.42831,5.59993 3.61973,14.348 -1.56393,19.11738c-6.33172,5.82574 -22.99914,13.65705 -22.93766,-2.51192c0.01328,-3.4951 1.9143,-9.82502 4.71071,-15.70362c-0.10331,-0.55661 -0.15628,-1.13073 -0.15403,-1.71746c0.01643,-4.32633 4.51632,-10.51255 8.56014,-11.47803c4.71895,-4.76384 8.29072,-2.10327 11.39174,10.45402z" fill="#aefa7f" stroke-linecap="butt"/><path d="M344.13058,112.93536c-0.03146,8.07627 -10.50732,14.58267 -23.39828,14.53238c-12.89099,-0.0503 -23.31565,-6.63817 -23.28416,-14.71443c0.03146,-8.07627 10.50724,-14.58263 23.39824,-14.53237c12.89099,0.0503 23.31571,6.63812 23.28419,14.71442z" fill="#ffffff" stroke-linecap="butt"/><path d="M310.6675,21.78925c1.67529,5.19743 -17.19469,20.24731 -40.4472,27.74224c-23.25252,7.49497 -42.08241,4.59671 -43.75773,-0.60074c-1.67529,-5.19743 15.81659,-15.4866 39.0691,-22.98154c23.25252,-7.49497 43.46051,-9.35743 45.13582,-4.16z" fill="#ff2e2e" stroke-linecap="butt"/><path d="M383.38678,21.4429c1.53104,6.29146 1.17165,12.02797 1.72883,17.90965c4.07957,43.06094 -18.62477,67.33959 -53.98815,75.92686c-40.98765,9.95299 -82.44463,-10.69699 -93.60256,-56.54693c-11.15796,-45.84999 13.79316,-90.08278 54.78083,-100.03579c40.98765,-9.95299 79.92307,16.89621 91.08103,62.74617z" fill="#ffffff" stroke-linecap="butt"/><path d="M355.12206,61.46307c-4.07736,0.35387 -7.96664,-6.08671 -8.68685,-14.38552c-0.72023,-8.2988 2.00127,-15.31311 6.07867,-15.66698c4.07736,-0.35387 7.96659,6.08673 8.68685,14.38557c0.72023,8.2988 -2.0013,15.31308 -6.07865,15.66695z" data-paper-data="{&quot;index&quot;:null}" fill="#000000" stroke-linecap="butt"/><path d="M290.22623,69.99228c-3.84859,0.32271 -7.58387,-6.75661 -8.34323,-15.81204c-0.75936,-9.05544 1.74493,-16.65793 5.5935,-16.98061c3.84859,-0.32271 7.58389,6.7566 8.34324,15.81201c0.75936,9.05544 -1.74498,16.65796 -5.59351,16.98066z" data-paper-data="{&quot;index&quot;:null}" fill="#000000" stroke-linecap="butt"/><path d="M307.55538,-56.44144c1.38652,5.34735 -6.81005,12.16638 -18.30768,15.23063c-11.49755,3.06436 -21.94216,1.21356 -23.32865,-4.13375c-1.38652,-5.34735 6.81007,-12.16642 18.30767,-15.23065c11.49755,-3.06436 21.94219,-1.21354 23.3287,4.13378z" fill="#ff4f4f" stroke-linecap="butt"/><path d="M384.12398,11.75035c0.72963,4.38295 -33.51286,2.17028 -75.18753,9.1075c-41.67463,6.93721 -73.57963,23.84943 -74.30923,19.46641c-0.72963,-4.38295 -19.29649,-79.26711 58.58666,-92.9016c68.80762,-12.04574 90.18056,59.94466 90.91012,64.32773z" fill="#ff4f4f" stroke-linecap="butt"/><path d="M346.35267,-3.23703c0.77925,4.91109 -10.22934,7.96482 -24.53565,10.23479c-0.26667,0.04232 -0.98068,-0.24217 -1.24592,-0.20286c-13.96037,2.06678 -25.26131,3.00798 -26.02605,-1.8116c-0.77925,-4.91109 10.18658,-10.73258 24.49287,-13.00252c14.3063,-2.26994 26.53552,-0.1289 27.31477,4.78219z" fill="#ffffff" stroke-linecap="butt"/><g stroke-linecap="butt"><path d="M241.86436,152.2104c0.69432,-0.99111 1.39254,-1.97095 2.09408,-2.93897c4.69512,2.10725 9.34089,4.31662 13.97222,6.72443c7.89438,3.30373 15.79396,6.59441 23.69746,9.87564c-1.66295,2.60586 -3.41949,5.23339 -5.26491,7.8679c-21.21231,30.28202 -27.86468,54.0195 -50.22928,45.19294c-17.78992,-7.91791 -5.48193,-36.43995 15.73038,-66.72191z" data-paper-data="{&quot;index&quot;:null}" fill="#ffffff"/><path d="M293.92735,121.20917c8.13684,4.39869 -4.7214,28.37707 -19.53252,56.43171c-7.49356,-2.45281 -14.98505,-9.87172 -22.47463,-12.33667c-4.30837,-1.878 -8.62713,-3.56193 -12.98685,-5.14134c2.70878,-4.39708 0.48706,-6.26401 4.71971,-11.11073c14.63413,-16.75729 41.40739,-36.05286 48.3673,-29.93137z" data-paper-data="{&quot;index&quot;:null}" fill="#aefa7f"/></g></g></g></svg>