<svg version="1.1" xmlns="http://www.w3.org/2000/svg" xmlns:xlink="http://www.w3.org/1999/xlink" width="267.14357" height="416.87114" viewBox="0,0,267.14357,416.87114"><g transform="translate(-186.42822,28.43557)"><g data-paper-data="{&quot;isPaintingLayer&quot;:true}" fill-rule="nonzero" stroke-linejoin="miter" stroke-miterlimit="10" stroke-dasharray="" stroke-dashoffset="0" style="mix-blend-mode: normal"><path d="M201.09396,339.83003c0,0 9.00543,-117.44455 -5.83925,-187.34844c-9.83217,-46.30001 -6.85238,-93.50412 -3.04541,-123.22652c2.4244,-18.92821 16.88457,-30.6349 28.26563,-30.5068c26.71055,0.30063 136.41868,-25.59891 173.74724,-25.17879c7.85266,0.08839 5.15557,6.27997 6.06377,33.39317c0.35288,10.5348 1.95201,24.23606 5.71255,41.97391c8.91696,42.06 20.49857,125.20571 23.67704,199.75747c2.56443,60.14947 -2.44672,118.09793 -2.44672,118.09793c0,0 5.63048,17.39477 -16.09751,19.1973c-52.99859,4.3967 -168.191,-25.12297 -193.888,-25.81495c-13.73407,-0.36983 -16.14933,-20.34424 -16.14933,-20.34424z" fill="#fff6b5" stroke="#ddd173" stroke-width="4" stroke-linecap="butt"/><path d="M223.47573,262.13678c0,0 7.27499,-72.74307 -4.71721,-123.7604c-7.94286,-33.79074 -5.53564,-68.24128 -2.46023,-89.9333c1.95854,-13.81419 13.64009,-22.35798 22.83423,-22.26448c21.57797,0.21938 110.20505,-26.01373 140.36071,-25.70712c6.34373,0.0645 4.1649,4.58324 4.89857,24.37102c0.28508,7.68851 1.57692,17.68796 4.61485,30.63344c7.20352,30.69629 16.55965,91.37771 19.12735,145.78714c2.07165,43.89834 -1.97657,86.19034 -1.97657,86.19034c0,0 4.54857,12.69505 -13.00428,14.0106c-42.81461,3.20879 -135.87214,-23.97456 -156.63131,-24.47961c-11.09499,-0.26992 -13.04614,-14.84764 -13.04614,-14.84764z" fill="#fffef9" stroke="none" stroke-width="0" stroke-linecap="butt"/><path d="M230.64587,196.67352c-5.61266,-46.57031 24.98645,-88.55918 68.345,-93.78475c43.35855,-5.22558 83.05755,28.29094 88.67023,74.86125c0.46886,3.89017 1.9161,9.18663 1.8613,12.9568c-0.60102,41.36348 -32.96658,73.12168 -72.70327,77.91078c-40.76938,4.91353 -79.03168,-15.05694 -87.77135,-56.98621c-0.55502,-2.66284 1.93324,-12.17691 1.59808,-14.95789z" data-paper-data="{&quot;index&quot;:null}" fill="#ffffff" stroke="#000000" stroke-width="2" stroke-linecap="butt"/><path d="M316.09689,100.12626c43.3693,-0.87935 72.40178,12.57502 72.61641,23.16007c0.21462,10.58507 -31.5076,29.14 -74.87691,30.01934c-43.36931,0.87935 -85.17943,-20.68935 -85.39405,-31.2744c-0.21462,-10.58507 44.28524,-21.02567 87.65456,-21.90502z" data-paper-data="{&quot;index&quot;:null}" fill-opacity="0.36859" fill="#191318" stroke="#000000" stroke-width="0" stroke-linecap="butt"/><path d="M228.24784,173.84515c-7.16942,-1.09852 -6.07092,-8.26792 -6.07092,-8.26792l0.92259,-5.76708c0.05974,-0.51036 0.09574,-1.02766 0.11818,-1.54891c-9.59329,1.25947 -8.57135,-6.29395 -10.88801,-15.67003c-1.50996,-17.10864 2.59024,-32.98221 16.12443,-44.40146c4.49061,-3.78886 9.8584,-6.553 15.3226,-8.71247c1.48423,-0.58657 3.55704,-0.43151 4.45662,-1.74975c1.30293,-1.90927 0.17927,-4.81889 1.37566,-6.79666c1.86922,-3.09007 4.77742,-5.44202 7.47813,-7.83962c15.21039,-13.50326 40.7317,-12.1117 59.24942,-6.31885c2.07107,0.64789 3.43918,3.19192 5.60601,3.30952c2.11877,0.11498 3.70156,-2.21162 5.76828,-2.69212c7.73174,-1.79757 14.13286,-0.67739 21.98096,-0.12418c4.37759,1.80419 13.46747,5.13495 17.12203,8.33439c6.64185,5.81469 7.66808,14.19488 12.02781,21.0364c2.48648,3.90192 8.34186,3.35791 11.46075,5.79148c2.50394,1.9537 9.47333,12.82556 10.5959,15.95849c1.35419,3.77932 2.38648,14.47721 1.71924,18.44496c-0.31214,1.85611 0.76551,7.95626 1.73841,9.86134c1.47066,2.87985 2.40069,6.05863 2.92467,9.24953c1.59675,9.72338 0.76708,23.56163 -6.84138,31.01175c-2.43014,2.37957 -6.05851,3.093 -9.08776,4.63951c0,0 -6.57465,3.06289 -9.63752,-3.5118c-1.04834,-2.25032 -0.96763,-4.08921 -0.40797,-5.53474c-6.56747,-7.60502 -10.18847,-15.32661 -12.47387,-25.35867c-0.87721,-3.85055 0.91214,-8.69102 -1.59867,-11.73931c-2.41485,-2.93182 -6.8696,-3.24675 -10.3599,-4.74503c-6.99465,-1.15631 -9.94061,-1.24217 -16.74165,-4.18535c-4.26481,-1.84563 -7.64115,-6.22151 -12.27145,-6.61556c-8.40872,-0.71559 -15.69315,6.56926 -25.18526,4.76026c-2.74882,-0.52389 -4.52493,-3.52591 -7.21771,-4.28716c-4.41278,-1.24751 -9.0985,-1.34903 -13.68365,-1.42011c-3.63724,-0.05638 -4.56355,6.20414 -5.70476,7.49701c-2.32782,2.63713 -5.08672,5.00672 -8.20274,6.63877c-4.44625,2.32883 -17.08285,4.91227 -21.94077,3.56459c-0.51573,-0.1431 -1.03605,-0.53217 -1.54609,-1.04092c-0.15012,2.22581 -0.38799,4.42293 -1.38206,6.37221c-1.09269,2.14268 -4.62978,2.09766 -5.91764,4.1291c-0.7911,1.24787 0.339,2.93551 0.50851,4.40326l-1.07254,7.2542c0,0 -1.09852,7.16944 -8.26792,6.07092z" data-paper-data="{&quot;index&quot;:null}" fill="#000000" stroke="none" stroke-width="0.5" stroke-linecap="butt"/><path d="M311.39976,191.74746c-1.0029,-8.32133 2.68129,-15.60913 8.22884,-16.27772c5.54755,-0.66859 10.85772,5.53519 11.86062,13.85652c1.00288,8.32133 -2.68129,15.60911 -8.22886,16.2777c-5.54755,0.66859 -10.85772,-5.53517 -11.8606,-13.8565z" data-paper-data="{&quot;index&quot;:null}" fill="#000000" stroke="#000000" stroke-width="0" stroke-linecap="butt"/><path d="M269.94658,181.4028c4.67164,-0.56304 9.12734,4.52807 9.95207,11.37126c0.82473,6.84319 -2.2938,12.84717 -6.96541,13.41017c-4.67162,0.56304 -9.12732,-4.52809 -9.95205,-11.37128c-0.82475,-6.84319 2.29378,-12.84715 6.9654,-13.41016z" data-paper-data="{&quot;index&quot;:null}" fill="#000000" stroke="#000000" stroke-width="0" stroke-linecap="butt"/><path d="M354.69897,217.08127c-5.06791,9.17393 -32.26005,9.69762 -48.85267,9.47031c-8.01515,-0.10981 -20.77086,1.91017 -31.44297,2.15341c-12.92047,0.29448 -23.16771,-1.16393 -23.16771,-1.16393" data-paper-data="{&quot;index&quot;:null}" fill="none" stroke="#000000" stroke-width="2" stroke-linecap="round"/><g data-paper-data="{&quot;index&quot;:null}" stroke-linecap="butt"><path d="M306.92009,137.25038c0.01441,0.52738 -0.83871,5.99113 -0.53506,11.38975c0.34692,6.16785 3.81902,12.93666 0.36257,16.52234c-8.82497,9.15486 -31.83912,5.46901 -38.88178,5.5632c-6.48527,0.08674 -5.38379,-8.46389 -4.94246,-16.87744c0.38999,-7.43388 -0.20481,-14.75448 -0.23904,-16.00614c-0.07296,-2.66824 9.77043,-4.96378 21.98579,-5.12717c12.21536,-0.16342 22.17701,1.86719 22.24997,4.53545z" fill="#ffc98b" stroke="#000000" stroke-width="2"/><path d="M265.36398,142.76976c-0.04509,-1.64923 1.14832,-1.66522 1.14832,-1.66522l0.4099,-0.00063c10.18525,0.9552 12.17675,23.99255 1.31423,24.24867c0,0 -0.00539,0.00007 -0.01545,-0.00029c-0.16676,0.17671 -0.39815,0.29913 -0.71911,0.30341c-1.19341,0.01595 -1.23849,-1.63327 -1.23849,-1.63327l-0.01604,-0.58639c-0.1758,-6.43053 -0.1558,-12.86187 -0.31581,-19.28042c-0.28038,-0.21674 -0.54672,-0.6233 -0.56757,-1.38588zM268.59945,162.03415c6.73311,-0.60159 5.57639,-14.63697 -0.26651,-17.2442c0.1284,5.74243 0.13173,11.4921 0.26651,17.2442z" fill="#000000" stroke="none" stroke-width="0.5"/><path d="M282.38644,140.48425c1.06893,-0.33783 1.32866,1.27649 1.32866,1.27649l0.14793,1.05484c0.08078,2.95486 0.16216,5.90968 0.24143,8.86453c-0.08539,2.84366 -0.06446,7.44725 -1.60392,9.43438c-1.88259,2.43007 -4.58078,1.079 -5.67042,-2.1217c-1.51804,-4.45904 -0.72971,-12.34071 -0.86379,-17.24483c0,0 -0.04509,-1.64923 1.05401,-1.66394c1.09909,-0.01471 1.1442,1.63455 1.1442,1.63455c0.12161,4.4476 -0.65181,11.81242 0.62822,15.87883c1.84957,5.8759 3.07397,-4.5647 3.11166,-6.02505c-0.08117,-2.90913 -0.16002,-5.81828 -0.23956,-8.72742l-0.08755,-0.40853c0,0 -0.25975,-1.61434 0.80914,-1.95221z" fill="#000000" stroke="none" stroke-width="0.5"/><path d="M286.88514,160.78126c-1.16249,0.01554 -1.21168,-1.78349 -1.21168,-1.78349l-0.00873,-0.31981c-0.14323,-5.63375 -0.09245,-11.04133 0.71474,-16.48055c0,0 0.22745,-1.53137 1.19244,-1.34212c0.72604,-0.00722 1.01646,0.69475 1.13211,1.22007c0.87401,1.7551 1.44213,3.74319 2.09538,5.68871c0.49838,-2.13895 0.82439,-4.44521 1.26671,-6.5841c0,0 0.35106,-1.69605 1.46039,-1.09586c0.02494,0.01349 0.04916,0.02752 0.07264,0.04213c0.93001,-0.14069 1.21323,1.35554 1.21323,1.35554l0.14644,0.80076c0.68803,5.48794 1.07656,11.47692 0.35873,16.86278c0,0 -0.23424,1.74912 -1.37395,1.32787c-1.13973,-0.42125 -0.90551,-2.17035 -0.90551,-2.17035c0.40073,-2.97715 -0.05217,-6.18741 -0.02849,-9.37718c-0.20738,0.92168 -0.43965,1.82292 -0.71519,2.68668l-0.39364,0.71449c-0.08011,0.20709 -0.20201,0.40901 -0.3807,0.5923c-0.27556,0.28266 -0.52702,0.35788 -0.74536,0.32186c-0.2185,-0.03205 -0.46009,-0.18406 -0.70748,-0.54818c-0.13814,-0.20338 -0.23356,-0.40727 -0.29642,-0.6063c-0.64371,-1.54292 -1.1179,-3.25911 -1.66344,-4.88646c-0.43092,3.76538 -0.23295,7.5466 -0.11759,11.44681l0.00873,0.31981c0,0 0.04917,1.79907 -1.11334,1.81461z" fill="#000000" stroke="none" stroke-width="0.5"/><path d="M304.28464,161.18229c-0.04646,1.78775 -1.04816,1.70557 -1.04816,1.70557l-0.36823,-0.0355c-1.52268,0.08218 -5.7992,1.13412 -6.34189,-2.53194c-0.15485,-1.04623 0.52612,-1.95063 0.78761,-2.92726c0.47667,-1.7802 2.50163,-8.17103 4.0068,-10.54389c-1.15063,-0.16584 -2.30339,-0.23255 -3.4588,-0.32734c0,0 -1.00168,-0.08218 -0.95524,-1.86992c0.04646,-1.78775 1.04816,-1.70557 1.04816,-1.70557c1.60562,0.13174 3.19702,0.23374 4.7935,0.57793l0.08435,0.10041l0.00995,-0.05499l0.94631,0.54514c0.43097,0.22932 0.7358,0.95919 0.71402,1.79725c-0.01597,0.61485 -0.20399,1.14295 -0.47718,1.44294l-0.68521,0.77468c-1.10885,2.53618 -2.11575,5.1436 -3.18568,7.79661c-0.35352,0.87658 -0.70836,2.69404 -1.26395,3.42805c0.2069,-0.10458 0.43329,-0.19581 0.5639,-0.19914c1.12095,-0.02855 2.22793,0.18273 3.3523,0.11951l0.52215,0.03755c0,0 1.00168,0.08218 0.95524,1.86992z" fill="#000000" stroke="none" stroke-width="0.5"/></g><g data-paper-data="{&quot;index&quot;:null}" stroke="#000000"><path d="M197.75444,103.05934c-0.97539,-12.70308 48.34071,-22.66231 110.15057,-22.24463c61.80987,0.41769 112.70737,11.05413 113.68276,23.75721c0.97541,12.70307 -34.23824,30.37716 -147.47307,28.34139c-61.80128,-1.11109 -75.38487,-17.15092 -76.36026,-29.85399z" fill="#1f1d1c" stroke-width="2" stroke-linecap="butt"/><path d="M242.19701,98.65748c-0.15972,-1.47223 -11.36803,-108.02202 -9.69679,-109.42068c8.34893,-6.98719 36.42151,-12.35377 72.30211,-13.23894c37.44043,-0.92365 70.9128,3.3671 79.22455,10.39513c1.24821,1.05543 -4.40897,104.9392 -4.28393,106.0917c0.95752,8.82702 -24.42231,20.47568 -67.48531,21.53803c-43.06299,1.06239 -69.10311,-6.53822 -70.06065,-15.36524z" fill="#1f1d1c" stroke-width="2" stroke-linecap="butt"/><path d="M237.81653,74.4753c0.10277,-4.61826 28.87568,2.37383 57.66608,2.26918c39.60335,-0.14394 81.47354,-7.93709 83.9169,-7.88274c4.21961,0.09389 4.47175,8.6754 3.87772,17.17444c-0.68749,9.83635 -1.60652,13.99341 -5.82615,13.89953c-3.76459,-0.08376 -62.03941,28.2849 -137.07889,1.00222c-3.00963,-1.09424 -2.58203,-25.27947 -2.55567,-26.46261z" fill="#770e00" stroke-width="2" stroke-linecap="butt"/><path d="M365.75782,87.51354l15.1094,-3.18958" fill="none" stroke-width="1.5" stroke-linecap="round"/><path d="M241.46732,86.53952l12.56218,2.79047" fill="none" stroke-width="1.5" stroke-linecap="round"/></g><path d="M220.31429,94.27571c-0.05192,-1.92501 12.35544,-6.02157 17.48153,-7.19822c1.4854,-0.34094 0.28135,14.6582 1.93992,14.43111c5.34314,-0.73161 6.91479,3.33374 14.92891,5.78731c10.4118,3.18768 28.62351,5.05271 48.49438,4.517c22.64283,-0.6104 57.38582,-5.48676 73.81945,-11.99964c8.22094,-3.25807 1.86425,-11.75229 7.12508,-10.66647c10.37012,2.14035 16.07436,4.78387 16.14509,7.40722c0.17833,6.61463 -31.50011,26.69338 -101.57858,27.77912c-71.36178,1.10559 -78.17745,-23.44282 -78.35577,-30.05743z" data-paper-data="{&quot;index&quot;:null}" fill-opacity="0.3426" fill="#0d0010" stroke="none" stroke-width="0" stroke-linecap="butt"/><path d="M273.72507,230.86878c0,0 -23.86041,7.40768 -35.57275,7.44308c-7.44241,0.02248 16.06678,-7.69974 16.06678,-7.69974" fill="#ffa8d5" stroke="#000000" stroke-width="2.5" stroke-linecap="round"/><path d="M267.64959,357.62212c-1.30904,-1.34817 -3.25144,-1.93965 -4.17856,-3.74412c-0.14139,-0.2752 -0.25918,-0.57858 -0.3475,-0.9172c-1.84123,-7.05929 3.25599,-27.677 8.66211,-32.44535c3.63916,-3.20988 7.12238,-4.48312 10.60336,-1.80388c1.82165,1.40211 1.92706,7.91294 4.009,6.78992c5.62761,-3.03561 8.90591,-13.05987 15.9445,-6.29584c7.38435,7.0963 4.64717,20.51953 3.31459,32.66601c-0.64313,5.86205 -6.19807,11.97465 -9.66549,8.40352c-5.28158,-5.43949 2.96183,-21.23201 -0.36277,-24.90296c-0.63246,-0.69836 -11.00634,16.29051 -11.99104,16.49151c-3.15117,0.64317 -5.73505,-1.69152 -6.62681,-5.9738c-0.3978,-1.91035 0.48099,-6.72825 -0.8607,-5.90319c-2.19168,1.34776 -0.73066,12.2189 -3.12826,13.8903z" fill="#ff9638" stroke="none" stroke-width="0.5" stroke-linecap="butt"/><path d="M338.44195,321.97039c2.76612,3.99721 1.5445,9.79309 -0.63337,14.0858c-0.16119,0.31771 -4.1741,7.36455 -4.17171,7.36723c3.03905,3.40645 8.47733,-2.81168 7.1639,9.1602c-1.69617,15.46055 -29.474,13.28966 -33.1351,0.96932c-2.16767,-7.29459 5.30063,-13.00827 9.97893,-14.16293c1.4071,-0.3473 1.65848,-0.18182 2.80256,-1.24666c1.252,-1.16526 4.82474,-3.88657 3.397,-4.14286c-4.86147,-0.87274 -12.81212,3.62028 -14.61243,-2.43812c-1.66132,-1.62916 -2.58625,-4.44995 -2.24545,-7.55634c0.51282,-4.67442 3.69748,-8.2255 7.11313,-7.93156c0.26829,0.02309 0.53005,0.06921 0.78436,0.1369c7.99911,-4.08016 18.31682,-1.81504 23.55815,5.75894z" fill="#ff9638" stroke="none" stroke-width="0.5" stroke-linecap="butt"/><path d="M417.48787,320.92374c3.52663,-4.19259 6.13537,-7.73474 8.7057,-7.49653c1.51292,0.14021 3.01256,1.59017 4.67825,4.98823c1.05987,2.1621 2.00722,7.97051 2.18318,10.81327c0.16757,2.70691 -1.45306,10.27219 0.00764,8.20669c3.34362,-4.72807 6.35116,-21.04588 10.14443,-23.60371c5.45034,-3.67526 7.85648,-2.60481 10.10575,4.49593c1.26979,4.00855 -2.4782,10.19734 -3.71146,13.58847c-3.22284,8.86205 -13.8719,35.85453 -22.43834,35.76934c-8.1951,-0.08149 -5.88089,-28.16254 -6.59894,-35.45531c-0.16635,-1.68971 -2.60822,-6.31988 -2.58765,-6.61851z" fill="#6676ff" stroke="none" stroke-width="0.5" stroke-linecap="butt"/><path d="M392.2412,322.71988c0.03243,-0.06453 0.0655,-0.12768 0.09924,-0.18936c4.12806,-7.54854 15.22834,-6.72925 19.85103,-3.20121c3.17537,2.42346 5.00516,12.75808 5.22431,17.70131c0.068,1.53403 -0.11019,2.84776 -0.45415,3.94148c0.21771,0.49683 0.40794,1.03145 0.56807,1.60665l-2.29568,4.37011c-1.01587,1.93383 -4.37847,0.0465 -5.77788,-0.11099c-1.42329,-0.16017 -8.81153,-0.0832 -14.551,-1.57602c0.61135,2.07375 1.50122,3.91094 2.67557,5.2707c4.08136,4.72573 8.90837,0.11511 12.43534,0.43862c3.89628,0.35736 5.76609,6.26454 2.03241,9.76801c-7.99598,7.50287 -20.53374,3.33946 -25.46341,-6.12509c-2.47924,-4.75992 -0.64469,-11.48871 -0.16148,-17.4814c0.5317,-6.59372 2.64505,-13.96117 5.81762,-14.41279zM410.05974,339.60681c1.627,-0.32761 0.18951,-7.92078 0.05878,-8.24027c-1.15319,-2.81824 -6.09079,-3.91036 -10.02187,-2.39022c-2.55062,0.98626 -3.72316,8.18464 -3.7526,8.28484c0.11479,1.4574 10.59967,2.97306 13.71569,2.34565z" data-paper-data="{&quot;index&quot;:null}" fill="#6676ff" stroke="#6676ff" stroke-width="1" stroke-linecap="butt"/><path d="M343.98462,362.44178c0.04784,-0.08751 0.09569,-0.17407 0.14349,-0.25975c-0.06888,-0.39859 -0.12894,-0.80247 -0.18124,-1.2114c-0.69423,-5.42591 -0.03392,-11.73813 -0.82105,-18.36431c-0.77777,-6.54726 -1.56084,-13.25416 -2.07382,-19.87288c-0.40476,-5.22213 -1.96164,-15.35536 -0.71751,-20.78441c0.67586,-2.94925 2.61109,-5.09235 4.72255,-5.95159c1.25311,-2.35253 3.33227,-3.83943 5.51198,-3.65185c0.35487,0.03054 0.6975,0.10419 1.02552,0.21696c11.76937,-4.65757 28.53871,8.27149 30.88168,23.15114c0.18354,1.16564 1.28958,7.79381 1.31734,15.49023c0.03873,10.73654 -1.35809,23.60899 -4.41715,27.13623c-6.12272,7.05983 -11.93139,6.86701 -18.96851,9.17071c-1.79743,0.58841 -8.17471,3.65391 -11.82296,3.51536l-0.03741,0.02398c-0.00941,-0.00893 -0.01883,-0.01789 -0.02819,-0.02686c-1.22442,-0.0601 -2.13072,-0.49166 -2.43494,-1.5154zM365.90443,350.8776c13.4817,-7.21651 4.54508,-36.59788 -0.03273,-38.86676c-4.02303,-1.99391 -8.27629,-2.31063 -12.50497,-3.02122c1.35135,11.41957 1.03448,25.17982 1.87589,35.66544c0.123,1.53279 0.48954,5.08676 0.67414,8.96245c2.98502,-0.45792 6.23536,-0.73138 9.98766,-2.73991z" fill="#6676ff" stroke="none" stroke-width="0.5" stroke-linecap="butt"/><path d="M218.93469,287.56369c9.31225,8.29808 12.06953,34.81108 6.75918,47.96564c-4.81549,11.9288 -15.7067,21.69015 -25.1421,22.37145c-4.3239,0.31221 -11.46594,3.78341 -12.74685,-4.10391c-2.20499,-3.3866 -1.21165,-9.79183 -0.74699,-14.34441c1.45987,-14.30425 6.65189,-33.9782 4.7182,-48.26075c-0.09244,-0.61207 -0.13663,-1.25281 -0.12724,-1.91527c0.07005,-4.92471 3.07692,-9.18476 6.71612,-9.51517c0.03746,-0.00341 0.07481,-0.0064 0.11211,-0.00891c0.5047,-0.21148 1.03086,-0.34705 1.57093,-0.3961c1.03005,-0.09353 2.00037,0.13785 2.86066,0.62933c5.30929,-0.56271 11.2301,3.30449 16.02601,7.57813zM213.96036,328.4126c1.26682,-2.60353 0.79528,-12.3124 0.79374,-12.64807c-0.05755,-12.42718 -4.92559,-14.56564 -9.7054,-15.50063c-0.67944,12.05589 -2.67712,28.67085 -4.22462,39.12263c5.26017,-2.70982 10.64854,-5.86122 13.13628,-10.97393z" fill="#ff9638" stroke="none" stroke-width="0.5" stroke-linecap="butt"/><path d="M237.44614,306.41527c3.42864,3.25568 4.28777,7.88298 4.20114,12.701c-0.18401,10.23119 -4.63279,21.32238 2.20217,21.96526c11.15774,1.04947 1.54706,-37.51607 17.3516,-27.61312c4.13244,2.58932 1.37893,12.74737 0.85747,17.27806c-1.92271,16.70552 -7.46113,29.37038 -21.0698,27.17626c-11.9329,-1.92393 -15.31585,-17.3018 -12.71228,-31.51304c0.46424,-2.53406 1.82124,-15.2843 3.38245,-16.28497z" fill="#ff9638" stroke="none" stroke-width="0.5" stroke-linecap="butt"/></g></g></svg>