<svg version="1.1" xmlns="http://www.w3.org/2000/svg" xmlns:xlink="http://www.w3.org/1999/xlink" width="126.57154" height="177.32495" viewBox="0,0,126.57154,177.32495"><g transform="translate(-256.92115,-91.38687)"><g data-paper-data="{&quot;isPaintingLayer&quot;:true}" fill="#9966ff" fill-rule="nonzero" stroke="#000000" stroke-width="2" stroke-linecap="butt" stroke-linejoin="miter" stroke-miterlimit="10" stroke-dasharray="" stroke-dashoffset="0" style="mix-blend-mode: normal"><path d="M257.92115,152.94646v-12h80v12z"/><path d="M303.58781,263.94646l-1.33333,-60h16.66667l9.33333,62z" data-paper-data="{&quot;index&quot;:null}"/><path d="M268.25447,267.61313l9.33333,-62h16.66667l-1.33333,60z"/><path d="M292.92115,145.61313v-12h10v12z"/><path d="M274.29124,209.69646l14.47253,-71.14941c0.67736,0.60658 1.43311,1.07341 2.24318,1.36886c0.50462,0.18405 1.03032,0.3016 1.57127,0.34501c2.03058,0.35611 4.30381,0.48939 4.82854,0.53228c3.01676,0.2466 7.18398,0.17261 10.46391,-1.62929l14.34705,70.53255z"/><path d="M277.64824,113.77979c0,-11.81499 8.62877,-21.39292 19.2729,-21.39292c10.64414,0 19.2729,9.57794 19.2729,21.39292c0,11.81499 -8.62877,21.39293 -19.2729,21.39293c-10.64414,0 -19.2729,-9.57794 -19.2729,-21.39293zM296.82836,130.38754c13.25188,0.07281 14.61966,-13.7612 14.61966,-13.7612h-28.42062c0,0 1.01754,13.69096 13.80096,13.7612zM303.95102,110.00973c1.43958,0 2.60658,-1.29538 2.60658,-2.8933c0,-1.59793 -1.16701,-2.8933 -2.60658,-2.8933c-1.43958,0 -2.60658,1.29538 -2.60658,2.8933c0,1.59793 1.16701,2.8933 2.60658,2.8933zM289.89129,110.00973c1.43958,0 2.60658,-1.29538 2.60658,-2.8933c0,-1.59793 -1.16701,-2.8933 -2.60658,-2.8933c-1.43958,0 -2.60658,1.29538 -2.60658,2.8933c0,1.59793 1.16701,2.8933 2.60658,2.8933z"/><g><path d="M319.79175,138.86175l23.3863,-22.32767l38.9008,40.74521l-23.3863,22.32767z"/><path d="M348.89987,123.97528l8.19726,-7.8262l19.33531,20.25206l-8.19726,7.8262z"/><path d="M370.42936,166.558c-6.72426,6.41986 -17.4312,6.11914 -23.91464,-0.67169c-6.48343,-6.79083 -6.28821,-17.50023 0.43606,-23.92009c6.72426,-6.41986 17.4312,-6.11914 23.91464,0.67169c6.48343,6.79083 6.28821,17.50023 -0.43606,23.92009z"/><path d="M367.437,163.42376c-4.72695,4.51298 -12.2174,4.33952 -16.73038,-0.38743c-4.51298,-4.72695 -4.33952,-12.2174 0.38743,-16.73038c4.72695,-4.51298 12.2174,-4.33952 16.73038,0.38743c4.51298,4.72695 4.33952,12.2174 -0.38743,16.73038z"/></g></g></g></svg>