<svg version="1.1" xmlns="http://www.w3.org/2000/svg" xmlns:xlink="http://www.w3.org/1999/xlink" width="13.17374" height="18.0056" viewBox="0,0,13.17374,18.0056"><g transform="translate(-313.41313,-170.9972)"><g data-paper-data="{&quot;isPaintingLayer&quot;:true}" fill="#ff0000" fill-rule="nonzero" stroke="none" stroke-width="0.5" stroke-linecap="butt" stroke-linejoin="miter" stroke-miterlimit="10" stroke-dasharray="" stroke-dashoffset="0" style="mix-blend-mode: normal"><path d="M326.58687,185.78997c0,2.89766 -9.37106,4.21324 -10.45429,2.34465c-0.76888,-0.4473 -1.28468,-1.27231 -1.28468,-2.21608c0,-0.97302 0.54827,-1.81981 1.3569,-2.25657c0.00593,-0.03227 0.01251,-0.06451 0.01976,-0.09669c0.33593,-1.49013 6.62396,-9.3348 2.04542,-6.75586c-0.45378,0.7579 -1.29074,1.26634 -2.24819,1.26634c-1.44072,0 -2.60866,-1.15126 -2.60866,-2.57141c0,-0.67158 0.26118,-1.28302 0.68887,-1.74102c1.85281,-2.89753 9.17244,-4.49029 11.10264,0.21736c0.46521,1.13463 0.26261,2.8295 0.13043,3.88787c-0.1853,1.48369 -1.25502,3.34777 -2.1923,4.52973c-0.16089,0.20289 -0.31275,0.43067 -0.46042,0.67347c2.16778,0.26373 3.90451,1.2138 3.90451,2.7182z"/></g></g></svg>