<svg version="1.1" xmlns="http://www.w3.org/2000/svg" xmlns:xlink="http://www.w3.org/1999/xlink" width="53.59788" height="68.48188" viewBox="0,0,53.59788,68.48188"><defs><linearGradient x1="404.45657" y1="73.62079" x2="404.45657" y2="140.10267" gradientUnits="userSpaceOnUse" id="color-1"><stop offset="0" stop-color="#369746"/><stop offset="1" stop-color="#ece755"/></linearGradient></defs><g transform="translate(-377.65763,-72.62079)"><g data-paper-data="{&quot;isPaintingLayer&quot;:true}" fill-rule="nonzero" stroke-linecap="butt" stroke-linejoin="miter" stroke-miterlimit="10" stroke-dasharray="" stroke-dashoffset="0" style="mix-blend-mode: normal"><path d="M382.65764,140.10266c-2.20914,0 -4,-1.79086 -4,-4l1.98453,-57.48961c0,-2.20914 1.79086,-4 4,-4l41.61335,-0.99226c2.20914,0 4,1.79086 4,4v58.48188c0,2.20914 -1.79086,4 -4,4z" fill="url(#color-1)" stroke="#000000" stroke-width="2"/><text transform="translate(385.82943,134.58046) scale(0.31521,0.26842)" font-size="40" xml:space="preserve" fill="#ffffff" fill-rule="nonzero" stroke="#ffffff" stroke-width="2" stroke-linecap="butt" stroke-linejoin="miter" stroke-miterlimit="10" stroke-dasharray="" stroke-dashoffset="0" font-family="Playful" font-weight="normal" text-anchor="start" style="mix-blend-mode: normal"><tspan x="0" dy="0">Points</tspan></text><path d="M388.94473,108.70148c-2.2407,0 -4.05714,-1.68333 -4.05714,-3.75984v-20.27439c0,-2.07651 1.81644,-3.75984 4.05714,-3.75984h32.25937c2.2407,0 4.05714,1.68334 4.05714,3.75984v20.27439c0,2.07651 -1.81644,3.75984 -4.05714,3.75984z" fill="#9eab9a" stroke="#ffffff" stroke-width="1"/><path d="M389.19492,106.77963c-2.20914,0 -4,-1.69756 -4,-3.79162v-20.44576c0,-2.09406 1.79086,-3.79162 4,-3.79162h31.80501c2.20914,0 4,1.69757 4,3.79162v20.44576c0,2.09406 -1.79086,3.79162 -4,3.79162z" fill="#e6ffe7" stroke="#ffffff" stroke-width="1"/><text transform="translate(391.72488,102.859) scale(0.43879,0.42589)" font-size="40" xml:space="preserve" fill="#5cff77" fill-rule="nonzero" stroke="#008c17" stroke-width="2" stroke-linecap="butt" stroke-linejoin="miter" stroke-miterlimit="10" stroke-dasharray="" stroke-dashoffset="0" font-family="&quot;Puffy&quot;, Playful" font-weight="normal" text-anchor="start" style="mix-blend-mode: normal"><tspan x="0" dy="0">All</tspan></text><text transform="translate(395.60354,89.94917) scale(0.28972,0.31915)" font-size="40" xml:space="preserve" fill="#5cff77" fill-rule="nonzero" stroke="#008c17" stroke-width="2" stroke-linecap="butt" stroke-linejoin="miter" stroke-miterlimit="10" stroke-dasharray="" stroke-dashoffset="0" font-family="&quot;Puffy&quot;, Playful" font-weight="normal" text-anchor="start" style="mix-blend-mode: normal"><tspan x="0" dy="0">Buy</tspan></text></g></g></svg>