<svg version="1.1" xmlns="http://www.w3.org/2000/svg" xmlns:xlink="http://www.w3.org/1999/xlink" width="89.97666" height="131.05745" viewBox="0,0,89.97666,131.05745"><g transform="translate(-307.00401,-107.06141)"><g data-paper-data="{&quot;isPaintingLayer&quot;:true}" fill-rule="nonzero" stroke-linejoin="miter" stroke-miterlimit="10" stroke-dasharray="" stroke-dashoffset="0" style="mix-blend-mode: normal"><g data-paper-data="{&quot;index&quot;:null}" stroke="#000000" stroke-width="2" stroke-linecap="butt"><path d="M361.64261,154.73423c-0.10936,0.13942 -0.21703,0.28049 -0.32277,0.4235c-1.46314,1.97896 -2.93651,3.88295 -4.54455,5.7367c-0.69445,0.80056 -1.40298,1.58295 -2.08472,2.38006c-8.3882,-6.81646 -15.46909,-12.01613 -11.68986,-16.63046c4.21052,-5.00109 10.22197,1.19922 18.6419,8.0902z" data-paper-data="{&quot;index&quot;:null}" fill="#ffe4cb"/><path d="M372.11763,163.72337c2.61904,2.88486 -0.39815,4.90345 -1.3666,6.23588c-2.6553,1.4732 -2.93366,2.19793 -10.93297,-2.61503c-6.61711,-3.98132 -18.08298,-12.10591 -18.1093,-12.12397c0.68263,-0.8657 7.57832,-8.74357 8.27192,-9.61411c1.62653,-2.04148 19.6428,15.36993 22.13694,18.11723z" data-paper-data="{&quot;index&quot;:null}" fill="#161617"/></g><path d="M354.52657,112.84729c1.70056,-1.43363 4.46993,-3.53792 7.65949,-4.40111c4.44642,-1.20333 9.56575,-0.86367 12.4711,-0.63477c8.86968,0.6988 16.77685,8.49709 19.7285,17.94556c1.2118,3.87906 2.0837,11.49502 1.78653,15.37163c-0.61967,8.08364 -6.06757,12.52218 -12.06037,17.01162c-1.51729,1.13667 1.79625,3.74517 0.25912,5.32544c-2.39494,2.46218 -10.40341,1.90664 -13.39876,1.67064c-2.12097,-0.16711 -6.34497,-0.90889 -8.33531,-2.45831c-1.95473,-1.52172 -1.68015,-3.84069 -3.29098,-5.17004c-6.42394,-5.30141 -10.98185,-14.17708 -10.30391,-23.02068c0.61384,-8.00743 -0.65284,-16.46591 5.48463,-21.63998z" data-paper-data="{&quot;index&quot;:null}" fill="#161617" stroke="#000000" stroke-width="1.5" stroke-linecap="butt"/><path d="M312.61324,200.36412c2.02147,-0.02546 4.33169,0.15887 5.7527,0.02462c0.83163,1.50864 1.67958,3.00629 2.5932,4.47072c0.8584,1.37592 1.72151,2.74713 2.59528,4.11193c-3.50939,2.44175 -6.09921,4.10552 -6.49858,4.00192c-0.12341,-0.03201 -1.89003,0.82843 -3.80363,-1.60987c-1.09959,-1.4011 -4.26491,-5.61554 -5.2482,-7.53604c-1.28272,-2.50529 -0.25928,-2.61242 -0.41247,-2.79949c-0.17019,-0.20782 2.14785,-0.62762 5.02171,-0.66381z" data-paper-data="{&quot;index&quot;:null}" fill="#ffffff" stroke="#000000" stroke-width="2" stroke-linecap="butt"/><path d="M326.07905,224.98588c2.10576,-0.50583 3.39808,-0.23408 4.66583,-1.52996c0.10682,0.09935 0.21372,0.19863 0.32073,0.29782c1.93685,1.7952 3.87052,3.5937 5.8019,5.39479c0.62195,0.58 1.2499,1.15312 1.88127,1.72235c-3.17444,3.65861 -5.63131,6.28298 -6.11294,6.24763c-0.13726,-0.01007 -1.67476,1.22357 -4.43183,-0.96169c-1.58426,-1.25571 -6.2035,-5.05971 -7.83644,-6.88014c-2.13019,-2.37474 2.15413,-3.43626 5.7115,-4.29081z" data-paper-data="{&quot;index&quot;:null}" fill="#ffffff" stroke="#000000" stroke-width="2" stroke-linecap="butt"/><path d="M315.80882,198.96133c0.06491,-0.02031 0.18911,-0.82848 2.13783,-1.59061c1.03304,-0.40402 3.34179,-0.54658 4.75064,-1.09774c10.50427,-4.10928 29.97524,-11.71733 36.35867,-14.01579c11.25376,-4.05209 15.54482,8.79393 15.54482,8.79393c0,0 -34.43025,12.68719 -47.64713,19.23411c-3.06832,1.51986 -5.4235,2.1647 -5.65687,2.23772c-1.20775,0.37787 -3.44384,-3.33344 -4.99445,-8.28948c-1.5506,-4.95603 -1.7013,-4.89427 -0.49355,-5.27214z" data-paper-data="{&quot;index&quot;:null}" fill="#282833" stroke="#000000" stroke-width="1.5" stroke-linecap="butt"/><path d="M326.19263,223.52792c0.0479,-0.04828 -0.30932,-0.90986 1.0401,-2.51151c0.71534,-0.84906 2.75778,-1.98635 3.73327,-3.14445c7.27324,-8.63457 20.76038,-24.63083 25.29633,-29.67934c4.12602,-4.59228 9.17054,-3.88788 13.08729,-2.13005c-0.00408,0.1496 -0.00915,0.29582 -0.01629,0.43743c-0.10767,2.13627 -0.64522,6.09989 -0.75486,10.4127c-0.98671,1.27124 -2.05011,2.21963 -2.53832,3.86389c-0.10644,0.35849 -0.21064,0.6966 -0.31127,1.02186c-7.70743,9.01724 -17.84659,21.18124 -22.66752,28.2499c-1.93807,2.84168 -3.73018,4.50115 -3.90243,4.67469c-0.89146,0.89819 -5.11586,-1.84916 -9.43548,-6.13639c-4.31962,-4.28723 -4.42232,-4.16057 -3.53086,-5.05876z" data-paper-data="{&quot;index&quot;:null}" fill="#282833" stroke="#000000" stroke-width="1.5" stroke-linecap="butt"/><path d="M384.00208,168.88314c-2.81554,7.92869 -14.25837,27.5186 -18.39847,34.49987c-1.90168,-1.10276 -3.75353,-2.31669 -5.64155,-3.43285c-3.06457,-1.81169 -6.12912,-3.6234 -9.19369,-5.43507c-3.05949,-1.80871 -6.27758,-3.38126 -9.4134,-5.04337c-0.81028,-0.42946 -1.62056,-0.85898 -2.43085,-1.28845c5.01039,-6.93112 20.35964,-27.87804 26.94123,-33.59955c5.91901,-5.14554 14.7519,-1.80401 14.7519,-1.80401c0,0 7.96237,3.21287 3.38482,16.10343z" data-paper-data="{&quot;index&quot;:null}" fill="#161617" stroke="#000000" stroke-width="2" stroke-linecap="butt"/><path d="M357.49114,191.65867l2.748,-10.50371" data-paper-data="{&quot;index&quot;:null}" fill="none" stroke="#000000" stroke-width="2" stroke-linecap="round"/><path d="M343.96698,182.48747l5.43912,-5.16935" data-paper-data="{&quot;index&quot;:null}" fill="none" stroke="#000000" stroke-width="2" stroke-linecap="round"/><path d="M372.57626,152.72941c4.52405,0.07199 8.15351,2.51904 8.10663,5.46563c-0.04688,2.94659 -3.75237,5.27691 -8.27642,5.20492c-4.52406,-0.07199 -7.30326,-1.75083 -7.25638,-4.69742c0.04688,-2.94659 2.90212,-6.04512 7.42618,-5.97313z" data-paper-data="{&quot;index&quot;:null}" fill="#161617" stroke="none" stroke-width="0" stroke-linecap="butt"/><path d="M366.19171,157.36106c0.03174,-1.99415 2.80807,-3.56696 6.2011,-3.51296c3.39305,0.05399 6.11793,1.71433 6.0862,3.70849c-0.03174,1.99414 -3.45475,3.55668 -6.8478,3.50268c-3.39304,-0.05399 -5.47122,-1.70404 -5.43948,-3.6982z" data-paper-data="{&quot;index&quot;:null}" fill="#ffffff" stroke="#000000" stroke-width="1.5" stroke-linecap="butt"/><path d="M348.33146,135.64375c-0.33695,-12.9355 9.28332,-23.67951 21.48748,-23.99743c12.20415,-0.31792 22.37073,9.91065 22.7077,22.84617c0.33697,12.93551 -9.28328,23.67953 -21.48744,23.99744c-12.20416,0.31791 -22.37075,-9.91066 -22.70772,-22.84618z" data-paper-data="{&quot;index&quot;:null}" fill="#ffe4cb" stroke="#000000" stroke-width="2" stroke-linecap="butt"/><path d="M379.86652,160.85498c0.0595,-3.7389 1.52019,-3.87098 2.38829,-3.85717c0.86811,0.01381 1.52361,3.056 1.46411,6.79489c-0.0595,3.73889 -1.57548,7.34576 -2.44359,7.33195c-0.86812,-0.01381 -1.46832,-6.53078 -1.40883,-10.26967z" data-paper-data="{&quot;index&quot;:null}" fill="#161617" stroke="none" stroke-width="0" stroke-linecap="butt"/><path d="M359.52342,168.36184c0.05845,-0.22438 0.21202,-1.1483 0.74102,-2.21858c0.66991,-1.3554 1.7901,-2.94789 2.40525,-3.67809c1.37279,-1.62951 1.99594,-0.47219 2.27569,-0.39931c0.50412,0.13132 -2.01525,4.01424 -2.31293,5.15687c-0.29766,1.14264 -3.00161,4.57113 -3.50572,4.4398c-0.50411,-0.13131 0.09904,-2.15804 0.3967,-3.30066z" data-paper-data="{&quot;index&quot;:null}" fill="#161617" stroke="none" stroke-width="0" stroke-linecap="butt"/><path d="M368.82427,112.19804c2.1805,0.02754 8.69072,0.48386 13.12438,2.72896c1.54226,0.78095 7.91812,5.4013 9.92283,10.98091c1.63842,4.56017 -0.90463,10.3355 -0.90551,10.40497c-0.0009,0.07088 0.05579,2.27471 -0.59212,1.1473c-1.36098,-2.36816 -4.43901,-9.55855 -7.92092,-12.77622c-4.18774,-3.86993 -10.11794,-5.55217 -11.7158,-5.57235c-3.55889,-0.04495 -16.33357,-0.08517 -16.32852,-0.484c0.00503,-0.39884 10.8568,-6.47453 14.41567,-6.42958z" data-paper-data="{&quot;index&quot;:null}" fill="#161617" stroke="none" stroke-width="0" stroke-linecap="butt"/><path d="M388.02595,144.90342c3.07979,-8.56508 2.70245,-19.42775 3.6879,-19.4153c1.81011,0.02286 2.41444,6.79015 2.34896,11.97507c-0.06549,5.18492 -6.36029,17.86555 -8.17041,17.84269c-1.81011,-0.02286 -8.83682,9.01892 -8.77134,3.83399c0.02984,-2.3622 8.32757,-7.06876 10.90489,-14.23645z" data-paper-data="{&quot;index&quot;:null}" fill="#161617" stroke="none" stroke-width="0" stroke-linecap="butt"/><path d="M380.28584,112.67818c1.69659,0.69754 3.52563,1.33672 5.06151,2.34292c1.6462,1.0785 3.13768,3.59737 4.3155,5.86495l1.3584,1.40476c0.17706,0.18299 0.28473,0.43325 0.28126,0.708c-0.00156,0.12365 -0.02549,0.24176 -0.06792,0.35056c0.14668,0.26897 0.26827,0.72348 -0.19035,1.17067c-0.71598,0.69812 -1.41409,-0.01785 -1.41409,-0.01785c-1.83111,-1.88716 -4.10453,-3.14194 -6.00308,-4.92147l-0.75458,-0.66349c-0.21428,-0.18616 -0.34834,-0.46183 -0.34448,-0.7679c0.00696,-0.55224 0.46031,-0.99426 1.01254,-0.9873c0.23627,0.00297 0.45236,0.08767 0.62175,0.22685l1.53332,1.23639l-0.06099,0.07562c0.0306,0.02637 0.06126,0.05266 0.09201,0.07884c0.06362,0.03154 0.12704,0.0633 0.19027,0.09535c-0.28443,-0.54868 -0.59853,-1.09553 -1.01106,-1.58348c-0.56771,-0.67153 -1.38825,-1.15915 -2.27567,-1.5599c-0.12448,0.05334 -0.26188,0.0821 -0.40602,0.08028l-1.33323,-0.01685l0.00086,-0.06828l-0.16796,0.05209c-0.47286,-0.17086 -0.90108,-0.43146 -1.29696,-0.74641c-0.01599,0.00182 -0.03201,0.0036 -0.04804,0.00534l-0.13042,0.17238l-0.18864,-0.1427c-2.02763,0.15778 -4.33626,-0.23949 -5.84979,-1.10322l-1.00295,-0.31475c-0.1626,-0.04694 -0.30799,-0.13396 -0.42494,-0.24958c-0.5051,0.22175 -1.01727,0.43201 -1.59412,0.48072c-0.02411,0.00205 -0.04836,0.00376 -0.07279,0.00517c-0.27054,0.3002 -0.61291,0.56586 -0.90888,0.78334c-0.35451,0.26049 -0.89642,-0.09889 -1.31959,0.0214c-0.93893,0.2669 -2.65287,1.68034 -3.49095,2.14254c-0.61601,0.19345 -1.86316,0.47207 -3.08651,0.48507c-0.0554,0.47884 -0.44832,0.85297 -0.9323,0.88204l-1.26496,0.08934c-2.03096,0.47367 -3.74235,0.79474 -5.85655,0.93165c0,0 -0.99793,0.06409 -1.06204,-0.93384c-0.05191,-0.80834 0.59296,-1.00397 0.83989,-1.04913l-0.2362,-0.0227c-0.51739,-0.04423 -0.92038,-0.48148 -0.91371,-1.00896c0.00583,-0.46136 0.3232,-0.84581 0.74951,-0.95576l1.90307,-0.53783l0.09172,0.32454c1.30846,-0.45064 2.63384,-0.71729 3.96993,-0.92478c0.1626,-0.27003 0.33833,-0.53486 0.47679,-0.79319c0.25335,-0.47268 0.60688,-0.90356 1.02328,-1.24155c3.49434,-2.83618 8.35174,-2.66917 12.37723,-1.92886c0.93128,0.17128 2.82525,0.19931 4.16078,0.59249c0.93026,0.00444 1.86,0.02377 2.76291,0.03421l0.44441,0.00561c0,0 0.99992,0.01263 0.9873,1.01254c-0.00661,0.52217 -0.28243,0.76821 -0.54451,0.88412zM370.17062,111.9877c0.15598,-0.01605 0.30819,-0.04536 0.45778,-0.08432c-0.21175,-0.02814 -0.42357,-0.05417 -0.63555,-0.07774c0.06347,0.05029 0.12287,0.10424 0.17777,0.16205z" data-paper-data="{&quot;index&quot;:null}" fill="#161617" stroke="none" stroke-width="0.5" stroke-linecap="butt"/><path d="M354.28977,119.23728c0,0 5.06011,-0.70683 11.89207,-0.52701c7.9388,0.20896 16.56002,3.69919 18.3109,6.78306c1.759,3.09817 7.50883,8.98149 4.19406,20.3036c-2.47623,8.45796 -10.63554,10.07664 -10.63554,10.07664" data-paper-data="{&quot;index&quot;:null}" fill="none" stroke="#000000" stroke-width="1.5" stroke-linecap="round"/><path d="M370.87738,123.76668c-0.37156,-0.44879 -3.93528,3.30489 -8.50923,4.5048c-5.29726,1.38966 -11.69557,0.26739 -12.00592,-0.19472c-0.1301,-0.19371 3.96948,-8.75422 7.44843,-10.32238c5.11297,-2.3047 10.27999,2.13324 10.14149,1.89499c2.42702,0.49678 5.99468,0.76873 7.57003,0.80056c2.12777,0.04299 6.94467,3.57698 8.39343,4.8442c0.85232,0.74552 1.60571,2.33154 2.39803,3.76426c-0.7319,0.95893 -1.66104,1.55431 -1.66104,1.55431c0,0 -2.01308,-1.97562 -5.06584,-4.2007c-0.49452,-0.36045 -1.01635,-0.72745 -1.5613,-1.09366c-0.19822,-0.1332 -1.6963,3.517 -1.89859,3.38345c-1.8928,-1.24982 -3.73429,-3.10498 -5.24949,-4.93513z" data-paper-data="{&quot;index&quot;:null}" fill="#3c352f" stroke="#000000" stroke-width="1.5" stroke-linecap="butt"/><path d="M368.94409,165.29695c2.71168,0.06402 4.88627,2.32223 4.85708,5.04387c-0.02918,2.72163 -2.25111,4.87605 -4.96279,4.81203c-2.71168,-0.06402 -4.88627,-2.32224 -4.85708,-5.04387c0.02918,-2.72163 2.25111,-4.87605 4.96279,-4.81203z" data-paper-data="{&quot;index&quot;:null}" fill="#343434" stroke="none" stroke-width="0" stroke-linecap="butt"/><path d="M355.94899,200.8154l-1.56448,8.61544" data-paper-data="{&quot;index&quot;:null}" fill="none" stroke="#000000" stroke-width="1.5" stroke-linecap="round"/><path d="M342.43378,190.81509l-4.53217,2.44747" data-paper-data="{&quot;index&quot;:null}" fill="none" stroke="#000000" stroke-width="1.5" stroke-linecap="round"/><path d="M360.93097,143.98334l-4.61041,-0.56076" data-paper-data="{&quot;index&quot;:null}" fill="none" stroke="#000000" stroke-width="2" stroke-linecap="round"/><path d="M377.24655,143.11543l-5.37186,0.98462" data-paper-data="{&quot;index&quot;:null}" fill="none" stroke="#000000" stroke-width="2" stroke-linecap="round"/><path d="M357.82297,148.88596c0,0 5.68437,-0.81153 8.69673,-0.74801c3.29685,0.06954 10.30799,1.14882 10.30799,1.14882" fill="none" stroke="#000000" stroke-width="2" stroke-linecap="round"/><g data-paper-data="{&quot;index&quot;:null}" stroke="#000000" stroke-width="2" stroke-linecap="butt"><path d="M369.19525,158.08916c-0.03019,0.1746 -0.0581,0.34985 -0.08339,0.5259c-0.34996,2.4361 -0.74448,4.81105 -1.28139,7.2056c-0.23187,1.03412 -0.48476,2.0589 -0.70708,3.08396c-10.61729,-2.02459 -19.31701,-3.24551 -18.1773,-9.10004c1.33608,-6.39956 9.5686,-3.79059 20.24917,-1.71543z" data-paper-data="{&quot;index&quot;:null}" fill="#ffe4cb"/><path d="M382.68003,161.03731c3.67372,1.29827 1.97428,4.50606 1.75333,6.13837c-1.63942,2.55602 -1.54089,3.32609 -10.86587,2.88112c-7.71372,-0.36808 -21.661,-2.08524 -21.69274,-2.08866c0.19058,-1.08586 2.52689,-11.29141 2.72483,-12.38673c0.46419,-2.56861 24.5819,4.21954 28.08045,5.4559z" data-paper-data="{&quot;index&quot;:null}" fill="#161617"/></g></g></g></svg>