<svg version="1.1" xmlns="http://www.w3.org/2000/svg" xmlns:xlink="http://www.w3.org/1999/xlink" width="10.93477" height="18.20173" viewBox="0,0,10.93477,18.20173"><g transform="translate(-313.23987,-170.43386)"><g data-paper-data="{&quot;isPaintingLayer&quot;:true}" fill="#ff0000" fill-rule="nonzero" stroke="none" stroke-width="0.5" stroke-linecap="butt" stroke-linejoin="miter" stroke-miterlimit="10" stroke-dasharray="" stroke-dashoffset="0" style="mix-blend-mode: normal"><path d="M313.64682,181.17616c0.22954,-3.83678 3.95161,-10.61494 6.1698,-10.73817c2.66772,-0.14821 2.4289,3.71815 1.43035,7.21379c3.87785,1.81808 4.22935,9.18891 -0.9278,10.33495c-0.03172,0.02056 -0.06391,0.04048 -0.09652,0.05973c-0.57269,1.0022 -4.07097,0.55044 -4.78679,-0.06311c-2.19348,-1.88012 -2.63809,-4.53406 -1.80073,-6.73555c0.00359,-0.02398 0.00749,-0.04786 0.0117,-0.07163zM318.89068,184.39445l0.40081,-0.66067c0.02779,-0.27792 0.05558,-0.55583 0.08337,-0.83375c0,0 0.08089,-0.80887 -0.72798,-0.88976c-0.80887,-0.08089 -0.88976,0.72798 -0.88976,0.72798c-0.01836,0.18357 -0.03671,0.36713 -0.05507,0.5507c-0.11903,0.14503 -0.44122,0.62526 0.03901,1.10549c0.57481,0.57481 1.14962,0 1.14962,0z"/></g></g></svg>