<svg version="1.1" xmlns="http://www.w3.org/2000/svg" xmlns:xlink="http://www.w3.org/1999/xlink" width="52.38721" height="141.16301" viewBox="0,0,52.38721,141.16301"><defs><radialGradient cx="326.16215" cy="150.20118" r="26.05961" gradientUnits="userSpaceOnUse" id="color-1"><stop offset="0" stop-color="#afb0e0" stop-opacity="0"/><stop offset="1" stop-color="#afb0e0" stop-opacity="0.31373"/></radialGradient></defs><g transform="translate(-294.6131,-129.15026)"><g data-paper-data="{&quot;isPaintingLayer&quot;:true}" fill-rule="nonzero" stroke-linejoin="miter" stroke-miterlimit="10" stroke-dasharray="" stroke-dashoffset="0" style="mix-blend-mode: normal"><path d="M327.68205,181.11965c0,3.48943 -5.101,6.31817 -11.39342,6.31817c-6.29242,0 -11.39342,-2.82874 -11.39342,-6.31817c0,-3.48943 1.57941,-5.38598 7.87182,-5.38598c6.29242,0 14.91502,1.89655 14.91502,5.38598z" fill="#334865" stroke="#000000" stroke-width="2" stroke-linecap="butt"/><path d="M340.10096,217.33381c0.31667,4.04128 -2.22292,7.53072 -5.67233,7.79388c-3.44941,0.26316 -6.50242,-2.79962 -6.81907,-6.8409c-0.09047,-1.15457 -0.4347,-4.75549 -0.80031,-9.32114c1.8267,-0.69476 3.66763,-1.35997 5.53945,-1.85346c1.95729,-0.51602 3.78657,-1.40066 5.74394,-1.88598c0.08036,-0.01993 0.16447,-0.0341 0.25065,-0.04479c1.05417,5.85057 1.64972,10.7745 1.75768,12.15238z" data-paper-data="{&quot;index&quot;:null}" fill="#ffffff" stroke="#000000" stroke-width="2" stroke-linecap="butt"/><path d="M327.29855,179.78605c4.17164,-0.56075 8.63834,11.92574 10.80975,21.70418c0.52882,2.38143 -0.24769,1.78553 0.15478,4.05984c-0.11633,0.00817 -0.21562,0.0184 -0.28262,0.03555c-1.96022,0.5018 -3.79101,1.41555 -5.75059,1.94896c-1.84438,0.50204 -3.65877,1.1748 -5.45913,1.87988c-0.90428,-11.78807 -1.88894,-29.30355 0.52781,-29.62841z" data-paper-data="{&quot;index&quot;:null}" fill="#334865" stroke="#000000" stroke-width="2" stroke-linecap="butt"/><path d="M323.07713,223.19573c6.33765,-9.03936 7.51544,-2.51598 12.25572,-0.01566c0.27344,0.14423 0.59557,13.09559 -4.00386,22.48718c-2.36862,4.83649 -4.60872,9.34595 -5.92241,11.92857c-0.72594,1.42714 -1.48446,1.92636 -1.48257,1.93628c-2.61757,-1.20697 -5.73448,-3.65617 -8.45309,-4.36598c-1.40707,-0.36542 -3.63542,-1.85013 -5.30536,-2.46915c0.43885,-0.83082 0.27338,-1.1697 0.77743,-2.11445c1.42425,-2.66948 3.1999,-5.76865 5.09074,-8.93566c3.6828,-6.16842 2.68877,-13.5372 5.49998,-17.54681z" fill="#a68f79" stroke="#000000" stroke-width="2" stroke-linecap="butt"/><path d="M321.9476,267.61504c-0.58465,1.06849 -15.08262,-7.65461 -14.49798,-8.72311c0.08804,-0.1609 1.2026,-2.33129 2.90669,-5.56202c1.68886,0.60565 3.72648,1.95386 4.99686,2.28719c2.79174,0.72891 5.62049,2.3207 8.29962,3.53731c0.10191,0.67051 0.22668,1.75684 0.16477,2.77036c-0.13498,2.20965 -1.53251,5.07352 -1.86997,5.69027z" fill="#ffffff" stroke="#000000" stroke-width="2" stroke-linecap="butt"/><path d="M305.21603,227.95878c-0.52064,-11.02863 7.4622,-4.72653 13.42997,-5.74009c0.5649,-0.09595 7.50529,32.96979 8.47724,38.33931c-1.38104,0.26737 -9.67477,0.6627 -12.00939,2.01762c-1.41047,1.0378 -3.90206,2.66609 -5.40475,3.4902c-0.14157,-0.88135 -0.70817,-2.17487 -0.87623,-3.29963c-1.42003,-9.50388 -3.22187,-26.44083 -3.61684,-34.80741z" fill="#a68f79" stroke="#000000" stroke-width="2" stroke-linecap="butt"/><path d="M329.96511,268.89358c-0.07201,1.21662 -20.32492,-0.47894 -20.25291,-1.69555c0.00693,-0.11696 0.08066,-1.23843 0.21054,-3.06015c1.81654,-0.5498 3.85006,-1.44028 5.09317,-1.97223c2.52236,-0.76047 5.14405,-2.04354 7.68045,-1.94132c1.36543,0.05503 2.83066,0.11408 4.21089,0.1697c-0.01206,0.22855 -0.01853,0.34976 -0.01853,0.34976c0,0 1.26538,1.50388 1.95608,3.02941c0.94297,2.08268 1.16187,4.41815 1.12031,5.1204z" fill="#ffffff" stroke="#000000" stroke-width="2" stroke-linecap="butt"/><path d="M314.83459,230.92902v-4.31137h14.09936v4.31137z" fill="#a68f79" stroke="none" stroke-width="0" stroke-linecap="butt"/><path d="M304.86397,227.80639c0,0 -0.17759,-17.61223 1.08049,-28.46941c1.42141,-12.26677 4.86953,-22.87543 14.01328,-23.14741c11.49567,-0.34194 12.49154,14.41192 14.04095,27.88541c1.18315,10.28856 1.78775,25.51554 1.78775,25.51554" fill="#334865" stroke="#000000" stroke-width="2" stroke-linecap="round"/><path d="M313.16249,179.72268c2.32493,0.53024 -0.89081,16.43564 -3.56289,28.43434c-2.12818,-0.26812 -4.25311,-0.55603 -6.36552,-0.93324c-1.55539,-0.27775 -3.11355,-0.46412 -4.67962,-0.63646c0.37815,-1.35925 -0.24728,-1.74273 0.1914,-3.18818c3.37222,-11.11174 9.4541,-24.80824 14.41665,-23.67646z" fill="#334865" stroke="#000000" stroke-width="2" stroke-linecap="butt"/><path d="M306.73106,220.87115c-0.72753,4.23293 -3.21431,6.3953 -6.77937,5.78257c-3.56507,-0.61273 -4.87227,-4.65128 -4.14475,-8.88421c0.22353,-1.30057 1.17401,-5.57997 2.62148,-10.8307c1.58098,0.17348 3.15379,0.35988 4.72372,0.64022c2.10584,0.37605 4.22404,0.66368 6.34555,0.93129c-1.34147,6.00551 -2.52462,10.95272 -2.76664,12.36084z" fill="#ffffff" stroke="#000000" stroke-width="2" stroke-linecap="butt"/><path d="M316.22229,187.30195c0,1.12921 -1.77857,1.25408 -2.51048,2.70979c-1.80417,3.58837 -3.84742,8.66459 -5.35409,8.66459c-2.11789,0 0.195,-7.46166 0.195,-11.37439c0,-3.91272 2.23687,-7.47459 4.35476,-7.47459c0.43662,0 1.61092,-0.31471 1.96684,-0.04008c1.37052,1.05751 1.34798,4.40859 1.34798,7.51467z" fill="#334865" stroke="none" stroke-width="0" stroke-linecap="butt"/><path d="M325.29883,180.40324c0.58578,-0.08775 1.58355,0.019 2.73165,0.82067c1.62029,1.13137 4.4992,5.28519 4.74019,6.89762c0.41175,2.75494 1.99996,6.00788 0.58749,6.21949c-0.64801,0.09708 -0.73482,-2.66826 -1.80079,-4.28071c-0.58697,-0.88788 -1.96501,-1.69479 -2.52639,-2.52797c-0.64132,-0.95184 -1.84062,-0.86204 -1.95945,-1.65712c-0.41175,-2.75494 -3.18517,-5.26036 -1.7727,-5.47197z" data-paper-data="{&quot;index&quot;:null}" fill="#334865" stroke="none" stroke-width="0" stroke-linecap="butt"/><path d="M325.40099,231.58377l-7.72377,-0.33102" fill="none" stroke="#000000" stroke-width="2" stroke-linecap="round"/><path d="M327.78562,178.6856c0,0.78788 -0.41115,1.82496 -1.22398,2.80974c-0.92811,1.12448 -2.44288,2.14932 -5.56126,2.11015c-2.81373,-0.03534 -3.13628,-0.95102 -3.96732,-2.13634c-0.64567,-0.92093 -2.09093,-2.0457 -2.09093,-2.78355c0,-1.68751 2.87511,-3.05551 6.42174,-3.05551c3.54663,0 6.42175,1.368 6.42175,3.05551z" fill="#ffffff" stroke="#000000" stroke-width="2" stroke-linecap="butt"/><path d="M341.73326,155.57285c0.10467,1.8765 0.72983,4.44998 0.5831,6.15837c-1.07425,12.50745 -9.69713,17.29201 -20.0337,17.88694c-11.98052,0.68955 -22.51767,-7.38223 -23.28044,-21.05752c-0.76277,-13.67531 8.49458,-24.99319 20.4751,-25.68274c11.98052,-0.68955 21.49316,9.01964 22.25594,22.69495z" fill="#ffffff" stroke="#000000" stroke-width="2" stroke-linecap="butt"/><path d="M320.04593,158.18297c0,2.79954 -0.86452,5.06901 -1.93095,5.06901c-1.06642,0 -1.93093,-2.26947 -1.93093,-5.06901c0,-2.79954 0.86451,-5.06901 1.93093,-5.06901c1.06642,0 1.93095,2.26947 1.93095,5.06901z" fill="#000000" stroke="none" stroke-width="0" stroke-linecap="butt"/><path d="M334.18033,158.20272c0,2.30819 -0.71279,4.17934 -1.59205,4.17934c-0.87926,0 -1.59205,-1.87116 -1.59205,-4.17934c0,-2.30819 0.71279,-4.17935 1.59205,-4.17935c0.87926,0 1.59205,1.87116 1.59205,4.17935z" fill="#000000" stroke="none" stroke-width="0" stroke-linecap="butt"/><path d="M308.34994,165.69269l27.47456,1.76543" fill="none" stroke="#000000" stroke-width="2" stroke-linecap="round"/><path d="M308.01892,163.48588l-0.99305,3.86189" fill="none" stroke="#000000" stroke-width="2" stroke-linecap="round"/><path d="M310.33126,223.91638l3.16535,-9.61327" fill="none" stroke="#000000" stroke-width="2" stroke-linecap="round"/><path d="M332.2337,222.44102l-1.64128,-6.79962" fill="none" stroke="#000000" stroke-width="2" stroke-linecap="round"/><path d="M329.2322,180.4924c0,0 -1.23297,4.86641 -5.79289,5.39337c-4.10253,0.47411 -7.66472,-1.09846 -9.24532,-2.54116c-1.95625,-1.78556 -1.40826,-3.58465 -1.40826,-3.58465" fill="none" stroke="#000000" stroke-width="1.5" stroke-linecap="round"/><path d="M319.84373,185.68604l-0.13317,7.79043" fill="none" stroke="#000000" stroke-width="1.5" stroke-linecap="round"/><path d="M324.57124,185.61945l-0.06658,7.9236" fill="none" stroke="#000000" stroke-width="1.5" stroke-linecap="round"/><path d="M335.45927,228.59855l-30.06309,-1.51481" fill="none" stroke="#000000" stroke-width="2" stroke-linecap="round"/><g stroke-linecap="butt"><path d="M345.92554,156.2832c0.1828,9.1572 -4.27778,17.01307 -11.15963,21.56229c-0.71513,0.47272 0.208,-0.18697 1.45209,0.34857c1.97466,0.85002 2.03352,1.899 -1.49415,2.66983c-3.80402,0.83121 -9.79309,1.42304 -15.67304,1.4193c-3.89104,-0.00248 -8.53851,-0.51612 -9.58684,-0.49519c-2.44529,0.04882 -4.95697,-1.53628 -3.1452,-2.75411c1.34066,-0.90116 1.18834,-0.7677 0.60151,-1.16407c-6.53884,-4.41664 -10.82875,-11.97117 -11.00541,-20.82097c-0.28598,-14.32555 10.31439,-26.6204 24.24868,-26.89857c13.93428,-0.27817 25.47604,11.80739 25.76202,26.13296z" fill="url(#color-1)" stroke="#111111" stroke-width="2"/><path d="M337.33033,142.42324c0.62666,2.5676 -1.35868,3.97948 -3.82932,2.97852c-0.45387,-0.18389 -1.79187,-2.41599 -2.32388,-2.76277c-1.54577,-1.00756 -4.03561,-0.82745 -4.98286,-2.41091c-0.74538,-0.42008 -1.25563,-1.21216 -1.27393,-2.12955c-0.02756,-1.38044 1.06916,-2.52184 2.4496,-2.5494c0.52323,-0.01044 1.01212,0.14064 1.41903,0.40747c3.47341,0.06239 7.74305,3.19578 8.54134,6.46663z" fill="#ffffff" stroke="none" stroke-width="0.5"/></g></g></g></svg>