<svg version="1.1" xmlns="http://www.w3.org/2000/svg" xmlns:xlink="http://www.w3.org/1999/xlink" width="95.30869" height="64.57399" viewBox="0,0,95.30869,64.57399"><g transform="translate(-267.29631,-269.87836)"><g data-paper-data="{&quot;isPaintingLayer&quot;:true}" fill-rule="nonzero" stroke="none" stroke-linecap="butt" stroke-linejoin="miter" stroke-miterlimit="10" stroke-dasharray="" stroke-dashoffset="0" style="mix-blend-mode: normal"><path d="M351.58815,283.106c0,3.75896 5.3097,18.28731 -9.89456,24.531c-10.62946,4.36503 -40.84707,1.52767 -49.28906,1.52767c-20.51732,0 -15.11617,-19.67177 -15.11617,-26.05867c0,-6.38689 16.63258,-11.5645 37.14989,-11.5645c20.51732,0 37.14989,5.1776 37.14989,11.5645z" fill="#fff157" stroke-width="0"/><path d="M362.60501,300.37565c0,2.81023 -23.12902,34.07671 -49.44779,34.07671c-26.31877,0 -45.8609,-31.26648 -45.8609,-34.07671c0,-2.81023 21.33558,-5.08838 47.65435,-5.08838c26.31877,0 47.65434,2.27815 47.65434,5.08838z" fill="#fff157" stroke-width="0"/><text transform="translate(286.18511,300.079) scale(0.64061,0.77108)" font-size="40" xml:space="preserve" fill="#ffffff" fill-rule="nonzero" stroke="none" stroke-width="1" stroke-linecap="butt" stroke-linejoin="miter" stroke-miterlimit="10" stroke-dasharray="" stroke-dashoffset="0" font-family="Playful" font-weight="normal" text-anchor="start" style="mix-blend-mode: normal"><tspan x="0" dy="0">Next</tspan></text></g></g></svg>