<svg version="1.1" xmlns="http://www.w3.org/2000/svg" xmlns:xlink="http://www.w3.org/1999/xlink" width="53.87388" height="138.31838" viewBox="0,0,53.87388,138.31838"><defs><radialGradient cx="334.57282" cy="152.09157" r="26.05961" gradientUnits="userSpaceOnUse" id="color-1"><stop offset="0" stop-color="#afb0e0" stop-opacity="0"/><stop offset="1" stop-color="#afb0e0" stop-opacity="0.31373"/></radialGradient></defs><g transform="translate(-300.34735,-130.1786)"><g data-paper-data="{&quot;isPaintingLayer&quot;:true}" fill-rule="nonzero" stroke-linejoin="miter" stroke-miterlimit="10" stroke-dasharray="" stroke-dashoffset="0" style="mix-blend-mode: normal"><path d="M333.25346,181.69368c-0.14783,3.4863 -5.3641,6.09639 -11.65087,5.8298c-6.28677,-0.26659 -11.26335,-3.3089 -11.11551,-6.7952c0.14783,-3.4863 1.80618,-5.31423 8.09294,-5.04764c6.28677,0.26659 14.82128,2.52674 14.67344,6.01304z" fill="#334865" stroke="#000000" stroke-width="2" stroke-linecap="butt"/><path d="M340.34348,218.58811c-0.06271,4.05318 -2.91754,7.28979 -6.37644,7.22917c-3.45891,-0.06063 -6.21206,-3.39553 -6.14934,-7.44871c0.01792,-1.15797 0.01199,-4.7753 0.07502,-9.35513c1.88368,-0.52086 3.77875,-1.01097 5.68853,-1.32722c1.99697,-0.33069 3.90098,-1.04035 5.89516,-1.34047c0.08188,-0.01232 0.16694,-0.01856 0.25374,-0.02115c0.50233,5.92352 0.63473,10.88157 0.61334,12.26351z" data-paper-data="{&quot;index&quot;:null}" fill="#ffffff" stroke="#000000" stroke-width="2" stroke-linecap="butt"/><path d="M331.10911,180.00751c4.2058,-0.16811 7.48503,12.68142 8.73233,22.62009c0.30377,2.42045 -0.4136,1.75453 -0.22562,4.05652c-0.11659,-0.00274 -0.2164,-0.00185 -0.28471,0.00896c-1.99856,0.31626 -3.90679,1.05476 -5.90768,1.40255c-1.88325,0.32733 -3.75261,0.82744 -5.61103,1.36103c0.20224,-11.82098 0.86015,-29.35177 3.2967,-29.44916z" data-paper-data="{&quot;index&quot;:null}" fill="#334865" stroke="#000000" stroke-width="2" stroke-linecap="butt"/><path d="M323.37019,225.43466c1.80586,-10.89103 7.55117,-5.87994 12.90655,-5.67518c0.46801,0.01789 0.24997,27.04222 0.05056,35.5639c-0.03746,1.60072 -0.50554,2.37885 -0.49955,2.38698c-2.88211,0.04355 -6.75161,-0.81708 -9.50985,-0.28155c-1.42674,0.27893 -4.07798,-0.09625 -5.85141,0.06769c0.03645,-0.9389 -0.25929,-1.17291 -0.21331,-2.24272c0.38295,-8.91056 1.90472,-22.50783 3.11701,-29.81914z" fill="#a68f79" stroke="#000000" stroke-width="2" stroke-linecap="butt"/><path d="M337.54077,265.85318c-0.06515,1.21624 -16.90959,-0.38019 -16.84444,-1.59644c0.00981,-0.18315 0.0763,-2.62208 0.21586,-6.27204c1.7847,-0.18417 4.20495,0.1504 5.49456,-0.09836c2.83243,-0.54992 6.07136,-0.3378 9.01315,-0.39928c0.38183,0.56052 0.96406,1.48609 1.34649,2.42672c0.83375,2.05076 0.81199,5.23735 0.77438,5.93938z" fill="#ffffff" stroke="#000000" stroke-width="2" stroke-linecap="butt"/><path d="M307.62709,225.62192c0.50471,-11.02938 7.86849,-4.01389 13.90455,-4.46948c0.57137,-0.04313 3.26163,30.8052 3.73127,36.24173c-1.39989,0.13811 -1.83777,0.53257 -3.23765,0.67067c-2.6009,0.25659 -5.3041,1.81032 -7.75435,2.94283c-1.50066,0.90248 -4.13256,2.29262 -5.70522,2.97376c-0.0592,-0.89068 -0.50335,-2.23119 -0.56635,-3.36669c-0.53225,-9.59462 -0.75512,-26.6257 -0.37224,-34.99284z" fill="#a68f79" stroke="#000000" stroke-width="2" stroke-linecap="butt"/><path d="M329.50589,265.8541c0.09679,1.2149 -20.19615,2.334 -20.29292,1.1191c-0.0093,-0.11679 -0.09123,-1.2377 -0.21431,-3.0599c1.72315,-0.79552 3.61413,-1.95844 4.77181,-2.65704c2.39309,-1.10169 4.81235,-2.73471 7.33855,-2.98393c1.35994,-0.13416 2.81928,-0.27814 4.19395,-0.41375c0.01963,0.22803 0.02997,0.34896 0.02997,0.34896c0,0 1.46104,1.31462 2.35589,2.73007c1.2217,1.93241 1.76119,4.21523 1.81706,4.91649z" fill="#ffffff" stroke="#000000" stroke-width="2" stroke-linecap="butt"/><path d="M316.0593,230.8187l0.18266,-4.3075l14.0867,0.59734l-0.18266,4.3075z" fill="#a68f79" stroke="none" stroke-width="0" stroke-linecap="butt"/><path d="M306.22992,227.27646c0,0 0.56874,-17.60394 2.28567,-28.39807c1.93983,-12.19554 5.83431,-22.64859 14.98137,-22.53293c11.49984,0.1454 11.86974,14.9282 12.84694,28.45524c0.7462,10.32945 0.70514,25.56837 0.70514,25.56837" fill="#334865" stroke="#000000" stroke-width="2" stroke-linecap="round"/><path d="M329.65385,180.82399c0.58897,-0.06285 1.58132,0.08607 2.69443,0.93566c1.5709,1.199 4.27125,5.47106 4.44371,7.09225c0.29466,2.76991 1.74363,6.08722 0.32346,6.2388c-0.65154,0.06954 -0.62112,-2.697 -1.61781,-4.35316c-0.54883,-0.91195 -1.89144,-1.77652 -2.41702,-2.63273c-0.60042,-0.97816 -1.80245,-0.93925 -1.88748,-1.73865c-0.29466,-2.76991 -2.95945,-5.39058 -1.53928,-5.54216z" data-paper-data="{&quot;index&quot;:null}" fill="#334865" stroke="none" stroke-width="0" stroke-linecap="butt"/><path d="M327.84794,231.72371l-7.70281,-0.65795" fill="none" stroke="#000000" stroke-width="2" stroke-linecap="round"/><path d="M333.46005,179.2662c-0.03338,0.78717 -0.4881,1.8059 -1.34192,2.75536c-0.97492,1.08415 -2.53175,2.04389 -5.64567,1.87264c-2.80971,-0.15452 -3.09317,-1.08304 -3.87325,-2.3025c-0.60607,-0.94746 -2.00238,-2.13245 -1.97112,-2.86964c0.07149,-1.68599 3.00198,-2.93096 6.54543,-2.7807c3.54345,0.15026 6.35803,1.63884 6.28653,3.32483z" fill="#ffffff" stroke="#000000" stroke-width="2" stroke-linecap="butt"/><path d="M349.76292,159.19148c-0.11879,1.87566 0.1965,4.50515 -0.15196,6.18404c-2.55118,12.29153 -11.68099,16.01882 -22.01511,15.38268c-11.97768,-0.7373 -21.4823,-10.00269 -20.61654,-23.67184c0.86575,-13.66917 11.401,-23.80829 23.37868,-23.07098c11.97768,0.7373 20.27068,11.50693 19.40493,25.1761z" fill="#ffffff" stroke="#000000" stroke-width="2" stroke-linecap="butt"/><path d="M328.20785,161.00602c-0.33228,2.77975 -1.46005,4.93057 -2.51895,4.80399c-1.05888,-0.12657 -1.64792,-2.48262 -1.31563,-5.26236c0.33228,-2.77975 1.46004,-4.93057 2.51893,-4.804c1.05888,0.12657 1.64794,2.48262 1.31565,5.26236z" fill="#000000" stroke="none" stroke-width="0" stroke-linecap="butt"/><path d="M342.23999,162.70326c-0.27396,2.29187 -1.2038,4.0652 -2.07684,3.96084c-0.87304,-0.10436 -1.35871,-2.04689 -1.08475,-4.33876c0.27396,-2.29187 1.2038,-4.06521 2.07685,-3.96085c0.87304,0.10436 1.35871,2.04689 1.08475,4.33877z" fill="#000000" stroke="none" stroke-width="0" stroke-linecap="butt"/><path d="M315.7032,167.07445l27.07081,5.01393" fill="none" stroke="#000000" stroke-width="2" stroke-linecap="round"/><path d="M314.19204,168.56067l1.4444,-3.71672" fill="none" stroke="#000000" stroke-width="2" stroke-linecap="round"/><path d="M319.63073,215.3302l-3.56979,9.47053" fill="none" stroke="#000000" stroke-width="2" stroke-linecap="round"/><path d="M335.96564,225.16899l-1.35173,-6.86305" fill="none" stroke="#000000" stroke-width="2" stroke-linecap="round"/><path d="M334.82879,181.13267c0,0 -1.43804,4.8098 -6.01619,5.1431c-4.11893,0.29987 -7.6113,-1.4222 -9.12936,-2.93057c-1.87885,-1.86684 -1.25513,-3.64109 -1.25513,-3.64109" fill="none" stroke="#000000" stroke-width="1.5" stroke-linecap="round"/><path d="M325.22871,185.92389l-0.4631,7.77779" fill="none" stroke="#000000" stroke-width="1.5" stroke-linecap="round"/><path d="M330.45435,186.07884l-0.40222,7.91366" fill="none" stroke="#000000" stroke-width="1.5" stroke-linecap="round"/><path d="M336.7642,229.36412l-29.97192,-2.78712" fill="none" stroke="#000000" stroke-width="2" stroke-linecap="round"/><path d="M316.10717,180.7151c2.35597,0.36861 0.245,16.45794 -1.59307,28.61238c-2.14161,-0.12068 -4.28133,-0.26134 -6.41473,-0.49194c-1.57085,-0.1698 -3.13815,-0.24825 -4.71238,-0.31216c0.28349,-1.3821 -0.3669,-1.72152 -0.02897,-3.19378c2.59772,-11.31789 7.72036,-25.40127 12.74917,-24.61449z" fill="#334865" stroke="#000000" stroke-width="2" stroke-linecap="butt"/><path d="M312.52939,222.20919c-0.43382,4.27303 -2.76552,6.60178 -6.36435,6.23642c-3.59884,-0.36536 -5.1815,-4.30413 -4.74769,-8.57715c0.13328,-1.31289 0.78632,-5.64766 1.86815,-10.98573c1.58918,0.06402 3.1711,0.14149 4.75663,0.31286c2.12676,0.2299 4.25976,0.37073 6.39467,0.49137c-0.92403,6.08373 -1.76311,11.10078 -1.90743,12.52223z" fill="#ffffff" stroke="#000000" stroke-width="2" stroke-linecap="butt"/><path d="M320.68011,187.99629c0.07789,1.12652 -1.68783,1.37378 -2.31759,2.8765c-1.55235,3.70427 -3.24059,8.90934 -4.74367,9.01327c-2.11285,0.14609 -0.32016,-7.45734 -0.59004,-11.36075c-0.26989,-3.9034 1.71597,-7.61108 3.82881,-7.75717c0.2549,-0.01763 0.75437,-0.16019 1.19985,-0.22545c0.17958,2.22539 1.09286,4.25714 2.50585,5.84055c0.04301,0.53599 0.07982,1.07818 0.11681,1.61304z" fill="#334865" stroke="none" stroke-width="0" stroke-linecap="butt"/><g stroke-linecap="butt"><path d="M353.22123,161.02574c-1.17162,9.08378 -6.74352,16.19472 -14.22178,19.67767c-0.77711,0.36193 0.23333,-0.1542 1.38469,0.5592c1.82747,1.13234 1.73076,2.17851 -1.87207,2.41988c-3.88506,0.26029 -9.89587,-0.0389 -15.71078,-0.91101c-3.84801,-0.57711 -8.36865,-1.77151 -9.40857,-1.90564c-2.42568,-0.31286 -4.67572,-2.25152 -2.70396,-3.18842c1.45904,-0.69327 1.28869,-0.58378 0.76683,-1.06247c-5.81484,-5.33392 -8.94198,-13.43918 -7.80969,-22.21803c1.8329,-14.21069 14.13284,-24.80514 27.9554,-23.02231c13.82256,1.78283 23.45283,15.44045 21.61994,29.65116z" fill="url(#color-1)" stroke="#111111" stroke-width="2"/><path d="M346.76724,146.04835c0.24057,2.63199 -1.93151,3.73518 -4.22722,2.38031c-0.42174,-0.2489 -1.4154,-2.65413 -1.89037,-3.07568c-1.38,-1.22481 -3.86915,-1.4144 -4.57216,-3.12038c-0.67516,-0.52557 -1.06282,-1.38431 -0.94545,-2.29434c0.17662,-1.36937 1.42989,-2.33629 2.79926,-2.15966c0.51903,0.06695 0.98025,0.28857 1.34329,0.61257c3.42611,0.57469 7.18615,4.3043 7.49262,7.65718z" fill="#ffffff" stroke="none" stroke-width="0.5"/></g></g></g></svg>