<svg version="1.1" xmlns="http://www.w3.org/2000/svg" xmlns:xlink="http://www.w3.org/1999/xlink" width="53.11455" height="134.89905" viewBox="0,0,53.11455,134.89905"><g transform="translate(-295.61511,-132.73795)"><g data-paper-data="{&quot;isPaintingLayer&quot;:true}" fill-rule="nonzero" stroke-linejoin="miter" stroke-miterlimit="10" stroke-dasharray="" stroke-dashoffset="0" style="mix-blend-mode: normal"><path d="M308.62189,266.58633c-0.64843,0.95446 -12.62982,-11.87949 -11.98139,-12.83395c0.06233,-0.09175 0.66472,-0.96742 1.64962,-2.38415c1.42243,0.57699 3.15104,0.99796 4.20159,1.26544c1.97365,0.8036 4.26915,1.23585 5.82423,2.75305c0.83715,0.81676 1.73549,1.69321 2.5817,2.51883c-0.12088,0.18013 -0.18504,0.27562 -0.18504,0.27562c0,0 0.05588,1.94535 -0.26276,3.58358c-0.43502,2.23656 -1.45368,4.27065 -1.82796,4.82158z" fill="#ffffff" stroke="#000000" stroke-width="2" stroke-linecap="butt"/><path d="M333.14217,181.3436c-0.17259,3.48516 -5.40726,6.05813 -11.69198,5.74691c-6.28472,-0.31122 -11.23957,-3.38881 -11.06697,-6.87397c0.1726,-3.48516 1.84386,-5.30127 8.12857,-4.99004c6.28472,0.31122 14.80296,2.63194 14.63037,6.11709z" fill="#334865" stroke="#000000" stroke-width="2" stroke-linecap="butt"/><path d="M343.00481,218.11505c0.1164,4.052 -2.59267,7.41155 -6.05088,7.50379c-3.4582,0.09222 -6.35599,-3.11781 -6.47237,-7.1698c-0.03326,-1.15762 -0.19896,-4.77117 -0.3383,-9.34931c1.85883,-0.60356 3.7304,-1.17689 5.62434,-1.57721c1.98042,-0.41858 3.85121,-1.21165 5.83019,-1.59957c0.08125,-0.01592 0.16595,-0.02593 0.25256,-0.03234c0.76351,5.89556 1.11479,10.84291 1.15447,12.22444z" data-paper-data="{&quot;index&quot;:null}" fill="#ffffff" stroke="#000000" stroke-width="2" stroke-linecap="butt"/><path d="M332.07521,179.98003c4.19427,-0.35373 8.03791,12.33841 9.72302,22.21228c0.41039,2.40467 -0.3357,1.77109 -0.04621,4.06252c-0.11659,0.00241 -0.21626,0.00772 -0.28403,0.02153c-1.98264,0.40423 -3.85639,1.22631 -5.83995,1.66214c-1.86695,0.4102 -3.7124,0.9924 -5.54543,1.60757c-0.32012,-11.81837 -0.43725,-29.36111 1.99261,-29.56604z" data-paper-data="{&quot;index&quot;:null}" fill="#334865" stroke="#000000" stroke-width="2" stroke-linecap="butt"/><path d="M324.72868,225.90563c0.92419,-11.00098 7.05388,-6.46815 12.40836,-6.6947c0.46793,-0.0198 2.42381,26.93454 2.91033,35.44466c0.09139,1.59855 -0.3126,2.41181 -0.30596,2.41942c-2.86927,0.27518 -6.79545,-0.27148 -9.50169,0.48411c-1.39969,0.39276 -4.07252,0.23201 -5.82701,0.53802c-0.03917,-0.93879 -0.35277,-1.14825 -0.39297,-2.2183c-0.33485,-8.91249 0.08853,-22.5881 0.70895,-29.97322z" fill="#a68f79" stroke="#000000" stroke-width="2" stroke-linecap="butt"/><path d="M342.10369,265.05371c0.03288,1.21755 -16.88539,0.98086 -16.91826,-0.2367c-0.00495,-0.18335 -0.13481,-2.61973 -0.28923,-6.26908c1.76411,-0.32709 4.20343,-0.18824 5.46886,-0.53989c2.77904,-0.77592 6.02454,-0.82495 8.95185,-1.1228c0.42567,0.528 1.08045,1.40376 1.53728,2.31059c0.99597,1.97707 1.23053,5.15509 1.2495,5.85787z" fill="#ffffff" stroke="#000000" stroke-width="2" stroke-linecap="butt"/><path d="M307.71761,225.17165c2.12361,-10.83477 8.37385,-2.81125 14.41118,-2.37287c0.30875,0.02241 0.3257,12.90585 -1.74739,22.45278c-1.76424,8.12461 -5.3051,13.06992 -8.64845,13.79589c-0.89626,-0.04438 -1.42067,0.07207 -2.04765,0.14417c-0.18254,-0.11877 -0.36922,-0.23176 -0.55979,-0.3387c-0.30081,-0.32217 -0.55017,-0.63943 -0.7232,-0.95442l-0.01036,-0.00277c-2.29272,-2.76786 -6.58997,-5.1083 -10.72234,-6.48451c1.63883,-2.74841 3.54713,-5.6807 5.02019,-8.75231c3.06385,-6.38868 4.22439,-13.38816 5.02781,-17.48725z" fill="#a68f79" stroke="#000000" stroke-width="2" stroke-linecap="butt"/><path d="M317.09693,230.44393l0.21325,-4.3061l14.0821,0.69736l-0.21324,4.3061z" fill="#a68f79" stroke="none" stroke-width="0" stroke-linecap="butt"/><path d="M307.29296,226.83197c0,0 0.69373,-17.59946 2.48728,-28.38113c2.0264,-12.18145 5.995,-22.60658 15.14102,-22.42596c11.49852,0.22707 11.76343,15.01212 12.64453,28.54575c0.67282,10.33449 0.52355,25.57274 0.52355,25.57274" fill="#334865" stroke="#000000" stroke-width="2" stroke-linecap="round"/><path d="M317.95958,179.21756c2.29586,0.64458 -1.70263,16.37145 -4.9649,28.22331c-2.11232,-0.37305 -4.22041,-0.7657 -6.31157,-1.24695c-1.53975,-0.35433 -3.08679,-0.61755 -4.64241,-0.86714c0.44491,-1.33888 -0.16078,-1.75283 0.34885,-3.17481c3.91769,-10.93135 10.66956,-24.31028 15.57006,-22.93442z" fill="#334865" stroke="#000000" stroke-width="2" stroke-linecap="butt"/><path d="M309.50079,219.99756c-0.936,4.19176 -3.52669,6.22849 -7.05708,5.44019c-3.5304,-0.78832 -4.63624,-4.88657 -3.70025,-9.07833c0.28758,-1.28793 1.44857,-5.51507 3.15397,-10.68778c1.57047,0.25147 3.13213,0.51542 4.68627,0.87308c2.08467,0.47975 4.18605,0.87179 6.29173,1.24401c-1.63686,5.93181 -3.06327,10.81445 -3.37464,12.20887z" fill="#ffffff" stroke="#000000" stroke-width="2" stroke-linecap="butt"/><path d="M320.64077,186.93889c-0.05584,1.12783 -1.83843,1.16458 -2.64144,2.58231c-1.97944,3.49475 -4.27127,8.46369 -5.77609,8.38916c-2.1153,-0.10475 0.56382,-7.44288 0.75734,-11.35082c0.19353,-3.90793 2.60383,-7.35481 4.71913,-7.25005c0.43609,0.02159 1.62451,-0.23465 1.96641,0.05725c1.31653,1.124 1.12828,4.46987 0.97466,7.57214z" fill="#334865" stroke="none" stroke-width="0" stroke-linecap="butt"/><path d="M330.0474,180.49756c0.5894,-0.05867 1.58068,0.0973 2.68772,0.95478c1.56235,1.21013 4.23228,5.50125 4.39323,7.12363c0.27499,2.77194 1.70037,6.09946 0.27915,6.24094c-0.65202,0.06491 -0.60195,-2.70133 -1.58686,-4.36454c-0.54233,-0.91582 -1.87878,-1.78991 -2.39827,-2.64984c-0.59346,-0.9824 -1.79573,-0.95202 -1.8751,-1.752c-0.27499,-2.77194 -2.92109,-5.41147 -1.49988,-5.55295z" data-paper-data="{&quot;index&quot;:null}" fill="#334865" stroke="none" stroke-width="0" stroke-linecap="butt"/><path d="M327.61802,231.6205l-7.69795,-0.71264" fill="none" stroke="#000000" stroke-width="2" stroke-linecap="round"/><path d="M332.61611,178.90502c-0.03897,0.78692 -0.50091,1.8024 -1.36145,2.74576c-0.98259,1.07719 -2.54619,2.02586 -5.65882,1.83251c-2.80854,-0.17447 -3.08541,-1.10498 -3.8568,-2.32995c-0.59932,-0.95174 -1.98719,-2.14662 -1.9507,-2.88357c0.08347,-1.68544 3.02273,-2.90957 6.565,-2.73415c3.54229,0.17542 6.34623,1.68395 6.26277,3.36939z" fill="#ffffff" stroke="#000000" stroke-width="2" stroke-linecap="butt"/><path d="M347.42444,157.41198c0.02007,1.8793 0.52872,4.47833 0.30522,6.17838c-1.63632,12.44639 -10.46588,16.83785 -20.81876,16.96676c-11.99942,0.14942 -22.16244,-8.38862 -22.30869,-22.08439c-0.14625,-13.69579 9.61131,-24.58537 21.61073,-24.73478c11.99942,-0.14942 21.06524,9.97825 21.21151,23.67403z" fill="#ffffff" stroke="#000000" stroke-width="2" stroke-linecap="butt"/><path d="M324.85814,160.26321c-0.12605,2.7967 -1.09188,5.02494 -2.15722,4.97692c-1.06533,-0.04802 -1.82679,-2.3541 -1.70073,-5.15081c0.12605,-2.7967 1.09187,-5.02494 2.1572,-4.97693c1.06533,0.04802 1.82681,2.35411 1.70075,5.15082z" fill="#000000" stroke="none" stroke-width="0" stroke-linecap="butt"/><path d="M337.96472,161.66503c-0.10392,2.30585 -0.90024,4.143 -1.77862,4.10341c-0.87837,-0.03959 -1.50618,-1.94094 -1.40225,-4.24679c0.10392,-2.30585 0.90024,-4.14301 1.77861,-4.10342c0.87837,0.03959 1.50618,1.94094 1.40226,4.24679z" fill="#000000" stroke="none" stroke-width="0" stroke-linecap="butt"/><path d="M313.08577,166.75131l27.36721,3.00071" fill="none" stroke="#000000" stroke-width="2" stroke-linecap="round"/><path d="M312.6087,164.52766l-1.16592,3.81326" fill="none" stroke="#000000" stroke-width="2" stroke-linecap="round"/><path d="M316.58293,213.77219l-3.63696,9.44494" fill="none" stroke="#000000" stroke-width="2" stroke-linecap="round"/><path d="M334.89457,222.82689l-1.30296,-6.87248" fill="none" stroke="#000000" stroke-width="2" stroke-linecap="round"/><path d="M333.97155,180.78116c0,0 -1.47216,4.79947 -6.05256,5.10025c-4.12095,0.27062 -7.601,-1.47622 -9.10831,-2.99533c-1.86554,-1.88013 -1.22924,-3.64991 -1.22924,-3.64991" fill="none" stroke="#000000" stroke-width="1.5" stroke-linecap="round"/><path d="M324.33769,185.50408l-0.51833,7.77431" fill="none" stroke="#000000" stroke-width="1.5" stroke-linecap="round"/><path d="M328.6043,193.58201l0.45841,-7.91061" fill="none" stroke="#000000" stroke-width="1.5" stroke-linecap="round"/><path d="M307.86027,226.13653l29.95137,2.9999" fill="none" stroke="#000000" stroke-width="2" stroke-linecap="round"/></g></g></svg>