<svg version="1.1" xmlns="http://www.w3.org/2000/svg" xmlns:xlink="http://www.w3.org/1999/xlink" width="74.47682" height="125.91119" viewBox="0,0,74.47682,125.91119"><g transform="translate(-288.1933,-124.46956)"><g data-paper-data="{&quot;isPaintingLayer&quot;:true}" fill-rule="nonzero" stroke-linejoin="miter" stroke-miterlimit="10" stroke-dasharray="" stroke-dashoffset="0" style="mix-blend-mode: normal"><path d="M357.51525,238.57696c2.68871,1.96244 4.47318,3.78903 4.10742,3.80381c-0.32924,0.01328 0.53558,0.77095 -3.14483,1.46821c-2.82129,0.53449 -9.96758,1.02732 -12.38822,1.15927c-4.21254,0.22961 -5.04083,-1.4997 -5.18933,-1.56303c-0.48048,-0.20494 -1.2989,-2.99111 -2.22375,-6.88339c2.17082,-0.26173 4.33787,-0.53462 6.50509,-0.81367c2.30663,-0.29697 4.58364,-0.65899 6.85605,-1.0389c1.21499,1.04294 3.5863,2.48733 5.47755,3.86771z" data-paper-data="{&quot;index&quot;:null}" fill="#ffffff" stroke="#000000" stroke-width="2" stroke-linecap="butt"/><path d="M353.90181,234.98502c0.85807,0.94433 0.76327,0.81418 -4.90249,4.19369c-5.66576,3.37951 -10.95438,5.3536 -11.81245,4.40926c-0.16579,-0.18247 -1.91628,-1.94627 -3.62664,-4.81784c-7.36732,-12.36939 -30.22299,-40.90594 -30.22299,-40.90594c0,0 14.95015,-8.61886 22.50022,0.62849c4.28263,5.24536 16.84455,21.7489 23.61746,30.6564c0.90837,1.19468 3.03501,2.51058 3.70118,3.3865c1.25665,1.65231 0.69959,2.39867 0.74572,2.44941z" data-paper-data="{&quot;index&quot;:null}" fill="#a68f79" stroke="#000000" stroke-width="1.5" stroke-linecap="butt"/><path d="M304.23751,243.33647c-0.5466,3.3323 -1.24221,7.34868 -4.24434,5.63535c-2.30137,-1.31338 -7.25934,-5.16015 -8.90333,-6.48426c-2.86094,-2.30435 -1.62776,-3.82904 -1.65633,-3.9534c-0.10022,-0.4364 2.62367,-2.93662 6.45194,-6.19321c0.73453,0.52097 1.47313,1.03841 2.21891,1.54973c2.3159,1.58783 4.62911,3.17799 6.93888,4.77138c0.1276,0.08803 0.25532,0.17597 0.3831,0.26382c-1.33827,1.2844 -0.86533,2.43806 -1.18888,4.41058z" data-paper-data="{&quot;index&quot;:null}" fill="#ffffff" stroke="#000000" stroke-width="2" stroke-linecap="butt"/><path d="M305.44002,245.43816c-0.98256,0.86356 -0.84249,0.7629 -6.0881,-2.97837c-5.24561,-3.74126 -8.70148,-7.47419 -7.7189,-8.33776c0.18987,-0.16688 1.9958,-1.89544 5.16157,-3.81851c1.54531,-0.93869 4.33614,-2.78342 6.24108,-4.06097c3.42859,-2.29937 -1.05811,-15.712 2.91564,-18.59296c1.42884,-1.0359 9.39469,1.25331 10.84122,0.36773c1.6548,2.21979 3.71913,4.38546 6.16179,6.90933l0.36255,0.09592c1.72189,1.22808 -2.5875,-3.45851 -0.55494,-2.59505c-1.43204,4.39243 0.01599,19.37869 -2.16022,21.01051c-4.79195,3.59326 -5.34641,4.66526 -8.92,7.33256c-1.27814,0.95399 -2.46304,2.88529 -3.4001,3.58486c-1.76766,1.31964 -2.78874,1.03625 -2.84154,1.08267z" fill="#a68f79" stroke="#000000" stroke-width="1.5" stroke-linecap="butt"/><g stroke="#000000" stroke-width="2" stroke-linecap="butt"><path d="M331.43128,189.60568c0.18807,-0.06576 0.37508,-0.13402 0.56094,-0.20523c2.57176,-0.98524 5.11801,-1.89501 7.78707,-2.67989c1.15267,-0.33897 2.31182,-0.6529 3.4489,-0.99605c5.84321,11.19699 11.04746,20.13468 4.64836,22.2183c-7.06086,2.19171 -10.60382,-7.05257 -16.44526,-18.33712z" data-paper-data="{&quot;index&quot;:null}" fill="#ffffff"/><path d="M331.34521,190.33941c-3.37649,-5.427 -5.7017,-10.95438 -7.08603,-14.95197c-1.45364,-4.19775 -2.82791,-6.21268 -1.11459,-6.88571c6.63124,0.32282 13.39153,5.9535 20.31357,17.07926c0.04414,0.07095 0.08825,0.14182 0.13234,0.21258c-1.17164,0.40625 -2.36899,0.78359 -3.55501,1.18796c-2.78133,0.94827 -5.42633,2.01507 -8.09331,3.15921c-0.18985,0.08145 -0.38109,0.16009 -0.57355,0.23631c-0.0078,-0.01255 -0.01559,-0.02509 -0.02342,-0.03764z" data-paper-data="{&quot;index&quot;:null}" fill="#334865"/></g><path d="M305.54861,175.20699c2.54277,-12.38864 12.25771,-11.41129 12.25771,-11.41129c0,0 10.6543,1.26284 13.72116,8.03522c3.41016,7.53047 3.08222,32.29841 4.25789,40.09797c-1.04517,-0.01718 1.99727,-1.13839 0.95212,-1.15558c-0.76189,-0.01253 -1.52494,-0.0289 -2.28875,-0.04667c-3.29122,-0.07655 -6.59645,-0.17885 -9.88324,-0.10968c-4.05629,0.08535 -8.11255,0.17074 -12.16884,0.25609c-2.49899,0.05261 -5.01583,0.1998 -7.52107,0.23556c-0.27986,-7.45115 -0.89103,-28.28166 0.67298,-35.90162z" fill="#334865" stroke="#000000" stroke-width="2" stroke-linecap="butt"/><path d="M315.93785,196.50201l-3.12258,9.66066" fill="none" stroke="#000000" stroke-width="2" stroke-linecap="round"/><path d="M332.77144,205.03521l-2.60903,-6.57509" fill="none" stroke="#000000" stroke-width="2" stroke-linecap="round"/><path d="M329.3713,168.95278c0.23076,2.70051 -2.88846,4.37218 -8.12532,4.65269c-5.23687,0.28052 -9.66925,-1.68128 -9.90002,-4.38178c-0.23076,-2.70051 3.8275,-5.11711 9.06434,-5.39763c5.23687,-0.28052 8.73023,2.42622 8.96099,5.12672z" fill="#1b2737" stroke="none" stroke-width="0" stroke-linecap="butt"/><path d="M328.08423,167.7717c0.15618,1.82763 -2.15262,3.43964 -6.08026,3.65003c-3.92765,0.2104 -7.98682,-1.06053 -8.143,-2.88814c-0.15618,-1.82763 2.90121,-3.47974 6.82886,-3.69013c3.92765,-0.2104 7.23825,1.10063 7.39442,2.92825z" fill="#ffffff" stroke="#000000" stroke-width="1.5" stroke-linecap="butt"/><path d="M349.61413,149.35863c-1.76271,11.80262 -14.59308,20.30313 -28.65746,18.98644c-14.06436,-1.31669 -24.03683,-11.95199 -22.27413,-23.7546c1.76271,-11.80262 14.59305,-20.30312 28.65744,-18.98643c14.06436,1.31669 24.03684,11.95198 22.27415,23.75459z" fill="#ffffff" stroke="#000000" stroke-width="2" stroke-linecap="butt"/><path d="M317.92231,149.11047c0.076,-1.91133 1.11952,-3.43628 2.33077,-3.40611c1.21126,0.03018 2.1316,1.60408 2.05562,3.51542c-0.076,1.91133 -1.11949,3.4363 -2.33077,3.40612c-1.21126,-0.03018 -2.13161,-1.6041 -2.05564,-3.51544z" data-paper-data="{&quot;index&quot;:null}" fill="#000000" stroke="none" stroke-width="0.5" stroke-linecap="butt"/><path d="M334.9937,149.88258c0.07445,-1.87253 1.00278,-3.36891 2.07353,-3.34225c1.07074,0.02669 1.87841,1.56633 1.80396,3.43886c-0.07445,1.87253 -1.00279,3.36892 -2.07354,3.34226c-1.07074,-0.02669 -1.8784,-1.56633 -1.80396,-3.43887z" data-paper-data="{&quot;index&quot;:null}" fill="#000000" stroke="none" stroke-width="0.5" stroke-linecap="butt"/><path d="M308.03808,154.33283l32.60752,2.19931" fill="none" stroke="#000000" stroke-width="1.5" stroke-linecap="round"/><path d="M308.9646,152.47974l-1.67776,3.03984" fill="none" stroke="#000000" stroke-width="1.5" stroke-linecap="round"/><path d="M294.67739,208.12149c-7.00958,-0.75935 -4.76176,-10.66403 -2.61532,-22.93472c1.23673,0.10811 2.48585,0.18282 3.73669,0.28363c2.89633,0.23342 5.71169,0.61541 8.57682,1.06692c0.20705,0.03262 0.41431,0.06212 0.62178,0.08891c-2.11622,12.35698 -2.62038,22.2269 -10.31996,21.49527z" data-paper-data="{&quot;index&quot;:null}" fill="#ffffff" stroke="#000000" stroke-width="2" stroke-linecap="butt"/><path d="M304.13913,190.05394c-0.00828,0.01273 -0.01653,0.02546 -0.02478,0.03818c-0.20429,-0.08664 -0.40731,-0.17577 -0.60882,-0.26775c-2.83111,-1.29209 -5.63883,-2.50298 -8.59095,-3.59609c-1.25886,-0.46612 -2.52972,-0.90461 -3.77333,-1.37214c0.04667,-0.07178 0.09337,-0.14366 0.14011,-0.21566c7.32688,-11.2861 14.4904,-16.87118 21.52501,-16.94847c1.81865,0.7657 0.36374,2.80497 -1.17214,7.10827c-1.46261,4.0981 -3.92111,9.74846 -7.49509,15.25368z" data-paper-data="{&quot;index&quot;:null}" fill="#334865" stroke="#000000" stroke-width="2" stroke-linecap="butt"/><path d="M314.38644,171.67394c0.29282,3.42665 -0.01229,9.43273 -1.01719,9.48657c-1.00489,0.05383 -2.97715,-3.18266 -3.26997,-6.60931c-0.29282,-3.42665 0.28441,-6.24814 1.2893,-6.30196c1.00489,-0.05383 2.70502,-0.00193 2.99784,3.42472z" fill="#334865" stroke="none" stroke-width="0" stroke-linecap="butt"/></g></g></svg>