<svg version="1.1" xmlns="http://www.w3.org/2000/svg" xmlns:xlink="http://www.w3.org/1999/xlink" width="52.50154" height="137.3005" viewBox="0,0,52.50154,137.3005"><g transform="translate(-291.47728,-132.59711)"><g data-paper-data="{&quot;isPaintingLayer&quot;:true}" fill-rule="nonzero" stroke-linejoin="miter" stroke-miterlimit="10" stroke-dasharray="" stroke-dashoffset="0" style="mix-blend-mode: normal"><path d="M325.68114,181.37591c-0.10269,3.48792 -5.28473,6.16531 -11.57443,5.98013c-6.28969,-0.18518 -11.30524,-3.16282 -11.20254,-6.65074c0.10269,-3.48792 1.73723,-5.33717 8.02692,-5.15198c6.28969,0.18518 14.85275,2.33467 14.75005,5.82259z" fill="#334865" stroke="#000000" stroke-width="2" stroke-linecap="butt"/><path d="M337.0289,217.93987c0.1976,4.04885 -2.44358,7.46204 -5.89924,7.62357c-3.45566,0.16153 -6.41721,-2.98977 -6.61479,-7.03862c-0.05645,-1.15673 -0.29456,-4.76622 -0.52565,-9.34066c1.84636,-0.6407 3.70606,-1.25144 5.5916,-1.68963c1.97163,-0.45819 3.82615,-1.28862 5.79696,-1.71612c0.08091,-0.01756 0.1654,-0.02924 0.25186,-0.03739c0.88153,5.87906 1.33192,10.81838 1.39928,12.19884z" data-paper-data="{&quot;index&quot;:null}" fill="#ffffff" stroke="#000000" stroke-width="2" stroke-linecap="butt"/><path d="M325.33705,180.0316c4.18634,-0.43774 8.28363,12.1748 10.16633,22.0129c0.45851,2.39596 -0.30013,1.77747 0.03523,4.06264c-0.11652,0.00474 -0.21607,0.01205 -0.28354,0.02722c-1.97414,0.44389 -3.83103,1.30337 -5.80546,1.77888c-1.85836,0.44754 -3.69176,1.06662 -5.51209,1.71841c-0.55697,-11.80958 -1.02573,-29.34645 1.39953,-29.60004z" data-paper-data="{&quot;index&quot;:null}" fill="#334865" stroke="#000000" stroke-width="2" stroke-linecap="butt"/><path d="M318.89919,226.0188c0.37894,-11.03323 6.72532,-6.80912 12.06205,-7.30024c0.46638,-0.04292 3.75305,26.78169 4.65989,35.25733c0.17034,1.59207 -0.19293,2.42431 -0.18593,2.43159c-2.85215,0.41676 -6.80056,0.06496 -9.46612,0.95348c-1.37855,0.46151 -4.05606,0.43315 -5.79327,0.82557c-0.08556,-0.9357 -0.40913,-1.1294 -0.50221,-2.19615c-0.77526,-8.88502 -1.0288,-22.56484 -0.77441,-29.9716z" fill="#a68f79" stroke="#000000" stroke-width="2" stroke-linecap="butt"/><path d="M338.18923,264.25958c0.09305,1.21443 -16.81621,1.81482 -16.90927,0.60039c-0.01401,-0.18288 -0.26422,-2.60985 -0.59894,-6.2471c1.74577,-0.41395 4.18897,-0.39591 5.43546,-0.80973c2.73726,-0.91242 5.97636,-1.12192 8.88536,-1.56419c0.45126,0.5063 1.14855,1.34859 1.64968,2.23172c1.09254,1.92539 1.484,5.08792 1.53771,5.7889z" fill="#ffffff" stroke="#000000" stroke-width="2" stroke-linecap="butt"/><path d="M301.87263,226.1271c1.58511,-10.92654 8.22455,-3.22199 14.27618,-3.08276c0.57284,0.01317 0.22148,30.9766 0.15511,36.43297c-1.40668,0 -1.88118,0.34957 -3.28786,0.34957c-2.61352,0 -5.45621,1.28083 -8.00581,2.1673c-1.58202,0.75079 -4.33768,1.87581 -5.96962,2.39927c0.02853,-0.89219 -0.28187,-2.26983 -0.23308,-3.40603c0.4123,-9.60053 1.86258,-26.5712 3.06508,-34.86033z" fill="#a68f79" stroke="#000000" stroke-width="2" stroke-linecap="butt"/><path d="M319.69582,268.31293c-0.02296,1.21853 -20.32772,0.3399 -20.30476,-0.87862c0.00221,-0.11714 0.03073,-1.24067 0.08714,-3.06615c1.79293,-0.6225 3.78894,-1.59415 5.00962,-2.17572c2.48969,-0.86142 5.05759,-2.24903 7.59605,-2.24903c1.36654,0 2.83296,0 4.21431,0c-0.00285,0.22885 -0.00443,0.35022 -0.00443,0.35022c0,0 1.32491,1.45171 2.07648,2.94818c1.02607,2.04302 1.33884,4.36778 1.32559,5.07113z" fill="#ffffff" stroke="#000000" stroke-width="2" stroke-linecap="butt"/><path d="M311.50125,230.92902v-4.31137h14.09936v4.31137z" fill="#a68f79" stroke="none" stroke-width="0" stroke-linecap="butt"/><path d="M301.49897,227.37091c0,0 0.34081,-17.60983 1.91786,-28.42528c1.7818,-12.21963 5.54063,-22.72221 14.68843,-22.72498c11.50075,-0.00348 12.06199,14.7733 13.21422,28.28655c0.87985,10.31892 1.03607,25.5571 1.03607,25.5571" fill="#334865" stroke="#000000" stroke-width="2" stroke-linecap="round"/><path d="M311.20898,179.55224c2.30832,0.59843 -1.37412,16.4023 -4.39815,28.31717c-2.11937,-0.33064 -4.2349,-0.68096 -6.3353,-1.12017c-1.54654,-0.3234 -3.09854,-0.55555 -4.65886,-0.7739c0.41799,-1.34753 -0.19589,-1.74925 0.28514,-3.18117c3.69777,-11.00768 10.1801,-24.51927 15.10719,-23.24193z" fill="#334865" stroke="#000000" stroke-width="2" stroke-linecap="butt"/><path d="M303.56936,220.49362c-0.85179,4.20969 -3.40113,6.29793 -6.94661,5.58055c-3.54549,-0.71738 -4.73327,-4.79265 -3.8815,-9.00234c0.26171,-1.29343 1.33772,-5.543 2.93909,-10.74886c1.57519,0.21993 3.14183,0.45254 4.70283,0.77896c2.09386,0.43786 4.20268,0.7877 6.31539,1.11763c-1.51763,5.96343 -2.84586,10.87368 -3.12921,12.27407z" fill="#ffffff" stroke="#000000" stroke-width="2" stroke-linecap="butt"/><path d="M314.04441,187.21828c-0.03323,1.12872 -1.81471,1.20119 -2.58914,2.63473c-1.90899,3.53372 -4.10075,8.54761 -5.60677,8.50327c-2.11697,-0.06233 0.41451,-7.45269 0.52966,-11.36372c0.11515,-3.91103 2.45587,-7.40552 4.57285,-7.34319c0.43643,0.01285 1.61948,-0.26717 1.96717,0.01782c1.3388,1.09739 1.21765,4.44635 1.12624,7.55109z" fill="#334865" stroke="none" stroke-width="0" stroke-linecap="butt"/><path d="M323.32003,180.58968c0.58811,-0.07047 1.5823,0.06559 2.70631,0.90071c1.58629,1.17856 4.34171,5.41531 4.53514,7.03413c0.3305,2.76586 1.82228,6.06414 0.4042,6.23409c-0.65059,0.07797 -0.65598,-2.68873 -1.67403,-4.33185c-0.56059,-0.90477 -1.91428,-1.75189 -2.4509,-2.60123c-0.61303,-0.9703 -1.81445,-0.91584 -1.90983,-1.71407c-0.3305,-2.76586 -3.02898,-5.35182 -1.61089,-5.52177z" data-paper-data="{&quot;index&quot;:null}" fill="#334865" stroke="none" stroke-width="0" stroke-linecap="butt"/><path d="M322.06765,231.58377l-7.72377,-0.33102" fill="none" stroke="#000000" stroke-width="2" stroke-linecap="round"/><path d="M325.8563,178.94596c-0.02319,0.78754 -0.46468,1.81207 -1.30614,2.7725c-0.9608,1.09668 -2.50508,2.0765 -5.62095,1.94557c-2.81147,-0.11813 -3.10693,-1.04291 -3.90273,-2.25217c-0.61829,-0.93953 -2.02982,-2.10635 -2.00811,-2.84388c0.04966,-1.68678 2.96379,-2.96957 6.50888,-2.8652c3.54509,0.10438 6.37871,1.5564 6.32905,3.24318z" fill="#ffffff" stroke="#000000" stroke-width="2" stroke-linecap="butt"/><path d="M343.07982,158.64082c-0.10333,1.87657 0.23361,4.50338 -0.10101,6.18509c-2.44982,12.31214 -11.54861,16.11452 -21.88761,15.56355c-11.98334,-0.63859 -21.56398,-9.82535 -20.81088,-23.50117c0.7531,-13.67585 11.20444,-23.90142 23.18779,-23.26283c11.98334,0.63859 20.3648,11.33952 19.61171,25.01536z" fill="#ffffff" stroke="#000000" stroke-width="2" stroke-linecap="butt"/><path d="M321.23688,158.83838c-0.30937,2.78239 -1.41938,4.94243 -2.47928,4.82458c-1.05989,-0.11785 -1.66831,-2.46895 -1.35895,-5.25134c0.30937,-2.78239 1.41937,-4.94243 2.47926,-4.82459c1.05989,0.11785 1.66833,2.46895 1.35897,5.25135z" fill="#000000" stroke="none" stroke-width="0" stroke-linecap="butt"/><path d="M335.28253,160.41994c-0.25507,2.29405 -1.17027,4.07498 -2.04414,3.97781c-0.87387,-0.09716 -1.37553,-2.03563 -1.12046,-4.32967c0.25507,-2.29405 1.17027,-4.07499 2.04414,-3.97782c0.87387,0.09716 1.37553,2.03563 1.12046,4.32968z" fill="#000000" stroke="none" stroke-width="0" stroke-linecap="butt"/><path d="M308.78266,165.00963l27.1112,4.79071" fill="none" stroke="#000000" stroke-width="2" stroke-linecap="round"/><path d="M308.69753,162.77976l-1.41373,3.7285" fill="none" stroke="#000000" stroke-width="2" stroke-linecap="round"/><path d="M310.16328,214.30311l-3.16535,9.61327" fill="none" stroke="#000000" stroke-width="2" stroke-linecap="round"/><path d="M328.90036,222.44102l-1.64128,-6.79962" fill="none" stroke="#000000" stroke-width="2" stroke-linecap="round"/><path d="M327.24908,180.79455c0,0 -1.37565,4.82802 -5.9491,5.22055c-4.11471,0.35317 -7.62907,-1.32355 -9.16653,-2.81214c-1.90285,-1.84236 -1.30216,-3.62454 -1.30216,-3.62454" fill="none" stroke="#000000" stroke-width="1.5" stroke-linecap="round"/><path d="M317.71183,185.70965l-0.36238,7.78314" fill="none" stroke="#000000" stroke-width="1.5" stroke-linecap="round"/><path d="M322.43925,185.78221l-0.29974,7.91821" fill="none" stroke="#000000" stroke-width="1.5" stroke-linecap="round"/><path d="M302.06284,227.08374l30.06309,1.51481" fill="none" stroke="#000000" stroke-width="2" stroke-linecap="round"/></g></g></svg>