<svg version="1.1" xmlns="http://www.w3.org/2000/svg" xmlns:xlink="http://www.w3.org/1999/xlink" width="436.92797" height="307.33505" viewBox="0,0,436.92797,307.33505"><g transform="translate(-72.0045,-79.04471)"><g data-paper-data="{&quot;isPaintingLayer&quot;:true}" fill-rule="nonzero" stroke="none" stroke-linecap="butt" stroke-linejoin="miter" stroke-miterlimit="10" stroke-dasharray="" stroke-dashoffset="0" style="mix-blend-mode: normal"><text transform="translate(280.5,166.21667) scale(1.53331,1.47675)" font-size="40" xml:space="preserve" fill="#9966ff" fill-rule="nonzero" stroke="none" stroke-width="1" stroke-linecap="butt" stroke-linejoin="miter" stroke-miterlimit="10" stroke-dasharray="" stroke-dashoffset="0" font-family="&quot;Puffy&quot;, Playful" font-weight="normal" text-anchor="start" style="mix-blend-mode: normal"><tspan x="0" dy="0">Lemmon</tspan></text><text transform="translate(288.00001,194.77848) scale(0.61945,0.5966)" font-size="40" xml:space="preserve" fill="#ffffff" fill-rule="nonzero" stroke="none" stroke-width="1" stroke-linecap="butt" stroke-linejoin="miter" stroke-miterlimit="10" stroke-dasharray="" stroke-dashoffset="0" font-family="&quot;Puffy&quot;, Playful" font-weight="normal" text-anchor="start" style="mix-blend-mode: normal"><tspan x="0" dy="0">Game Developer</tspan></text><path d="M74.5045,379.49538c1.03026,0 1.63594,0.42457 1.99202,0.92378c-0.07462,-4.99814 -0.4432,-10.18965 0.01877,-15.11752c0.31139,-3.32164 1.16684,-6.58114 1.41484,-9.90812c0.42743,-5.734 0.08038,-11.68122 0.08037,-17.43718c-0.00002,-12.05477 -0.00552,-24.10955 0.00411,-36.16432c0.50224,-4.39033 0.68356,-8.99785 1.53771,-13.33692c1.17372,-5.96247 3.69199,-11.85771 4.48292,-17.8763c0.36842,-2.80351 0.4096,-5.70529 1.33533,-8.37708c1.43955,-4.15475 3.83394,-8.42645 6.40326,-11.96475c1.81914,-2.5052 4.64059,-4.35219 5.88139,-7.18869c0.42185,-0.96437 -0.4053,-2.21674 0.06772,-3.15706c0.71892,-1.42914 2.32182,-2.22216 3.28198,-3.50177c1.37345,-1.83041 1.91808,-5.38702 2.78532,-7.14411c1.65656,-3.35632 4.03722,-6.62887 5.81867,-9.98651c-0.44896,-16.30363 -0.06688,-32.66489 -0.06688,-48.97517c0,-12.10417 -0.92437,-24.40435 1.51367,-36.28238c-0.00292,-1.02093 -0.04106,-9.3003 0.02786,-9.70372c0.43542,-2.54875 2.41608,-4.62906 3.02986,-7.14084c0.24951,-1.02107 -0.34906,-2.17678 0.04039,-3.15308c1.00042,-2.50794 3.54069,-4.14735 4.74981,-6.5616c1.21285,-2.42172 1.56776,-5.25799 3.0238,-7.54178c1.2969,-2.03417 3.51105,-3.51323 4.37379,-5.76611c0.59985,-1.56639 0.45719,-3.38981 1.2269,-4.88009c1.47177,-2.84956 4.47547,-4.63265 7.04052,-6.55791c1.29289,-0.97041 2.03704,-2.72499 3.54373,-3.31078c0.57912,-0.22516 6.87239,-0.1903 8.46422,-0.1903c5.50551,0 11.01101,0 16.51652,0c5.99895,0 12.02137,-0.15584 18.01802,0c2.0206,0.05251 4.17681,-0.50064 6.05928,0.23551c1.38599,0.542 1.83836,2.37603 2.99944,3.30695c2.09063,1.67621 4.69111,2.80633 6.38815,4.88008c2.85762,3.49195 5.97722,8.41975 7.84431,12.54991c0.61096,1.3515 0.56781,2.98208 1.35797,4.23726c0.87664,1.39255 2.51724,2.16132 3.50062,3.48066c0.57722,0.77441 0.61912,1.84202 1.09371,2.68325c3.12366,5.53684 7.84384,10.69942 9.22976,17.11616c0.33469,1.54961 0.02937,3.17055 0.04406,4.75583c1.19149,4.69118 3.46619,9.51281 4.27664,14.24793c0.78344,4.5773 0.2466,9.9212 0.2466,14.58606c0,0.43593 0.00949,6.19746 -0.03228,6.40646c-0.55691,2.78625 -2.57594,7.58307 -4.11207,9.94309c-1.47214,2.26172 -3.77167,3.89282 -5.31674,6.10536c-1.5164,2.17148 -1.51201,5.14735 -2.92429,7.38795c-0.99088,1.57204 -2.58566,2.66975 -3.89439,3.98897c-0.72623,0.73205 -1.452,1.46553 -2.21013,2.16448c-0.35079,0.3234 -1.43773,0.54967 -1.11336,0.89956c0.81701,0.88126 2.28041,0.81704 3.29777,1.45665c2.12499,1.33597 3.61288,3.48605 5.38177,5.26692c1.42185,0.91491 3.07226,1.5469 4.26556,2.74472c0.85569,0.85893 0.95295,2.2562 1.68177,3.22512c0.85097,1.13131 2.16456,1.86238 3.003,3.003c1.55386,2.1139 1.2724,5.24529 2.86353,7.33128c0.64528,0.84596 2.18393,0.5689 2.88214,1.37174c1.21827,1.40084 1.63855,3.33689 2.59605,4.92739c0.74908,1.24429 1.99441,2.20274 2.51307,3.55934c0.3651,0.95497 -0.34494,2.11218 0.02035,3.06709c1.16563,3.04712 3.72734,5.41394 4.97639,8.42782c2.3391,5.6441 4.28388,11.5716 6.56407,17.26995c0.61334,1.53278 1.59776,2.92572 2.02229,4.52115c0.22159,0.83277 -0.52622,1.81544 -0.13226,2.58186c0.64717,1.25904 2.49362,1.68219 3.003,3.003c0.63068,1.63532 0.01083,3.51065 0.18178,5.25501c0.29024,2.96151 0.9868,5.86901 1.476,8.80421c0.5118,3.0708 1.29354,6.10941 1.527,9.21381c0.22034,2.92999 -0.53814,5.92187 -0.02376,8.81475c0.8198,4.61056 3.78904,8.87216 4.5045,13.51351c0.76095,4.93641 -0.47069,10.18772 0.02016,15.15459c0.25147,2.54457 1.32184,4.97187 1.5015,7.52252c0.35323,5.01473 0.01212,10.21726 0.01212,15.24587c0,4.67458 0.01191,9.34946 0,14.02402c-0.0099,3.88622 0.49686,7.86496 -1.9819,11.35162c-0.91807,1.29137 -2.70662,1.64808 -4.05993,2.47212c-6.59862,1.90839 -13.31733,4.06712 -20.2035,4.67723c-10.09884,0.89475 -20.65632,0.02006 -30.80422,0.02006c-15.35035,0 -30.7007,0 -46.05105,0c-27.02703,0 -54.05405,0 -81.08108,0l-2.5,-4.0015c0,0 0,-2.5 2.5,-2.5z" fill="#9966ff" stroke-width="0.5"/></g></g></svg>