<svg version="1.1" xmlns="http://www.w3.org/2000/svg" xmlns:xlink="http://www.w3.org/1999/xlink" width="52.33167" height="141.69196" viewBox="0,0,52.33167,141.69196"><defs><radialGradient cx="327.90661" cy="146.71227" r="26.05961" gradientUnits="userSpaceOnUse" id="color-1"><stop offset="0" stop-color="#afb0e0" stop-opacity="0"/><stop offset="1" stop-color="#afb0e0" stop-opacity="0.31373"/></radialGradient></defs><g transform="translate(-296.4131,-125.66136)"><g data-paper-data="{&quot;isPaintingLayer&quot;:true}" fill-rule="nonzero" stroke-linejoin="miter" stroke-miterlimit="10" stroke-dasharray="" stroke-dashoffset="0" style="mix-blend-mode: normal"><path d="M338.09575,265.07007c0.07064,1.21594 -16.84683,1.50431 -16.91748,0.28838c-0.01064,-0.1831 -0.21603,-2.61429 -0.4836,-6.25708c1.7531,-0.38167 4.19556,-0.31856 5.44947,-0.70933c2.75363,-0.86177 5.99604,-1.01149 8.9127,-1.40002c0.44184,0.51453 1.12348,1.36954 1.60823,2.26178c1.05683,1.94521 1.38989,5.11444 1.43067,5.81628z" fill="#ffffff" stroke="#000000" stroke-width="2" stroke-linecap="butt"/><path d="M322.06067,222.97747c1.58547,-10.92649 8.22467,-3.22172 14.27629,-3.08228c0.57284,0.01319 1.10062,33.79535 1.03407,39.25171c-1.40668,-0.00005 -9.62431,-1.18861 -12.17395,-0.30225c-1.58204,0.75074 -4.33775,1.87566 -5.9697,2.39907c0.02857,-0.89219 -0.28179,-2.26984 -0.23297,-3.40604c0.41262,-9.60052 1.86348,-26.57114 3.06625,-34.86023z" fill="#a68f79" stroke="#000000" stroke-width="2" stroke-linecap="butt"/><path d="M307.85684,222.08412c1.27838,-10.96548 5.41577,-5.78632 10.77477,-5.84014c0.30914,-0.00311 6.74959,11.23798 7.16791,21.68698c0.21542,5.38104 -6.09248,16.08521 -6.08609,16.09303c-2.87665,0.18253 -4.48155,-1.27947 -7.21075,-0.61152c-1.41162,0.34744 -6.45487,-4.29826 -8.21833,-4.04898c-0.00888,-0.93956 6.03873,-10.01194 5.90511,-11.04109c-0.75268,-5.79693 -3.74212,-10.57832 -3.26055,-14.70898z" fill="#a68f79" stroke="#000000" stroke-width="2" stroke-linecap="butt"/><path d="M316.23864,263.51899c-0.6769,1.01257 -14.34613,-8.95919 -13.66923,-9.97177c0.10193,-0.15248 1.40417,-2.21573 3.38745,-5.283c1.62864,0.75272 3.53897,2.27594 4.77487,2.72037c2.71629,0.97308 5.39309,2.80893 7.95406,4.25784c0.04218,0.6769 0.07033,1.77001 -0.08102,2.77407c-0.32997,2.18904 -1.97544,4.91801 -2.36615,5.50248z" fill="#ffffff" stroke="#000000" stroke-width="2" stroke-linecap="butt"/><path d="M329.48205,177.51965c0,3.48943 -5.101,6.31817 -11.39342,6.31817c-6.29242,0 -11.39342,-2.82874 -11.39342,-6.31817c0,-3.48943 1.57941,-5.38598 7.87182,-5.38598c6.29242,0 14.91502,1.89655 14.91502,5.38598z" fill="#334865" stroke="#000000" stroke-width="2" stroke-linecap="butt"/><path d="M341.90096,213.73381c0.31667,4.04128 -2.22292,7.53072 -5.67233,7.79388c-3.44941,0.26316 -6.50242,-2.79962 -6.81907,-6.8409c-0.09047,-1.15457 -0.4347,-4.75549 -0.80031,-9.32114c1.8267,-0.69476 3.66763,-1.35997 5.53945,-1.85346c1.95729,-0.51602 3.78657,-1.40066 5.74394,-1.88598c0.08036,-0.01993 0.16447,-0.0341 0.25065,-0.04479c1.05417,5.85057 1.64972,10.7745 1.75768,12.15238z" data-paper-data="{&quot;index&quot;:null}" fill="#ffffff" stroke="#000000" stroke-width="2" stroke-linecap="butt"/><path d="M329.09855,176.18605c4.17164,-0.56075 8.63834,11.92574 10.80975,21.70418c0.52882,2.38143 -0.24769,1.78553 0.15478,4.05984c-0.11633,0.00817 -0.21562,0.0184 -0.28262,0.03555c-1.96022,0.5018 -3.79101,1.41555 -5.75059,1.94896c-1.84438,0.50204 -3.65877,1.1748 -5.45913,1.87988c-0.90428,-11.78807 -1.88894,-29.30355 0.52781,-29.62841z" data-paper-data="{&quot;index&quot;:null}" fill="#334865" stroke="#000000" stroke-width="2" stroke-linecap="butt"/><path d="M316.78057,226.38003l0.3815,-4.29446l14.04405,1.2476l-0.3815,4.29446z" fill="#a68f79" stroke="none" stroke-width="0" stroke-linecap="butt"/><path d="M306.66397,224.20639c0,0 -0.17759,-17.61223 1.08049,-28.46941c1.42141,-12.26677 4.86953,-22.87543 14.01328,-23.14741c11.49567,-0.34194 12.49154,14.41192 14.04095,27.88541c1.18315,10.28856 1.78775,25.51554 1.78775,25.51554" fill="#334865" stroke="#000000" stroke-width="2" stroke-linecap="round"/><path d="M314.96249,176.12268c2.32493,0.53024 -0.89081,16.43564 -3.56289,28.43434c-2.12818,-0.26812 -4.25311,-0.55603 -6.36552,-0.93324c-1.55539,-0.27775 -3.11355,-0.46412 -4.67962,-0.63646c0.37815,-1.35925 -0.24728,-1.74273 0.1914,-3.18818c3.37222,-11.11174 9.4541,-24.80824 14.41665,-23.67646z" fill="#334865" stroke="#000000" stroke-width="2" stroke-linecap="butt"/><path d="M308.53106,217.27115c-0.72753,4.23293 -3.21431,6.3953 -6.77937,5.78257c-3.56507,-0.61273 -4.87227,-4.65128 -4.14475,-8.88421c0.22353,-1.30057 1.17401,-5.57997 2.62148,-10.8307c1.58098,0.17348 3.15379,0.35988 4.72372,0.64022c2.10584,0.37605 4.22404,0.66368 6.34555,0.93129c-1.34147,6.00551 -2.52462,10.95272 -2.76664,12.36084z" fill="#ffffff" stroke="#000000" stroke-width="2" stroke-linecap="butt"/><path d="M318.02229,183.70195c0,1.12921 -1.77857,1.25408 -2.51048,2.70979c-1.80417,3.58837 -3.84742,8.66459 -5.35409,8.66459c-2.11789,0 0.195,-7.46166 0.195,-11.37439c0,-3.91272 2.23687,-7.47459 4.35476,-7.47459c0.43662,0 1.61092,-0.31471 1.96684,-0.04008c1.37052,1.05751 1.34798,4.40859 1.34798,7.51467z" fill="#334865" stroke="none" stroke-width="0" stroke-linecap="butt"/><path d="M327.09883,176.80324c0.58578,-0.08775 1.58355,0.019 2.73165,0.82067c1.62029,1.13137 4.4992,5.28519 4.74019,6.89762c0.41175,2.75494 1.99996,6.00788 0.58749,6.21949c-0.64801,0.09708 -0.73482,-2.66826 -1.80079,-4.28071c-0.58697,-0.88788 -1.96501,-1.69479 -2.52639,-2.52797c-0.64132,-0.95184 -1.84062,-0.86204 -1.95945,-1.65712c-0.41175,-2.75494 -3.18517,-5.26036 -1.7727,-5.47197z" data-paper-data="{&quot;index&quot;:null}" fill="#334865" stroke="none" stroke-width="0" stroke-linecap="butt"/><path d="M328.84758,228.1672l-7.66418,-1.01317" fill="none" stroke="#000000" stroke-width="2" stroke-linecap="round"/><path d="M329.58562,175.0856c0,0.78788 -0.41115,1.82496 -1.22398,2.80974c-0.92811,1.12448 -2.44288,2.14932 -5.56126,2.11015c-2.81373,-0.03534 -3.13628,-0.95102 -3.96732,-2.13634c-0.64567,-0.92093 -2.09093,-2.0457 -2.09093,-2.78355c0,-1.68751 2.87511,-3.05551 6.42174,-3.05551c3.54663,0 6.42175,1.368 6.42175,3.05551z" fill="#ffffff" stroke="#000000" stroke-width="2" stroke-linecap="butt"/><path d="M343.53326,151.97285c0.10467,1.8765 0.72983,4.44998 0.5831,6.15837c-1.07425,12.50745 -9.69713,17.29201 -20.0337,17.88694c-11.98052,0.68955 -22.51767,-7.38223 -23.28044,-21.05752c-0.76277,-13.67531 8.49458,-24.99319 20.4751,-25.68274c11.98052,-0.68955 21.49316,9.01964 22.25594,22.69495z" fill="#ffffff" stroke="#000000" stroke-width="2" stroke-linecap="butt"/><path d="M321.84593,154.58297c0,2.79954 -0.86452,5.06901 -1.93095,5.06901c-1.06642,0 -1.93093,-2.26947 -1.93093,-5.06901c0,-2.79954 0.86451,-5.06901 1.93093,-5.06901c1.06642,0 1.93095,2.26947 1.93095,5.06901z" fill="#000000" stroke="none" stroke-width="0" stroke-linecap="butt"/><path d="M335.98033,154.60272c0,2.30819 -0.71279,4.17934 -1.59205,4.17934c-0.87926,0 -1.59205,-1.87116 -1.59205,-4.17934c0,-2.30819 0.71279,-4.17935 1.59205,-4.17935c0.87926,0 1.59205,1.87116 1.59205,4.17935z" fill="#000000" stroke="none" stroke-width="0" stroke-linecap="butt"/><path d="M310.14994,162.09269l27.47456,1.76543" fill="none" stroke="#000000" stroke-width="2" stroke-linecap="round"/><path d="M309.81892,159.88588l-0.99305,3.86189" fill="none" stroke="#000000" stroke-width="2" stroke-linecap="round"/><path d="M315.29661,210.70311l-3.16535,9.61327" fill="none" stroke="#000000" stroke-width="2" stroke-linecap="round"/><path d="M332.39242,212.0414l1.64128,6.79962" fill="none" stroke="#000000" stroke-width="2" stroke-linecap="round"/><path d="M331.0322,176.8924c0,0 -1.23297,4.86641 -5.79289,5.39337c-4.10253,0.47411 -7.66472,-1.09846 -9.24532,-2.54116c-1.95625,-1.78556 -1.40826,-3.58465 -1.40826,-3.58465" fill="none" stroke="#000000" stroke-width="1.5" stroke-linecap="round"/><path d="M321.64373,182.08604l-0.13317,7.79043" fill="none" stroke="#000000" stroke-width="1.5" stroke-linecap="round"/><path d="M326.30466,189.94305l0.06658,-7.9236" fill="none" stroke="#000000" stroke-width="1.5" stroke-linecap="round"/><path d="M337.25927,224.99855l-30.06309,-1.51481" fill="none" stroke="#000000" stroke-width="2" stroke-linecap="round"/><g stroke-linecap="butt"><path d="M347.67,152.79429c0.1828,9.1572 -4.27778,17.01307 -11.15963,21.56229c-0.71513,0.47272 0.208,-0.18697 1.45209,0.34857c1.97466,0.85002 2.03352,1.899 -1.49415,2.66983c-3.80402,0.83121 -9.79309,1.42304 -15.67304,1.4193c-3.89104,-0.00248 -8.53851,-0.51612 -9.58684,-0.49519c-2.44529,0.04882 -4.95697,-1.53629 -3.1452,-2.75412c1.34066,-0.90116 1.18835,-0.7677 0.60151,-1.16406c-6.53884,-4.41664 -10.82875,-11.97117 -11.00542,-20.82098c-0.28598,-14.32555 10.3144,-26.6204 24.24868,-26.89856c13.93428,-0.27817 25.47604,11.80739 25.76201,26.13296z" fill="url(#color-1)" stroke="#111111" stroke-width="2"/><path d="M339.07479,138.93434c0.62666,2.5676 -1.35868,3.97949 -3.82932,2.97853c-0.45387,-0.18389 -1.79187,-2.41599 -2.32389,-2.76277c-1.54577,-1.00756 -4.03561,-0.82746 -4.98286,-2.41091c-0.74538,-0.42009 -1.25563,-1.21216 -1.27393,-2.12955c-0.02756,-1.38044 1.06917,-2.52185 2.4496,-2.5494c0.52323,-0.01044 1.01212,0.14064 1.41903,0.40747c3.47341,0.06239 7.74305,3.19578 8.54134,6.46663z" fill="#ffffff" stroke="none" stroke-width="0.5"/></g></g></g></svg>