<svg version="1.1" xmlns="http://www.w3.org/2000/svg" xmlns:xlink="http://www.w3.org/1999/xlink" width="1856.76129" height="928.5" viewBox="0,0,1856.76129,928.5"><defs><radialGradient cx="756.38065" cy="236.75" r="509.88064" gradientUnits="userSpaceOnUse" id="color-1"><stop offset="0" stop-color="#ffffff"/><stop offset="1" stop-color="#ffffff" stop-opacity="0"/></radialGradient><radialGradient cx="-80.61935" cy="263.75" r="509.88065" gradientUnits="userSpaceOnUse" id="color-2"><stop offset="0" stop-color="#ffffff"/><stop offset="1" stop-color="#ffffff" stop-opacity="0"/></radialGradient></defs><g transform="translate(590.5,214)"><g data-paper-data="{&quot;isPaintingLayer&quot;:true}" fill-rule="nonzero" stroke-linecap="butt" stroke-linejoin="miter" stroke-miterlimit="10" stroke-dasharray="" stroke-dashoffset="0" style="mix-blend-mode: normal"><path d="M1266.26129,236.75c0,248.94235 -228.28134,450.75 -509.88064,450.75c-281.5993,0 -509.88064,-201.80765 -509.88064,-450.75c0,-248.94235 228.28134,-450.75 509.88064,-450.75c281.5993,0 509.88064,201.80765 509.88064,450.75z" fill="url(#color-1)" stroke="none" stroke-width="0"/><path d="M429.26129,263.75c0,248.94235 -228.28134,450.75 -509.88065,450.75c-281.5993,0 -509.88065,-201.80765 -509.88065,-450.75c0,-248.94235 228.28134,-450.75 509.88065,-450.75c281.5993,0 509.88065,201.80765 509.88065,450.75z" fill="url(#color-2)" stroke="none" stroke-width="0"/><path d="" fill-opacity="0.67059" fill="#ffffff" stroke="none" stroke-width="0"/><path d="M-47.91368,298.38138v-226.72673c0,0 248.68321,-4 384.41368,-4c147.13258,0 466.93767,4 466.93767,4v226.72673c0,0 -326.39206,3 -473.93767,3c-135.14883,0 -377.41368,-3 -377.41368,-3z" fill-opacity="0.36471" fill="#9966ff" stroke="none" stroke-width="NaN"/><text transform="translate(239.70702,131.0948) scale(1.22838,1.17497)" font-size="40" xml:space="preserve" fill-opacity="0.56078" fill="#1f162e" fill-rule="nonzero" stroke-opacity="0" stroke="#000000" stroke-width="0" stroke-linecap="butt" stroke-linejoin="miter" stroke-miterlimit="10" stroke-dasharray="" stroke-dashoffset="0" font-family="&quot;Puffy&quot;, Playful" font-weight="normal" text-anchor="start" style="mix-blend-mode: normal"><tspan x="0" dy="0">Paused</tspan></text></g></g></svg>