<svg version="1.1" xmlns="http://www.w3.org/2000/svg" xmlns:xlink="http://www.w3.org/1999/xlink" width="41.94314" height="41.33334" viewBox="0,0,41.94314,41.33334"><g transform="translate(-306.19026,-109.24786)"><g data-paper-data="{&quot;isPaintingLayer&quot;:true}" fill-rule="nonzero" stroke-linecap="butt" stroke-linejoin="miter" stroke-miterlimit="10" stroke-dasharray="" stroke-dashoffset="0" style="mix-blend-mode: normal"><path d="M347.1334,129.91453c0,10.8616 -8.94158,19.66667 -19.97157,19.66667c-11.03,0 -19.97157,-8.80507 -19.97157,-19.66667c0,-10.8616 8.94158,-19.66667 19.97157,-19.66667c11.03,0 19.97157,8.80507 19.97157,19.66667z" fill="#d5dbff" stroke-opacity="0.44314" stroke="#000000" stroke-width="2"/><g fill="#6a80ff" stroke="none"><path d="M339.2478,129.5686c0,6.345 -5.14364,11.48864 -11.48864,11.48864c-6.345,0 -11.48864,-5.14364 -11.48864,-11.48864c0,-6.345 5.14364,-11.48864 11.48864,-11.48864c6.345,0 11.48864,5.14364 11.48864,11.48864zM327.88541,135.62854c3.34681,0 6.05994,-2.71313 6.05994,-6.05994c0,-3.34681 -2.71313,-6.05994 -6.05994,-6.05994c-3.34681,0 -6.05994,2.71313 -6.05994,6.05994c0,3.34681 2.71313,6.05994 6.05994,6.05994z" stroke-width="0"/><path d="M316.45005,122.07128c0.16347,-0.14012 0.32146,-0.26732 0.47479,-0.37958c0.34458,-0.3586 0.82905,-0.58178 1.36565,-0.58178c1.04588,0 1.89373,0.84785 1.89373,1.89373c0.40463,0.80936 -1.06877,1.65466 -1.3066,2.22883c-0.43352,1.0466 -0.14907,2.46196 -0.9501,3.26299c-1.3996,1.3996 -3.27327,1.05415 -3.55075,-0.94687c-0.25331,-1.82674 0.93766,-4.06423 2.06803,-5.383z" stroke-width="0.5"/><path d="M318.22726,132.52561c0.03798,0.02366 0.0809,0.05862 0.12807,0.10358c0.29781,0.21669 0.5289,0.50717 0.66042,0.8413c0.78442,1.15068 1.78399,2.9785 1.96902,3.58363c0.58554,1.91501 -1.16873,2.98512 -3.00124,2.43485c-1.5512,-0.4658 -2.13186,-3.38094 -2.73893,-4.49443c-0.15107,-0.26316 -0.23658,-0.56291 -0.23658,-0.88098c0,-1.04588 0.92449,-1.89373 2.06492,-1.89373c0.18356,0 0.36153,0.02197 0.53094,0.06319c0.22019,0.04346 0.43165,0.12314 0.62338,0.2426z" stroke-width="0.5"/><path d="M324.70423,138.05985c1.28788,-0.37485 5.6699,0.02332 6.00613,2.27644c0.46781,3.13481 -2.97628,2.81961 -5.10418,2.20488c-0.04483,0.01592 -0.09065,0.02909 -0.13739,0.03938c-0.52952,0.11654 -1.05462,-0.16446 -1.42358,-0.68928c-0.23038,-0.3277 -0.39988,-0.75045 -0.47157,-1.23085c-0.16584,-1.11131 0.2476,-2.15686 0.94603,-2.50797c0.05613,-0.04162 0.11737,-0.07306 0.18456,-0.09261z" stroke-width="0.5"/><path d="M338.45347,134.57251c2.61609,1.45937 -0.4083,5.7957 -2.67059,6.95509c-0.2801,0.18254 -0.60599,0.28714 -0.95378,0.28714c-1.04588,0 -1.89373,-0.94594 -1.89373,-2.11282c0,-0.87153 0.47297,-1.61981 1.14816,-1.94277c1.38079,-1.71896 3.59008,-3.62169 4.36995,-3.18665z" stroke-width="0.5"/><path d="M337.08579,130.64171c-0.72465,-1.28824 0.32384,-2.66819 -0.18526,-3.89728c-0.32233,-0.77817 -2.27857,-2.06465 -1.36651,-3.19894c0.39863,-0.49577 0.98443,-0.85746 1.58794,-1.05863c3.01155,-1.00385 4.80188,7.28398 3.2529,8.16912c-0.32942,0.55816 -0.93701,0.9326 -1.63205,0.9326c-0.61628,0 -1.16379,-0.29438 -1.50961,-0.75019c-0.05644,-0.0583 -0.10613,-0.12331 -0.1474,-0.19668z" stroke-width="0.5"/><path d="M331.63514,119.85356c-0.01996,0.00897 -0.05182,0.01714 -0.09452,0.02455c-0.00276,0.0011 -0.00552,0.0022 -0.00829,0.00329c-0.40687,0.16035 -0.83588,0.1701 -1.22541,0.05601c-2.11651,0.02113 -5.98159,-0.12213 -6.08058,-0.20156c-2.99461,-2.40296 3.48755,-5.0266 5.21432,-3.641l1.52327,0.13473c0.6137,0.04133 1.18532,0.38157 1.50692,0.93035c0.78702,0.7615 1.10298,1.8227 -0.83571,2.69363z" stroke-width="0.5"/></g></g></g></svg>