<svg version="1.1" xmlns="http://www.w3.org/2000/svg" xmlns:xlink="http://www.w3.org/1999/xlink" width="254.78352" height="153.14412" viewBox="0,0,254.78352,153.14412"><defs><radialGradient cx="304.17384" cy="109.39975" r="26.05961" gradientUnits="userSpaceOnUse" id="color-1"><stop offset="0" stop-color="#afb0e0" stop-opacity="0"/><stop offset="1" stop-color="#afb0e0" stop-opacity="0.31373"/></radialGradient></defs><g transform="translate(-187.98958,-86.60589)"><g data-paper-data="{&quot;isPaintingLayer&quot;:true}" fill-rule="nonzero" stroke-linejoin="miter" stroke-miterlimit="10" stroke-dasharray="" stroke-dashoffset="0" style="mix-blend-mode: normal"><path d="M282.84801,153.26652c2.53527,-10.30606 9.69505,-18.06905 11.92547,-17.52038c1.35322,0.33289 4.28422,-0.16418 3.86352,6.79114c-0.12587,2.08099 -3.23228,7.4281 -4.2565,12.07389c-1.03766,4.70676 0.00326,8.71377 -0.66767,10.99837c-0.10164,0.34611 -0.13205,-0.33943 -0.2027,-0.0523c-2.53527,10.30606 -5.68727,8.05909 -7.91769,7.51042c-2.23042,-0.54868 -5.27969,-9.4951 -2.74443,-19.80116z" data-paper-data="{&quot;index&quot;:null}" fill="#ffffff" stroke="#000000" stroke-width="2" stroke-linecap="butt"/><g><path d="M264.58151,177.66296c-2.34794,-4.05184 -6.48618,-6.95387 -10.11027,-9.74447c-7.42043,-5.71383 -17.09836,-1.18735 -19.45259,-0.13401c-6.36177,2.84642 -14.35284,20.74915 -14.89452,20.0859c-1.96831,-2.41009 -5.37187,-2.47988 -1.82803,-6.55365c2.24939,-11.8091 11.35772,-16.55128 15.00383,-18.53631c1.34438,-0.73191 9.13456,-3.89179 15.83625,-2.74152c9.90366,1.69985 19.82051,9.05624 22.50564,16.98989c0.7898,2.3336 1.61882,7.06587 1.7343,9.40519c0.04539,0.91944 -4.46451,-0.96582 -4.52421,-0.05588c-0.20437,3.11508 -1.01961,-3.10525 -4.2704,-8.71513z" data-paper-data="{&quot;index&quot;:null}" fill="#ae7e26" stroke="#000000" stroke-width="2" stroke-linecap="butt"/><g><path d="M267.33473,188.37861c0,12.90339 -10.41183,23.36366 -23.25549,23.36366c-12.84365,0 -23.25549,-10.46027 -23.25549,-23.36366c0,-12.90339 10.41183,-23.36366 23.25549,-23.36366c12.84365,0 23.25549,10.46027 23.25549,23.36366z" fill="#141418" stroke="#000000" stroke-width="2.5" stroke-linecap="butt"/><path d="M257.81621,189.39836c0,7.49279 -5.95654,13.56689 -13.3043,13.56689c-7.34776,0 -13.3043,-6.07411 -13.3043,-13.56689c0,-7.49279 5.95654,-13.56689 13.3043,-13.56689c7.34776,0 13.3043,6.07411 13.3043,13.56689z" fill="#434955" stroke="#000000" stroke-width="2.5" stroke-linecap="butt"/><path d="M231.74317,193.40829c0,0 -0.42741,-3.31245 -0.42741,-4.65111c0,-1.15931 0.42741,-2.92046 0.42741,-2.92046h25.32377c0,0 0.6411,1.83422 0.6411,2.92046c0,1.37081 -0.6411,4.65111 -0.6411,4.65111z" fill="#434955" stroke="#000000" stroke-width="2.5" stroke-linecap="butt"/><path d="M249.70383,189.78476c0,2.77782 -2.22764,5.02967 -4.97559,5.02967c-2.74795,0 -4.97559,-2.25186 -4.97559,-5.02967c0,-2.77782 2.22764,-5.02967 4.97559,-5.02967c2.74795,0 4.97559,2.25186 4.97559,5.02967z" fill="#585f6f" stroke="#000000" stroke-width="2.5" stroke-linecap="butt"/><path d="M244.13333,186.62094c0,-0.35843 0.29057,-0.64899 0.64899,-0.64899c0.35843,0 0.64899,0.29057 0.64899,0.64899c0,0.35843 -0.29057,0.64899 -0.64899,0.64899c-0.35843,0 -0.64899,-0.29057 -0.64899,-0.64899z" fill="#8d5d15" stroke="none" stroke-width="0.5" stroke-linecap="butt"/><path d="M244.34966,193.219c0,-0.35843 0.29057,-0.64899 0.64899,-0.64899c0.35843,0 0.64899,0.29057 0.64899,0.64899c0,0.35844 -0.29057,0.64899 -0.64899,0.64899c-0.35843,0 -0.64899,-0.29056 -0.64899,-0.64899z" fill="#8d5d15" stroke="none" stroke-width="0.5" stroke-linecap="butt"/><path d="M242.07819,192.35368c0,-0.35844 0.29057,-0.64899 0.64899,-0.64899c0.35843,0 0.64899,0.29057 0.64899,0.64899c0,0.35844 -0.29057,0.64899 -0.64899,0.64899c-0.35843,0 -0.64899,-0.29057 -0.64899,-0.64899z" fill="#8d5d15" stroke="none" stroke-width="0.5" stroke-linecap="butt"/><path d="M240.99654,190.08222c0,-0.35843 0.29057,-0.64899 0.64899,-0.64899c0.35843,0 0.64899,0.29057 0.64899,0.64899c0,0.35843 -0.29057,0.64899 -0.64899,0.64899c-0.35843,0 -0.64899,-0.29057 -0.64899,-0.64899z" fill="#8d5d15" stroke="none" stroke-width="0.5" stroke-linecap="butt"/><path d="M241.86186,187.43217c0,-0.35843 0.29057,-0.64899 0.64899,-0.64899c0.35843,0 0.64899,0.29056 0.64899,0.64899c0,0.35843 -0.29057,0.64899 -0.64899,0.64899c-0.35843,0 -0.64899,-0.29057 -0.64899,-0.64899z" fill="#8d5d15" stroke="none" stroke-width="0.5" stroke-linecap="butt"/><path d="M246.62112,187.86483c0,-0.35843 0.29057,-0.64899 0.64899,-0.64899c0.35843,0 0.64899,0.29057 0.64899,0.64899c0,0.35843 -0.29056,0.64899 -0.64899,0.64899c-0.35843,0 -0.64899,-0.29057 -0.64899,-0.64899z" fill="#8d5d15" stroke="none" stroke-width="0.5" stroke-linecap="butt"/><path d="M247.21603,190.62304c0,-0.35843 0.29057,-0.64899 0.64899,-0.64899c0.35843,0 0.64899,0.29057 0.64899,0.64899c0,0.35844 -0.29057,0.64899 -0.64899,0.64899c-0.35843,0 -0.64899,-0.29057 -0.64899,-0.64899z" fill="#8d5d15" stroke="none" stroke-width="0.5" stroke-linecap="butt"/><path d="M246.29664,192.24552c0,-0.35844 0.29057,-0.64899 0.64899,-0.64899c0.35843,0 0.64899,0.29057 0.64899,0.64899c0,0.35844 -0.29057,0.64899 -0.64899,0.64899c-0.35843,0 -0.64899,-0.29057 -0.64899,-0.64899z" fill="#8d5d15" stroke="none" stroke-width="0.5" stroke-linecap="butt"/><path d="M243.21393,189.97405c0,-0.89607 0.7264,-1.62248 1.62248,-1.62248c0.89607,0 1.62248,0.7264 1.62248,1.62248c0,0.89607 -0.7264,1.62248 -1.62248,1.62248c-0.89607,0 -1.62248,-0.7264 -1.62248,-1.62248z" fill="#434955" stroke="none" stroke-width="0.5" stroke-linecap="butt"/><path d="M249.70383,189.62252l7.13889,-0.10817" fill="none" stroke="#000000" stroke-width="2.5" stroke-linecap="round"/><path d="M239.86081,189.29802l-7.67972,0.43266" fill="none" stroke="#000000" stroke-width="2.5" stroke-linecap="round"/></g><path d="M235.55896,180.86023c-1.33335,0 -2.41424,-1.08089 -2.41424,-2.41424v-60.3558c0,-1.33335 1.08089,-2.41424 2.41424,-2.41424h28.36722c1.33335,0 2.41424,1.08089 2.41424,2.41424v60.3558c0,1.33335 -1.08089,2.41424 -2.41424,2.41424z" fill="#101317" stroke="#000000" stroke-width="2.5" stroke-linecap="butt"/><path d="M216.54689,182.06734c-1.33335,0 -2.41424,-1.08089 -2.41424,-2.41424v-27.46188c0,-1.33335 1.08089,-2.41424 2.41424,-2.41424c0,0 2.82917,0.37615 3.31957,-0.90533c0.41842,-1.09338 1.064,-5.07071 2.36586,-5.90425c6.59622,-4.22335 22.59533,-2.19452 24.70807,-0.97055c3.10966,1.80151 -0.2156,30.11178 -0.2156,30.11178c1.33335,0 -4.82847,0.77911 -4.82847,2.11245l-6.03558,5.43202c0,1.33335 -1.08089,2.41424 -2.41424,2.41424z" fill="#101317" stroke="#000000" stroke-width="2.5" stroke-linecap="butt"/><g><path d="M354.30238,194.27037c-0.33078,-0.80049 -4.86421,0.02119 -5.10335,-0.81984c-0.60843,-2.13982 -0.25357,-4.40211 -0.25357,-6.74212c0,-13.33881 10.72463,-24.15205 22.60229,-24.15205c1.70581,0 4.00577,-0.95947 7.55493,-0.34217c3.88481,0.67567 9.02205,2.96912 10.57151,3.87387c4.42882,2.58604 3.76939,3.45765 2.7324,6.22534c-0.28538,0.76167 -5.74601,-5.79743 -12.33637,-6.42117c-2.43882,-0.23082 -13.51441,-0.00891 -18.45064,7.39131c-2.41082,3.6142 -5.25028,7.48523 -6.12892,11.84558c-1.21649,6.03703 -0.05586,11.88164 -1.18828,9.14126z" fill="#ae7e26" stroke="#000000" stroke-width="2" stroke-linecap="butt"/><g><path d="M398.6705,189.14856c0,12.25594 -9.8894,22.19134 -22.0886,22.19134c-12.1992,0 -22.0886,-9.9354 -22.0886,-22.19134c0,-12.25594 9.8894,-22.19134 22.0886,-22.19134c12.1992,0 22.0886,9.9354 22.0886,22.19134z" fill="#141418" stroke="#000000" stroke-width="2.5" stroke-linecap="butt"/><path d="M389.62958,190.11714c0,7.11682 -5.65766,12.88615 -12.63673,12.88615c-6.97907,0 -12.63673,-5.76933 -12.63673,-12.88615c0,-7.11682 5.65766,-12.88615 12.63673,-12.88615c6.97907,0 12.63673,5.76932 12.63673,12.88615z" fill="#434955" stroke="#000000" stroke-width="2.5" stroke-linecap="butt"/><path d="M364.86481,193.92587c0,0 -0.40596,-3.14623 -0.40596,-4.41771c0,-1.10114 0.40596,-2.77392 0.40596,-2.77392h24.05309c0,0 0.60894,1.74219 0.60894,2.77392c0,1.30202 -0.60894,4.41771 -0.60894,4.41771z" fill="#434955" stroke="#000000" stroke-width="2.5" stroke-linecap="butt"/><path d="M381.92426,190.48416c0,2.63843 -2.11587,4.7773 -4.72593,4.7773c-2.61006,0 -4.72594,-2.13887 -4.72594,-4.7773c0,-2.63844 2.11588,-4.7773 4.72594,-4.7773c2.61006,0 4.72593,2.13887 4.72593,4.7773z" fill="#585f6f" stroke="#000000" stroke-width="2.5" stroke-linecap="butt"/><path d="M376.63327,187.47907c0,-0.34045 0.27598,-0.61643 0.61643,-0.61643c0.34045,0 0.61643,0.27598 0.61643,0.61643c0,0.34045 -0.27598,0.61643 -0.61643,0.61643c-0.34045,0 -0.61643,-0.27598 -0.61643,-0.61643z" fill="#8d5d15" stroke="none" stroke-width="0.5" stroke-linecap="butt"/><path d="M376.83874,193.74607c0,-0.34045 0.27598,-0.61643 0.61643,-0.61643c0.34045,0 0.61643,0.27598 0.61643,0.61643c0,0.34045 -0.27598,0.61643 -0.61643,0.61643c-0.34045,0 -0.61643,-0.27598 -0.61643,-0.61643z" fill="#8d5d15" stroke="none" stroke-width="0.5" stroke-linecap="butt"/><path d="M374.68124,192.92417c0,-0.34045 0.27598,-0.61643 0.61643,-0.61643c0.34045,0 0.61643,0.27598 0.61643,0.61643c0,0.34045 -0.27598,0.61643 -0.61643,0.61643c-0.34045,0 -0.61643,-0.27598 -0.61643,-0.61643z" fill="#8d5d15" stroke="none" stroke-width="0.5" stroke-linecap="butt"/><path d="M373.65387,190.76668c0,-0.34045 0.27598,-0.61643 0.61643,-0.61643c0.34045,0 0.61643,0.27598 0.61643,0.61643c0,0.34045 -0.27598,0.61643 -0.61643,0.61643c-0.34045,0 -0.61643,-0.27598 -0.61643,-0.61643z" fill="#8d5d15" stroke="none" stroke-width="0.5" stroke-linecap="butt"/><path d="M374.47577,188.24961c0,-0.34045 0.27598,-0.61643 0.61643,-0.61643c0.34045,0 0.61643,0.27598 0.61643,0.61643c0,0.34045 -0.27598,0.61643 -0.61643,0.61643c-0.34045,0 -0.61643,-0.27598 -0.61643,-0.61643z" fill="#8d5d15" stroke="none" stroke-width="0.5" stroke-linecap="butt"/><path d="M378.99624,188.66055c0,-0.34045 0.27598,-0.61643 0.61643,-0.61643c0.34045,0 0.61643,0.27598 0.61643,0.61643c0,0.34045 -0.27598,0.61643 -0.61643,0.61643c-0.34045,0 -0.61643,-0.27599 -0.61643,-0.61643z" fill="#8d5d15" stroke="none" stroke-width="0.5" stroke-linecap="butt"/><path d="M379.56129,191.28038c0,-0.34045 0.27598,-0.61643 0.61643,-0.61643c0.34045,0 0.61643,0.27598 0.61643,0.61643c0,0.34045 -0.27598,0.61643 -0.61643,0.61643c-0.34045,0 -0.61643,-0.27598 -0.61643,-0.61643z" fill="#8d5d15" stroke="none" stroke-width="0.5" stroke-linecap="butt"/><path d="M378.68802,192.82144c0,-0.34045 0.27598,-0.61643 0.61643,-0.61643c0.34045,0 0.61643,0.27598 0.61643,0.61643c0,0.34045 -0.27598,0.61643 -0.61643,0.61643c-0.34045,0 -0.61643,-0.27598 -0.61643,-0.61643z" fill="#8d5d15" stroke="none" stroke-width="0.5" stroke-linecap="butt"/><path d="M375.75999,190.66394c0,-0.8511 0.68996,-1.54106 1.54106,-1.54106c0.8511,0 1.54106,0.68996 1.54106,1.54106c0,0.8511 -0.68996,1.54106 -1.54106,1.54106c-0.8511,0 -1.54106,-0.68996 -1.54106,-1.54106z" fill="#434955" stroke="none" stroke-width="0.5" stroke-linecap="butt"/><path d="M381.92426,190.33005l6.78069,-0.10274" fill="none" stroke="#000000" stroke-width="2.5" stroke-linecap="round"/><path d="M372.57512,190.02184l-7.29437,0.41095" fill="none" stroke="#000000" stroke-width="2.5" stroke-linecap="round"/></g><path d="M378.53391,166.06683l-1.36984,-4.52046" fill="none" stroke="#000000" stroke-width="2" stroke-linecap="round"/><path d="M361,171.4092l-3.2876,-3.28761" fill="none" stroke="#000000" stroke-width="2" stroke-linecap="round"/></g><path d="M263.87589,194.33968l6.43795,-8.651l78.66371,-1.81067l23.53876,10.46167z" fill="#2d3139" stroke="#000000" stroke-width="2.5" stroke-linecap="butt"/><path d="M365.676,188.70647l12.8759,-20.72216l7.2427,8.651l0.80475,-0.80475c0,0 -4.09904,13.26272 -7.9352,15.62342c-2.24649,1.38245 -12.98815,-2.74752 -12.98815,-2.74752z" fill="#191b1f" stroke="#000000" stroke-width="2.5" stroke-linecap="butt"/><path d="M269.10673,186.79522c0,12.05565 -10.26844,21.82867 -22.9352,21.82867c-12.66676,0 -22.9352,-9.77302 -22.9352,-21.82867c0,-12.05565 10.26844,-21.82868 22.9352,-21.82868c3.5549,0 7.92684,-1.84565 10.92997,-0.47172c1.24478,0.56949 0.7914,5.33488 1.855,6.21484c0.5154,0.4264 6.85753,-0.96054 7.35452,-0.5368c4.81981,4.10943 2.79572,10.03205 2.79572,16.62236z" fill="#070e16" stroke="#000000" stroke-width="2.5" stroke-linecap="butt"/><path d="M264.88183,199.36933v-6.03558h106.42738v17.302c0,0 -1.85496,-0.56838 -6.27788,-3.83789c-2.82995,-2.09195 -7.18649,-7.42854 -11.22531,-7.42854c-22.36577,0 -59.66661,0 -72.02458,0c-3.79521,0 -14.30659,3.01778 -17.50317,3.01778c-3.41863,0 0.60356,-3.01778 0.60356,-3.01778z" fill="#2d3139" stroke="#000000" stroke-width="2.5" stroke-linecap="butt"/><path d="M265.68655,198.76578l12.87591,0.40237" fill="none" stroke="#000000" stroke-width="2.5" stroke-linecap="round"/><path d="M355.81788,199.16815l15.29014,-0.40237" fill="none" stroke="#000000" stroke-width="2.5" stroke-linecap="round"/><path d="M255.70966,190.35608c-3.27536,-5.6523 -9.04817,-9.7006 -14.10374,-13.59347c-10.35145,-7.97076 -23.85208,-1.65634 -27.13622,-0.18694c-8.87461,3.97073 -20.02211,28.94491 -20.77775,28.01968c-2.74577,-3.36205 -7.4937,-3.45941 -2.55008,-9.14229c3.13788,-16.4736 15.84394,-23.08891 20.93023,-25.85801c1.87539,-1.02102 12.74264,-5.429 22.09145,-3.8244c13.81553,2.37128 27.64945,12.63338 31.3952,23.70076c1.10178,3.25535 2.25826,9.85684 2.41934,13.12017c0.06332,1.28262 -6.22796,-1.34731 -6.31125,-0.07796c-0.2851,4.34553 -1.42236,-4.3318 -5.95717,-12.15756z" data-paper-data="{&quot;index&quot;:null}" fill="#ae7e26" stroke="#000000" stroke-width="2" stroke-linecap="butt"/><g><path d="M259.55039,205.30432c0,18.00013 -14.52443,32.59213 -32.44125,32.59213c-17.9168,0 -32.44125,-14.59199 -32.44125,-32.59213c0,-18.00013 14.52444,-32.59213 32.44125,-32.59213c17.91681,0 32.44125,14.59199 32.44125,32.59213z" fill="#141418" stroke="#000000" stroke-width="2.5" stroke-linecap="butt"/><path d="M246.27211,206.72686c0,10.45238 -8.30934,18.9257 -18.55941,18.9257c-10.25008,0 -18.55941,-8.47333 -18.55941,-18.9257c0,-10.45238 8.30934,-18.92571 18.55941,-18.92571c10.25008,0 18.55941,8.47333 18.55941,18.92571z" fill="#434955" stroke="#000000" stroke-width="2.5" stroke-linecap="butt"/><path d="M209.90043,212.32068c0,0 -0.59622,-4.62083 -0.59622,-6.48825c0,-1.61723 0.59622,-4.07401 0.59622,-4.07401h35.32647c0,0 0.89434,2.55873 0.89434,4.07401c0,1.91226 -0.89434,6.48825 -0.89434,6.48825z" fill="#434955" stroke="#000000" stroke-width="2.5" stroke-linecap="butt"/><path d="M234.9554,207.26588c0,3.87503 -3.10755,7.01636 -6.94092,7.01636c-3.83336,0 -6.94092,-3.14133 -6.94092,-7.01636c0,-3.87503 3.10755,-7.01636 6.94092,-7.01636c3.83336,0 6.94092,3.14133 6.94092,7.01636z" fill="#585f6f" stroke="#000000" stroke-width="2.5" stroke-linecap="butt"/><path d="M227.18459,202.85236c0,-0.49999 0.40533,-0.90533 0.90533,-0.90533c0.5,0 0.90533,0.40534 0.90533,0.90533c0,0.49999 -0.40533,0.90533 -0.90533,0.90533c-0.5,0 -0.90533,-0.40534 -0.90533,-0.90533z" fill="#8d5d15" stroke="none" stroke-width="0.5" stroke-linecap="butt"/><path d="M227.48637,212.05662c0,-0.49999 0.40533,-0.90533 0.90533,-0.90533c0.5,0 0.90533,0.40534 0.90533,0.90533c0,0.49999 -0.40533,0.90533 -0.90533,0.90533c-0.5,0 -0.90533,-0.40534 -0.90533,-0.90533z" fill="#8d5d15" stroke="none" stroke-width="0.5" stroke-linecap="butt"/><path d="M224.31769,210.84951c0,-0.49999 0.40533,-0.90533 0.90533,-0.90533c0.5,0 0.90533,0.40534 0.90533,0.90533c0,0.49999 -0.40533,0.90533 -0.90533,0.90533c-0.5,0 -0.90533,-0.40534 -0.90533,-0.90533z" fill="#8d5d15" stroke="none" stroke-width="0.5" stroke-linecap="butt"/><path d="M222.8088,207.68083c0,-0.49999 0.40533,-0.90533 0.90533,-0.90533c0.5,0 0.90533,0.40534 0.90533,0.90533c0,0.49999 -0.40533,0.90533 -0.90533,0.90533c-0.5,0 -0.90533,-0.40534 -0.90533,-0.90533z" fill="#8d5d15" stroke="none" stroke-width="0.5" stroke-linecap="butt"/><path d="M224.01591,203.98403c0,-0.49999 0.40533,-0.90533 0.90533,-0.90533c0.5,0 0.90533,0.40534 0.90533,0.90533c0,0.49999 -0.40533,0.90533 -0.90533,0.90533c-0.5,0 -0.90533,-0.40534 -0.90533,-0.90533z" fill="#8d5d15" stroke="none" stroke-width="0.5" stroke-linecap="butt"/><path d="M230.65505,204.5876c0,-0.49999 0.40533,-0.90533 0.90533,-0.90533c0.5,0 0.90533,0.40534 0.90533,0.90533c0,0.49999 -0.40533,0.90533 -0.90533,0.90533c-0.5,0 -0.90533,-0.40534 -0.90533,-0.90533z" fill="#8d5d15" stroke="none" stroke-width="0.5" stroke-linecap="butt"/><path d="M231.48495,208.43527c0,-0.49999 0.40533,-0.90533 0.90533,-0.90533c0.5,0 0.90533,0.40534 0.90533,0.90533c0,0.49999 -0.40533,0.90533 -0.90533,0.90533c-0.5,0 -0.90533,-0.40534 -0.90533,-0.90533z" fill="#8d5d15" stroke="none" stroke-width="0.5" stroke-linecap="butt"/><path d="M230.20238,210.69862c0,-0.49999 0.40533,-0.90533 0.90533,-0.90533c0.5,0 0.90533,0.40534 0.90533,0.90533c0,0.49999 -0.40533,0.90533 -0.90533,0.90533c-0.5,0 -0.90533,-0.40534 -0.90533,-0.90533z" fill="#8d5d15" stroke="none" stroke-width="0.5" stroke-linecap="butt"/><path d="M225.90204,207.52994c0,-1.25001 1.01333,-2.26334 2.26334,-2.26334c1.25001,0 2.26334,1.01333 2.26334,2.26334c0,1.25001 -1.01333,2.26334 -2.26334,2.26334c-1.25001,0 -2.26334,-1.01333 -2.26334,-2.26334z" fill="#434955" stroke="none" stroke-width="0.5" stroke-linecap="butt"/><path d="M244.9141,206.88866l-9.9587,0.15089" fill="none" stroke="#000000" stroke-width="2.5" stroke-linecap="round"/><path d="M210.5113,207.19044l10.71315,-0.60356" fill="none" stroke="#000000" stroke-width="2.5" stroke-linecap="round"/></g><path d="M214.25339,167.75322l0.22273,6.93369" data-paper-data="{&quot;index&quot;:null}" fill="none" stroke="#000000" stroke-width="2" stroke-linecap="round"/><path d="M240.98177,175.27169l3.02568,-6.12156" data-paper-data="{&quot;index&quot;:null}" fill="none" stroke="#000000" stroke-width="2" stroke-linecap="round"/><path d="M269.50909,191.3219v-12.67472h44.66329v12.67472z" fill="#191b1f" stroke="#000000" stroke-width="2.5" stroke-linecap="butt"/><path d="M267.96649,177.84243v-3.21898c0,0 -4.33512,-26.1092 -2.67661,-36.61217c0.47823,-3.02855 5.69536,-1.6237 6.42703,-1.78963c1.12608,-0.25539 6.31957,35.7864 6.84878,35.7864c6.74602,0 32.95387,0.40236 32.95387,0.40236l3.66154,5.43202c0,0 0.46957,1.81067 -1.15627,1.81067c-4.41409,0 -30.06712,1.07935 -42.02556,0.55275c-4.70522,-0.2072 -4.03276,-2.36343 -4.03276,-2.36343z" fill="#4c4f57" stroke="#000000" stroke-width="2.5" stroke-linecap="butt"/><g><path d="M376.36023,213.43021c-0.48582,-1.17566 -7.144,0.03113 -7.49522,-1.20408c-0.8936,-3.14273 -0.37242,-6.46532 -0.37242,-9.90207c0,-19.59054 15.75111,-35.4718 33.19568,-35.4718c2.50529,0 5.88323,-1.40917 11.09583,-0.50254c5.70556,0.99236 13.25055,4.3607 15.52624,5.6895c6.50454,3.79807 5.53606,5.07822 4.01304,9.14309c-0.41913,1.11866 -8.43909,-8.51462 -18.11826,-9.4307c-3.58187,-0.33901 -19.84844,-0.01308 -27.09822,10.85551c-3.54074,5.30814 -7.71102,10.99346 -9.00147,17.39746c-1.78665,8.86651 -0.08204,17.45042 -1.74521,13.42566z" fill="#ae7e26" stroke="#000000" stroke-width="2" stroke-linecap="butt"/><g><path d="M441.5231,205.90788c0,18.00013 -14.52444,32.59213 -32.44125,32.59213c-17.9168,0 -32.44125,-14.59199 -32.44125,-32.59213c0,-18.00013 14.52444,-32.59213 32.44125,-32.59213c17.9168,0 32.44125,14.59199 32.44125,32.59213z" fill="#141418" stroke="#000000" stroke-width="2.5" stroke-linecap="butt"/><path d="M428.24483,207.33041c0,10.45238 -8.30934,18.9257 -18.55941,18.9257c-10.25008,0 -18.55941,-8.47333 -18.55941,-18.9257c0,-10.45238 8.30934,-18.92571 18.55941,-18.92571c10.25008,0 18.55941,8.47333 18.55941,18.92571z" fill="#434955" stroke="#000000" stroke-width="2.5" stroke-linecap="butt"/><path d="M391.87315,212.92424c0,0 -0.59623,-4.62083 -0.59623,-6.48825c0,-1.61723 0.59623,-4.07401 0.59623,-4.07401h35.32647c0,0 0.89434,2.55873 0.89434,4.07401c0,1.91226 -0.89434,6.48825 -0.89434,6.48825z" fill="#434955" stroke="#000000" stroke-width="2.5" stroke-linecap="butt"/><path d="M416.92812,207.86945c0,3.87503 -3.10755,7.01636 -6.94092,7.01636c-3.83336,0 -6.94092,-3.14133 -6.94092,-7.01636c0,-3.87503 3.10755,-7.01636 6.94092,-7.01636c3.83336,0 6.94092,3.14133 6.94092,7.01636z" fill="#585f6f" stroke="#000000" stroke-width="2.5" stroke-linecap="butt"/><path d="M409.15732,203.45592c0,-0.49999 0.40534,-0.90533 0.90533,-0.90533c0.49999,0 0.90533,0.40534 0.90533,0.90533c0,0.49999 -0.40534,0.90533 -0.90533,0.90533c-0.49999,0 -0.90533,-0.40534 -0.90533,-0.90533z" fill="#8d5d15" stroke="none" stroke-width="0.5" stroke-linecap="butt"/><path d="M409.45909,212.66018c0,-0.49999 0.40534,-0.90533 0.90533,-0.90533c0.49999,0 0.90533,0.40534 0.90533,0.90533c0,0.49999 -0.40534,0.90533 -0.90533,0.90533c-0.49999,0 -0.90533,-0.40534 -0.90533,-0.90533z" fill="#8d5d15" stroke="none" stroke-width="0.5" stroke-linecap="butt"/><path d="M406.29042,211.45307c0,-0.49999 0.40534,-0.90533 0.90533,-0.90533c0.49999,0 0.90533,0.40534 0.90533,0.90533c0,0.49999 -0.40534,0.90533 -0.90533,0.90533c-0.49999,0 -0.90533,-0.40534 -0.90533,-0.90533z" fill="#8d5d15" stroke="none" stroke-width="0.5" stroke-linecap="butt"/><path d="M404.78152,208.28439c0,-0.49999 0.40534,-0.90533 0.90533,-0.90533c0.49999,0 0.90533,0.40534 0.90533,0.90533c0,0.49999 -0.40534,0.90533 -0.90533,0.90533c-0.49999,0 -0.90533,-0.40534 -0.90533,-0.90533z" fill="#8d5d15" stroke="none" stroke-width="0.5" stroke-linecap="butt"/><path d="M405.98863,204.5876c0,-0.49999 0.40534,-0.90533 0.90533,-0.90533c0.49999,0 0.90533,0.40534 0.90533,0.90533c0,0.49999 -0.40534,0.90533 -0.90533,0.90533c-0.49999,0 -0.90533,-0.40534 -0.90533,-0.90533z" fill="#8d5d15" stroke="none" stroke-width="0.5" stroke-linecap="butt"/><path d="M412.62777,205.19115c0,-0.49999 0.40534,-0.90533 0.90533,-0.90533c0.49999,0 0.90533,0.40534 0.90533,0.90533c0,0.49999 -0.40534,0.90533 -0.90533,0.90533c-0.49999,0 -0.90533,-0.40534 -0.90533,-0.90533z" fill="#8d5d15" stroke="none" stroke-width="0.5" stroke-linecap="butt"/><path d="M413.45767,209.03884c0,-0.49999 0.40534,-0.90533 0.90533,-0.90533c0.49999,0 0.90533,0.40534 0.90533,0.90533c0,0.49999 -0.40534,0.90533 -0.90533,0.90533c-0.49999,0 -0.90533,-0.40534 -0.90533,-0.90533z" fill="#8d5d15" stroke="none" stroke-width="0.5" stroke-linecap="butt"/><path d="M412.17511,211.30218c0,-0.49999 0.40534,-0.90533 0.90533,-0.90533c0.49999,0 0.90533,0.40534 0.90533,0.90533c0,0.49999 -0.40534,0.90533 -0.90533,0.90533c-0.49999,0 -0.90533,-0.40534 -0.90533,-0.90533z" fill="#8d5d15" stroke="none" stroke-width="0.5" stroke-linecap="butt"/><path d="M407.87476,208.1335c0,-1.25001 1.01333,-2.26334 2.26334,-2.26334c1.25001,0 2.26334,1.01333 2.26334,2.26334c0,1.25001 -1.01333,2.26334 -2.26334,2.26334c-1.25001,0 -2.26334,-1.01333 -2.26334,-2.26334z" fill="#434955" stroke="none" stroke-width="0.5" stroke-linecap="butt"/><path d="M426.88683,207.49222l-9.9587,0.15089" fill="none" stroke="#000000" stroke-width="2.5" stroke-linecap="round"/><path d="M403.19718,207.19044l-10.71315,0.60356" fill="none" stroke="#000000" stroke-width="2.5" stroke-linecap="round"/></g><path d="M411.94877,172.00804l-2.01186,-6.63914" fill="none" stroke="#000000" stroke-width="2" stroke-linecap="round"/><path d="M381.36851,175.02584l4.82847,4.82847" fill="none" stroke="#000000" stroke-width="2" stroke-linecap="round"/></g><path d="M266.52688,192.55128l-6.86121,-55.92724l7.19244,-0.85173l6.86121,57.93909z" fill="#191b1f" stroke="#000000" stroke-width="2.5" stroke-linecap="butt"/><path d="M272.52689,177.44007l7.0415,-7.2427" fill="none" stroke="#000000" stroke-width="2.5" stroke-linecap="round"/><path d="M370.65459,192.06258c-0.70481,1.51031 -2.42693,3.0158 -8.06545,0.3845c-5.63852,-2.63131 -13.25941,-7.19588 -12.5546,-8.70619c0.70481,-1.51031 4.03642,-0.80276 9.67494,1.82855c5.63852,2.63131 11.64993,4.98282 10.94511,6.49314z" fill="#070e16" stroke="#000000" stroke-width="2.5" stroke-linecap="butt"/><path d="M353.20247,183.27445c0,0 8.33019,-15.87743 8.95088,-18.0498c0.1608,-0.56278 0.50487,-0.45931 0.50487,-0.45931l17.90555,3.62135l-14.08302,21.32571z" fill="#191b1f" stroke="#000000" stroke-width="2.5" stroke-linecap="butt"/><path d="M368.03993,166.67662l-4.82847,10.56226" fill="none" stroke="#000000" stroke-width="2.5" stroke-linecap="round"/><path d="M365.32392,182.6709l-8.14804,-2.71601" fill="none" stroke="#000000" stroke-width="2.5" stroke-linecap="round"/><path d="M349.02785,186.89581l-33.19568,0.60356" fill="none" stroke="#000000" stroke-width="2.5" stroke-linecap="round"/></g><path d="M275.17713,167.63007c-0.48074,-3.23514 3.07998,-2.15753 5.84056,-2.18794c1.72729,-0.01901 14.44623,-3.09961 22.20372,4.12659c4.64051,4.32269 4.65816,7.44427 5.55542,11.73762c0.50945,2.43778 1.87572,3.04004 3.6869,5.10709c0.45925,0.52412 0.93311,1.06611 1.39284,1.60988c-0.4808,-0.18004 -0.99913,-0.34361 -1.59544,-0.47613c-2.35965,-0.52436 -5.4841,0.34466 -7.83795,0.50088c-1.10766,0.07351 -2.39916,0.12982 -3.62356,0.38629c-0.44739,0.07459 -0.87814,0.19838 -1.28646,0.36564c-0.07545,0.02831 -0.15021,0.05783 -0.22421,0.08863c-0.42263,-1.5917 -0.92026,-3.70829 -1.50883,-6.48302c-1.18959,-5.60817 -12.92034,-2.35824 -17.00381,-5.01574c-4.69202,-3.05355 -7.15472,-6.7561 -7.15472,-6.7561z" data-paper-data="{&quot;index&quot;:null}" fill="#a68f79" stroke="#000000" stroke-width="2" stroke-linecap="butt"/><path d="M274.40729,170.34483c0,0 -1.32263,-18.31815 1.72989,-27.71132c4.04411,-12.44445 14.40667,-13.81927 14.40667,-13.81927c0,0 5.2415,0.64562 5.43425,8.48446c0.25802,10.49348 -0.5889,29.04893 -0.5889,29.04893" fill="#334865" stroke="#000000" stroke-width="2" stroke-linecap="round"/><path d="M319.04944,116.52316c-1.2846,12.43824 -11.83906,21.5389 -23.57407,20.32694c-11.73499,-1.21196 -20.20671,-12.27764 -18.92212,-24.71587c1.2846,-12.43824 11.83906,-21.5389 23.57407,-20.32694c11.73499,1.21196 20.20672,12.27764 18.92212,24.71587z" fill="#ffffff" stroke="#000000" stroke-width="2" stroke-linecap="butt"/><path d="M302.01036,117.01225c0.16569,-2.00101 0.84649,-3.55301 1.5206,-3.46645c0.67409,0.08655 1.08625,1.77887 0.92056,3.77989c-0.16569,2.00101 -0.84649,3.55301 -1.5206,3.46645c-0.67409,-0.08655 -1.08625,-1.77887 -0.92056,-3.77989z" data-paper-data="{&quot;index&quot;:null}" fill="#000000" stroke="none" stroke-width="0.5" stroke-linecap="butt"/><path d="M291.99747,121.58188l21.93985,4.28298" fill="none" stroke="#000000" stroke-width="1.5" stroke-linecap="round"/><path d="M292.38022,120.16521l-1.31737,3.08819" fill="none" stroke="#000000" stroke-width="1.5" stroke-linecap="round"/><path d="M313.45954,119.1511c0.16569,-2.00101 0.84649,-3.55301 1.5206,-3.46645c0.67409,0.08655 1.08625,1.77887 0.92056,3.77989c-0.16569,2.00101 -0.84649,3.55301 -1.5206,3.46645c-0.67409,-0.08655 -1.08625,-1.77887 -0.92056,-3.77989z" data-paper-data="{&quot;index&quot;:null}" fill="#000000" stroke="none" stroke-width="0.5" stroke-linecap="butt"/><path d="M310.01581,179.20857l6.15778,-21.11178l2.95664,0.25447l-3.38885,21.979z" fill="#191b1f" stroke="#000000" stroke-width="2.5" stroke-linecap="butt"/><g fill="#191b1f" stroke="#000000" stroke-width="2.5" stroke-linecap="butt"><path d="M317.78741,191.41864l-18.68441,-0.78287c0,0 2.55877,-10.77639 6.33606,-13.97711c4.81794,-4.08252 20.21685,-8.52273 20.21685,-8.52273l1.3005,22.75876z"/><path d="M327.95362,191.58522c0,0.76988 -6.75509,1.39399 -15.08793,1.39399c-8.33283,0 -43.85753,-0.42292 -43.85753,-1.19281c0,-0.76988 35.52469,-1.59518 43.85753,-1.59518c8.33283,0 15.08793,0.62411 15.08793,1.39399z"/></g><path d="M319.85947,160.11537c-1.46962,1.18666 -3.53809,1.0624 -4.62005,-0.27755c-1.08196,-1.33995 -0.76769,-3.38817 0.70194,-4.57484c1.46962,-1.18666 3.53809,-1.0624 4.62005,0.27755c1.08196,1.33995 0.76769,3.38817 -0.70194,4.57484z" fill="#1f1919" stroke="#000000" stroke-width="2.5" stroke-linecap="butt"/><path d="M297.15914,158.17832c-0.18962,-0.1431 -0.37716,-0.28784 -0.5626,-0.43407c0.86921,-0.99535 1.77378,-1.95569 2.76903,-2.82796c1.88196,-1.64942 3.72086,-3.67771 4.90795,-5.93253c3.48135,2.08823 6.88501,2.73071 8.51254,4.07651c0.27799,0.22987 -0.364,-0.01247 -0.12798,0.16565c8.47156,6.39335 5.16385,8.40409 3.78022,10.23748c-1.38364,1.8334 -10.80758,1.10827 -19.27914,-5.28509z" data-paper-data="{&quot;index&quot;:null}" fill="#ffffff" stroke="#000000" stroke-width="2" stroke-linecap="butt"/><path d="M285.76005,140.311c0.83947,-1.11234 1.5383,-4.00189 7.76432,-0.87293c1.86279,0.93616 5.55193,5.89919 9.41755,8.67217c0.30107,0.21597 0.60319,0.41903 0.90524,0.61056c-1.15703,2.21272 -2.96673,4.20295 -4.81114,5.81947c-1.01763,0.89189 -1.94094,1.8746 -2.82844,2.89258c-7.84073,-6.37227 -11.77837,-15.3584 -10.44753,-17.12184z" data-paper-data="{&quot;index&quot;:null}" fill="#334865" stroke="#000000" stroke-width="2" stroke-linecap="butt"/><path d="M292.32602,156.42998l-2.92613,7.02271" fill="none" stroke="#000000" stroke-width="2" stroke-linecap="round"/><g stroke-linecap="butt"><path d="M321.36003,120.89833c-2.45317,8.82438 -8.98085,15.06945 -16.87886,17.45204c-0.82072,0.24758 0.25291,-0.11941 1.29095,0.75068c1.6476,1.38102 1.40291,2.40275 -2.19757,2.12864c-3.88254,-0.29558 -9.78949,-1.44763 -15.42096,-3.13887c-3.72661,-1.11917 -8.03112,-2.94511 -9.04134,-3.22595c-2.35642,-0.65508 -4.30747,-2.89438 -2.22239,-3.54096c1.54289,-0.47845 1.35869,-0.39432 0.91031,-0.94245c-4.99606,-6.10758 -6.93718,-14.57553 -4.56636,-23.10369c3.83775,-13.80488 17.52096,-22.53992 30.9488,-18.80699c13.42784,3.73293 21.0152,18.62269 17.17744,32.42759z" fill="url(#color-1)" stroke="#111111" stroke-width="2"/><path d="M317.10453,105.15455c-0.13666,2.63943 -2.44369,3.42208 -4.52309,1.75412c-0.382,-0.30642 -1.02304,-2.82863 -1.43314,-3.31352c-1.19153,-1.40883 -3.62832,-1.95094 -4.08124,-3.73964c-0.59344,-0.61635 -0.85487,-1.52155 -0.60911,-2.40559c0.36982,-1.33026 1.748,-2.10887 3.07826,-1.73905c0.50421,0.14017 0.92917,0.42521 1.24237,0.79761c3.30936,1.0567 6.50002,5.28372 6.32592,8.64607z" fill="#ffffff" stroke="none" stroke-width="0.5"/></g></g></g></svg>