<svg version="1.1" xmlns="http://www.w3.org/2000/svg" xmlns:xlink="http://www.w3.org/1999/xlink" width="4.00104" height="55.91449" viewBox="0,0,4.00104,55.91449"><g transform="translate(-317.86769,-152.31764)"><g data-paper-data="{&quot;isPaintingLayer&quot;:true}" fill="#fff6b5" fill-rule="nonzero" stroke="#ddd173" stroke-width="4" stroke-linecap="butt" stroke-linejoin="miter" stroke-miterlimit="10" stroke-dasharray="" stroke-dashoffset="0" style="mix-blend-mode: normal"><path d="M319.86873,203.02096c0,0 0.0109,-21.01073 -0.00707,-29.88786c-0.0119,-5.87966 -0.0083,-11.87413 -0.00369,-15.64859c0.00294,-2.40371 0.02044,-3.89034 0.03422,-3.87408c0.03234,0.03818 0.16517,0.19497 0.21036,0.24832c0.00951,0.01122 0.00625,0.7975 0.00734,4.24061c0.00043,1.33782 0.00237,3.07775 0.00692,5.33028c0.01079,5.34123 0.02482,15.89992 0.02867,25.36729c0.00311,7.63841 -0.00296,14.99731 -0.00296,14.99731c0,0 0.00682,2.20897 -0.01949,2.43787c-0.06416,0.55833 -0.20363,-0.53977 -0.23475,-0.62764c-0.01663,-0.04697 -0.01956,-2.58352 -0.01956,-2.58352z"/></g></g></svg>