<svg version="1.1" xmlns="http://www.w3.org/2000/svg" xmlns:xlink="http://www.w3.org/1999/xlink" width="41.94314" height="41.33334" viewBox="0,0,41.94314,41.33334"><g transform="translate(-305.78216,-66.30587)"><g data-paper-data="{&quot;isPaintingLayer&quot;:true}" fill-rule="nonzero" stroke-linecap="butt" stroke-linejoin="miter" stroke-miterlimit="10" stroke-dasharray="" stroke-dashoffset="0" style="mix-blend-mode: normal"><path d="M346.7253,86.97254c0,10.8616 -8.94158,19.66667 -19.97157,19.66667c-11.03,0 -19.97157,-8.80507 -19.97157,-19.66667c0,-10.8616 8.94158,-19.66667 19.97157,-19.66667c11.03,0 19.97157,8.80507 19.97157,19.66667z" fill="#d5dbff" stroke-opacity="0.44314" stroke="#000000" stroke-width="2"/><path d="M316.1292,85.31618c0.52003,0.063 1.02988,0.11928 1.55325,0.17986c0.18169,0.02103 0.53228,0.21578 0.54251,0.07495c0.06271,-0.86319 0.05773,-2.36658 1.71212,-2.00888c0.63776,0.13789 1.08317,0.76265 1.70789,0.9972c1.45356,0.54572 5.71865,1.96242 6.00088,3.18643c0.16531,0.71694 -0.85505,1.07614 -1.47676,1.41222c-1.60277,0.8664 -3.83459,2.02319 -5.82557,2.18591c-2.00069,0.16351 -1.09792,-1.96214 -1.7042,-2.09944c-1.64311,-0.37213 -3.60609,0.96486 -5.62681,0.07848c-0.40844,-0.17916 -0.93176,-1.9098 -0.97732,-2.84263c-0.0118,-0.04943 -0.01796,-0.10037 -0.01796,-0.15242c0,-0.06789 0.01049,-0.13389 0.03029,-0.19712c0.11555,-0.36896 0.54822,-0.64314 1.06432,-0.64314c0.01314,0 0.02622,0.00018 0.03925,0.00053c0.87217,0.00642 1.5608,-0.34366 2.97811,-0.17195z" fill="#6a80ff" stroke="#6a80ff" stroke-width="1"/><path d="M322.23048,82.51293c-1.28118,0 -1.28118,-1.00623 -1.28118,-1.00623l0.02067,0.07523c-0.35447,-1.55972 -0.94583,-4.30076 0.35457,-5.69266c0.43028,-0.46056 1.10934,-0.77708 1.7883,-0.98191c2.48342,-0.74921 7.16605,-0.47643 9.69957,0.07008c0.63999,0.13805 1.38157,0.18316 1.87069,0.53549c1.32365,0.95345 0.82793,1.71162 0.96182,2.85622c0.27134,2.31967 0.77569,4.67976 1.19751,6.99766c0.45643,3.61812 0.17951,7.2244 1.05212,10.82204c0.31204,1.2865 1.23661,2.0306 -0.64104,3.31682c-0.3381,0.2316 -3.02956,0.18993 -3.68394,0.18993c-3.46843,0 -6.93685,0 -10.40528,0c0,0 -0.06269,0 -0.16033,-0.01089c-0.29812,0.02941 -0.53666,-0.06793 -0.72586,-0.24165c-0.18235,-0.12234 -0.33342,-0.30394 -0.38008,-0.57352c-0.1998,-0.47122 -0.27267,-1.04787 -0.27501,-1.45234c-0.0085,-1.47074 -0.04543,-2.94195 0,-4.41228c0.00035,-0.0114 0.00058,-0.02309 0.00076,-0.03502c0.02349,-0.53951 0.58777,-0.97122 1.28042,-0.97122c0.59256,0 1.09117,0.31595 1.23761,0.74506c0.8917,0.86215 0.00896,1.81922 0.04358,4.59017c0.00131,0.1047 0.01913,0.22324 0.04285,0.34921c2.35784,0 4.71568,0 7.07352,0c1.24508,0 2.4977,-0.10754 3.73523,0c0.2511,0.02182 0.48973,0.27447 0.71829,0.18993c0.5092,-0.18832 -0.25803,-0.86064 -0.37424,-1.29316c-0.2882,-1.07263 -0.35878,-2.22286 -0.54681,-3.31063c-0.44005,-2.54568 -0.20723,-5.10884 -0.53548,-7.65999c-0.42395,-2.33195 -0.93637,-4.70712 -1.20371,-7.04184c-0.05879,-0.51341 0.43869,-1.25591 -0.10539,-1.54422c-0.22274,-0.11803 -0.53317,-0.05451 -0.79732,-0.09315c-2.16249,-0.31633 -4.33322,-0.37679 -6.54196,-0.28662c-0.11657,0.00476 -1.91011,0.0035 -2.24712,0.42251c-0.74717,0.92898 -0.14969,3.15169 0.08777,4.15595l0.02067,0.28477c0,0 0,1.00623 -1.28118,1.00623z" fill="#6a80ff" stroke="#6a80ff" stroke-width="2.5"/></g></g></svg>