<svg version="1.1" xmlns="http://www.w3.org/2000/svg" xmlns:xlink="http://www.w3.org/1999/xlink" width="49.76083" height="142.41895" viewBox="0,0,49.76083,142.41895"><g transform="translate(-290.88974,-125.72028)"><g data-paper-data="{&quot;isPaintingLayer&quot;:true}" fill-rule="nonzero" stroke-linejoin="miter" stroke-miterlimit="10" stroke-dasharray="" stroke-dashoffset="0" style="mix-blend-mode: normal"><path d="M297.49933,132.0363c1.66209,-1.47806 4.37489,-3.6548 7.54053,-4.60196c4.41307,-1.3204 9.5396,-1.11612 12.44997,-0.96406c8.88504,0.4642 16.9955,8.05084 20.19577,17.41802c1.31387,3.84569 2.3867,11.43595 2.19206,15.31906c-0.40587,8.09719 -5.73458,12.67812 -11.60668,17.32434c-1.48673,1.17636 1.89458,3.6964 0.39974,5.31674c-2.32905,2.52459 -10.3494,2.18085 -13.34994,2.02408c-2.12464,-0.11101 -6.36677,-0.74092 -8.39736,-2.23721c-1.99426,-1.46953 -1.78105,-3.79496 -3.42643,-5.08128c-6.56178,-5.12983 -11.35261,-13.88196 -10.90858,-22.74039c0.40205,-8.02086 -1.08768,-16.44291 4.91093,-21.77734z" data-paper-data="{&quot;index&quot;:null}" fill="#161617" stroke="#000000" stroke-width="1.5" stroke-linecap="butt"/><path d="M294.88645,257.15843c1.12367,-1.68059 2.58374,-3.48038 3.27772,-4.72764c1.71439,0.16881 3.42894,0.31793 5.15332,0.39411c1.62015,0.07158 3.23909,0.13662 4.85877,0.18924c0.0254,4.27521 -0.06972,7.35192 -0.38124,7.62244c-0.09627,0.0836 -0.38741,2.02693 -3.48071,2.2235c-1.77748,0.11295 -7.04352,0.33552 -9.18325,0.05851c-2.79129,-0.36135 -2.30006,-1.26557 -2.54099,-1.24522c-0.26766,0.0226 0.6989,-2.12572 2.29638,-4.51495z" data-paper-data="{&quot;index&quot;:null}" fill="#ffffff" stroke="#000000" stroke-width="2" stroke-linecap="butt"/><path d="M319.79865,260.19698c1.23874,-1.7764 2.38551,-2.43126 2.47305,-4.24201c0.14584,0.00337 0.2917,0.00662 0.43757,0.00973c2.64026,0.05635 5.28033,0.1173 7.92041,0.18169c0.85017,0.02074 1.70025,0.03236 2.55032,0.03881c0.0555,4.84349 -0.03913,8.43718 -0.42275,8.73054c-0.10932,0.0836 -0.43991,2.02693 -3.95248,2.2235c-2.0184,0.11295 -7.99822,0.33551 -10.42797,0.0585c-3.16963,-0.36135 -0.67082,-3.99976 1.42185,-7.00075z" data-paper-data="{&quot;index&quot;:null}" fill="#ffffff" stroke="#000000" stroke-width="2" stroke-linecap="butt"/><path d="M295.4246,253.87958c0.01799,-0.06559 -0.59496,-0.60676 -0.18338,-2.65833c0.21818,-1.08758 1.34564,-3.10735 1.64306,-4.59064c2.21762,-11.05929 6.33583,-31.5542 7.85073,-38.16755c2.6707,-11.65907 15.79872,-8.32916 15.79872,-8.32916c0,0 -7.92677,35.82699 -9.5588,50.48593c-0.37889,3.40309 -1.10879,5.73331 -1.17343,5.96913c-0.33457,1.22045 -4.66571,1.09683 -9.67386,-0.27612c-5.00815,-1.37295 -5.03761,-1.21279 -4.70303,-2.43324z" data-paper-data="{&quot;index&quot;:null}" fill="#282833" stroke="#000000" stroke-width="1.5" stroke-linecap="butt"/><path d="M318.78363,259.30246c0,-0.06801 -0.86048,-0.42789 -1.03098,-2.51527c-0.09039,-1.10656 0.5581,-3.35253 0.43467,-4.86168c-0.92027,-11.25207 -2.616,-32.1065 -2.95293,-38.88505c-0.594,-11.9503 15.27605,-12.20976 15.27605,-12.20976c0,0 2.14177,36.64788 4.83927,51.2167c0.62622,3.38217 0.52324,5.82243 0.52324,6.06696c0,1.26548 -4.93367,2.29135 -11.01967,2.29135c-6.08601,0 -6.06967,0.16225 -6.06967,-1.10323z" data-paper-data="{&quot;index&quot;:null}" fill="#282833" stroke="#000000" stroke-width="1.5" stroke-linecap="butt"/><g data-paper-data="{&quot;index&quot;:null}" stroke="#000000" stroke-width="2" stroke-linecap="butt"><path d="M298.57916,223.86414c-5.86289,-1.09602 -3.45541,-11.5375 -1.01034,-24.49948c1.03577,0.16588 2.0837,0.29673 3.13171,0.4554c2.42672,0.36742 4.77751,0.88952 7.16661,1.48759c0.17265,0.04322 0.34563,0.08312 0.51894,0.12015c-2.42413,13.05499 -3.36156,23.53125 -9.80692,22.43634z" data-paper-data="{&quot;index&quot;:null}" fill="#ffffff"/><path d="M308.19304,202.19475c-0.00381,0.01476 -0.0076,0.02949 -0.0114,0.04424c-0.17934,-0.04741 -0.35819,-0.09762 -0.53649,-0.15106c-2.50473,-0.75071 1.74054,17.43432 -0.81718,16.91249c-1.09068,-0.22252 -11.18492,-0.41424 -12.26388,-0.6413c0.00973,-0.03766 1.81063,-18.11081 4.60424,-27.07621c3.37714,-10.83811 8.07322,-12.98012 11.09668,-13.8064c1.59532,0.41621 0.88294,2.8055 0.58823,7.53538c-0.28066,4.50434 -1.01568,10.8047 -2.66018,17.18286z" data-paper-data="{&quot;index&quot;:null}" fill="#161617"/></g><path d="M328.97911,182.94419c1.94072,8.18687 2.9684,30.85066 3.28239,38.96113c-2.1957,0.10651 -4.40993,0.09263 -6.60143,0.18048c-3.55717,0.14262 -7.11433,0.28521 -10.67149,0.42783c-3.55129,0.14237 -7.10753,0.56914 -10.64331,0.87605c-0.91362,0.07931 -1.82727,0.1586 -2.7409,0.23791c0.44406,-8.54092 1.95997,-34.46533 4.38022,-42.84358c2.17659,-7.53483 11.40837,-9.52481 11.40837,-9.52481c0,0 8.4309,-1.62535 11.58614,11.68498z" data-paper-data="{&quot;index&quot;:null}" fill="#161617" stroke="#000000" stroke-width="2" stroke-linecap="butt"/><path d="M320.2033,206.29707l3.39561,10.31257" data-paper-data="{&quot;index&quot;:null}" fill="none" stroke="#000000" stroke-width="2" stroke-linecap="round"/><path d="M305.99207,215.80475l1.76068,-7.29426" data-paper-data="{&quot;index&quot;:null}" fill="none" stroke="#000000" stroke-width="2" stroke-linecap="round"/><path d="M315.4257,171.44668c4.52462,0 8.19256,2.38899 8.19256,5.33595c0,2.94696 -3.66793,5.33595 -8.19256,5.33595c-4.52463,0 -7.3302,-1.63441 -7.3302,-4.58137c0,-2.94696 2.80557,-6.09053 7.3302,-6.09053z" data-paper-data="{&quot;index&quot;:null}" fill="#161617" stroke="none" stroke-width="0" stroke-linecap="butt"/><path d="M309.11566,176.17933c0,-1.99441 2.75095,-3.61119 6.14443,-3.61119c3.39348,0 6.14443,1.61677 6.14443,3.61119c0,1.9944 -3.39772,3.61119 -6.7912,3.61119c-3.39347,0 -5.49764,-1.61677 -5.49764,-3.61119z" data-paper-data="{&quot;index&quot;:null}" fill="#ffffff" stroke="#000000" stroke-width="1.5" stroke-linecap="butt"/><path d="M291.912,154.73307c-0.54273,-12.92851 8.90537,-23.82422 21.10293,-24.33628c12.19754,-0.51206 22.52559,9.55345 23.06833,22.48197c0.54275,12.92851 -8.90533,23.82424 -21.10289,24.3363c-12.19755,0.51205 -22.52561,-9.55346 -23.06835,-22.48198z" data-paper-data="{&quot;index&quot;:null}" fill="#ffe4cb" stroke="#000000" stroke-width="2" stroke-linecap="butt"/><path d="M313.76395,160.8558c-1.03735,0.12339 -2.07765,-1.45259 -2.32358,-3.52005c-0.24593,-2.06748 0.39565,-3.84351 1.43298,-3.9669c1.03735,-0.12339 2.07767,1.45258 2.3236,3.52004c0.24593,2.06747 -0.39566,3.84352 -1.433,3.96691z" data-paper-data="{&quot;index&quot;:null}" fill="#000000" stroke="none" stroke-width="0.5" stroke-linecap="butt"/><path d="M300.6957,161.61727c-0.90647,0.17632 -1.95706,-1.3039 -2.34656,-3.30614c-0.38949,-2.00224 0.02959,-3.76835 0.93607,-3.94469c0.90647,-0.17632 1.95706,1.3039 2.34656,3.30614c0.38949,2.00224 -0.02959,3.76835 -0.93607,3.9447z" data-paper-data="{&quot;index&quot;:null}" fill="#000000" stroke="none" stroke-width="0.5" stroke-linecap="butt"/><path d="M322.84434,179.45524c0,-3.73938 1.4584,-3.89468 2.32662,-3.89468c0.86822,0 1.57204,3.03137 1.57204,6.77074c0,3.73937 -1.4584,7.3699 -2.32662,7.3699c-0.86823,0 -1.57205,-6.50659 -1.57205,-10.24596z" data-paper-data="{&quot;index&quot;:null}" fill="#161617" stroke="none" stroke-width="0" stroke-linecap="butt"/><path d="M302.62325,187.28481c0.05487,-0.22527 0.19373,-1.15154 0.70562,-2.23009c0.64826,-1.36588 1.74296,-2.976 2.34642,-3.7159c1.34669,-1.65115 1.98817,-0.50389 2.26904,-0.43547c0.50614,0.12329 -1.95113,4.0458 -2.23058,5.19302c-0.27945,1.14723 -2.9285,4.61831 -3.43463,4.49502c-0.50613,-0.12328 0.06469,-2.15934 0.34414,-3.30656z" data-paper-data="{&quot;index&quot;:null}" fill="#161617" stroke="none" stroke-width="0" stroke-linecap="butt"/><path d="M312.16265,153.15581l5.45362,-0.29063" data-paper-data="{&quot;index&quot;:null}" fill="none" stroke="#000000" stroke-width="1.5" stroke-linecap="round"/><path d="M301.16361,153.46467l-4.63545,0.28795" data-paper-data="{&quot;index&quot;:null}" fill="none" stroke="#000000" stroke-width="1.5" stroke-linecap="round"/><path d="M326.46678,162.69475c0,0 -5.43854,1.10297 -10.81831,1.67108c-2.28091,0.24087 -5.19043,0.01947 -6.63231,0.17174c-1.33646,0.14113 -2.63298,0.68637 -4.13048,0.84452c-2.37192,0.25048 -4.74325,0.09257 -4.74325,0.09257" data-paper-data="{&quot;index&quot;:null}" fill="none" stroke="#000000" stroke-width="1.5" stroke-linecap="round"/><path d="M312.02917,130.96422c2.18066,-0.00716 8.69731,0.34552 13.16613,2.5198c1.55448,0.75632 8.00306,5.27463 10.09629,10.82164c1.71078,4.53353 -0.74007,10.34859 -0.73984,10.41806c0.00023,0.07089 0.09198,2.27353 -0.5738,1.15658c-1.3985,-2.3462 -4.59053,-9.48671 -8.1232,-12.64857c-4.24879,-3.80282 -10.205,-5.39048 -11.80298,-5.38523c-3.55915,0.01168 -16.33285,0.17473 -16.33416,-0.22414c-0.00131,-0.39887 10.7524,-6.64646 14.31155,-6.65814z" data-paper-data="{&quot;index&quot;:null}" fill="#161617" stroke="none" stroke-width="0" stroke-linecap="butt"/><path d="M331.74879,163.35995c2.94311,-8.613 2.39299,-19.46828 3.37851,-19.47152c1.81025,-0.00594 2.52218,6.75087 2.53921,11.93618c0.01702,5.18531 -6.07522,17.96449 -7.88548,17.97043c-1.81025,0.00594 -8.6922,9.15838 -8.70922,3.97307c-0.00775,-2.36238 8.21404,-7.20037 10.67699,-14.40816z" data-paper-data="{&quot;index&quot;:null}" fill="#161617" stroke="none" stroke-width="0" stroke-linecap="butt"/><path d="M323.49692,131.26194c1.70747,0.67045 3.54645,1.28045 5.09814,2.26209c1.66316,1.05217 3.19452,3.547 4.40826,5.79554l1.38058,1.38297c0.17996,0.18016 0.29159,0.42867 0.29249,0.70343c0.00041,0.12366 -0.02165,0.24214 -0.06233,0.3516c0.15094,0.2666 0.27976,0.71912 -0.1717,1.17355c-0.70478,0.70943 -1.4142,0.00465 -1.4142,0.00465c-1.86091,-1.85779 -4.154,-3.07624 -6.08062,-4.82532l-0.76504,-0.6514c-0.21722,-0.18272 -0.35564,-0.45623 -0.35665,-0.76232c-0.00182,-0.55228 0.44443,-1.00146 0.99671,-1.00328c0.23629,-0.00078 0.4537,0.08046 0.62528,0.21693l1.5528,1.21183l-0.05978,0.07659c0.03101,0.02588 0.0621,0.05167 0.09325,0.07737c0.06412,0.03052 0.12803,0.06128 0.19176,0.09231c-0.29312,-0.54409 -0.61589,-1.08587 -1.03612,-1.5672c-0.57832,-0.66241 -1.40652,-1.13692 -2.30021,-1.5235c-0.12362,0.05531 -0.26054,0.08626 -0.4047,0.08673l-1.33333,0.00437l-0.00022,-0.06829l-0.1671,0.05475c-0.47552,-0.16331 -0.90783,-0.41706 -1.30867,-0.72568c-0.01596,0.00207 -0.03195,0.00411 -0.04795,0.0061l-0.12766,0.17444l-0.19088,-0.13968c-2.02486,0.19002 -4.33951,-0.17046 -5.8666,-1.01l-1.00784,-0.29875c-0.16332,-0.04434 -0.31008,-0.12905 -0.42886,-0.24279c-0.50151,0.22976 -1.01026,0.44814 -1.58627,0.50602c-0.02407,0.00242 -0.0483,0.00452 -0.0727,0.00633c-0.26572,0.30447 -0.60382,0.57554 -0.8963,0.79771c-0.35032,0.2661 -0.89789,-0.08462 -1.31908,0.04238c-0.93457,0.2818 -2.62579,1.72234 -3.45641,2.19781c-0.61286,0.20323 -1.85541,0.50166 -3.0784,0.53412c-0.04777,0.47967 -0.43469,0.85999 -0.91814,0.89677l-1.26337,0.10946c-2.02317,0.50592 -3.72924,0.85418 -5.84098,1.02471c0,0 -0.99679,0.07997 -1.07676,-0.91683c-0.06477,-0.80741 0.57691,-1.01328 0.82309,-1.06236l-0.23654,-0.01893c-0.51803,-0.03599 -0.92792,-0.46677 -0.92965,-0.99429c-0.00151,-0.4614 0.3097,-0.85084 0.7342,-0.96757l1.89428,-0.56804l0.09687,0.32304c1.30113,-0.4714 2.6221,-0.7591 3.95471,-0.98783c0.15828,-0.27258 0.32978,-0.54018 0.46411,-0.80068c0.2458,-0.47665 0.59242,-0.91311 1.0034,-1.25767c3.44878,-2.89143 8.30821,-2.80171 12.34497,-2.12556c0.93389,0.15643 2.82807,0.15433 4.16968,0.52621c0.93021,-0.01036 1.86015,-0.00583 2.7631,-0.00976l0.44444,-0.00146c0,0 0.99999,-0.00328 1.00328,0.99671c0.00171,0.52221 -0.27017,0.77261 -0.53037,0.89267zM313.37201,130.73249c0.15571,-0.01853 0.30743,-0.05026 0.45638,-0.09159c-0.21217,-0.02476 -0.42438,-0.04742 -0.63671,-0.06762c0.06426,0.04928 0.12451,0.10228 0.18033,0.1592z" data-paper-data="{&quot;index&quot;:null}" fill="#161617" stroke="none" stroke-width="0.5" stroke-linecap="butt"/><path d="M297.60852,138.23383c0,0 5.04822,-0.78726 11.88218,-0.71616c7.94112,0.08262 16.61678,3.43523 18.4165,6.49086c1.80806,3.06979 7.65078,8.86089 4.51658,20.2343c-2.34134,8.49629 -10.47386,10.24459 -10.47386,10.24459" data-paper-data="{&quot;index&quot;:null}" fill="none" stroke="#000000" stroke-width="1.5" stroke-linecap="round"/><path d="M314.26609,142.49873c-0.37865,-0.44281 -3.8822,3.36709 -8.43648,4.63962c-5.27447,1.47377 -11.68984,0.45344 -12.0075,-0.00366c-0.13317,-0.19161 3.82968,-8.81627 7.28325,-10.43959c5.07565,-2.38576 10.31263,1.96941 10.17036,1.73339c2.43462,0.45809 6.00615,0.67325 7.58181,0.68001c2.12818,0.00913 7.0007,3.46604 8.46945,4.71004c0.86408,0.73186 1.64261,2.30569 2.45762,3.72563c-0.71655,0.97045 -1.6361,1.58055 -1.6361,1.58055c0,0 -2.04426,-1.94334 -5.13204,-4.11957c-0.5002,-0.35254 -1.02779,-0.71119 -1.57851,-1.06868c-0.20032,-0.13003 -1.64013,3.54355 -1.84451,3.41323c-1.91244,-1.21954 -3.78322,-3.04517 -5.32735,-4.85098z" data-paper-data="{&quot;index&quot;:null}" fill="#3c352f" stroke="#000000" stroke-width="1.5" stroke-linecap="butt"/><path d="M314.20392,187.78572c4.02379,0 7.28572,2.20659 7.28572,4.92857c0,2.72197 -3.26193,4.92857 -7.28572,4.92857c-4.02379,0 -7.28571,-2.2066 -7.28571,-4.92857c0,-2.72197 3.26192,-4.92857 7.28571,-4.92857z" data-paper-data="{&quot;index&quot;:null}" fill="#343434" stroke="none" stroke-width="0" stroke-linecap="butt"/><path d="M324.06107,222.35715l4.85714,7.28571" data-paper-data="{&quot;index&quot;:null}" fill="none" stroke="#000000" stroke-width="1.5" stroke-linecap="round"/><path d="M303.6325,224.64286l-1.71429,4.85715" data-paper-data="{&quot;index&quot;:null}" fill="none" stroke="#000000" stroke-width="1.5" stroke-linecap="round"/><g data-paper-data="{&quot;index&quot;:null}" fill="#404040" stroke="#000000" stroke-width="1.5" stroke-linecap="butt"><path d="M337.47876,157.12649c0.63614,1.66729 -4.29343,17.14972 -4.42839,17.5727c-0.30066,0.94225 -2.801,1.03653 -5.58465,0.21058c-2.78366,-0.82595 -7.51137,-1.30714 -7.21071,-2.24939c0.2102,-0.65877 2.58719,-11.33075 4.22464,-16.30038c0.02535,-0.07694 0.70956,-2.3399 0.73442,-2.41458c0.3637,-1.09244 11.7249,1.76629 12.26469,3.18107z"/><path d="M336.14673,158.53469c-0.07522,0.61601 -0.6556,1.05676 -1.29634,0.98444c-0.64074,-0.07232 -1.09918,-0.6303 -1.02396,-1.24631c0.07522,-0.61601 0.65561,-1.05677 1.29634,-0.98445c0.64074,0.07232 1.09918,0.63031 1.02396,1.24632z"/></g><path d="M332.26195,168.94298c0.40283,1.36869 -1.23914,3.05761 -3.66746,3.77231c-2.42831,0.7147 -6.87677,2.90315 -7.2796,1.53446c-0.40283,-1.36869 3.39251,-5.77621 5.82082,-6.49091c2.42831,-0.7147 4.72341,-0.18455 5.12624,1.18414z" fill="#ffffff" stroke="#000000" stroke-width="2" stroke-linecap="butt"/><path d="M327.11896,172.14611c3.46238,-0.99778 6.46558,-1.01364 6.70782,-0.03542c0.24225,0.97822 7.62498,29.37222 -5.66042,30.09556c-3.57924,0.19488 -6.63572,-25.50407 -6.87797,-26.48228c-0.24225,-0.97822 2.36819,-2.58008 5.83057,-3.57786z" data-paper-data="{&quot;index&quot;:null}" fill="#161617" stroke="#000000" stroke-width="2" stroke-linecap="butt"/></g></g></svg>