<svg version="1.1" xmlns="http://www.w3.org/2000/svg" xmlns:xlink="http://www.w3.org/1999/xlink" width="10.23196" height="17.01478" viewBox="0,0,10.23196,17.01478"><g transform="translate(-314.88402,-171.49261)"><g data-paper-data="{&quot;isPaintingLayer&quot;:true}" fill="#ff0000" fill-rule="nonzero" stroke="none" stroke-width="0.5" stroke-linecap="butt" stroke-linejoin="miter" stroke-miterlimit="10" stroke-dasharray="" stroke-dashoffset="0" style="mix-blend-mode: normal"><path d="M324.66197,178.7741c-1.09548,1.86803 -2.8859,2.95172 -5.07409,2.80549c-0.28186,-0.01883 -0.58979,-0.07378 -0.89594,-0.16509c-1.43946,0.24509 -3.33418,-0.56804 -3.6488,-1.85564c-0.5541,-2.26764 0.38506,-4.96922 2.10116,-6.31146c0.27191,-0.21267 0.93565,-0.68783 1.61863,-0.98692c0.36941,-0.46832 0.93503,-0.76787 1.56903,-0.76787c0.34147,0 0.6631,0.0869 0.94493,0.24025c2.51219,0.40108 4.85105,4.54146 3.38509,7.04124zM320.75065,177.17416c0.41635,-0.44143 0.1295,-0.83991 -0.29494,-1.15566c-0.09245,0.04928 -0.1891,0.09144 -0.28927,0.12578c-0.09004,0.07141 -0.18507,0.13622 -0.28583,0.19316c-0.00997,0.00564 -0.52099,0.60887 -0.73526,0.97353c0.55588,0.1883 1.09729,0.4018 1.6053,-0.13681z"/><path d="M324.45148,181.65889l0.08943,0.36597l0.15362,0.34293l-0.03785,0.09783l0.00529,0.01625l0.00418,0.05555l0.03723,0.15236v0.19032l0.062,0.25376v0.64712l0.0206,0.03312l0.062,0.19033l0.02485,0.33046l0.07856,0.32154v0.3172l-0.06016,0.24624v0.13199l0.00903,0.01848l-0.00903,0.02588v0.07746l-0.062,0.25376l-0.11674,0.22396l-0.00308,0.01262l0.0001,0.0004l-0.00035,0.0006l-0.00965,0.0395l-0.02056,0.01202l-0.00373,0.00635l-0.00828,0.01588l-0.11599,0.33229l-0.12401,0.19032l-0.06293,0.05854l-0.02353,0.04513l-0.03619,0.01042l-0.02586,0.02405l-0.10327,0.1761l-0.24802,0.25376l-0.27778,0.17052l-0.24596,0.21569l-0.07398,0.03785l-0.38548,0.22536l-0.19322,0.0556l-0.16933,0.11025l-0.55805,0.19033l-0.07879,0.0062l-0.06972,0.03804l-0.24803,0.06344h-0.24808l-0.24068,0.06157h-0.36618l-0.02992,0.0068l-0.10724,0.05852l-0.24802,0.06344h-0.18114l-0.04823,0.01096l-0.01608,-0.01096h-0.00263l-0.24067,0.06156h-1.48067l-0.01883,0.01284l-0.0565,-0.01284h-0.05615l-0.44921,-0.1149l-0.45201,-0.10277l-0.05022,-0.0257l-0.05615,-0.01436l-0.01123,-0.02011l-0.25444,-0.13016l-0.12851,-0.11271l-0.00251,0.00018l-0.04471,-0.04158l-0.07022,-0.06159l-0.27778,-0.17052l-0.12401,-0.12688l-0.06635,-0.11315l-0.07448,-0.06531l-0.00186,-0.0343l-0.1091,-0.10148l-0.12401,-0.19032l-0.0627,-0.17963l-0.1128,-0.15186l-0.16269,-0.3884l-0.28355,-0.58021l-0.03146,-0.14487l-0.07787,-0.1252l-0.12401,-0.38064l-0.02485,-0.33046l-0.07856,-0.32154v-1.52256l0.2519,-1.0309l0.06909,-0.0404l0.00441,-0.08129l0.2532,-0.22204l0.19766,-0.33705l0.03971,-0.04063l0.03107,-0.04996l0.0222,-0.00454l0.28966,-0.29636l0.05838,-0.09955l0.25262,-0.25847l0.21651,-0.29074l0.31003,-0.25376l0.08106,-0.03802l0.05998,-0.06751l0.01999,-0.01363l0.10692,-0.1094l0.06953,-0.04268l0.02159,-0.06627l0.41024,-0.19882l0.07491,-0.04599l0.00157,-0.00571l0.06959,-0.03797l0.24317,-0.14927l0.00021,0.00006l0.18397,-0.17111l0.14048,0.00991l0.08397,-0.05728l0.0667,-0.02437l0.01105,-0.00603l0.03248,-0.05815l0.44038,-0.11264l0.42748,-0.1562l0.05721,0.02927c0.00784,-0.00107 0.01569,-0.00209 0.02356,-0.00306l0.05896,-0.01508h0.18602c0.34348,0 0.66689,0.08792 0.94991,0.24296l0.04219,0.0108h0.062l1.0076,0.25772l0.03948,0.07068l0.07945,0.00452l0.07062,0.08431l0.12047,0.03081l0.04411,0.07896l0.04292,0.02635l0.06919,0.0298l0.21582,0.05521l0.07646,0.13689l0.34091,0.20927l0.21706,0.22208l0.0222,0.00455l0.03107,0.04996l0.03971,0.04062l0.23823,0.40624l0.10173,0.16356l0.05671,0.04421l0.49605,0.6344l0.08873,0.19807zM319.93105,182.94792l-0.2179,0.04954l-0.12355,0.13905l-0.08925,0.06088l-0.15805,0.16171l-0.12763,0.21765l-0.15384,0.15739v0.37213l0.12935,0.26468h0.45965l0.00735,-0.00188h0.08814l0.32345,-0.07354l0.44921,-0.1149h0.05615l0.05651,-0.01284l0.01883,0.01284h0.08553v-0.02573l-0.01255,-0.05781l0.01255,-0.01927v-0.58549l-0.11646,-0.14894l-0.03816,-0.08519l-0.10387,-0.17712l-0.08114,-0.09685l-0.00124,-0.00053l-0.03702,-0.00842h-0.14916l-0.22024,-0.05633z"/></g></g></svg>