<svg version="1.1" xmlns="http://www.w3.org/2000/svg" xmlns:xlink="http://www.w3.org/1999/xlink" width="25.48617" height="123.87139" viewBox="0,0,25.48617,123.87139"><g transform="translate(-307.80628,-117.88484)"><g data-paper-data="{&quot;isPaintingLayer&quot;:true}" fill-rule="nonzero" stroke-linecap="butt" stroke-linejoin="miter" stroke-miterlimit="10" stroke-dasharray="" stroke-dashoffset="0" style="mix-blend-mode: normal"><path d="M309.81124,232.44121c0,0 0.8463,-47.86199 -0.54876,-68.08389c-0.92401,-13.39373 -0.64397,-27.04902 -0.28619,-35.64714c0.22784,-5.47559 1.58675,-8.86211 2.65631,-8.82504c2.51017,0.08696 12.82021,0.44415 16.32823,0.56568c0.73797,0.02556 0.48451,1.81667 0.56985,9.66004c0.03316,3.04753 0.18345,7.01104 0.53684,12.14228c0.83798,12.16719 1.92639,36.21967 2.2251,57.78613c0.241,17.40012 -0.22993,34.16354 -0.22993,34.16354c0,0 0.52913,5.03199 -1.51279,5.55342c-4.98064,1.27188 -15.80608,-1.22958 -18.221,-1.42976c-1.29068,-0.10699 -1.51766,-5.88521 -1.51766,-5.88521z" data-paper-data="{&quot;index&quot;:null}" fill="#fff6b5" stroke="#ddd173" stroke-width="4"/><path d="M319.20935,212.92336c0,0 0.32809,-31.03053 -0.21274,-46.19109c-0.35821,-10.0414 -0.24965,-25.13092 -0.11095,-31.57702c0.08833,-4.1051 0.6462,-8.00258 1.06084,-7.97478c0.71512,0.04792 3.04641,2.10336 4.77207,2.60861c0.62262,0.1823 1.1664,-0.85011 1.52698,-0.82595c0.28609,0.01917 0.18783,1.36198 0.22092,7.2422c0.01286,2.28476 0.07112,5.25624 0.20812,9.10318c0.32487,9.12186 0.85547,32.97667 0.97126,49.14522c0.09343,13.04503 -0.19779,19.79028 -0.19779,19.79028c0,0 0.20513,3.77253 -0.58647,4.16345c-1.21294,0.599 -3.10273,2.0225 -4.73402,1.51776c-0.96557,-0.29874 -1.98174,-2.53388 -2.32985,-2.58969c-0.50037,-0.08022 -0.58837,-4.4122 -0.58837,-4.4122z" fill="#fffef9" stroke="none" stroke-width="0"/></g></g></svg>