<svg version="1.1" xmlns="http://www.w3.org/2000/svg" xmlns:xlink="http://www.w3.org/1999/xlink" width="65.83391" height="138.33743" viewBox="0,0,65.83391,138.33743"><defs><radialGradient cx="339.74676" cy="149.58982" r="26.05961" gradientUnits="userSpaceOnUse" id="color-1"><stop offset="0" stop-color="#afb0e0" stop-opacity="0"/><stop offset="1" stop-color="#afb0e0" stop-opacity="0.31373"/></radialGradient></defs><g transform="translate(-308.38725,-128.43967)"><g data-paper-data="{&quot;isPaintingLayer&quot;:true}" fill-rule="nonzero" stroke-linejoin="miter" stroke-miterlimit="10" stroke-dasharray="" stroke-dashoffset="0" style="mix-blend-mode: normal"><path d="M342.29973,264.40972c0.10382,1.21356 -16.79947,1.9638 -16.90328,0.75023c-0.01563,-0.18275 -0.28734,-2.60741 -0.65429,-6.24155c1.74203,-0.4294 4.1853,-0.43302 5.42806,-0.85787c2.72906,-0.93664 5.96617,-1.17484 8.87115,-1.64288c0.45574,0.50228 1.16047,1.33836 1.66939,2.21701c1.10956,1.91563 1.52904,5.07456 1.58896,5.77504z" fill="#ffffff" stroke="#000000" stroke-width="2" stroke-linecap="butt"/><path d="M339.24907,180.15065c0.37698,3.46901 -4.38859,6.83226 -10.64419,7.51204c-6.25559,0.67978 -11.63234,-1.58134 -12.0093,-5.05035c-0.37698,-3.46901 0.98832,-5.52508 7.2439,-6.20485c6.25559,-0.67978 15.03262,0.27416 15.40958,3.74317z" fill="#334865" stroke="#000000" stroke-width="2" stroke-linecap="butt"/><path d="M331.18307,226.27993c3.09918,-10.59579 8.20194,-4.93174 13.49409,-4.08608c0.46249,0.0739 -2.99551,26.87696 -4.21564,35.31319c-0.22919,1.58467 -0.78723,2.30104 -0.78226,2.30982c-2.86653,-0.30248 -6.60486,-1.62103 -9.40741,-1.42021c-1.4499,0.10578 -4.037,-0.5847 -5.81728,-0.63466c0.1488,-0.92775 -0.11673,-1.19554 0.05725,-2.25211c1.449,-8.80029 4.59075,-22.11687 6.67127,-29.22997z" fill="#a68f79" stroke="#000000" stroke-width="2" stroke-linecap="butt"/><path d="M332.24804,236.67347c-6.20038,-1.53472 -9.321,-6.6959 -8.79429,-9.87986c0.38372,-2.31958 3.76853,-2.44442 4.07793,-4.97684c0.06949,-0.56877 30.848,2.82827 36.27137,3.43134c-0.13844,1.39986 0.16272,1.90644 0.02427,3.30629c-0.25722,2.60084 0.73762,5.55579 1.36885,8.18025c0.59144,1.64822 1.43981,4.50124 1.80011,6.17677c-0.88505,-0.11619 -2.28655,0.0571 -3.41243,-0.10328c-9.51335,-1.35516 -26.25889,-4.46865 -34.38943,-6.48112z" fill="#a68f79" stroke="#000000" stroke-width="2" stroke-linecap="butt"/><path d="M372.92961,222.74226c1.21036,0.14277 -1.66236,20.26249 -2.87273,20.11971c-0.11635,-0.01373 -1.23164,-0.15267 -3.0427,-0.38849c-0.44302,-1.84549 -1.21352,-3.92745 -1.67211,-5.19943c-0.6122,-2.56238 -1.74035,-5.25439 -1.49052,-7.78054c0.13448,-1.35991 0.2788,-2.81922 0.41478,-4.19384c0.22747,0.02534 0.34808,0.03887 0.34808,0.03887c0,0 1.57505,-1.17561 3.13822,-1.77624c2.13407,-0.82003 4.47834,-0.90247 5.17697,-0.82006z" fill="#ffffff" stroke="#000000" stroke-width="2" stroke-linecap="butt"/><path d="M331.31766,228.51632l-0.46576,-4.28614l14.01684,-1.52317l0.46576,4.28614z" fill="#a68f79" stroke="none" stroke-width="0" stroke-linecap="butt"/><path d="M323.86417,226.04222c0,0 -1.95227,-17.48516 -2.05209,-28.38939c-0.11279,-12.31993 1.58035,-23.17801 8.93172,-24.28663c9.24227,-1.39378 11.56133,13.17596 14.19562,26.42264c2.01157,10.11536 4.06346,25.19113 4.06346,25.19113" fill="#334865" stroke="#000000" stroke-width="2" stroke-linecap="round"/><path d="M335.03377,212.53931l-2.10829,9.89896" fill="none" stroke="#000000" stroke-width="2" stroke-linecap="round"/><path d="M336.68212,183.31242l0.70922,7.75922" fill="none" stroke="#000000" stroke-width="1.5" stroke-linecap="round"/><path d="M341.58098,188.08842l-0.7898,-7.88441" fill="none" stroke="#000000" stroke-width="1.5" stroke-linecap="round"/><path d="M321.52114,225.82004l26.55405,-1.53913" fill="none" stroke="#000000" stroke-width="2" stroke-linecap="round"/><path d="M327.06668,178.19388c2.33676,0.47544 -0.5042,16.45204 -2.89347,28.51024c-2.1339,-0.21801 -4.265,-0.4559 -6.3857,-0.78335c-1.56149,-0.24111 -3.1236,-0.3908 -4.69329,-0.52629c0.34609,-1.36777 -0.28818,-1.73643 0.1164,-3.19179c3.11007,-11.18795 8.86829,-25.02363 13.85609,-24.00882z" fill="#334865" stroke="#000000" stroke-width="2" stroke-linecap="butt"/><path d="M321.60436,219.48217c-0.62782,4.24886 -3.06308,6.46909 -6.64156,5.94034c-3.57848,-0.52875 -4.98027,-4.53546 -4.35245,-8.78432c0.19289,-1.30547 1.04251,-5.60602 2.36614,-10.88934c1.58462,0.13627 3.16138,0.28565 4.73746,0.529c2.1141,0.32644 4.23848,0.56419 6.36569,0.78186c-1.19992,6.03537 -2.26645,11.00904 -2.4753,12.42246z" fill="#ffffff" stroke="#000000" stroke-width="2" stroke-linecap="butt"/><path d="M332.00725,185.60458c0.24605,1.10208 -1.46258,1.61149 -1.85973,3.19169c-0.97894,3.89526 -1.86703,9.29472 -3.33749,9.62302c-2.06701,0.46148 -1.43553,-7.32487 -2.28807,-11.14359c-0.85255,-3.81871 0.55448,-7.78239 2.62148,-8.24387c0.24936,-0.05568 0.72179,-0.27157 1.15243,-0.40294c0.51147,2.17324 1.71929,4.04495 3.35387,5.39841c0.12295,0.52347 0.2407,1.05399 0.35753,1.57725z" fill="#334865" stroke="none" stroke-width="0" stroke-linecap="butt"/><path d="M341.18865,179.45778c0,0 -0.57587,4.96873 -4.35068,5.97171c-3.39617,0.90237 -6.53188,-0.28724 -7.99339,-1.55586c-1.80886,-1.57011 -1.51866,-3.4167 -1.51866,-3.4167" fill="none" stroke="#000000" stroke-width="1.5" stroke-linecap="round"/><path d="M340.12782,177.8068c0.07653,0.78343 -0.18125,1.85811 -0.79436,2.92323c-0.70006,1.21622 -1.92134,2.39535 -4.64427,2.68595c-2.45691,0.26221 -2.82709,-0.61422 -3.66687,-1.70502c-0.65245,-0.8475 -2.02191,-1.81319 -2.09358,-2.54688c-0.16391,-1.67798 2.21022,-3.34211 5.30275,-3.71691c3.09254,-0.3748 5.73242,0.68165 5.89632,2.35963z" fill="#ffffff" stroke="#000000" stroke-width="2" stroke-linecap="butt"/><path d="M355.25671,154.05366c0.164,1.87225 0.87029,4.42465 0.77769,6.13682c-0.67792,12.53518 -9.14507,17.59022 -19.45764,18.51195c-11.9527,1.06833 -22.74001,-6.66596 -23.93514,-20.31025c-1.19515,-13.64432 7.69942,-25.24949 19.65212,-26.31781c11.9527,-1.06833 21.76782,8.33498 22.96297,21.97929z" fill="#ffffff" stroke="#000000" stroke-width="2" stroke-linecap="butt"/><path d="M336.21759,159.04355c0.0886,2.79813 -0.70368,5.09383 -1.76957,5.12757c-1.06589,0.03375 -2.00178,-2.20723 -2.09037,-5.00537c-0.0886,-2.79813 0.70367,-5.09383 1.76955,-5.12758c1.06589,-0.03375 2.0018,2.20723 2.09039,5.00537z" fill="#000000" stroke="none" stroke-width="0" stroke-linecap="butt"/><path d="M350.34554,158.61601c0.07305,2.30703 -0.58018,4.19981 -1.459,4.22763c-0.87882,0.02783 -1.65047,-1.81984 -1.72351,-4.12687c-0.07305,-2.30703 0.58018,-4.19982 1.459,-4.22764c0.87882,-0.02783 1.65047,1.81984 1.72351,4.12688z" fill="#000000" stroke="none" stroke-width="0" stroke-linecap="butt"/><path d="M322.76548,166.95814l27.51667,0.89511" fill="none" stroke="#000000" stroke-width="2" stroke-linecap="round"/><path d="M321.49444,168.65429l0.87034,-3.89138" fill="none" stroke="#000000" stroke-width="2" stroke-linecap="round"/><g stroke-linecap="butt"><path d="M359.40372,156.00748c0.02686,9.15899 -4.56685,16.93777 -11.52516,21.36915c-0.72307,0.46048 0.21115,-0.1834 1.44595,0.37324c1.9599,0.88352 2.00089,1.93335 -1.5394,2.644c-3.81762,0.76632 -9.81591,1.25608 -15.69493,1.15221c-3.89044,-0.06873 -8.52848,-0.66143 -9.57702,-0.65836c-2.44576,0.00718 -4.9301,-1.62046 -3.09785,-2.80727c1.3558,-0.8782 1.20124,-0.74736 0.62124,-1.15366c-6.46269,-4.52734 -10.62333,-12.15382 -10.64929,-21.00535c-0.04201,-14.32835 10.76618,-26.44091 24.70318,-26.48177c13.93701,-0.04086 25.27129,12.23947 25.3133,26.56784z" fill="url(#color-1)" stroke="#111111" stroke-width="2"/><path d="M351.04576,142.00319c0.58285,2.5779 -1.42624,3.95577 -3.87948,2.91288c-0.45067,-0.19159 -1.75047,-2.44614 -2.2765,-2.80193c-1.52838,-1.03374 -4.02093,-0.89606 -4.94109,-2.49541c-0.73812,-0.43272 -1.2348,-1.23337 -1.23749,-2.15093c-0.00405,-1.38071 1.11195,-2.50327 2.49266,-2.50732c0.52333,-0.00153 1.00957,0.15785 1.41188,0.43157c3.47184,0.12152 7.68752,3.32716 8.42999,6.61113z" fill="#ffffff" stroke="none" stroke-width="0.5"/></g></g></g></svg>