<svg version="1.1" xmlns="http://www.w3.org/2000/svg" xmlns:xlink="http://www.w3.org/1999/xlink" width="231.14461" height="245.49606" viewBox="0,0,231.14461,245.49606"><g transform="translate(-204.08353,-57.44392)"><g data-paper-data="{&quot;isPaintingLayer&quot;:true}" fill-rule="nonzero" stroke-linejoin="miter" stroke-miterlimit="10" stroke-dasharray="" stroke-dashoffset="0" style="mix-blend-mode: normal"><path d="M217.84006,288.38423c0,0 8.48565,-82.1523 -5.50222,-116.86202c-9.26467,-22.98956 -6.45686,-46.42805 -2.86963,-61.18625c2.28447,-9.39851 15.91001,-15.21129 26.63417,-15.14769c25.16884,0.14927 128.54475,0.76234 163.71873,0.97094c7.39942,0.04389 4.85799,3.11822 5.71378,16.58087c0.33252,5.23089 1.83934,12.03405 5.38282,20.84151c8.40228,20.88426 19.31541,62.16899 22.31043,99.18653c2.41641,29.8663 -2.30549,58.63973 -2.30549,58.63973c0,0 5.30549,8.63711 -15.16837,9.53213c-49.93957,2.18312 -158.4832,-2.11052 -182.69699,-2.45411c-12.94136,-0.18364 -15.21721,-10.10162 -15.21721,-10.10162z" fill="#fff6b5" stroke="#ddd173" stroke-width="4" stroke-linecap="butt"/><path d="M238.92999,249.80683c0,0 6.85509,-59.95646 -4.44494,-85.28834c-7.48441,-16.77827 -5.21614,-33.88417 -2.31822,-44.65501c1.84549,-6.85923 12.85281,-11.10151 21.51626,-11.05509c20.33251,0.10894 103.84414,0.55637 132.25924,0.70861c5.97758,0.03202 3.9245,2.27574 4.61584,12.10106c0.26862,3.81761 1.48591,8.78269 4.34849,15.21057c6.78774,15.24177 15.60386,45.37221 18.02334,72.38839c1.95207,21.79705 -1.86248,42.7965 -1.86248,42.7965c0,0 4.28603,6.30354 -12.25368,6.95675c-40.3434,1.59328 -128.02975,-1.5403 -147.59073,-1.79106c-10.4546,-0.13403 -12.29313,-7.37237 -12.29313,-7.37237z" fill="#fffef9" stroke="none" stroke-width="0" stroke-linecap="butt"/><path d="M377.85954,195.33672c0.00774,1.82889 2.38929,7.79182 2.24503,9.56195c-2.27165,27.87263 -25.44672,43.90569 -52.25846,44.01921c-26.1326,0.11062 -49.67043,-17.84808 -53.40485,-44.59879c-0.34039,-2.43825 0.16896,-5.98685 0.15813,-8.5452c-0.12966,-30.6267 22.8808,-55.55239 51.3953,-55.6731c28.5145,-0.12072 51.73519,24.60926 51.86484,55.23595z" fill="#ffffff" stroke="#000000" stroke-width="2" stroke-linecap="butt"/><path d="M373.25096,146.79799c0.71695,6.87539 -24.6275,24.23084 -52.79749,27.16834c-28.17,2.93751 -50.22326,-6.51886 -50.94022,-13.39425c-0.71695,-6.87539 17.00509,-17.94026 45.17507,-20.87777c28.17,-2.93752 57.84568,0.22829 58.56263,7.10368z" fill-opacity="0.36859" fill="#191318" stroke="#000000" stroke-width="0" stroke-linecap="butt"/><path d="M376.51713,178.46666c-4.5046,1.46136 -5.96597,-3.04327 -5.96597,-3.04327l-1.45353,-4.56197c-0.04503,-0.96365 0.50586,-2.16995 -0.13507,-2.89095c-1.0434,-1.17373 -3.31801,-0.77298 -4.24735,-2.03892c-0.84544,-1.15167 -1.22963,-2.54251 -1.56029,-3.96108c-0.27521,0.38143 -0.5696,0.68686 -0.88691,0.83326c-2.98887,1.37901 -11.40354,1.04223 -14.51351,0.00879c-2.17951,-0.72424 -4.20642,-1.96128 -5.98364,-3.41604c-0.87128,-0.71321 -2.12615,-4.65022 -4.46411,-4.23163c-2.94726,0.52766 -5.95612,1.08555 -8.66867,2.35321c-1.65525,0.77355 -2.48431,2.89474 -4.20063,3.52123c-5.92671,2.16332 -11.38649,-1.76559 -16.72995,-0.42074c-2.94241,0.74054 -4.65829,3.91525 -7.21261,5.5528c-4.07337,2.61138 -5.96274,2.97631 -10.34866,4.45654c-2.09172,1.33232 -4.92932,2.00344 -6.17736,4.14652c-1.29763,2.22824 0.36415,5.15944 0.20353,7.73297c-0.41843,6.70496 -1.94034,12.06139 -5.37325,17.65236c0.51257,0.87269 0.75783,2.04923 0.31877,3.60953c-1.28279,4.55869 -5.84146,3.27589 -5.84146,3.27589c-2.11461,-0.67824 -4.52774,-0.75666 -6.34383,-2.03467c-5.68594,-4.00133 -7.67492,-12.83166 -7.66783,-19.26533c0.00233,-2.11132 0.26757,-4.25751 0.91263,-6.26788c0.42672,-1.32991 0.48009,-5.37417 0.08389,-6.53746c-0.84697,-2.48673 -1.30603,-9.48906 -0.83056,-12.06682c0.39414,-2.13687 3.74273,-9.87526 5.15097,-11.39741c1.75409,-1.89598 5.58454,-2.1608 6.7768,-4.93656c2.09044,-4.86692 1.87106,-10.37507 5.54006,-14.82016c2.0188,-2.44583 7.52638,-5.54752 10.15773,-7.17021c4.99928,-1.18128 9.00651,-2.57586 14.17784,-2.23004c1.38232,0.09245 2.64682,1.42539 4.00008,1.12862c1.38398,-0.30352 1.99823,-2.0867 3.26477,-2.72185c11.32423,-5.67908 27.62423,-9.25796 38.8451,-2.15484c1.99235,1.26122 4.1136,2.4712 5.6429,4.26604c0.97883,1.14877 0.5605,3.14185 1.60078,4.23528c0.71824,0.75495 2.03769,0.43718 3.05579,0.65919c3.74815,0.81732 7.49772,2.03445 10.7897,4.0041c9.92169,5.93634 14.23213,15.73455 15.05712,26.91824c-0.50752,6.28552 0.94486,11.04563 -5.36953,11.24222c0.06925,0.33354 0.14682,0.66311 0.23894,0.98572l1.20062,3.61942c0,0 1.46135,4.5046 -3.04326,5.96597z" fill="#000000" stroke="none" stroke-width="0.5" stroke-linecap="butt"/><path d="M319.22547,200.10361c0.02316,5.47248 -2.9156,9.92131 -6.56391,9.93676c-3.64831,0.01544 -6.62464,-4.40835 -6.64782,-9.88082c-0.02316,-5.47248 2.91559,-9.92132 6.5639,-9.93677c3.64831,-0.01544 6.62464,4.40836 6.64781,9.88083z" fill="#000000" stroke="#000000" stroke-width="0" stroke-linecap="butt"/><path d="M352.68684,197.97612c0.02006,4.73995 -2.5868,8.59356 -5.8226,8.60725c-3.23579,0.0137 -5.87521,-3.8177 -5.89528,-8.55765c-0.02006,-4.73995 2.58681,-8.59355 5.82262,-8.60724c3.23579,-0.0137 5.87521,3.81769 5.89527,8.55764z" fill="#000000" stroke="#000000" stroke-width="0" stroke-linecap="butt"/><g stroke-linecap="butt"><path d="M344.09753,158.01475c0.05383,0.3403 -0.16651,3.96291 0.50576,7.43124c0.76807,3.96252 4.01051,8.01163 1.61757,10.66966c-6.10964,6.78641 -24.27138,6.62805 -29.7303,7.37141c-5.02688,0.68452 -4.86339,-4.96213 -5.20121,-10.45603c-0.29846,-4.85418 -1.35217,-9.53956 -1.47995,-10.34719c-0.27242,-1.72169 7.18244,-4.16262 16.65084,-5.45195c9.4684,-1.28934 17.3649,-0.93884 17.6373,0.78286z" fill="#ffc98b" stroke="#000000" stroke-width="2"/><path d="M312.28785,165.61686c-0.16837,-1.06417 0.75667,-1.19014 0.75667,-1.19014l0.31811,-0.04012c7.98308,-0.36792 11.39189,14.36499 2.98108,15.58333c0,0 -0.00418,0.00056 -0.01201,0.00131c-0.11514,0.13065 -0.28485,0.23239 -0.53363,0.26626c-0.92504,0.12596 -1.0934,-0.93821 -1.0934,-0.93821l-0.05987,-0.37837c-0.65649,-4.1493 -1.16106,-8.31808 -1.80433,-12.46113c-0.23516,-0.11326 -0.47477,-0.35087 -0.55262,-0.84293zM316.35712,177.78475c5.17762,-1.0421 3.14475,-10.02351 -1.60137,-11.14666c0.56406,3.70807 1.03159,7.43295 1.60137,11.14666z" fill="#000000" stroke="none" stroke-width="0.5"/><path d="M325.31593,162.48688c0.80237,-0.32245 1.13454,0.6983 1.13454,0.6983l0.20013,0.66909c0.30166,1.90662 0.60378,3.81315 0.90426,5.71993c0.16369,1.85068 0.55222,4.83129 -0.48202,6.26791c-1.26476,1.75682 -3.46837,1.14289 -4.57299,-0.82527c-1.53891,-2.74193 -1.56439,-7.92483 -2.06504,-11.08919c0,0 -0.16838,-1.06417 0.68356,-1.18019c0.85193,-0.11601 1.02032,0.94817 1.02032,0.94817c0.45407,2.86981 0.44934,7.71638 1.77173,10.22701c1.91083,3.62779 2.0169,-3.25527 1.92804,-4.20507c-0.29826,-1.87696 -0.59473,-3.75415 -0.89172,-5.63126l-0.10099,-0.2562c0,0 -0.33217,-1.02075 0.47019,-1.34323z" fill="#000000" stroke="none" stroke-width="0.5"/><path d="M330.44923,175.20141c-0.90108,0.12269 -1.08475,-1.03813 -1.08475,-1.03813l-0.03265,-0.20637c-0.56677,-3.63621 -0.96467,-7.14469 -0.77798,-10.74695c0,0 0.05271,-1.01421 0.81705,-0.98509c0.56297,-0.07502 0.84516,0.35166 0.9774,0.68081c0.82035,1.05244 1.42209,2.28548 2.08648,3.4827c0.21387,-1.4341 0.28043,-2.95991 0.45077,-4.38856c0,0 0.13533,-1.13288 1.04493,-0.85149c0.02046,0.00632 0.04038,0.01308 0.05978,0.02025c0.71049,-0.18125 1.05133,0.7607 1.05133,0.7607l0.17844,0.50463c0.97786,3.48897 1.76375,7.33158 1.64213,10.89061c0,0 -0.04037,1.15594 -0.95908,0.99343c-0.91872,-0.1625 -0.87836,-1.31843 -0.87836,-1.31843c0.07029,-1.96771 -0.54087,-4.00375 -0.78044,-6.07268c-0.08644,0.61724 -0.19385,1.22366 -0.33787,1.80997l-0.24776,0.50105c-0.04544,0.14195 -0.12371,0.28455 -0.2476,0.42063c-0.19103,0.20984 -0.38014,0.28293 -0.55253,0.28075c-0.17219,0.00039 -0.37201,-0.07467 -0.59348,-0.28662c-0.12367,-0.11838 -0.21423,-0.24124 -0.27912,-0.36409c-0.62442,-0.93728 -1.13128,-2.00326 -1.68633,-3.00476c-0.02996,2.48132 0.42946,4.912 0.83442,7.42775l0.03264,0.20637c0,0 0.18366,1.16085 -0.71742,1.28354z" fill="#000000" stroke="none" stroke-width="0.5"/><path d="M343.98723,173.77552c0.1085,1.16279 -0.67565,1.2066 -0.67565,1.2066l-0.28869,0.01269c-1.17527,0.20076 -4.40966,1.29664 -5.12734,-1.02602c-0.20481,-0.66286 0.25063,-1.31479 0.37462,-1.97287c0.22604,-1.19956 1.28098,-5.53635 2.25743,-7.21956c-0.90654,0.00402 -1.80671,0.07249 -2.71121,0.12302c0,0 -0.78414,0.04381 -0.89266,-1.11897c-0.1085,-1.16279 0.67565,-1.20659 0.67565,-1.20659c1.25695,-0.07022 2.50045,-0.1583 3.76747,-0.08997l0.07359,0.05688l0.00327,-0.03659l0.77862,0.26151c0.35307,0.10681 0.64871,0.55018 0.69957,1.09525c0.03733,0.3999 -0.06591,0.76029 -0.2537,0.98111l-0.46921,0.56828c-0.65558,1.75061 -1.2263,3.53751 -1.84225,5.36006c-0.20352,0.60218 -0.33197,1.81409 -0.70384,2.34348c0.15214,-0.08779 0.32049,-0.16885 0.42159,-0.18366c0.86778,-0.1271 1.74409,-0.09746 2.61173,-0.24737l0.40834,-0.02625c0,0 0.78415,-0.04381 0.89266,1.11897z" fill="#000000" stroke="none" stroke-width="0.5"/></g><g stroke="#000000"><path d="M390.69398,128.49194c1.12492,8.24215 -5.33858,20.34849 -44.63159,29.55924c-71.99428,16.87631 -96.90136,10.43957 -98.02627,2.19741c-1.12492,-8.24215 29.89822,-22.03268 69.2921,-30.80205c39.39389,-8.76935 72.24086,-9.19676 73.36578,-0.95459z" fill="#1f1d1c" stroke-width="2" stroke-linecap="butt"/><path d="M361.72214,131.79605c0.60311,5.76573 -14.97194,14.19912 -42.60387,19.44492c-27.63193,5.2458 -45.43352,1.30214 -46.03664,-4.46359c-0.07875,-0.75281 -17.98012,-66.28039 -17.32862,-67.12576c4.33832,-5.62915 25.11247,-12.97239 49.13661,-17.53326c23.02326,-4.37086 41.67937,-4.80729 47.96941,-1.49609c1.25911,0.66282 8.7625,70.21214 8.86308,71.17379z" fill="#1f1d1c" stroke-width="2" stroke-linecap="butt"/><path d="M361.19149,115.75871c0.17957,0.75153 3.77949,16.12942 2.00907,17.24185c-44.14231,27.73637 -85.23982,17.646 -87.63112,18.21732c-2.68035,0.6404 -3.83879,-1.88651 -5.63071,-8.07018c-1.54831,-5.34296 -2.56788,-10.85497 0.11246,-11.49535c1.55205,-0.37081 29.34856,-1.15649 54.64596,-6.51256c18.39042,-3.89369 35.79344,-12.31464 36.49433,-9.38107z" fill="#770e00" stroke-width="2" stroke-linecap="butt"/><path d="M271.2414,141.72331l10.08265,-0.04268" fill="none" stroke-width="1.5" stroke-linecap="round"/><path d="M352.8867,127.47031l7.63418,-3.50917" fill="none" stroke-width="1.5" stroke-linecap="round"/></g><path d="M375.08644,125.98907c0.79611,4.24644 -0.17717,20.85252 -45.87729,29.96361c-44.87831,8.94723 -67.85976,0.48934 -68.65587,-3.75709c-0.31575,-1.68414 2.96145,-4.15611 9.28595,-6.94878c3.20847,-1.41675 0.31966,4.8793 6.01503,5.82793c11.385,1.89632 34.23121,0.22939 48.76739,-2.49583c12.75665,-2.39158 24.12408,-6.08722 30.3311,-9.55411c4.77764,-2.66849 5.22153,-5.47946 8.73254,-5.74754c1.08985,-0.08321 -1.74198,-9.49107 -0.747,-9.4778c3.43368,0.04586 11.91647,0.95376 12.14813,2.18958z" fill-opacity="0.3426" fill="#0d0010" stroke="none" stroke-width="0" stroke-linecap="butt"/><path d="M314.09046,219.48646c0,0 0.00732,7.23432 -9.77169,7.25474c-6.2139,0.01297 -6.51445,-7.4028 -6.51445,-7.4028" fill="#ffa8d5" stroke="#000000" stroke-width="2.5" stroke-linecap="round"/><path d="M362.50475,214.89673c0,0 -12.34367,1.95583 -22.65877,2.55865c-2.66148,0.15554 -6.34513,0.31184 -10.47689,0.46112c-3.13775,0.11337 -9.79116,1.40714 -13.19437,1.50903c-12.61628,0.37771 -22.07181,-0.5313 -22.07181,-0.5313" fill="none" stroke="#000000" stroke-width="2.5" stroke-linecap="round"/><path d="M292.62695,296.37021c-1.04239,-0.70938 -2.47855,-0.95301 -3.28352,-1.94325c-0.12276,-0.15102 -0.23086,-0.31938 -0.32062,-0.50945c-1.87145,-3.96217 0.15709,-16.05184 3.65071,-19.05674c2.35175,-2.02279 4.74394,-2.92594 7.44476,-1.55962c1.41339,0.71502 1.99986,4.44806 3.40127,3.70039c3.78809,-2.02098 5.34677,-7.93847 10.91358,-4.40263c5.84027,3.70952 4.93554,11.55182 4.93554,18.59166c0,3.39752 -3.49458,7.18158 -6.25573,5.30252c-4.20577,-2.86216 0.45251,-12.33686 -2.21427,-14.28029c-0.50732,-0.36971 -6.59598,9.89714 -7.28471,10.0612c-2.20407,0.52498 -4.23602,-0.68783 -5.21017,-3.10247c-0.43457,-1.07718 -0.18399,-3.88684 -1.07915,-3.34683c-1.46229,0.88211 0.43634,7.05167 -1.14788,8.12978z" fill="#ff9638" stroke="none" stroke-width="0.5" stroke-linecap="butt"/><path d="M340.47814,272.40262c2.29283,2.15835 1.87373,5.54646 0.65248,8.11877c-0.09038,0.19039 -2.40837,4.43466 -2.40644,4.43608c2.44172,1.80567 5.84455,-2.03322 5.84455,4.90543c0,8.9606 -20.04453,9.08667 -23.631,2.19376c-2.12347,-4.08113 2.77137,-7.7307 6.0279,-8.62482c0.97947,-0.26893 1.17232,-0.18633 1.90728,-0.85426c0.80429,-0.7309 3.14689,-2.4699 2.10526,-2.5465c-3.54672,-0.26088 -8.8825,2.71167 -10.64609,-0.67785c-1.3165,-0.85331 -2.19967,-2.42719 -2.19967,-4.22757c0,-2.70919 1.99978,-4.90543 4.46663,-4.90543c0.19376,0 0.38467,0.01355 0.57193,0.03985c5.40283,-2.7379 12.96262,-1.94716 17.30712,2.14252z" fill="#ff9638" stroke="none" stroke-width="0.5" stroke-linecap="butt"/><path d="M396.95076,267.89598c2.1941,-2.58146 3.78253,-4.74411 5.64021,-4.73434c1.09344,0.00575 2.28022,0.76416 3.73868,2.63288c0.92802,1.18902 2.06172,4.47715 2.41076,6.10064c0.33237,1.54591 -0.23331,5.96964 0.64963,4.71155c2.02113,-2.87986 2.89208,-12.39746 5.40527,-14.05349c3.61106,-2.37948 5.4166,-1.88377 7.58323,2.08204c1.22313,2.23879 -0.97265,5.97732 -1.58882,7.9853c-1.61022,5.24746 -7.11055,21.27156 -13.24624,21.64591c-5.86973,0.35814 -6.41816,-15.87915 -7.50433,-20.03087c-0.25165,-0.96194 -2.36216,-3.49973 -2.37089,-3.6722z" fill="#6676ff" stroke="none" stroke-width="0.5" stroke-linecap="butt"/><path d="M379.02858,270.1747c0.01814,-0.03866 0.03684,-0.07655 0.05614,-0.11363c2.36098,-4.53802 10.36719,-4.61609 13.95148,-2.81885c2.46209,1.23455 4.58246,7.07784 5.12726,9.9052c0.16908,0.87742 0.14469,1.6405 -0.01555,2.28547c0.19476,0.2745 0.37282,0.57206 0.53254,0.89441l-1.29945,2.62257c-0.57503,1.16052 -3.12901,0.24303 -4.14259,0.22176c-1.03088,-0.02164 -6.3109,0.38761 -10.53447,-0.18591c0.60017,1.16045 1.38106,2.17131 2.32799,2.89401c3.29102,2.51165 6.38269,-0.37408 8.93151,-0.3626c2.81571,0.01266 4.61717,3.31192 2.22085,5.50795c-5.13194,4.70292 -14.4291,2.93195 -18.69902,-2.25861c-2.14743,-2.61044 -1.36305,-6.56447 -1.48771,-10.0291c-0.13715,-3.81211 0.79658,-8.14661 3.03101,-8.56265zM393.10267,278.99003c1.13835,-0.26849 -0.48615,-4.55714 -0.60476,-4.73411c-1.04628,-1.56114 -4.66469,-1.94422 -7.35794,-0.87718c-1.74747,0.6923 -2.02136,4.88324 -2.03456,4.94222c0.19652,0.8311 7.81708,1.18327 9.99725,0.66907z" data-paper-data="{&quot;index&quot;:null}" fill="#6676ff" stroke="#6676ff" stroke-width="1" stroke-linecap="butt"/><path d="M347.62048,295.3657c0.02737,-0.05261 0.0548,-0.10468 0.08228,-0.15623c-0.08057,-0.22546 -0.15524,-0.45437 -0.22476,-0.68658c-0.9226,-3.08103 -0.94563,-6.73786 -2.02892,-10.50343c-1.07038,-3.72073 -2.15708,-7.53285 -3.04364,-11.30769c-0.69949,-2.97833 -2.60878,-8.71946 -2.14479,-11.89806c0.25206,-1.72673 1.46843,-3.05283 2.91167,-3.65049c0.71191,-1.41264 2.08276,-2.36909 3.657,-2.36909c0.25629,0 0.50721,0.02535 0.75075,0.07389c8.05502,-3.25571 21.06776,3.33902 23.91204,11.76652c0.22281,0.66019 1.53442,4.41115 2.1584,8.82874c0.87045,6.16255 0.88149,13.62238 -1.03031,15.79872c-3.82646,4.35597 -7.9975,4.53228 -12.85151,6.20268c-1.23981,0.42665 -5.56193,2.50184 -8.18301,2.60254l-0.02488,0.01562c-0.00743,-0.00466 -0.01487,-0.00935 -0.02228,-0.01403c-0.88076,0.02599 -1.56304,-0.17701 -1.86107,-0.74977zM362.39567,287.64297c9.07926,-4.80955 0.37917,-21.23751 -3.07421,-22.31401c-3.03485,-0.94604 -6.10278,-0.91773 -9.18404,-1.11678c1.8632,6.48986 2.71659,14.40606 4.14164,20.38488c0.20833,0.87399 0.74953,2.89641 1.18582,5.11255c2.09974,-0.41041 4.40379,-0.72802 6.93078,-2.06664z" fill="#6676ff" stroke="none" stroke-width="0.5" stroke-linecap="butt"/><path d="M252.27392,258.55267c7.31395,4.30428 11.36778,19.39067 8.60096,27.20585c-2.509,7.08695 -9.5351,13.22963 -16.23234,14.08701c-3.06911,0.39291 -7.90654,2.73881 -9.44208,-1.72646c-1.84343,-1.83549 -1.63548,-5.56219 -1.66039,-8.19904c-0.07831,-8.28503 2.09215,-19.8375 -0.41243,-27.94239c-0.11418,-0.34686 -0.19609,-0.71256 -0.24137,-1.09338c-0.33644,-2.83102 1.48048,-5.42553 4.05828,-5.79505c0.02652,-0.00381 0.05303,-0.00737 0.07951,-0.01065c0.3445,-0.14636 0.7103,-0.2502 1.09286,-0.30504c0.72963,-0.10459 1.44202,-0.01969 2.0961,0.21998c3.75445,-0.58542 8.29416,1.34242 12.06092,3.55919zM251.92132,282.25215c0.70201,-1.55743 -0.39745,-7.10855 -0.4249,-7.3012c-1.01663,-7.13231 -4.6674,-8.1196 -8.1606,-8.42025c0.4602,6.95555 0.33509,16.59386 0.04829,22.67129c3.55078,-1.81577 7.15862,-3.89141 8.5372,-6.94983z" fill="#ff9638" stroke="none" stroke-width="0.5" stroke-linecap="butt"/><path d="M266.99797,268.46179c2.70864,1.69986 3.68653,4.31421 4.00272,7.08479c0.67143,5.88341 -1.64095,12.47131 3.2997,12.5027c8.06537,0.05125 -1.83789,-21.61656 10.24706,-16.71162c3.15987,1.28249 1.98716,7.25086 1.9697,9.87796c-0.06436,9.6866 -3.03282,17.23187 -12.94159,16.64452c-8.68862,-0.51502 -12.31606,-9.17719 -11.56879,-17.46533c0.13325,-1.47788 0.10332,-8.86558 1.14177,-9.51726z" fill="#ff9638" stroke="none" stroke-width="0.5" stroke-linecap="butt"/></g></g></svg>