<svg version="1.1" xmlns="http://www.w3.org/2000/svg" xmlns:xlink="http://www.w3.org/1999/xlink" width="52.33166" height="142.30539" viewBox="0,0,52.33166,142.30539"><defs><radialGradient cx="327.90661" cy="147.75894" r="26.05961" gradientUnits="userSpaceOnUse" id="color-1"><stop offset="0" stop-color="#afb0e0" stop-opacity="0"/><stop offset="1" stop-color="#afb0e0" stop-opacity="0.31373"/></radialGradient></defs><g transform="translate(-296.4131,-126.70803)"><g data-paper-data="{&quot;isPaintingLayer&quot;:true}" fill-rule="nonzero" stroke-linejoin="miter" stroke-miterlimit="10" stroke-dasharray="" stroke-dashoffset="0" style="mix-blend-mode: normal"><path d="M320.2892,267.87482c-0.40837,1.14749 -16.10312,-5.17379 -15.69476,-6.32128c0.06149,-0.17279 0.8189,-2.49211 1.99079,-5.95161c1.76337,0.33102 3.98851,1.34015 5.29562,1.46842c2.87187,0.27838 5.91671,1.40291 8.75448,2.18067c0.20664,0.64596 0.50159,1.69889 0.60068,2.70946c0.21606,2.20319 -0.71112,5.25202 -0.94683,5.91434z" fill="#ffffff" stroke="#000000" stroke-width="2" stroke-linecap="butt"/><path d="M321.90844,222.86051c5.71464,-9.44694 8.83003,0.23483 14.34982,2.7195c0.5225,0.23519 -12.14462,31.55701 -14.33038,36.55689c-1.29566,-0.54775 -8.40204,-4.84208 -11.09559,-5.01839c-1.7495,0.07552 -4.72574,0.03873 -6.43271,-0.11458c0.37369,-0.81066 0.62421,-2.20043 1.11158,-3.22797c4.11807,-8.68227 12.06204,-23.74879 16.39729,-30.91548z" fill="#a68f79" stroke="#000000" stroke-width="2" stroke-linecap="butt"/><path d="M329.48205,178.91965c0,3.48943 -5.101,6.31817 -11.39342,6.31817c-6.29242,0 -11.39342,-2.82874 -11.39342,-6.31817c0,-3.48943 1.57941,-5.38598 7.87182,-5.38598c6.29242,0 14.91502,1.89655 14.91502,5.38598z" fill="#334865" stroke="#000000" stroke-width="2" stroke-linecap="butt"/><path d="M337.57689,264.48169c0.23318,1.19862 -17.8308,3.51921 -18.06399,2.32058c-0.03512,-0.18049 -0.56997,-2.56934 -1.32839,-6.15352c1.82633,-0.58971 4.44788,-0.82076 5.73889,-1.35947c2.83463,-1.18664 6.28454,-1.72516 9.35496,-2.46161c0.53945,0.45767 2.9796,2.82452 3.6139,3.65198c1.38291,1.80401 0.55001,3.31019 0.6846,4.00204z" fill="#ffffff" stroke="#000000" stroke-width="2" stroke-linecap="butt"/><path d="M321.71283,223.5911c3.47706,7.6201 9.62469,23.50447 12.71069,32.60485c0.36522,1.07702 0.45328,2.48644 0.73068,3.33489c-1.71324,-0.0452 -4.67375,-0.35296 -6.40277,-0.63037c-2.69586,-0.13649 -10.25132,3.3069 -11.60165,3.70108c-1.59267,-5.21917 -10.55122,-37.79611 -10.00502,-37.96927c5.77017,-1.82942 9.98469,-11.08578 14.56808,-1.04116z" data-paper-data="{&quot;index&quot;:null}" fill="#a68f79" stroke="#000000" stroke-width="2" stroke-linecap="butt"/><path d="M341.90096,215.13381c0.31667,4.04128 -2.22292,7.53072 -5.67233,7.79388c-3.44941,0.26316 -6.50242,-2.79962 -6.81907,-6.8409c-0.09047,-1.15457 -0.4347,-4.75549 -0.80031,-9.32114c1.8267,-0.69476 3.66763,-1.35997 5.53945,-1.85346c1.95729,-0.51602 3.78657,-1.40066 5.74394,-1.88598c0.08036,-0.01993 0.16447,-0.0341 0.25065,-0.04479c1.05417,5.85057 1.64972,10.7745 1.75768,12.15238z" data-paper-data="{&quot;index&quot;:null}" fill="#ffffff" stroke="#000000" stroke-width="2" stroke-linecap="butt"/><path d="M329.09855,177.58605c4.17164,-0.56075 8.63834,11.92574 10.80975,21.70418c0.52882,2.38143 -0.24769,1.78553 0.15478,4.05984c-0.11633,0.00817 -0.21562,0.0184 -0.28262,0.03555c-1.96022,0.5018 -3.79101,1.41555 -5.75059,1.94896c-1.84438,0.50204 -3.65877,1.1748 -5.45913,1.87988c-0.90428,-11.78807 -1.88894,-29.30355 0.52781,-29.62841z" data-paper-data="{&quot;index&quot;:null}" fill="#334865" stroke="#000000" stroke-width="2" stroke-linecap="butt"/><path d="M316.78057,227.78003l0.3815,-4.29446l14.04405,1.2476l-0.3815,4.29446z" fill="#a68f79" stroke="none" stroke-width="0" stroke-linecap="butt"/><path d="M306.66397,225.60639c0,0 -0.17759,-17.61223 1.08049,-28.46941c1.42141,-12.26677 4.86953,-22.87543 14.01328,-23.14741c11.49567,-0.34194 12.49154,14.41192 14.04095,27.88541c1.18315,10.28856 1.78775,25.51554 1.78775,25.51554" fill="#334865" stroke="#000000" stroke-width="2" stroke-linecap="round"/><path d="M314.96249,177.52268c2.32493,0.53024 -0.89081,16.43564 -3.56289,28.43434c-2.12818,-0.26812 -4.25311,-0.55603 -6.36552,-0.93324c-1.55539,-0.27775 -3.11355,-0.46412 -4.67962,-0.63646c0.37815,-1.35925 -0.24728,-1.74273 0.1914,-3.18818c3.37222,-11.11174 9.4541,-24.80824 14.41665,-23.67646z" fill="#334865" stroke="#000000" stroke-width="2" stroke-linecap="butt"/><path d="M308.53106,218.67115c-0.72753,4.23293 -3.21431,6.3953 -6.77937,5.78257c-3.56507,-0.61273 -4.87227,-4.65128 -4.14475,-8.88421c0.22353,-1.30057 1.17401,-5.57997 2.62148,-10.8307c1.58098,0.17348 3.15379,0.35988 4.72372,0.64022c2.10584,0.37605 4.22404,0.66368 6.34555,0.93129c-1.34147,6.00551 -2.52462,10.95272 -2.76664,12.36084z" fill="#ffffff" stroke="#000000" stroke-width="2" stroke-linecap="butt"/><path d="M318.02229,185.10195c0,1.12921 -1.77857,1.25408 -2.51048,2.70979c-1.80417,3.58837 -3.84742,8.66459 -5.35409,8.66459c-2.11789,0 0.195,-7.46166 0.195,-11.37439c0,-3.91272 2.23687,-7.47459 4.35476,-7.47459c0.43662,0 1.61092,-0.31471 1.96684,-0.04008c1.37052,1.05751 1.34798,4.40859 1.34798,7.51467z" fill="#334865" stroke="none" stroke-width="0" stroke-linecap="butt"/><path d="M327.09883,178.20324c0.58578,-0.08775 1.58355,0.019 2.73165,0.82067c1.62029,1.13137 4.4992,5.28519 4.74019,6.89762c0.41175,2.75494 1.99996,6.00788 0.58749,6.21949c-0.64801,0.09708 -0.73482,-2.66826 -1.80079,-4.28071c-0.58697,-0.88788 -1.96501,-1.69479 -2.52639,-2.52797c-0.64132,-0.95184 -1.84062,-0.86204 -1.95945,-1.65712c-0.41175,-2.75494 -3.18517,-5.26036 -1.7727,-5.47197z" data-paper-data="{&quot;index&quot;:null}" fill="#334865" stroke="none" stroke-width="0" stroke-linecap="butt"/><path d="M328.84758,229.5672l-7.66418,-1.01317" fill="none" stroke="#000000" stroke-width="2" stroke-linecap="round"/><path d="M329.58562,176.4856c0,0.78788 -0.41115,1.82496 -1.22398,2.80974c-0.92811,1.12448 -2.44288,2.14932 -5.56126,2.11015c-2.81373,-0.03534 -3.13628,-0.95102 -3.96732,-2.13634c-0.64567,-0.92093 -2.09093,-2.0457 -2.09093,-2.78355c0,-1.68751 2.87511,-3.05551 6.42174,-3.05551c3.54663,0 6.42175,1.368 6.42175,3.05551z" fill="#ffffff" stroke="#000000" stroke-width="2" stroke-linecap="butt"/><path d="M343.53326,153.37285c0.10467,1.8765 0.72983,4.44998 0.5831,6.15837c-1.07425,12.50745 -9.69713,17.29201 -20.0337,17.88694c-11.98052,0.68955 -22.51767,-7.38223 -23.28044,-21.05752c-0.76277,-13.67531 8.49458,-24.99319 20.4751,-25.68274c11.98052,-0.68955 21.49316,9.01964 22.25594,22.69495z" fill="#ffffff" stroke="#000000" stroke-width="2" stroke-linecap="butt"/><path d="M321.84593,155.98297c0,2.79954 -0.86452,5.06901 -1.93095,5.06901c-1.06642,0 -1.93093,-2.26947 -1.93093,-5.06901c0,-2.79954 0.86451,-5.06901 1.93093,-5.06901c1.06642,0 1.93095,2.26947 1.93095,5.06901z" fill="#000000" stroke="none" stroke-width="0" stroke-linecap="butt"/><path d="M335.98033,156.00272c0,2.30819 -0.71279,4.17934 -1.59205,4.17934c-0.87926,0 -1.59205,-1.87116 -1.59205,-4.17934c0,-2.30819 0.71279,-4.17935 1.59205,-4.17935c0.87926,0 1.59205,1.87116 1.59205,4.17935z" fill="#000000" stroke="none" stroke-width="0" stroke-linecap="butt"/><path d="M337.6245,165.25812l-27.47456,-1.76543" fill="none" stroke="#000000" stroke-width="2" stroke-linecap="round"/><path d="M308.82587,165.14777l0.99305,-3.86189" fill="none" stroke="#000000" stroke-width="2" stroke-linecap="round"/><path d="M312.13126,221.71638l3.16535,-9.61327" fill="none" stroke="#000000" stroke-width="2" stroke-linecap="round"/><path d="M334.0337,220.24102l-1.64128,-6.79962" fill="none" stroke="#000000" stroke-width="2" stroke-linecap="round"/><path d="M331.0322,178.2924c0,0 -1.23297,4.86641 -5.79289,5.39337c-4.10253,0.47411 -7.66472,-1.09846 -9.24532,-2.54116c-1.95625,-1.78556 -1.40826,-3.58465 -1.40826,-3.58465" fill="none" stroke="#000000" stroke-width="1.5" stroke-linecap="round"/><path d="M321.51056,191.27647l0.13317,-7.79043" fill="none" stroke="#000000" stroke-width="1.5" stroke-linecap="round"/><path d="M326.37124,183.41945l-0.06658,7.9236" fill="none" stroke="#000000" stroke-width="1.5" stroke-linecap="round"/><path d="M337.25927,226.39855l-30.06309,-1.51481" fill="none" stroke="#000000" stroke-width="2" stroke-linecap="round"/><g stroke-linecap="butt"><path d="M347.67,153.84096c0.1828,9.1572 -4.27778,17.01308 -11.15963,21.56229c-0.71513,0.47272 0.208,-0.18698 1.45209,0.34856c1.97466,0.85002 2.03352,1.899 -1.49415,2.66983c-3.80402,0.83121 -9.79309,1.42304 -15.67304,1.4193c-3.89104,-0.00248 -8.53851,-0.51612 -9.58684,-0.49519c-2.44529,0.04882 -4.95697,-1.53628 -3.1452,-2.75411c1.34066,-0.90116 1.18835,-0.7677 0.60151,-1.16406c-6.53884,-4.41664 -10.82875,-11.97117 -11.00542,-20.82098c-0.28598,-14.32555 10.3144,-26.6204 24.24868,-26.89856c13.93428,-0.27817 25.47604,11.80739 25.76201,26.13296z" fill="url(#color-1)" stroke="#111111" stroke-width="2"/><path d="M339.07479,139.98101c0.62666,2.5676 -1.35868,3.97948 -3.82932,2.97852c-0.45387,-0.18389 -1.79187,-2.41599 -2.32389,-2.76277c-1.54577,-1.00756 -4.03561,-0.82745 -4.98286,-2.4109c-0.74538,-0.42009 -1.25563,-1.21216 -1.27393,-2.12955c-0.02756,-1.38044 1.06917,-2.52185 2.4496,-2.5494c0.52323,-0.01044 1.01212,0.14064 1.41903,0.40747c3.47341,0.06239 7.74305,3.19578 8.54134,6.46663z" fill="#ffffff" stroke="none" stroke-width="0.5"/></g></g></g></svg>