<svg version="1.1" xmlns="http://www.w3.org/2000/svg" xmlns:xlink="http://www.w3.org/1999/xlink" width="52.07166" height="138.08282" viewBox="0,0,52.07166,138.08282"><defs><radialGradient cx="335.2706" cy="153.13824" r="26.05961" gradientUnits="userSpaceOnUse" id="color-1"><stop offset="0" stop-color="#afb0e0" stop-opacity="0"/><stop offset="1" stop-color="#afb0e0" stop-opacity="0.31373"/></radialGradient></defs><g transform="translate(-302.84735,-131.22527)"><g data-paper-data="{&quot;isPaintingLayer&quot;:true}" fill-rule="nonzero" stroke-linejoin="miter" stroke-miterlimit="10" stroke-dasharray="" stroke-dashoffset="0" style="mix-blend-mode: normal"><path d="M332.87929,264.43576c0.06793,1.21609 -16.85014,1.46681 -16.91806,0.25071c-0.01023,-0.18313 -0.21021,-2.61476 -0.46967,-6.25815c1.75396,-0.37777 4.19626,-0.30923 5.45103,-0.69719c2.75553,-0.85564 5.99827,-0.99813 8.9158,-1.38018c0.4407,0.51552 1.12043,1.37205 1.60319,2.26534c1.0525,1.94756 1.37851,5.1175 1.41771,5.81945z" fill="#ffffff" stroke="#000000" stroke-width="2" stroke-linecap="butt"/><path d="M333.25346,181.69368c-0.14783,3.4863 -5.3641,6.09639 -11.65087,5.8298c-6.28677,-0.26659 -11.26335,-3.3089 -11.11551,-6.7952c0.14783,-3.4863 1.80618,-5.31423 8.09294,-5.04764c6.28677,0.26659 14.82128,2.52674 14.67344,6.01304z" fill="#334865" stroke="#000000" stroke-width="2" stroke-linecap="butt"/><path d="M339.59348,219.83811c-0.06271,4.05318 -2.91754,7.28979 -6.37644,7.22917c-3.45891,-0.06063 -6.21206,-3.39553 -6.14934,-7.44871c0.01792,-1.15797 0.01199,-4.7753 0.07502,-9.35513c1.88368,-0.52086 3.77875,-1.01097 5.68853,-1.32722c1.99697,-0.33069 3.90098,-1.04035 5.89516,-1.34047c0.08188,-0.01232 0.16694,-0.01856 0.25374,-0.02115c0.50233,5.92352 0.63473,10.88157 0.61334,12.26351z" data-paper-data="{&quot;index&quot;:null}" fill="#ffffff" stroke="#000000" stroke-width="2" stroke-linecap="butt"/><path d="M330.35911,181.25751c4.2058,-0.16811 7.48503,12.68142 8.73233,22.62009c0.30377,2.42045 -0.4136,1.75453 -0.22562,4.05652c-0.11659,-0.00274 -0.2164,-0.00185 -0.28471,0.00896c-1.99856,0.31626 -3.90679,1.05476 -5.90768,1.40255c-1.88325,0.32733 -3.75261,0.82744 -5.61103,1.36103c0.20224,-11.82098 0.86015,-29.35177 3.2967,-29.44916z" data-paper-data="{&quot;index&quot;:null}" fill="#334865" stroke="#000000" stroke-width="2" stroke-linecap="butt"/><path d="M322.89354,225.99431c3.41075,-10.49964 8.34401,-4.68736 13.60888,-3.68579c0.4601,0.08752 -3.78794,26.77677 -5.25669,35.17329c-0.27589,1.57721 -0.85484,2.27678 -0.85013,2.28571c-2.85634,-0.387 -6.5541,-1.81538 -9.36137,-1.69741c-1.45239,0.06291 -4.01797,-0.70367 -5.796,-0.80619c0.17614,-0.92295 -0.08137,-1.19847 0.12373,-2.24944c1.70826,-8.75366 5.24191,-21.97164 7.53159,-29.0202z" fill="#a68f79" stroke="#000000" stroke-width="2" stroke-linecap="butt"/><path d="M310.51362,230.79719c-3.85866,-10.3447 5.66565,-6.77679 11.04017,-9.56177c0.50875,-0.26363 15.0748,27.06195 17.63772,31.8794c-1.23375,0.67575 -1.48198,1.21027 -2.71572,1.88601c-2.29222,1.25549 -4.17014,3.74442 -5.98045,5.74669c-1.02686,1.41845 -2.9033,3.72894 -4.08315,4.97199c-0.40357,-0.79621 -1.33759,-1.85537 -1.84061,-2.87533c-4.25029,-8.6183 -11.13068,-24.1993 -14.05795,-32.04702z" fill="#a68f79" stroke="#000000" stroke-width="2" stroke-linecap="butt"/><path d="M346.41087,259.2348c0.56523,1.07975 -17.66536,10.06316 -18.23057,8.9834c-0.05433,-0.1038 -0.56905,-1.10291 -1.39649,-2.73107c1.27347,-1.40726 2.55733,-3.2183 3.34857,-4.31476c1.7698,-1.95151 3.35542,-4.4021 5.58181,-5.62153c1.19854,-0.65646 2.48468,-1.36091 3.6962,-2.02447c0.10744,0.20209 0.16435,0.30929 0.16435,0.30929c0,0 1.8594,0.63677 3.23744,1.58823c1.88136,1.29894 3.27244,3.18765 3.5987,3.8109z" fill="#ffffff" stroke="#000000" stroke-width="2" stroke-linecap="butt"/><path d="M316.0593,230.8187l0.18266,-4.3075l14.0867,0.59734l-0.18266,4.3075z" fill="#a68f79" stroke="none" stroke-width="0" stroke-linecap="butt"/><path d="M309.22992,227.27646c0,0 0.51338,-17.60394 2.06318,-28.39807c1.75101,-12.19554 5.2664,-22.64859 13.52307,-22.53293c10.38043,0.1454 10.71433,14.9282 11.59641,28.45524c0.67356,10.32945 0.6365,25.56837 0.6365,25.56837" fill="#334865" stroke="#000000" stroke-width="2" stroke-linecap="round"/><path d="M328.90385,182.07399c0.58897,-0.06285 1.58132,0.08607 2.69443,0.93566c1.5709,1.199 4.27125,5.47106 4.44371,7.09225c0.29466,2.76991 1.74363,6.08722 0.32346,6.2388c-0.65154,0.06954 -0.62112,-2.697 -1.61781,-4.35316c-0.54883,-0.91195 -1.89144,-1.77652 -2.41702,-2.63273c-0.60042,-0.97816 -1.80245,-0.93925 -1.88748,-1.73865c-0.29466,-2.76991 -2.95945,-5.39058 -1.53928,-5.54216z" data-paper-data="{&quot;index&quot;:null}" fill="#334865" stroke="none" stroke-width="0" stroke-linecap="butt"/><path d="M322.14513,231.56576l7.70281,0.65795" fill="none" stroke="#000000" stroke-width="2" stroke-linecap="round"/><path d="M333.46005,179.2662c-0.03338,0.78717 -0.4881,1.8059 -1.34192,2.75536c-0.97492,1.08415 -2.53175,2.04389 -5.64567,1.87264c-2.80971,-0.15452 -3.09317,-1.08304 -3.87325,-2.3025c-0.60607,-0.94746 -2.00238,-2.13245 -1.97112,-2.86964c0.07149,-1.68599 3.00198,-2.93096 6.54543,-2.7807c3.54345,0.15026 6.35803,1.63884 6.28653,3.32483z" fill="#ffffff" stroke="#000000" stroke-width="2" stroke-linecap="butt"/><path d="M351.01292,159.94148c-0.11879,1.87566 0.1965,4.50515 -0.15196,6.18404c-2.55118,12.29153 -11.68099,16.01882 -22.01511,15.38268c-11.97768,-0.7373 -21.4823,-10.00269 -20.61654,-23.67184c0.86575,-13.66917 11.401,-23.80829 23.37868,-23.07098c11.97768,0.7373 20.27068,11.50693 19.40493,25.1761z" fill="#ffffff" stroke="#000000" stroke-width="2" stroke-linecap="butt"/><path d="M329.45785,161.75602c-0.33228,2.77975 -1.46005,4.93057 -2.51895,4.80399c-1.05888,-0.12657 -1.64792,-2.48262 -1.31563,-5.26236c0.33228,-2.77975 1.46004,-4.93057 2.51893,-4.804c1.05888,0.12657 1.64794,2.48262 1.31565,5.26236z" fill="#000000" stroke="none" stroke-width="0" stroke-linecap="butt"/><path d="M343.48999,163.45326c-0.27396,2.29187 -1.2038,4.0652 -2.07684,3.96084c-0.87304,-0.10436 -1.35871,-2.04689 -1.08475,-4.33876c0.27396,-2.29187 1.2038,-4.06521 2.07685,-3.96085c0.87304,0.10436 1.35871,2.04689 1.08475,4.33877z" fill="#000000" stroke="none" stroke-width="0" stroke-linecap="butt"/><path d="M344.02401,172.83838l-27.07081,-5.01393" fill="none" stroke="#000000" stroke-width="2" stroke-linecap="round"/><path d="M316.88644,165.59395l-1.4444,3.71672" fill="none" stroke="#000000" stroke-width="2" stroke-linecap="round"/><path d="M322.13073,215.5802l-3.56979,9.47053" fill="none" stroke="#000000" stroke-width="2" stroke-linecap="round"/><path d="M334.82879,181.13267c0,0 -1.43804,4.8098 -6.01619,5.1431c-4.11893,0.29987 -7.6113,-1.4222 -9.12936,-2.93057c-1.87885,-1.86684 -1.25513,-3.64109 -1.25513,-3.64109" fill="none" stroke="#000000" stroke-width="1.5" stroke-linecap="round"/><path d="M325.76561,193.95168l0.4631,-7.77779" fill="none" stroke="#000000" stroke-width="1.5" stroke-linecap="round"/><path d="M331.05213,193.9925l0.40222,-7.91366" fill="none" stroke="#000000" stroke-width="1.5" stroke-linecap="round"/><path d="M336.7642,229.36412l-29.97192,-2.78712" fill="none" stroke="#000000" stroke-width="2" stroke-linecap="round"/><path d="M318.60717,181.2151c2.35597,0.36861 0.245,16.45794 -1.59307,28.61238c-2.14161,-0.12068 -4.28133,-0.26134 -6.41473,-0.49194c-1.57085,-0.1698 -3.13815,-0.24825 -4.71238,-0.31216c0.28349,-1.3821 -0.3669,-1.72152 -0.02897,-3.19378c2.59772,-11.31789 7.72036,-25.40127 12.74917,-24.61449z" fill="#334865" stroke="#000000" stroke-width="2" stroke-linecap="butt"/><path d="M315.02939,222.70919c-0.43382,4.27303 -2.76552,6.60178 -6.36435,6.23642c-3.59884,-0.36536 -5.1815,-4.30413 -4.74769,-8.57715c0.13328,-1.31289 0.78632,-5.64766 1.86815,-10.98573c1.58918,0.06402 3.1711,0.14149 4.75663,0.31286c2.12676,0.2299 4.25976,0.37073 6.39467,0.49137c-0.92403,6.08373 -1.76311,11.10078 -1.90743,12.52223z" fill="#ffffff" stroke="#000000" stroke-width="2" stroke-linecap="butt"/><path d="M323.18011,188.49629c0.07789,1.12652 -1.68783,1.37378 -2.31759,2.8765c-1.55235,3.70427 -3.24059,8.90934 -4.74367,9.01327c-2.11285,0.14609 -0.32016,-7.45734 -0.59004,-11.36075c-0.26989,-3.9034 1.71597,-7.61108 3.82881,-7.75717c0.2549,-0.01763 0.75437,-0.16019 1.19985,-0.22545c0.17958,2.22539 1.09286,4.25714 2.50585,5.84055c0.04301,0.53599 0.07982,1.07818 0.11681,1.61304z" fill="#334865" stroke="none" stroke-width="0" stroke-linecap="butt"/><g stroke-linecap="butt"><path d="M353.91901,162.07241c-1.17162,9.08378 -6.74352,16.19472 -14.22178,19.67767c-0.77711,0.36193 0.23333,-0.1542 1.38469,0.5592c1.82747,1.13234 1.73076,2.17851 -1.87207,2.41988c-3.88506,0.26029 -9.89587,-0.0389 -15.71078,-0.91101c-3.84801,-0.57711 -8.36865,-1.77151 -9.40857,-1.90564c-2.42568,-0.31286 -4.67572,-2.25152 -2.70396,-3.18842c1.45904,-0.69327 1.28869,-0.58378 0.76683,-1.06247c-5.81484,-5.33392 -8.94198,-13.43918 -7.80969,-22.21803c1.8329,-14.21069 14.13284,-24.80514 27.9554,-23.02231c13.82256,1.78283 23.45283,15.44045 21.61994,29.65116z" fill="url(#color-1)" stroke="#111111" stroke-width="2"/><path d="M347.46503,147.09503c0.24057,2.63199 -1.93151,3.73518 -4.22722,2.38031c-0.42174,-0.2489 -1.4154,-2.65413 -1.89037,-3.07568c-1.38,-1.22481 -3.86915,-1.4144 -4.57216,-3.12038c-0.67516,-0.52557 -1.06282,-1.38431 -0.94545,-2.29434c0.17662,-1.36937 1.42989,-2.33629 2.79926,-2.15966c0.51903,0.06695 0.98025,0.28857 1.34329,0.61257c3.42611,0.57469 7.18615,4.3043 7.49262,7.65718z" fill="#ffffff" stroke="none" stroke-width="0.5"/></g></g></g></svg>