<svg version="1.1" xmlns="http://www.w3.org/2000/svg" xmlns:xlink="http://www.w3.org/1999/xlink" width="483.2936" height="459.66112" viewBox="0,0,483.2936,459.66112"><g transform="translate(-47.16651,28.89111)"><g data-paper-data="{&quot;isPaintingLayer&quot;:true}" fill-rule="nonzero" stroke-linejoin="miter" stroke-miterlimit="10" stroke-dasharray="" stroke-dashoffset="0" style="mix-blend-mode: normal"><path d="M292.56165,353.68403c15.57701,-3.23987 42.79258,3.62077 45.19197,14.38212c2.3994,10.76133 -6.04412,26.92773 -21.62113,30.1676c-15.57701,3.23987 -30.14977,-2.85748 -32.54917,-13.61881c-2.3994,-10.76133 -6.59869,-27.69102 8.97833,-30.93089z" fill="#ffffff" stroke="#000000" stroke-width="2" stroke-linecap="butt"/><g stroke="#000000" stroke-linecap="butt"><path d="M202.2766,239.68559c10.30847,-11.40431 34.22859,4.00023 61.92495,33.98176c19.33008,20.92496 46.61763,56.47685 57.4272,79.6306c4.52474,9.69182 -29.65047,29.55949 -32.69221,32.92458c-3.65828,4.04719 -46.80523,-52.53846 -62.69403,-74.36688c-11.95935,-16.43006 -29.03783,-66.55896 -23.9659,-72.17008z" data-paper-data="{&quot;index&quot;:null}" fill="#ff2b2b" stroke-width="2"/><path d="M318.7026,346.41342c1.6401,-1.02218 4.58711,0.91337 6.58234,4.32317c1.99523,3.40982 2.28311,7.00265 0.64301,8.02482c-1.33321,0.83092 -23.33169,22.77841 -34.53963,26.28722c-2.57999,0.80771 -9.52321,-6.55887 -9.89656,-7.1969c-1.99523,-3.40982 35.57072,-30.41612 37.21082,-31.4383z" data-paper-data="{&quot;index&quot;:null}" fill="#d12424" stroke-width="1.5"/></g><path d="M81.7937,366.73891c13.55155,10.61593 27.36032,39.07803 20.57336,49.62931c-6.78696,10.55127 -25.4893,16.20702 -39.04085,5.59109c-13.55155,-10.61593 -19.03538,-27.77532 -12.24842,-38.32659c6.78696,-10.55127 17.16436,-27.50973 30.71591,-16.8938z" fill="#ffffff" stroke="#000000" stroke-width="2" stroke-linecap="butt"/><path d="M274.83419,409.70797c0,9.5128 -14.02515,18.92565 -62.46133,18.92565c-48.43618,0 -87.70146,-7.71166 -87.70146,-17.22445c0,-5.04901 -6.14467,-60.86327 1.40775,-111.38414c6.67703,-44.66507 15.45775,-74.59127 54.82709,-73.99257c16.45674,0.25026 42.38808,-3.60908 56.61926,25.03767c6.05771,12.19389 14.92714,29.84946 18.93668,44.37692c14.293,51.78686 18.37201,109.3563 18.37201,114.26093z" fill="#ff2b2b" stroke="#000000" stroke-width="2" stroke-linecap="butt"/><path d="M199.42608,255.24003c0,0 5.19249,67.67689 6.46388,97.65594c1.13613,26.79028 0.80439,73.73013 0.80439,73.73013" fill="none" stroke="#000000" stroke-width="1.5" stroke-linecap="round"/><path d="M261.20596,390.14751c0.45371,1.3785 -0.7801,4.3296 -2.75583,6.59149c-1.97571,2.26187 -3.94511,2.97803 -4.39884,1.59953c-0.38622,-1.17344 -14.41526,-35.85279 -15.74107,-48.50098c-0.23171,-2.21039 5.20638,-6.87968 5.50027,-7.21616c1.97571,-2.26187 16.94174,46.14765 17.39545,47.52614z" data-paper-data="{&quot;index&quot;:null}" fill="#d12424" stroke="#000000" stroke-width="1.5" stroke-linecap="butt"/><path d="M161.7194,343.03176c0.34035,0.33648 6.63779,5.00575 6.36947,7.21614c-1.53533,12.64819 -17.78133,47.32756 -18.22859,48.50101c-0.52543,1.3785 -2.80604,0.66236 -5.09396,-1.59953c-2.28794,-2.26187 -3.71675,-5.213 -3.19132,-6.5915c0.52543,-1.3785 17.85648,-49.78801 20.14442,-47.52614z" data-paper-data="{&quot;index&quot;:null}" fill="#d12424" stroke="#000000" stroke-width="1.5" stroke-linecap="butt"/><path d="M275.33538,406.13697c0,0.8542 2.97325,13.90483 -2.78175,15.2481c-13.85647,3.23426 -44.78488,9.54537 -73.29107,8.52454c-38.07365,-1.36345 -73.48812,-10.88432 -74.13776,-10.88432c-1.33805,0 -2.42274,-4.58666 -2.42274,-10.24457c0,-5.65792 1.08469,-10.24458 2.42274,-10.24458c0.63734,0 38.42747,12.86494 78.4168,11.72888c34.16589,-0.97062 71.79378,-4.43231 71.79378,-4.12806z" fill="#d12424" stroke="#000000" stroke-width="1.5" stroke-linecap="butt"/><g stroke="#000000" stroke-linecap="butt"><path d="M144.98852,322.49459c-9.35774,19.37874 -24.10573,57.42199 -40.87942,81.59305c-2.79463,4.02711 -18.33254,-2.51705 -31.77449,-10.16374c-11.39254,-6.48085 -21.45782,-13.26633 -19.12493,-20.1588c8.61113,-25.44135 25.7641,-54.52948 39.92988,-76.47623c23.26252,-36.04017 47.55973,-60.70634 61.61424,-51.3637c6.91505,4.59673 -0.55371,57.49339 -9.76529,76.56945z" fill="#ff2b2b" stroke-width="2"/><path d="M111.87372,395.39591c-0.32335,0.89164 -7.34077,11.86882 -10.73952,11.53164c-14.76475,-1.46478 -47.10563,-23.1012 -48.95423,-23.79057c-2.27414,-0.84807 -2.71686,-5.39843 -0.98886,-10.16352c1.728,-4.76508 4.97236,-7.94045 7.24649,-7.09237c2.27414,0.84807 55.16412,24.74972 53.43612,29.51481z" fill="#d12424" stroke-width="1.5"/></g><path d="M227.21988,241.22142c-0.49036,7.84572 -14.33018,15.05038 -33.52719,13.85057c-19.19699,-1.1998 -36.4816,-10.34974 -35.99126,-18.19547c0.49036,-7.84572 13.72452,-12.02192 32.92151,-10.82209c19.19699,1.1998 37.08729,7.32128 36.59695,15.16701z" fill="#d12424" stroke="#000000" stroke-width="1.5" stroke-linecap="butt"/><path d="M217.59575,216.03195c0,0.71089 1.27673,20.36119 -3.53343,25.5239c-3.53601,3.79515 -14.38033,5.69543 -22.90239,4.4275c-9.87968,-1.46991 -17.37209,-6.62499 -18.38608,-8.92964c-3.5406,-8.04719 -3.3293,-19.82228 -3.3293,-21.02177c0,-1.83933 10.77901,-3.33039 24.07559,-3.33039c13.29658,0 24.07559,1.49106 24.07559,3.33039z" fill="#ffffff" stroke="#000000" stroke-width="2" stroke-linecap="butt"/><path d="M263.26103,160.91331c0,2.51934 3.24579,10.74713 3.03674,13.18465c-3.29172,38.3812 -35.30881,60.33152 -72.24254,60.33152c-35.9982,0 -68.31675,-24.87532 -73.3049,-61.7461c-0.45466,-3.36067 0.26766,-8.24589 0.26766,-11.77007c0,-42.18892 31.84219,-76.38977 71.12151,-76.38977c39.27932,0 71.1215,34.20085 71.1215,76.38977z" fill="#ffffff" stroke="#000000" stroke-width="2" stroke-linecap="butt"/><path d="M257.19579,94.02452c0.9475,9.475 -34.06559,33.23427 -72.88677,37.11638c-38.8212,3.88212 -69.14434,-9.27258 -70.09184,-18.74759c-0.9475,-9.475 23.52907,-24.61348 62.35025,-28.4956c38.8212,-3.88212 79.68088,0.6518 80.62838,10.12681z" fill-opacity="0.36859" fill="#191318" stroke="#000000" stroke-width="0" stroke-linecap="butt"/><path d="M261.51023,137.66703c-6.2136,1.98675 -8.20034,-4.22687 -8.20034,-4.22687l-1.97563,-6.29256c-0.0564,-1.32769 0.70949,-2.98614 -0.16921,-3.98306c-1.43044,-1.6229 -4.56603,-1.08412 -5.83881,-2.83338c-1.15787,-1.59136 -1.67898,-3.50946 -2.12619,-5.46547c-0.38134,0.52383 -0.78863,0.94283 -1.22658,1.14266c-4.1252,1.88215 -15.71441,1.36916 -19.99235,-0.07254c-2.99804,-1.01036 -5.78287,-2.72619 -8.2225,-4.74047c-1.19604,-0.98753 -2.90165,-6.41804 -6.12462,-5.85508c-4.06293,0.70968 -8.21088,1.46061 -11.95479,3.19098c-2.28463,1.05591 -3.43901,3.97302 -5.80689,4.82598c-8.17664,2.9454 -15.67453,-2.49847 -23.04299,-0.67713c-4.05748,1.00294 -6.4396,5.36607 -9.96774,7.6069c-5.62627,3.57341 -8.23101,4.06507 -14.28122,6.07852c-2.88911,1.82306 -6.8018,2.73097 -8.53347,5.67578c-1.80048,3.06183 0.47153,7.10922 0.23526,10.65333c-0.6155,9.23362 -2.74316,16.6032 -7.50459,24.28471c0.70097,1.20512 1.03196,2.82721 0.41804,4.97397c-1.79363,6.27209 -8.0657,4.47847 -8.0657,4.47847c-2.90891,-0.9466 -6.23254,-1.0687 -8.72675,-2.83976c-7.80904,-5.54498 -10.49734,-17.72034 -10.45006,-26.58264c0.01551,-2.90831 0.3934,-5.86315 1.29371,-8.62866c0.59557,-1.82944 0.69266,-7.40009 0.15366,-9.00484c-1.1522,-3.4304 -1.7437,-13.07875 -1.07373,-16.62684c0.55539,-2.94123 5.21319,-13.58132 7.16191,-15.66985c2.42732,-2.60149 7.70529,-2.94392 9.3638,-6.76056c2.90797,-6.69198 2.63789,-14.28073 7.71784,-20.38241c2.79515,-3.35735 10.39991,-7.59781 14.03405,-9.81771c6.89338,-1.59806 12.42145,-3.49571 19.54293,-2.9892c1.9036,0.1354 3.63767,1.97892 5.50352,1.57801c1.90818,-0.41002 2.76474,-2.86278 4.51307,-3.73032c15.63221,-7.75688 38.10626,-12.59171 53.52154,-2.74175c2.7371,1.74894 5.65205,3.42807 7.74819,5.90935c1.34163,1.58814 0.75376,4.33115 2.18036,5.84341c0.98497,1.04413 2.80436,0.6141 4.20549,0.92586c5.15831,1.14772 10.31622,2.84617 14.83943,5.57856c13.63248,8.23515 19.51295,21.75728 20.58414,37.16759c-0.73575,8.6553 1.23711,15.22083 -7.46209,15.45479c0.09346,0.45987 0.19837,0.9143 0.3234,1.35922l1.63273,4.99274c0,0 1.98674,6.2136 -4.22686,8.20034z" fill="#000000" stroke="none" stroke-width="0.5" stroke-linecap="butt"/><path d="M184.09833,166.73675c0,7.53845 -4.07407,13.64957 -9.09971,13.64957c-5.02564,0 -9.09971,-6.11112 -9.09971,-13.64957c0,-7.53845 4.07407,-13.64959 9.09971,-13.64959c5.02564,0 9.09971,6.11113 9.09971,13.64959z" fill="#000000" stroke="#000000" stroke-width="0" stroke-linecap="butt"/><path d="M227.75203,164.99804c0,6.19938 -3.43082,11.225 -7.66293,11.225c-4.2321,0 -7.66293,-5.02562 -7.66293,-11.225c0,-6.19938 3.43082,-11.22499 7.66293,-11.22499c4.2321,0 7.66293,5.02561 7.66293,11.22499z" fill="#000000" stroke="#000000" stroke-width="0" stroke-linecap="butt"/><path d="M244.86021,187.74039c0,0 -8.99328,2.40507 -20.5623,3.5326c-9.55584,0.93132 -21.1634,0.50034 -28.30869,1.46097c-14.7919,1.98865 -39.12944,4.44739 -44.64211,-3.19906" fill="none" stroke="#000000" stroke-width="2" stroke-linecap="round"/><path d="M193.05669,277.33081c0.02341,0.16625 0.02557,0.33498 0.00458,0.50435c-0.17265,1.39317 -1.84677,2.30116 -3.73927,2.02806c-1.25765,-0.18148 -2.29526,-0.83891 -2.7992,-1.66843c-2.05141,-1.22273 -0.09185,-3.72804 -0.01565,-5.58144c0.22457,-5.4631 1.76152,-10.53584 2.43023,-15.91572c0.15052,-1.21093 -0.97993,-8.87034 4.48939,-8.08108c5.46943,0.78928 2.51389,7.8606 2.3638,9.07116c-0.57529,4.63983 -1.9549,9.05681 -2.40091,13.74478c-0.22854,2.40204 0.28261,4.38118 -0.33298,5.8983z" data-paper-data="{&quot;index&quot;:null}" fill="#969696" stroke="#000000" stroke-width="1.5" stroke-linecap="butt"/><path d="M208.66268,271.62739c-0.83161,-4.58942 -2.56863,-8.94178 -3.52472,-13.48802c-0.24945,-1.18614 -3.77255,-8.17606 1.59784,-8.78536c5.37027,-0.60928 4.88125,6.83431 5.13115,8.02082c1.11026,5.27139 3.05795,10.26854 3.73369,15.60808c0.22925,1.81148 2.3843,4.31483 0.44678,5.44797c-0.43213,0.7949 -1.40888,1.40607 -2.64377,1.54618c-1.85822,0.21082 -3.59725,-0.72485 -3.88424,-2.08992c-0.03487,-0.16595 -0.04672,-0.33059 -0.03723,-0.49219c-0.73747,-1.49912 -0.39339,-3.41603 -0.8195,-5.76757z" data-paper-data="{&quot;index&quot;:null}" fill="#969696" stroke="#000000" stroke-width="1.5" stroke-linecap="butt"/><path d="M214.53774,234.26781c0,3.39748 -4.76788,6.90497 -16.06972,6.90497c-11.30184,0 -24.85787,-3.50748 -24.85787,-6.90497c0,-3.39748 8.28315,1.00435 19.58498,1.00435c11.30184,0 21.3426,-4.40184 21.3426,-1.00435z" fill-opacity="0.42325" fill="#181317" stroke="#000000" stroke-width="0" stroke-linecap="butt"/><g stroke-linecap="butt"><path d="M216.97164,109.30555c0.07218,0.46906 -0.25248,5.45792 0.65335,10.23944c1.0349,5.46283 5.47775,11.05938 2.16597,14.70686c-8.45557,9.31262 -33.47239,8.98856 -40.99635,9.98069c-6.92849,0.9136 -6.67038,-6.86367 -7.10368,-14.43346c-0.38283,-6.68834 -1.80696,-13.14858 -1.97827,-14.26184c-0.36521,-2.37321 9.91804,-5.69211 22.96825,-7.41294c13.05021,-1.72084 23.92554,-1.19197 24.29075,1.18124z" fill="#ffc98b" stroke="#000000" stroke-width="2"/><path d="M173.10959,119.5919c-0.22573,-1.46688 1.04923,-1.635 1.04923,-1.635l0.43844,-0.05341c10.99882,-0.46025 15.60851,19.85416 4.01554,21.48337c0,0 -0.00576,0.00075 -0.01655,0.00173c-0.15938,0.17929 -0.39373,0.31844 -0.73663,0.36366c-1.27497,0.16811 -1.5007,-1.29877 -1.5007,-1.29877l-0.08026,-0.52155c-0.88012,-5.71947 -1.55083,-11.4649 -2.41278,-17.17569c-0.32326,-0.15739 -0.65195,-0.48609 -0.75632,-1.16435zM178.64404,136.37687c7.13824,-1.4053 4.39033,-13.78902 -2.14088,-15.36382c0.75536,5.11115 1.37768,10.24487 2.14088,15.36382z" fill="#000000" stroke="none" stroke-width="0.5"/><path d="M191.07397,115.35637c1.10716,-0.43949 1.55876,0.96851 1.55876,0.96851l0.27178,0.92285c0.40441,2.62811 0.80946,5.25611 1.21225,7.88444c0.21468,2.55025 0.7325,6.65831 -0.70052,8.63121c-1.75244,2.41264 -4.78432,1.55411 -6.29446,-1.16348c-2.10384,-3.78597 -2.10872,-10.92554 -2.77992,-15.28736c0,0 -0.22574,-1.46687 0.94849,-1.62171c1.17422,-0.15484 1.39995,1.31204 1.39995,1.31204c0.60873,3.95579 0.57395,10.63192 2.38091,14.09801c2.611,5.00841 2.79726,-4.47239 2.68039,-5.78124c-0.39991,-2.58724 -0.79735,-5.17478 -1.19551,-7.76225l-0.13762,-0.3535c0,0 -0.45163,-1.40803 0.65551,-1.84754z" fill="#000000" stroke="none" stroke-width="0.5"/><path d="M198.07093,132.90051c-1.24195,0.16376 -1.48818,-1.43635 -1.48818,-1.43635l-0.04377,-0.28447c-0.75952,-5.01217 -1.28716,-9.84742 -1.00898,-14.80843c0,0 0.07853,-1.39675 1.13123,-1.35219c0.77593,-0.10007 1.16215,0.48932 1.3424,0.94351c1.12387,1.45453 1.9456,3.15653 2.85381,4.80956c0.30297,-1.97423 0.40355,-4.07563 0.64653,-6.04259c0,0 0.19303,-1.55976 1.44436,-1.16683c0.02813,0.00883 0.05553,0.01825 0.08221,0.02825c0.97976,-0.24555 1.44377,1.05399 1.44377,1.05399l0.24285,0.69617c1.32664,4.81175 2.38681,10.1095 2.19851,15.01134c0,0 -0.06233,1.59207 -1.32692,1.36285c-1.26459,-0.2292 -1.20225,-1.82127 -1.20225,-1.82127c0.1083,-2.71011 -0.72169,-5.51831 -1.03964,-8.36964c-0.12267,0.84974 -0.27416,1.68446 -0.47598,2.49126l-0.34422,0.68876c-0.0634,0.19527 -0.17208,0.39126 -0.34352,0.57798c-0.26436,0.28794 -0.52529,0.38752 -0.76274,0.38351c-0.2372,-0.00045 -0.51202,-0.10505 -0.81585,-0.39829c-0.16968,-0.16378 -0.2937,-0.33357 -0.38236,-0.50319c-0.85466,-1.29475 -1.54665,-2.76607 -2.3054,-4.14887c-0.05574,3.41785 0.56294,6.76876 1.10608,10.23658l0.04376,0.28447c0,0 0.24623,1.60013 -0.99572,1.76389z" fill="#000000" stroke="none" stroke-width="0.5"/><path d="M216.72777,131.01529c0.14269,1.60237 -0.93774,1.65813 -0.93774,1.65813l-0.39775,0.01578c-1.62009,0.26969 -6.08185,1.7604 -7.0569,-1.44323c-0.27826,-0.91428 0.35291,-1.80965 0.52755,-2.71545c0.31835,-1.65107 1.79683,-7.61885 3.15169,-9.93176c-1.24877,0.00026 -2.48916,0.08932 -3.7354,0.15365c0,0 -1.08043,0.05577 -1.22312,-1.54659c-0.14269,-1.60237 0.93774,-1.65814 0.93774,-1.65814c1.73186,-0.08939 3.44528,-0.20347 5.19019,-0.10196l0.10106,0.07877l0.00473,-0.05039l1.07101,0.36477c0.48573,0.1492 0.89039,0.76165 0.95728,1.51279c0.04907,0.55109 -0.09523,1.04689 -0.35519,1.34999l-0.64966,0.78009c-0.91326,2.40763 -1.70984,4.86575 -2.56895,7.37271c-0.28385,0.82832 -0.46787,2.49697 -0.98323,3.22402c0.21008,-0.12005 0.44245,-0.23072 0.58181,-0.25053c1.1961,-0.17002 2.40305,-0.12409 3.5991,-0.32551l0.56264,-0.03378c0,0 1.08043,-0.05577 1.22312,1.54659z" fill="#000000" stroke="none" stroke-width="0.5"/></g><g stroke="#000000"><path d="M281.33023,68.90974c1.50151,11.3601 -7.47253,27.99882 -61.65224,40.45745c-99.27025,22.8272 -133.54214,13.81536 -135.04363,2.45526c-1.50151,-11.3601 41.31317,-30.17558 95.62923,-42.0256c54.31607,-11.85 99.56513,-12.24721 101.06664,-0.88711z" fill="#1f1d1c" stroke-width="2" stroke-linecap="butt"/><path d="M241.40236,73.29218c0.79717,7.9458 -20.70659,19.47191 -58.80006,26.53684c-38.09347,7.06493 -62.59209,1.52876 -63.38926,-6.41704c-0.10408,-1.03746 -24.38101,-91.40585 -23.47863,-92.56653c6.00886,-7.72883 33.18801,-17.72923 66.30777,-23.87172c31.73993,-5.88658 58.92118,-6.37269 67.56638,-1.77484c1.73056,0.92038 11.66086,96.76804 11.79381,98.09331z" fill="#1f1d1c" stroke-width="2" stroke-linecap="butt"/><path d="M240.76491,51.1977c0.24296,1.03629 5.11219,22.24024 2.66693,23.76229c-60.96761,37.94931 -117.52046,23.8102 -120.81778,24.58326c-3.6959,0.86651 -5.27691,-2.62105 -7.70921,-11.14948c-2.10162,-7.36894 -3.47394,-14.96765 0.22195,-15.83416c2.14011,-0.50175 40.43427,-1.42189 75.31258,-8.65234c25.35544,-5.25631 49.37715,-16.75463 50.32552,-12.70956z" fill="#770e00" stroke-width="2" stroke-linecap="butt"/><path d="M116.70761,86.43927h13.88905" fill="none" stroke-width="1.5" stroke-linecap="round"/><path d="M239.79333,62.49262l-10.53652,4.78934" fill="none" stroke-width="1.5" stroke-linecap="round"/></g><path d="M259.8455,65.37101c1.07188,5.8541 -0.36565,28.72324 -63.37052,41.00721c-61.87188,12.06305 -93.47942,0.27833 -94.5513,-5.57577c-0.42511,-2.32174 4.10362,-5.70774 12.83187,-9.51776c4.42792,-1.93285 0.41188,6.72307 8.25169,8.06302c15.67173,2.67857 47.15203,0.51562 67.19146,-3.15359c17.58619,-3.21999 33.26632,-8.24445 41.83669,-12.98386c6.59675,-3.64799 7.2246,-7.51749 12.06256,-7.86627c1.50176,-0.10827 -2.34423,-13.08409 -0.97371,-13.05999c4.72962,0.08318 16.40931,1.38331 16.72125,3.08699z" fill-opacity="0.3426" fill="#0d0010" stroke="none" stroke-width="0" stroke-linecap="butt"/><path d="M163.83332,267.84205c2.03597,16.38473 -0.3924,30.17402 -5.42394,30.79924c-5.03153,0.62522 -10.76089,-12.15039 -12.79685,-28.53512c-2.03597,-16.38473 0.3924,-30.17402 5.42394,-30.79924c5.03153,-0.62522 10.76089,12.15039 12.79685,28.53512z" fill="#ff2b2b" stroke="none" stroke-width="0" stroke-linecap="butt"/><text transform="translate(280.5,165.21667) scale(1.53331,1.47675)" font-size="40" xml:space="preserve" fill="#9966ff" fill-rule="nonzero" stroke="none" stroke-width="1" stroke-linecap="butt" stroke-linejoin="miter" stroke-miterlimit="10" stroke-dasharray="" stroke-dashoffset="0" font-family="&quot;Puffy&quot;, Playful" font-weight="normal" text-anchor="start" style="mix-blend-mode: normal"><tspan x="0" dy="0">DumzDev</tspan></text><text transform="translate(288.00001,194.77848) scale(0.61945,0.5966)" font-size="40" xml:space="preserve" fill="#ffffff" fill-rule="nonzero" stroke="none" stroke-width="1" stroke-linecap="butt" stroke-linejoin="miter" stroke-miterlimit="10" stroke-dasharray="" stroke-dashoffset="0" font-family="&quot;Puffy&quot;, Playful" font-weight="normal" text-anchor="start" style="mix-blend-mode: normal"><tspan x="0" dy="0">Game Developer</tspan></text><text transform="translate(286.50001,237.77848) scale(0.61945,0.5966)" font-size="40" xml:space="preserve" fill="#ffffff" fill-rule="nonzero" stroke="none" stroke-width="1" stroke-linecap="butt" stroke-linejoin="miter" stroke-miterlimit="10" stroke-dasharray="" stroke-dashoffset="0" font-family="&quot;Puffy&quot;, Playful" font-weight="normal" text-anchor="start" style="mix-blend-mode: normal"><tspan x="0" dy="0">Music Producer</tspan></text><text transform="translate(286.50001,216.27848) scale(0.61945,0.5966)" font-size="40" xml:space="preserve" fill="#ffffff" fill-rule="nonzero" stroke="none" stroke-width="1" stroke-linecap="butt" stroke-linejoin="miter" stroke-miterlimit="10" stroke-dasharray="" stroke-dashoffset="0" font-family="&quot;Puffy&quot;, Playful" font-weight="normal" text-anchor="start" style="mix-blend-mode: normal"><tspan x="0" dy="0">Game Design</tspan></text></g></g></svg>