<svg version="1.1" xmlns="http://www.w3.org/2000/svg" xmlns:xlink="http://www.w3.org/1999/xlink" width="11.99728" height="17.54772" viewBox="0,0,11.99728,17.54772"><g transform="translate(-314.00136,-171.41364)"><g data-paper-data="{&quot;isPaintingLayer&quot;:true}" fill="#ff0000" fill-rule="nonzero" stroke="none" stroke-width="0.5" stroke-linecap="butt" stroke-linejoin="miter" stroke-miterlimit="10" stroke-dasharray="" stroke-dashoffset="0" style="mix-blend-mode: normal"><path d="M319.24864,176.84024c-0.02871,0.00323 0.82961,0.27069 1.08688,0.25923c0.54297,-0.02418 1.92189,0.27765 2.41312,0.58327c2.03112,1.26368 3.00849,3.32443 2.75,5.89755c-0.33227,3.30759 -6.74739,7.40462 -9.64754,4.2476c-0.35891,-0.3907 -0.82869,-0.75249 -0.96353,-1.27364c-1.44837,-5.59811 3.86736,-2.16582 5.51147,-3.8647c0.36629,-0.37849 -1.80136,-0.5237 -1.90041,-0.53504c-1.32548,-0.15176 -3.40991,-0.5008 -4.0625,-1.68502c-0.91575,-1.66175 -0.26828,-6.7663 0.86026,-8.3915c0.66017,-0.95071 5.2076,-0.69101 7.75412,-0.3809c0.14539,-0.02728 0.29515,-0.04153 0.44812,-0.04153c0.4408,0 0.85495,0.11829 1.21454,0.32594c0.76676,0.44276 1.28546,1.29177 1.28546,2.26639c0,1.43171 -1.11929,2.59233 -2.5,2.59233c-0.13719,0 -0.27179,-0.01146 -0.40297,-0.0335c-0.98054,0.1121 -2.14006,-0.15826 -3.84703,0.0335z"/></g></g></svg>