<svg version="1.1" xmlns="http://www.w3.org/2000/svg" xmlns:xlink="http://www.w3.org/1999/xlink" width="53.59788" height="68.48188" viewBox="0,0,53.59788,68.48188"><g transform="translate(-322.42272,-73.32691)"><g data-paper-data="{&quot;isPaintingLayer&quot;:true}" fill-rule="nonzero" stroke-linecap="butt" stroke-linejoin="miter" stroke-miterlimit="10" stroke-dasharray="" stroke-dashoffset="0" style="mix-blend-mode: normal"><path d="M327.42272,140.80878c-2.20914,0 -4,-1.79086 -4,-4l1.98453,-57.48961c0,-2.20914 1.79086,-4 4,-4l41.61335,-0.99226c2.20914,0 4,1.79086 4,4v58.48188c0,2.20914 -1.79086,4 -4,4z" fill="#369746" stroke="#000000" stroke-width="2"/><text transform="translate(330.59451,135.28658) scale(0.31521,0.26842)" font-size="40" xml:space="preserve" fill="#ffffff" fill-rule="nonzero" stroke="#ffffff" stroke-width="2" stroke-linecap="butt" stroke-linejoin="miter" stroke-miterlimit="10" stroke-dasharray="" stroke-dashoffset="0" font-family="Playful" font-weight="normal" text-anchor="start" style="mix-blend-mode: normal"><tspan x="0" dy="0">Points</tspan></text><path d="M333.73628,107.05698c-2.2407,0 -4.05714,-1.52682 -4.05714,-3.41026v-18.38933c0,-1.88344 1.81644,-3.41026 4.05714,-3.41026h32.25937c2.2407,0 4.05714,1.52683 4.05714,3.41026v18.38933c0,1.88344 -1.81644,3.41026 -4.05714,3.41026z" fill="#9eab9a" stroke="#ffffff" stroke-width="1"/><path d="M333.98647,104.9002c-2.20914,0 -4,-1.52682 -4,-3.41026v-18.38933c0,-1.88344 1.79086,-3.41026 4,-3.41026h31.80501c2.20914,0 4,1.52683 4,3.41026v18.38933c0,1.88344 -1.79086,3.41026 -4,3.41026z" fill="#e6ffe7" stroke="#ffffff" stroke-width="1"/><text transform="translate(334.98586,98.12202) scale(0.44437,0.48951)" font-size="40" xml:space="preserve" fill="#5cff77" fill-rule="nonzero" stroke="#ffffff" stroke-width="2" stroke-linecap="butt" stroke-linejoin="miter" stroke-miterlimit="10" stroke-dasharray="" stroke-dashoffset="0" font-family="&quot;Puffy&quot;, Playful" font-weight="normal" text-anchor="start" style="mix-blend-mode: normal"><tspan x="0" dy="0">Buy</tspan></text><text transform="translate(334.99172,98.10168) scale(0.44437,0.48951)" font-size="40" xml:space="preserve" fill="#5cff77" fill-rule="nonzero" stroke="#008c17" stroke-width="2" stroke-linecap="butt" stroke-linejoin="miter" stroke-miterlimit="10" stroke-dasharray="" stroke-dashoffset="0" font-family="&quot;Puffy&quot;, Playful" font-weight="normal" text-anchor="start" style="mix-blend-mode: normal"><tspan x="0" dy="0">Buy</tspan></text></g></g></svg>