<svg version="1.1" xmlns="http://www.w3.org/2000/svg" xmlns:xlink="http://www.w3.org/1999/xlink" width="541.28067" height="303.86176" viewBox="0,0,541.28067,303.86176"><g transform="translate(-43.82353,-40.8245)"><g data-paper-data="{&quot;isPaintingLayer&quot;:true}" fill-rule="nonzero" stroke-linejoin="miter" stroke-miterlimit="10" stroke-dasharray="" stroke-dashoffset="0" style="mix-blend-mode: normal"><g data-paper-data="{&quot;index&quot;:null}" stroke-width="3"><path d="M175.68936,246.00407c6.2253,-7.05019 12.62253,-10.91538 14.28863,-8.63313c0.7708,1.05586 14.8951,7.95011 23.90984,15.8572c2.06208,1.8087 5.83302,8.01492 6.18255,14.71734c0.3496,6.70388 -2.72248,13.90391 -3.12641,15.03888c-3.90866,10.98253 -7.83264,23.425 -7.17583,25.54423c2.22295,7.17242 5.51323,16.81416 0.68487,17.15919c-11.65407,0.83277 -21.01305,-9.7942 -26.40061,-17.50479c-2.99443,-4.28559 -6.48223,-10.42668 -4.83768,-14.01385c3.45238,-7.53058 11.18737,-19.3629 6.17168,-21.57306c-3.91611,-1.72563 -22.43173,-16.22938 -22.75176,-16.66776c-1.6661,-2.28223 6.82943,-2.8741 13.05472,-9.92427z" fill="#ffffff" stroke="#000000" stroke-linecap="butt"/><path d="M143.49594,255.31198c8.69145,-2.81801 16.04555,-2.78167 16.42585,0.08116c0.38029,2.86284 25.05818,39.54638 16.36672,42.3644c-1.41995,0.46038 -24.05995,21.86706 -29.95904,22.61409c-2.88268,0.36506 -3.19659,25.95499 -9.86377,22.49258c-10.49954,-5.45261 -13.65931,-19.63139 -14.73472,-29.17563c-0.59772,-5.30475 -0.75744,-12.48071 2.34356,-14.72148c6.50994,-4.70407 18.74314,-10.87107 15.42316,-15.44621c-6.29231,-8.6712 -10.92622,-16.98766 -11.05044,-17.92279c-0.38029,-2.86283 6.35723,-7.46808 15.04869,-10.28609z" fill="#ffffff" stroke="#000000" stroke-linecap="butt"/><path d="M119.24191,173.59187c1.8315,-6.86449 25.70552,-6.99596 53.32404,-0.29352c27.61849,6.70243 48.52303,17.70061 46.69149,24.56516c-1.83152,6.86448 -25.70552,6.99596 -53.32404,0.29352c-27.61849,-6.70243 -48.52304,-17.7006 -46.69149,-24.56516z" data-paper-data="{&quot;index&quot;:null}" fill="#ffffff" stroke="#000000" stroke-linecap="butt"/><path d="M136.89132,188.51742c-6.65456,6.73568 -16.53532,15.66034 -28.04405,23.38897c-23.59372,15.84428 -46.0387,23.98117 -50.13217,18.17429c-4.09352,-5.80687 11.7146,-23.35859 35.30835,-39.20283c9.72096,-6.52805 19.42586,-11.57769 27.76409,-14.85285c1.47771,2.68593 3.54796,5.10165 6.179,7.03847c3.12589,2.30108 6.66207,3.64547 10.25859,4.08633c-0.42876,0.44598 -0.87359,0.9018 -1.33379,1.36764z" data-paper-data="{&quot;index&quot;:null}" fill="#ffffff" stroke="#000000" stroke-linecap="butt"/><path d="M130.36337,267.85949c0,0 -8.81939,-14.62395 -14.53955,-37.93134c-2.78388,-11.34327 -8.1323,-34.98296 -2.90019,-48.77746c5.84232,-15.40325 21.20806,-24.48595 21.20806,-24.48595c0,0 17.94118,-8.97729 32.70886,12.8588c4.75099,7.02504 6.69252,25.16794 12.56819,39.34945c3.93798,9.50474 8.72883,17.98893 12.54721,24.11281c3.85111,6.17637 9.33095,11.26079 9.33095,11.26079" data-paper-data="{&quot;index&quot;:null}" fill="#ffffff" stroke="#000000" stroke-linecap="round"/><path d="M105.31267,45.87729c8.39694,-2.77178 16.20419,-2.03307 17.43801,1.64988c1.23379,3.68297 -4.57302,8.91553 -12.96999,11.68726c-8.39694,2.77177 -16.20419,2.03307 -17.43801,-1.64988c-1.23379,-3.68298 4.57302,-8.91554 12.96999,-11.68727z" fill="#ff4f4f" stroke="#000000" stroke-linecap="butt"/><path d="M112.28199,107.8265c0.93005,4.1329 -13.30514,10.85642 -31.7952,15.01737c-18.49008,4.16096 -34.23318,4.18368 -35.16326,0.05077c-0.93005,-4.13289 13.30514,-10.85642 31.7952,-15.01737c18.49008,-4.16096 34.23318,-4.18368 35.16326,-0.05077z" fill="#ff2e2e" stroke="#000000" stroke-linecap="butt"/><path d="M118.95615,59.95404c30.99289,-6.97454 61.98171,13.43003 69.2155,45.57489c7.23379,32.14487 -12.02677,63.85743 -43.01961,70.83198c-30.99289,6.97455 -61.98172,-13.43003 -69.21551,-45.57489c-7.23378,-32.14487 12.02679,-63.85744 43.01963,-70.83198z" fill="#ffffff" stroke="#000000" stroke-linecap="butt"/><path d="M114.32456,51.67812c53.28637,-12.41199 71.86117,37.08655 72.5467,40.13281c0.68552,3.04625 -26.05196,3.441 -58.33548,10.70598c-32.28352,7.26499 -56.68894,21.00007 -57.37445,17.95382c-0.68551,-3.04625 -17.15141,-54.74352 43.16323,-68.7926z" fill="#ff4f4f" stroke="#000000" stroke-linecap="butt"/><path d="M113.15365,138.1252c-1.59759,0.35951 -3.83623,-3.54188 -5.00014,-8.71399c-1.16391,-5.17211 -0.81235,-9.6564 0.78522,-10.01591c1.59758,-0.35951 3.83622,3.54189 5.00013,8.714c1.16393,5.17212 0.81237,9.65639 -0.7852,10.0159z" data-paper-data="{&quot;index&quot;:null}" fill="#000000" stroke="none" stroke-linecap="butt"/><path d="M169.28434,124.20788c-1.7117,0.38519 -4.12863,-3.87656 -5.39835,-9.51885c-1.26973,-5.64229 -0.91146,-10.52857 0.80024,-10.91376c1.71171,-0.38519 4.12862,3.87656 5.39834,9.51885c1.26972,5.64231 0.91146,10.52857 -0.80024,10.91376z" data-paper-data="{&quot;index&quot;:null}" fill="#000000" stroke="none" stroke-linecap="butt"/><g fill="#ffffff" stroke-linecap="butt"><path d="M170.064,130.71322c0.49949,2.21953 8.40472,6.11651 -10.61364,10.39636c-8.53888,1.92157 -38.06412,10.04242 -49.30811,11.10075c-13.79943,1.29888 -8.67455,-4.77543 -8.94976,-5.99844c-0.49949,-2.21953 14.51304,-7.4883 33.5314,-11.76812c19.01834,-4.27982 34.84069,-5.95006 35.34015,-3.73053z" stroke="#000000"/><path d="M126.82348,146.75854c0.47897,2.12839 -1.64944,2.60736 -1.64944,2.60736l-1.82434,0.41055c-5.29169,1.19082 -10.1202,1.74297 -15.47831,2.18289c0,0 -2.17475,0.17314 -2.34791,-2.00158c-0.17314,-2.17476 2.00158,-2.34792 2.00158,-2.34792c5.17673,-0.40094 9.75325,-0.93951 14.86666,-2.09022l1.82434,-0.41053c0,0 2.12841,-0.47897 2.60738,1.64944z" stroke="none"/></g><path d="M125.8794,148.79573l-8.21822,15.22068c0,0 -1.45785,5.05236 -7.64685,2.37079c-4.26416,-1.84758 -3.71104,-6.70217 -3.71104,-6.70217l2.39733,-7.55992" fill="#ffffff" stroke="#000000" stroke-linecap="round"/><path d="M114.37207,205.59569c-1.52445,1.0163 -3.41787,2.09746 -5.21445,1.73815c-6.55939,-1.31188 -3.66188,-14.876 -0.50229,-21.55059c0.25921,-1.11233 0.85879,-2.09391 1.68299,-2.82898c0.18739,-0.16709 0.38635,-0.32146 0.59557,-0.46174c1.62733,-2.85748 5.94281,-4.14024 5.94281,-4.14024l7.0713,0.93642c1.14624,4.51223 6.27398,8.6543 4.86557,13.09171c-1.03514,3.26138 -5.57145,3.97385 -8.35717,5.96079c0,0 -1.74167,0.79167 -3.63082,0.40573c-0.54669,3.13828 -1.25517,6.04984 -2.45351,6.84875z" fill="#ffffff" stroke="none" stroke-linecap="butt"/><path d="M176.06281,181.12715c10.51586,2.62896 2.50447,13.6658 -5.75288,12.09046c-6.03549,-1.15144 -5.36622,-7.405 -7.59298,-10.38813c-2.04816,-2.74387 -6.48271,-2.75779 -3.68717,-8.34888c3.07575,-6.15149 16.74597,1.66067 17.02296,6.64655z" fill="#ffffff" stroke="none" stroke-linecap="butt"/><path d="M171.87885,251.3666l-15.27137,6.9812" fill="none" stroke="#000000" stroke-linecap="round"/></g><path d="M122.14589,302.61804c0,-5.66465 12.07459,-12.4856 17.56509,-16.17934c1.76959,-1.19048 -4.48402,-11.63951 -10.02827,-22.60645c-5.39037,-10.66255 -10.07489,-21.86764 -8.50468,-21.86764c0.06954,0 -2.49237,-7.71632 -4.31303,-15.8075c-0.15868,-0.70517 -1.7376,-8.94729 -3.34379,-13.97622c0.20812,-0.90724 0.31928,-1.86557 0.31928,-2.87053c0,-0.78803 -0.14914,-1.65484 -0.4246,-2.55561c0.59525,0.18826 1.17913,0.39889 1.74001,0.64859c0.11258,1.16427 0.23651,2.21 0.41897,2.71431c4.91392,13.58115 14.36907,43.08942 18.0717,48.75703c6.44264,9.8617 12.84341,20.63586 12.32757,22.03397c-1.69375,4.59078 -8.49037,19.55148 -10.59747,30.00133c-1.84128,9.13161 4.20982,28.48728 1.28734,28.48728c-8.19631,0 -14.51811,-27.51382 -14.51811,-36.77921z" data-paper-data="{&quot;index&quot;:null}" fill-opacity="0.46275" fill="#edb493" stroke="none" stroke-width="3" stroke-linecap="butt"/><path d="M104.49657,182.93103c2.33004,-1.65367 4.08453,-2.26926 5.3941,-2.15983c-3.30287,6.14272 -5.69103,13.37946 -13.70843,15.16111l-1.14047,0.57023c-1.49154,0.70708 -2.72109,1.87679 -3.5033,3.3238c-0.88288,0.81511 -1.65168,1.75195 -2.27977,2.78386c-0.70233,0.18001 -1.36525,0.43625 -1.97719,0.78074c-5.97051,3.36107 -20.28602,14.1285 -23.11894,20.51293c-1.3763,3.10172 8.83076,4.18302 7.00216,4.76902c-7.49018,2.40033 -13.44978,2.57286 -12.84277,-3.39854c2.34251,-9.41759 43.9283,-40.74908 46.17461,-42.34331z" data-paper-data="{&quot;index&quot;:null}" fill-opacity="0.46275" fill="#edb493" stroke="none" stroke-width="3" stroke-linecap="butt"/><path d="M76.41604,126.54733c0,-1.82181 0.17915,-3.61199 0.52487,-5.36103c2.15482,-0.63202 4.16836,-1.34546 5.78333,-1.87716c0.06539,10.01 0.21806,24.58507 10.91623,33.20768c33.12722,26.70016 55.00561,14.70878 60.86882,15.94642c0.81184,0.17137 2.79119,0.87989 4.65289,1.31342c-3.52672,2.64809 -8.05402,4.52238 -13.86578,5.32568c-44.34864,6.12987 -68.88037,-28.68786 -68.88037,-48.55501z" data-paper-data="{&quot;index&quot;:null}" fill-opacity="0.46275" fill="#edb493" stroke="none" stroke-width="3" stroke-linecap="butt"/><text transform="translate(268.37559,94.77972) scale(1.37758,1.37758)" font-size="40" xml:space="preserve" fill="#ffffff" fill-rule="nonzero" stroke="none" stroke-width="1" stroke-linecap="butt" stroke-linejoin="miter" stroke-miterlimit="10" stroke-dasharray="" stroke-dashoffset="0" font-family="Playful" font-weight="normal" text-anchor="start" style="mix-blend-mode: normal"><tspan x="0" dy="0">Little Timmy</tspan></text><text transform="translate(280.28537,132.12055) scale(0.47282,0.47282)" font-size="40" xml:space="preserve" fill-opacity="0.81569" fill="#edddd4" fill-rule="nonzero" stroke="none" stroke-width="1" stroke-linecap="butt" stroke-linejoin="miter" stroke-miterlimit="10" stroke-dasharray="" stroke-dashoffset="0" font-family="Playful" font-weight="normal" text-anchor="start" style="mix-blend-mode: normal"><tspan x="0" dy="0">This little guy is your ordinary </tspan><tspan x="0" dy="46.150000000000006px">human kid and is not a secret </tspan><tspan x="0" dy="46.150000000000006px">alien child thing from Area 51</tspan></text></g></g></svg>