<svg version="1.1" xmlns="http://www.w3.org/2000/svg" xmlns:xlink="http://www.w3.org/1999/xlink" width="109.68564" height="64.20827" viewBox="0,0,109.68564,64.20827"><g transform="translate(-273.83195,-175.77087)"><g data-paper-data="{&quot;isPaintingLayer&quot;:true}" fill-rule="nonzero" stroke-linecap="butt" stroke-linejoin="miter" stroke-miterlimit="10" stroke-dasharray="" stroke-dashoffset="0" style="mix-blend-mode: normal"><path d="M348.13189,218.15787c3.5606,0.17811 3.56168,7.24045 0,7.41429c-0.57285,0.02796 -1.20791,0.06569 -1.88483,0.10134c-0.0108,2.06724 -0.03389,4.13429 -0.06993,6.2008c-0.07191,4.124 -3.37513,4.32389 -5.23597,1.85357c-1.58819,-2.10837 -1.8491,-4.99622 -1.64181,-8.14127c-0.9686,-0.12134 -1.90003,-0.30954 -2.74863,-0.59117c-1.04712,-0.34752 -3.00206,-4.56614 -1.43704,-5.75334c0.48576,-1.09265 1.38172,-1.82564 2.40664,-1.82564c0.46205,0 0.89789,0.14898 1.28175,0.4127c0.48926,0.12923 0.95724,0.21964 1.4157,0.28129c0.19681,-1.5169 0.3512,-3.00195 0.37432,-4.40114c0,-0.03932 0.00046,-0.0785 0.00138,-0.11753c0.04675,-1.99302 1.2785,-3.58962 2.79114,-3.58962c1.02282,0 1.9172,0.72999 2.40364,1.81893c0.20897,0.35045 0.3359,0.82011 0.37628,1.53377c0.00833,0.11665 0.0126,0.23488 0.0126,0.35444c0.02428,1.46899 0.04299,2.93823 0.05589,4.40762c0.58868,-0.00325 1.21754,0.00688 1.89887,0.04095z" fill="#ffffff" stroke="#000000" stroke-width="1"/><g fill="#9966ff" stroke="#000000" stroke-width="3"><path d="M300.58195,213.52791c-1.21405,5.75325 -7.89051,9.56262 -9.57645,2.65411c-0.92762,-3.80114 1.52117,-12.36313 6.20145,-9.24411c0.55671,0.371 4.40852,2.87336 3.375,4.70999z"/><path d="M303.06417,206.76787c4.6282,-8.85509 12.98002,3.78074 9.20526,8.54899c-1.66667,2.10532 -2.70833,2.10532 -4.375,0c-0.49532,-0.62569 -0.29874,-4.11338 -0.3125,-4.30727c-0.01758,-0.24759 -0.24802,-0.92417 -0.25,-0.6756c-0.0014,0.17505 -0.10676,0.65722 -0.28846,1.27003c0.02528,0.18014 0.03846,0.36556 0.03846,0.55486c0,1.31866 -0.63983,2.44855 -1.54871,2.92132c-0.7024,1.01881 -1.50842,1.37357 -2.22012,-0.19972c-0.73685,-0.54934 -1.23116,-1.56254 -1.23116,-2.7216c0,-0.38026 0.05321,-0.74482 0.15073,-1.08246c0.16411,-1.58914 0.0996,-2.9082 0.83151,-4.30855z"/><path d="M316.45695,204.64585c0.63268,0.40315 1.50434,0.54161 1.99291,1.10439c0.07451,0.08583 0.14011,0.18152 0.19459,0.28954c0.0682,0.13521 0.11956,0.27714 0.15715,0.42432c0.10046,0.30198 0.15535,0.62864 0.15535,0.9696c0,0.36698 -0.06359,0.7174 -0.17914,1.0383c-0.13108,0.92299 -0.29042,1.82182 0.05414,2.4465c0.74601,1.35252 0.91856,-2.76672 1.0625,-2.92723c5.14676,-5.73934 6.66438,7.06311 2.55554,8.20858c-6.01112,1.6758 -8.70085,-0.41986 -8.61804,-6.81466c0.00756,-0.58429 0.03612,-3.08964 0.47046,-3.36641z"/><path d="M332.81802,210.65282c0.3507,1.40279 0.63859,3.56584 -0.38975,4.76557c-2.58774,3.01903 -7.9086,0.85475 -4.88155,-2.8653c0.42758,-0.52546 -1.19556,-0.66745 -1.68608,-1.1347c-0.70105,-0.6678 -0.53457,-2.78996 -0.23014,-3.76283c0.52254,-1.66986 5.31066,-6.41235 7.09529,-3.28925c0.73685,0.43488 1.23116,1.23699 1.23116,2.15454c0,1.33482 -1.04613,2.42532 -2.36324,2.49633c-0.63365,0.24957 1.05914,0.97494 1.22431,1.63564z"/><path d="M285.08195,213.70835c-0.00439,-0.14753 -0.4664,-0.17582 -0.55777,-0.1875c-1.09218,-0.13971 -2.69332,-0.28976 -3.7141,-1.00068c0.00515,0.33441 0.01228,0.66878 0.02187,1.00313c0.04282,1.49401 0.88361,3.22728 1.40138,4.87139c1.60735,-0.76442 2.95547,-1.09071 2.84862,-4.68634zM289.76945,211.52085c1.1596,3.8101 -0.05424,10.04164 -4.25716,11.32992c-1.04059,0.31896 -3.72493,1.38412 -4.72102,0.59057c-0.86703,0.19613 -1.91846,-0.16421 -2.89682,-1.04549c-1.42016,-1.27925 -2.05169,-6.95406 -2.0625,-8.625c-0.02301,-3.55627 -0.25,-7.00467 -0.25,-10.40897c-0.16017,-0.32969 -0.25,-0.69987 -0.25,-1.09103c0,-1.38071 1.11929,-2.5 2.5,-2.5c0.76409,0 1.44812,0.34278 1.90669,0.88297c3.2725,-0.32639 7.0101,2.99363 7.32212,6.54134c0.04444,0.50536 -0.01099,1.13399 -0.16451,1.77528c1.41137,0.61237 2.55999,1.5213 2.8732,2.55041zM281.24036,206.32566c-0.10679,-0.10821 -0.24473,-0.19261 -0.40467,-0.25937c-0.00399,0.89008 -0.01473,1.78023 -0.02361,2.67033c0.25876,-0.17086 0.55959,-0.30111 0.89113,-0.39426c0.13216,-0.71522 0.12949,-1.4165 -0.46285,-2.01671z"/><g><path d="M308.08195,197.42072c0.01742,0.89506 0.8444,2.22625 0.0625,3.10013c-2.30832,2.57988 -5.0307,-0.04286 -5.0625,-2.75c-0.02758,-2.34752 0.29072,-4.7283 0.00579,-7.05151c-1.64837,0.41729 -4.06479,1.03024 -5.73588,1.42378c0.25074,2 0.39673,3.89191 0.54469,5.38617c0.09431,0.95245 0.71148,5.03324 0.12289,6.24157c-0.39042,0.80149 -2.01363,1.28059 -2.77994,0.91146c-2.93075,-1.41172 -1.98158,-3.69228 -2.28256,-6.66391c-0.20253,-1.99969 -0.96942,-5.03651 -1.33396,-7.04227c-0.15324,-0.84316 -1.2985,-4.83654 -1.74018,-7.51523c-0.19189,-0.35386 -0.30086,-0.75922 -0.30086,-1.19004c0,-0.30345 0.05406,-0.59427 0.15308,-0.86336c0.35153,-0.95528 1.26965,-1.63664 2.34692,-1.63664c1.38071,0 2.5,1.11929 2.5,2.5c0,0.01984 -0.00023,0.03961 -0.00069,0.05934c0.78645,1.28367 1.36557,2.84794 1.80239,4.51636c1.77276,-0.64586 3.91377,-0.91303 5.69257,-1.17266c-0.34356,-1.7156 -0.6832,-3.58944 -0.82425,-4.99503c-0.10976,-0.28146 -0.17001,-0.58769 -0.17001,-0.90801c0,-0.28988 0.04934,-0.56824 0.14008,-0.82713c0.34144,-0.97423 1.26909,-1.67287 2.35992,-1.67287c1.38071,0 2.5,1.11929 2.5,2.5c0,0.08454 -0.0042,0.16811 -0.0124,0.25049c0.92582,1.7741 1.42858,4.06209 1.69976,6.45481c0.19746,0.34559 0.31264,0.77302 0.31264,1.29469c0,0.23486 -0.05132,0.46299 -0.13824,0.68278c0.22145,3.37218 0.09471,6.73051 0.13824,8.96708z"/><path d="M311.08195,187.02085c0.0731,-2.77785 3.01664,-2.92085 4.6875,-1.25c2.79994,2.79994 0.4113,7.91653 0.3125,11.875c-0.00072,0.02904 -0.0012,0.05886 -0.00157,0.08928c-0.04701,1.33936 -1.14761,2.41072 -2.49843,2.41072c-0.91548,0 -1.71604,-0.49208 -2.15159,-1.22618c-0.18235,-0.23085 -0.29455,-0.53907 -0.33409,-1.00461c-0.00947,-0.08844 -0.01432,-0.17826 -0.01432,-0.26922c-0.08837,-3.54056 -0.09317,-7.08456 0,-10.625zM311.08195,197.64585z"/><path d="M310.58195,180.02085c0,-1.38071 1.11929,-2.5 2.5,-2.5c1.38071,0 2.5,1.11929 2.5,2.5c0,1.38071 -1.11929,2.5 -2.5,2.5c-1.38071,0 -2.5,-1.11929 -2.5,-2.5z"/><path d="M327.40638,187.08752c1.23102,0.28963 4.17755,1.04589 3.92557,2.93333c-0.3687,2.76171 -3.21339,2.61202 -5.73332,2.03515c0.01677,1.73857 0.02873,3.47705 -0.01668,5.21485v0c0,0.03118 -0.00058,0.06223 -0.00171,0.09313c-0.04899,1.33757 -1.14876,2.40687 -2.49829,2.40687c-1.18908,0 -2.18428,-0.83016 -2.43761,-1.94252c-1.3411,-1.66796 -1.26948,-3.66207 -0.77599,-6.72538c-1.1592,-0.21737 -2.0364,-1.23479 -2.0364,-2.4571c0,-1.38071 1.11929,-2.5 2.5,-2.5c0.12106,0 0.24011,0.00861 0.35658,0.02524c0.00756,-0.00161 0.01513,-0.0032 0.0227,-0.00477c0.15315,-1.10781 0.38286,-3.63483 1.05822,-4.27047c1.71717,-1.61616 2.65783,-1.71717 4.375,0c1.15112,1.15113 -0.16997,3.28141 -0.49428,4.75431c0.60076,0.14925 1.1916,0.30452 1.75621,0.43735z"/></g></g><g fill="#9966ff" stroke="none" stroke-width="0"><path d="M300.08195,226.8136c-1.21405,7.42505 -7.89051,12.34136 -9.57645,3.42536c-0.92762,-4.90568 1.52117,-15.95565 6.20145,-11.9303c0.55671,0.4788 4.40852,3.70831 3.375,6.07863z"/><path d="M302.56417,218.0892c4.6282,-11.42823 12.98002,4.87936 9.20526,11.03319c-1.66667,2.7171 -2.70833,2.7171 -4.375,0c-0.49532,-0.8075 -0.29874,-5.30866 -0.3125,-5.55889c-0.01758,-0.31954 -0.24802,-1.19272 -0.25,-0.87192c-0.0014,0.22591 -0.10676,0.8482 -0.28846,1.63908c0.02528,0.23249 0.03846,0.47178 0.03846,0.71609c0,1.70183 -0.63983,3.16006 -1.54871,3.7702c-0.7024,1.31486 -1.50842,1.7727 -2.22012,-0.25776c-0.73685,-0.70897 -1.23116,-2.01658 -1.23116,-3.51246c0,-0.49076 0.05321,-0.96125 0.15073,-1.39701c0.16411,-2.05091 0.0996,-3.75327 0.83151,-5.56054z"/><path d="M315.95695,215.35056c0.63268,0.5203 1.50434,0.69899 1.99291,1.42531c0.07451,0.11077 0.14011,0.23427 0.19459,0.37368c0.0682,0.1745 0.11956,0.35767 0.15715,0.54762c0.10046,0.38973 0.15535,0.81132 0.15535,1.25135c0,0.47362 -0.06359,0.92587 -0.17914,1.34002c-0.13108,1.1912 -0.29042,2.35121 0.05414,3.15741c0.74601,1.74554 0.91856,-3.57068 1.0625,-3.77783c5.14676,-7.4071 6.66438,9.11553 2.55554,10.59386c-6.01112,2.16275 -8.70085,-0.54187 -8.61804,-8.79488c0.00756,-0.75408 0.03612,-3.98743 0.47046,-4.34463z"/><path d="M332.31802,223.10305c0.3507,1.81042 0.63859,4.60201 -0.38975,6.15037c-2.58774,3.8963 -7.9086,1.10312 -4.88155,-3.69791c0.42758,-0.67815 -1.19556,-0.8614 -1.68608,-1.46443c-0.70105,-0.86186 -0.53457,-3.60067 -0.23014,-4.85624c0.52254,-2.15509 5.31066,-8.27568 7.09529,-4.24505c0.73685,0.56125 1.23116,1.59643 1.23116,2.78061c0,1.7227 -1.04613,3.13008 -2.36324,3.22172c-0.63365,0.32209 1.05914,1.25824 1.22431,2.11093z"/><path d="M284.58195,227.04647c-0.00439,-0.1904 -0.4664,-0.22691 -0.55777,-0.24198c-1.09218,-0.18031 -2.69332,-0.37396 -3.7141,-1.29146c0.00515,0.43158 0.01228,0.86312 0.02187,1.29463c0.04282,1.92814 0.88361,4.16507 1.40138,6.28693c1.60735,-0.98655 2.95547,-1.40765 2.84862,-6.04812zM289.26945,224.22332c1.1596,4.91725 -0.05424,12.95957 -4.25716,14.6222c-1.04059,0.41164 -3.72493,1.78632 -4.72102,0.76218c-0.86703,0.25313 -1.91846,-0.21193 -2.89682,-1.3493c-1.42016,-1.65098 -2.05169,-8.9748 -2.0625,-11.13128c-0.02301,-4.58966 -0.25,-9.04011 -0.25,-13.43364c-0.16017,-0.4255 -0.25,-0.90324 -0.25,-1.40807c0,-1.78192 1.11929,-3.22646 2.5,-3.22646c0.76409,0 1.44812,0.44238 1.90669,1.13954c3.2725,-0.42123 7.0101,3.86353 7.32212,8.44214c0.04444,0.65221 -0.01099,1.46351 -0.16451,2.29115c1.41137,0.79031 2.55999,1.96336 2.8732,3.29152zM280.74036,217.51849c-0.10679,-0.13966 -0.24473,-0.24858 -0.40467,-0.33474c-0.00399,1.14872 -0.01473,2.29754 -0.02361,3.44628c0.25876,-0.22051 0.55959,-0.38861 0.89113,-0.50883c0.13216,-0.92305 0.12949,-1.82811 -0.46285,-2.60274z"/><g><path d="M307.58195,206.02593c0.01742,1.15515 0.8444,2.87316 0.0625,4.00098c-2.30832,3.32955 -5.0307,-0.05531 -5.0625,-3.5491c-0.02758,-3.02967 0.29072,-6.10226 0.00579,-9.10057c-1.64837,0.53855 -4.06479,1.32961 -5.73588,1.83751c0.25074,2.58117 0.39673,5.02284 0.54469,6.9513c0.09431,1.22921 0.71148,6.49582 0.12289,8.05527c-0.39042,1.03439 -2.01363,1.65271 -2.77994,1.17632c-2.93075,-1.82195 -1.98158,-4.76519 -2.28256,-8.60033c-0.20253,-2.58077 -0.96942,-6.50004 -1.33396,-9.08864c-0.15324,-1.08817 -1.2985,-6.24196 -1.74018,-9.69903c-0.19189,-0.45669 -0.30086,-0.97984 -0.30086,-1.53584c0,-0.39163 0.05406,-0.76696 0.15308,-1.11423c0.35153,-1.23287 1.26965,-2.11222 2.34692,-2.11222c1.38071,0 2.5,1.44454 2.5,3.22646c0,0.02561 -0.00023,0.05112 -0.00069,0.07658c0.78645,1.65668 1.36557,3.6755 1.80239,5.82874c1.77276,-0.83354 3.91377,-1.17834 5.69257,-1.51341c-0.34356,-2.21412 -0.6832,-4.63248 -0.82425,-6.44651c-0.10976,-0.36324 -0.17001,-0.75846 -0.17001,-1.17186c0,-0.37412 0.04934,-0.73336 0.14008,-1.06747c0.34144,-1.25733 1.26909,-2.15898 2.35992,-2.15898c1.38071,0 2.5,1.44454 2.5,3.22646c0,0.10911 -0.0042,0.21696 -0.0124,0.32328c0.92582,2.28963 1.42858,5.24246 1.69976,8.33047c0.19746,0.44601 0.31264,0.99765 0.31264,1.6709c0,0.30311 -0.05132,0.59752 -0.13824,0.88119c0.22145,4.35208 0.09471,8.68629 0.13824,11.57276z"/><path d="M310.58195,192.60403c0.0731,-3.58505 3.01664,-3.7696 4.6875,-1.61323c2.79994,3.61355 0.4113,10.21694 0.3125,15.32567c-0.00072,0.03748 -0.0012,0.07597 -0.00157,0.11523c-0.04701,1.72856 -1.14761,3.11124 -2.49843,3.11124c-0.91548,0 -1.71604,-0.63507 -2.15159,-1.58248c-0.18235,-0.29794 -0.29455,-0.69571 -0.33409,-1.29654c-0.00947,-0.11413 -0.01432,-0.23006 -0.01432,-0.34745c-0.08837,-4.56939 -0.09317,-9.14321 0,-13.71245zM310.58195,206.31648z"/><path d="M310.08195,183.56994c0,-1.78192 1.11929,-3.22646 2.5,-3.22646c1.38071,0 2.5,1.44454 2.5,3.22646c0,1.78192 -1.11929,3.22646 -2.5,3.22646c-1.38071,0 -2.5,-1.44454 -2.5,-3.22646z"/><path d="M326.90638,192.69007c1.23102,0.3738 4.17755,1.34981 3.92557,3.78571c-0.3687,3.56422 -3.21339,3.37103 -5.73332,2.62653c0.01677,2.24377 0.02873,4.48742 -0.01668,6.7302v0c0,0.04023 -0.00058,0.08032 -0.00171,0.12019c-0.04899,1.72624 -1.14876,3.10627 -2.49829,3.10627c-1.18908,0 -2.18428,-1.0714 -2.43761,-2.50699c-1.3411,-2.15264 -1.26948,-4.72621 -0.77599,-8.67967c-1.1592,-0.28054 -2.0364,-1.59359 -2.0364,-3.17109c0,-1.78192 1.11929,-3.22646 2.5,-3.22646c0.12106,0 0.24011,0.01111 0.35658,0.03257c0.00756,-0.00208 0.01513,-0.00414 0.0227,-0.00616c0.15315,-1.42972 0.38286,-4.69105 1.05822,-5.5114c1.71717,-2.08579 2.65783,-2.21616 4.375,0c1.15112,1.48563 -0.16997,4.23494 -0.49428,6.13583c0.60076,0.19262 1.1916,0.39301 1.75621,0.56444z"/></g></g><g fill="#ffffff" stroke="#000000" stroke-width="1"><path d="M356.43413,227.18085c1.3146,0.13694 1.69354,1.18304 1.79458,1.93276c0.06808,0.01333 0.13626,0.02606 0.20457,0.03807c1.4897,0.26189 4.23339,0.76388 3.91889,-1.7621c-0.05579,-0.44807 0.09751,-1.0073 -0.14462,-1.34895c-1.84121,-2.59785 -6.47472,0.28782 -8.22065,-3.05091c-0.67363,-1.28817 -0.09368,-5.34843 0.30562,-8.10032c-0.17396,-0.37693 -0.26682,-0.87304 -0.19887,-1.52539c0.11027,-1.05857 0.55007,-1.62727 1.01885,-1.93134c0.34557,-0.48722 0.90038,-0.88497 1.78473,-0.79285c0.59648,0.06213 1.00033,0.31144 1.27299,0.63531c1.77419,0.18481 3.54838,0.36962 5.32257,0.55443l2.26223,0.79821c0,0 1.97165,0.75064 1.26817,3.13103c-0.70347,2.38039 -2.67512,1.62976 -2.67512,1.62976l-1.37331,-0.5859c-1.49391,-0.15561 -2.98781,-0.31123 -4.48172,-0.46684c-0.06687,0.83518 -0.16216,1.66489 -0.34736,2.47734c-0.11257,0.49384 -0.66613,0.85695 -0.61744,1.35837c0.02898,0.29847 0.46402,-0.32 0.71727,-0.33033c1.37528,-0.05607 3.27782,0.41873 4.48055,1.06139c2.82216,1.50799 3.41129,1.81489 3.78472,5.72481c0.78005,8.16736 -6.40617,8.0092 -10.95551,6.98461l-1.45747,-4.16099c0,0 0.25901,-2.48655 2.33631,-2.27016z"/><path d="M374.82217,219.09962c-0.82626,2.04961 -1.06494,4.29034 -1.16722,6.536c-0.0323,0.70911 0.588,3.7177 2.12532,3.28445c3.03277,-0.85471 2.67784,-7.8647 0.75232,-9.39465c-0.44536,-0.35387 -1.10438,-0.27317 -1.65657,-0.40976zM372.56206,214.97288c0.93649,-1.48913 2.78479,-0.934 2.78479,-0.934l1.1741,0.3551c1.06823,0.42793 2.35121,0.5119 3.2047,1.28379c2.77022,2.50535 4.16295,9.49767 2.70562,12.95323c-2.39215,5.67217 -9.92297,7.1601 -12.99666,1.11092c-1.47977,-2.91227 -0.57245,-4.55195 -0.29771,-7.4246c0.18949,-1.98131 0.58457,-3.98138 1.3619,-5.81366c0,0 0.64285,-1.4546 2.06326,-1.53077z"/></g></g></g></svg>