<svg version="1.1" xmlns="http://www.w3.org/2000/svg" xmlns:xlink="http://www.w3.org/1999/xlink" width="51.27228" height="141.45945" viewBox="0,0,51.27228,141.45945"><g transform="translate(-298.47629,-110.56911)"><g data-paper-data="{&quot;isPaintingLayer&quot;:true}" fill-rule="nonzero" stroke-linejoin="miter" stroke-miterlimit="10" stroke-dasharray="" stroke-dashoffset="0" style="mix-blend-mode: normal"><path d="M303.31798,118.57207c1.53053,-1.6139 4.04862,-4.01321 7.12237,-5.22585c4.28496,-1.69049 9.41031,-1.92242 12.32308,-2.01813c8.89236,-0.29221 17.61795,6.57807 21.60234,15.63955c1.63579,3.72018 3.34949,11.19188 3.48541,15.07749c0.28341,8.1024 -4.63692,13.11942 -10.09312,18.24765c-1.38143,1.2984 2.20172,3.52211 0.84992,5.26357c-2.10618,2.71331 -10.12674,3.05209 -13.12975,3.15077c-2.12639,0.06987 -6.4067,-0.19742 -8.55705,-1.51582c-2.11188,-1.29482 -2.09697,-3.62995 -3.84567,-4.77186c-6.97381,-4.5539 -12.49077,-12.86745 -12.80082,-21.73158c-0.28073,-8.02602 -2.48048,-16.29109 3.04332,-22.11579z" data-paper-data="{&quot;index&quot;:null}" fill="#161617" stroke="#000000" stroke-width="1.5" stroke-linecap="butt"/><path d="M308.52311,241.47849c1.07216,-1.71391 2.47695,-3.55717 3.13277,-4.82492c1.71872,0.11671 3.43701,0.21374 5.16291,0.23757c1.62158,0.02239 3.24174,0.03828 4.86227,0.04173c0.15511,4.27247 0.15338,7.35065 -0.14979,7.6305c-0.09369,0.08648 -0.32573,2.03775 -3.41164,2.32809c-1.77323,0.16683 -7.0301,0.54908 -9.17725,0.33712c-2.80097,-0.27649 -2.3374,-1.1952 -2.5776,-1.16755c-0.26685,0.03071 0.63408,-2.14595 2.15833,-4.58255z" data-paper-data="{&quot;index&quot;:null}" fill="#ffffff" stroke="#000000" stroke-width="2" stroke-linecap="butt"/><path d="M333.37222,244.58922c1.13974,-1.84149 2.24898,-2.55808 2.23737,-4.37091c0.14581,-0.00461 0.29163,-0.00934 0.43745,-0.01421c2.63939,-0.08812 5.27884,-0.17164 7.91849,-0.25173c0.85003,-0.02578 1.69948,-0.06067 2.54863,-0.10072c0.32029,4.83321 0.42234,8.42669 0.05533,8.74059c-0.10458,0.08945 -0.3284,2.04795 -3.82497,2.43632c-2.0092,0.22316 -7.9679,0.77241 -10.40917,0.62869c-3.18465,-0.18747 -0.88855,-3.95709 1.03687,-7.06803z" data-paper-data="{&quot;index&quot;:null}" fill="#ffffff" stroke="#000000" stroke-width="2" stroke-linecap="butt"/><path d="M309.07202,238.03202c0.01804,-0.06558 -0.59447,-0.60724 -0.18125,-2.65848c0.21905,-1.0874 1.34813,-3.10627 1.64674,-4.58932c2.22649,-11.05751 6.36115,-31.54911 7.88135,-38.16124c2.68005,-11.65692 15.8054,-8.31648 15.8054,-8.31648c0,0 -7.95552,35.82062 -9.59931,50.47824c-0.38162,3.40278 -1.11339,5.73242 -1.17822,5.96819c-0.33555,1.22018 -4.66659,1.09309 -9.67364,-0.28388c-5.00705,-1.37697 -5.03664,-1.21683 -4.70108,-2.43701z" data-paper-data="{&quot;index&quot;:null}" fill="#282833" stroke="#000000" stroke-width="1.5" stroke-linecap="butt"/><path d="M332.42668,243.47365c0.00005,-0.06801 -0.86014,-0.42858 -1.02896,-2.5161c-0.0895,-1.10663 0.56079,-3.35208 0.43857,-4.86133c-0.91124,-11.2528 -2.59024,-32.10859 -2.92173,-38.88741c-0.58441,-11.95077 15.28584,-12.1975 15.28584,-12.1975c0,0 2.11236,36.64959 4.79817,51.22057c0.62351,3.38267 0.51857,5.82285 0.51837,6.06738c-0.00102,1.26548 -4.93551,2.28739 -11.02151,2.28251c-6.08601,-0.00488 -6.0698,0.15738 -6.06878,-1.1081z" data-paper-data="{&quot;index&quot;:null}" fill="#282833" stroke="#000000" stroke-width="1.5" stroke-linecap="butt"/><g data-paper-data="{&quot;index&quot;:null}" stroke="#000000" stroke-width="2" stroke-linecap="butt"><path d="M312.19417,209.97629c-5.9348,-0.59404 -4.42297,-11.20228 -3.08778,-24.32511c1.04612,0.0773 2.10137,0.11866 3.15907,0.18773c2.44916,0.15996 4.8358,0.48048 7.26707,0.87345c0.1757,0.0284 0.35144,0.05346 0.52727,0.07563c-1.30642,13.21372 -1.35056,23.73175 -7.86563,23.18829z" data-paper-data="{&quot;index&quot;:null}" fill="#ffe4cb"/><path d="M319.93261,187.56858c-0.00254,0.01503 -0.00507,0.03003 -0.0076,0.04505c-0.18272,-0.032 -0.36519,-0.06684 -0.54738,-0.10494c-2.55945,-0.53523 3.2152,17.22346 0.6224,16.92078c-1.10564,-0.12907 -11.17968,0.53735 -12.27403,0.40277c0.0065,-0.03835 0.26567,-18.19915 2.28763,-27.36945c2.4443,-11.08581 6.94145,-13.61898 9.8838,-14.6991c1.62491,0.27919 1.11806,2.72036 1.22619,7.45818c0.10297,4.5119 -0.09421,10.85192 -1.19098,17.34672z" data-paper-data="{&quot;index&quot;:null}" fill="#161617"/></g><path d="M339.00833,166.62194c2.62913,7.99243 5.57826,30.48701 6.58006,38.54149c-2.17872,0.29264 -4.38612,0.46689 -6.56224,0.74058c-3.5322,0.44427 -7.06439,0.8885 -10.59658,1.33277c-3.52636,0.44352 -7.0335,1.17083 -10.53043,1.77697c-0.90358,0.15663 -1.80719,0.31324 -2.71078,0.46987c-0.28305,-8.54777 -0.97475,-34.50725 0.72507,-43.06081c1.52868,-7.69249 10.55806,-10.45946 10.55806,-10.45946c0,0 8.26236,-2.33563 12.53684,10.65857z" data-paper-data="{&quot;index&quot;:null}" fill="#161617" stroke="#000000" stroke-width="2" stroke-linecap="butt"/><path d="M336.50726,200.62273l-4.25933,-9.98686" data-paper-data="{&quot;index&quot;:null}" fill="none" stroke="#000000" stroke-width="2" stroke-linecap="round"/><path d="M320.0304,193.89889l-1.13471,7.41746" data-paper-data="{&quot;index&quot;:null}" fill="none" stroke="#000000" stroke-width="2" stroke-linecap="round"/><path d="M324.52725,156.31727c4.50827,-0.38434 8.36588,1.68444 8.61621,4.62075c0.25033,2.93631 -3.20141,5.62823 -7.70969,6.01258c-4.50828,0.38434 -7.44254,-1.00584 -7.69287,-3.94215c-0.25033,-2.93631 2.27807,-6.30683 6.78635,-6.69118z" data-paper-data="{&quot;index&quot;:null}" fill="#161617" stroke="none" stroke-width="0" stroke-linecap="butt"/><path d="M318.64203,161.56882c-0.16941,-1.9872 2.43426,-3.83182 5.81547,-4.12007c3.38121,-0.28826 6.25956,1.08899 6.42897,3.0762c0.16941,1.98719 -3.07869,3.88676 -6.4599,4.17501c-3.3812,0.28826 -5.61511,-1.14393 -5.78452,-3.13114z" data-paper-data="{&quot;index&quot;:null}" fill="#ffffff" stroke="#000000" stroke-width="1.5" stroke-linecap="butt"/><path d="M299.67881,141.86142c-1.63897,-12.83568 6.84945,-24.49457 18.95943,-26.0409c12.10996,-1.54632 23.25569,7.6055 24.89467,20.44119c1.63899,12.83568 -6.84941,24.49459 -18.95938,26.04091c-12.10997,1.54631 -23.25571,-7.60551 -24.89469,-20.4412z" data-paper-data="{&quot;index&quot;:null}" fill="#ffe4cb" stroke="#000000" stroke-width="2" stroke-linecap="butt"/><path d="M322.5851,145.85536c-1.29357,0.2011 -2.69671,-0.83922 -3.13401,-2.32361c-0.43729,-1.48441 0.25688,-2.85076 1.55044,-3.05186c1.29357,-0.2011 2.69674,0.83921 3.13403,2.32361c0.43729,1.4844 -0.25689,2.85078 -1.55045,3.05187z" data-paper-data="{&quot;index&quot;:null}" fill="#000000" stroke="none" stroke-width="0.5" stroke-linecap="butt"/><path d="M309.60376,147.72809c-1.10586,0.22635 -2.49435,-0.76409 -3.10127,-2.21221c-0.60691,-1.44812 -0.20245,-2.80558 0.90342,-3.03195c1.10586,-0.22635 2.49435,0.76409 3.10127,2.21221c0.60691,1.44812 0.20245,2.80558 -0.90342,3.03196z" data-paper-data="{&quot;index&quot;:null}" fill="#000000" stroke="none" stroke-width="0.5" stroke-linecap="butt"/><path d="M332.59936,163.66671c-0.31764,-3.72586 1.1223,-4.00449 1.98738,-4.07824c0.86508,-0.07375 1.82386,2.88688 2.14149,6.61273c0.31764,3.72585 -0.8271,7.46715 -1.69218,7.5409c-0.86509,0.07375 -2.11907,-6.34954 -2.43671,-10.07539z" data-paper-data="{&quot;index&quot;:null}" fill="#161617" stroke="none" stroke-width="0" stroke-linecap="butt"/><path d="M313.11643,173.18565c0.03554,-0.22912 0.09521,-1.16383 0.51364,-2.28197c0.52989,-1.41601 1.48387,-3.1133 2.02229,-3.90178c1.20157,-1.75958 1.93818,-0.67095 2.22385,-0.62664c0.51478,0.07985 -1.60041,4.19691 -1.7814,5.36373c-0.18099,1.16682 -2.52562,4.85038 -3.04039,4.77053c-0.51477,-0.07984 -0.11897,-2.15703 0.06202,-3.32384z" data-paper-data="{&quot;index&quot;:null}" fill="#161617" stroke="none" stroke-width="0" stroke-linecap="butt"/><path d="M319.72229,138.36968l5.40922,-0.75283" data-paper-data="{&quot;index&quot;:null}" fill="none" stroke="#000000" stroke-width="1.5" stroke-linecap="round"/><path d="M308.78924,139.61174l-4.59424,0.68066" data-paper-data="{&quot;index&quot;:null}" fill="none" stroke="#000000" stroke-width="1.5" stroke-linecap="round"/><path d="M334.785,146.65909c0,0 -5.32519,1.56096 -10.63726,2.584c-2.25221,0.43375 -5.17002,0.4603 -6.59375,0.7345c-1.31964,0.25414 -2.56516,0.90755 -4.04381,1.19233c-2.34207,0.45106 -4.71824,0.49515 -4.71824,0.49515" data-paper-data="{&quot;index&quot;:null}" fill="none" stroke="#000000" stroke-width="1.5" stroke-linecap="round"/><path d="M317.70423,116.26964c2.17217,-0.19237 8.69523,-0.39452 13.33259,1.3923c1.61311,0.62154 8.42218,4.57575 10.97904,9.9249c2.08969,4.37182 0.14166,10.37405 0.14779,10.44325c0.00625,0.07061 0.28477,2.2575 -0.47348,1.20114c-1.59274,-2.21893 -5.37978,-9.06248 -9.16827,-11.91283c-4.55646,-3.42816 -10.62601,-4.50414 -12.21777,-4.36317c-3.54529,0.31397 -16.25898,1.56148 -16.29416,1.16417c-0.03519,-0.39732 10.14896,-7.53579 13.69425,-7.84976z" data-paper-data="{&quot;index&quot;:null}" fill="#161617" stroke="none" stroke-width="0" stroke-linecap="butt"/><path d="M340.10442,146.87321c2.20085,-8.83187 0.73062,-19.60119 1.7123,-19.68813c1.8032,-0.15969 3.08651,6.51223 3.54394,11.67735c0.45742,5.16512 -4.52728,18.41562 -6.33049,18.57531c-1.8032,0.15969 -7.88283,9.86363 -8.34025,4.69851c-0.20839,-2.35318 7.57272,-7.87208 9.41451,-15.26304z" data-paper-data="{&quot;index&quot;:null}" fill="#161617" stroke="none" stroke-width="0" stroke-linecap="butt"/><path d="M329.15583,115.59216c1.75825,0.52299 3.6424,0.97457 5.27187,1.82086c1.74652,0.90709 3.48427,3.26282 4.88463,5.40014l1.49307,1.2607c0.19461,0.16422 0.32695,0.40235 0.35119,0.67604c0.01091,0.12318 -0.001,0.2431 -0.03224,0.35562c0.17304,0.25281 0.33983,0.69276 -0.07139,1.18389c-0.64197,0.76673 -1.40869,0.12476 -1.40869,0.12476c-2.01199,-1.693 -4.4003,-2.71226 -6.46853,-4.29137l-0.81761,-0.58406c-0.23196,-0.16361 -0.39311,-0.42437 -0.42012,-0.72927c-0.04873,-0.55013 0.35776,-1.03559 0.90788,-1.08432c0.23537,-0.02085 0.45889,0.04163 0.64145,0.16303l1.65013,1.07555l-0.05306,0.08139c0.0331,0.02315 0.06626,0.04621 0.09949,0.06917c0.06648,0.02496 0.13277,0.05018 0.19891,0.07569c-0.33828,-0.51722 -0.7059,-1.02963 -1.1655,-1.47352c-0.6325,-0.61089 -1.49801,-1.01333 -2.42131,-1.3226c-0.11847,0.06561 -0.25227,0.10808 -0.39587,0.12079l-1.32814,0.11761l-0.00602,-0.06802l-0.16185,0.06875c-0.48767,-0.12233 -0.93998,-0.33844 -1.36558,-0.61189c-0.01573,0.00342 -0.03149,0.00681 -0.04726,0.01015l-0.11238,0.18465l-0.20206,-0.12296c-2.0014,0.36133 -4.33831,0.19877 -5.93119,-0.50801l-1.02957,-0.21206c-0.1665,-0.03031 -0.31992,-0.10224 -0.44793,-0.20548c-0.48018,0.27153 -0.96854,0.53234 -1.53755,0.63894c-0.02378,0.00446 -0.04774,0.00861 -0.0719,0.01248c-0.2389,0.32594 -0.55275,0.62475 -0.8253,0.87096c-0.32645,0.2949 -0.90183,-0.00804 -1.31071,0.15428c-0.90725,0.36017 -2.47,1.93916 -3.25723,2.48347c-0.59338,0.25455 -1.80609,0.65745 -3.0219,0.79368c-0.00685,0.48199 -0.36007,0.89381 -0.83865,0.97152l-1.24951,0.21638c-1.97288,0.67595 -3.6432,1.16787 -5.73283,1.51717c0,0 -0.98639,0.16435 -1.15075,-0.82205c-0.13312,-0.79899 0.48875,-1.05862 0.72987,-1.12844l-0.23729,0.00123c-0.51921,0.00814 -0.96422,-0.38626 -1.01075,-0.91173c-0.0407,-0.4596 0.23631,-0.87407 0.64936,-1.02644l1.83918,-0.7269l0.12396,0.31364c1.25638,-0.58022 2.54814,-0.97909 3.85651,-1.32019c0.13455,-0.28504 0.2827,-0.56624 0.39442,-0.83721c0.20442,-0.49581 0.51272,-0.96013 0.89294,-1.33836c3.1907,-3.17393 8.04019,-3.49732 12.1198,-3.16651c0.9438,0.07654 2.83096,-0.08646 4.19931,0.17012c0.92597,-0.08934 1.85293,-0.16382 2.75228,-0.24443l0.44271,-0.03921c0,0 0.9961,-0.08821 1.08432,0.90788c0.04606,0.52018 -0.20356,0.79277 -0.45263,0.9345zM319.02254,115.92468c0.15357,-0.03169 0.30205,-0.07619 0.44695,-0.13003c-0.21351,-0.00665 -0.42687,-0.0112 -0.64015,-0.01329c0.06821,0.04364 0.13275,0.09133 0.1932,0.14331z" data-paper-data="{&quot;index&quot;:null}" fill="#161617" stroke="none" stroke-width="0.5" stroke-linecap="butt"/><path d="M303.95322,124.73793c0,0 4.9631,-1.21323 11.7784,-1.7229c7.91944,-0.59223 16.84853,2.01131 18.9013,4.90302c2.06229,2.90511 8.37581,8.17897 6.21905,19.77751c-1.61117,8.66447 -9.56578,11.09726 -9.56578,11.09726" data-paper-data="{&quot;index&quot;:null}" fill="none" stroke="#000000" stroke-width="1.5" stroke-linecap="round"/><path d="M320.91286,127.57245c-0.4149,-0.40905 -3.58215,3.68469 -8.01188,5.33948c-5.13022,1.91648 -11.60907,1.44479 -11.96441,1.01632c-0.14896,-0.17961 3.06695,-9.10972 6.37014,-11.02053c4.85465,-2.80829 10.44265,1.08629 10.28084,0.86321c2.46473,0.24963 6.04163,0.16063 7.61217,0.03352c2.12126,-0.17168 7.26982,2.85884 8.83893,3.97358c0.92312,0.65582 1.83253,2.15783 2.76521,3.5034c-0.63153,1.02781 -1.49593,1.71381 -1.49593,1.71381c0,0 -2.20195,-1.76267 -5.46343,-3.66874c-0.52834,-0.30878 -1.08449,-0.62131 -1.66358,-0.93073c-0.21064,-0.11254 -1.3332,3.67006 -1.54791,3.55757c-2.00912,-1.05268 -4.02822,-2.7128 -5.72016,-4.38092z" data-paper-data="{&quot;index&quot;:null}" fill="#3c352f" stroke="#000000" stroke-width="1.5" stroke-linecap="butt"/><path d="M324.6978,172.70104c4.00925,-0.3418 7.44682,1.57973 7.67804,4.29188c0.23122,2.71213 -2.83149,5.18784 -6.84073,5.52964c-4.00925,0.3418 -7.44682,-1.57974 -7.67803,-4.29188c-0.23122,-2.71213 2.83148,-5.18784 6.84072,-5.52964z" data-paper-data="{&quot;index&quot;:null}" fill="#343434" stroke="none" stroke-width="0" stroke-linecap="butt"/><path d="M342.52963,213.61666l-4.95286,-7.22098" data-paper-data="{&quot;index&quot;:null}" fill="none" stroke="#000000" stroke-width="1.5" stroke-linecap="round"/><path d="M315.53009,213.83012l1.65005,-4.87935" data-paper-data="{&quot;index&quot;:null}" fill="none" stroke="#000000" stroke-width="1.5" stroke-linecap="round"/><g data-paper-data="{&quot;index&quot;:null}" fill="#404040" stroke="#000000" stroke-width="1.5" stroke-linecap="butt"><path d="M338.33122,143.01039c1.06121,1.4347 0.47826,17.67251 0.46206,18.1162c-0.0361,0.98839 -2.41891,1.75181 -5.32214,1.70513c-2.90324,-0.04668 -7.58612,0.76167 -7.55001,-0.22673c0.02524,-0.69103 -0.55625,-11.60905 -0.31604,-16.83597c0.00371,-0.08093 0.05395,-2.44453 0.0578,-2.52314c0.05642,-1.15001 11.76784,-1.45292 12.66833,-0.2355z"/><path d="M337.42711,144.72501c0.09327,0.61353 -0.34715,1.19417 -0.98373,1.29688c-0.63658,0.10271 -1.22822,-0.31137 -1.32149,-0.92492c-0.09327,-0.61353 0.34716,-1.19418 0.98373,-1.29689c0.63658,-0.10271 1.22822,0.31138 1.32149,0.92493z"/></g><path d="M336.48545,155.79466c0.75617,1.20987 -0.37093,3.27824 -2.51749,4.61984c-2.14653,1.34159 -5.84231,4.64604 -6.59848,3.43618c-0.75617,-1.20987 1.7136,-6.4759 3.86014,-7.8175c2.14653,-1.34159 4.49965,-1.44839 5.25582,-0.23852z" fill="#ffe4cb" stroke="#000000" stroke-width="2" stroke-linecap="butt"/><path d="M332.39371,160.26322c3.06634,-1.89241 5.95457,-2.71557 6.45103,-1.83857c0.49647,0.877 15.24529,26.23831 2.64421,30.50888c-3.39488,1.15054 -13.25193,-22.77886 -13.7484,-23.65585c-0.49647,-0.877 1.58683,-3.12204 4.65317,-5.01444z" data-paper-data="{&quot;index&quot;:null}" fill="#161617" stroke="#000000" stroke-width="2" stroke-linecap="butt"/></g></g></svg>