<svg version="1.1" xmlns="http://www.w3.org/2000/svg" xmlns:xlink="http://www.w3.org/1999/xlink" width="301.45357" height="238.65433" viewBox="0,0,301.45357,238.65433"><g transform="translate(-21.68344,-12.18291)"><g data-paper-data="{&quot;isPaintingLayer&quot;:true}" fill-rule="nonzero" stroke-linejoin="miter" stroke-miterlimit="10" stroke-dasharray="" stroke-dashoffset="0" style="mix-blend-mode: normal"><text transform="translate(28.37225,57.07882) scale(1.03209,1.03209)" font-size="40" xml:space="preserve" fill="#000000" fill-rule="nonzero" stroke="none" stroke-width="1" stroke-linecap="butt" stroke-linejoin="miter" stroke-miterlimit="10" stroke-dasharray="" stroke-dashoffset="0" font-family="Sans Serif" font-weight="normal" text-anchor="start" style="mix-blend-mode: normal"><tspan x="0" dy="0">Settings</tspan></text><path d="M196.43701,89.59954l-168.91667,-0.36465" fill="none" stroke-opacity="0.56471" stroke="#3e3e3e" stroke-width="2" stroke-linecap="round"/><text transform="translate(28.72819,82.35746) scale(0.3366,0.3366)" font-size="40" xml:space="preserve" fill="#b9b1ff" fill-rule="nonzero" stroke="none" stroke-width="1" stroke-linecap="butt" stroke-linejoin="miter" stroke-miterlimit="10" stroke-dasharray="" stroke-dashoffset="0" font-family="Sans Serif" font-weight="normal" text-anchor="start" style="mix-blend-mode: normal"><tspan x="0" dy="0">Display</tspan></text><path d="M27.02034,146.85665l162.41667,0.35062" fill="none" stroke-opacity="0.56471" stroke="#3e3e3e" stroke-width="2" stroke-linecap="round"/><text transform="translate(27.21077,140.89117) scale(0.32365,0.32365)" font-size="40" xml:space="preserve" fill="#b9b1ff" fill-rule="nonzero" stroke="none" stroke-width="1" stroke-linecap="butt" stroke-linejoin="miter" stroke-miterlimit="10" stroke-dasharray="" stroke-dashoffset="0" font-family="Sans Serif" font-weight="normal" text-anchor="start" style="mix-blend-mode: normal"><tspan x="0" dy="0">Audio</tspan></text><path d="M181.65341,176.99728c0,19.96998 -33.55593,21.83996 -81.58069,21.83996c-44.86484,0 -76.38928,-2.36996 -76.38928,-22.33994c0,-19.96998 32.043,-18.73651 76.90784,-18.73651c44.86484,0 81.06213,-0.73349 81.06213,19.23651z" fill="#ffffff" stroke-opacity="0.49807" stroke="#54458f" stroke-width="4" stroke-linecap="butt"/><path d="M199.44189,248.54253l0.77845,-64.03986l105.91667,-0.22865" fill="none" stroke-opacity="0.56471" stroke="#3e3e3e" stroke-width="2" stroke-linecap="round"/><text transform="translate(199.71077,178.99118) scale(0.32365,0.32365)" font-size="40" xml:space="preserve" fill="#b9b1ff" fill-rule="nonzero" stroke="none" stroke-width="1" stroke-linecap="butt" stroke-linejoin="miter" stroke-miterlimit="10" stroke-dasharray="" stroke-dashoffset="0" font-family="Sans Serif" font-weight="normal" text-anchor="start" style="mix-blend-mode: normal"><tspan x="0" dy="0">Modifiers</tspan></text><path d="M168.33144,226.99728c0,18.84069 -21.89362,21.57058 -53.93167,21.81909c-1.92034,0.01489 -31.7315,0.02087 -33.7222,0.02087c-32.88639,0 -55.99413,-2.36996 -55.99413,-22.33994c0,-19.96998 23.48785,-18.73651 56.37424,-18.73651c1.59764,0 31.03467,-0.00173 32.60001,-0.00274c30.65612,-0.01967 55.40676,0.2394 55.40676,19.23925z" fill="#ffffff" stroke-opacity="0.49807" stroke="#54458f" stroke-width="4" stroke-linecap="butt"/><text transform="translate(199.51077,80.99118) scale(0.32365,0.32365)" font-size="40" xml:space="preserve" fill="#b9b1ff" fill-rule="nonzero" stroke="none" stroke-width="1" stroke-linecap="butt" stroke-linejoin="miter" stroke-miterlimit="10" stroke-dasharray="" stroke-dashoffset="0" font-family="Sans Serif" font-weight="normal" text-anchor="start" style="mix-blend-mode: normal"><tspan x="0" dy="0">Graphics</tspan></text><path d="M200.77947,158.73711l1.24087,-69.2572l120.11667,-0.40588" fill="none" stroke-opacity="0.56471" stroke="#3e3e3e" stroke-width="2" stroke-linecap="round"/></g></g></svg>