<svg version="1.1" xmlns="http://www.w3.org/2000/svg" xmlns:xlink="http://www.w3.org/1999/xlink" width="366.78065" height="165.05429" viewBox="0,0,366.78065,165.05429"><g transform="translate(-270.42812,-67.36238)"><g data-paper-data="{&quot;isPaintingLayer&quot;:true}" fill-rule="nonzero" stroke-linejoin="miter" stroke-miterlimit="10" stroke-dasharray="" stroke-dashoffset="0" style="mix-blend-mode: normal"><g><g><path d="M459.01717,170.32962c-2.34794,-4.05184 -6.48618,-6.95387 -10.11027,-9.74447c-7.42043,-5.71383 -17.09836,-1.18735 -19.45259,-0.13401c-6.36177,2.84642 -14.35284,20.74915 -14.89452,20.0859c-1.96831,-2.41009 -5.37187,-2.47988 -1.82803,-6.55365c2.24939,-11.8091 11.35772,-16.55128 15.00383,-18.53631c1.34438,-0.73191 9.13456,-3.89179 15.83625,-2.74152c9.90366,1.69985 19.82051,9.05624 22.50564,16.98989c0.7898,2.3336 1.61882,7.06587 1.7343,9.40519c0.04539,0.91944 -4.46451,-0.96582 -4.52421,-0.05588c-0.20437,3.11508 -1.01961,-3.10525 -4.2704,-8.71513z" data-paper-data="{&quot;index&quot;:null}" fill="#ae7e26" stroke="#000000" stroke-width="2" stroke-linecap="butt"/><g><path d="M461.77039,181.04527c0,12.90339 -10.41183,23.36366 -23.25549,23.36366c-12.84365,0 -23.25549,-10.46027 -23.25549,-23.36366c0,-12.90339 10.41183,-23.36366 23.25549,-23.36366c12.84365,0 23.25549,10.46027 23.25549,23.36366z" fill="#141418" stroke="#000000" stroke-width="2.5" stroke-linecap="butt"/><path d="M452.25187,182.06502c0,7.49279 -5.95654,13.56689 -13.3043,13.56689c-7.34776,0 -13.3043,-6.07411 -13.3043,-13.56689c0,-7.49279 5.95654,-13.56689 13.3043,-13.56689c7.34776,0 13.3043,6.07411 13.3043,13.56689z" fill="#434955" stroke="#000000" stroke-width="2.5" stroke-linecap="butt"/><path d="M426.17883,186.07495c0,0 -0.42741,-3.31245 -0.42741,-4.65111c0,-1.15931 0.42741,-2.92046 0.42741,-2.92046h25.32377c0,0 0.6411,1.83422 0.6411,2.92046c0,1.37081 -0.6411,4.65111 -0.6411,4.65111z" fill="#434955" stroke="#000000" stroke-width="2.5" stroke-linecap="butt"/><path d="M444.13949,182.45142c0,2.77782 -2.22764,5.02967 -4.97559,5.02967c-2.74795,0 -4.97559,-2.25186 -4.97559,-5.02967c0,-2.77782 2.22764,-5.02967 4.97559,-5.02967c2.74795,0 4.97559,2.25186 4.97559,5.02967z" fill="#585f6f" stroke="#000000" stroke-width="2.5" stroke-linecap="butt"/><path d="M438.56899,179.2876c0,-0.35843 0.29057,-0.64899 0.64899,-0.64899c0.35843,0 0.64899,0.29057 0.64899,0.64899c0,0.35843 -0.29057,0.64899 -0.64899,0.64899c-0.35843,0 -0.64899,-0.29057 -0.64899,-0.64899z" fill="#8d5d15" stroke="none" stroke-width="0.5" stroke-linecap="butt"/><path d="M438.78532,185.88566c0,-0.35843 0.29057,-0.64899 0.64899,-0.64899c0.35843,0 0.64899,0.29057 0.64899,0.64899c0,0.35844 -0.29057,0.64899 -0.64899,0.64899c-0.35843,0 -0.64899,-0.29056 -0.64899,-0.64899z" fill="#8d5d15" stroke="none" stroke-width="0.5" stroke-linecap="butt"/><path d="M436.51385,185.02034c0,-0.35844 0.29057,-0.64899 0.64899,-0.64899c0.35843,0 0.64899,0.29057 0.64899,0.64899c0,0.35844 -0.29057,0.64899 -0.64899,0.64899c-0.35843,0 -0.64899,-0.29057 -0.64899,-0.64899z" fill="#8d5d15" stroke="none" stroke-width="0.5" stroke-linecap="butt"/><path d="M435.4322,182.74888c0,-0.35843 0.29057,-0.64899 0.64899,-0.64899c0.35843,0 0.64899,0.29057 0.64899,0.64899c0,0.35843 -0.29057,0.64899 -0.64899,0.64899c-0.35843,0 -0.64899,-0.29057 -0.64899,-0.64899z" fill="#8d5d15" stroke="none" stroke-width="0.5" stroke-linecap="butt"/><path d="M436.29752,180.09883c0,-0.35843 0.29057,-0.64899 0.64899,-0.64899c0.35843,0 0.64899,0.29056 0.64899,0.64899c0,0.35843 -0.29057,0.64899 -0.64899,0.64899c-0.35843,0 -0.64899,-0.29057 -0.64899,-0.64899z" fill="#8d5d15" stroke="none" stroke-width="0.5" stroke-linecap="butt"/><path d="M441.05678,180.53149c0,-0.35843 0.29057,-0.64899 0.64899,-0.64899c0.35843,0 0.64899,0.29057 0.64899,0.64899c0,0.35843 -0.29056,0.64899 -0.64899,0.64899c-0.35843,0 -0.64899,-0.29057 -0.64899,-0.64899z" fill="#8d5d15" stroke="none" stroke-width="0.5" stroke-linecap="butt"/><path d="M441.65169,183.2897c0,-0.35843 0.29057,-0.64899 0.64899,-0.64899c0.35843,0 0.64899,0.29057 0.64899,0.64899c0,0.35844 -0.29057,0.64899 -0.64899,0.64899c-0.35843,0 -0.64899,-0.29057 -0.64899,-0.64899z" fill="#8d5d15" stroke="none" stroke-width="0.5" stroke-linecap="butt"/><path d="M440.7323,184.91218c0,-0.35844 0.29057,-0.64899 0.64899,-0.64899c0.35843,0 0.64899,0.29057 0.64899,0.64899c0,0.35844 -0.29057,0.64899 -0.64899,0.64899c-0.35843,0 -0.64899,-0.29057 -0.64899,-0.64899z" fill="#8d5d15" stroke="none" stroke-width="0.5" stroke-linecap="butt"/><path d="M437.64959,182.64071c0,-0.89607 0.7264,-1.62248 1.62248,-1.62248c0.89607,0 1.62248,0.7264 1.62248,1.62248c0,0.89607 -0.7264,1.62248 -1.62248,1.62248c-0.89607,0 -1.62248,-0.7264 -1.62248,-1.62248z" fill="#434955" stroke="none" stroke-width="0.5" stroke-linecap="butt"/><path d="M451.27838,182.18101l-7.13889,0.10817" fill="none" stroke="#000000" stroke-width="2.5" stroke-linecap="round"/><path d="M426.61675,182.39734l7.67972,-0.43266" fill="none" stroke="#000000" stroke-width="2.5" stroke-linecap="round"/></g><path d="M429.99462,173.52689c-1.33335,0 -2.41424,-1.08089 -2.41424,-2.41424v-60.3558c0,-1.33335 1.08089,-2.41424 2.41424,-2.41424h28.36722c1.33335,0 2.41424,1.08089 2.41424,2.41424v60.3558c0,1.33335 -1.08089,2.41424 -2.41424,2.41424z" fill="#101317" stroke="#000000" stroke-width="2.5" stroke-linecap="butt"/><path d="M410.98255,174.734c-1.33335,0 -2.41424,-1.08089 -2.41424,-2.41424v-27.46188c0,-1.33335 1.08089,-2.41424 2.41424,-2.41424c0,0 2.82917,0.37615 3.31957,-0.90533c0.41842,-1.09338 1.064,-5.07071 2.36586,-5.90425c6.59622,-4.22335 22.59533,-2.19452 24.70807,-0.97055c3.10966,1.80151 -0.2156,30.11178 -0.2156,30.11178c1.33335,0 -4.82847,0.77911 -4.82847,2.11245l-6.03558,5.43202c0,1.33335 -1.08089,2.41424 -2.41424,2.41424z" fill="#101317" stroke="#000000" stroke-width="2.5" stroke-linecap="butt"/><g><path d="M548.73804,186.93703c-0.33078,-0.80049 -4.86421,0.02119 -5.10335,-0.81984c-0.60843,-2.13982 -0.25357,-4.40211 -0.25357,-6.74212c0,-13.33881 10.72463,-24.15205 22.60229,-24.15205c1.70581,0 4.00577,-0.95947 7.55493,-0.34217c3.88481,0.67567 9.02205,2.96912 10.57151,3.87387c4.42882,2.58604 3.76939,3.45765 2.7324,6.22534c-0.28538,0.76167 -5.74601,-5.79743 -12.33637,-6.42117c-2.43882,-0.23082 -13.51441,-0.00891 -18.45064,7.39131c-2.41082,3.6142 -5.25028,7.48523 -6.12892,11.84558c-1.21649,6.03703 -0.05586,11.88164 -1.18828,9.14126z" fill="#ae7e26" stroke="#000000" stroke-width="2" stroke-linecap="butt"/><g><path d="M593.10616,181.81522c0,12.25594 -9.8894,22.19134 -22.0886,22.19134c-12.1992,0 -22.0886,-9.9354 -22.0886,-22.19134c0,-12.25594 9.8894,-22.19134 22.0886,-22.19134c12.1992,0 22.0886,9.9354 22.0886,22.19134z" fill="#141418" stroke="#000000" stroke-width="2.5" stroke-linecap="butt"/><path d="M584.06524,182.7838c0,7.11682 -5.65766,12.88615 -12.63673,12.88615c-6.97907,0 -12.63673,-5.76933 -12.63673,-12.88615c0,-7.11682 5.65766,-12.88615 12.63673,-12.88615c6.97907,0 12.63673,5.76932 12.63673,12.88615z" fill="#434955" stroke="#000000" stroke-width="2.5" stroke-linecap="butt"/><path d="M559.30047,186.59253c0,0 -0.40596,-3.14623 -0.40596,-4.41771c0,-1.10114 0.40596,-2.77392 0.40596,-2.77392h24.05309c0,0 0.60894,1.74219 0.60894,2.77392c0,1.30202 -0.60894,4.41771 -0.60894,4.41771z" fill="#434955" stroke="#000000" stroke-width="2.5" stroke-linecap="butt"/><path d="M576.35992,183.15082c0,2.63843 -2.11587,4.7773 -4.72593,4.7773c-2.61006,0 -4.72594,-2.13887 -4.72594,-4.7773c0,-2.63844 2.11588,-4.7773 4.72594,-4.7773c2.61006,0 4.72593,2.13887 4.72593,4.7773z" fill="#585f6f" stroke="#000000" stroke-width="2.5" stroke-linecap="butt"/><path d="M571.06893,180.14573c0,-0.34045 0.27598,-0.61643 0.61643,-0.61643c0.34045,0 0.61643,0.27598 0.61643,0.61643c0,0.34045 -0.27598,0.61643 -0.61643,0.61643c-0.34045,0 -0.61643,-0.27598 -0.61643,-0.61643z" fill="#8d5d15" stroke="none" stroke-width="0.5" stroke-linecap="butt"/><path d="M571.2744,186.41273c0,-0.34045 0.27598,-0.61643 0.61643,-0.61643c0.34045,0 0.61643,0.27598 0.61643,0.61643c0,0.34045 -0.27598,0.61643 -0.61643,0.61643c-0.34045,0 -0.61643,-0.27598 -0.61643,-0.61643z" fill="#8d5d15" stroke="none" stroke-width="0.5" stroke-linecap="butt"/><path d="M569.1169,185.59083c0,-0.34045 0.27598,-0.61643 0.61643,-0.61643c0.34045,0 0.61643,0.27598 0.61643,0.61643c0,0.34045 -0.27598,0.61643 -0.61643,0.61643c-0.34045,0 -0.61643,-0.27598 -0.61643,-0.61643z" fill="#8d5d15" stroke="none" stroke-width="0.5" stroke-linecap="butt"/><path d="M568.08953,183.43334c0,-0.34045 0.27598,-0.61643 0.61643,-0.61643c0.34045,0 0.61643,0.27598 0.61643,0.61643c0,0.34045 -0.27598,0.61643 -0.61643,0.61643c-0.34045,0 -0.61643,-0.27598 -0.61643,-0.61643z" fill="#8d5d15" stroke="none" stroke-width="0.5" stroke-linecap="butt"/><path d="M568.91143,180.91627c0,-0.34045 0.27598,-0.61643 0.61643,-0.61643c0.34045,0 0.61643,0.27598 0.61643,0.61643c0,0.34045 -0.27598,0.61643 -0.61643,0.61643c-0.34045,0 -0.61643,-0.27598 -0.61643,-0.61643z" fill="#8d5d15" stroke="none" stroke-width="0.5" stroke-linecap="butt"/><path d="M573.4319,181.32721c0,-0.34045 0.27598,-0.61643 0.61643,-0.61643c0.34045,0 0.61643,0.27598 0.61643,0.61643c0,0.34045 -0.27598,0.61643 -0.61643,0.61643c-0.34045,0 -0.61643,-0.27599 -0.61643,-0.61643z" fill="#8d5d15" stroke="none" stroke-width="0.5" stroke-linecap="butt"/><path d="M573.99695,183.94704c0,-0.34045 0.27598,-0.61643 0.61643,-0.61643c0.34045,0 0.61643,0.27598 0.61643,0.61643c0,0.34045 -0.27598,0.61643 -0.61643,0.61643c-0.34045,0 -0.61643,-0.27598 -0.61643,-0.61643z" fill="#8d5d15" stroke="none" stroke-width="0.5" stroke-linecap="butt"/><path d="M573.12368,185.4881c0,-0.34045 0.27598,-0.61643 0.61643,-0.61643c0.34045,0 0.61643,0.27598 0.61643,0.61643c0,0.34045 -0.27598,0.61643 -0.61643,0.61643c-0.34045,0 -0.61643,-0.27598 -0.61643,-0.61643z" fill="#8d5d15" stroke="none" stroke-width="0.5" stroke-linecap="butt"/><path d="M570.19565,183.3306c0,-0.8511 0.68996,-1.54106 1.54106,-1.54106c0.8511,0 1.54106,0.68996 1.54106,1.54106c0,0.8511 -0.68996,1.54106 -1.54106,1.54106c-0.8511,0 -1.54106,-0.68996 -1.54106,-1.54106z" fill="#434955" stroke="none" stroke-width="0.5" stroke-linecap="butt"/><path d="M576.35992,182.99671l6.78069,-0.10274" fill="none" stroke="#000000" stroke-width="2.5" stroke-linecap="round"/><path d="M559.71641,183.09945l7.29437,-0.41095" fill="none" stroke="#000000" stroke-width="2.5" stroke-linecap="round"/></g><path d="M572.96957,158.73349l-1.36984,-4.52046" fill="none" stroke="#000000" stroke-width="2" stroke-linecap="round"/><path d="M555.43566,164.07586l-3.2876,-3.28761" fill="none" stroke="#000000" stroke-width="2" stroke-linecap="round"/></g><path d="M458.31155,187.00634l6.43795,-8.651l78.66371,-1.81067l23.53876,10.46167z" fill="#2d3139" stroke="#000000" stroke-width="2.5" stroke-linecap="butt"/><path d="M560.11166,181.37313l12.8759,-20.72216l7.2427,8.651l0.80475,-0.80475c0,0 -4.09904,13.26272 -7.9352,15.62342c-2.24649,1.38245 -12.98815,-2.74752 -12.98815,-2.74752z" fill="#191b1f" stroke="#000000" stroke-width="2.5" stroke-linecap="butt"/><path d="M463.54239,179.46188c0,12.05565 -10.26844,21.82867 -22.9352,21.82867c-12.66676,0 -22.9352,-9.77302 -22.9352,-21.82867c0,-12.05565 10.26844,-21.82868 22.9352,-21.82868c3.5549,0 7.92684,-1.84565 10.92997,-0.47172c1.24478,0.56949 0.7914,5.33488 1.855,6.21484c0.5154,0.4264 6.85753,-0.96054 7.35452,-0.5368c4.81981,4.10943 2.79572,10.03205 2.79572,16.62236z" fill="#070e16" stroke="#000000" stroke-width="2.5" stroke-linecap="butt"/><path d="M459.31749,192.03599v-6.03558h106.42738v17.302c0,0 -1.85496,-0.56838 -6.27788,-3.83789c-2.82995,-2.09195 -7.18649,-7.42854 -11.22531,-7.42854c-22.36577,0 -59.66661,0 -72.02458,0c-3.79521,0 -14.30659,3.01778 -17.50317,3.01778c-3.41863,0 0.60356,-3.01778 0.60356,-3.01778z" fill="#2d3139" stroke="#000000" stroke-width="2.5" stroke-linecap="butt"/><path d="M472.99812,191.83481l-12.87591,-0.40237" fill="none" stroke="#000000" stroke-width="2.5" stroke-linecap="round"/><path d="M550.25354,191.83481l15.29014,-0.40237" fill="none" stroke="#000000" stroke-width="2.5" stroke-linecap="round"/><path d="M450.14532,183.02274c-3.27536,-5.6523 -9.04817,-9.7006 -14.10374,-13.59347c-10.35145,-7.97076 -23.85208,-1.65634 -27.13622,-0.18694c-8.87461,3.97073 -20.02211,28.94491 -20.77775,28.01968c-2.74577,-3.36205 -7.4937,-3.45941 -2.55008,-9.14229c3.13788,-16.4736 15.84394,-23.08891 20.93023,-25.85801c1.87539,-1.02102 12.74264,-5.429 22.09145,-3.8244c13.81553,2.37128 27.64945,12.63338 31.3952,23.70076c1.10178,3.25535 2.25826,9.85684 2.41934,13.12017c0.06332,1.28262 -6.22796,-1.34731 -6.31125,-0.07796c-0.2851,4.34553 -1.42236,-4.3318 -5.95717,-12.15756z" data-paper-data="{&quot;index&quot;:null}" fill="#ae7e26" stroke="#000000" stroke-width="2" stroke-linecap="butt"/><g><path d="M453.98605,197.97098c0,18.00013 -14.52443,32.59213 -32.44125,32.59213c-17.9168,0 -32.44125,-14.59199 -32.44125,-32.59213c0,-18.00013 14.52444,-32.59213 32.44125,-32.59213c17.91681,0 32.44125,14.59199 32.44125,32.59213z" fill="#141418" stroke="#000000" stroke-width="2.5" stroke-linecap="butt"/><path d="M440.70777,199.39352c0,10.45238 -8.30934,18.9257 -18.55941,18.9257c-10.25008,0 -18.55941,-8.47333 -18.55941,-18.9257c0,-10.45238 8.30934,-18.92571 18.55941,-18.92571c10.25008,0 18.55941,8.47333 18.55941,18.92571z" fill="#434955" stroke="#000000" stroke-width="2.5" stroke-linecap="butt"/><path d="M404.33609,204.98734c0,0 -0.59622,-4.62083 -0.59622,-6.48825c0,-1.61723 0.59622,-4.07401 0.59622,-4.07401h35.32647c0,0 0.89434,2.55873 0.89434,4.07401c0,1.91226 -0.89434,6.48825 -0.89434,6.48825z" fill="#434955" stroke="#000000" stroke-width="2.5" stroke-linecap="butt"/><path d="M429.39106,199.93254c0,3.87503 -3.10755,7.01636 -6.94092,7.01636c-3.83336,0 -6.94092,-3.14133 -6.94092,-7.01636c0,-3.87503 3.10755,-7.01636 6.94092,-7.01636c3.83336,0 6.94092,3.14133 6.94092,7.01636z" fill="#585f6f" stroke="#000000" stroke-width="2.5" stroke-linecap="butt"/><path d="M421.62025,195.51902c0,-0.49999 0.40533,-0.90533 0.90533,-0.90533c0.5,0 0.90533,0.40534 0.90533,0.90533c0,0.49999 -0.40533,0.90533 -0.90533,0.90533c-0.5,0 -0.90533,-0.40534 -0.90533,-0.90533z" fill="#8d5d15" stroke="none" stroke-width="0.5" stroke-linecap="butt"/><path d="M421.92203,204.72328c0,-0.49999 0.40533,-0.90533 0.90533,-0.90533c0.5,0 0.90533,0.40534 0.90533,0.90533c0,0.49999 -0.40533,0.90533 -0.90533,0.90533c-0.5,0 -0.90533,-0.40534 -0.90533,-0.90533z" fill="#8d5d15" stroke="none" stroke-width="0.5" stroke-linecap="butt"/><path d="M418.75335,203.51617c0,-0.49999 0.40533,-0.90533 0.90533,-0.90533c0.5,0 0.90533,0.40534 0.90533,0.90533c0,0.49999 -0.40533,0.90533 -0.90533,0.90533c-0.5,0 -0.90533,-0.40534 -0.90533,-0.90533z" fill="#8d5d15" stroke="none" stroke-width="0.5" stroke-linecap="butt"/><path d="M417.24446,200.34749c0,-0.49999 0.40533,-0.90533 0.90533,-0.90533c0.5,0 0.90533,0.40534 0.90533,0.90533c0,0.49999 -0.40533,0.90533 -0.90533,0.90533c-0.5,0 -0.90533,-0.40534 -0.90533,-0.90533z" fill="#8d5d15" stroke="none" stroke-width="0.5" stroke-linecap="butt"/><path d="M418.45157,196.65069c0,-0.49999 0.40533,-0.90533 0.90533,-0.90533c0.5,0 0.90533,0.40534 0.90533,0.90533c0,0.49999 -0.40533,0.90533 -0.90533,0.90533c-0.5,0 -0.90533,-0.40534 -0.90533,-0.90533z" fill="#8d5d15" stroke="none" stroke-width="0.5" stroke-linecap="butt"/><path d="M425.09071,197.25426c0,-0.49999 0.40533,-0.90533 0.90533,-0.90533c0.5,0 0.90533,0.40534 0.90533,0.90533c0,0.49999 -0.40533,0.90533 -0.90533,0.90533c-0.5,0 -0.90533,-0.40534 -0.90533,-0.90533z" fill="#8d5d15" stroke="none" stroke-width="0.5" stroke-linecap="butt"/><path d="M425.92061,201.10193c0,-0.49999 0.40533,-0.90533 0.90533,-0.90533c0.5,0 0.90533,0.40534 0.90533,0.90533c0,0.49999 -0.40533,0.90533 -0.90533,0.90533c-0.5,0 -0.90533,-0.40534 -0.90533,-0.90533z" fill="#8d5d15" stroke="none" stroke-width="0.5" stroke-linecap="butt"/><path d="M424.63804,203.36528c0,-0.49999 0.40533,-0.90533 0.90533,-0.90533c0.5,0 0.90533,0.40534 0.90533,0.90533c0,0.49999 -0.40533,0.90533 -0.90533,0.90533c-0.5,0 -0.90533,-0.40534 -0.90533,-0.90533z" fill="#8d5d15" stroke="none" stroke-width="0.5" stroke-linecap="butt"/><path d="M420.3377,200.1966c0,-1.25001 1.01333,-2.26334 2.26334,-2.26334c1.25001,0 2.26334,1.01333 2.26334,2.26334c0,1.25001 -1.01333,2.26334 -2.26334,2.26334c-1.25001,0 -2.26334,-1.01333 -2.26334,-2.26334z" fill="#434955" stroke="none" stroke-width="0.5" stroke-linecap="butt"/><path d="M429.39106,199.70621l9.9587,-0.15089" fill="none" stroke="#000000" stroke-width="2.5" stroke-linecap="round"/><path d="M415.66011,199.25354l-10.71315,0.60356" fill="none" stroke="#000000" stroke-width="2.5" stroke-linecap="round"/></g><path d="M408.68905,160.41989l0.22273,6.93369" data-paper-data="{&quot;index&quot;:null}" fill="none" stroke="#000000" stroke-width="2" stroke-linecap="round"/><path d="M438.44311,161.81679l-3.02568,6.12156" data-paper-data="{&quot;index&quot;:null}" fill="none" stroke="#000000" stroke-width="2" stroke-linecap="round"/><path d="M463.94475,183.98856v-12.67472h44.66329v12.67472z" fill="#191b1f" stroke="#000000" stroke-width="2.5" stroke-linecap="butt"/><path d="M462.40215,170.50909v-3.21898c0,0 -4.33512,-26.1092 -2.67661,-36.61217c0.47823,-3.02855 5.69536,-1.6237 6.42703,-1.78963c1.12608,-0.25539 6.31957,35.7864 6.84878,35.7864c6.74602,0 32.95387,0.40236 32.95387,0.40236l3.66154,5.43202c0,0 0.46957,1.81067 -1.15627,1.81067c-4.41409,0 -30.06712,1.07935 -42.02556,0.55275c-4.70522,-0.2072 -4.03276,-2.36343 -4.03276,-2.36343z" fill="#4c4f57" stroke="#000000" stroke-width="2.5" stroke-linecap="butt"/><g><path d="M570.79589,206.09687c-0.48582,-1.17566 -7.144,0.03113 -7.49522,-1.20408c-0.8936,-3.14273 -0.37242,-6.46532 -0.37242,-9.90207c0,-19.59054 15.75111,-35.4718 33.19568,-35.4718c2.50529,0 5.88323,-1.40917 11.09583,-0.50254c5.70556,0.99236 13.25055,4.3607 15.52624,5.6895c6.50454,3.79807 5.53606,5.07822 4.01304,9.14309c-0.41913,1.11866 -8.43909,-8.51462 -18.11826,-9.4307c-3.58187,-0.33901 -19.84844,-0.01308 -27.09822,10.85551c-3.54074,5.30814 -7.71102,10.99346 -9.00147,17.39746c-1.78665,8.86651 -0.08204,17.45042 -1.74521,13.42566z" fill="#ae7e26" stroke="#000000" stroke-width="2" stroke-linecap="butt"/><g><path d="M635.95876,198.57454c0,18.00013 -14.52444,32.59213 -32.44125,32.59213c-17.9168,0 -32.44125,-14.59199 -32.44125,-32.59213c0,-18.00013 14.52444,-32.59213 32.44125,-32.59213c17.9168,0 32.44125,14.59199 32.44125,32.59213z" fill="#141418" stroke="#000000" stroke-width="2.5" stroke-linecap="butt"/><path d="M622.68049,199.99707c0,10.45238 -8.30934,18.9257 -18.55941,18.9257c-10.25008,0 -18.55941,-8.47333 -18.55941,-18.9257c0,-10.45238 8.30934,-18.92571 18.55941,-18.92571c10.25008,0 18.55941,8.47333 18.55941,18.92571z" fill="#434955" stroke="#000000" stroke-width="2.5" stroke-linecap="butt"/><path d="M586.30881,205.5909c0,0 -0.59623,-4.62083 -0.59623,-6.48825c0,-1.61723 0.59623,-4.07401 0.59623,-4.07401h35.32647c0,0 0.89434,2.55873 0.89434,4.07401c0,1.91226 -0.89434,6.48825 -0.89434,6.48825z" fill="#434955" stroke="#000000" stroke-width="2.5" stroke-linecap="butt"/><path d="M611.36378,200.53611c0,3.87503 -3.10755,7.01636 -6.94092,7.01636c-3.83336,0 -6.94092,-3.14133 -6.94092,-7.01636c0,-3.87503 3.10755,-7.01636 6.94092,-7.01636c3.83336,0 6.94092,3.14133 6.94092,7.01636z" fill="#585f6f" stroke="#000000" stroke-width="2.5" stroke-linecap="butt"/><path d="M603.59298,196.12258c0,-0.49999 0.40534,-0.90533 0.90533,-0.90533c0.49999,0 0.90533,0.40534 0.90533,0.90533c0,0.49999 -0.40534,0.90533 -0.90533,0.90533c-0.49999,0 -0.90533,-0.40534 -0.90533,-0.90533z" fill="#8d5d15" stroke="none" stroke-width="0.5" stroke-linecap="butt"/><path d="M603.89475,205.32684c0,-0.49999 0.40534,-0.90533 0.90533,-0.90533c0.49999,0 0.90533,0.40534 0.90533,0.90533c0,0.49999 -0.40534,0.90533 -0.90533,0.90533c-0.49999,0 -0.90533,-0.40534 -0.90533,-0.90533z" fill="#8d5d15" stroke="none" stroke-width="0.5" stroke-linecap="butt"/><path d="M600.72608,204.11973c0,-0.49999 0.40534,-0.90533 0.90533,-0.90533c0.49999,0 0.90533,0.40534 0.90533,0.90533c0,0.49999 -0.40534,0.90533 -0.90533,0.90533c-0.49999,0 -0.90533,-0.40534 -0.90533,-0.90533z" fill="#8d5d15" stroke="none" stroke-width="0.5" stroke-linecap="butt"/><path d="M599.21718,200.95105c0,-0.49999 0.40534,-0.90533 0.90533,-0.90533c0.49999,0 0.90533,0.40534 0.90533,0.90533c0,0.49999 -0.40534,0.90533 -0.90533,0.90533c-0.49999,0 -0.90533,-0.40534 -0.90533,-0.90533z" fill="#8d5d15" stroke="none" stroke-width="0.5" stroke-linecap="butt"/><path d="M600.42429,197.25426c0,-0.49999 0.40534,-0.90533 0.90533,-0.90533c0.49999,0 0.90533,0.40534 0.90533,0.90533c0,0.49999 -0.40534,0.90533 -0.90533,0.90533c-0.49999,0 -0.90533,-0.40534 -0.90533,-0.90533z" fill="#8d5d15" stroke="none" stroke-width="0.5" stroke-linecap="butt"/><path d="M607.06343,197.85781c0,-0.49999 0.40534,-0.90533 0.90533,-0.90533c0.49999,0 0.90533,0.40534 0.90533,0.90533c0,0.49999 -0.40534,0.90533 -0.90533,0.90533c-0.49999,0 -0.90533,-0.40534 -0.90533,-0.90533z" fill="#8d5d15" stroke="none" stroke-width="0.5" stroke-linecap="butt"/><path d="M607.89333,201.7055c0,-0.49999 0.40534,-0.90533 0.90533,-0.90533c0.49999,0 0.90533,0.40534 0.90533,0.90533c0,0.49999 -0.40534,0.90533 -0.90533,0.90533c-0.49999,0 -0.90533,-0.40534 -0.90533,-0.90533z" fill="#8d5d15" stroke="none" stroke-width="0.5" stroke-linecap="butt"/><path d="M606.61077,203.96884c0,-0.49999 0.40534,-0.90533 0.90533,-0.90533c0.49999,0 0.90533,0.40534 0.90533,0.90533c0,0.49999 -0.40534,0.90533 -0.90533,0.90533c-0.49999,0 -0.90533,-0.40534 -0.90533,-0.90533z" fill="#8d5d15" stroke="none" stroke-width="0.5" stroke-linecap="butt"/><path d="M602.31042,200.80016c0,-1.25001 1.01333,-2.26334 2.26334,-2.26334c1.25001,0 2.26334,1.01333 2.26334,2.26334c0,1.25001 -1.01333,2.26334 -2.26334,2.26334c-1.25001,0 -2.26334,-1.01333 -2.26334,-2.26334z" fill="#434955" stroke="none" stroke-width="0.5" stroke-linecap="butt"/><path d="M611.36379,200.30977l9.9587,-0.15089" fill="none" stroke="#000000" stroke-width="2.5" stroke-linecap="round"/><path d="M586.91969,200.46066l10.71315,-0.60356" fill="none" stroke="#000000" stroke-width="2.5" stroke-linecap="round"/></g><path d="M604.37257,158.03556l2.01186,6.63914" fill="none" stroke="#000000" stroke-width="2" stroke-linecap="round"/><path d="M575.80417,167.6925l4.82847,4.82847" fill="none" stroke="#000000" stroke-width="2" stroke-linecap="round"/></g><path d="M460.96254,185.21794l-6.86121,-55.92724l7.19244,-0.85173l6.86121,57.93909z" fill="#191b1f" stroke="#000000" stroke-width="2.5" stroke-linecap="butt"/><path d="M474.00405,162.86403l-7.0415,7.2427" fill="none" stroke="#000000" stroke-width="2.5" stroke-linecap="round"/><path d="M565.09025,184.72924c-0.70481,1.51031 -2.42693,3.0158 -8.06545,0.3845c-5.63852,-2.63131 -13.25941,-7.19588 -12.5546,-8.70619c0.70481,-1.51031 4.03642,-0.80276 9.67494,1.82855c5.63852,2.63131 11.64993,4.98282 10.94511,6.49314z" fill="#070e16" stroke="#000000" stroke-width="2.5" stroke-linecap="butt"/><path d="M547.63813,175.94111c0,0 8.33019,-15.87743 8.95088,-18.0498c0.1608,-0.56278 0.50487,-0.45931 0.50487,-0.45931l17.90555,3.62135l-14.08302,21.32571z" fill="#191b1f" stroke="#000000" stroke-width="2.5" stroke-linecap="butt"/><path d="M562.47559,159.34328l-4.82847,10.56226" fill="none" stroke="#000000" stroke-width="2.5" stroke-linecap="round"/><path d="M559.75958,175.33756l-8.14804,-2.71601" fill="none" stroke="#000000" stroke-width="2.5" stroke-linecap="round"/><path d="M543.46351,179.56247l-33.19568,0.60356" fill="none" stroke="#000000" stroke-width="2.5" stroke-linecap="round"/></g><path d="M504.45147,171.87523l6.15778,-21.11178l2.95664,0.25447l-3.38885,21.979z" fill="#191b1f" stroke="#000000" stroke-width="2.5" stroke-linecap="butt"/><g fill="#191b1f" stroke="#000000" stroke-width="2.5" stroke-linecap="butt"><path d="M512.22307,184.0853l-18.68441,-0.78287c0,0 2.55877,-10.77639 6.33606,-13.97711c4.81794,-4.08252 20.21685,-8.52273 20.21685,-8.52273l1.3005,22.75876z"/><path d="M522.38928,184.25188c0,0.76988 -6.75509,1.39399 -15.08793,1.39399c-8.33283,0 -43.85753,-0.42292 -43.85753,-1.19281c0,-0.76988 35.52469,-1.59518 43.85753,-1.59518c8.33283,0 15.08793,0.62411 15.08793,1.39399z"/></g><path d="M514.29513,152.78203c-1.46962,1.18666 -3.53809,1.0624 -4.62005,-0.27755c-1.08196,-1.33995 -0.76769,-3.38817 0.70194,-4.57484c1.46962,-1.18666 3.53809,-1.0624 4.62005,0.27755c1.08196,1.33995 0.76769,3.38817 -0.70194,4.57484z" fill="#1f1919" stroke="#000000" stroke-width="2.5" stroke-linecap="butt"/></g><g><path d="M330.86654,192.25331c2.53521,1.87347 4.27952,3.68419 3.96781,3.73429c-0.28058,0.04507 0.54975,0.78454 -2.52215,1.88234c-2.35483,0.84154 -8.42095,2.04117 -10.47983,2.40965c-3.58298,0.64123 -4.49642,-1.15333 -4.63114,-1.20804c-0.43589,-0.17703 -1.4653,-3.11645 -2.71617,-7.24319c1.82951,-0.48566 3.65447,-0.98306 5.47885,-1.48713c1.94174,-0.53647 3.85045,-1.14059 5.7531,-1.76364c1.16401,1.0156 3.36622,2.35793 5.14949,3.67572z" data-paper-data="{&quot;index&quot;:null}" fill="#ffffff" stroke="#000000" stroke-width="2" stroke-linecap="butt"/><path d="M328.52236,189.40813c0.62389,1.10227 0.55801,0.95255 -4.69604,4.08105c-5.25405,3.1285 -10.01906,4.77108 -10.64295,3.6688c-0.12054,-0.21299 -1.41249,-2.2856 -2.53932,-5.55346c-4.85378,-14.07644 -21.07248,-47.0986 -21.07248,-47.0986c0,0 13.82853,-7.93195 19.20733,2.78239c3.05102,6.07748 11.86846,25.11388 16.62137,35.38777c0.63745,1.37794 2.30459,3.00091 2.7721,4.01121c0.8819,1.9058 0.31646,2.66158 0.35,2.72081z" data-paper-data="{&quot;index&quot;:null}" fill="#a68f79" stroke="#000000" stroke-width="1.5" stroke-linecap="butt"/><path d="M298.39869,198.29381c-0.48601,3.62616 -1.10351,7.9966 -3.68377,6.12061c-1.97798,-1.43807 -6.23472,-5.64376 -7.64597,-7.0912c-2.45593,-2.51897 -1.38612,-4.17466 -1.41019,-4.31016c-0.08445,-0.47549 2.27472,-3.18804 5.58925,-6.72021c0.63086,0.5698 1.26524,1.13577 1.90584,1.69511c1.98928,1.73693 3.97624,3.47639 5.96021,5.21936c0.1096,0.09629 0.2193,0.19249 0.32906,0.28858c-1.15933,1.3937 -0.75678,2.65142 -1.04446,4.79789z" data-paper-data="{&quot;index&quot;:null}" fill="#ffffff" stroke="#000000" stroke-width="2" stroke-linecap="butt"/><path d="M301.53029,196.50304c-0.51836,1.15444 -0.43698,1.01313 -5.98902,-1.47975c-5.55204,-2.49287 -9.63263,-5.44959 -9.11426,-6.60404c0.10016,-0.22309 1.00576,-2.49142 2.9624,-5.32034c0.9551,-1.38087 2.63018,-4.02961 3.76741,-5.85663c2.04684,-3.28833 -6.10719,-16.00554 -3.80691,-20.04057c0.82711,-1.45087 8.12724,-1.18112 9.01899,-2.48086c2.09809,1.86387 4.5142,3.56354 7.3602,5.53459l0.3295,0.00371c1.82248,0.81829 -3.2765,-2.90153 -1.32066,-2.54317c0.28944,4.93062 6.4746,20.08102 5.2329,22.34684c-2.7342,4.9893 -2.83175,6.24677 -4.8749,9.95471c-0.73076,1.32619 -1.05914,3.64071 -1.59484,4.61317c-1.01054,1.8344 -1.94294,1.81024 -1.97079,1.87229z" fill="#a68f79" stroke="#000000" stroke-width="1.5" stroke-linecap="butt"/><g stroke="#000000" stroke-width="2" stroke-linecap="butt"><path d="M307.61899,136.4178c0.1475,-0.09825 0.29363,-0.19903 0.43824,-0.3028c2.00099,-1.43579 3.99435,-2.78686 6.11525,-4.02205c0.91594,-0.53344 1.84205,-1.04097 2.74397,-1.5766c7.04631,11.15082 13.12953,19.9721 8.0822,23.15002c-5.58928,3.39137 -10.31855,-6.00355 -17.37965,-17.24856z" data-paper-data="{&quot;index&quot;:null}" fill="#ffffff"/><path d="M307.68241,137.21759c-3.8776,-5.32443 -6.88098,-10.91142 -8.80058,-14.99591c-2.01571,-4.28901 -3.55785,-6.24808 -2.22789,-7.22249c5.69226,-0.6306 12.48177,4.41384 20.43112,15.32932c0.05069,0.06961 0.10134,0.13913 0.15196,0.20855c-0.91953,0.60841 -1.86628,1.1896 -2.79838,1.79811c-2.18586,1.42701 -4.23388,2.96107 -6.28617,4.58135c-0.14609,0.11535 -0.29389,0.22788 -0.44317,0.338c-0.00896,-0.01231 -0.01791,-0.02462 -0.02689,-0.03693z" data-paper-data="{&quot;index&quot;:null}" fill="#334865"/></g><path d="M282.95656,124.78452c-0.14546,-13.66458 8.28771,-14.04732 8.28771,-14.04732c0,0 9.28414,-0.21486 13.14909,6.59845c4.29759,7.57597 8.62761,34.19425 11.07742,42.38807c-0.89091,0.13554 1.48455,-1.51545 0.59366,-1.37992c-0.64944,0.0988 -1.30058,0.19365 -1.95262,0.28711c-2.80962,0.40274 -5.63592,0.77991 -8.41467,1.33832c-3.4293,0.68913 -6.85857,1.37829 -10.28787,2.06742c-2.11271,0.42458 -4.22299,0.95326 -6.34414,1.36069c-1.62413,-7.95204 -6.01914,-30.20806 -6.1086,-38.61282z" fill="#334865" stroke="#000000" stroke-width="2" stroke-linecap="butt"/><path d="M294.88836,156.92189l0.85459,-10.82354" fill="none" stroke="#000000" stroke-width="2" stroke-linecap="round"/><path d="M311.62821,152.77249l-3.43938,-6.66911" fill="none" stroke="#000000" stroke-width="2" stroke-linecap="round"/><path d="M302.02649,114.56575c0.69848,2.86299 -1.63976,5.1158 -6.03546,6.18821c-4.3957,1.07242 -8.52535,-0.37914 -9.22383,-3.24213c-0.69848,-2.86299 2.29872,-6.05327 6.6944,-7.12568c4.3957,-1.07242 7.86641,1.31661 8.56489,4.1796z" fill="#1b2737" stroke="none" stroke-width="0" stroke-linecap="butt"/><path d="M300.71356,113.48835c0.47272,1.93759 -1.1883,4.00701 -4.48507,4.81133c-3.29678,0.80432 -6.98089,0.03892 -7.4536,-1.89865c-0.47272,-1.93759 1.81665,-4.16031 5.11343,-4.96463c3.29678,-0.80432 6.35255,0.11438 6.82526,2.05196z" fill="#ffffff" stroke="#000000" stroke-width="1.5" stroke-linecap="butt"/><path d="M315.57373,90.56387c0.69896,12.92101 -8.61674,23.93013 -20.80723,24.58959c-12.19047,0.65945 -22.63942,-9.2805 -23.33839,-22.2015c-0.69896,-12.92101 8.61672,-23.93012 20.80721,-24.58958c12.19047,-0.65945 22.63943,9.28049 23.33841,22.20149z" fill="#ffffff" stroke="#000000" stroke-width="2" stroke-linecap="butt"/><path d="M288.61032,94.96644c-0.29109,-2.06159 0.31147,-3.85122 1.34585,-3.99729c1.03439,-0.14607 2.10893,1.40676 2.40004,3.46836c0.29109,2.06159 -0.31144,3.85123 -1.34585,3.9973c-1.03439,0.14607 -2.10895,-1.40678 -2.40006,-3.46838z" data-paper-data="{&quot;index&quot;:null}" fill="#000000" stroke="none" stroke-width="0.5" stroke-linecap="butt"/><path d="M303.25345,93.27979c-0.28519,-2.01974 0.22486,-3.76175 1.13925,-3.89089c0.91439,-0.12911 1.88686,1.40356 2.17205,3.4233c0.28519,2.01974 -0.22486,3.76176 -1.13925,3.8909c-0.91439,0.12911 -1.88686,-1.40357 -2.17205,-3.42331z" data-paper-data="{&quot;index&quot;:null}" fill="#000000" stroke="none" stroke-width="0.5" stroke-linecap="butt"/><path d="M281.18693,102.02489l28.1042,-2.44437" fill="none" stroke="#000000" stroke-width="1.5" stroke-linecap="round"/><path d="M280.76969,103.40865l0.85937,-3.50817" fill="none" stroke="#000000" stroke-width="1.5" stroke-linecap="round"/><path d="M279.84755,161.69527c-6.09483,0.21804 -6.02862,-10.73841 -6.48876,-24.21807c1.07052,-0.06622 2.14536,-0.17009 3.22651,-0.24622c2.50341,-0.17628 4.96569,-0.18125 7.48318,-0.11898c0.18193,0.00449 0.36345,0.0056 0.54465,0.00378c0.50186,13.56778 1.91014,24.23007 -4.76558,24.5795z" data-paper-data="{&quot;index&quot;:null}" fill="#ffffff" stroke="#000000" stroke-width="2" stroke-linecap="butt"/><path d="M284.52199,140.91931c-0.00466,0.01488 -0.0093,0.02975 -0.01394,0.04461c-0.18963,-0.06285 -0.37865,-0.12856 -0.56692,-0.19754c-2.645,-0.96902 -5.25503,-1.85438 -7.96579,-2.59212c-1.15593,-0.31458 -2.31692,-0.59776 -3.46016,-0.91609c0.02628,-0.08388 0.05257,-0.16787 0.07887,-0.25199c4.12304,-13.18661 9.16811,-20.23337 15.12853,-21.35261c1.68713,0.55349 0.83086,2.95547 0.32709,7.79812c-0.47973,4.61173 -1.51648,11.03537 -3.52766,17.46764z" data-paper-data="{&quot;index&quot;:null}" fill="#334865" stroke="#000000" stroke-width="2" stroke-linecap="butt"/><path d="M289.80552,119.69244c0.8863,3.63282 1.74471,10.12082 0.90122,10.32662c-0.84348,0.20578 -3.12082,-2.97563 -4.00712,-6.60845c-0.8863,-3.63282 -0.92102,-6.74463 -0.07754,-6.95041c0.84348,-0.20578 2.29713,-0.40057 3.18343,3.23225z" fill="#334865" stroke="none" stroke-width="0" stroke-linecap="butt"/></g></g></g></svg>