<svg version="1.1" xmlns="http://www.w3.org/2000/svg" xmlns:xlink="http://www.w3.org/1999/xlink" width="788" height="87" viewBox="0,0,788,87"><defs><linearGradient x1="-26.7612" y1="226.66668" x2="761.2388" y2="226.66668" gradientUnits="userSpaceOnUse" id="color-1"><stop offset="0" stop-color="#ffffff" stop-opacity="0"/><stop offset="1" stop-color="#ffffff" stop-opacity="0.38039"/></linearGradient><linearGradient x1="423.27002" y1="225.1115" x2="739.75547" y2="225.1115" gradientUnits="userSpaceOnUse" id="color-2"><stop offset="0" stop-color="#c4f3ff"/><stop offset="1" stop-color="#c4ffc4"/></linearGradient></defs><g transform="translate(26.7612,-183.16666)"><g data-paper-data="{&quot;isPaintingLayer&quot;:true}" fill-rule="nonzero" stroke-linejoin="miter" stroke-miterlimit="10" stroke-dasharray="" stroke-dashoffset="0" style="mix-blend-mode: normal"><path d="M371.89763,239.00002v-28l26.5,15.5z" fill="#ffffff" stroke="none" stroke-width="0" stroke-linecap="butt"/><path d="M-26.7612,270.16666v-87h788v87z" fill="url(#color-1)" stroke="none" stroke-width="0" stroke-linecap="butt"/><path d="M732.62655,202.96286c-0.00029,4.58578 14.25652,38.89162 2.44806,52.8543c-3.06106,3.61948 -34.09894,4.55437 -36.60749,4.80681c-24.16824,2.43206 -111.34621,5.19966 -184.90624,2.16378c-29.03998,-1.19851 -60.83446,3.27558 -78.87792,-1.95185c-19.13121,-5.54257 -8.42877,-63.67712 -8.42865,-65.82557c0.00059,-9.3074 69.79713,-8.90806 153.96816,-8.9052c84.17102,0.00287 151.62367,4.19564 151.62306,13.50303z" data-paper-data="{&quot;index&quot;:null}" fill="url(#color-2)" stroke-opacity="0.42353" stroke="#000000" stroke-width="2.5" stroke-linecap="butt"/><path d="M758.34439,198.0656c-5.49258,17.51687 8.26014,51.40916 -22.18263,60.81206c-4.97026,1.53517 -219.22658,3.38202 -219.3252,3.3511c-0.70265,-0.22032 1.93516,-75.01115 2.63781,-74.79083c0.03178,0.00996 -0.44694,0.49704 0.51891,0.46517c20.39185,-0.67288 244.45149,-9.29277 238.35111,10.16251z" fill="#ffffff" stroke-opacity="0.47843" stroke="#000000" stroke-width="2.5" stroke-linecap="butt"/><text transform="translate(528.18465,219.71067) scale(0.50025,0.47879)" font-size="40" xml:space="preserve" fill="#7c30e3" fill-rule="nonzero" stroke="#7c30e3" stroke-width="3" stroke-linecap="butt" stroke-linejoin="miter" stroke-miterlimit="10" stroke-dasharray="" stroke-dashoffset="0" font-family="Playful" font-weight="normal" text-anchor="start" style="mix-blend-mode: normal"><tspan x="0" dy="0">Create obsticles</tspan><tspan x="0" dy="46.150000000000006px">and have fun</tspan></text><path d="M499.01848,224.47938c0,16.95884 -12.49746,30.7067 -27.91386,30.7067c-15.4164,0 -27.91385,-13.74785 -27.91385,-30.7067c0,-16.95884 12.49746,-30.7067 27.91386,-30.7067c15.4164,0 27.91386,13.74786 27.91386,30.70671z" fill="#4a46af" stroke="none" stroke-width="NaN" stroke-linecap="butt"/><g fill="none" stroke="#00c0fb"><path d="M470.62972,242.57228c-8.83053,2.04427 -17.6346,3.97563 -17.6346,3.97563l-0.70156,-40.04289h28.06256c0,0 1.35217,4.57624 2.94939,10.2632" stroke-width="4.5" stroke-linecap="butt"/><path d="M457.02911,216.712l18.94223,-2.55175" stroke-width="2.5" stroke-linecap="round"/><path d="M458.43224,224.95613l20.16997,-4.31835" stroke-width="2.5" stroke-linecap="round"/><path d="M459.1338,234.96687l16.53746,-5.06075" stroke-width="2.5" stroke-linecap="round"/><path d="M498.4214,215.73058l-16.13598,27.08784l-8.24338,3.53319l0.70156,-9.61814l15.25902,-21.19918z" stroke-width="4" stroke-linecap="round"/></g></g></g></svg>