<svg version="1.1" xmlns="http://www.w3.org/2000/svg" xmlns:xlink="http://www.w3.org/1999/xlink" width="52.33167" height="141.4281" viewBox="0,0,52.33167,141.4281"><defs><radialGradient cx="327.90661" cy="146.71227" r="26.05961" gradientUnits="userSpaceOnUse" id="color-1"><stop offset="0" stop-color="#afb0e0" stop-opacity="0"/><stop offset="1" stop-color="#afb0e0" stop-opacity="0.31373"/></radialGradient></defs><g transform="translate(-296.4131,-125.66135)"><g data-paper-data="{&quot;isPaintingLayer&quot;:true}" fill-rule="nonzero" stroke-linejoin="miter" stroke-miterlimit="10" stroke-dasharray="" stroke-dashoffset="0" style="mix-blend-mode: normal"><path d="M325.16135,265.89052c-0.27288,1.18703 -16.59354,-3.27614 -16.32067,-4.46316c0.04109,-0.17874 0.5251,-2.57011 1.2889,-6.14196c1.78982,0.1248 4.11677,0.86973 5.42994,0.84593c2.88479,-0.05573 6.03928,0.70901 8.94797,1.15325c0.27998,0.61772 0.69476,1.62946 0.9101,2.62178c0.46949,2.1634 -0.09876,5.29902 -0.25626,5.98416z" fill="#ffffff" stroke="#000000" stroke-width="2" stroke-linecap="butt"/><path d="M321.56216,220.99112c4.58339,-10.04462 8.79791,-0.78826 14.56808,1.04116c0.5462,0.17316 -8.41235,32.7501 -10.00502,37.96927c-1.35033,-0.39418 -8.90579,-3.83757 -11.60165,-3.70108c-1.72902,0.27741 -4.68953,0.58517 -6.40277,0.63037c0.2774,-0.84845 0.36546,-2.25787 0.73068,-3.33489c3.086,-9.10038 9.23363,-24.98475 12.71069,-32.60485z" fill="#a68f79" stroke="#000000" stroke-width="2" stroke-linecap="butt"/><path d="M307.99811,223.89463c-0.84897,-11.00705 4.20514,-6.7178 9.45428,-7.79869c0.3028,-0.06236 8.78011,9.73442 11.19518,19.90909c1.24371,5.23977 -2.89355,16.95523 -2.88578,16.96167c-2.7882,0.73099 -4.64376,-0.39597 -7.19413,0.78314c-1.31875,0.61179 -7.15955,-2.98013 -8.84244,-2.39718c-0.18896,-0.92041 4.00589,-10.98445 3.67732,-11.96885c-1.85078,-5.54487 -5.70195,-9.66396 -6.02175,-13.81028z" fill="#a68f79" stroke="#000000" stroke-width="2" stroke-linecap="butt"/><path d="M325.52625,261.09914c-0.28307,1.18464 -16.56475,-3.4187 -16.28168,-4.60335c0.04262,-0.17839 0.54718,-2.56549 1.34166,-6.13065c1.78869,0.1402 4.10914,0.90509 5.42246,0.89259c2.88516,-0.03093 6.03295,0.76092 8.93773,1.23014c0.27466,0.62011 0.68072,1.63539 0.88752,2.62951c0.45088,2.16737 -0.14432,5.29796 -0.30771,5.98174z" fill="#ffffff" stroke="#000000" stroke-width="2" stroke-linecap="butt"/><path d="M329.48205,177.11965c0,3.48943 -5.101,6.31817 -11.39342,6.31817c-6.29242,0 -11.39342,-2.82874 -11.39342,-6.31817c0,-3.48943 1.57941,-5.38598 7.87182,-5.38598c6.29242,0 14.91502,1.89655 14.91502,5.38598z" fill="#334865" stroke="#000000" stroke-width="2" stroke-linecap="butt"/><path d="M341.90096,213.33381c0.31667,4.04128 -2.22292,7.53072 -5.67233,7.79388c-3.44941,0.26316 -6.50242,-2.79962 -6.81907,-6.8409c-0.09047,-1.15457 -0.4347,-4.75549 -0.80031,-9.32114c1.8267,-0.69476 3.66763,-1.35997 5.53945,-1.85346c1.95729,-0.51602 3.78657,-1.40066 5.74394,-1.88598c0.08036,-0.01993 0.16447,-0.0341 0.25065,-0.04479c1.05417,5.85057 1.64972,10.7745 1.75768,12.15238z" data-paper-data="{&quot;index&quot;:null}" fill="#ffffff" stroke="#000000" stroke-width="2" stroke-linecap="butt"/><path d="M329.09855,175.78605c4.17164,-0.56075 8.63834,11.92574 10.80975,21.70418c0.52882,2.38143 -0.24769,1.78553 0.15478,4.05984c-0.11633,0.00817 -0.21562,0.0184 -0.28262,0.03555c-1.96022,0.5018 -3.79101,1.41555 -5.75059,1.94896c-1.84438,0.50204 -3.65877,1.1748 -5.45913,1.87988c-0.90428,-11.78807 -1.88894,-29.30355 0.52781,-29.62841z" data-paper-data="{&quot;index&quot;:null}" fill="#334865" stroke="#000000" stroke-width="2" stroke-linecap="butt"/><path d="M316.78057,225.98003l0.3815,-4.29446l14.04405,1.2476l-0.3815,4.29446z" fill="#a68f79" stroke="none" stroke-width="0" stroke-linecap="butt"/><path d="M306.66397,223.80639c0,0 -0.17759,-17.61223 1.08049,-28.46941c1.42141,-12.26677 4.86953,-22.87543 14.01328,-23.14741c11.49567,-0.34194 12.49154,14.41192 14.04095,27.88541c1.18315,10.28856 1.78775,25.51554 1.78775,25.51554" fill="#334865" stroke="#000000" stroke-width="2" stroke-linecap="round"/><path d="M314.96249,175.72268c2.32493,0.53024 -0.89081,16.43564 -3.56289,28.43434c-2.12818,-0.26812 -4.25311,-0.55603 -6.36552,-0.93324c-1.55539,-0.27775 -3.11355,-0.46412 -4.67962,-0.63646c0.37815,-1.35925 -0.24728,-1.74273 0.1914,-3.18818c3.37222,-11.11174 9.4541,-24.80824 14.41665,-23.67646z" fill="#334865" stroke="#000000" stroke-width="2" stroke-linecap="butt"/><path d="M308.53106,216.87115c-0.72753,4.23293 -3.21431,6.3953 -6.77937,5.78257c-3.56507,-0.61273 -4.87227,-4.65128 -4.14475,-8.88421c0.22353,-1.30057 1.17401,-5.57997 2.62148,-10.8307c1.58098,0.17348 3.15379,0.35988 4.72372,0.64022c2.10584,0.37605 4.22404,0.66368 6.34555,0.93129c-1.34147,6.00551 -2.52462,10.95272 -2.76664,12.36084z" fill="#ffffff" stroke="#000000" stroke-width="2" stroke-linecap="butt"/><path d="M318.02229,183.30195c0,1.12921 -1.77857,1.25408 -2.51048,2.70979c-1.80417,3.58837 -3.84742,8.66459 -5.35409,8.66459c-2.11789,0 0.195,-7.46166 0.195,-11.37439c0,-3.91272 2.23687,-7.47459 4.35476,-7.47459c0.43662,0 1.61092,-0.31471 1.96684,-0.04008c1.37052,1.05751 1.34798,4.40859 1.34798,7.51467z" fill="#334865" stroke="none" stroke-width="0" stroke-linecap="butt"/><path d="M327.09883,176.40324c0.58578,-0.08775 1.58355,0.019 2.73165,0.82067c1.62029,1.13137 4.4992,5.28519 4.74019,6.89762c0.41175,2.75494 1.99996,6.00788 0.58749,6.21949c-0.64801,0.09708 -0.73482,-2.66826 -1.80079,-4.28071c-0.58697,-0.88788 -1.96501,-1.69479 -2.52639,-2.52797c-0.64132,-0.95184 -1.84062,-0.86204 -1.95945,-1.65712c-0.41175,-2.75494 -3.18517,-5.26036 -1.7727,-5.47197z" data-paper-data="{&quot;index&quot;:null}" fill="#334865" stroke="none" stroke-width="0" stroke-linecap="butt"/><path d="M328.84758,227.7672l-7.66418,-1.01317" fill="none" stroke="#000000" stroke-width="2" stroke-linecap="round"/><path d="M329.58562,174.6856c0,0.78788 -0.41115,1.82496 -1.22398,2.80974c-0.92811,1.12448 -2.44288,2.14932 -5.56126,2.11015c-2.81373,-0.03534 -3.13628,-0.95102 -3.96732,-2.13634c-0.64567,-0.92093 -2.09093,-2.0457 -2.09093,-2.78355c0,-1.68751 2.87511,-3.05551 6.42174,-3.05551c3.54663,0 6.42175,1.368 6.42175,3.05551z" fill="#ffffff" stroke="#000000" stroke-width="2" stroke-linecap="butt"/><path d="M343.53326,151.57285c0.10467,1.8765 0.72983,4.44998 0.5831,6.15837c-1.07425,12.50745 -9.69713,17.29201 -20.0337,17.88694c-11.98052,0.68955 -22.51767,-7.38223 -23.28044,-21.05752c-0.76277,-13.67531 8.49458,-24.99319 20.4751,-25.68274c11.98052,-0.68955 21.49316,9.01964 22.25594,22.69495z" fill="#ffffff" stroke="#000000" stroke-width="2" stroke-linecap="butt"/><path d="M321.84593,154.18297c0,2.79954 -0.86452,5.06901 -1.93095,5.06901c-1.06642,0 -1.93093,-2.26947 -1.93093,-5.06901c0,-2.79954 0.86451,-5.06901 1.93093,-5.06901c1.06642,0 1.93095,2.26947 1.93095,5.06901z" fill="#000000" stroke="none" stroke-width="0" stroke-linecap="butt"/><path d="M335.98033,154.20272c0,2.30819 -0.71279,4.17934 -1.59205,4.17934c-0.87926,0 -1.59205,-1.87116 -1.59205,-4.17934c0,-2.30819 0.71279,-4.17935 1.59205,-4.17935c0.87926,0 1.59205,1.87116 1.59205,4.17935z" fill="#000000" stroke="none" stroke-width="0" stroke-linecap="butt"/><path d="M310.14994,161.69269l27.47456,1.76543" fill="none" stroke="#000000" stroke-width="2" stroke-linecap="round"/><path d="M308.82587,163.34777l0.99305,-3.86189" fill="none" stroke="#000000" stroke-width="2" stroke-linecap="round"/><path d="M312.13126,219.91638l3.16535,-9.61327" fill="none" stroke="#000000" stroke-width="2" stroke-linecap="round"/><path d="M332.39242,211.6414l1.64128,6.79962" fill="none" stroke="#000000" stroke-width="2" stroke-linecap="round"/><path d="M331.0322,176.4924c0,0 -1.23297,4.86641 -5.79289,5.39337c-4.10253,0.47411 -7.66472,-1.09846 -9.24532,-2.54116c-1.95625,-1.78556 -1.40826,-3.58465 -1.40826,-3.58465" fill="none" stroke="#000000" stroke-width="1.5" stroke-linecap="round"/><path d="M321.64373,181.68604l-0.13317,7.79043" fill="none" stroke="#000000" stroke-width="1.5" stroke-linecap="round"/><path d="M326.37124,181.61945l-0.06658,7.9236" fill="none" stroke="#000000" stroke-width="1.5" stroke-linecap="round"/><path d="M307.19618,223.08374l30.06309,1.51481" fill="none" stroke="#000000" stroke-width="2" stroke-linecap="round"/><g stroke-linecap="butt"><path d="M347.67,152.79429c0.1828,9.1572 -4.27778,17.01308 -11.15963,21.56229c-0.71513,0.47272 0.208,-0.18698 1.45209,0.34856c1.97466,0.85002 2.03352,1.899 -1.49415,2.66983c-3.80402,0.83121 -9.79309,1.42304 -15.67304,1.4193c-3.89104,-0.00248 -8.53851,-0.51612 -9.58684,-0.49519c-2.44529,0.04882 -4.95697,-1.53628 -3.1452,-2.75411c1.34066,-0.90116 1.18835,-0.7677 0.60151,-1.16406c-6.53884,-4.41664 -10.82875,-11.97117 -11.00542,-20.82098c-0.28598,-14.32555 10.3144,-26.6204 24.24868,-26.89857c13.93428,-0.27817 25.47604,11.80739 25.76201,26.13296z" fill="url(#color-1)" stroke="#111111" stroke-width="2"/><path d="M339.07479,138.93434c0.62666,2.5676 -1.35868,3.97948 -3.82932,2.97852c-0.45387,-0.18389 -1.79187,-2.41599 -2.32389,-2.76277c-1.54577,-1.00756 -4.03561,-0.82745 -4.98286,-2.4109c-0.74538,-0.42009 -1.25563,-1.21216 -1.27393,-2.12955c-0.02756,-1.38044 1.06917,-2.52185 2.4496,-2.5494c0.52323,-0.01044 1.01212,0.14064 1.41903,0.40747c3.47341,0.06239 7.74305,3.19578 8.54134,6.46663z" fill="#ffffff" stroke="none" stroke-width="0.5"/></g></g></g></svg>