<svg version="1.1" xmlns="http://www.w3.org/2000/svg" xmlns:xlink="http://www.w3.org/1999/xlink" width="35.86903" height="78.07123" viewBox="0,0,35.86903,78.07123"><g transform="translate(-302.01719,-140.93602)"><g data-paper-data="{&quot;isPaintingLayer&quot;:true}" fill-rule="nonzero" stroke-linecap="butt" stroke-linejoin="miter" stroke-miterlimit="10" stroke-dasharray="" stroke-dashoffset="0" style="mix-blend-mode: normal"><path d="M305.66667,206.30412c0,0 1.19056,-14.75115 -0.77198,-27.30591c-1.29987,-8.3155 -0.90592,-16.79338 -0.40261,-22.13152c0.32051,-3.39951 2.23221,-5.50204 3.73684,-5.47903c3.53126,0.05399 18.03518,-8.52658 22.97019,-8.45113c1.03817,0.01587 0.6816,1.12789 0.80166,5.99743c0.04666,1.89205 0.25806,4.35281 0.75523,7.53852c1.17886,7.554 2.71,22.48698 3.13022,35.87651c0.33903,10.80286 -0.32346,21.21043 -0.32346,21.21043c0,0 0.74437,3.1241 -2.12816,3.44784c-7.00665,0.78965 -22.23564,-6.92503 -25.6329,-7.04929c-1.81571,-0.06643 -2.13501,-3.65383 -2.13501,-3.65383z" data-paper-data="{&quot;index&quot;:null}" fill="#fff6b5" stroke="#ddd173" stroke-width="4"/><path d="M309.06796,193.0799c0,0 0.27178,-2.91521 -1.23506,-11.60492c-0.99803,-5.75552 -0.9851,-14.44649 -0.76368,-18.16519c0.141,-2.36819 1.38338,-4.64736 2.35347,-4.65828c1.67311,-0.01884 7.15777,-7.78953 11.20137,-7.61073c1.45893,0.06451 2.7141,-0.56492 3.55772,-0.5744c0.66936,-0.00752 0.461,0.77161 0.63227,4.15351c0.06655,1.31403 0.25024,3.02032 0.63206,5.22531c0.90538,5.22849 2.52711,18.92236 3.05608,28.21976c0.42678,7.50127 -0.14653,11.40202 -0.14653,11.40202c0,0 0.53995,2.15776 -1.30501,2.43408c-2.82695,0.42342 -7.22359,1.36525 -11.04652,1.18064c-2.26281,-0.10927 -4.67486,-7.49128 -5.48982,-7.50082c-1.17142,-0.01369 -1.44638,-2.50101 -1.44638,-2.50101z" fill="#fffef9" stroke="none" stroke-width="0"/></g></g></svg>