<svg version="1.1" xmlns="http://www.w3.org/2000/svg" xmlns:xlink="http://www.w3.org/1999/xlink" width="54.22246" height="94.15635" viewBox="0,0,54.22246,94.15635"><g transform="translate(-309.49922,-142.62579)"><g data-paper-data="{&quot;isPaintingLayer&quot;:true}" fill-rule="nonzero" stroke-linecap="butt" stroke-linejoin="miter" stroke-miterlimit="10" stroke-dasharray="" stroke-dashoffset="0" style="mix-blend-mode: normal"><g><path d="M360.92636,213.61789c1.18973,1.00698 1.59285,3.40441 1.79532,4.18666c0.23958,0.92565 -2.16484,7.23778 -3.75044,9.24615c-0.94776,1.20047 -7.74011,6.02097 -8.5975,6.45928c-1.20384,0.61543 3.18168,-3.39125 -1.64455,-3.00727c-3.68149,0.2929 -4.79695,-9.55069 -5.41853,-11.95219c-0.62157,-2.4015 4.65766,-1.57456 8.25942,-2.40986c1.24097,-0.28779 4.60533,-3.85404 4.60533,-3.85404c0,0 3.0224,-0.18427 4.22673,0.83508z" data-paper-data="{&quot;index&quot;:null}" fill="#ffffff" stroke="#000000" stroke-width="2"/><path d="M323.83907,215.72962c-3.69069,-2.70848 17.68432,6.60736 20.40309,3.3714c2.71877,-3.23596 7.91467,-3.66358 11.60537,-0.95511c0.485,0.35593 0.80933,0.52165 1.18007,0.91028c2.45038,2.56862 2.51972,5.98173 0.15824,8.79247c-0.87231,1.03825 -4.71648,4.87796 -6.74032,5.71513c-4.28404,1.77211 -14.36441,3.41205 -24.90533,1.02235c-3.55342,-0.80559 -5.2507,-4.11521 -4.83623,-8.47663c0.44367,-4.66877 3.13511,-10.3799 3.13511,-10.3799z" data-paper-data="{&quot;index&quot;:null}" fill="#222228" stroke="#000000" stroke-width="2"/><path d="M321.14159,212.48378c-0.10128,-1.11221 -0.17154,-2.22639 -0.192,-3.35963c-0.22807,-1.84377 -0.46001,-3.68707 -0.6947,-5.53008c0.84484,0.02573 1.70711,0.06664 2.58258,0.12346c10.06304,0.65311 18.25339,-1.40786 17.43035,4.45858c-0.19733,2.44006 -8.08196,5.03079 -18.14501,4.37769c-0.32934,-0.02138 -0.65648,-0.04474 -0.98122,-0.07002z" data-paper-data="{&quot;index&quot;:null}" fill="#ffffff" stroke="#000000" stroke-width="2"/><path d="M324.80791,191.89349c2.31161,-0.21155 2.57418,5.71194 3.80311,13.85673c-1.88795,0.53871 -3.77669,1.07474 -5.66564,1.61027c-1.15596,0.20906 -2.28479,0.46138 -3.40616,0.74202c-0.50871,-5.93595 1.55982,-16.80815 4.56748,-16.38699z" data-paper-data="{&quot;index&quot;:null}" fill="#aefa7f" stroke="#000000" stroke-width="2"/><path d="M322.10427,203.56528c1.88711,-8.46132 4.96008,-15.91153 13.82713,-14.95488c7.92717,0.85524 10.56433,5.22277 11.39873,13.66159c0.90356,9.13838 -0.15898,22.38873 -0.18005,22.85066c-0.04053,0.88849 -2.22097,1.49265 -10.53352,1.18495c-0.33042,-0.01223 -7.21512,-0.55392 -7.54012,-0.56819c-7.85168,-0.34487 -9.5005,-0.62168 -9.46157,-1.47487c0.02143,-0.47002 0.3698,-11.19547 2.48941,-20.69925z" data-paper-data="{&quot;index&quot;:null}" fill="#aefa7f" stroke="#000000" stroke-width="2"/><path d="M325.96943,191.57215c0.18192,-0.06773 0.37395,-0.09325 0.56737,-0.08253c0.15012,0.0009 0.30427,0.02199 0.45952,0.06511c0.96453,0.26799 1.60618,1.28559 1.43316,2.27287c-0.04185,0.23888 -0.12758,0.45411 -0.24715,0.63934c0.4925,1.78573 -2.79503,3.76092 -3.03238,4.83657c-0.13527,0.61307 -0.35622,1.93454 -1.08946,2.09197c-0.57182,0.12278 -1.26448,0.21835 -1.78778,-0.12619c-2.24795,-1.48004 1.20898,-7.5869 3.09983,-9.29082c0.10084,-0.10544 0.21502,-0.19577 0.33947,-0.26906c0.09251,-0.06167 0.17873,-0.10793 0.25742,-0.13721z" data-paper-data="{&quot;index&quot;:null}" fill="#aefa7f" stroke="none" stroke-width="0.5"/><path d="M357.75043,192.50271c3.87914,1.69566 1.71397,6.82127 -2.66189,13.05792c-0.79875,1.13841 -3.76806,-0.16728 -4.69081,1.03106c-1.59145,-2.51676 -2.01221,-2.23586 -5.12646,-4.29586c4.97978,-6.86504 7.15303,-11.84984 12.47915,-9.79312z" data-paper-data="{&quot;index&quot;:null}" fill="#ffffff" stroke="#000000" stroke-width="2"/><path d="M342.88867,193.67289c1.59136,-2.15009 1.70691,-1.51808 6.7022,3.34559c0.54828,0.53383 4.26281,4.06011 4.85296,4.61821c-0.12989,0.24018 0.5577,0.72302 0.47331,1.21627c-0.26241,1.53376 0.75601,2.53664 -0.07715,4.00934c-1.41452,2.50032 -6.57967,6.09653 -8.83515,3.62688c-3.03313,-3.32112 -5.98464,-10.48584 -4.41548,-14.91879z" data-paper-data="{&quot;index&quot;:null}" fill="#aefa7f" stroke="#000000" stroke-width="2"/><path d="M339.28606,195.38782c1.03537,-3.22601 2.08118,-3.87465 3.35997,-2.58028c1.13458,0.29925 2.33357,1.96062 2.28444,3.08503c-0.00667,0.15249 -0.02881,0.30105 -0.06503,0.44445c0.71982,1.56105 1.18014,3.22865 1.14044,4.13704c-0.18358,4.20236 -4.81207,1.96797 -6.53494,0.37838c-1.41048,-1.30136 0.12958,-3.51422 -0.20578,-4.98649z" data-paper-data="{&quot;index&quot;:null}" fill="#aefa7f" stroke="none" stroke-width="0.5"/><path d="M331.41161,150.52504c11.26002,-1.88398 22.08472,6.16413 24.06977,18.37358c1.98503,12.20943 -6.20926,21.51379 -17.46928,23.39779c-9.71494,1.62547 -18.46864,-2.84111 -21.9294,-13.63936c-0.47271,-1.47493 -0.59422,-1.82901 -0.8666,-3.50437c-1.98503,-12.20943 4.9355,-22.74364 16.19552,-24.62763z" data-paper-data="{&quot;index&quot;:null}" fill="#ffffff" stroke="#000000" stroke-width="2"/><path d="M356.06127,166.36815c0.00864,1.16457 -9.2561,0.81686 -20.69255,0.89634c-11.43646,0.07948 -20.48093,1.50809 -20.48957,0.34352c-0.00864,-1.16457 -1.78733,-21.31259 19.61402,-21.63454c18.90752,-0.28443 21.55947,19.23011 21.56811,20.39469z" fill="#ff4f4f" stroke="#000000" stroke-width="2"/><path d="M354.60788,167.01925c0.38826,1.41783 -5.52794,5.36256 -18.11588,6.23786c-12.58796,0.87529 -25.85452,-1.54813 -26.24278,-2.96596c-0.38826,-1.41783 -0.10507,-2.76578 5.7378,-4.86745c4.58057,-0.3185 7.72186,0.4359 13.91413,0.55273c10.82483,0.20422 24.45974,0.14091 24.70672,1.04282z" fill="#ff2e2e" stroke="#000000" stroke-width="1.5"/><path d="M340.23208,145.98179c-0.05174,1.32032 -2.47332,2.29828 -5.40874,2.18432c-2.93543,-0.11393 -5.27312,-1.27666 -5.22138,-2.59697c0.05174,-1.32031 2.47332,-2.29828 5.40874,-2.18432c2.93543,0.11393 5.27312,1.27667 5.22138,2.59697z" fill="#ff4f4f" stroke="#000000" stroke-width="1.5"/></g></g></g></svg>