<svg version="1.1" xmlns="http://www.w3.org/2000/svg" xmlns:xlink="http://www.w3.org/1999/xlink" width="52.02898" height="138.9444" viewBox="0,0,52.02898,138.9444"><defs><radialGradient cx="336.95563" cy="149.24093" r="26.05961" gradientUnits="userSpaceOnUse" id="color-1"><stop offset="0" stop-color="#afb0e0" stop-opacity="0"/><stop offset="1" stop-color="#afb0e0" stop-opacity="0.31373"/></radialGradient></defs><g transform="translate(-305.59613,-128.09078)"><g data-paper-data="{&quot;isPaintingLayer&quot;:true}" fill-rule="nonzero" stroke-linejoin="miter" stroke-miterlimit="10" stroke-dasharray="" stroke-dashoffset="0" style="mix-blend-mode: normal"><path d="M336.96058,178.22806c-0.07039,3.48872 -5.22743,6.21398 -11.51857,6.08702c-6.29114,-0.12695 -11.33403,-3.05803 -11.26363,-6.54675c0.07039,-3.48872 1.68776,-5.35301 7.97889,-5.22607c6.29114,0.12695 14.87372,2.19708 14.80332,5.6858z" fill="#334865" stroke="#000000" stroke-width="2" stroke-linecap="butt"/><path d="M344.14586,216.22234c0.02729,4.05357 -2.75498,7.35276 -6.21437,7.36895c-3.4594,0.01617 -6.28591,-3.25679 -6.31319,-7.31036c-0.00779,-1.15809 -0.09403,-4.77438 -0.13269,-9.35449c1.87165,-0.56255 3.75537,-1.09461 5.65766,-1.45319c1.98914,-0.37494 3.87692,-1.1267 5.86395,-1.47101c0.08159,-0.01413 0.16649,-0.02226 0.25321,-0.02678c0.63371,5.91091 0.87615,10.86479 0.88545,12.24687z" data-paper-data="{&quot;index&quot;:null}" fill="#ffffff" stroke="#000000" stroke-width="2" stroke-linecap="butt"/><path d="M334.05725,177.85625c4.20104,-0.26144 7.76472,12.51212 9.23236,22.42065c0.35743,2.41311 -0.37455,1.76328 -0.1355,4.06053c-0.11662,-0.00015 -0.21639,0.00295 -0.28444,0.01528c-1.99104,0.36055 -3.88241,1.14124 -5.87509,1.53336c-1.87552,0.36906 -3.73331,0.91054 -5.57943,1.48527c-0.06024,-11.82256 0.2083,-29.36364 2.64209,-29.51509z" data-paper-data="{&quot;index&quot;:null}" fill="#334865" stroke="#000000" stroke-width="2" stroke-linecap="butt"/><path d="M344.80615,265.17656c0.05144,1.32169 -16.88456,1.03292 -16.93599,-0.28878c-0.00774,-0.19903 -0.17483,-2.84395 -0.38497,-6.80556c1.76061,-0.35173 4.20406,-0.19641 5.46519,-0.57575c2.76953,-0.83701 6.01699,-0.88412 8.94222,-1.20193c0.43407,0.57394 1.10274,1.52579 1.57376,2.51101c1.02692,2.14795 1.3101,5.5981 1.33979,6.361z" fill="#ffffff" stroke="#000000" stroke-width="2" stroke-linecap="butt"/><path d="M327.54754,224.16698c1.12503,-11.89885 7.17706,-6.74783 12.5399,-6.78947c0.46865,-0.00365 1.93577,29.31153 2.26787,38.56203c0.06239,1.73762 -0.35672,2.60445 -0.35023,2.61297c-2.87653,0.18912 -6.79585,-0.5536 -9.51797,0.16292c-1.40794,0.3727 -4.07994,0.09641 -5.84138,0.36149c-0.02212,-1.01991 -0.33216,-1.25911 -0.35293,-2.42144c-0.17299,-9.68123 0.49949,-24.50066 1.25473,-32.48854z" fill="#a68f79" stroke="#000000" stroke-width="2" stroke-linecap="butt"/><path d="M329.33844,220.06704c0.11725,0.2478 8.06988,16.45826 1.65487,25.98972c-4.1831,6.21528 -9.81479,10.4128 -11.51105,11.88345c-0.575,-1.15291 -0.99336,-1.34224 -1.56834,-2.49514c-1.06828,-2.14202 -3.05252,-3.74065 -4.66379,-5.3242c-1.12865,-0.868 -2.92719,-1.49116 -3.9303,-2.52986c0.58444,-0.48596 1.48627,-0.83278 2.23566,-1.44143c2.3542,-1.91211 4.25707,-5.31696 7.48005,-7.74029c0.19003,-0.14288 0.15727,-0.73304 -0.0112,-1.16107c-1.09735,-2.78824 -4.53956,-11.43726 -2.20383,-12.94266c0,0 7.051,-8.57287 9.43524,-3.53354z" fill="#a68f79" stroke="#000000" stroke-width="2" stroke-linecap="butt"/><path d="M321.23077,261.67884c-0.74484,0.96192 -13.75273,-10.53539 -13.00788,-11.49731c0.07161,-0.09246 0.76329,-0.9755 1.89383,-2.40483c1.56776,0.45556 3.47991,0.73996 4.64174,0.92402c2.17521,0.635 4.7176,0.89091 6.40958,2.24047c0.91086,0.72652 1.88829,1.50613 2.809,2.24052c-0.13892,0.18144 -0.21264,0.27761 -0.21264,0.27761c0,0 0.01396,1.86492 -0.38105,3.46079c-0.53925,2.17876 -1.72264,4.2035 -2.15257,4.75875z" fill="#ffffff" stroke="#000000" stroke-width="2" stroke-linecap="butt"/><path d="M320.86127,227.72271l0.08698,-4.3105l14.09649,0.28446l-0.08698,4.3105z" fill="#a68f79" stroke="none" stroke-width="0" stroke-linecap="butt"/><path d="M313.95493,224.33295c0,0 0.12243,-17.611 1.43221,-28.43688c1.47983,-12.23141 4.76228,-22.75993 13.01949,-22.8276c10.3811,-0.08509 11.0431,14.68666 12.22528,28.19078c0.90272,10.31195 1.20398,25.54794 1.20398,25.54794" fill="#334865" stroke="#000000" stroke-width="2" stroke-linecap="round"/><path d="M332.62047,178.70485c0.58743,-0.07591 1.58284,0.05095 2.71453,0.87561c1.59713,1.16382 4.39166,5.37488 4.60007,6.99185c0.35608,2.76268 1.87835,6.04701 0.46189,6.23008c-0.64983,0.08399 -0.68084,-2.68255 -1.71406,-4.31617c-0.56894,-0.89954 -1.93042,-1.73409 -2.47487,-2.57842c-0.62199,-0.96459 -1.82286,-0.89901 -1.92561,-1.69632c-0.35608,-2.76268 -3.0784,-5.32355 -1.66195,-5.50662z" data-paper-data="{&quot;index&quot;:null}" fill="#334865" stroke="none" stroke-width="0" stroke-linecap="butt"/><path d="M326.96218,228.33447l7.71552,0.48678" fill="none" stroke="#000000" stroke-width="2" stroke-linecap="round"/><path d="M337.11322,175.79658c-0.0159,0.78772 -0.44789,1.81629 -1.28042,2.78448c-0.95061,1.10553 -2.48575,2.0996 -5.60271,1.99752c-2.81245,-0.09211 -3.11645,-1.0141 -3.92342,-2.21594c-0.62695,-0.93377 -2.04923,-2.08747 -2.03434,-2.82517c0.03404,-1.68716 2.93617,-2.99688 6.48208,-2.92533c3.54591,0.07156 6.39285,1.49728 6.35879,3.18444z" fill="#ffffff" stroke="#000000" stroke-width="2" stroke-linecap="butt"/><path d="M352.73226,153.4779c0.15421,1.87308 0.84714,4.42915 0.7456,6.14081c-0.74345,12.53147 -9.23693,17.54216 -19.55419,18.40995c-11.95813,1.00582 -22.70485,-6.78478 -23.82861,-20.43514c-1.12378,-13.65037 7.83135,-25.20887 19.78948,-26.21468c11.95813,-1.00582 21.72394,8.4487 22.84772,22.09907z" fill="#ffffff" stroke="#000000" stroke-width="2" stroke-linecap="butt"/><path d="M331.66751,158.3962c0.07396,2.79856 -0.73031,5.09008 -1.79637,5.11826c-1.06605,0.02817 -1.99022,-2.21767 -2.06416,-5.01623c-0.07396,-2.79856 0.7303,-5.09008 1.79635,-5.11826c1.06605,-0.02817 1.99024,2.21767 2.06418,5.01623z" fill="#000000" stroke="none" stroke-width="0" stroke-linecap="butt"/><path d="M345.79749,158.04257c0.06098,2.30738 -0.60213,4.19672 -1.48108,4.21994c-0.87895,0.02323 -1.64093,-1.82844 -1.70191,-4.13583c-0.06098,-2.30738 0.60213,-4.19673 1.48109,-4.21995c0.87895,-0.02323 1.64093,1.82844 1.70191,4.13584z" fill="#000000" stroke="none" stroke-width="0" stroke-linecap="butt"/><path d="M320.17399,166.21229l27.51161,1.03899" fill="none" stroke="#000000" stroke-width="2" stroke-linecap="round"/><path d="M319.78478,164.01501l-0.89068,3.88677" fill="none" stroke="#000000" stroke-width="2" stroke-linecap="round"/><path d="M326.5929,212.35315l-3.35866,9.54745" fill="none" stroke="#000000" stroke-width="2" stroke-linecap="round"/><path d="M338.52305,177.63221c0,0 -1.33091,4.84054 -5.90053,5.2754c-4.11126,0.39124 -7.64099,-1.25287 -9.19217,-2.72717c-1.91984,-1.82467 -1.33566,-3.61233 -1.33566,-3.61233" fill="none" stroke="#000000" stroke-width="1.5" stroke-linecap="round"/><path d="M329.74671,190.64928l0.29031,-7.78616" fill="none" stroke="#000000" stroke-width="1.5" stroke-linecap="round"/><path d="M335.25926,182.65209l-0.22643,7.92064" fill="none" stroke="#000000" stroke-width="1.5" stroke-linecap="round"/><path d="M311.50236,223.68778l30.02641,2.12103" fill="none" stroke="#000000" stroke-width="2" stroke-linecap="round"/><path d="M322.30727,178.07476c2.36357,0.31621 0.61032,16.44844 -0.95745,28.6407c-2.14376,-0.0731 -4.28608,-0.16623 -6.42407,-0.34941c-1.57423,-0.13489 -3.14289,-0.17852 -4.71815,-0.20746c0.25274,-1.38805 -0.40503,-1.71295 -0.09986,-3.19235c2.34581,-11.37277 7.15453,-25.56641 12.19957,-24.89146z" fill="#334865" stroke="#000000" stroke-width="2" stroke-linecap="butt"/><path d="M319.65158,219.63805c-0.33885,4.28161 -2.61828,6.66154 -6.22432,6.37617c-3.60607,-0.28537 -5.27578,-4.18804 -4.93694,-8.46963c0.1041,-1.31553 0.66075,-5.66373 1.6238,-11.0245c1.59021,0.02872 3.17346,0.07105 4.7624,0.20718c2.13134,0.18263 4.26694,0.27607 6.404,0.34929c-0.78874,6.10274 -1.51623,11.13719 -1.62895,12.56149z" fill="#ffffff" stroke="#000000" stroke-width="2" stroke-linecap="butt"/><path d="M327.04073,185.25263c0.10288,1.12451 -1.65692,1.41091 -2.25316,2.92724c-1.46973,3.73782 -3.042,8.97908 -4.54239,9.11636c-2.10909,0.19296 -0.48564,-7.44839 -0.84211,-11.34486c-0.35648,-3.89644 1.54657,-7.6473 3.65565,-7.84026c0.25444,-0.02329 0.75062,-0.1769 1.19455,-0.25204c0.22894,2.22086 1.1871,4.23183 2.6349,5.78348c0.0549,0.5349 0.10374,1.07615 0.15259,1.61005z" fill="#334865" stroke="none" stroke-width="0" stroke-linecap="butt"/><g stroke-linecap="butt"><path d="M356.61259,155.65859c0.02686,9.15899 -4.56685,16.93777 -11.52516,21.36915c-0.72307,0.46048 0.21115,-0.1834 1.44595,0.37324c1.9599,0.88352 2.00089,1.93335 -1.5394,2.644c-3.81762,0.76632 -9.81591,1.25608 -15.69493,1.15221c-3.89044,-0.06873 -8.52848,-0.66143 -9.57702,-0.65836c-2.44576,0.00718 -4.9301,-1.62046 -3.09785,-2.80727c1.3558,-0.8782 1.20124,-0.74736 0.62124,-1.15366c-6.46269,-4.52734 -10.62333,-12.15382 -10.64929,-21.00535c-0.04201,-14.32835 10.76618,-26.44091 24.70318,-26.48177c13.93701,-0.04086 25.27129,12.23947 25.3133,26.56784z" fill="url(#color-1)" stroke="#111111" stroke-width="2"/><path d="M348.25463,141.65429c0.58285,2.5779 -1.42624,3.95577 -3.87948,2.91288c-0.45067,-0.19159 -1.75047,-2.44614 -2.2765,-2.80193c-1.52838,-1.03374 -4.02093,-0.89606 -4.94109,-2.49541c-0.73812,-0.43272 -1.2348,-1.23337 -1.23749,-2.15093c-0.00405,-1.38071 1.11195,-2.50327 2.49266,-2.50732c0.52333,-0.00153 1.00957,0.15785 1.41188,0.43157c3.47184,0.12152 7.68752,3.32716 8.42999,6.61113z" fill="#ffffff" stroke="none" stroke-width="0.5"/></g></g></g></svg>