<svg version="1.1" xmlns="http://www.w3.org/2000/svg" xmlns:xlink="http://www.w3.org/1999/xlink" width="105.25733" height="118.55784" viewBox="0,0,105.25733,118.55784"><g transform="translate(-326.10886,-116.1685)"><g data-paper-data="{&quot;isPaintingLayer&quot;:true}" fill-rule="nonzero" stroke-linejoin="miter" stroke-miterlimit="10" stroke-dasharray="" stroke-dashoffset="0" style="mix-blend-mode: normal"><g data-paper-data="{&quot;index&quot;:null}" stroke="#000000" stroke-width="2" stroke-linecap="butt"><path d="M386.40662,166.93432c-0.06201,0.16599 -0.12191,0.33304 -0.17937,0.50135c-0.7952,2.3291 -1.62283,4.58986 -2.59405,6.8435c-0.41943,0.97327 -0.85777,1.93347 -1.26613,2.8996c-10.05848,-3.95639 -18.38145,-6.76776 -16.17693,-12.30984c2.49845,-6.04129 10.10519,-1.95242 20.21647,2.06538z" data-paper-data="{&quot;index&quot;:null}" fill="#ffe4cb"/><path d="M399.11186,172.32946c3.36964,1.95634 1.10537,4.7938 0.58586,6.35693c-2.08453,2.2081 -2.13037,2.98308 -11.21153,0.81838c-7.51203,-1.79066 -20.89981,-6.0618 -20.93036,-6.07104c0.38844,-1.03176 4.57486,-10.62787 4.97228,-11.66757c0.93198,-2.43817 23.37477,8.70025 26.58373,10.5633z" data-paper-data="{&quot;index&quot;:null}" fill="#161617"/></g><path d="M395.39794,119.20922c2.01122,-0.94983 5.22746,-2.27394 8.53172,-2.29072c4.60631,-0.02338 9.46754,1.61717 12.21714,2.58315c8.39422,2.94901 14.03827,12.5136 14.46939,22.40298c0.177,4.06008 -0.93243,11.64508 -2.21336,15.316c-2.67104,7.65472 -9.07465,10.54851 -16.018,13.35183c-1.75796,0.70977 0.77624,4.08047 -1.1146,5.21393c-2.94605,1.76602 -10.54455,-0.82376 -13.37934,-1.81967c-2.00727,-0.70519 -5.90001,-2.50492 -7.42669,-4.51276c-1.49936,-1.97193 -0.63953,-4.14304 -1.85579,-5.84088c-4.85041,-6.77093 -6.98094,-16.51839 -4.05878,-24.89274c2.64587,-7.58255 3.58967,-16.08312 10.84835,-19.51111z" data-paper-data="{&quot;index&quot;:null}" fill="#161617" stroke="#000000" stroke-width="1.5" stroke-linecap="butt"/><path d="M332.45183,193.05846c1.96046,0.49355 4.14624,1.2639 5.55419,1.49838c0.41714,1.67141 0.85286,3.33637 1.36058,4.98606c0.47703,1.54998 0.95982,3.09662 1.45456,4.63979c-4.01803,1.46061 -6.9478,2.40495 -7.30727,2.20244c-0.11108,-0.06257 -2.03923,0.31628 -3.26389,-2.53107c-0.70371,-1.63615 -2.68299,-6.52114 -3.14115,-8.62952c-0.59768,-2.75039 0.41902,-2.5916 0.3189,-2.81169c-0.11123,-0.2445 2.23697,-0.05609 5.02409,0.64558z" data-paper-data="{&quot;index&quot;:null}" fill="#ffffff" stroke="#000000" stroke-width="2" stroke-linecap="butt"/><path d="M339.15647,220.30928c2.16506,0.05084 3.34455,0.64477 4.90212,-0.28285c0.07778,0.12341 0.15566,0.24678 0.23367,0.37008c1.41198,2.23169 2.82003,4.46576 4.22521,6.70174c0.4525,0.72005 0.91256,1.43498 1.37693,2.14703c-4.00619,2.72267 -7.05368,4.62959 -7.51015,4.47197c-0.13009,-0.04492 -1.93244,0.7534 -4.03725,-2.06557c-1.20945,-1.61985 -4.69929,-6.4808 -5.81104,-8.65898c-1.4503,-2.84143 2.96297,-2.76929 6.62054,-2.68343z" data-paper-data="{&quot;index&quot;:null}" fill="#ffffff" stroke="#000000" stroke-width="2" stroke-linecap="butt"/><path d="M335.90022,192.52166c0.06795,-0.00299 0.39516,-0.75233 2.47412,-0.98948c1.10209,-0.12572 3.37024,0.32828 4.8733,0.15666c11.20665,-1.27944 31.97725,-3.64232 38.73657,-4.22773c11.91644,-1.03204 12.77132,12.48471 12.77132,12.48471c0,0 -36.53202,3.43783 -50.98548,6.37814c-3.35539,0.68258 -5.79717,0.70217 -6.04146,0.71294c-1.26426,0.05566 -2.47432,-4.10483 -2.70275,-9.29275c-0.22842,-5.18791 -0.38991,-5.16684 0.87434,-5.22251z" data-paper-data="{&quot;index&quot;:null}" fill="#282833" stroke="#000000" stroke-width="1.5" stroke-linecap="butt"/><path d="M339.63997,218.92914c0.05868,-0.03439 -0.06576,-0.95875 1.64912,-2.16099c0.90908,-0.63733 3.1748,-1.21309 4.41455,-2.08245c9.24353,-6.48174 26.38037,-18.48641 32.05885,-22.20355c5.1653,-3.38123 9.86073,-1.40731 13.19603,1.29577c-0.04229,0.14356 -0.08467,0.28359 -0.12787,0.41864c-0.65166,2.0373 -2.18724,5.7307 -3.39872,9.87131c-1.2796,0.97584 -2.55057,1.61997 -3.44394,3.08415c-0.19478,0.31923 -0.38216,0.61933 -0.5628,0.90793c-9.7613,6.74033 -22.6797,15.89896 -29.15146,21.49571c-2.60172,2.24995 -4.75933,3.39461 -4.97031,3.5182c-1.09191,0.63967 -4.47094,-3.09872 -7.5473,-8.34996c-3.07636,-5.25124 -3.20809,-5.15513 -2.11618,-5.79481z" data-paper-data="{&quot;index&quot;:null}" fill="#282833" stroke="#000000" stroke-width="1.5" stroke-linecap="butt"/><path d="M409.52503,180.92832c-4.75383,6.94208 -20.83581,22.94435 -26.62709,28.63115c-1.55547,-1.55337 -3.03429,-3.20143 -4.57312,-4.76425c-2.49779,-2.5367 -4.99556,-5.07341 -7.49336,-7.61009c-2.49365,-2.53252 -5.20113,-4.87742 -7.80613,-7.2878c-0.67313,-0.62281 -1.34623,-1.24568 -2.01937,-1.8685c6.61964,-5.41524 26.82537,-21.72785 34.65366,-25.57115c7.04021,-3.45641 14.72145,2.03761 14.72145,2.03761c0,0 6.87279,5.14651 -0.85605,16.43304z" data-paper-data="{&quot;index&quot;:null}" fill="#161617" stroke="#000000" stroke-width="2" stroke-linecap="butt"/><path d="M378.0618,196.14738l5.3486,-9.44838" data-paper-data="{&quot;index&quot;:null}" fill="none" stroke="#000000" stroke-width="2" stroke-linecap="round"/><path d="M367.34034,183.81596l6.58245,-3.60243" data-paper-data="{&quot;index&quot;:null}" fill="none" stroke="#000000" stroke-width="2" stroke-linecap="round"/><path d="M402.62163,162.38552c4.35445,1.22923 7.23539,4.52486 6.43478,7.36099c-0.80061,2.83613 -4.97963,4.13876 -9.33407,2.90953c-4.35446,-1.22923 -6.61047,-3.56437 -5.80985,-6.4005c0.80061,-2.83613 4.3547,-5.09925 8.70916,-3.87002z" data-paper-data="{&quot;index&quot;:null}" fill="#161617" stroke="none" stroke-width="0" stroke-linecap="butt"/><path d="M395.26316,165.22588c0.54184,-1.91939 3.62857,-2.728 6.89439,-1.80607c3.26585,0.92192 5.47409,3.22526 4.93226,5.14466c-0.54184,1.91938 -4.25101,2.5523 -7.51685,1.63036c-3.26584,-0.92192 -4.85163,-3.04954 -4.30979,-4.96894z" data-paper-data="{&quot;index&quot;:null}" fill="#ffffff" stroke="#000000" stroke-width="1.5" stroke-linecap="butt"/><path d="M383.56641,139.65605c2.99005,-12.58969 15.04291,-20.50878 26.92082,-17.6878c11.8779,2.82098 19.08292,15.3138 16.09288,27.90352c-2.99004,12.5897 -15.04288,20.50881 -26.92078,17.68782c-11.8779,-2.82099 -19.08294,-15.31382 -16.0929,-27.90353z" data-paper-data="{&quot;index&quot;:null}" fill="#ffe4cb" stroke="#000000" stroke-width="2" stroke-linecap="butt"/><path d="M407.5855,172.10832c1.0159,-3.59873 2.46165,-3.35198 3.2972,-3.11611c0.83557,0.23587 0.68936,3.34444 -0.32654,6.94316c-1.0159,3.59872 -3.40578,6.69649 -4.24134,6.46062c-0.83558,-0.23587 0.25477,-6.68896 1.27066,-10.28768z" data-paper-data="{&quot;index&quot;:null}" fill="#161617" stroke="none" stroke-width="0" stroke-linecap="butt"/><path d="M385.99784,174.14984c0.11401,-0.2019 0.49928,-1.05559 1.28495,-1.95451c0.99496,-1.1384 2.48592,-2.39054 3.26769,-2.93867c1.74462,-1.22318 2.05029,0.0552 2.30201,0.19736c0.45362,0.25615 -2.97689,3.36355 -3.55751,4.3917c-0.58061,1.02816 -4.07304,3.64901 -4.52664,3.39285c-0.45361,-0.25614 0.6489,-2.06055 1.2295,-3.0887z" data-paper-data="{&quot;index&quot;:null}" fill="#161617" stroke="none" stroke-width="0" stroke-linecap="butt"/><path d="M409.38437,122.24658c2.10059,0.58555 8.27633,2.69538 11.98638,6.00195c1.29055,1.15018 6.26906,7.25049 6.77658,13.15754c0.41477,4.82779 -3.5237,9.7583 -3.54235,9.82523c-0.01904,0.06828 -0.52915,2.21301 -0.86642,0.95719c-0.70848,-2.6379 -1.84056,-10.37704 -4.38136,-14.37972c-3.05585,-4.81407 -8.35671,-7.96019 -9.89601,-8.38928c-3.42846,-0.9557 -15.76603,-4.2691 -15.65891,-4.65331c0.1071,-0.38423 12.15368,-3.4753 15.58213,-2.51961z" data-paper-data="{&quot;index&quot;:null}" fill="#161617" stroke="none" stroke-width="0" stroke-linecap="butt"/><path d="M419.56117,158.78121c5.17237,-7.48948 7.59206,-18.08594 8.54139,-17.82131c1.74377,0.48608 0.59326,7.18218 -0.79908,12.17708c-1.39235,4.9949 -10.72725,15.63833 -12.47104,15.15224c-1.74377,-0.48608 -10.85339,6.45246 -9.46105,1.45754c0.63434,-2.27563 9.86127,-4.69799 14.18977,-10.96556z" data-paper-data="{&quot;index&quot;:null}" fill="#161617" stroke="none" stroke-width="0" stroke-linecap="butt"/><path d="M420.33993,125.64861c1.46111,1.10912 3.0652,2.19578 4.29184,3.56205c1.31475,1.46444 2.11074,4.28146 2.66796,6.77519l0.95293,1.70602c0.12424,0.22226 0.16416,0.49176 0.09038,0.75644c-0.0332,0.11912 -0.08661,0.22715 -0.15551,0.32144c0.07283,0.29758 0.07386,0.76807 -0.48407,1.08277c-0.87101,0.49127 -1.36227,-0.37973 -1.36227,-0.37973c-1.2862,-2.29348 -3.16202,-4.08908 -4.541,-6.29581l-0.5593,-0.83474c-0.1594,-0.23487 -0.21832,-0.53569 -0.13614,-0.83054c0.14828,-0.53201 0.69979,-0.84305 1.23178,-0.69477c0.22761,0.06343 0.41477,0.20069 0.54283,0.37864l1.16517,1.58812l-0.07834,0.05746c0.02282,0.03333 0.04571,0.0666 0.06873,0.09979c0.05341,0.04679 0.10657,0.09375 0.15947,0.14094c-0.13428,-0.60326 -0.29772,-1.21235 -0.57139,-1.78974c-0.37661,-0.79461 -1.04474,-1.47627 -1.79979,-2.0911c-0.13399,0.01965 -0.27418,0.01223 -0.41303,-0.02648l-1.28437,-0.35803l0.01833,-0.06578l-0.1757,0.0073c-0.41327,-0.28636 -0.76038,-0.64802 -1.0623,-1.05392c-0.01592,-0.00234 -0.03186,-0.00473 -0.0478,-0.00715l-0.17025,0.13319l-0.14576,-0.18629c-2.00033,-0.36723 -4.13,-1.343 -5.37156,-2.56583l-0.88876,-0.56132c-0.14514,-0.08705 -0.26336,-0.20843 -0.34677,-0.35017c-0.54507,0.08487 -1.09402,0.15682 -1.66408,0.05604c-0.02383,-0.0042 -0.04771,-0.00876 -0.07168,-0.01366c-0.33845,0.22082 -0.73748,0.38985 -1.07931,0.5242c-0.40944,0.16092 -0.84112,-0.32536 -1.28099,-0.31756c-0.97597,0.01731 -2.99496,0.94419 -3.92351,1.17612c-0.64502,0.02909 -1.92192,-0.02128 -3.10773,-0.3223c-0.17629,0.44864 -0.65198,0.70955 -1.12724,0.61359l-1.2456,-0.23789c-2.08452,-0.06275 -3.82103,-0.19109 -5.89969,-0.60068c0,0 -0.98102,-0.19385 -0.78719,-1.17487c0.15703,-0.79464 0.8305,-0.81843 1.08075,-0.79879l-0.22249,-0.08249c-0.48877,-0.17537 -0.76621,-0.70131 -0.62456,-1.20946c0.1239,-0.44445 0.52921,-0.73471 0.96946,-0.73171l1.97735,-0.03205l0.00547,0.33721c1.38026,-0.10019 2.7297,-0.01819 4.07434,0.12373c0.22638,-0.21933 0.46413,-0.43027 0.66418,-0.64447c0.36605,-0.39195 0.81821,-0.71781 1.30734,-0.93777c4.10459,-1.84572 8.75689,-0.4392 12.45812,1.30823c0.85626,0.40427 2.67977,0.91685 3.86989,1.63922c0.89804,0.24274 1.79176,0.49975 2.66183,0.74128l0.42812,0.11934c0,0 0.96327,0.26852 0.69477,1.23178c-0.14024,0.50303 -0.46991,0.67015 -0.75294,0.71501zM410.73965,122.38838c0.15488,0.02447 0.30952,0.03515 0.4641,0.03584c-0.19746,-0.08148 -0.39553,-0.16093 -0.59439,-0.23805c0.04846,0.06488 0.09205,0.13225 0.13029,0.2022z" data-paper-data="{&quot;index&quot;:null}" fill="#161617" stroke="none" stroke-width="0.5" stroke-linecap="butt"/><path d="M393.53111,125.32502c0,0 5.07223,0.61384 11.62984,2.53888c7.62,2.23693 15.05853,7.82042 15.96043,11.25005c0.90608,3.44554 4.95574,10.60615 -1.15047,20.70031c-4.56152,7.54065 -12.86314,7.01377 -12.86314,7.01377" data-paper-data="{&quot;index&quot;:null}" fill="none" stroke="#000000" stroke-width="1.5" stroke-linecap="round"/><path d="M408.4035,133.95498c-0.24411,-0.52904 -4.65094,2.18574 -9.37964,2.17313c-5.47649,-0.01461 -11.37336,-2.73946 -11.55488,-3.26568c-0.0761,-0.22059 6.08082,-7.44424 9.8455,-8.06825c5.53291,-0.9171 9.38972,4.69703 9.31692,4.43124c2.21859,1.1023 5.59735,2.27966 7.1119,2.71423c2.04566,0.58696 5.79576,5.23759 6.87129,6.83383c0.63275,0.93909 0.95442,2.66523 1.35302,4.25318c-0.95325,0.73928 -2.00396,1.07661 -2.00396,1.07661c0,0 -1.43941,-2.42562 -3.81983,-5.35888c-0.3856,-0.47517 -0.79593,-0.96367 -1.2288,-1.45733c-0.15745,-0.17956 -2.54114,2.96468 -2.70243,2.78374c-1.5092,-1.69324 -2.81363,-3.95845 -3.80908,-6.11584z" data-paper-data="{&quot;index&quot;:null}" fill="#3c352f" stroke="#000000" stroke-width="1.5" stroke-linecap="butt"/><path d="M395.88938,173.60214c2.60467,0.75696 4.12776,3.49714 3.40191,6.12036c-0.72584,2.62322 -3.42577,4.13611 -6.03044,3.37915c-2.60467,-0.75696 -4.12776,-3.49715 -3.40191,-6.12036c0.72584,-2.62322 3.42577,-4.13611 6.03044,-3.37915z" data-paper-data="{&quot;index&quot;:null}" fill="#343434" stroke="none" stroke-width="0" stroke-linecap="butt"/><path d="M374.22404,204.60288l-3.7206,7.92657" data-paper-data="{&quot;index&quot;:null}" fill="none" stroke="#000000" stroke-width="1.5" stroke-linecap="round"/><path d="M363.72375,191.47234l-5.00811,1.20397" data-paper-data="{&quot;index&quot;:null}" fill="none" stroke="#000000" stroke-width="1.5" stroke-linecap="round"/><path d="M393.60729,150.94664l-4.31263,-1.72381" data-paper-data="{&quot;index&quot;:null}" fill="none" stroke="#000000" stroke-width="2" stroke-linecap="round"/><path d="M409.60023,154.28988l-5.44477,-0.42524" data-paper-data="{&quot;index&quot;:null}" fill="none" stroke="#000000" stroke-width="2" stroke-linecap="round"/><path d="M389.34644,154.88879c0,0 5.70247,0.67265 8.59791,1.50621c3.16888,0.9123 9.66912,3.75268 9.66912,3.75268" fill="none" stroke="#000000" stroke-width="2" stroke-linecap="round"/><g data-paper-data="{&quot;index&quot;:null}" stroke="#000000" stroke-width="2" stroke-linecap="butt"><path d="M396.66709,169.74718c-0.04115,0.17235 -0.08007,0.34549 -0.11643,0.51959c-0.50308,2.40915 -1.04677,4.75444 -1.73381,7.11031c-0.29671,1.01742 -0.6138,2.02419 -0.90039,3.03316c-10.46827,-2.69094 -19.07354,-4.45873 -17.56644,-10.22962c1.73749,-6.30243 9.78885,-3.17885 20.31708,-0.43344z" data-paper-data="{&quot;index&quot;:null}" fill="#ffe4cb"/><path d="M409.93881,173.5409c3.58442,1.52764 1.68582,4.62173 1.36224,6.23683c-1.79754,2.44741 -1.74783,3.22215 -11.0261,2.18928c-7.67509,-0.85441 -21.48612,-3.44879 -21.51757,-3.4542c0.25876,-1.07166 3.2348,-11.10932 3.50151,-12.18996c0.62545,-2.53418 24.26642,5.76326 27.67992,7.21805z" data-paper-data="{&quot;index&quot;:null}" fill="#161617"/></g></g></g></svg>