<svg version="1.1" xmlns="http://www.w3.org/2000/svg" xmlns:xlink="http://www.w3.org/1999/xlink" width="1663.25" height="798.75" viewBox="0,0,1663.25,798.75"><defs><linearGradient x1="210.5" y1="199.5" x2="210.5" y2="717.5" gradientUnits="userSpaceOnUse" id="color-1"><stop offset="0" stop-color="#ffffff" stop-opacity="0"/><stop offset="1" stop-color="#ffffff"/></linearGradient></defs><g transform="translate(249.5,57.25)"><g data-paper-data="{&quot;isPaintingLayer&quot;:true}" fill-rule="nonzero" stroke-linecap="butt" stroke-linejoin="miter" stroke-miterlimit="10" stroke-dasharray="" stroke-dashoffset="0" style="mix-blend-mode: normal"><g stroke="none" stroke-width="0"><path d="M-141,359.5v-386h675v386z" fill="#121834"/><path d="M670.5,458.5c0,143.04175 -205.94902,259 -460,259c-254.05098,0 -460,-115.95825 -460,-259c0,-143.04175 205.94902,-259 460,-259c254.05098,0 460,115.95825 460,259z" fill="url(#color-1)"/><path d="M672.5,482.5c0,143.04175 -205.94902,259 -460,259c-254.05098,0 -460,-115.95825 -460,-259c0,-143.04175 205.94902,-259 460,-259c254.05098,0 460,115.95825 460,259z" fill="#0c1023"/></g><g><path d="M593,574.5v-630h819v630z" fill="#66ffa8" stroke="#000000" stroke-width="3.5"/><path d="M381.36748,422.02601c3.80113,-7.80132 8.00801,-19.73237 10.60305,-37.21172c11.25739,-75.82478 19.56086,-212.9101 24.4844,-268.14712c3.08524,-34.61317 11.81477,-83.13095 8.9688,-106.28426c-3.30514,-26.88899 -18.49689,-25.72308 -17.71276,-25.58381c4.3189,0.76712 10.94794,-28.87761 25.19579,-28.65037c46.94386,0.74847 135.66163,29.52948 150.61966,32.18628c4.85713,0.86271 5.88317,10.56428 3.86217,24.548c-0.78771,5.45047 -1.41373,11.66233 -1.63252,18.40136c-2.42317,74.66065 -13.28503,266.68025 -19.1607,332.59917c-4.47403,50.19397 -16.5516,102.29863 -16.5516,102.29863c0,0 -144.39843,-25.64762 -166.6595,-29.60156c-5.57772,-0.9907 -6.5254,-5.30169 -2.01698,-14.55458z" fill="#495d75" stroke="none" stroke-width="0"/><path d="M392.36748,423.02601c3.80113,-7.80132 8.00801,-19.73237 10.60305,-37.21172c11.25739,-75.82478 19.56086,-212.9101 24.4844,-268.14712c3.08524,-34.61317 11.81477,-83.13095 8.9688,-106.28426c-3.30514,-26.88899 -18.49689,-25.72308 -17.71276,-25.58381c4.3189,0.76712 10.94794,-28.87761 25.19579,-28.65037c46.94386,0.74847 135.66163,29.52948 150.61966,32.18628c4.85713,0.86271 168.88317,-12.43572 166.86217,1.548c-0.78771,5.45047 18.58627,77.66233 18.36748,84.40136c-2.35262,72.48712 58.56152,306.22244 47.59168,371.77178c-0.32893,1.9655 -136.58133,25.40835 -136.75238,27.32739c-4.47403,50.19397 -129.5516,-7.20137 -129.5516,-7.20137c0,0 -144.39843,-25.64762 -166.6595,-29.60156c-5.57772,-0.9907 -6.5254,-5.30169 -2.01698,-14.55458z" fill="#66ffa8" stroke="#000000" stroke-width="3.5"/><text transform="translate(436.67585,65.21111) rotate(6.50147) scale(0.41487,0.41487)" font-size="40" xml:space="preserve" fill="#000000" fill-rule="nonzero" stroke="#000000" stroke-width="4" stroke-linecap="butt" stroke-linejoin="miter" stroke-miterlimit="10" stroke-dasharray="" stroke-dashoffset="0" font-family="Playful" font-weight="normal" text-anchor="start" style="mix-blend-mode: normal"><tspan x="0" dy="0">Kickstarter</tspan><tspan x="0" dy="48px">Backers</tspan></text><path d="M429.53202,136.94882c-1.33551,-0.22522 -2.23557,-1.49041 -2.01035,-2.82592l6.62649,-39.29471c0.22521,-1.3355 1.49042,-2.23556 2.82592,-2.01035l195.84588,14.55759c1.33551,0.22522 -20.63936,188.31146 -20.63936,188.31146c-0.22522,1.33551 -158.394,-21.59858 -159.72951,-21.82379c0,0 -32.26921,-5.44174 -33.24937,-5.60703c-4.19677,-0.70773 10.3303,-131.30725 10.3303,-131.30725z" fill="#dbffeb" stroke="none" stroke-width="0"/><text transform="translate(433.48006,104.1051) rotate(7.12478) scale(0.30053,0.30053)" font-size="40" xml:space="preserve" fill="#000000" fill-rule="nonzero" stroke="none" stroke-width="1" stroke-linecap="butt" stroke-linejoin="miter" stroke-miterlimit="10" stroke-dasharray="" stroke-dashoffset="0" font-family="Playful" font-weight="normal" text-anchor="start" style="mix-blend-mode: normal"><tspan x="0" dy="0">Darryl Flood</tspan></text><text transform="translate(432.65021,116.39968) rotate(7.12478) scale(0.30053,0.30053)" font-size="40" xml:space="preserve" fill="#000000" fill-rule="nonzero" stroke="none" stroke-width="1" stroke-linecap="butt" stroke-linejoin="miter" stroke-miterlimit="10" stroke-dasharray="" stroke-dashoffset="0" font-family="Playful" font-weight="normal" text-anchor="start" style="mix-blend-mode: normal"><tspan x="0" dy="0">DEIDRE</tspan></text><text transform="translate(430.48078,144.01149) rotate(7.12478) scale(0.30053,0.30053)" font-size="40" xml:space="preserve" fill="#000000" fill-rule="nonzero" stroke="none" stroke-width="1" stroke-linecap="butt" stroke-linejoin="miter" stroke-miterlimit="10" stroke-dasharray="" stroke-dashoffset="0" font-family="Playful" font-weight="normal" text-anchor="start" style="mix-blend-mode: normal"><tspan x="0" dy="0">Brenda Koch</tspan></text><text transform="translate(431.71841,129.29878) rotate(7.12478) scale(0.30053,0.30053)" font-size="40" xml:space="preserve" fill="#000000" fill-rule="nonzero" stroke="none" stroke-width="1" stroke-linecap="butt" stroke-linejoin="miter" stroke-miterlimit="10" stroke-dasharray="" stroke-dashoffset="0" font-family="Playful" font-weight="normal" text-anchor="start" style="mix-blend-mode: normal"><tspan x="0" dy="0">Tjorn Brederoo</tspan></text><text transform="translate(428.74055,158.01772) rotate(7.12478) scale(0.30053,0.30053)" font-size="40" xml:space="preserve" fill="#000000" fill-rule="nonzero" stroke="none" stroke-width="1" stroke-linecap="butt" stroke-linejoin="miter" stroke-miterlimit="10" stroke-dasharray="" stroke-dashoffset="0" font-family="Playful" font-weight="normal" text-anchor="start" style="mix-blend-mode: normal"><tspan x="0" dy="0">I Got Character</tspan></text><text transform="translate(427.9107,170.31229) rotate(7.12478) scale(0.30053,0.30053)" font-size="40" xml:space="preserve" fill="#000000" fill-rule="nonzero" stroke="none" stroke-width="1" stroke-linecap="butt" stroke-linejoin="miter" stroke-miterlimit="10" stroke-dasharray="" stroke-dashoffset="0" font-family="Playful" font-weight="normal" text-anchor="start" style="mix-blend-mode: normal"><tspan x="0" dy="0">qtoots</tspan></text><text transform="translate(426.0471,196.1105) rotate(7.12478) scale(0.30053,0.30053)" font-size="40" xml:space="preserve" fill="#000000" fill-rule="nonzero" stroke="none" stroke-width="1" stroke-linecap="butt" stroke-linejoin="miter" stroke-miterlimit="10" stroke-dasharray="" stroke-dashoffset="0" font-family="Playful" font-weight="normal" text-anchor="start" style="mix-blend-mode: normal"><tspan x="0" dy="0">Broderick Devine</tspan></text><text transform="translate(426.9789,183.2114) rotate(7.12478) scale(0.30053,0.30053)" font-size="40" xml:space="preserve" fill="#000000" fill-rule="nonzero" stroke="none" stroke-width="1" stroke-linecap="butt" stroke-linejoin="miter" stroke-miterlimit="10" stroke-dasharray="" stroke-dashoffset="0" font-family="Playful" font-weight="normal" text-anchor="start" style="mix-blend-mode: normal"><tspan x="0" dy="0">Matthew Reyes</tspan></text><text transform="translate(425.51594,210.32063) rotate(7.12478) scale(0.30053,0.30053)" font-size="40" xml:space="preserve" fill="#000000" fill-rule="nonzero" stroke="none" stroke-width="1" stroke-linecap="butt" stroke-linejoin="miter" stroke-miterlimit="10" stroke-dasharray="" stroke-dashoffset="0" font-family="Playful" font-weight="normal" text-anchor="start" style="mix-blend-mode: normal"><tspan x="0" dy="0">Sylvester Lan</tspan></text><text transform="translate(423.77571,224.32685) rotate(7.12478) scale(0.30053,0.30053)" font-size="40" xml:space="preserve" fill="#000000" fill-rule="nonzero" stroke="none" stroke-width="1" stroke-linecap="butt" stroke-linejoin="miter" stroke-miterlimit="10" stroke-dasharray="" stroke-dashoffset="0" font-family="Playful" font-weight="normal" text-anchor="start" style="mix-blend-mode: normal"><tspan x="0" dy="0">Daelin Southerland</tspan></text><text transform="translate(419.18814,251.53088) rotate(7.12478) scale(0.30053,0.30053)" font-size="40" xml:space="preserve" fill="#000000" fill-rule="nonzero" stroke="none" stroke-width="1" stroke-linecap="butt" stroke-linejoin="miter" stroke-miterlimit="10" stroke-dasharray="" stroke-dashoffset="0" font-family="Playful" font-weight="normal" text-anchor="start" style="mix-blend-mode: normal"><tspan x="0" dy="0">Michael Hosenfeld</tspan></text><text transform="translate(422.74197,237.83048) rotate(7.12478) scale(0.30053,0.30053)" font-size="40" xml:space="preserve" fill="#000000" fill-rule="nonzero" stroke="none" stroke-width="1" stroke-linecap="butt" stroke-linejoin="miter" stroke-miterlimit="10" stroke-dasharray="" stroke-dashoffset="0" font-family="Playful" font-weight="normal" text-anchor="start" style="mix-blend-mode: normal"><tspan x="0" dy="0">Crystal Pearson</tspan></text><path d="M421.75,1.49999c0,-2.62335 2.12664,-4.75 4.75,-4.75c2.62336,0 4.75,2.12665 4.75,4.75c0,2.62336 -2.12664,4.75 -4.75,4.75c-2.62336,0 -4.75,-2.12664 -4.75,-4.75z" fill="#dbe6ff" stroke="none" stroke-width="0.5"/><path d="M426.75,22.5c0,-2.62335 2.12664,-4.75 4.75,-4.75c2.62336,0 4.75,2.12665 4.75,4.75c0,2.62336 -2.12664,4.75 -4.75,4.75c-2.62336,0 -4.75,-2.12664 -4.75,-4.75z" fill="#dbe6ff" stroke="none" stroke-width="0.5"/><path d="M423.75,49.5c0,-2.62335 2.12664,-4.75 4.75,-4.75c2.62336,0 4.75,2.12665 4.75,4.75c0,2.62336 -2.12664,4.75 -4.75,4.75c-2.62336,0 -4.75,-2.12664 -4.75,-4.75z" fill="#dbe6ff" stroke="none" stroke-width="0.5"/><path d="M419.75,79.5c0,-2.62336 2.12664,-4.75 4.75,-4.75c2.62336,0 4.75,2.12664 4.75,4.75c0,2.62336 -2.12664,4.75 -4.75,4.75c-2.62336,0 -4.75,-2.12664 -4.75,-4.75z" fill="#dbe6ff" stroke="none" stroke-width="0.5"/><path d="M415.75,105.5c0,-2.62336 2.12664,-4.75 4.75,-4.75c2.62336,0 4.75,2.12664 4.75,4.75c0,2.62336 -2.12664,4.75 -4.75,4.75c-2.62336,0 -4.75,-2.12664 -4.75,-4.75z" fill="#dbe6ff" stroke="none" stroke-width="0.5"/><path d="M414.75,133.5c0,-2.62336 2.12664,-4.75 4.75,-4.75c2.62336,0 4.75,2.12664 4.75,4.75c0,2.62336 -2.12664,4.75 -4.75,4.75c-2.62336,0 -4.75,-2.12664 -4.75,-4.75z" fill="#dbe6ff" stroke="none" stroke-width="0.5"/><path d="M411.75,165.5c0,-2.62336 2.12664,-4.75 4.75,-4.75c2.62336,0 4.75,2.12664 4.75,4.75c0,2.62336 -2.12664,4.75 -4.75,4.75c-2.62336,0 -4.75,-2.12664 -4.75,-4.75z" fill="#dbe6ff" stroke="none" stroke-width="0.5"/><path d="M409.75,198.5c0,-2.62336 2.12664,-4.75 4.75,-4.75c2.62336,0 4.75,2.12664 4.75,4.75c0,2.62336 -2.12664,4.75 -4.75,4.75c-2.62336,0 -4.75,-2.12664 -4.75,-4.75z" fill="#dbe6ff" stroke="none" stroke-width="0.5"/><path d="M407.75,227.5c0,-2.62336 2.12664,-4.75 4.75,-4.75c2.62336,0 4.75,2.12664 4.75,4.75c0,2.62336 -2.12664,4.75 -4.75,4.75c-2.62336,0 -4.75,-2.12664 -4.75,-4.75z" fill="#dbe6ff" stroke="none" stroke-width="0.5"/><path d="M405.75,255.5c0,-2.62336 2.12664,-4.75 4.75,-4.75c2.62336,0 4.75,2.12664 4.75,4.75c0,2.62336 -2.12664,4.75 -4.75,4.75c-2.62336,0 -4.75,-2.12664 -4.75,-4.75z" fill="#dbe6ff" stroke="none" stroke-width="0.5"/><path d="M403.75,285.5c0,-2.62336 2.12664,-4.75 4.75,-4.75c2.62336,0 4.75,2.12664 4.75,4.75c0,2.62336 -2.12664,4.75 -4.75,4.75c-2.62336,0 -4.75,-2.12664 -4.75,-4.75z" fill="#dbe6ff" stroke="none" stroke-width="0.5"/><path d="M399.75,318.5c0,-2.62336 2.12664,-4.75 4.75,-4.75c2.62336,0 4.75,2.12664 4.75,4.75c0,2.62336 -2.12664,4.75 -4.75,4.75c-2.62336,0 -4.75,-2.12664 -4.75,-4.75z" fill="#dbe6ff" stroke="none" stroke-width="0.5"/><path d="M394.75,350.5c0,-2.62336 2.12664,-4.75 4.75,-4.75c2.62336,0 4.75,2.12664 4.75,4.75c0,2.62336 -2.12664,4.75 -4.75,4.75c-2.62336,0 -4.75,-2.12664 -4.75,-4.75z" fill="#dbe6ff" stroke="none" stroke-width="0.5"/><text transform="translate(419.52148,285.19754) rotate(7.12478) scale(0.30053,0.30053)" font-size="40" xml:space="preserve" fill="#000000" fill-rule="nonzero" stroke="none" stroke-width="1" stroke-linecap="butt" stroke-linejoin="miter" stroke-miterlimit="10" stroke-dasharray="" stroke-dashoffset="0" font-family="Playful" font-weight="normal" text-anchor="start" style="mix-blend-mode: normal"><tspan x="0" dy="0">Thank you to Everyone Who </tspan><tspan x="0" dy="48px">Backed The Project! Your</tspan><tspan x="0" dy="48px">Support is what brought this</tspan><tspan x="0" dy="48px">game to life!</tspan></text><path d="M392.75,370.64743c0,-2.62335 2.12665,-4.75 4.75,-4.75c2.62335,0 4.75,2.12665 4.75,4.75c0,2.62335 -2.12665,4.75 -4.75,4.75c-2.62335,0 -4.75,-2.12665 -4.75,-4.75z" fill="#dbe6ff" stroke="none" stroke-width="0.5"/><text transform="translate(416.18814,264.53088) rotate(7.12478) scale(0.30053,0.30053)" font-size="40" xml:space="preserve" fill="#000000" fill-rule="nonzero" stroke="none" stroke-width="1" stroke-linecap="butt" stroke-linejoin="miter" stroke-miterlimit="10" stroke-dasharray="" stroke-dashoffset="0" font-family="Playful" font-weight="normal" text-anchor="start" style="mix-blend-mode: normal"><tspan x="0" dy="0">TerminalCalamitas</tspan></text><text transform="translate(536.76475,114.73487) rotate(4.69334) scale(0.30053,0.30053)" font-size="40" xml:space="preserve" fill="#000000" fill-rule="nonzero" stroke="none" stroke-width="1" stroke-linecap="butt" stroke-linejoin="miter" stroke-miterlimit="10" stroke-dasharray="" stroke-dashoffset="0" font-family="Playful" font-weight="normal" text-anchor="start" style="mix-blend-mode: normal"><tspan x="0" dy="0">Steven</tspan></text><text transform="translate(536.45724,127.05359) rotate(4.69334) scale(0.30053,0.30053)" font-size="40" xml:space="preserve" fill="#000000" fill-rule="nonzero" stroke="none" stroke-width="1" stroke-linecap="butt" stroke-linejoin="miter" stroke-miterlimit="10" stroke-dasharray="" stroke-dashoffset="0" font-family="Playful" font-weight="normal" text-anchor="start" style="mix-blend-mode: normal"><tspan x="0" dy="0">Dries Ouwens</tspan></text><text transform="translate(536.07353,139.98061) rotate(4.69334) scale(0.30053,0.30053)" font-size="40" xml:space="preserve" fill="#000000" fill-rule="nonzero" stroke="none" stroke-width="1" stroke-linecap="butt" stroke-linejoin="miter" stroke-miterlimit="10" stroke-dasharray="" stroke-dashoffset="0" font-family="Playful" font-weight="normal" text-anchor="start" style="mix-blend-mode: normal"><tspan x="0" dy="0">Ace</tspan></text></g><path d="M59.01046,79.39135l-13.3484,-74.03677l154.1923,-27.79996l110.99395,49.48319z" fill="#91a4ff" stroke="none" stroke-width="0"/><path d="M40.93019,287.08683c5.79473,-41.50646 -6.32647,-124.13993 -7.79216,-153.83989c-0.91844,-18.61089 -29.58998,-123.26869 0.07681,-125.96377c15.55615,-1.41321 35.08798,-6.52578 53.4287,0.35379c16.44959,6.17021 31.53525,24.2223 48.67275,26.13052c23.98618,2.6708 58.0946,-9.61742 81.0659,-7.88856c34.23557,2.57663 74.88476,-2.10158 82.02205,-2.38777c8.58493,-0.34425 12.12343,4.56242 11.15039,12.20808c-0.37924,2.98006 -0.33993,6.33193 0.50161,9.89283c9.32434,39.45063 26.66996,156.93566 28.41909,192.37908c1.33186,26.98841 2.71153,54.81018 2.71153,54.81018c0,0 -254.29832,20.72569 -293.64449,22.30345c-9.85855,0.39533 -7.94787,-18.42976 -6.61212,-27.99792z" fill="#ffffff" stroke="#495d75" stroke-width="10.5"/><text transform="translate(67.8537,133.48818) rotate(-5.23356) scale(0.51296,0.51139) skewX(0.00032)" font-size="40" xml:space="preserve" fill="#000000" fill-rule="nonzero" stroke="#495d75" stroke-width="21" stroke-linecap="butt" stroke-linejoin="miter" stroke-miterlimit="10" stroke-dasharray="" stroke-dashoffset="0" font-family="Bubbly" font-weight="normal" text-anchor="start" style="mix-blend-mode: normal"><tspan x="0" dy="0">Game Developers</tspan></text><text transform="translate(71.00567,150.64973) rotate(-5.23366) scale(0.39669,0.39545) skewX(-0.00027)" font-size="40" xml:space="preserve" fill="#000000" fill-rule="nonzero" stroke="#495d75" stroke-width="21" stroke-linecap="butt" stroke-linejoin="miter" stroke-miterlimit="10" stroke-dasharray="" stroke-dashoffset="0" font-family="Playful" font-weight="normal" text-anchor="start" style="mix-blend-mode: normal"><tspan x="0" dy="0">@DumzDev</tspan></text><text transform="translate(77.86892,215.25763) rotate(-5.23427) scale(0.82354,0.82101) skewX(-0.00029)" font-size="40" xml:space="preserve" fill="#000000" fill-rule="nonzero" stroke="#495d75" stroke-width="21" stroke-linecap="butt" stroke-linejoin="miter" stroke-miterlimit="10" stroke-dasharray="" stroke-dashoffset="0" font-family="Bubbly" font-weight="normal" text-anchor="start" style="mix-blend-mode: normal"><tspan x="0" dy="0">Music</tspan></text><text transform="translate(81.48228,232.71095) rotate(-5.23366) scale(0.39669,0.39546) skewX(-0.0004)" font-size="40" xml:space="preserve" fill="#000000" fill-rule="nonzero" stroke="#495d75" stroke-width="21" stroke-linecap="butt" stroke-linejoin="miter" stroke-miterlimit="10" stroke-dasharray="" stroke-dashoffset="0" font-family="Playful" font-weight="normal" text-anchor="start" style="mix-blend-mode: normal"><tspan x="0" dy="0">@DumzDev</tspan></text><text transform="translate(85.09807,248.95116) rotate(-5.23366) scale(0.39669,0.39546) skewX(-0.0004)" font-size="40" xml:space="preserve" fill="#000000" fill-rule="nonzero" stroke="#495d75" stroke-width="21" stroke-linecap="butt" stroke-linejoin="miter" stroke-miterlimit="10" stroke-dasharray="" stroke-dashoffset="0" font-family="Playful" font-weight="normal" text-anchor="start" style="mix-blend-mode: normal"><tspan x="0" dy="0">Paul M. Grenon</tspan></text><text transform="translate(72.7144,165.40225) rotate(-5.23366) scale(0.39669,0.39546) skewX(-0.0004)" font-size="40" xml:space="preserve" fill="#000000" fill-rule="nonzero" stroke="#495d75" stroke-width="21" stroke-linecap="butt" stroke-linejoin="miter" stroke-miterlimit="10" stroke-dasharray="" stroke-dashoffset="0" font-family="Playful" font-weight="normal" text-anchor="start" style="mix-blend-mode: normal"><tspan x="0" dy="0">@LemmonTea</tspan></text><text transform="translate(73.56494,180.89835) rotate(-5.23366) scale(0.39669,0.39546) skewX(-0.0004)" font-size="40" xml:space="preserve" fill="#000000" fill-rule="nonzero" stroke="#495d75" stroke-width="21" stroke-linecap="butt" stroke-linejoin="miter" stroke-miterlimit="10" stroke-dasharray="" stroke-dashoffset="0" font-family="Playful" font-weight="normal" text-anchor="start" style="mix-blend-mode: normal"><tspan x="0" dy="0">@Dicuo</tspan></text><path d="M45.26857,280.87897c5.58184,-40.182 -6.13989,-120.18509 -7.56261,-148.93886c-0.89152,-18.01796 -25.25954,-117.89721 -1.35646,-120.03463c10.95715,-0.9798 26.36796,-6.68179 48.33224,0.70355c13.79081,4.63707 35.14982,23.43215 44.0661,23.73011c78.95233,2.6384 145.22489,-9.79657 164.96335,-10.58494c8.28607,-0.33096 11.70278,4.42029 10.76565,11.822c-0.36523,2.88498 -0.32639,6.13002 0.48682,9.57766c9.01053,38.19578 25.78431,151.94105 27.48214,186.25531c1.29284,26.1286 2.63199,53.06403 2.63199,53.06403c0,0 -245.44314,19.99634 -283.41963,21.51316c-9.51536,0.38006 -7.67625,-17.84451 -6.3896,-27.10737z" fill="#ffedd7" stroke="#000000" stroke-width="3.5"/><text transform="translate(47.173,134.67) rotate(-5.23393) scale(0.49511,0.49511)" font-size="40" xml:space="preserve" fill="#000000" fill-rule="nonzero" stroke="none" stroke-width="1" stroke-linecap="butt" stroke-linejoin="miter" stroke-miterlimit="10" stroke-dasharray="" stroke-dashoffset="0" font-family="Bubbly" font-weight="normal" text-anchor="start" style="mix-blend-mode: normal"><tspan x="0" dy="0">Game Developers</tspan></text><text transform="translate(62.2402,148.79847) rotate(-5.2346) scale(0.38286,0.38286)" font-size="40" xml:space="preserve" fill="#000000" fill-rule="nonzero" stroke="none" stroke-width="1" stroke-linecap="butt" stroke-linejoin="miter" stroke-miterlimit="10" stroke-dasharray="" stroke-dashoffset="0" font-family="Playful" font-weight="normal" text-anchor="start" style="mix-blend-mode: normal"><tspan x="0" dy="0">@DumzDev</tspan></text><text transform="translate(55.61832,214.66502) rotate(-5.23408) scale(0.79485,0.79485)" font-size="40" xml:space="preserve" fill="#000000" fill-rule="nonzero" stroke="none" stroke-width="1" stroke-linecap="butt" stroke-linejoin="miter" stroke-miterlimit="10" stroke-dasharray="" stroke-dashoffset="0" font-family="Bubbly" font-weight="normal" text-anchor="start" style="mix-blend-mode: normal"><tspan x="0" dy="0">Music</tspan></text><text transform="translate(65.32806,228.66159) rotate(-5.23446) scale(0.38287,0.38287)" font-size="40" xml:space="preserve" fill="#000000" fill-rule="nonzero" stroke="none" stroke-width="1" stroke-linecap="butt" stroke-linejoin="miter" stroke-miterlimit="10" stroke-dasharray="" stroke-dashoffset="0" font-family="Playful" font-weight="normal" text-anchor="start" style="mix-blend-mode: normal"><tspan x="0" dy="0">@DumzDev</tspan></text><text transform="translate(66.39488,244.79969) rotate(-5.23446) scale(0.38287,0.38287)" font-size="40" xml:space="preserve" fill="#000000" fill-rule="nonzero" stroke="none" stroke-width="1" stroke-linecap="butt" stroke-linejoin="miter" stroke-miterlimit="10" stroke-dasharray="" stroke-dashoffset="0" font-family="Playful" font-weight="normal" text-anchor="start" style="mix-blend-mode: normal"><tspan x="0" dy="0">@OceanicVoyager</tspan></text><text transform="translate(65.96592,165.56825) rotate(-5.23446) scale(0.38287,0.38287)" font-size="40" xml:space="preserve" fill="#000000" fill-rule="nonzero" stroke="none" stroke-width="1" stroke-linecap="butt" stroke-linejoin="miter" stroke-miterlimit="10" stroke-dasharray="" stroke-dashoffset="0" font-family="Playful" font-weight="normal" text-anchor="start" style="mix-blend-mode: normal"><tspan x="0" dy="0">@LemmonTea</tspan></text><text transform="translate(57.02467,341.52422) rotate(-0.71911) scale(0.4952,0.53831) skewX(0.98738)" font-size="40" xml:space="preserve" fill="#686bff" fill-rule="nonzero" stroke="none" stroke-width="1" stroke-linecap="butt" stroke-linejoin="miter" stroke-miterlimit="10" stroke-dasharray="" stroke-dashoffset="0" font-family="Archivo Black" font-weight="normal" text-anchor="start" style="mix-blend-mode: normal"><tspan x="0" dy="0">Click Anywhere To Exit</tspan></text><text transform="translate(69.93447,183.88258) rotate(-5.89985) scale(0.38287,0.38287)" font-size="40" xml:space="preserve" fill="#000000" fill-rule="nonzero" stroke="none" stroke-width="1" stroke-linecap="butt" stroke-linejoin="miter" stroke-miterlimit="10" stroke-dasharray="" stroke-dashoffset="0" font-family="Playful" font-weight="normal" text-anchor="start" style="mix-blend-mode: normal"><tspan x="0" dy="0">@Dicuo</tspan></text><path d="M107.5247,107.37811c0,0 -66.33363,5.30151 -72.64613,-6.00113c-7.31024,-13.08913 -6.36705,-50.02744 -6.36705,-50.02744c0,0 -7.68601,-23.3756 5.96246,-35.47577c5.96566,-5.28893 20.765,-3.80889 31.55487,-4.79732c10.63405,-0.97415 27.43499,11.24619 44.07232,18.34934c18.75426,8.00695 37.2712,11.03525 45.95463,10.23979c38.99367,-3.57209 112.68475,-10.32271 112.68475,-10.32271c0,0 -51.97204,36.4005 -71.43158,48.70705c-12.4303,7.86113 -89.78426,29.3282 -89.78426,29.3282z" fill="#ffffff" stroke="none" stroke-width="NaN"/><path d="M51.74687,101.04608l-3.53491,-38.58784l-13.37406,1.59497l-3.34457,-15.72917l41.5868,-10.12647l1.92748,18.47198l-11.57829,4.64007l5.56157,40.17816z" fill="#91a4ff" stroke="none" stroke-width="0"/><path d="M82.61224,97.12491l-5.34886,-58.38918l29.45214,-7.7655l1.98358,16.95854l-18.35746,5.38043l0.88538,5.48623l13.16647,-0.77178l1.85223,11.4322l-11.26418,2.55027l0.77158,6.06005l16.65774,1.59637l2.09591,17.91892z" fill="#91a4ff" stroke="none" stroke-width="0"/><path d="M119.08785,96.62573l-7.88566,-64.20073l32.34423,4.12977l16.61755,53.15295l-13.00493,2.88209l-9.59462,-23.09991l-7.86278,-0.08595l1.81642,23.05983zM127.93243,57.78455l7.59649,0.23136l-8.43969,-14.32351z" fill="#91a4ff" stroke="none" stroke-width="0"/><path d="M163.7579,87.75287l-11.88765,-51.06405l14.43272,-3.89823l9.08192,20.76412c0,0 10.63311,-23.3976 10.39928,-22.7098c-0.54929,1.61563 14.81634,1.18456 14.81634,1.18456l7.69273,50.03447l-12.90744,1.69584l-7.08217,-16.71638l-6.81879,9.67044l-8.50206,-6.08622l2.84333,16.41442z" fill="#91a4ff" stroke="none" stroke-width="0"/><text transform="translate(34.19092,41.8469) rotate(-16.5037) scale(0.77011,0.63158) skewX(6.01543)" font-size="40" xml:space="preserve" fill="#91a4ff" fill-rule="nonzero" stroke="none" stroke-width="1" stroke-linecap="butt" stroke-linejoin="miter" stroke-miterlimit="10" stroke-dasharray="" stroke-dashoffset="0" font-family="Marker" font-weight="normal" text-anchor="start" style="mix-blend-mode: normal"><tspan x="0" dy="0">the</tspan></text><path d="M301.73256,24.86374c-0.29758,-3.24847 2.09459,-6.12314 5.34308,-6.42073c3.24847,-0.29757 6.12314,2.09459 6.42072,5.34308c0.29757,3.24847 -2.09459,6.12314 -5.34307,6.42072c-3.24847,0.29757 -6.12314,-2.09458 -6.42072,-5.34307z" fill="#dbe6ff" stroke="none" stroke-width="0.5"/><path d="M309.01595,56.66235c-0.29758,-3.24847 2.09459,-6.12312 5.34308,-6.42072c3.24847,-0.29758 6.12312,2.09459 6.42072,5.34308c0.29757,3.24847 -2.09459,6.12312 -5.34307,6.42072c-3.24847,0.29758 -6.12314,-2.09459 -6.42072,-5.34307z" fill="#dbe6ff" stroke="none" stroke-width="0.5"/><path d="M314.32844,87.39284c-0.29757,-3.24847 2.09459,-6.12314 5.34308,-6.42073c3.24847,-0.29758 6.12312,2.09459 6.42072,5.34308c0.29757,3.24847 -2.09459,6.12314 -5.34307,6.42073c-3.24847,0.29758 -6.12312,-2.09459 -6.42072,-5.34307z" fill="#dbe6ff" stroke="none" stroke-width="0.5"/><path d="M319.58423,117.50416c-0.29757,-3.24847 2.09459,-6.12312 5.34308,-6.42072c3.24847,-0.29758 6.12314,2.09458 6.42072,5.34307c0.29757,3.24847 -2.09459,6.12314 -5.34307,6.42073c-3.24847,0.29757 -6.12314,-2.09459 -6.42072,-5.34307z" fill="#dbe6ff" stroke="none" stroke-width="0.5"/><path d="M324.95344,148.85378c-0.29757,-3.24847 2.09459,-6.12314 5.34308,-6.42072c3.24847,-0.29758 6.12314,2.09459 6.42073,5.34308c0.29757,3.24847 -2.09459,6.12314 -5.34307,6.42072c-3.24847,0.29758 -6.12314,-2.09459 -6.42073,-5.34307z" fill="#dbe6ff" stroke="none" stroke-width="0.5"/><path d="M329.59008,179.02184c-0.29757,-3.24847 2.09459,-6.12314 5.34307,-6.42073c3.24847,-0.29758 6.12314,2.09459 6.42073,5.34308c0.29757,3.24847 -2.09459,6.12312 -5.34307,6.42072c-3.24847,0.29758 -6.12314,-2.09458 -6.42072,-5.34307z" fill="#dbe6ff" stroke="none" stroke-width="0.5"/><path d="M333.10187,210.54162c-0.29757,-3.24847 2.09459,-6.12314 5.34308,-6.42073c3.24847,-0.29758 6.12312,2.09459 6.42072,5.34308c0.29757,3.24847 -2.09459,6.12312 -5.34307,6.42072c-3.24847,0.29758 -6.12312,-2.09458 -6.42072,-5.34307z" fill="#dbe6ff" stroke="none" stroke-width="0.5"/><path d="M333.68806,244.20242c-0.29757,-3.24847 2.09459,-6.12312 5.34308,-6.42072c3.24847,-0.29758 6.12314,2.09458 6.42073,5.34307c0.29757,3.24847 -2.09459,6.12314 -5.34307,6.42073c-3.24847,0.29758 -6.12314,-2.09459 -6.42073,-5.34307z" fill="#dbe6ff" stroke="none" stroke-width="0.5"/><path d="M334.95012,278.42566c-0.29757,-3.24847 2.09459,-6.12312 5.34307,-6.42072c3.24847,-0.29758 6.12314,2.09459 6.42073,5.34308c0.29757,3.24847 -2.09459,6.12314 -5.34307,6.42072c-3.24847,0.29757 -6.12314,-2.09459 -6.42072,-5.34308z" fill="#dbe6ff" stroke="none" stroke-width="0.5"/><path d="M307.77388,295.27508c-0.29758,-3.24847 2.09459,-6.12314 5.34308,-6.42073c3.24847,-0.29757 6.12314,2.09459 6.42073,5.34308c0.29757,3.24847 -2.09459,6.12314 -5.34307,6.42073c-3.24847,0.29757 -6.12314,-2.09459 -6.42073,-5.34307z" fill="#dbe6ff" stroke="none" stroke-width="0.5"/><path d="M268.20521,299.5242c-0.29758,-3.24847 2.09459,-6.12314 5.34308,-6.42072c3.24847,-0.29757 6.12312,2.09459 6.42072,5.34308c0.29758,3.24847 -2.09459,6.12312 -5.34307,6.42072c-3.24847,0.29757 -6.12312,-2.09459 -6.42072,-5.34307z" fill="#dbe6ff" stroke="none" stroke-width="0.5"/><path d="M226.72234,303.32432c-0.29758,-3.24847 2.09459,-6.12314 5.34308,-6.42073c3.24847,-0.29757 6.12312,2.09459 6.42072,5.34308c0.29758,3.24847 -2.09459,6.12314 -5.34307,6.42073c-3.24847,0.29757 -6.12312,-2.09459 -6.42072,-5.34307z" fill="#dbe6ff" stroke="none" stroke-width="0.5"/><path d="M191.2608,304.69982c-0.29758,-3.24847 2.09459,-6.12312 5.34308,-6.42072c3.24847,-0.29757 6.12314,2.09458 6.42073,5.34307c0.29758,3.24847 -2.09459,6.12314 -5.34307,6.42073c-3.24847,0.29757 -6.12314,-2.09459 -6.42073,-5.34307z" fill="#dbe6ff" stroke="none" stroke-width="0.5"/><path d="M156.58859,307.87605c-0.29758,-3.24847 2.09459,-6.12314 5.34308,-6.42073c3.24847,-0.29757 6.12312,2.09459 6.42072,5.34308c0.29758,3.24847 -2.09459,6.12314 -5.34307,6.42073c-3.24847,0.29757 -6.12312,-2.09459 -6.42072,-5.34307z" fill="#dbe6ff" stroke="none" stroke-width="0.5"/><path d="M119.94547,309.98413c-0.29758,-3.24847 2.09459,-6.12312 5.34308,-6.42072c3.24847,-0.29757 6.12314,2.09458 6.42073,5.34307c0.29758,3.24847 -2.09459,6.12314 -5.34307,6.42073c-3.24847,0.29757 -6.12314,-2.09459 -6.42073,-5.34307z" fill="#dbe6ff" stroke="none" stroke-width="0.5"/><path d="M92.14058,313.1556c-0.29758,-3.24847 2.09459,-6.12312 5.34308,-6.42072c3.24847,-0.29757 6.12314,2.09459 6.42073,5.34308c0.29758,3.24847 -2.09459,6.12312 -5.34307,6.42072c-3.24847,0.29757 -6.12314,-2.09459 -6.42073,-5.34307z" fill="#dbe6ff" stroke="none" stroke-width="0.5"/><path d="M62.98395,315.2022c-0.29757,-3.24847 2.09459,-6.12312 5.34308,-6.42072c3.24847,-0.29757 6.12314,2.09459 6.42073,5.34308c0.29758,3.24847 -2.09459,6.12312 -5.34307,6.42072c-3.24847,0.29757 -6.12314,-2.09459 -6.42073,-5.34307z" fill="#dbe6ff" stroke="none" stroke-width="0.5"/><path d="M35.73673,310.83048c-0.29757,-3.24847 2.09459,-6.12314 5.34308,-6.42072c3.24847,-0.29757 6.12314,2.09459 6.42072,5.34307c0.29757,3.24847 -2.09459,6.12314 -5.34307,6.42073c-3.24847,0.29757 -6.12314,-2.09459 -6.42072,-5.34307z" fill="#dbe6ff" stroke="none" stroke-width="0.5"/><path d="M31.94611,283.0823c-0.29758,-3.24847 2.09459,-6.12314 5.34308,-6.42073c3.24847,-0.29758 6.12314,2.09459 6.42072,5.34308c0.29757,3.24847 -2.09459,6.12314 -5.34307,6.42073c-3.24847,0.29757 -6.12314,-2.09459 -6.42072,-5.34307z" fill="#dbe6ff" stroke="none" stroke-width="0.5"/><path d="M32.99523,253.64207c-0.29758,-3.24847 2.09459,-6.12312 5.34308,-6.42072c3.24847,-0.29758 6.12314,2.09459 6.42073,5.34308c0.29757,3.24847 -2.09459,6.12312 -5.34307,6.42072c-3.24847,0.29758 -6.12314,-2.09459 -6.42073,-5.34307z" fill="#dbe6ff" stroke="none" stroke-width="0.5"/><path d="M32.07348,223.13372c-0.29758,-3.24847 2.09459,-6.12312 5.34308,-6.42072c3.24847,-0.29758 6.12314,2.09459 6.42073,5.34308c0.29757,3.24847 -2.09459,6.12312 -5.34307,6.42072c-3.24847,0.29758 -6.12314,-2.09459 -6.42073,-5.34307z" fill="#dbe6ff" stroke="none" stroke-width="0.5"/><path d="M29.74328,190.88136c-0.29758,-3.24847 2.09459,-6.12312 5.34307,-6.42072c3.24847,-0.29758 6.12314,2.09459 6.42072,5.34308c0.29757,3.24847 -2.09459,6.12312 -5.34307,6.42072c-3.24847,0.29758 -6.12312,-2.09459 -6.42072,-5.34307z" fill="#dbe6ff" stroke="none" stroke-width="0.5"/><path d="M27.36111,164.87718c-0.29758,-3.24847 2.09459,-6.12312 5.34308,-6.42072c3.24847,-0.29758 6.12314,2.09459 6.42072,5.34307c0.29757,3.24847 -2.09459,6.12314 -5.34307,6.42072c-3.24847,0.29758 -6.12314,-2.09459 -6.42072,-5.34307z" fill="#dbe6ff" stroke="none" stroke-width="0.5"/><path d="M24.47324,140.16803c-0.29758,-3.24847 2.09459,-6.12314 5.34308,-6.42073c3.24847,-0.29758 6.12314,2.09459 6.42073,5.34308c0.29757,3.24847 -2.09459,6.12312 -5.34308,6.42072c-3.24847,0.29758 -6.12314,-2.09458 -6.42073,-5.34307z" fill="#dbe6ff" stroke="none" stroke-width="0.5"/><path d="M22.09107,114.16386c-0.29758,-3.24847 2.09459,-6.12312 5.34308,-6.42072c3.24847,-0.29758 6.12314,2.09459 6.42072,5.34308c0.29757,3.24847 -2.09459,6.12312 -5.34307,6.42072c-3.24847,0.29758 -6.12312,-2.09459 -6.42072,-5.34307z" fill="#dbe6ff" stroke="none" stroke-width="0.5"/><path d="M16.61316,88.44328c-0.29758,-3.24847 2.09459,-6.12314 5.34308,-6.42073c3.24847,-0.29758 6.12314,2.09459 6.42073,5.34308c0.29758,3.24847 -2.09459,6.12314 -5.34307,6.42073c-3.24847,0.29758 -6.12314,-2.09459 -6.42073,-5.34307z" fill="#dbe6ff" stroke="none" stroke-width="0.5"/><path d="M13.21958,65.02911c-0.29757,-3.24847 2.09458,-6.12314 5.34307,-6.42072c3.24847,-0.29758 6.12314,2.09459 6.42073,5.34308c0.29758,3.24847 -2.09459,6.12312 -5.34307,6.42072c-3.24847,0.29758 -6.12312,-2.09459 -6.42072,-5.34307z" fill="#dbe6ff" stroke="none" stroke-width="0.5"/><path d="M263.51086,23.37038c-0.29758,-3.24847 2.09459,-6.12314 5.34308,-6.42073c3.24847,-0.29757 6.12314,2.09459 6.42073,5.34308c0.29758,3.24847 -2.09459,6.12314 -5.34307,6.42073c-3.24847,0.29757 -6.12314,-2.09459 -6.42073,-5.34307z" fill="#dbe6ff" stroke="none" stroke-width="0.5"/><path d="M223.65858,24.52376c-0.29758,-3.24847 2.09459,-6.12314 5.34308,-6.42072c3.24847,-0.29757 6.12314,2.09459 6.42072,5.34308c0.29758,3.24847 -2.09459,6.12314 -5.34307,6.42072c-3.24847,0.29757 -6.12314,-2.09459 -6.42072,-5.34307z" fill="#dbe6ff" stroke="none" stroke-width="0.5"/><path d="M136.13197,30.04445c-0.29758,-3.24847 2.09459,-6.12314 5.34308,-6.42073c3.24847,-0.29757 6.12314,2.09459 6.42073,5.34308c0.29758,3.24847 -2.09459,6.12314 -5.34307,6.42073c-3.24847,0.29757 -6.12314,-2.09459 -6.42073,-5.34307z" fill="#dbe6ff" stroke="none" stroke-width="0.5"/><path d="M181.55658,28.3806c-0.29758,-3.24847 2.09459,-6.12314 5.34308,-6.42072c3.24847,-0.29757 6.12314,2.09459 6.42072,5.34308c0.29758,3.24847 -2.09459,6.12314 -5.34307,6.42072c-3.24847,0.29757 -6.12314,-2.09459 -6.42072,-5.34307z" fill="#dbe6ff" stroke="none" stroke-width="0.5"/><path d="M100.83109,19.54272c-0.29758,-3.24847 2.09459,-6.12314 5.34308,-6.42072c3.24847,-0.29757 6.12314,2.09459 6.42073,5.34308c0.29758,3.24847 -2.09459,6.12314 -5.34307,6.42072c-3.24847,0.29757 -6.12314,-2.09459 -6.42073,-5.34307z" fill="#dbe6ff" stroke="none" stroke-width="0.5"/><path d="M70.14307,4.87236c-0.29757,-3.24847 2.09459,-6.12314 5.34307,-6.42072c3.24847,-0.29758 6.12314,2.09459 6.42073,5.34308c0.29758,3.24847 -2.09459,6.12314 -5.34307,6.42072c-3.24847,0.29757 -6.12314,-2.09459 -6.42072,-5.34307z" fill="#dbe6ff" stroke="none" stroke-width="0.5"/><path d="M35.07381,3.71456c-0.29757,-3.24847 2.09459,-6.12314 5.34308,-6.42073c3.24847,-0.29758 6.12314,2.09459 6.42073,5.34308c0.29757,3.24849 -2.09459,6.12314 -5.34307,6.42073c-3.24847,0.29757 -6.12314,-2.09459 -6.42073,-5.34307z" fill="#dbe6ff" stroke="none" stroke-width="0.5"/><path d="M13.98035,25.62583c-0.29758,-3.24847 2.09459,-6.12314 5.34308,-6.42073c3.24847,-0.29757 6.12314,2.09459 6.42073,5.34308c0.29758,3.24847 -2.09459,6.12314 -5.34307,6.42073c-3.24847,0.29757 -6.12314,-2.09459 -6.42073,-5.34307z" fill="#dbe6ff" stroke="none" stroke-width="0.5"/><text transform="translate(61.51958,281.0087) rotate(-4.50691) scale(0.38566,0.33157) skewX(1.3496)" font-size="40" xml:space="preserve" fill="#ffc57f" fill-rule="nonzero" stroke-opacity="0" stroke="#000000" stroke-width="0" stroke-linecap="butt" stroke-linejoin="miter" stroke-miterlimit="10" stroke-dasharray="" stroke-dashoffset="0" font-family="Marker" font-weight="normal" text-anchor="start" style="mix-blend-mode: normal"><tspan x="0" dy="0">Thank You To Everyone Who </tspan><tspan x="0" dy="48px">Halped Make this game a Reality!</tspan></text><text transform="translate(67.89488,262.29969) rotate(-5.23446) scale(0.38287,0.38287)" font-size="40" xml:space="preserve" fill="#000000" fill-rule="nonzero" stroke="none" stroke-width="1" stroke-linecap="butt" stroke-linejoin="miter" stroke-miterlimit="10" stroke-dasharray="" stroke-dashoffset="0" font-family="Playful" font-weight="normal" text-anchor="start" style="mix-blend-mode: normal"><tspan x="0" dy="0">Paul M. Grenon</tspan></text></g></g></svg>