<svg version="1.1" xmlns="http://www.w3.org/2000/svg" xmlns:xlink="http://www.w3.org/1999/xlink" width="153.99314" height="93.98858" viewBox="0,0,153.99314,93.98858"><g transform="translate(-224.26468,-76.97555)"><g data-paper-data="{&quot;isPaintingLayer&quot;:true}" fill-rule="nonzero" stroke="none" stroke-width="0" stroke-linecap="butt" stroke-linejoin="miter" stroke-miterlimit="10" stroke-dasharray="" stroke-dashoffset="0" style="mix-blend-mode: normal"><path d="M378.25783,139.04297c0,2.1173 -13.55255,9.67248 -16.26632,12.39638c-10.49982,10.539 -26.38298,18.60362 -48.98416,18.60362c-0.48422,0 -10.53687,0.95715 -11.64329,0.92011c-26.19383,-0.87686 -37.7729,-15.86368 -37.7729,-25.58678c0,-10.30931 23.05734,-18.66666 51.5,-18.66666c18.69808,0 35.0688,3.61179 44.09141,9.01555c4.70218,2.81619 19.07526,-0.21424 19.07526,3.31778z" fill="#1c1c1d"/><path d="M291.25782,144.54297c0,8.19223 -2.88511,16.16666 -8.5,16.16666c-5.61489,0 -11.83333,-7.97444 -11.83333,-16.16666c0,-8.19223 4.55177,-14.83334 10.16666,-14.83334c5.61489,0 10.16667,6.64111 10.16667,14.83334z" fill="#1c1c1d"/><g><path d="M281.92449,127.87631c0,10.95365 -9.15431,19.83333 -20.44673,19.83333c-1.32266,0 -6.92928,-2.2836 -11.68356,-5.36499c-3.33871,-2.16392 -5.84255,-5.34307 -7.93494,-5.71953c-16.83537,-3.02896 -17.59457,-6.70414 -17.59457,-6.70414c0,0 16.00088,-5.93742 20.22852,-9.91791c6.67248,-6.28241 10.07192,-11.9601 16.98455,-11.9601c11.29242,0 20.44673,8.87969 20.44673,19.83334z" fill="#1c1c1d"/><path d="M260.25095,122.76462c0,2.71018 -1.92241,4.90722 -4.29382,4.90722c-2.37141,0 -4.29381,-2.19704 -4.29381,-4.90722c0,-2.71018 1.9224,-4.90722 4.29381,-4.90722c2.37141,0 4.29382,2.19704 4.29382,4.90722z" fill="#9d9d9d"/></g><path d="M371.22831,83.67258c0.44215,1.08633 -3.00216,7.46508 -4.27511,10.73297c-0.35323,0.9068 5.98919,-4.54733 6.90815,-1.82882c2.04747,6.05694 -22.16907,34.00118 -40.09673,41.29797c-25.51291,10.38409 -48.46249,9.91575 -50.36234,5.24798c-1.0407,-2.55692 14.71939,-16.09806 28.37779,-30.4227c11.27568,-11.82569 19.35769,-24.5 30.89514,-29.1959c14.31905,-5.82804 15.79742,-0.61918 14.67412,5.89877c-0.40999,2.37891 1.88401,-0.23374 5.08834,-1.41155c3.659,-1.34493 8.34626,-1.41056 8.79064,-0.31873z" fill="#1c1c1d"/></g></g></svg>