<svg version="1.1" xmlns="http://www.w3.org/2000/svg" xmlns:xlink="http://www.w3.org/1999/xlink" width="117.5808" height="173.40802" viewBox="0,0,117.5808,173.40802"><g transform="translate(-261.28808,-93.34534)"><g data-paper-data="{&quot;isPaintingLayer&quot;:true}" fill="#9966ff" fill-rule="nonzero" stroke="#000000" stroke-width="2" stroke-linecap="butt" stroke-linejoin="miter" stroke-miterlimit="10" stroke-dasharray="" stroke-dashoffset="0" style="mix-blend-mode: normal"><path d="M262.49394,143.14224l2.80202,-11.66827l77.7885,18.68015l-2.80202,11.66827z"/><path d="M303.54977,261.98799l-1.33333,-60h16.66667l9.33333,62z" data-paper-data="{&quot;index&quot;:null}"/><path d="M268.21643,265.65466l9.33333,-62h16.66667l-1.33333,60z"/><path d="M297.92994,144.86906l1.08294,-11.95103l9.9592,0.90245l-1.08294,11.95103z"/><path d="M273.59286,207.00965l20.83433,-69.55302c0.61985,0.66523 1.33039,1.19837 2.1105,1.56571c0.48595,0.22884 0.9989,0.39335 1.53372,0.4854c1.99016,0.53791 4.24209,0.87579 4.7608,0.96585c2.9822,0.51784 7.13909,0.82022 10.56825,-0.67833l7.92332,71.5395z"/><path d="M290.91018,109.21335c3.87024,-11.16312 15.16039,-17.38606 25.21725,-13.89936c10.05687,3.48672 15.0721,15.36274 11.20185,26.52584c-3.87024,11.16312 -15.16039,17.38607 -25.21725,13.89937c-10.05687,-3.48672 -15.0721,-15.36274 -11.20185,-26.52585zM303.59186,131.18764c12.49688,4.40973 18.32081,-8.21297 18.32081,-8.21297l-26.85256,-9.30977c0,0 -3.52336,13.2689 8.53174,17.52274zM316.99671,114.26732c1.36015,0.47157 2.8871,-0.37007 3.41053,-1.87982c0.52343,-1.50977 -0.15487,-3.11594 -1.51501,-3.58751c-1.36015,-0.47157 -2.8871,0.37007 -3.41053,1.87982c-0.52343,1.50977 0.15487,3.11594 1.51501,3.58751zM303.7127,109.66176c1.36015,0.47157 2.8871,-0.37007 3.41053,-1.87982c0.52343,-1.50977 -0.15487,-3.11594 -1.51501,-3.58751c-1.36015,-0.47157 -2.8871,0.37007 -3.41053,1.87982c-0.52343,1.50977 0.15487,3.11594 1.51501,3.58751z"/><g><path d="M321.62178,149.56034l28.14009,-15.92418l27.7442,49.02758l-28.14009,15.92418z"/><path d="M353.48823,142.25156l9.86354,-5.58168l13.79002,24.36874l-9.86354,5.58168z"/><path d="M363.93977,188.80874c-8.09111,4.57867 -18.39875,1.66634 -23.02277,-6.50488c-4.62401,-8.17122 -1.81337,-18.50706 6.27775,-23.08573c8.09111,-4.57867 18.39875,-1.66634 23.02277,6.50488c4.62401,8.17122 1.81337,18.50706 -6.27775,23.08573z"/><path d="M361.8056,185.03739c-5.68781,3.21868 -12.90795,1.21704 -16.12662,-4.47076c-3.21868,-5.68781 -1.21704,-12.90795 4.47076,-16.12662c5.68781,-3.21868 12.90795,-1.21704 16.12662,4.47076c3.21868,5.68781 1.21704,12.90795 -4.47076,16.12662z"/></g></g></g></svg>