<svg version="1.1" xmlns="http://www.w3.org/2000/svg" xmlns:xlink="http://www.w3.org/1999/xlink" width="254.78352" height="163.62293" viewBox="0,0,254.78352,163.62293"><g transform="translate(-293.42525,-68.79374)"><g data-paper-data="{&quot;isPaintingLayer&quot;:true}" fill-rule="nonzero" stroke-linejoin="miter" stroke-miterlimit="10" stroke-dasharray="" stroke-dashoffset="0" style="mix-blend-mode: normal"><g><path d="M370.01717,170.32962c-2.34794,-4.05184 -6.48618,-6.95387 -10.11027,-9.74447c-7.42043,-5.71383 -17.09836,-1.18735 -19.45259,-0.13401c-6.36177,2.84642 -14.35284,20.74915 -14.89452,20.0859c-1.96831,-2.41009 -5.37187,-2.47988 -1.82803,-6.55365c2.24939,-11.8091 11.35772,-16.55128 15.00383,-18.53631c1.34438,-0.73191 9.13456,-3.89179 15.83625,-2.74152c9.90366,1.69985 19.82051,9.05624 22.50564,16.98989c0.7898,2.3336 1.61882,7.06587 1.7343,9.40519c0.04539,0.91944 -4.46451,-0.96582 -4.52421,-0.05588c-0.20437,3.11508 -1.01961,-3.10525 -4.2704,-8.71513z" data-paper-data="{&quot;index&quot;:null}" fill="#ae7e26" stroke="#000000" stroke-width="2" stroke-linecap="butt"/><g><path d="M372.77039,181.04527c0,12.90339 -10.41183,23.36366 -23.25549,23.36366c-12.84365,0 -23.25549,-10.46027 -23.25549,-23.36366c0,-12.90339 10.41183,-23.36366 23.25549,-23.36366c12.84365,0 23.25549,10.46027 23.25549,23.36366z" fill="#141418" stroke="#000000" stroke-width="2.5" stroke-linecap="butt"/><path d="M363.25187,182.06502c0,7.49279 -5.95654,13.56689 -13.3043,13.56689c-7.34776,0 -13.3043,-6.07411 -13.3043,-13.56689c0,-7.49279 5.95654,-13.56689 13.3043,-13.56689c7.34776,0 13.3043,6.07411 13.3043,13.56689z" fill="#434955" stroke="#000000" stroke-width="2.5" stroke-linecap="butt"/><path d="M337.17883,186.07495c0,0 -0.42741,-3.31245 -0.42741,-4.65111c0,-1.15931 0.42741,-2.92046 0.42741,-2.92046h25.32377c0,0 0.6411,1.83422 0.6411,2.92046c0,1.37081 -0.6411,4.65111 -0.6411,4.65111z" fill="#434955" stroke="#000000" stroke-width="2.5" stroke-linecap="butt"/><path d="M355.13949,182.45142c0,2.77782 -2.22764,5.02967 -4.97559,5.02967c-2.74795,0 -4.97559,-2.25186 -4.97559,-5.02967c0,-2.77782 2.22764,-5.02967 4.97559,-5.02967c2.74795,0 4.97559,2.25186 4.97559,5.02967z" fill="#585f6f" stroke="#000000" stroke-width="2.5" stroke-linecap="butt"/><path d="M349.56899,179.2876c0,-0.35843 0.29057,-0.64899 0.64899,-0.64899c0.35843,0 0.64899,0.29057 0.64899,0.64899c0,0.35843 -0.29057,0.64899 -0.64899,0.64899c-0.35843,0 -0.64899,-0.29057 -0.64899,-0.64899z" fill="#8d5d15" stroke="none" stroke-width="0.5" stroke-linecap="butt"/><path d="M349.78532,185.88566c0,-0.35843 0.29057,-0.64899 0.64899,-0.64899c0.35843,0 0.64899,0.29057 0.64899,0.64899c0,0.35844 -0.29057,0.64899 -0.64899,0.64899c-0.35843,0 -0.64899,-0.29056 -0.64899,-0.64899z" fill="#8d5d15" stroke="none" stroke-width="0.5" stroke-linecap="butt"/><path d="M347.51385,185.02034c0,-0.35844 0.29057,-0.64899 0.64899,-0.64899c0.35843,0 0.64899,0.29057 0.64899,0.64899c0,0.35844 -0.29057,0.64899 -0.64899,0.64899c-0.35843,0 -0.64899,-0.29057 -0.64899,-0.64899z" fill="#8d5d15" stroke="none" stroke-width="0.5" stroke-linecap="butt"/><path d="M346.4322,182.74888c0,-0.35843 0.29057,-0.64899 0.64899,-0.64899c0.35843,0 0.64899,0.29057 0.64899,0.64899c0,0.35843 -0.29057,0.64899 -0.64899,0.64899c-0.35843,0 -0.64899,-0.29057 -0.64899,-0.64899z" fill="#8d5d15" stroke="none" stroke-width="0.5" stroke-linecap="butt"/><path d="M347.29752,180.09883c0,-0.35843 0.29057,-0.64899 0.64899,-0.64899c0.35843,0 0.64899,0.29056 0.64899,0.64899c0,0.35843 -0.29057,0.64899 -0.64899,0.64899c-0.35843,0 -0.64899,-0.29057 -0.64899,-0.64899z" fill="#8d5d15" stroke="none" stroke-width="0.5" stroke-linecap="butt"/><path d="M352.05678,180.53149c0,-0.35843 0.29057,-0.64899 0.64899,-0.64899c0.35843,0 0.64899,0.29057 0.64899,0.64899c0,0.35843 -0.29056,0.64899 -0.64899,0.64899c-0.35843,0 -0.64899,-0.29057 -0.64899,-0.64899z" fill="#8d5d15" stroke="none" stroke-width="0.5" stroke-linecap="butt"/><path d="M352.65169,183.2897c0,-0.35843 0.29057,-0.64899 0.64899,-0.64899c0.35843,0 0.64899,0.29057 0.64899,0.64899c0,0.35844 -0.29057,0.64899 -0.64899,0.64899c-0.35843,0 -0.64899,-0.29057 -0.64899,-0.64899z" fill="#8d5d15" stroke="none" stroke-width="0.5" stroke-linecap="butt"/><path d="M351.7323,184.91218c0,-0.35844 0.29057,-0.64899 0.64899,-0.64899c0.35843,0 0.64899,0.29057 0.64899,0.64899c0,0.35844 -0.29057,0.64899 -0.64899,0.64899c-0.35843,0 -0.64899,-0.29057 -0.64899,-0.64899z" fill="#8d5d15" stroke="none" stroke-width="0.5" stroke-linecap="butt"/><path d="M348.64959,182.64071c0,-0.89607 0.7264,-1.62248 1.62248,-1.62248c0.89607,0 1.62248,0.7264 1.62248,1.62248c0,0.89607 -0.7264,1.62248 -1.62248,1.62248c-0.89607,0 -1.62248,-0.7264 -1.62248,-1.62248z" fill="#434955" stroke="none" stroke-width="0.5" stroke-linecap="butt"/><path d="M362.27838,182.18101l-7.13889,0.10817" fill="none" stroke="#000000" stroke-width="2.5" stroke-linecap="round"/><path d="M337.61675,182.39734l7.67972,-0.43266" fill="none" stroke="#000000" stroke-width="2.5" stroke-linecap="round"/></g><path d="M340.99462,173.52689c-1.33335,0 -2.41424,-1.08089 -2.41424,-2.41424v-60.3558c0,-1.33335 1.08089,-2.41424 2.41424,-2.41424h28.36722c1.33335,0 2.41424,1.08089 2.41424,2.41424v60.3558c0,1.33335 -1.08089,2.41424 -2.41424,2.41424z" fill="#101317" stroke="#000000" stroke-width="2.5" stroke-linecap="butt"/><path d="M321.98255,174.734c-1.33335,0 -2.41424,-1.08089 -2.41424,-2.41424v-27.46188c0,-1.33335 1.08089,-2.41424 2.41424,-2.41424c0,0 2.82917,0.37615 3.31957,-0.90533c0.41842,-1.09338 1.064,-5.07071 2.36586,-5.90425c6.59622,-4.22335 22.59533,-2.19452 24.70807,-0.97055c3.10966,1.80151 -0.2156,30.11178 -0.2156,30.11178c1.33335,0 -4.82847,0.77911 -4.82847,2.11245l-6.03558,5.43202c0,1.33335 -1.08089,2.41424 -2.41424,2.41424z" fill="#101317" stroke="#000000" stroke-width="2.5" stroke-linecap="butt"/><g><path d="M459.73804,186.93703c-0.33078,-0.80049 -4.86421,0.02119 -5.10335,-0.81984c-0.60843,-2.13982 -0.25357,-4.40211 -0.25357,-6.74212c0,-13.33881 10.72463,-24.15205 22.60229,-24.15205c1.70581,0 4.00577,-0.95947 7.55493,-0.34217c3.88481,0.67567 9.02205,2.96912 10.57151,3.87387c4.42882,2.58604 3.76939,3.45765 2.7324,6.22534c-0.28538,0.76167 -5.74601,-5.79743 -12.33637,-6.42117c-2.43882,-0.23082 -13.51441,-0.00891 -18.45064,7.39131c-2.41082,3.6142 -5.25028,7.48523 -6.12892,11.84558c-1.21649,6.03703 -0.05586,11.88164 -1.18828,9.14126z" fill="#ae7e26" stroke="#000000" stroke-width="2" stroke-linecap="butt"/><g><path d="M504.10616,181.81522c0,12.25594 -9.8894,22.19134 -22.0886,22.19134c-12.1992,0 -22.0886,-9.9354 -22.0886,-22.19134c0,-12.25594 9.8894,-22.19134 22.0886,-22.19134c12.1992,0 22.0886,9.9354 22.0886,22.19134z" fill="#141418" stroke="#000000" stroke-width="2.5" stroke-linecap="butt"/><path d="M495.06524,182.7838c0,7.11682 -5.65766,12.88615 -12.63673,12.88615c-6.97907,0 -12.63673,-5.76933 -12.63673,-12.88615c0,-7.11682 5.65766,-12.88615 12.63673,-12.88615c6.97907,0 12.63673,5.76932 12.63673,12.88615z" fill="#434955" stroke="#000000" stroke-width="2.5" stroke-linecap="butt"/><path d="M470.30047,186.59253c0,0 -0.40596,-3.14623 -0.40596,-4.41771c0,-1.10114 0.40596,-2.77392 0.40596,-2.77392h24.05309c0,0 0.60894,1.74219 0.60894,2.77392c0,1.30202 -0.60894,4.41771 -0.60894,4.41771z" fill="#434955" stroke="#000000" stroke-width="2.5" stroke-linecap="butt"/><path d="M487.35992,183.15082c0,2.63843 -2.11587,4.7773 -4.72593,4.7773c-2.61006,0 -4.72594,-2.13887 -4.72594,-4.7773c0,-2.63844 2.11588,-4.7773 4.72594,-4.7773c2.61006,0 4.72593,2.13887 4.72593,4.7773z" fill="#585f6f" stroke="#000000" stroke-width="2.5" stroke-linecap="butt"/><path d="M482.06893,180.14573c0,-0.34045 0.27598,-0.61643 0.61643,-0.61643c0.34045,0 0.61643,0.27598 0.61643,0.61643c0,0.34045 -0.27598,0.61643 -0.61643,0.61643c-0.34045,0 -0.61643,-0.27598 -0.61643,-0.61643z" fill="#8d5d15" stroke="none" stroke-width="0.5" stroke-linecap="butt"/><path d="M482.2744,186.41273c0,-0.34045 0.27598,-0.61643 0.61643,-0.61643c0.34045,0 0.61643,0.27598 0.61643,0.61643c0,0.34045 -0.27598,0.61643 -0.61643,0.61643c-0.34045,0 -0.61643,-0.27598 -0.61643,-0.61643z" fill="#8d5d15" stroke="none" stroke-width="0.5" stroke-linecap="butt"/><path d="M480.1169,185.59083c0,-0.34045 0.27598,-0.61643 0.61643,-0.61643c0.34045,0 0.61643,0.27598 0.61643,0.61643c0,0.34045 -0.27598,0.61643 -0.61643,0.61643c-0.34045,0 -0.61643,-0.27598 -0.61643,-0.61643z" fill="#8d5d15" stroke="none" stroke-width="0.5" stroke-linecap="butt"/><path d="M479.08953,183.43334c0,-0.34045 0.27598,-0.61643 0.61643,-0.61643c0.34045,0 0.61643,0.27598 0.61643,0.61643c0,0.34045 -0.27598,0.61643 -0.61643,0.61643c-0.34045,0 -0.61643,-0.27598 -0.61643,-0.61643z" fill="#8d5d15" stroke="none" stroke-width="0.5" stroke-linecap="butt"/><path d="M479.91143,180.91627c0,-0.34045 0.27598,-0.61643 0.61643,-0.61643c0.34045,0 0.61643,0.27598 0.61643,0.61643c0,0.34045 -0.27598,0.61643 -0.61643,0.61643c-0.34045,0 -0.61643,-0.27598 -0.61643,-0.61643z" fill="#8d5d15" stroke="none" stroke-width="0.5" stroke-linecap="butt"/><path d="M484.4319,181.32721c0,-0.34045 0.27598,-0.61643 0.61643,-0.61643c0.34045,0 0.61643,0.27598 0.61643,0.61643c0,0.34045 -0.27598,0.61643 -0.61643,0.61643c-0.34045,0 -0.61643,-0.27599 -0.61643,-0.61643z" fill="#8d5d15" stroke="none" stroke-width="0.5" stroke-linecap="butt"/><path d="M484.99695,183.94704c0,-0.34045 0.27598,-0.61643 0.61643,-0.61643c0.34045,0 0.61643,0.27598 0.61643,0.61643c0,0.34045 -0.27598,0.61643 -0.61643,0.61643c-0.34045,0 -0.61643,-0.27598 -0.61643,-0.61643z" fill="#8d5d15" stroke="none" stroke-width="0.5" stroke-linecap="butt"/><path d="M484.12368,185.4881c0,-0.34045 0.27598,-0.61643 0.61643,-0.61643c0.34045,0 0.61643,0.27598 0.61643,0.61643c0,0.34045 -0.27598,0.61643 -0.61643,0.61643c-0.34045,0 -0.61643,-0.27598 -0.61643,-0.61643z" fill="#8d5d15" stroke="none" stroke-width="0.5" stroke-linecap="butt"/><path d="M481.19565,183.3306c0,-0.8511 0.68996,-1.54106 1.54106,-1.54106c0.8511,0 1.54106,0.68996 1.54106,1.54106c0,0.8511 -0.68996,1.54106 -1.54106,1.54106c-0.8511,0 -1.54106,-0.68996 -1.54106,-1.54106z" fill="#434955" stroke="none" stroke-width="0.5" stroke-linecap="butt"/><path d="M494.14061,182.89397l-6.78069,0.10274" fill="none" stroke="#000000" stroke-width="2.5" stroke-linecap="round"/><path d="M470.71641,183.09945l7.29437,-0.41095" fill="none" stroke="#000000" stroke-width="2.5" stroke-linecap="round"/></g><path d="M482.59973,154.21303l1.36984,4.52046" fill="none" stroke="#000000" stroke-width="2" stroke-linecap="round"/><path d="M466.43566,164.07586l-3.2876,-3.28761" fill="none" stroke="#000000" stroke-width="2" stroke-linecap="round"/></g><path d="M369.31155,187.00634l6.43795,-8.651l78.66371,-1.81067l23.53876,10.46167z" fill="#2d3139" stroke="#000000" stroke-width="2.5" stroke-linecap="butt"/><path d="M471.11166,181.37313l12.8759,-20.72216l7.2427,8.651l0.80475,-0.80475c0,0 -4.09904,13.26272 -7.9352,15.62342c-2.24649,1.38245 -12.98815,-2.74752 -12.98815,-2.74752z" fill="#191b1f" stroke="#000000" stroke-width="2.5" stroke-linecap="butt"/><path d="M374.54239,179.46188c0,12.05565 -10.26844,21.82867 -22.9352,21.82867c-12.66676,0 -22.9352,-9.77302 -22.9352,-21.82867c0,-12.05565 10.26844,-21.82868 22.9352,-21.82868c3.5549,0 7.92684,-1.84565 10.92997,-0.47172c1.24478,0.56949 0.7914,5.33488 1.855,6.21484c0.5154,0.4264 6.85753,-0.96054 7.35452,-0.5368c4.81981,4.10943 2.79572,10.03205 2.79572,16.62236z" fill="#070e16" stroke="#000000" stroke-width="2.5" stroke-linecap="butt"/><path d="M370.31749,192.03599v-6.03558h106.42738v17.302c0,0 -1.85496,-0.56838 -6.27788,-3.83789c-2.82995,-2.09195 -7.18649,-7.42854 -11.22531,-7.42854c-22.36577,0 -59.66661,0 -72.02458,0c-3.79521,0 -14.30659,3.01778 -17.50317,3.01778c-3.41863,0 0.60356,-3.01778 0.60356,-3.01778z" fill="#2d3139" stroke="#000000" stroke-width="2.5" stroke-linecap="butt"/><path d="M383.99812,191.83481l-12.87591,-0.40237" fill="none" stroke="#000000" stroke-width="2.5" stroke-linecap="round"/><path d="M461.25354,191.83481l15.29014,-0.40237" fill="none" stroke="#000000" stroke-width="2.5" stroke-linecap="round"/><path d="M361.14532,183.02274c-3.27536,-5.6523 -9.04817,-9.7006 -14.10374,-13.59347c-10.35145,-7.97076 -23.85208,-1.65634 -27.13622,-0.18694c-8.87461,3.97073 -20.02211,28.94491 -20.77775,28.01968c-2.74577,-3.36205 -7.4937,-3.45941 -2.55008,-9.14229c3.13788,-16.4736 15.84394,-23.08891 20.93023,-25.85801c1.87539,-1.02102 12.74264,-5.429 22.09145,-3.8244c13.81553,2.37128 27.64945,12.63338 31.3952,23.70076c1.10178,3.25535 2.25826,9.85684 2.41934,13.12017c0.06332,1.28262 -6.22796,-1.34731 -6.31125,-0.07796c-0.2851,4.34553 -1.42236,-4.3318 -5.95717,-12.15756z" data-paper-data="{&quot;index&quot;:null}" fill="#ae7e26" stroke="#000000" stroke-width="2" stroke-linecap="butt"/><g><path d="M364.98605,197.97098c0,18.00013 -14.52443,32.59213 -32.44125,32.59213c-17.9168,0 -32.44125,-14.59199 -32.44125,-32.59213c0,-18.00013 14.52444,-32.59213 32.44125,-32.59213c17.91681,0 32.44125,14.59199 32.44125,32.59213z" fill="#141418" stroke="#000000" stroke-width="2.5" stroke-linecap="butt"/><path d="M351.70777,199.39352c0,10.45238 -8.30934,18.9257 -18.55941,18.9257c-10.25008,0 -18.55941,-8.47333 -18.55941,-18.9257c0,-10.45238 8.30934,-18.92571 18.55941,-18.92571c10.25008,0 18.55941,8.47333 18.55941,18.92571z" fill="#434955" stroke="#000000" stroke-width="2.5" stroke-linecap="butt"/><path d="M315.33609,204.98734c0,0 -0.59622,-4.62083 -0.59622,-6.48825c0,-1.61723 0.59622,-4.07401 0.59622,-4.07401h35.32647c0,0 0.89434,2.55873 0.89434,4.07401c0,1.91226 -0.89434,6.48825 -0.89434,6.48825z" fill="#434955" stroke="#000000" stroke-width="2.5" stroke-linecap="butt"/><path d="M340.39106,199.93254c0,3.87503 -3.10755,7.01636 -6.94092,7.01636c-3.83336,0 -6.94092,-3.14133 -6.94092,-7.01636c0,-3.87503 3.10755,-7.01636 6.94092,-7.01636c3.83336,0 6.94092,3.14133 6.94092,7.01636z" fill="#585f6f" stroke="#000000" stroke-width="2.5" stroke-linecap="butt"/><path d="M332.62025,195.51902c0,-0.49999 0.40533,-0.90533 0.90533,-0.90533c0.5,0 0.90533,0.40534 0.90533,0.90533c0,0.49999 -0.40533,0.90533 -0.90533,0.90533c-0.5,0 -0.90533,-0.40534 -0.90533,-0.90533z" fill="#8d5d15" stroke="none" stroke-width="0.5" stroke-linecap="butt"/><path d="M332.92203,204.72328c0,-0.49999 0.40533,-0.90533 0.90533,-0.90533c0.5,0 0.90533,0.40534 0.90533,0.90533c0,0.49999 -0.40533,0.90533 -0.90533,0.90533c-0.5,0 -0.90533,-0.40534 -0.90533,-0.90533z" fill="#8d5d15" stroke="none" stroke-width="0.5" stroke-linecap="butt"/><path d="M329.75335,203.51617c0,-0.49999 0.40533,-0.90533 0.90533,-0.90533c0.5,0 0.90533,0.40534 0.90533,0.90533c0,0.49999 -0.40533,0.90533 -0.90533,0.90533c-0.5,0 -0.90533,-0.40534 -0.90533,-0.90533z" fill="#8d5d15" stroke="none" stroke-width="0.5" stroke-linecap="butt"/><path d="M328.24446,200.34749c0,-0.49999 0.40533,-0.90533 0.90533,-0.90533c0.5,0 0.90533,0.40534 0.90533,0.90533c0,0.49999 -0.40533,0.90533 -0.90533,0.90533c-0.5,0 -0.90533,-0.40534 -0.90533,-0.90533z" fill="#8d5d15" stroke="none" stroke-width="0.5" stroke-linecap="butt"/><path d="M329.45157,196.65069c0,-0.49999 0.40533,-0.90533 0.90533,-0.90533c0.5,0 0.90533,0.40534 0.90533,0.90533c0,0.49999 -0.40533,0.90533 -0.90533,0.90533c-0.5,0 -0.90533,-0.40534 -0.90533,-0.90533z" fill="#8d5d15" stroke="none" stroke-width="0.5" stroke-linecap="butt"/><path d="M336.09071,197.25426c0,-0.49999 0.40533,-0.90533 0.90533,-0.90533c0.5,0 0.90533,0.40534 0.90533,0.90533c0,0.49999 -0.40533,0.90533 -0.90533,0.90533c-0.5,0 -0.90533,-0.40534 -0.90533,-0.90533z" fill="#8d5d15" stroke="none" stroke-width="0.5" stroke-linecap="butt"/><path d="M336.92061,201.10193c0,-0.49999 0.40533,-0.90533 0.90533,-0.90533c0.5,0 0.90533,0.40534 0.90533,0.90533c0,0.49999 -0.40533,0.90533 -0.90533,0.90533c-0.5,0 -0.90533,-0.40534 -0.90533,-0.90533z" fill="#8d5d15" stroke="none" stroke-width="0.5" stroke-linecap="butt"/><path d="M335.63804,203.36528c0,-0.49999 0.40533,-0.90533 0.90533,-0.90533c0.5,0 0.90533,0.40534 0.90533,0.90533c0,0.49999 -0.40533,0.90533 -0.90533,0.90533c-0.5,0 -0.90533,-0.40534 -0.90533,-0.90533z" fill="#8d5d15" stroke="none" stroke-width="0.5" stroke-linecap="butt"/><path d="M331.3377,200.1966c0,-1.25001 1.01333,-2.26334 2.26334,-2.26334c1.25001,0 2.26334,1.01333 2.26334,2.26334c0,1.25001 -1.01333,2.26334 -2.26334,2.26334c-1.25001,0 -2.26334,-1.01333 -2.26334,-2.26334z" fill="#434955" stroke="none" stroke-width="0.5" stroke-linecap="butt"/><path d="M340.39106,199.70621l9.9587,-0.15089" fill="none" stroke="#000000" stroke-width="2.5" stroke-linecap="round"/><path d="M326.66011,199.25354l-10.71315,0.60356" fill="none" stroke="#000000" stroke-width="2.5" stroke-linecap="round"/></g><path d="M319.91178,167.35358l-0.22273,-6.93369" data-paper-data="{&quot;index&quot;:null}" fill="none" stroke="#000000" stroke-width="2" stroke-linecap="round"/><path d="M346.41743,167.93835l3.02568,-6.12156" data-paper-data="{&quot;index&quot;:null}" fill="none" stroke="#000000" stroke-width="2" stroke-linecap="round"/><path d="M374.94475,183.98856v-12.67472h44.66329v12.67472z" fill="#191b1f" stroke="#000000" stroke-width="2.5" stroke-linecap="butt"/><path d="M373.40215,170.50909v-3.21898c0,0 -4.33512,-26.1092 -2.67661,-36.61217c0.47823,-3.02855 5.69536,-1.6237 6.42703,-1.78963c1.12608,-0.25539 6.31957,35.7864 6.84878,35.7864c6.74602,0 32.95387,0.40236 32.95387,0.40236l3.66154,5.43202c0,0 0.46957,1.81067 -1.15627,1.81067c-4.41409,0 -30.06712,1.07935 -42.02556,0.55275c-4.70522,-0.2072 -4.03276,-2.36343 -4.03276,-2.36343z" fill="#4c4f57" stroke="#000000" stroke-width="2.5" stroke-linecap="butt"/><g><path d="M481.79589,206.09687c-0.48582,-1.17566 -7.144,0.03113 -7.49522,-1.20408c-0.8936,-3.14273 -0.37242,-6.46532 -0.37242,-9.90207c0,-19.59054 15.75111,-35.4718 33.19568,-35.4718c2.50529,0 5.88323,-1.40917 11.09583,-0.50254c5.70556,0.99236 13.25055,4.3607 15.52624,5.6895c6.50454,3.79807 5.53606,5.07822 4.01304,9.14309c-0.41913,1.11866 -8.43909,-8.51462 -18.11826,-9.4307c-3.58187,-0.33901 -19.84844,-0.01308 -27.09822,10.85551c-3.54074,5.30814 -7.71102,10.99346 -9.00147,17.39746c-1.78665,8.86651 -0.08204,17.45042 -1.74521,13.42566z" fill="#ae7e26" stroke="#000000" stroke-width="2" stroke-linecap="butt"/><g><path d="M546.95876,198.57454c0,18.00013 -14.52444,32.59213 -32.44125,32.59213c-17.9168,0 -32.44125,-14.59199 -32.44125,-32.59213c0,-18.00013 14.52444,-32.59213 32.44125,-32.59213c17.9168,0 32.44125,14.59199 32.44125,32.59213z" fill="#141418" stroke="#000000" stroke-width="2.5" stroke-linecap="butt"/><path d="M533.68049,199.99707c0,10.45238 -8.30934,18.9257 -18.55941,18.9257c-10.25008,0 -18.55941,-8.47333 -18.55941,-18.9257c0,-10.45238 8.30934,-18.92571 18.55941,-18.92571c10.25008,0 18.55941,8.47333 18.55941,18.92571z" fill="#434955" stroke="#000000" stroke-width="2.5" stroke-linecap="butt"/><path d="M497.30881,205.5909c0,0 -0.59623,-4.62083 -0.59623,-6.48825c0,-1.61723 0.59623,-4.07401 0.59623,-4.07401h35.32647c0,0 0.89434,2.55873 0.89434,4.07401c0,1.91226 -0.89434,6.48825 -0.89434,6.48825z" fill="#434955" stroke="#000000" stroke-width="2.5" stroke-linecap="butt"/><path d="M522.36378,200.53611c0,3.87503 -3.10755,7.01636 -6.94092,7.01636c-3.83336,0 -6.94092,-3.14133 -6.94092,-7.01636c0,-3.87503 3.10755,-7.01636 6.94092,-7.01636c3.83336,0 6.94092,3.14133 6.94092,7.01636z" fill="#585f6f" stroke="#000000" stroke-width="2.5" stroke-linecap="butt"/><path d="M514.59298,196.12258c0,-0.49999 0.40534,-0.90533 0.90533,-0.90533c0.49999,0 0.90533,0.40534 0.90533,0.90533c0,0.49999 -0.40534,0.90533 -0.90533,0.90533c-0.49999,0 -0.90533,-0.40534 -0.90533,-0.90533z" fill="#8d5d15" stroke="none" stroke-width="0.5" stroke-linecap="butt"/><path d="M514.89475,205.32684c0,-0.49999 0.40534,-0.90533 0.90533,-0.90533c0.49999,0 0.90533,0.40534 0.90533,0.90533c0,0.49999 -0.40534,0.90533 -0.90533,0.90533c-0.49999,0 -0.90533,-0.40534 -0.90533,-0.90533z" fill="#8d5d15" stroke="none" stroke-width="0.5" stroke-linecap="butt"/><path d="M511.72608,204.11973c0,-0.49999 0.40534,-0.90533 0.90533,-0.90533c0.49999,0 0.90533,0.40534 0.90533,0.90533c0,0.49999 -0.40534,0.90533 -0.90533,0.90533c-0.49999,0 -0.90533,-0.40534 -0.90533,-0.90533z" fill="#8d5d15" stroke="none" stroke-width="0.5" stroke-linecap="butt"/><path d="M510.21718,200.95105c0,-0.49999 0.40534,-0.90533 0.90533,-0.90533c0.49999,0 0.90533,0.40534 0.90533,0.90533c0,0.49999 -0.40534,0.90533 -0.90533,0.90533c-0.49999,0 -0.90533,-0.40534 -0.90533,-0.90533z" fill="#8d5d15" stroke="none" stroke-width="0.5" stroke-linecap="butt"/><path d="M511.42429,197.25426c0,-0.49999 0.40534,-0.90533 0.90533,-0.90533c0.49999,0 0.90533,0.40534 0.90533,0.90533c0,0.49999 -0.40534,0.90533 -0.90533,0.90533c-0.49999,0 -0.90533,-0.40534 -0.90533,-0.90533z" fill="#8d5d15" stroke="none" stroke-width="0.5" stroke-linecap="butt"/><path d="M518.06343,197.85781c0,-0.49999 0.40534,-0.90533 0.90533,-0.90533c0.49999,0 0.90533,0.40534 0.90533,0.90533c0,0.49999 -0.40534,0.90533 -0.90533,0.90533c-0.49999,0 -0.90533,-0.40534 -0.90533,-0.90533z" fill="#8d5d15" stroke="none" stroke-width="0.5" stroke-linecap="butt"/><path d="M518.89333,201.7055c0,-0.49999 0.40534,-0.90533 0.90533,-0.90533c0.49999,0 0.90533,0.40534 0.90533,0.90533c0,0.49999 -0.40534,0.90533 -0.90533,0.90533c-0.49999,0 -0.90533,-0.40534 -0.90533,-0.90533z" fill="#8d5d15" stroke="none" stroke-width="0.5" stroke-linecap="butt"/><path d="M517.61077,203.96884c0,-0.49999 0.40534,-0.90533 0.90533,-0.90533c0.49999,0 0.90533,0.40534 0.90533,0.90533c0,0.49999 -0.40534,0.90533 -0.90533,0.90533c-0.49999,0 -0.90533,-0.40534 -0.90533,-0.90533z" fill="#8d5d15" stroke="none" stroke-width="0.5" stroke-linecap="butt"/><path d="M513.31042,200.80016c0,-1.25001 1.01333,-2.26334 2.26334,-2.26334c1.25001,0 2.26334,1.01333 2.26334,2.26334c0,1.25001 -1.01333,2.26334 -2.26334,2.26334c-1.25001,0 -2.26334,-1.01333 -2.26334,-2.26334z" fill="#434955" stroke="none" stroke-width="0.5" stroke-linecap="butt"/><path d="M522.36379,200.30977l9.9587,-0.15089" fill="none" stroke="#000000" stroke-width="2.5" stroke-linecap="round"/><path d="M508.63284,199.8571l-10.71315,0.60356" fill="none" stroke="#000000" stroke-width="2.5" stroke-linecap="round"/></g><path d="M515.37257,158.03556l2.01186,6.63914" fill="none" stroke="#000000" stroke-width="2" stroke-linecap="round"/><path d="M491.63264,172.52097l-4.82847,-4.82847" fill="none" stroke="#000000" stroke-width="2" stroke-linecap="round"/></g><path d="M371.96254,185.21794l-6.86121,-55.92724l7.19244,-0.85173l6.86121,57.93909z" fill="#191b1f" stroke="#000000" stroke-width="2.5" stroke-linecap="butt"/><path d="M385.00405,162.86403l-7.0415,7.2427" fill="none" stroke="#000000" stroke-width="2.5" stroke-linecap="round"/><path d="M476.09025,184.72924c-0.70481,1.51031 -2.42693,3.0158 -8.06545,0.3845c-5.63852,-2.63131 -13.25941,-7.19588 -12.5546,-8.70619c0.70481,-1.51031 4.03642,-0.80276 9.67494,1.82855c5.63852,2.63131 11.64993,4.98282 10.94511,6.49314z" fill="#070e16" stroke="#000000" stroke-width="2.5" stroke-linecap="butt"/><path d="M458.63813,175.94111c0,0 8.33019,-15.87743 8.95088,-18.0498c0.1608,-0.56278 0.50487,-0.45931 0.50487,-0.45931l17.90555,3.62135l-14.08302,21.32571z" fill="#191b1f" stroke="#000000" stroke-width="2.5" stroke-linecap="butt"/><path d="M468.64712,169.90554l4.82847,-10.56226" fill="none" stroke="#000000" stroke-width="2.5" stroke-linecap="round"/><path d="M462.61154,172.62155l8.14804,2.71601" fill="none" stroke="#000000" stroke-width="2.5" stroke-linecap="round"/><path d="M454.46351,179.56247l-33.19568,0.60356" fill="none" stroke="#000000" stroke-width="2.5" stroke-linecap="round"/></g><path d="M415.45147,171.87523l6.15778,-21.11178l2.95664,0.25447l-3.38885,21.979z" fill="#191b1f" stroke="#000000" stroke-width="2.5" stroke-linecap="butt"/><g fill="#191b1f" stroke="#000000" stroke-width="2.5" stroke-linecap="butt"><path d="M423.22307,184.0853l-18.68441,-0.78287c0,0 2.55877,-10.77639 6.33606,-13.97711c4.81794,-4.08252 20.21685,-8.52273 20.21685,-8.52273l1.3005,22.75876z"/><path d="M433.38928,184.25188c0,0.76988 -6.75509,1.39399 -15.08793,1.39399c-8.33283,0 -43.85753,-0.42292 -43.85753,-1.19281c0,-0.76988 35.52469,-1.59518 43.85753,-1.59518c8.33283,0 15.08793,0.62411 15.08793,1.39399z"/></g><path d="M425.29513,152.78203c-1.46962,1.18666 -3.53809,1.0624 -4.62005,-0.27755c-1.08196,-1.33995 -0.76769,-3.38817 0.70194,-4.57484c1.46962,-1.18666 3.53809,-1.0624 4.62005,0.27755c1.08196,1.33995 0.76769,3.38817 -0.70194,4.57484z" fill="#1f1919" stroke="#000000" stroke-width="2.5" stroke-linecap="butt"/><g><path d="M354.71717,196.89513c2.33939,2.11293 3.89783,4.08589 3.58271,4.1052c-0.28365,0.01736 0.47021,0.83465 -2.69449,1.62609c-2.42597,0.60669 -8.58046,1.20601 -10.66554,1.37092c-3.62858,0.28697 -4.36173,-1.58847 -4.49044,-1.65612c-0.41644,-0.2189 -1.15281,-3.24506 -1.99319,-7.47453c1.86831,-0.30401 3.73323,-0.62016 5.59823,-0.94299c1.98497,-0.34358 3.9437,-0.75772 5.89826,-1.1913c1.05887,1.12479 3.11891,2.6765 4.76445,4.16273z" data-paper-data="{&quot;index&quot;:null}" fill="#ffffff" stroke="#000000" stroke-width="2" stroke-linecap="butt"/><path d="M352.66313,193.8339c0.51286,1.15811 0.46197,1.00265 -5.07341,3.60114c-5.53538,2.59849 -10.43844,3.76614 -10.95128,2.60803c-0.09908,-0.22377 -1.18167,-2.41304 -1.9828,-5.7756c-3.45078,-14.48438 -16.3549,-48.93716 -16.3549,-48.93716c0,0 14.53937,-6.53842 18.84216,4.6515c2.44068,6.34724 9.34991,26.1562 13.073,36.84645c0.49933,1.43378 1.99938,3.21233 2.36561,4.26358c0.69087,1.98306 0.05407,2.67978 0.08165,2.74201z" data-paper-data="{&quot;index&quot;:null}" fill="#a68f79" stroke="#000000" stroke-width="1.5" stroke-linecap="butt"/><path d="M321.8136,199.72437c-0.83907,3.56107 -1.88194,7.84994 -4.26592,5.7301c-1.82751,-1.62501 -5.65156,-6.22765 -6.91415,-7.80644c-2.19723,-2.74755 -0.97029,-4.29041 -0.98096,-4.42762c-0.03745,-0.48148 2.57623,-2.94975 6.22099,-6.14006c0.57198,0.62889 1.14783,1.25431 1.73053,1.87374c1.80946,1.92354 3.61637,3.84937 5.41997,5.77839c0.09963,0.10657 0.19938,0.21305 0.29919,0.31944c-1.29035,1.27337 -1.01299,2.56449 -1.50967,4.67242z" data-paper-data="{&quot;index&quot;:null}" fill="#ffffff" stroke="#000000" stroke-width="2" stroke-linecap="butt"/><path d="M325.10564,198.24916c-0.62901,1.09808 -0.53417,0.96542 -5.81515,-2.05961c-5.28098,-3.02502 -9.05213,-6.36744 -8.42312,-7.46554c0.12154,-0.2122 1.2451,-2.38085 3.46959,-5.00437c1.08584,-1.28062 3.01245,-3.75242 4.32328,-5.45919c2.35928,-3.07188 -4.50909,-16.52704 -1.82441,-20.31719c0.96533,-1.36282 8.20387,-0.37888 9.21872,-1.58496c1.90531,2.06053 4.1432,3.98882 6.78232,6.22932l0.32754,0.03599c1.73351,0.99297 -2.97634,-3.20868 -1.06505,-2.66036c-0.1952,4.93525 4.47529,20.61891 3.0175,22.75213c-3.21004,4.6973 -3.43036,5.93916 -5.82709,9.42899c-0.85722,1.24818 -1.41086,3.51938 -2.0393,4.43464c-1.18547,1.72652 -2.11101,1.6111 -2.1448,1.67012z" fill="#a68f79" stroke="#000000" stroke-width="1.5" stroke-linecap="butt"/><g stroke="#000000" stroke-width="2" stroke-linecap="butt"><path d="M337.05396,139.04994c0.15641,-0.08331 0.31173,-0.1693 0.46581,-0.25839c2.13209,-1.23276 4.24826,-2.38195 6.48,-3.40334c0.96382,-0.4411 1.93521,-0.85542 2.88527,-1.30008c5.9195,11.78774 11.10885,21.16276 5.77436,23.8307c-5.89475,2.82724 -9.68047,-6.98596 -15.60545,-18.86888z" data-paper-data="{&quot;index&quot;:null}" fill="#ffffff"/><path d="M337.0387,139.8521c-3.33709,-5.67884 -5.77843,-11.53329 -7.28846,-15.78625c-1.58564,-4.46591 -2.92835,-6.5667 -1.50929,-7.40607c5.72666,-0.06967 11.98907,5.61593 18.83033,17.25797c0.04363,0.07424 0.08721,0.1484 0.13079,0.22245c-0.97474,0.51536 -1.97389,1.00096 -2.96114,1.51519c-2.31519,1.20591 -4.5037,2.53185 -6.70493,3.94318c-0.15669,0.10048 -0.31482,0.19798 -0.47417,0.29294c-0.00771,-0.01313 -0.01541,-0.02626 -0.02314,-0.0394z" data-paper-data="{&quot;index&quot;:null}" fill="#334865"/></g><path d="M313.65046,125.05552c1.1945,-13.61305 9.62459,-13.16742 9.62459,-13.16742c0,0 9.2605,0.69611 12.43907,7.85543c3.53438,7.9607 5.2347,34.87521 6.86964,43.26969c-0.8999,0.04757 1.62593,-1.36265 0.72605,-1.31509c-0.656,0.03467 -1.3133,0.06525 -1.97136,0.09435c-2.83557,0.12543 -5.68523,0.22378 -8.50532,0.50716c-3.48033,0.34971 -6.96064,0.69945 -10.44096,1.04915c-2.14416,0.21547 -4.29609,0.53477 -6.44696,0.73235c-0.83693,-8.07293 -3.02947,-30.65256 -2.29475,-39.02562z" fill="#334865" stroke="#000000" stroke-width="2" stroke-linecap="butt"/><path d="M324.28632,147.51993l-1.91129,10.68767" fill="none" stroke="#000000" stroke-width="2" stroke-linecap="round"/><path d="M339.44097,155.71884l-2.76918,-6.97409" fill="none" stroke="#000000" stroke-width="2" stroke-linecap="round"/><path d="M333.63012,116.75498c0.41451,2.91766 -2.13327,4.93045 -6.61291,5.56689c-4.47964,0.63643 -8.44715,-1.21288 -8.86166,-4.13054c-0.41451,-2.91766 2.88093,-5.79882 7.36056,-6.43525c4.47964,-0.63643 7.6995,2.08126 8.11401,4.99892z" fill="#1b2737" stroke="none" stroke-width="0" stroke-linecap="butt"/><path d="M332.4291,115.5541c0.28054,1.97459 -1.5753,3.87125 -4.93503,4.34858c-3.35974,0.47732 -6.9511,-0.64546 -7.23163,-2.62003c-0.28054,-1.97459 2.21565,-3.96223 5.57539,-4.43956c3.35974,-0.47732 6.31076,0.73644 6.59128,2.71102z" fill="#ffffff" stroke="#000000" stroke-width="1.5" stroke-linecap="butt"/><path d="M349.46455,94.19643c-0.57079,12.92731 -10.92064,22.9704 -23.11707,22.43189c-12.19641,-0.53851 -21.62085,-11.4547 -21.05006,-24.38201c0.57079,-12.92731 10.92063,-22.97039 23.11705,-22.43189c12.19641,0.53851 21.62086,11.4547 21.05008,24.38199z" fill="#ffffff" stroke="#000000" stroke-width="2" stroke-linecap="butt"/><path d="M322.19947,95.93512c-0.08764,-2.0802 0.68743,-3.80215 1.73115,-3.84615c1.04373,-0.04399 1.9609,1.60668 2.04855,3.68689c0.08764,2.0802 -0.6874,3.80216 -1.73114,3.84615c-1.04373,0.04399 -1.96091,-1.6067 -2.04856,-3.6869z" data-paper-data="{&quot;index&quot;:null}" fill="#000000" stroke="none" stroke-width="0.5" stroke-linecap="butt"/><path d="M336.9374,95.69176c-0.08586,-2.03797 0.59246,-3.72161 1.51511,-3.76049c0.92264,-0.03887 1.74021,1.58174 1.82608,3.6197c0.08586,2.03797 -0.59246,3.72161 -1.51512,3.7605c-0.92264,0.03887 -1.74021,-1.58175 -1.82607,-3.61972z" data-paper-data="{&quot;index&quot;:null}" fill="#000000" stroke="none" stroke-width="0.5" stroke-linecap="butt"/><path d="M342.32848,102.5539l-28.20846,-0.32188" fill="none" stroke="#000000" stroke-width="1.5" stroke-linecap="round"/><path d="M313.56917,103.56822l1.19907,-3.40705" fill="none" stroke="#000000" stroke-width="1.5" stroke-linecap="round"/><path d="M306.9388,161.48384c-6.08685,-0.38036 -4.94713,-11.27757 -4.08391,-24.73744c1.07186,0.03902 2.15171,0.04099 3.23511,0.0712c2.50864,0.06993 4.95955,0.30631 7.45882,0.61502c0.18061,0.02229 0.36114,0.0412 0.54165,0.05714c-0.83033,13.55164 -0.47384,24.30063 -7.15167,23.99409z" data-paper-data="{&quot;index&quot;:null}" fill="#ffffff" stroke="#000000" stroke-width="2" stroke-linecap="butt"/><path d="M313.62699,141.26606c-0.00609,0.01435 -0.01217,0.02869 -0.01824,0.04303c-0.18256,-0.08113 -0.36422,-0.16505 -0.54484,-0.25215c-2.53729,-1.22359 -5.04798,-2.3605 -7.67338,-3.36036c-1.11953,-0.42636 -2.24718,-0.82196 -3.35372,-1.25081c0.03437,-0.0809 0.06878,-0.16192 0.10319,-0.24304c5.39561,-12.71903 11.10705,-19.23739 17.14845,-19.76707c1.62476,0.71619 0.5372,3.02268 -0.43877,7.79263c-0.92941,4.5425 -2.59075,10.83362 -5.22267,17.03779z" data-paper-data="{&quot;index&quot;:null}" fill="#334865" stroke="#000000" stroke-width="2" stroke-linecap="butt"/><path d="M320.96552,120.65922c0.52598,3.70219 0.74436,10.24309 -0.11522,10.36523c-0.85959,0.12212 -2.81415,-3.26718 -3.34013,-6.96937c-0.52598,-3.70219 -0.25555,-6.80242 0.60405,-6.92455c0.85959,-0.12212 2.32533,-0.1735 2.85131,3.52869z" fill="#334865" stroke="none" stroke-width="0" stroke-linecap="butt"/></g></g></g></svg>