<svg version="1.1" xmlns="http://www.w3.org/2000/svg" xmlns:xlink="http://www.w3.org/1999/xlink" width="126.33251" height="176.89181" viewBox="0,0,126.33251,176.89181"><g transform="translate(-257.00238,-91.60344)"><g data-paper-data="{&quot;isPaintingLayer&quot;:true}" fill="#9966ff" fill-rule="nonzero" stroke="#000000" stroke-width="2" stroke-linecap="butt" stroke-linejoin="miter" stroke-miterlimit="10" stroke-dasharray="" stroke-dashoffset="0" style="mix-blend-mode: normal"><path d="M258.07894,149.52097l0.95694,-11.96178l79.74522,6.37962l-0.95694,11.96178z" data-paper-data="{&quot;index&quot;:null}"/><path d="M304.09669,263.72989l-1.33333,-60h16.66667l9.33333,62z" data-paper-data="{&quot;index&quot;:null}"/><path d="M268.76335,267.39656l9.33333,-62h16.66667l-1.33333,60z" data-paper-data="{&quot;index&quot;:null}"/><path d="M293.43002,145.39656v-12h10v12z" data-paper-data="{&quot;index&quot;:null}"/><path d="M274.80011,209.47989l14.47253,-71.14941c0.67736,0.60658 1.43311,1.07341 2.24318,1.36886c0.50462,0.18405 1.03032,0.3016 1.57127,0.34501c2.03058,0.35611 4.30381,0.48939 4.82854,0.53228c3.01676,0.2466 7.18398,0.17261 10.46391,-1.62929l14.34705,70.53255z" data-paper-data="{&quot;index&quot;:null}"/><path d="M282.66043,109.52082c2.68248,-11.50644 13.2605,-18.87517 23.62666,-16.45852c10.36617,2.41665 16.59501,13.70355 13.91253,25.20998c-2.68248,11.50644 -13.2605,18.87518 -23.62666,16.45853c-10.36617,-2.41665 -16.59501,-13.70355 -13.91253,-25.20999zM297.56903,130.04953c12.88928,3.07963 17.36222,-10.08257 17.36222,-10.08257l-27.67842,-6.45264c0,0 -2.11744,13.56445 10.3162,16.53521zM309.13227,111.82101c1.40199,0.32684 2.83261,-0.66975 3.19541,-2.22594c0.3628,-1.5562 -0.47964,-3.0827 -1.88161,-3.40954c-1.40199,-0.32684 -2.83261,0.66975 -3.19541,2.22594c-0.3628,1.5562 0.47964,3.0827 1.88161,3.40954zM295.4397,108.62888c1.40199,0.32684 2.83261,-0.66975 3.19541,-2.22594c0.3628,-1.5562 -0.47964,-3.0827 -1.88161,-3.40954c-1.40199,-0.32684 -2.83261,0.66975 -3.19541,2.22594c-0.3628,1.5562 0.47964,3.0827 1.88161,3.40954z" data-paper-data="{&quot;index&quot;:null}"/><g data-paper-data="{&quot;index&quot;:null}"><path d="M319.63396,147.64518l23.3863,-22.32767l38.9008,40.74521l-23.3863,22.32767z"/><path d="M348.74208,132.75872l8.19726,-7.8262l19.33531,20.25206l-8.19726,7.8262z"/><path d="M370.27157,175.34143c-6.72426,6.41986 -17.4312,6.11914 -23.91464,-0.67169c-6.48343,-6.79083 -6.28821,-17.50023 0.43606,-23.92009c6.72426,-6.41986 17.4312,-6.11914 23.91464,0.67169c6.48343,6.79083 6.28821,17.50023 -0.43606,23.92009z"/><path d="M367.2792,172.20719c-4.72695,4.51298 -12.2174,4.33952 -16.73038,-0.38743c-4.51298,-4.72695 -4.33952,-12.2174 0.38743,-16.73038c4.72695,-4.51298 12.2174,-4.33952 16.73038,0.38743c4.51298,4.72695 4.33952,12.2174 -0.38743,16.73038z"/></g></g></g></svg>