<svg version="1.1" xmlns="http://www.w3.org/2000/svg" xmlns:xlink="http://www.w3.org/1999/xlink" width="758.38023" height="844.55604" viewBox="0,0,758.38023,844.55604"><defs><linearGradient x1="308.96754" y1="206.76168" x2="661.03246" y2="441.23832" gradientUnits="userSpaceOnUse" id="color-1"><stop offset="0" stop-color="#1b2006" stop-opacity="0"/><stop offset="1" stop-color="#1b2006"/></linearGradient></defs><g transform="translate(-105.80989,98.27802)"><g data-paper-data="{&quot;isPaintingLayer&quot;:true}" stroke-linecap="butt" stroke-linejoin="miter" stroke-miterlimit="10" stroke-dasharray="" stroke-dashoffset="0" style="mix-blend-mode: normal"><path d="M457.87481,746.27802l-352.06492,-234.47664l406.31531,-610.0794l352.06492,234.47664z" fill="url(#color-1)" fill-rule="nonzero" stroke="none" stroke-width="0"/><g fill="#5485ae" fill-rule="nonzero" stroke="#34526c" stroke-width="3.5"><path d="M379.26834,61.21175c1.40463,-0.941 2.80312,-3.08648 4.25891,-3.76389c2.94774,-1.37166 7.43401,0.19965 7.90226,3.71113c0.39852,2.98853 -2.00609,4.15071 -3.64578,5.87833c-3.90484,4.11429 -9.07055,7.09798 -12.77197,11.51825c-0.69137,0.82564 -2.48227,2.79706 -4.13411,3.69091c-0.01444,0.28966 -0.02937,0.5792 -0.04478,0.8686c-0.25048,4.70239 0.61303,8.88162 -4.7769,10.28558c-0.52308,0.13624 -1.56852,0.69969 -2.01747,0.45755c-6.15246,-3.3182 -2.55404,-10.79264 -2.48474,-16.01768c0.06743,-5.08367 0.05748,-10.43438 -0.1043,-15.54086c-0.04386,-1.38491 -2.5774,-9.50712 1.40799,-9.8302c0.76758,-0.5272 1.69111,-0.8455 2.69081,-0.8708c2.44845,-0.06195 4.52924,1.65456 5.00911,3.97498c0.06731,0.19198 0.11079,0.3957 0.12644,0.61312c0.28165,3.90974 0.43673,7.85782 0.48139,11.81706c2.9581,-2.87357 6.12365,-5.46597 8.10313,-6.7921z"/><path d="M385.80614,98.22813c-3.35437,-5.63556 -5.94859,-12.03322 -9.25274,-17.79098c-0.89552,-1.56052 -3.82039,-4.45996 -3.32211,-6.49082c0.84683,-3.45149 3.26596,-4.50309 6.39786,-4.40817c2.37597,0.07202 4.60174,4.28141 5.53342,6.07353c2.6566,5.11001 5.45114,10.35699 8.60658,15.20168c0.96,1.47393 2.6473,6.05052 0.69703,7.2333c-0.83014,1.49393 -2.40482,2.52189 -4.23465,2.56819c-1.62245,0.04105 -3.08348,-0.69882 -4.02422,-1.87786c-0.15247,-0.14999 -0.28761,-0.31812 -0.40115,-0.50886z"/><path d="M404.48731,72.43537c1.27992,0.6903 3.02448,0.89435 4.02422,1.87787c0.15247,0.14999 0.28761,0.31812 0.40115,0.50886c2.62032,4.40232 0.28678,12.12519 0.05116,16.81122c-0.1835,3.64951 2.45626,9.77806 -4.40668,9.95171c-7.65907,0.19379 -5.13993,-15.855 -4.69076,-20.4677c0.16301,-1.67403 -1.3756,-5.04524 0.38626,-6.11376z"/><path d="M398.99304,65.57804c-0.06955,-2.75822 2.1062,-5.05067 4.85967,-5.12034c2.75347,-0.06967 5.04198,2.10983 5.11153,4.86805c0.06955,2.75822 -2.1062,5.05067 -4.85967,5.12034c-2.75347,0.06967 -5.04198,-2.10983 -5.11153,-4.86805z"/><path d="M435.36258,83.15563c-0.44049,0.09578 -0.82548,0.11536 -1.17344,0.08506c-1.08698,-0.01317 -2.09389,-0.37651 -2.91017,-0.9847c-0.21755,-0.05099 -0.44737,-0.08302 -0.69613,-0.08656c-4.53169,-0.0646 -6.35213,1.41184 -7.32012,6.02955c-0.67486,3.21936 4.29654,4.2525 6.26129,4.32285c1.16684,0.04177 1.98999,-1.74592 2.74605,-2.09206c3.1887,-1.45985 7.0879,0.2618 7.90226,3.71113c0.73077,3.0953 -2.00684,5.18138 -4.27619,6.34883c-5.53958,2.84977 -11.05438,2.36062 -16.39947,-0.71552c-10.03794,-5.77693 -6.60307,-22.91367 3.15295,-26.36685c2.23838,-0.79229 11.55727,-2.2971 12.9639,0.03028c0.83047,0.23559 1.57462,0.68185 2.16948,1.27881c1.27778,0.76983 1.63817,2.03949 1.45426,3.36499c0.00041,0.01254 0.00077,0.0251 0.00109,0.03766c0.05544,2.19887 -1.31608,4.10172 -3.26969,4.81837c-0.20398,0.10084 -0.40714,0.1749 -0.6061,0.21817z"/><path d="M463.39724,80.06505c3.01022,2.97001 13.5558,13.84578 6.21736,17.75638c-1.47907,0.78818 -3.42147,0.33809 -5.0237,-0.15224c-0.28846,-0.08828 -7.57026,-9.85043 -8.32314,-10.60752c-0.11108,-0.1117 -0.24074,-0.24774 -0.38,-0.40153c-0.24466,0.22201 -0.51156,0.42011 -0.79706,0.59054c0.01361,0.98022 -0.01961,1.936 -0.11883,2.85228c-0.39248,3.62454 0.24546,10.94244 -5.46301,11.08688c-3.78074,0.09566 -4.6936,-2.24699 -5.11153,-4.86806c-0.37495,-2.35147 1.00124,-5.00668 0.60427,-7.19506c-1.03665,-5.71455 -0.91934,-11.74352 -1.22768,-17.52908c-0.0867,-1.6268 -2.06772,-8.82388 -0.22645,-9.94055l4.23465,-2.56819c1.27992,0.6903 3.02448,0.89434 4.02422,1.87786c0.15247,0.14999 0.28761,0.31813 0.40116,0.50887c1.75528,2.949 1.44347,8.92908 1.59755,12.26665c2.65311,-2.98646 5.48255,-5.70206 7.02084,-6.68037c0.75883,-0.4826 4.8134,-0.45442 5.00963,-0.40611c2.00531,0.49371 3.47633,5.19503 2.24079,6.98116c-0.99328,1.43593 -2.82707,3.73665 -4.9542,6.07895c0.06877,0.08823 0.13467,0.17884 0.19753,0.27171c0.03126,0.0313 0.05728,0.05736 0.07762,0.07742z"/><path d="M474.06965,61.75538c-0.06955,-2.75822 2.1062,-5.05067 4.85967,-5.12034c2.75347,-0.06967 5.04198,2.10983 5.11153,4.86805c0.06955,2.75822 -2.1062,5.05067 -4.85967,5.12034c-2.75347,0.06967 -5.04198,-2.10983 -5.11153,-4.86805z"/><path d="M479.07796,69.12474c1.27992,0.6903 3.02448,0.89434 4.02422,1.87786c0.15247,0.14999 0.28761,0.31812 0.40115,0.50886c1.55799,2.61754 0.59238,5.89538 0.88271,8.63866c0.46789,4.42102 1.3751,8.77492 1.4903,13.3436c0.08946,3.54754 -4.04246,7.01511 -7.28441,5.26663c-0.71325,-0.38467 -2.66828,-3.1669 -2.89263,-4.11725c-0.62248,-2.63664 -0.0552,-5.41947 -0.17382,-8.12623c-0.15815,-3.60937 -0.99401,-7.31375 -1.27361,-10.93999c-0.07325,-0.94997 -0.19624,-3.40624 0.59144,-3.88395z"/><path d="M488.98833,71.50205c-0.03101,-0.20527 -0.0496,-0.41477 -0.05498,-0.6277c-0.01707,-0.67717 0.10119,-1.32626 0.3301,-1.92129c0.89121,-3.37963 3.09182,-4.00558 5.30478,-3.15886c1.20495,0.15695 2.27897,0.74638 3.05689,1.61099c1.09073,-0.56563 2.30787,-0.96961 3.6631,-1.17452c2.71132,-0.40993 3.73742,-1.31563 6.54699,-0.30438c1.78538,0.64262 4.29226,1.63889 5.39077,3.11734c0.99118,1.33402 1.66477,2.80319 2.42276,4.48634c1.53824,3.41578 0.76702,7.37271 1.23317,10.98508c0.48557,3.76275 1.82606,10.25969 -4.39354,10.41706c-7.14184,0.1807 -5.16682,-10.22516 -5.52539,-14.68577c-0.08812,-1.09625 -1.64589,-4.71549 -2.83391,-4.53614c-4.89382,0.7388 -5.52293,8.6007 -5.44141,12.69022c0.00947,0.47505 0.44778,5.16476 -0.54397,5.76624l-4.23465,2.56819c-1.27992,-0.6903 -3.02448,-0.89434 -4.02421,-1.87786c-0.15247,-0.15 -0.28761,-0.31812 -0.40115,-0.50886c-1.91693,-3.22057 -0.5206,-7.2702 -0.22779,-10.68266c0.05617,-0.65462 0.13095,-1.31721 0.22608,-1.98232c-1.21409,-3.19326 -0.97024,-7.74355 -0.49363,-10.1811z"/><path d="M524.18864,63.58648c3.50372,-6.19921 10.87203,-4.90229 16.32218,-2.07537c1.09247,0.56664 1.94833,1.19879 2.85612,1.83991c0.18209,-0.30527 0.41762,-0.53008 0.72117,-0.64004l3.67361,-1.75813c1.43767,0.96977 3.63675,1.3515 4.56574,2.71616c0.11707,0.17195 0.21396,0.35952 0.28663,0.56584c1.20113,3.41038 -0.34879,8.19075 -0.1494,11.76264c0.5046,9.03949 4.83571,21.50548 -5.32222,26.64392c-1.63227,0.82569 -3.8435,0.08974 -5.55575,0.11255c-6.07194,0.08091 -19.03614,-2.52969 -16.96589,-10.9675c0.12764,-0.52025 1.54106,-1.12857 1.95712,-1.37974c5.76956,-3.48312 6.43826,2.2851 12.00881,2.21495c1.11588,-0.01406 5.07482,1.07879 5.23391,-0.41675c0.15514,-1.45852 0.18451,-2.91143 0.13645,-4.36091c-5.7549,1.31796 -12.27865,0.11109 -16.54473,-3.74244c-5.29333,-4.78144 -7.3685,-13.18165 -3.22372,-20.51509zM531.31037,70.50248c-1.08594,9.59897 7.42867,8.16949 10.77762,8.08476c0.28427,-0.11818 0.58201,-0.21084 0.89046,-0.27506c-0.06071,-0.60497 0.29957,-4.55231 0.25511,-5.15805c-7.61099,-10.97123 -11.84598,-3.33407 -11.92318,-2.65166z"/></g><g fill="#5485ae" fill-rule="nonzero" stroke="#34526c" stroke-width="1.5"><path d="M377.63412,59.71175c1.40705,-0.941 2.80795,-3.08648 4.26625,-3.76389c2.95282,-1.37166 7.44683,0.19965 7.91588,3.71113c0.39921,2.98853 -2.00955,4.15071 -3.65206,5.87833c-3.91157,4.11429 -9.08619,7.09798 -12.79399,11.51825c-0.69256,0.82564 -2.48655,2.79706 -4.14124,3.69091c-0.01446,0.28966 -0.02942,0.5792 -0.04486,0.8686c-0.25091,4.70239 0.61409,8.88162 -4.78513,10.28558c-0.52398,0.13624 -1.57122,0.69969 -2.02095,0.45755c-6.16307,-3.3182 -2.55844,-10.79264 -2.48902,-16.01768c0.06755,-5.08367 0.05758,-10.43438 -0.10448,-15.54086c-0.04394,-1.38491 -2.58184,-9.50712 1.41042,-9.8302c0.7689,-0.5272 1.69403,-0.8455 2.69545,-0.8708c2.45267,-0.06195 4.53705,1.65456 5.01774,3.97498c0.06743,0.19198 0.11098,0.3957 0.12666,0.61312c0.28214,3.90974 0.43748,7.85782 0.48222,11.81706c2.9632,-2.87357 6.13421,-5.46597 8.1171,-6.7921z"/><path d="M384.18319,96.72813c-3.36015,-5.63556 -5.95884,-12.03322 -9.26869,-17.79098c-0.89706,-1.56052 -3.82698,-4.45996 -3.32784,-6.49082c0.84829,-3.45149 3.27159,-4.50309 6.40889,-4.40817c2.38007,0.07202 4.60967,4.28141 5.54296,6.07353c2.66118,5.11001 5.46054,10.35699 8.62142,15.20168c0.96165,1.47393 2.65186,6.05052 0.69823,7.2333c-0.83157,1.49393 -2.40897,2.52189 -4.24195,2.56819c-1.62525,0.04105 -3.0888,-0.69882 -4.03116,-1.87786c-0.15273,-0.14999 -0.28811,-0.31812 -0.40184,-0.50886z"/><path d="M402.89657,70.93537c1.28213,0.6903 3.02969,0.89435 4.03116,1.87787c0.15273,0.14999 0.28811,0.31812 0.40184,0.50886c2.62484,4.40232 0.28727,12.12519 0.05125,16.81122c-0.18382,3.64951 2.46049,9.77806 -4.41428,9.95171c-7.67227,0.19379 -5.14879,-15.855 -4.69885,-20.4677c0.16329,-1.67403 -1.37797,-5.04524 0.38693,-6.11376z"/><path d="M397.39282,64.07804c-0.06967,-2.75822 2.10983,-5.05067 4.86805,-5.12034c2.75822,-0.06967 5.05067,2.10983 5.12034,4.86805c0.06967,2.75822 -2.10983,5.05067 -4.86805,5.12034c-2.75822,0.06967 -5.05067,-2.10983 -5.12034,-4.86805z"/><path d="M433.82506,81.65563c-0.44125,0.09578 -0.8269,0.11536 -1.17546,0.08506c-1.08885,-0.01317 -2.0975,-0.37651 -2.91519,-0.9847c-0.21793,-0.05099 -0.44814,-0.08302 -0.69733,-0.08656c-4.5395,-0.0646 -6.36308,1.41184 -7.33274,6.02955c-0.67602,3.21936 4.30395,4.2525 6.27208,4.32285c1.16885,0.04177 1.99342,-1.74592 2.75078,-2.09206c3.1942,-1.45985 7.10012,0.2618 7.91588,3.71113c0.73203,3.0953 -2.0103,5.18138 -4.28356,6.34883c-5.54913,2.84977 -11.07344,2.36062 -16.42774,-0.71552c-10.05524,-5.77693 -6.61445,-22.91367 3.15839,-26.36685c2.24224,-0.79229 11.57719,-2.2971 12.98625,0.03028c0.8319,0.23559 1.57733,0.68185 2.17322,1.27881c1.27998,0.76983 1.64099,2.03949 1.45677,3.36499c0.00041,0.01254 0.00077,0.0251 0.00109,0.03766c0.05554,2.19887 -1.31835,4.10172 -3.27533,4.81837c-0.20433,0.10084 -0.40784,0.1749 -0.60714,0.21817z"/><path d="M461.90805,78.56505c3.01541,2.97001 13.57917,13.84578 6.22808,17.75638c-1.48162,0.78818 -3.42737,0.33809 -5.03236,-0.15224c-0.28896,-0.08828 -7.58331,-9.85043 -8.33749,-10.60752c-0.11127,-0.1117 -0.24115,-0.24774 -0.38066,-0.40153c-0.24508,0.22201 -0.51244,0.42011 -0.79843,0.59054c0.01363,0.98022 -0.01964,1.936 -0.11903,2.85228c-0.39316,3.62454 0.24588,10.94244 -5.47243,11.08688c-3.78726,0.09566 -4.70169,-2.24699 -5.12034,-4.86806c-0.3756,-2.35147 1.00297,-5.00668 0.60531,-7.19506c-1.03844,-5.71455 -0.92092,-11.74352 -1.2298,-17.52908c-0.08685,-1.6268 -2.07128,-8.82388 -0.22684,-9.94055l4.24195,-2.56819c1.28213,0.6903 3.02969,0.89434 4.03116,1.87786c0.15273,0.14999 0.28811,0.31813 0.40185,0.50887c1.75831,2.949 1.44596,8.92908 1.6003,12.26665c2.65768,-2.98646 5.492,-5.70206 7.03294,-6.68037c0.76014,-0.4826 4.8217,-0.45442 5.01827,-0.40611c2.00877,0.49371 3.48232,5.19503 2.24465,6.98116c-0.99499,1.43593 -2.83194,3.73665 -4.96274,6.07895c0.06889,0.08823 0.1349,0.17884 0.19787,0.27171c0.03131,0.0313 0.05738,0.05736 0.07775,0.07742z"/><path d="M472.59885,60.25539c-0.06967,-2.75822 2.10983,-5.05067 4.86805,-5.12034c2.75822,-0.06967 5.05067,2.10983 5.12034,4.86805c0.06967,2.75822 -2.10983,5.05067 -4.86805,5.12034c-2.75822,0.06967 -5.05067,-2.10983 -5.12034,-4.86805z"/><path d="M477.6158,67.62474c1.28213,0.6903 3.02969,0.89434 4.03116,1.87786c0.15273,0.14999 0.28811,0.31812 0.40184,0.50886c1.56068,2.61754 0.5934,5.89538 0.88423,8.63866c0.4687,4.42102 1.37747,8.77492 1.49287,13.3436c0.08961,3.54754 -4.04943,7.01511 -7.29697,5.26663c-0.71448,-0.38467 -2.67288,-3.1669 -2.89762,-4.11725c-0.62355,-2.63664 -0.0553,-5.41947 -0.17412,-8.12623c-0.15842,-3.60937 -0.99572,-7.31375 -1.27581,-10.93999c-0.07338,-0.94997 -0.19658,-3.40624 0.59246,-3.88395z"/><path d="M487.54325,70.00205c-0.03106,-0.20527 -0.04969,-0.41477 -0.05507,-0.6277c-0.0171,-0.67717 0.10136,-1.32626 0.33067,-1.92129c0.89275,-3.37963 3.09715,-4.00558 5.31392,-3.15886c1.20703,0.15695 2.2829,0.74638 3.06216,1.61099c1.09261,-0.56563 2.31185,-0.96961 3.66941,-1.17452c2.71599,-0.40993 3.74386,-1.31563 6.55828,-0.30438c1.78846,0.64262 4.29966,1.63889 5.40006,3.11734c0.99289,1.33402 1.66764,2.80319 2.42694,4.48634c1.54089,3.41578 0.76834,7.37271 1.2353,10.98508c0.48641,3.76275 1.82921,10.25969 -4.40111,10.41706c-7.15415,0.1807 -5.17573,-10.22516 -5.53491,-14.68577c-0.08827,-1.09625 -1.64873,-4.71549 -2.8388,-4.53614c-4.90226,0.7388 -5.53245,8.6007 -5.45079,12.69022c0.00949,0.47505 0.44855,5.16476 -0.54491,5.76624l-4.24195,2.56819c-1.28213,-0.6903 -3.02969,-0.89434 -4.03115,-1.87786c-0.15273,-0.15 -0.28811,-0.31812 -0.40184,-0.50886c-1.92023,-3.22057 -0.5215,-7.2702 -0.22818,-10.68266c0.05627,-0.65462 0.13118,-1.31721 0.22647,-1.98232c-1.21618,-3.19326 -0.97191,-7.74355 -0.49448,-10.1811z"/><path d="M522.80424,62.08648c3.50976,-6.19921 10.89077,-4.90229 16.35032,-2.07537c1.09435,0.56664 1.95169,1.19879 2.86104,1.83991c0.1824,-0.30527 0.41834,-0.53008 0.72241,-0.64004l3.67994,-1.75813c1.44015,0.96977 3.64302,1.3515 4.57361,2.71616c0.11727,0.17195 0.21433,0.35952 0.28712,0.56584c1.2032,3.41038 -0.34939,8.19075 -0.14966,11.76264c0.50547,9.03949 4.84405,21.50548 -5.33139,26.64392c-1.63508,0.82569 -3.85013,0.08974 -5.56533,0.11255c-6.08241,0.08091 -19.06896,-2.52969 -16.99514,-10.9675c0.12786,-0.52025 1.54372,-1.12857 1.96049,-1.37974c5.77951,-3.48312 6.44936,2.2851 12.02951,2.21495c1.1178,-0.01406 5.08357,1.07879 5.24293,-0.41675c0.15541,-1.45852 0.18483,-2.91143 0.13669,-4.36091c-5.76482,1.31796 -12.29982,0.11109 -16.57325,-3.74244c-5.30245,-4.78144 -7.3812,-13.18165 -3.22928,-20.51509zM529.93825,69.00248c-1.08781,9.59897 7.44148,8.16949 10.7962,8.08476c0.28476,-0.11818 0.58301,-0.21084 0.892,-0.27506c-0.06081,-0.60497 0.30009,-4.55231 0.25555,-5.15805c-7.62411,-10.97123 -11.8664,-3.33407 -11.94373,-2.65166z"/></g><g fill-rule="evenodd" stroke="#7d7d7d" stroke-width="1.5"><path d="M275.29693,49.59386c1.05472,-0.6409 4.72098,2.02675 5.2362,2.61353c0.61597,0.70198 0.84228,2.83329 1.01285,9.54351c0.21381,8.40145 0.16478,8.28609 2.7146,6.37054c8.34698,-6.2709 12.88291,-1.66415 13.22666,13.43323c0.23246,10.20583 -0.52565,12.20403 -4.73087,12.46822c-3.31775,0.20841 -7.11724,-1.60431 -7.49335,-4.60911c-0.17061,-1.36305 2.45044,-1.67512 2.48109,-4.42775c0.06645,-5.95036 0.02244,-6.31005 -0.88198,-7.24345c-2.06936,-2.13509 -4.21377,2.44858 -4.34443,9.2868c-0.08196,4.28042 -0.27012,5.44367 -1.01181,6.25489c-0.80579,0.88142 -4.1769,1.17321 -6.49494,0.35021c-2.29931,-0.81634 -3.54658,-2.73987 -4.1218,-3.74356c-0.53155,-0.92748 2.06026,-1.20559 2.25182,-1.86461c0.04857,-0.16701 0.09908,-3.84543 0.11237,-8.17417c0.02586,-8.38059 0.11895,-11.0804 0.62301,-18.0701c0.46417,-6.43693 1.04197,-8.30182 2.92691,-9.44686M342.38967,50.81211c0.94217,-0.67422 6.38615,1.58337 7.09907,2.24993c0.52369,0.48963 0.76329,5.60621 0.53727,11.46599c-0.06161,1.59288 -0.29032,7.53577 -0.50859,13.20642c-0.48429,12.58548 -0.61785,14.44319 -1.12605,15.66457c-1.44191,3.46531 -7.37422,4.11483 -8.46037,0.14455c-0.32574,-1.19105 1.70262,-2.63081 0.43584,-1.43569c-7.12212,6.71969 -17.55666,3.46062 -17.11665,-8.07028c0.41352,-10.83843 10.74253,-18.37517 17.19986,-13.94512l1.3022,0.89326l0.01544,-1.33103c0.12821,-11.12548 -0.96392,-13.87934 0.57581,-14.98124M312.4398,49.25885c1.4207,-0.67444 6.72502,2.52654 7.46317,4.00258c2.13612,4.27128 3.73037,29.99349 2.37484,38.3145c-0.46738,2.86868 -1.26733,3.46379 -4.80334,3.57277c-3.77201,0.11639 -7.6587,-1.22159 -7.58275,-5.49782c0.02698,-1.52836 3.26195,-4.46068 3.30781,-7.17287c0.04613,-2.71221 0.24824,-7.97738 0.44932,-11.70039c0.20108,-3.723 0.41878,-8.58206 0.48331,-10.79796c0.16754,-5.73649 0.58126,-7.59607 1.82071,-8.18463M257.61981,51.69235c2.37468,-0.65948 2.0719,-2.55883 4.14144,-1.06057c6.6787,2.53204 7.82946,11.57663 3.71459,14.02476c-0.84912,0.50522 -1.57945,0.52164 -3.79253,0.08538l-1.76991,-0.3485l-1.02448,0.60252c-2.72802,1.60498 -5.42265,8.01579 -5.30624,12.62452c0.1273,5.03986 2.34337,7.67323 6.37636,7.57743c2.18475,-0.05201 2.46781,-0.15984 5.17538,-1.9732c2.16909,-1.45285 4.04643,-1.03096 5.15879,1.15925c1.34184,2.64214 -1.1887,7.15803 -5.33324,9.51835l-1.64205,0.93522l-3.54619,0.17001c-4.82402,0.2315 -8.72117,-1.06543 -12.26792,-4.3457c-10.81437,-8.68805 -4.50694,-36.39772 7.9422,-38.55898c1.02084,-0.1771 1.9991,-0.3618 2.17383,-0.4105M299.63924,55.50058c2.36026,-0.76587 7.36221,2.71953 7.22334,5.44362c-0.10559,2.06735 -1.35997,3.39524 -3.25291,3.44305c-0.99857,0.02522 -5.25918,-2.48676 -5.7415,-3.34321c-1.05458,-1.87257 2.73055,-3.08547 4.83381,-3.76794M299.59136,65.27072c2.12101,-1.25576 7.95443,2.53252 8.70566,6.63653c0.88822,4.85225 0.67354,18.46527 -0.32207,20.433c-1.16396,2.30037 -8.03058,0.95346 -9.158,-1.27369c-0.28592,-0.5645 2.97328,-0.70189 2.79315,-9.09985c-0.27121,-12.63728 -2.53296,-12.92107 -0.79963,-13.94744M337.91313,77.1452c-1.8709,-1.10631 -2.77952,-0.60307 -2.96751,1.64371c-0.18264,2.18357 0.95573,3.72533 2.52021,3.41325c2.17297,-0.43362 2.47572,-3.85742 0.4473,-5.05697" fill="#7d7d7d"/><path d="M273.55698,50.10104c1.02228,-0.64008 3.11673,-0.71207 3.6168,-0.12492c0.59784,0.70244 0.81894,2.83387 0.98946,9.5441c0.21376,8.40145 0.16612,8.28606 2.63725,6.37249c8.08936,-6.2644 12.49142,-1.65427 12.83631,13.44308c0.23322,10.20582 -0.50039,12.2034 -4.57803,12.46436c-4.67643,0.29925 -4.95583,-0.22 -4.86737,-9.04051c0.05987,-5.95019 0.01694,-6.30991 -0.86078,-7.24399c-2.00832,-2.13663 -4.08426,2.44531 -4.20574,9.2833c-0.07621,4.28028 -0.25777,5.44335 -0.97639,6.254c-1.55511,1.75444 -6.04208,1.31515 -7.16377,-0.70124c-0.51616,-0.92787 -1.13706,-3.90418 -0.9518,-4.56304c0.04697,-0.16697 0.09314,-3.84528 0.10273,-8.17393c0.01865,-8.38041 0.10687,-11.08009 0.59031,-18.06928c0.44519,-6.43645 1.00405,-8.30086 2.83103,-9.44445M339.03897,50.43353c0.91311,-0.67348 4.60354,-0.68771 5.29537,-0.02063c0.50821,0.49002 0.74448,5.6067 0.52977,11.46619c-0.05853,1.59281 -0.27577,7.53541 -0.48308,13.20578c-0.45999,12.58487 -0.58809,14.44243 -1.07996,15.6634c-1.39558,3.46414 -5.23307,2.67108 -6.28935,-1.29996c-0.31678,-1.19128 -0.2656,-1.19141 -1.4931,0.0027c-6.90125,6.71411 -13.29715,1.96334 -12.8793,-9.56698c0.39269,-10.8379 6.67801,-16.88285 12.94314,-12.44794l1.26344,0.89424l0.01395,-1.331c0.11582,-11.12517 0.68685,-15.46511 2.1791,-16.56581M311.52037,49.5909c1.37715,-0.67334 3.11463,-0.00721 3.83155,1.46938c2.07469,4.27284 3.64031,29.99576 2.33223,38.31558c-0.45104,2.86826 -1.22631,3.46275 -4.65512,3.56902c-3.65767,0.1135 -4.34823,-0.68757 -4.27786,-4.96367c0.025,-1.52831 0.08031,-4.99793 0.12271,-7.71006c0.04266,-2.71212 0.23462,-7.97704 0.42676,-11.69982c0.19214,-3.72278 0.39954,-8.58157 0.46041,-10.79737c0.15808,-5.73625 0.55784,-7.59548 1.75931,-8.18308M254.95799,49.59788c2.30224,-0.65765 6.25529,0.11484 8.2633,1.61465c3.69695,2.76175 3.35307,8.91036 -0.6353,11.35528c-0.82303,0.50456 -1.53121,0.52042 -3.67758,0.08248l-1.71658,-0.34985l-0.993,0.60173c-2.64417,1.60286 -5.25226,8.01149 -5.13585,12.62022c0.1273,5.03986 2.27825,7.67487 6.18901,7.58217c2.11852,-0.05034 2.39293,-0.15795 5.01711,-1.9692c2.10228,-1.45117 3.92308,-1.02785 5.00343,1.16317c1.30323,2.64312 -1.14721,7.15698 -5.16441,9.51409l-1.59159,0.93395l-3.43864,0.16729c-4.67772,0.22781 -7.18886,-0.48649 -10.05025,-2.85763c-10.49346,-8.69616 -6.2477,-37.89784 5.82271,-40.04953c0.98978,-0.17632 1.93827,-0.36027 2.10766,-0.40883M298.67502,55.06171c2.28818,-0.76405 4.16995,0.94726 4.03738,3.67121c-0.10082,2.06722 -1.31618,3.39414 -3.15174,3.4405c-3.08545,0.07793 -3.85725,-6.11945 -0.88564,-7.1117M299.18923,64.66325c2.05581,-1.25411 4.19095,0.92908 4.92255,5.03359c0.86502,4.85284 0.66727,18.46543 -0.29667,20.43236c-1.12694,2.29944 -4.54455,2.40949 -5.63952,0.18151c-0.27769,-0.56471 -0.35939,-2.16179 -0.54049,-10.55973c-0.27266,-12.63724 -0.1259,-14.06272 1.55413,-15.08774M333.04084,77.42266c-1.81507,-1.10772 -2.6958,-0.60518 -2.87637,1.64141c-0.17544,2.18339 0.92963,3.72598 2.44648,3.41511c2.10681,-0.43195 2.39778,-3.85545 0.42989,-5.05653" fill="#ffffff"/></g><path d="M377.32028,66.80025c0.18927,-0.08901 2.2736,-1.00866 3.34027,1.12468c1.11803,2.23607 -1.11803,3.3541 -1.11803,3.3541c-0.82808,0.4118 -1.60824,0.89012 -2.37938,1.35989c-0.36899,1.87801 -1.69713,2.94574 -3.30183,3.61102l0.01454,0.02908l-3.28835,1.64417c-0.34741,0.18291 -0.74312,0.28642 -1.16302,0.28642c-1.38071,0 -2.5,-1.11929 -2.5,-2.5c0,-0.22872 0.03071,-0.45026 0.08824,-0.66073l0.65307,-2.61228l0.56311,0.14078l0.09448,-1.30221c0.47156,-0.16273 0.9243,-0.33586 1.363,-0.51768c0.50716,-1.41732 2.38917,-2.11569 3.49776,-3.2185l1.97854,-0.81725c0,0 1.15209,-0.46083 2.15761,0.07848z" fill="#5485ae" fill-rule="nonzero" stroke="none" stroke-width="0.5"/><g fill="#8f8ba9" fill-rule="nonzero" stroke="#34333d"><path d="M319.33744,128.74542c-0.37618,-0.35576 -0.66374,-0.89958 -0.66374,-1.73096c0,-2.40379 2.4038,-2.4038 2.4038,-2.4038l2.47275,1.64365c1.29056,3.90646 3.29812,6.22193 6.98899,7.99728c0.56684,0.27266 1.00038,0.89525 1.62634,0.95705c0.76623,0.07564 1.47659,-0.45475 2.237,-0.57564c1.84501,-0.29331 6.19705,-1.03569 6.90479,-3.41036c0.42419,-1.42326 -0.3801,-4.64806 -0.86232,-6.05966c-1.13277,-1.75302 -2.14435,-3.41524 -3.93266,-4.58509c-1.17234,-0.76691 -2.71493,-0.69225 -4.0736,-1.03364c-4.51961,-1.13561 -9.35188,-4.17214 -8.94275,-9.33388c0.08983,-1.13338 0.48016,-2.24711 0.98676,-3.26494c2.9544,-5.93574 12.16252,-7.57534 17.48256,-4.27736c1.88259,1.16706 3.55495,2.86483 4.54787,4.84478c0.30248,0.60317 0.82937,1.22991 1.01116,1.86943c0.20562,0.34112 0.287,0.62596 0.287,0.62596l0.75397,2.63887c0.07002,0.22549 0.10773,0.46523 0.10773,0.71377c0,1.32758 -1.07622,2.4038 -2.4038,2.4038c-1.01957,0 -1.89089,-0.63477 -2.24031,-1.53068l-0.9401,-2.25623l0.00927,-0.00387c-0.00729,-0.00894 -0.01456,-0.0179 -0.02181,-0.02686c-1.93367,-2.3899 -1.61871,-5.23813 -5.31883,-6.26547c-2.52362,-0.70069 -7.87969,0.95849 -8.93169,3.32573c-0.09203,0.20708 -0.90354,2.35319 -0.59169,2.90746c1.43966,2.5588 5.6499,2.49212 7.90782,3.16792c4.13563,1.2378 6.48137,4.57819 8.64407,8.01414c0.80785,2.45781 2.00341,7.14814 1.06072,9.70925c-1.55084,4.21335 -6.94093,6.08319 -10.78717,6.58944c-1.18284,0.15569 -2.34735,0.71853 -3.53212,0.57819c-1.08572,-0.1286 -1.98965,-0.90705 -2.98895,-1.3506c-4.60776,-2.04516 -7.45824,-5.31841 -9.20107,-9.87767z" stroke-width="4"/><path d="M356.14373,109.01295c-2.38271,-0.3177 -2.06502,-2.7004 -2.06502,-2.7004l0.4466,-3.19336c0.35445,-0.86857 0.7089,-1.73712 1.06335,-2.60569c0,0 0.92454,-2.21889 3.14343,-1.29435c2.21889,0.92454 1.29435,3.14343 1.29435,3.14343c-0.28656,0.66987 -0.57313,1.33973 -0.85969,2.00961l-0.32261,2.57576c0,0 -0.31769,2.38271 -2.7004,2.06501z" stroke-width="4"/><path d="M356.74056,134.62446c0.02879,0.00497 0.05758,0.00962 0.08638,0.01394zM351.49588,133.52127c0.78621,-3.51132 0.40263,-8.08014 0.64399,-11.47362c0.07526,-1.05817 0.23338,-2.11029 0.41803,-3.15495c0.1169,-0.66137 0.18949,-1.34687 0.40806,-1.97958c-0.18929,0.00925 -2.39211,0.06733 -2.556,-2.22717c-0.17127,-2.39769 2.22643,-2.56895 2.22643,-2.56895c1.50053,0.14872 3.40713,-0.59111 4.5016,0.44614c1.87489,1.77688 0.50844,5.20315 0.15011,7.18873c-0.59884,3.31837 -0.80386,6.88432 -0.92434,10.23282c-0.01365,0.3792 -0.18413,2.8076 -0.344,4.45778c0.21467,0.06887 0.42958,0.12694 0.64462,0.16811c0.17286,0.00351 2.39315,0.09344 2.39315,2.40366c0,2.4038 -2.4038,2.4038 -2.4038,2.4038l-0.55782,-0.02796c-1.18054,-0.18542 -2.16699,-0.20743 -2.91653,-0.41328c-0.08361,0.08819 -0.16558,0.17746 -0.24542,0.26818l-1.13381,-0.44358l-0.07941,0.59555l-2.85132,-0.38018c-1.19351,-0.1407 -2.11935,-1.15581 -2.11935,-2.38715c0,-1.10055 0.73961,-2.02835 1.74888,-2.3135l2.44795,-0.75321l0.05169,0.16799c0.16219,-0.07712 0.32775,-0.14738 0.49727,-0.20965z" stroke-width="4"/><path d="M405.01816,137.59115c0,2.4038 -2.4038,2.4038 -2.4038,2.4038l-0.95358,-0.00708c-2.72065,-0.23804 -4.82317,-1.17064 -7.48869,-1.5593c0,0 -2.37584,-0.36551 -2.01033,-2.74136c0.36551,-2.37584 2.74136,-2.01033 2.74136,-2.01033c0.64058,0.10265 1.2506,0.24022 1.84553,0.39105c-0.00131,-1.30592 -0.00307,-4.90861 0.03149,-5.13088c0.40244,-2.58781 1.47367,-4.96069 1.50748,-7.67064c0.02038,-1.63328 -0.46698,-4.41669 -2.22847,-5.13296c-0.9382,-0.3815 -4.29546,-0.0422 -4.70699,-0.00008c-1.51336,0.15488 -3.04353,0.74054 -4.2467,1.67148c0,0 -0.20191,0.14684 -0.52291,0.2808c0.12475,3.93106 -0.94679,8.40124 -1.82156,12.07974l2.01568,0.57859c0,0 2.23187,0.89275 1.33912,3.12462c-0.89275,2.23187 -3.12462,1.33912 -3.12462,1.33912l-0.66478,-0.62523c-1.71843,0.26322 -3.44778,0.4633 -5.18105,0.59779c0,0 -2.39672,0.18435 -2.58109,-2.21237c-0.18436,-2.39672 2.21236,-2.58107 2.21236,-2.58107c0.33813,-0.02577 0.6761,-0.05432 1.01384,-0.08563c0.98846,-4.15241 2.76906,-10.24886 1.66154,-14.37565c-1.34696,-5.01899 -7.78987,-4.97232 -10.8821,-1.96095c-0.27411,4.34551 -2.25807,8.55427 -2.61504,12.80931c0.3062,0.3537 0.52555,0.86049 0.52555,1.58666c0,0.17804 -0.01318,0.34289 -0.03761,0.49554l0.51836,-0.01477c0,0 2.4038,0 2.4038,2.4038c0,2.4038 -2.4038,2.4038 -2.4038,2.4038l-1.71164,-0.02796c-1.59379,-0.25006 -3.21342,-0.36115 -4.82669,-0.35666c0,0 -2.4038,0 -2.4038,-2.4038c0,-2.4038 2.4038,-2.4038 2.4038,-2.4038c0.2681,0.00066 0.53632,0.00392 0.80455,0.00988l-0.13149,-0.10604c0.06819,-4.3399 1.73982,-8.31615 2.54512,-12.57894c0.15502,-0.82055 0.11212,-1.6665 0.14847,-2.50076c0.02827,-0.64908 0.0005,-1.30039 0.04535,-1.94853c0.01709,-0.24694 0.38236,-0.67921 0.13995,-0.72929c-0.38822,-0.0802 -0.70663,0.3595 -1.05994,0.53924c0,0 -2.39672,0.18436 -2.58108,-2.21236c-0.18436,-2.39672 2.21236,-2.58108 2.21236,-2.58108c1.31333,0.05154 2.84963,-0.57927 3.93997,0.15463c0.80542,0.54214 1.31443,1.26024 1.63283,2.06241c5.46635,-2.73118 12.7063,-1.53226 15.41747,4.56078c1.6236,-0.91291 3.43463,-1.54414 5.2637,-1.7691c1.27693,-0.15705 2.56948,-0.27383 3.85422,-0.20536c1.13605,0.06054 2.33631,0.09694 3.36162,0.58989c7.37046,3.54352 4.49787,11.99982 3.5097,17.96504c-0.26188,1.58088 0.03103,3.20475 0.03103,4.80716l-0.08121,0.63256c0.18232,0.01983 0.36686,0.03587 0.55403,0.04758l0.58486,-0.00708c0,0 2.4038,0 2.4038,2.4038z" stroke-width="4"/><path d="M431.82453,135.20343c0,2.4038 -2.40381,2.4038 -2.40381,2.4038l0.34822,-0.06157c-1.41353,0.10581 -3.02319,1.04352 -4.2406,0.31746c-0.6939,-0.41383 -1.21376,-1.60271 -1.60625,-2.91142c-1.22445,0.45197 -2.57325,0.67302 -3.68177,0.88515c-3.99168,0.76386 -9.13434,1.71438 -12.13696,-2.03865c-2.13884,-2.67336 -1.29396,-6.34918 -1.07902,-9.35478c0.26361,-3.68635 0.83491,-7.04511 1.60828,-10.55966c0.14987,-0.68107 -1.39079,-0.13781 -2.08811,-0.12929c0,0 -2.39672,-0.18436 -2.21236,-2.58108c0.18436,-2.39672 2.58108,-2.21236 2.58108,-2.21236c1.10668,0.13505 2.35696,-0.15651 3.32003,0.40514c1.29701,0.7564 2.58064,1.88651 3.05324,3.31165c0.39592,1.1939 -0.55841,2.4563 -0.72717,3.70276c-0.38262,2.82592 -0.53958,5.60036 -0.74142,8.42943c-0.11228,1.57368 -1.05768,4.5379 0.0748,6.02954c1.47667,1.94499 5.67939,0.58874 7.47804,0.269c1.16147,-0.20648 2.70775,0.01567 3.4151,-0.92842c1.1668,-1.5573 0.578,-5.61308 0.57729,-7.28414c0,-2.35425 0.00748,-4.67666 0.11794,-7.01741c-0.86059,-0.36588 -1.46407,-1.21905 -1.46407,-2.21317c0,-1.32758 1.07622,-2.4038 2.4038,-2.4038c0.06304,0 0.12553,0.00243 0.18735,0.00719c0.06585,-0.02681 0.13459,-0.05223 0.20633,-0.07614c2.28044,-0.76015 3.04058,1.5203 3.04058,1.5203l0.50264,2.07387c-0.1823,2.71507 -0.18699,5.38899 -0.18699,8.10918c-0.0009,2.26181 0.25033,5.11988 -0.37021,7.5698c0.26944,1.86071 -0.28969,3.69195 0.88737,2.39541l0.73281,-0.06156c0,0 2.40381,0 2.40381,2.4038z" stroke-width="4"/><path d="M446.13713,137.90925c-1.16739,2.1013 -3.26868,0.93391 -3.26868,0.93391l-0.74772,-0.66609c-1.82624,-0.16105 -3.68289,0.14194 -5.47415,0.53243c0,0 -2.35224,0.49521 -2.84744,-1.85703c-0.49521,-2.35224 1.85702,-2.84744 1.85702,-2.84744c0.30833,-0.063 0.61797,-0.12338 0.92868,-0.18025c0.05765,-0.17102 0.10877,-0.27326 0.10877,-0.27326l-0.02753,0.25847c0.00125,-0.00023 0.00251,-0.00045 0.00375,-0.00068c1.00416,-6.83396 3.08759,-13.36833 3.62307,-20.3272c0.14084,-1.83037 0.1728,-3.69766 0.65977,-5.46768c0.18129,-0.65896 0.33163,-1.34166 0.63443,-1.95271c-0.51488,-0.04446 -2.26271,-0.34637 -2.26271,-2.39612c0,-2.40379 2.4038,-2.4038 2.4038,-2.4038c1.41973,0.25523 3.33254,-0.33976 4.2592,0.76572c2.22921,2.6594 -0.61395,6.70034 -0.90933,9.40993c-0.4735,4.3435 -0.5678,8.71677 -1.37142,13.05299c-0.55646,3.00256 -1.53435,5.87205 -2.0889,8.85605c0.2909,0.00515 0.58154,0.0173 0.87171,0.03714l2.71376,1.25693c0,0 2.10129,1.16738 0.93391,3.26868z" stroke-width="4"/><path d="M478.24675,136.76253c-0.52145,2.34655 -2.86801,1.8251 -2.86801,1.8251l-1.96942,-0.45072c-1.21468,-0.62461 -2.98132,-0.67952 -3.64408,-1.87383c-0.18957,-0.34162 -0.25821,-0.71067 -0.25594,-1.09538c-2.95758,1.58947 -6.69063,1.85546 -10.33159,1.54706c-2.68781,-0.22768 -3.84441,-0.01219 -6.16347,-1.89732c-4.77602,-3.8824 -6.87641,-10.91363 -5.00022,-16.74178c0.86607,-2.69035 2.56323,-4.61416 4.53272,-6.37167c-0.03505,-0.25232 -0.03221,-0.53689 0.02125,-0.85759c0.39518,-2.37109 2.76628,-1.97591 2.76628,-1.97591l0.75864,0.1596c1.89579,0.00112 3.80307,-0.40455 5.68474,-0.17348c3.71918,0.45672 7.41299,2.36721 9.94891,5.19152c0.00212,-0.00465 0.00424,-0.00932 0.00639,-0.01396c1.9229,-4.17943 3.14392,-3.29315 6.65929,-3.26625c0,0 2.39672,0.18435 2.21236,2.58107c-0.18436,2.39672 -2.58108,2.21236 -2.58108,2.21236c-3.18535,-0.79989 -1.3313,2.32537 -1.25965,4.43505c0.03643,1.0726 -0.40652,4.95822 -0.66122,5.9207c-0.19884,0.75141 -0.76774,1.37995 -0.92217,2.14174c-0.33087,1.63225 0.16429,3.40817 -0.38106,4.98181c-0.13213,0.38128 -0.93636,0.47868 -0.841,0.87079c0.08094,0.3328 0.64748,-0.22359 0.97121,-0.33539l1.49205,0.31849c0,0 2.34655,0.52146 1.8251,2.86801zM457.4487,113.8489c-0.01668,0.01474 -0.02594,0.02231 -0.02594,0.02231c-1.82834,1.48815 -4.08276,3.12462 -4.78922,5.53596c-1.28419,4.38325 0.17469,8.62514 3.46115,11.71921c0.99321,0.93507 2.23304,0.71301 3.45173,0.79493c5.14306,0.34571 10.2257,-0.2285 10.49003,-6.53495c-0.00094,-1.49185 0.31433,-3.00919 0.03888,-4.47539c-1.14704,-6.1055 -7.48388,-6.96412 -12.62661,-7.06208z" stroke-width="4"/><path d="M492.72677,136.04877c0,2.4038 -2.4038,2.4038 -2.4038,2.4038l-1.65748,-0.05336c-0.15367,-0.03379 -0.30779,-0.06615 -0.46229,-0.09703c-0.94125,0.6062 -2.10183,0.21933 -2.10183,0.21933l-0.44904,-0.58126c-0.55787,-0.04546 -1.1171,-0.06791 -1.67537,-0.06459c0,0 -2.4038,0 -2.4038,-2.4038c0,-2.4038 2.4038,-2.4038 2.4038,-2.4038c0.10378,0.00051 0.20759,0.00166 0.3114,0.00345c0.48581,-3.51717 0.89894,-7.05261 1.55623,-10.54003c0.45473,-2.41274 1.53848,-4.43453 1.86115,-6.83416c-0.53964,-0.00905 -1.08035,0.00843 -1.62137,0.05631c0,0 -2.39672,0.18436 -2.58109,-2.21236c-0.18436,-2.39672 2.21237,-2.58108 2.21237,-2.58108c0.76033,-0.05182 1.51336,-0.0635 2.26053,-0.03943c0.06446,-2.28656 0.15369,-4.53362 0.80473,-6.8779c0,0 0.66037,-2.31131 2.97168,-1.65093c2.31131,0.66037 1.65093,2.97168 1.65093,2.97168c-0.60947,2.05951 -0.66378,4.09723 -0.6895,6.16164c1.32181,0.28522 2.63429,0.65719 3.94594,1.08965l0.69947,0.32273c0,0 2.15003,1.07501 1.07502,3.22503c-1.07501,2.15003 -3.22503,1.07501 -3.22503,1.07501l-0.06974,-0.06189c-0.88144,-0.29759 -1.77589,-0.5699 -2.67975,-0.79759c-0.3792,2.49813 -1.43699,4.54136 -1.88919,7.03455c-0.61136,3.37071 -1.02936,6.77328 -1.49936,10.16548c0.20099,0.03813 0.40149,0.07819 0.60148,0.1201l0.65015,-0.05336c0,0 2.4038,0 2.4038,2.4038z" stroke-width="4"/><path d="M509.27503,113.21362c-2.26386,2.68606 -5.11561,5.87579 -5.01168,9.66938c0.05544,2.02356 1.69225,5.54566 2.00796,6.23136c0.44457,0.96558 2.56639,1.59779 3.16952,1.88329c5.53524,2.62012 11.0266,2.30009 14.34405,-3.50995c0.11102,-2.41384 0.54741,-6.05723 -0.87325,-8.22191c-0.87239,-1.32928 -4.20605,-4.61966 -4.81875,-5.02054c-1.54539,-1.01112 -4.72307,-0.60115 -6.42418,-0.59989h-0.96152c0,0 -0.76521,-0.00001 -1.43216,-0.43174zM509.0155,109.4663c0.70878,-0.62852 1.69169,-0.62852 1.69169,-0.62852h0.96152c2.85783,0.00195 6.39482,-0.23922 8.96013,1.32314c1.00329,0.61104 2.59809,1.6859 3.39929,2.545c1.26517,1.35661 1.95299,2.39929 2.93559,3.97269c2.20156,3.52523 1.77476,8.28172 1.4344,12.1623c-1.51596,2.8417 -3.36556,5.60651 -6.32769,7.19173c-4.86935,2.60591 -10.04835,1.56212 -14.71218,-0.70188c-2.39445,-1.16236 -3.79706,-1.37673 -5.29185,-3.88582c-0.48936,-0.8214 -0.9278,-1.89283 -1.28596,-2.77934c-0.74688,-1.8487 -0.46355,-3.80479 -0.55215,-5.79669c-0.23276,-5.23254 7.00967,-14.71903 8.78723,-13.40261z" stroke-width="4"/><path d="M538.62765,136.27567c-1.58242,-0.37026 -3.2016,-0.60266 -4.82295,-0.71377c0,0 -0.34618,-0.02473 -0.76605,-0.18693c-0.32645,0.00072 -0.65484,0.00072 -0.98572,0.00072c0,0 -2.4038,0 -2.4038,-2.4038c0,-2.4038 2.4038,-2.4038 2.4038,-2.4038c1.01257,0 1.99795,0.00529 2.97632,-0.01405l0.40443,-1.70023c-0.02699,-4.2296 -0.00991,-8.42592 -0.01544,-12.61235c-0.00112,-0.85108 0.19442,-1.69457 0.38472,-2.5241c0.08486,-0.36988 0.71083,-0.79051 0.43563,-1.05182c-0.26417,-0.25084 -0.611,0.39681 -0.91651,0.59522c0,0 -2.40379,-0.00001 -2.40379,-2.4038c0,-2.40379 2.40379,-2.40379 2.40379,-2.40379c1.36114,0.19841 3.11299,-0.37965 4.08339,0.59522c0.62669,0.62957 1.00193,1.21957 1.20982,1.78815c4.16544,-1.51778 9.22344,-1.54777 12.35694,2.1384c0.54939,-0.35305 1.3386,-0.54744 2.3467,0.00244c2.11029,1.15106 0.95921,3.26135 0.95921,3.26135c-0.37787,0.6925 -0.75575,1.385 -1.13362,2.0775l-1.13429,2.26943c0,0 -1.07501,2.15003 -3.22503,1.07502c-2.15003,-1.07501 -1.07501,-3.22503 -1.07501,-3.22503l0.22539,-0.4506l-0.16351,-0.21419c-1.09786,-4.22278 -6.01948,-3.43776 -9.06824,-1.72672c0,0 -0.18613,0.10152 -0.47798,0.189c-0.00001,0.00278 -0.00002,0.00557 -0.00002,0.00837c-0.00626,4.36161 0.00754,8.7438 -0.01544,13.15637l-0.17762,0.78928l0.09691,-0.00361c0,0 4.19406,2.02628 3.67819,4.11865c-0.51588,2.09237 -5.18022,1.97352 -5.18022,1.97352z" stroke-width="4"/><path d="M317.64,129.17036c-0.37618,-0.35575 -0.66373,-0.89958 -0.66373,-1.73096c0,-2.4038 2.4038,-2.4038 2.4038,-2.4038l2.47275,1.64365c1.29056,3.90646 3.29813,6.22193 6.98899,7.99728c0.56684,0.27266 1.00038,0.89525 1.62634,0.95705c0.76623,0.07564 1.47659,-0.45474 2.237,-0.57563c1.84501,-0.29331 6.19705,-1.0357 6.90479,-3.41037c0.42419,-1.42326 -0.38011,-4.64806 -0.86232,-6.05966c-1.13277,-1.75302 -2.14435,-3.41524 -3.93265,-4.58509c-1.17234,-0.76691 -2.71494,-0.69226 -4.0736,-1.03365c-4.51961,-1.13561 -9.35187,-4.17213 -8.94275,-9.33387c0.08983,-1.13338 0.48015,-2.24711 0.98675,-3.26493c2.95439,-5.93575 12.16252,-7.57535 17.48256,-4.27737c1.88259,1.16705 3.55496,2.86483 4.54788,4.84478c0.30248,0.60317 0.82937,1.22991 1.01116,1.86943c0.20561,0.34112 0.28699,0.62596 0.28699,0.62596l0.75397,2.63888c0.07002,0.22549 0.10773,0.46522 0.10773,0.71376c0,1.32758 -1.07622,2.4038 -2.4038,2.4038c-1.01957,0 -1.8909,-0.63477 -2.24031,-1.53068l-0.94009,-2.25623l0.00927,-0.00386c-0.00729,-0.00894 -0.01457,-0.0179 -0.02182,-0.02687c-1.93367,-2.3899 -1.61871,-5.23813 -5.31883,-6.26547c-2.52362,-0.70069 -7.87969,0.9585 -8.93169,3.32574c-0.09203,0.20708 -0.90354,2.35319 -0.59169,2.90745c1.43966,2.5588 5.6499,2.49212 7.90782,3.16793c4.13563,1.2378 6.48137,4.57818 8.64408,8.01413c0.80784,2.45781 2.00341,7.14815 1.06072,9.70926c-1.55084,4.21335 -6.94093,6.08319 -10.78717,6.58943c-1.18284,0.15569 -2.34736,0.71853 -3.53212,0.57819c-1.08572,-0.1286 -1.98965,-0.90706 -2.98895,-1.35061c-4.60776,-2.04516 -7.45825,-5.31841 -9.20107,-9.87767z" stroke-width="1"/><path d="M354.44629,109.43789c-2.38271,-0.3177 -2.06502,-2.7004 -2.06502,-2.7004l0.4466,-3.19336c0.35445,-0.86857 0.70891,-1.73712 1.06335,-2.60569c0,0 0.92454,-2.2189 3.14343,-1.29435c2.21889,0.92454 1.29435,3.14343 1.29435,3.14343c-0.28656,0.66987 -0.57313,1.33973 -0.85969,2.00961l-0.32262,2.57576c0,0 -0.31769,2.38271 -2.7004,2.06502z" stroke-width="1"/><path d="M355.04312,135.0494c0.0288,0.00497 0.05759,0.00962 0.08639,0.01394zM349.79844,133.94621c0.7862,-3.51132 0.40263,-8.08014 0.64399,-11.47362c0.07527,-1.05817 0.23339,-2.11029 0.41804,-3.15494c0.1169,-0.66137 0.18949,-1.34688 0.40806,-1.97959c-0.18929,0.00925 -2.39211,0.06733 -2.556,-2.22717c-0.17127,-2.39769 2.22642,-2.56895 2.22642,-2.56895c1.50053,0.14871 3.40713,-0.59112 4.5016,0.44613c1.87489,1.77687 0.50845,5.20316 0.15012,7.18874c-0.59884,3.31837 -0.80387,6.88431 -0.92435,10.23281c-0.01365,0.3792 -0.18413,2.8076 -0.344,4.45777c0.21467,0.06887 0.42958,0.12695 0.64463,0.16812c0.17286,0.00351 2.39314,0.09343 2.39314,2.40365c0,2.4038 -2.4038,2.4038 -2.4038,2.4038l-0.55782,-0.02796c-1.18054,-0.18542 -2.167,-0.20743 -2.91653,-0.41328c-0.08361,0.08818 -0.16558,0.17746 -0.24542,0.26818l-1.13381,-0.44359l-0.0794,0.59555l-2.85132,-0.38018c-1.19351,-0.1407 -2.11935,-1.15581 -2.11935,-2.38715c0,-1.10055 0.7396,-2.02834 1.74888,-2.31349l2.44795,-0.75321l0.05169,0.16798c0.16219,-0.07712 0.32775,-0.14738 0.49727,-0.20965z" stroke-width="1"/><path d="M403.32072,138.01611c0,2.4038 -2.4038,2.4038 -2.4038,2.4038l-0.95358,-0.00708c-2.72065,-0.23804 -4.82317,-1.17063 -7.48869,-1.5593c0,0 -2.37585,-0.36551 -2.01033,-2.74136c0.36552,-2.37584 2.74136,-2.01033 2.74136,-2.01033c0.64058,0.10265 1.25059,0.24022 1.84552,0.39106c-0.00131,-1.30592 -0.00307,-4.90861 0.03149,-5.13089c0.40243,-2.58781 1.47367,-4.96069 1.50748,-7.67064c0.02038,-1.63328 -0.46698,-4.41669 -2.22846,-5.13296c-0.9382,-0.3815 -4.29546,-0.0422 -4.70699,-0.00008c-1.51336,0.15488 -3.04353,0.74054 -4.2467,1.67149c0,0 -0.20191,0.14684 -0.52291,0.2808c0.12475,3.93106 -0.94679,8.40123 -1.82156,12.07972l2.01567,0.5786c0,0 2.23187,0.89275 1.33912,3.12462c-0.89275,2.23187 -3.12462,1.33912 -3.12462,1.33912l-0.66478,-0.62523c-1.71843,0.26322 -3.44779,0.46329 -5.18105,0.59779c0,0 -2.39672,0.18436 -2.58109,-2.21236c-0.18436,-2.39672 2.21236,-2.58108 2.21236,-2.58108c0.33813,-0.02577 0.67611,-0.05432 1.01385,-0.08563c0.98846,-4.15241 2.76906,-10.24886 1.66154,-14.37565c-1.34696,-5.01899 -7.78987,-4.97232 -10.8821,-1.96096c-0.27411,4.3455 -2.25808,8.55427 -2.61505,12.80931c0.3062,0.3537 0.52555,0.86049 0.52555,1.58666c0,0.17804 -0.01318,0.34289 -0.03761,0.49554l0.51836,-0.01477c0,0 2.4038,0 2.4038,2.4038c0,2.4038 -2.4038,2.4038 -2.4038,2.4038l-1.71163,-0.02796c-1.59379,-0.25006 -3.21342,-0.36116 -4.82669,-0.35666c0,0 -2.4038,0.00001 -2.4038,-2.40379c0,-2.4038 2.4038,-2.4038 2.4038,-2.4038c0.2681,0.00065 0.53632,0.00392 0.80454,0.00987l-0.13149,-0.10603c0.06819,-4.3399 1.73982,-8.31615 2.54512,-12.57894c0.15502,-0.82055 0.11212,-1.6665 0.14847,-2.50076c0.02827,-0.64908 0.0005,-1.30039 0.04534,-1.94853c0.01709,-0.24694 0.38236,-0.67922 0.13995,-0.72929c-0.38822,-0.0802 -0.70662,0.3595 -1.05993,0.53924c0,0 -2.39672,0.18436 -2.58108,-2.21236c-0.18436,-2.39672 2.21236,-2.58108 2.21236,-2.58108c1.31333,0.05155 2.84963,-0.57928 3.93997,0.15463c0.80542,0.54214 1.31443,1.26024 1.63283,2.06241c5.46635,-2.73118 12.70629,-1.53227 15.41746,4.56078c1.62359,-0.91291 3.43463,-1.54415 5.2637,-1.7691c1.27693,-0.15705 2.56949,-0.27383 3.85422,-0.20536c1.13605,0.06054 2.3363,0.09694 3.36162,0.58989c7.37047,3.54352 4.49786,11.99982 3.5097,17.96504c-0.26188,1.58088 0.03103,3.20474 0.03103,4.80716l-0.08121,0.63257c0.18233,0.01983 0.36686,0.03586 0.55403,0.04758l0.58486,-0.00708c0,0 2.4038,0 2.4038,2.4038z" stroke-width="1"/><path d="M430.12709,135.62837c0,2.4038 -2.4038,2.40379 -2.4038,2.40379l0.34821,-0.06156c-1.41353,0.10581 -3.02319,1.04351 -4.2406,0.31745c-0.6939,-0.41383 -1.21377,-1.6027 -1.60625,-2.91141c-1.22445,0.45197 -2.57325,0.67302 -3.68177,0.88515c-3.99168,0.76386 -9.13435,1.71438 -12.13696,-2.03865c-2.13884,-2.67336 -1.29396,-6.34918 -1.07902,-9.35478c0.26361,-3.68635 0.83491,-7.04511 1.60828,-10.55966c0.14987,-0.68107 -1.39079,-0.13781 -2.0881,-0.12929c0,0 -2.39672,-0.18435 -2.21236,-2.58107c0.18436,-2.39672 2.58109,-2.21236 2.58109,-2.21236c1.10668,0.13505 2.35695,-0.15651 3.32002,0.40514c1.29701,0.7564 2.58064,1.88651 3.05324,3.31165c0.39591,1.1939 -0.5584,2.4563 -0.72717,3.70276c-0.38262,2.82592 -0.53958,5.60036 -0.74142,8.42943c-0.11228,1.57368 -1.05768,4.53789 0.0748,6.02953c1.47667,1.94499 5.67938,0.58875 7.47804,0.269c1.16147,-0.20648 2.70775,0.01567 3.4151,-0.92842c1.1668,-1.5573 0.578,-5.61308 0.5773,-7.28414c0,-2.35425 0.00748,-4.67666 0.11794,-7.01742c-0.86059,-0.36588 -1.46407,-1.21905 -1.46407,-2.21317c0,-1.32758 1.07622,-2.40379 2.4038,-2.40379c0.06304,0 0.12553,0.00243 0.18735,0.00719c0.06585,-0.02681 0.13458,-0.05223 0.20632,-0.07614c2.28044,-0.76015 3.04059,1.5203 3.04059,1.5203l0.50264,2.07387c-0.1823,2.71506 -0.18699,5.38898 -0.18699,8.10917c-0.0009,2.26182 0.25033,5.11988 -0.37021,7.5698c0.26944,1.86071 -0.28969,3.69195 0.88737,2.39541l0.73282,-0.06156c0,0 2.4038,0 2.4038,2.4038z" stroke-width="1"/><path d="M444.43969,138.33417c-1.16739,2.1013 -3.26869,0.93391 -3.26869,0.93391l-0.74771,-0.6661c-1.82624,-0.16105 -3.6829,0.14194 -5.47415,0.53243c0,0 -2.35224,0.4952 -2.84744,-1.85704c-0.49521,-2.35224 1.85703,-2.84744 1.85703,-2.84744c0.30833,-0.063 0.61797,-0.12338 0.92868,-0.18025c0.05765,-0.17102 0.10876,-0.27325 0.10876,-0.27325l-0.02752,0.25846c0.00125,-0.00023 0.0025,-0.00045 0.00375,-0.00068c1.00415,-6.83396 3.08759,-13.36832 3.62307,-20.32719c0.14084,-1.83037 0.1728,-3.69766 0.65976,-5.46768c0.18129,-0.65896 0.33163,-1.34166 0.63443,-1.95272c-0.51488,-0.04447 -2.26271,-0.34637 -2.26271,-2.39612c0,-2.4038 2.4038,-2.40379 2.4038,-2.40379c1.41973,0.25523 3.33255,-0.33976 4.2592,0.76572c2.22921,2.6594 -0.61395,6.70034 -0.90932,9.40993c-0.4735,4.3435 -0.5678,8.71677 -1.37142,13.05299c-0.55645,3.00256 -1.53434,5.87205 -2.0889,8.85605c0.2909,0.00515 0.58155,0.0173 0.87172,0.03714l2.71375,1.25693c0,0 2.1013,1.16738 0.93391,3.26868z" stroke-width="1"/><path d="M476.54931,137.18746c-0.52145,2.34655 -2.86801,1.8251 -2.86801,1.8251l-1.96942,-0.45072c-1.21469,-0.62461 -2.98132,-0.67952 -3.64408,-1.87383c-0.18957,-0.34162 -0.25821,-0.71067 -0.25595,-1.09538c-2.95758,1.58946 -6.69063,1.85547 -10.33159,1.54706c-2.68781,-0.22768 -3.84441,-0.01219 -6.16346,-1.89732c-4.77602,-3.8824 -6.87642,-10.91363 -5.00022,-16.74178c0.86607,-2.69035 2.56324,-4.61416 4.53273,-6.37167c-0.03505,-0.25232 -0.03221,-0.5369 0.02124,-0.8576c0.39518,-2.37109 2.76627,-1.97591 2.76627,-1.97591l0.75864,0.1596c1.8958,0.00112 3.80307,-0.40455 5.68474,-0.17348c3.71918,0.45671 7.413,2.3672 9.94892,5.19151c0.00212,-0.00465 0.00424,-0.00932 0.00638,-0.01396c1.9229,-4.17944 3.14392,-3.29314 6.65929,-3.26625c0,0 2.39672,0.18435 2.21236,2.58107c-0.18436,2.39672 -2.58108,2.21236 -2.58108,2.21236c-3.18535,-0.79989 -1.3313,2.32536 -1.25965,4.43504c0.03643,1.0726 -0.40651,4.95823 -0.66121,5.92071c-0.19884,0.75141 -0.76775,1.37995 -0.92217,2.14174c-0.33088,1.63225 0.16429,3.40817 -0.38106,4.98181c-0.13213,0.38128 -0.93636,0.47869 -0.841,0.87079c0.08094,0.3328 0.64747,-0.22359 0.97121,-0.33539l1.49206,0.31849c0,0 2.34655,0.52146 1.8251,2.86801zM455.75126,114.27384c-0.01668,0.01474 -0.02595,0.02231 -0.02595,0.02231c-1.82834,1.48815 -4.08276,3.12462 -4.78922,5.53596c-1.28419,4.38325 0.1747,8.62514 3.46115,11.71921c0.99321,0.93507 2.23304,0.71301 3.45173,0.79493c5.14306,0.34571 10.2257,-0.22849 10.49003,-6.53495c-0.00094,-1.49185 0.31432,-3.00919 0.03887,-4.47539c-1.14704,-6.1055 -7.48388,-6.96413 -12.62661,-7.06209z" stroke-width="1"/><path d="M491.02933,136.47371c0,2.4038 -2.4038,2.40379 -2.4038,2.40379l-1.65748,-0.05336c-0.15367,-0.03379 -0.30779,-0.06616 -0.46229,-0.09704c-0.94125,0.6062 -2.10183,0.21933 -2.10183,0.21933l-0.44904,-0.58126c-0.55787,-0.04546 -1.1171,-0.06791 -1.67537,-0.06459c0,0 -2.4038,0 -2.4038,-2.4038c0,-2.4038 2.4038,-2.4038 2.4038,-2.4038c0.10378,0.00051 0.20759,0.00166 0.3114,0.00345c0.48581,-3.51717 0.89894,-7.05261 1.55623,-10.54003c0.45473,-2.41274 1.53848,-4.43453 1.86115,-6.83416c-0.53965,-0.00905 -1.08035,0.00844 -1.62138,0.05632c0,0 -2.39672,0.18435 -2.58108,-2.21237c-0.18436,-2.39672 2.21236,-2.58107 2.21236,-2.58107c0.76032,-0.05182 1.51336,-0.06351 2.26053,-0.03944c0.06446,-2.28656 0.15369,-4.53361 0.80474,-6.8779c0,0 0.66037,-2.31131 2.97168,-1.65094c2.31131,0.66037 1.65093,2.97168 1.65093,2.97168c-0.60947,2.05951 -0.66378,4.09723 -0.68951,6.16164c1.3218,0.28522 2.63429,0.65718 3.94594,1.08965l0.69947,0.32273c0,0 2.15003,1.07502 1.07501,3.22504c-1.07501,2.15003 -3.22503,1.07501 -3.22503,1.07501l-0.06974,-0.06188c-0.88144,-0.29759 -1.77589,-0.56991 -2.67976,-0.7976c-0.3792,2.49813 -1.43698,4.54136 -1.88919,7.03455c-0.61136,3.37071 -1.02935,6.77329 -1.49936,10.16549c0.20099,0.03813 0.4015,0.07819 0.60149,0.12011l0.65015,-0.05337c0,0 2.4038,0 2.4038,2.4038z" stroke-width="1"/><path d="M507.57759,113.63856c-2.26386,2.68606 -5.1156,5.87579 -5.01167,9.66938c0.05544,2.02356 1.69226,5.54566 2.00797,6.23136c0.44457,0.96558 2.56639,1.5978 3.16952,1.88329c5.53524,2.62012 11.0266,2.30008 14.34405,-3.50995c0.11102,-2.41384 0.5474,-6.05722 -0.87326,-8.2219c-0.87239,-1.32928 -4.20605,-4.61967 -4.81875,-5.02055c-1.54539,-1.01112 -4.72306,-0.60115 -6.42418,-0.5999h-0.96153c0,0 -0.76521,0 -1.43216,-0.43174zM507.31806,109.89124c0.70878,-0.62852 1.69169,-0.62852 1.69169,-0.62852h0.96153c2.85783,0.00195 6.39481,-0.23923 8.96012,1.32314c1.00329,0.61104 2.5981,1.6859 3.39929,2.545c1.26518,1.35661 1.95299,2.39929 2.93559,3.97268c2.20156,3.52523 1.77476,8.28173 1.4344,12.16231c-1.51596,2.8417 -3.36556,5.6065 -6.32768,7.19173c-4.86935,2.60591 -10.04835,1.56213 -14.71218,-0.70187c-2.39445,-1.16236 -3.79707,-1.37674 -5.29186,-3.88583c-0.48935,-0.82141 -0.9278,-1.89283 -1.28596,-2.77934c-0.74688,-1.8487 -0.46355,-3.80479 -0.55215,-5.79669c-0.23276,-5.23254 7.00966,-14.71903 8.78722,-13.40261z" stroke-width="1"/><path d="M537.1751,136.7006c-1.58242,-0.37026 -3.20159,-0.60266 -4.82295,-0.71377c0,0 -0.34618,-0.02472 -0.76605,-0.18692c-0.32645,0.00072 -0.65484,0.00072 -0.98572,0.00072c0,0 -2.4038,0 -2.4038,-2.4038c0,-2.4038 2.4038,-2.40379 2.4038,-2.40379c1.01257,0 1.99796,0.00528 2.97632,-0.01406l0.40443,-1.70023c-0.02699,-4.2296 -0.00991,-8.42592 -0.01544,-12.61235c-0.00112,-0.85108 0.19442,-1.69457 0.38472,-2.5241c0.08486,-0.36988 0.71083,-0.79051 0.43563,-1.05182c-0.26417,-0.25083 -0.611,0.39681 -0.91651,0.59522c0,0 -2.4038,0 -2.4038,-2.4038c0,-2.4038 2.4038,-2.4038 2.4038,-2.4038c1.36114,0.19841 3.11299,-0.37965 4.08339,0.59522c0.62669,0.62957 1.00193,1.21957 1.20982,1.78815c4.16545,-1.51778 9.22344,-1.54777 12.35694,2.13841c0.54939,-0.35305 1.33859,-0.54744 2.34669,0.00244c2.11029,1.15106 0.95922,3.26135 0.95922,3.26135c-0.37787,0.6925 -0.75574,1.38499 -1.13362,2.0775l-1.13429,2.26944c0,0 -1.07501,2.15002 -3.22503,1.07501c-2.15002,-1.07501 -1.07501,-3.22503 -1.07501,-3.22503l0.22539,-0.4506l-0.1635,-0.21419c-1.09786,-4.22278 -6.01948,-3.43777 -9.06824,-1.72673c0,0 -0.18613,0.10153 -0.47799,0.189c-0.00001,0.00278 -0.00001,0.00557 -0.00002,0.00837c-0.00626,4.36161 0.00754,8.7438 -0.01544,13.15637l-0.17762,0.78928l0.09691,-0.0036c0,0 4.71267,0.25022 4.71861,2.29858c0.01513,5.22731 -4.37436,3.4199 -4.30623,3.82686c-0.9982,0.18034 -1.9144,-0.03327 -1.9144,-0.03327z" stroke-width="1"/></g></g></g></svg>