<svg version="1.1" xmlns="http://www.w3.org/2000/svg" xmlns:xlink="http://www.w3.org/1999/xlink" width="470.33812" height="618.5256" viewBox="0,0,470.33812,618.5256"><defs><linearGradient x1="326.31946" y1="176.71337" x2="427.11946" y2="176.71337" gradientUnits="userSpaceOnUse" id="color-1"><stop offset="0" stop-color="#d8d1ff" stop-opacity="0.38039"/><stop offset="1" stop-color="#d1fffd" stop-opacity="0.41961"/></linearGradient><linearGradient x1="392.63558" y1="158.5036" x2="392.6356" y2="175.80594" gradientTransform="translate(-999.31588,-485.16602) rotate(-0.82802) scale(2.75714,2.92461) skewX(-0.00023)" gradientUnits="userSpaceOnUse" id="color-2"><stop offset="0" stop-color="#d9d2ff"/><stop offset="1" stop-color="#d2fffd"/></linearGradient><linearGradient x1="318.92942" y1="231.09707" x2="433.54331" y2="231.09707" gradientUnits="userSpaceOnUse" id="color-3"><stop offset="0" stop-color="#d8d1ff" stop-opacity="0.38039"/><stop offset="1" stop-color="#d1fffd" stop-opacity="0.41961"/></linearGradient><linearGradient x1="326.65279" y1="61.81426" x2="427.45279" y2="61.81426" gradientUnits="userSpaceOnUse" id="color-4"><stop offset="0" stop-color="#d8d1ff" stop-opacity="0.38039"/><stop offset="1" stop-color="#d1fffd" stop-opacity="0.41961"/></linearGradient><linearGradient x1="318.92942" y1="106.37631" x2="433.54331" y2="106.37631" gradientUnits="userSpaceOnUse" id="color-5"><stop offset="0" stop-color="#d8d1ff" stop-opacity="0.38039"/><stop offset="1" stop-color="#d1fffd" stop-opacity="0.41961"/></linearGradient><linearGradient x1="377.95254" y1="167.17414" x2="377.95255" y2="188.24075" gradientTransform="translate(-771.71526,-426.44483) rotate(-0.82786) scale(2.26442,2.40203) skewX(-0.00057)" gradientUnits="userSpaceOnUse" id="color-6"><stop offset="0" stop-color="#d9d2ff"/><stop offset="1" stop-color="#d2fffd"/></linearGradient><linearGradient x1="392.30372" y1="42.83689" x2="392.30372" y2="60.13928" gradientTransform="translate(-993.50975,-146.93853) rotate(-0.8278) scale(2.75714,2.92461) skewX(0)" gradientUnits="userSpaceOnUse" id="color-7"><stop offset="0" stop-color="#d9d2ff"/><stop offset="1" stop-color="#d2fffd"/></linearGradient><linearGradient x1="379.11856" y1="51.507" x2="379.11857" y2="72.57365" gradientTransform="translate(-770.34466,-148.6013) rotate(-0.82786) scale(2.26442,2.40203) skewX(-0.00077)" gradientUnits="userSpaceOnUse" id="color-8"><stop offset="0" stop-color="#d9d2ff"/><stop offset="1" stop-color="#d2fffd"/></linearGradient></defs><g transform="translate(-314.51671,153.33419)"><g data-paper-data="{&quot;isPaintingLayer&quot;:true}" fill-rule="nonzero" stroke-linecap="butt" stroke-linejoin="miter" stroke-miterlimit="10" stroke-dasharray="" stroke-dashoffset="0" style="mix-blend-mode: normal"><path d="M315.77344,465.19141v-553.5h131v553.5z" fill-opacity="0.00784" fill="#d8d1ff" stroke="none" stroke-width="0"/><path d="M418.48847,285.10425v-438.43844h366.36637v438.43844z" fill-opacity="0.00784" fill="#d8d1ff" stroke="none" stroke-width="0"/><path d="M440.24474,257.99926c0,29.11972 -23.44427,29.82324 -57.91016,29.82324c-1.84682,0 -9.05117,0.83155 -10.85722,0.69877c-31.89901,-2.3451 -56.04468,-2.96263 -56.04468,-30.52199c0,-15.64898 0.44032,-118.09577 4.65487,-166.76686c3.62791,-41.89638 9.62079,-31.97383 25.56466,-31.97383c23.93012,0 72.03223,-26.72779 91.98921,33.01041c3.68263,11.02341 2.6033,160.55962 2.6033,165.73029z" fill="#3983e5" stroke="#000000" stroke-width="1.5"/><path d="M326.31946,185.39758v-17.36842c0,0 36.09938,-4.63158 53.31789,-4.63158c16.33492,0 47.48211,4.63158 47.48211,4.63158v17.36842c0,0 -30.99877,-4.63158 -47.08421,-4.63158c-17.40968,0 -53.71579,4.63158 -53.71579,4.63158z" fill="url(#color-1)" stroke="none" stroke-width="0"/><text transform="translate(359.866,170.81141) rotate(0.78061) scale(0.36269,0.34193) skewX(-0.09188)" font-size="40" xml:space="preserve" data-paper-data="{&quot;index&quot;:null}" fill="url(#color-2)" fill-rule="nonzero" stroke="#ffffff" stroke-width="1" stroke-linecap="butt" stroke-linejoin="miter" stroke-miterlimit="10" stroke-dasharray="" stroke-dashoffset="0" font-family="Playful" font-weight="normal" text-anchor="start" style="mix-blend-mode: normal"><tspan x="0" dy="0">Child</tspan></text><path d="M433.54331,231.09707c0,9.44571 6.71528,32.64532 -8.11042,40.40073c-18.6501,9.75597 -61.16373,2.99831 -78.7965,2.99831c-31.64975,0 -27.70696,-22.07102 -27.70696,-43.39904c0,-21.13864 4.89659,-39.41377 36.1583,-39.71707c0.28008,-0.00273 20.86761,1.09928 21.14864,1.09928c8.35956,0 31.44524,0.47061 38.60634,2.63881c19.95119,6.04073 18.70061,20.28427 18.70061,35.97898z" fill="url(#color-3)" stroke="none" stroke-width="0"/><path d="M440.24474,125.6868c0,27.51047 -23.44427,28.17511 -57.91016,28.17511c-1.84682,0 -9.05117,0.7856 -10.85722,0.66015c-31.89901,-2.2155 -56.04468,-2.79891 -56.04468,-28.83525c0,-27.51047 -4.24636,-187.75764 30.21953,-187.75764c23.93012,0 72.03223,-25.25073 91.98921,31.18615c3.68263,10.41422 2.6033,151.68658 2.6033,156.5715z" fill="#3983e5" stroke="#000000" stroke-width="1.5"/><path d="M326.65279,65.56426v-7.5c0,0 36.09938,-2 53.31789,-2c16.33492,0 47.48211,2 47.48211,2v7.5c0,0 -30.99877,-2 -47.08421,-2c-17.40968,0 -53.71579,2 -53.71579,2z" fill="url(#color-4)" stroke="none" stroke-width="0"/><path d="M433.54331,106.37631c0,8.56082 6.71528,29.58705 -8.11042,36.61592c-18.6501,8.84201 -61.16373,2.71742 -78.7965,2.71742c-31.64975,0 -27.70696,-20.00337 -27.70696,-39.33334c0,-19.15833 4.89659,-35.72142 36.1583,-35.9963c0.28008,-0.00247 20.86761,0.9963 21.14864,0.9963c8.35956,0 31.44524,0.42652 38.60634,2.3916c19.95119,5.47482 18.70061,18.384 18.70061,32.6084z" fill="url(#color-5)" stroke="none" stroke-width="0"/><text transform="translate(338.04634,182.15888) rotate(0.78044) scale(0.44161,0.41632) skewX(-0.09159)" font-size="40" xml:space="preserve" data-paper-data="{&quot;index&quot;:null}" fill="url(#color-6)" fill-rule="nonzero" stroke="#ffffff" stroke-width="1" stroke-linecap="butt" stroke-linejoin="miter" stroke-miterlimit="10" stroke-dasharray="" stroke-dashoffset="0" font-family="Playful" font-weight="normal" text-anchor="start" style="mix-blend-mode: normal"><tspan x="0" dy="0">Upgrades</tspan></text><g stroke="#ffffff" stroke-width="1" font-family="Playful" font-weight="normal" font-size="40" text-anchor="start"><text transform="translate(359.53267,55.14475) rotate(0.78041) scale(0.36269,0.34193) skewX(-0.09208)" font-size="40" xml:space="preserve" data-paper-data="{&quot;index&quot;:null}" fill="url(#color-7)" fill-rule="nonzero" stroke="#ffffff" stroke-width="1" stroke-linecap="butt" stroke-linejoin="miter" stroke-miterlimit="10" stroke-dasharray="" stroke-dashoffset="0" font-family="Playful" font-weight="normal" text-anchor="start" style="mix-blend-mode: normal"><tspan x="0" dy="0">Kicker</tspan></text><text transform="translate(339.21301,66.49222) rotate(0.78044) scale(0.44161,0.41632) skewX(-0.0914)" font-size="40" xml:space="preserve" data-paper-data="{&quot;index&quot;:null}" fill="url(#color-8)" fill-rule="nonzero" stroke="#ffffff" stroke-width="1" stroke-linecap="butt" stroke-linejoin="miter" stroke-miterlimit="10" stroke-dasharray="" stroke-dashoffset="0" font-family="Playful" font-weight="normal" text-anchor="start" style="mix-blend-mode: normal"><tspan x="0" dy="0">Upgrades</tspan></text></g></g></g></svg>