<svg version="1.1" xmlns="http://www.w3.org/2000/svg" xmlns:xlink="http://www.w3.org/1999/xlink" width="55.32257" height="136.05874" viewBox="0,0,55.32257,136.05874"><defs><radialGradient cx="333.37279" cy="156.50389" r="26.05961" gradientUnits="userSpaceOnUse" id="color-1"><stop offset="0" stop-color="#afb0e0" stop-opacity="0"/><stop offset="1" stop-color="#afb0e0" stop-opacity="0.31373"/></radialGradient></defs><g transform="translate(-297.73083,-134.37219)"><g data-paper-data="{&quot;isPaintingLayer&quot;:true}" fill-rule="nonzero" stroke-linejoin="miter" stroke-miterlimit="10" stroke-dasharray="" stroke-dashoffset="0" style="mix-blend-mode: normal"><path d="M307.08562,235.57536c-0.26464,-11.05439 7.76327,-7.00944 14.24749,-7.65497c0.29674,-0.02955 2.08333,6.69615 2.35026,15.3609c1.01398,7.40048 -5.14392,22.68086 -5.13489,22.68795c-0.15551,0.02248 -13.33288,-1.88619 -15.33398,-1.46322c-0.10762,-0.60498 3.11413,-9.08302 4.29839,-17.25604c0.64427,-4.44634 -0.36468,-9.05991 -0.42727,-11.67463z" fill="#a68f79" stroke="#000000" stroke-width="2" stroke-linecap="butt"/><path d="M312.68108,219.76162c0.90712,4.85484 -0.5369,8.22671 -3.97813,9.07153c-3.44124,0.84482 -6.11148,-2.94324 -7.01861,-7.79807c-0.27871,-1.49165 -1.00194,-6.49042 -1.63568,-12.74237c1.48978,-0.4802 2.97698,-0.94309 4.49626,-1.3038c2.03791,-0.48385 4.05432,-1.06792 6.0663,-1.6749c1.00806,7.01824 1.76809,12.83263 2.06986,14.44764z" fill="#ffffff" stroke="#000000" stroke-width="2" stroke-linecap="butt"/><path d="M330.35767,184.26825c-0.03644,3.48924 -5.1667,6.26456 -11.45878,6.19884c-6.29208,-0.06571 -11.36326,-2.94757 -11.32682,-6.43681c0.03644,-3.48924 1.63557,-5.36919 7.92764,-5.30348c6.29208,0.06571 14.8944,2.0522 14.85796,5.54144z" fill="#334865" stroke="#000000" stroke-width="2" stroke-linecap="butt"/><path d="M336.73477,223.68932c-1.27644,3.84747 -4.97115,6.0779 -8.25236,4.98182c-3.28121,-1.09608 -4.90638,-5.1036 -3.62992,-8.95105c0.36467,-1.0992 1.44482,-4.5515 2.87965,-8.90122c1.95315,0.06858 3.90796,0.16991 5.8246,0.44148c2.00416,0.28399 4.03337,0.17856 6.02568,0.49086c0.0818,0.01282 0.16481,0.0324 0.24838,0.05599c-1.29887,5.80115 -2.66082,10.57031 -3.09604,11.8821z" data-paper-data="{&quot;index&quot;:null}" fill="#ffffff" stroke="#000000" stroke-width="2" stroke-linecap="butt"/><path d="M329.74458,184.31607c4.18709,-0.43045 8.26241,12.18921 10.12797,22.03058c0.45434,2.39676 -0.30322,1.77694 0.02815,4.0627c-0.11652,0.00454 -0.21609,0.01167 -0.28359,0.02672c-1.97491,0.44046 -3.83329,1.29669 -5.80855,1.76877c-1.85913,0.44431 -3.69361,1.06019 -5.51508,1.7088c-0.5364,-11.81053 -0.97461,-29.34819 1.45109,-29.59756z" data-paper-data="{&quot;index&quot;:null}" fill="#334865" stroke="#000000" stroke-width="2" stroke-linecap="butt"/><path d="M325.2705,233.92053c-1.02384,-10.15252 5.2827,-7.07533 10.08422,-8.19083c0.21974,-0.05105 2.05848,6.54982 4.02999,13.94826c1.79323,6.72942 -1.27724,21.28775 -1.26996,21.29354c-0.11463,0.03319 -12.11301,-0.66381 -13.57809,-0.11363c-0.12569,-0.54813 1.65054,-8.60988 1.92566,-16.22708c0.14967,-4.14396 -0.94965,-8.30887 -1.19182,-10.71028z" fill="#a68f79" stroke="#000000" stroke-width="2" stroke-linecap="butt"/><path d="M342.38924,265.28856c0.09305,1.12256 -16.81621,1.67752 -16.90927,0.55497c-0.01401,-0.16905 -0.26422,-2.41241 -0.59894,-5.7745c1.74577,-0.38263 4.18897,-0.36596 5.43546,-0.74848c2.73726,-0.84339 5.97636,-1.03704 8.88536,-1.44586c0.45126,0.468 1.14855,1.24657 1.64968,2.06289c1.09254,1.77973 1.484,4.70301 1.53771,5.35095z" fill="#ffffff" stroke="#000000" stroke-width="2" stroke-linecap="butt"/><path d="M323.22916,268.84626c-0.02296,1.21853 -20.32772,0.3399 -20.30476,-0.87862c0.00221,-0.11714 0.03073,-1.24067 0.08714,-3.06615c1.79293,-0.6225 3.78894,-1.59415 5.00962,-2.17572c2.48969,-0.86142 5.05759,-2.24903 7.59605,-2.24903c1.36654,0 2.83296,0 4.21431,0c-0.00285,0.22885 -0.00443,0.35022 -0.00443,0.35022c0,0 1.32491,1.45171 2.07648,2.94818c1.02607,2.04302 1.33884,4.36778 1.32559,5.07113z" fill="#ffffff" stroke="#000000" stroke-width="2" stroke-linecap="butt"/><path d="M316.90126,234.79568v-4.31137h14.09936v4.31137z" fill="#a68f79" stroke="none" stroke-width="0" stroke-linecap="butt"/><path d="M307.04492,231.51411c0,0 0.00634,-17.61312 1.37774,-28.45657c1.54943,-12.25126 5.10815,-22.82333 14.25424,-22.99981c11.49861,-0.22187 12.34035,14.54158 13.74898,28.03052c1.07564,10.30035 1.52119,25.53282 1.52119,25.53282" fill="#334865" stroke="#000000" stroke-width="2" stroke-linecap="round"/><path d="M316.67384,184.12678c2.24937,0.7917 -2.7578,16.22709 -6.77969,27.84316c-2.08376,-0.50887 -4.16205,-1.03703 -6.21772,-1.65249c-1.51361,-0.45317 -3.04038,-0.81588 -4.57662,-1.16554c0.53057,-1.30731 -0.04709,-1.75956 0.55343,-3.14561c4.61641,-10.65512 12.21935,-23.5694 17.02061,-21.87952z" fill="#334865" stroke="#000000" stroke-width="2" stroke-linecap="butt"/><path d="M318.82561,191.1305c-0.01179,1.12915 -1.79157,1.23544 -2.53864,2.68343c-1.84155,3.56933 -3.93769,8.62394 -5.44428,8.6082c-2.11777,-0.02212 0.27291,-7.45922 0.31377,-11.37173c0.04086,-3.91251 2.31481,-7.45082 4.43258,-7.42871c0.4366,0.00456 1.61412,-0.29787 1.96715,-0.01954c1.3594,1.07176 1.30187,4.42243 1.26943,7.52834z" fill="#334865" stroke="none" stroke-width="0" stroke-linecap="butt"/><path d="M327.9737,184.32695c0.58666,-0.08163 1.58327,0.03554 2.72293,0.84915c1.60839,1.14823 4.44376,5.33189 4.6679,6.94675c0.38296,2.75909 1.93711,6.02844 0.52251,6.22529c-0.64899,0.09031 -0.70692,-2.67579 -1.75599,-4.29928c-0.57767,-0.89396 -1.9472,-1.71522 -2.49985,-2.55422c-0.63134,-0.95849 -1.83152,-0.88121 -1.94204,-1.67749c-0.38296,-2.75909 -3.13006,-5.29334 -1.71546,-5.49018z" data-paper-data="{&quot;index&quot;:null}" fill="#334865" stroke="none" stroke-width="0" stroke-linecap="butt"/><path d="M321.41056,235.45275l7.72377,0.33102" fill="none" stroke="#000000" stroke-width="2" stroke-linecap="round"/><path d="M330.47829,182.63537c-0.00823,0.78784 -0.43019,1.82057 -1.25326,2.7968c-0.9398,1.11473 -2.46519,2.12369 -5.58299,2.05196c-2.81321,-0.06472 -3.12618,-0.98372 -3.94479,-2.17765c-0.63602,-0.92762 -2.06945,-2.06742 -2.06175,-2.80523c0.01762,-1.68742 2.90686,-3.02532 6.4533,-2.98828c3.54644,0.03704 6.40711,1.43499 6.38949,3.12241z" fill="#ffffff" stroke="#000000" stroke-width="2" stroke-linecap="butt"/><path d="M348.64463,163.3866c-0.10269,1.87661 0.23514,4.5033 -0.09891,6.18512c-2.44565,12.31295 -11.54316,16.11843 -21.88234,15.57096c-11.98356,-0.63453 -21.56731,-9.81805 -20.81884,-23.49413c0.74848,-13.6761 11.19635,-23.90521 23.1799,-23.27067c11.98356,0.63453 20.36864,11.33263 19.62018,25.00873z" fill="#ffffff" stroke="#000000" stroke-width="2" stroke-linecap="butt"/><path d="M328.56545,165.53987c-0.30842,2.7825 -1.4177,4.94291 -2.47764,4.82543c-1.05993,-0.11749 -1.66915,-2.46839 -1.36073,-5.25089c0.30842,-2.7825 1.41769,-4.9429 2.47762,-4.82543c1.05993,0.11749 1.66917,2.46839 1.36075,5.25088z" fill="#000000" stroke="none" stroke-width="0" stroke-linecap="butt"/><path d="M342.42317,167.06435c-0.25429,2.29414 -1.1689,4.07538 -2.04279,3.97851c-0.8739,-0.09687 -1.37622,-2.03517 -1.12192,-4.3293c0.25429,-2.29414 1.1689,-4.07538 2.04279,-3.97851c0.8739,0.09687 1.37622,2.03516 1.12192,4.3293z" fill="#000000" stroke="none" stroke-width="0" stroke-linecap="butt"/><path d="M339.73735,174.99346c0,0 -3.33193,-0.33862 -5.08449,-0.6477c-1.71419,-0.30231 -5.3183,-1.18691 -5.3183,-1.18691c0,0 -4.28684,-0.03184 -7.02206,-0.51421c-2.83147,-0.49935 -9.68798,-2.43272 -9.68798,-2.43272" fill="none" stroke="#000000" stroke-width="2" stroke-linecap="round"/><path d="M315.81811,218.10172l-3.26557,9.57969" fill="none" stroke="#000000" stroke-width="2" stroke-linecap="round"/><path d="M334.46919,226.43486l-1.57018,-6.81639" fill="none" stroke="#000000" stroke-width="2" stroke-linecap="round"/><path d="M331.90593,184.45718c0,0 -1.28372,4.85327 -5.8489,5.33258c-4.10726,0.43124 -7.65283,-1.17844 -9.21828,-2.63757c-1.9375,-1.80589 -1.37075,-3.59916 -1.37075,-3.59916" fill="none" stroke="#000000" stroke-width="1.5" stroke-linecap="round"/><path d="M322.46373,189.5525c0,0 0.57664,2.37358 0.3472,3.45671c-0.0968,0.45695 -0.87968,1.06297 -1.19399,1.63984c-0.51645,0.94787 -0.61773,1.81706 -0.61773,1.81706" fill="none" stroke="#000000" stroke-width="1.5" stroke-linecap="round"/><path d="M327.19168,189.53528c0,0 0.49177,2.45269 0.20506,3.55428c-0.14472,0.55603 -0.92642,1.3223 -1.34417,2.01677c-0.55775,0.92721 -0.76021,1.72642 -0.76021,1.72642" fill="none" stroke="#000000" stroke-width="1.5" stroke-linecap="round"/><path d="M307.46285,230.9504l30.06309,1.51481" fill="none" stroke="#000000" stroke-width="2" stroke-linecap="round"/><path d="M327.21594,154.20101l-7.27179,-1.11997" fill="none" stroke="#000000" stroke-width="2" stroke-linecap="round"/><g stroke-linecap="butt"><path d="M351.68633,166.10583c-1.49897,9.03553 -7.3241,15.94057 -14.92327,19.15113c-0.78967,0.33362 0.23875,-0.14568 1.36359,0.60885c1.78537,1.1976 1.65094,2.2396 -1.95826,2.35068c-3.89193,0.11979 -9.88801,-0.39632 -15.66763,-1.4779c-3.82465,-0.71574 -8.2992,-2.07263 -9.3336,-2.24423c-2.41279,-0.40028 -4.59135,-2.41895 -2.58703,-3.28401c1.48313,-0.64012 1.30894,-0.53685 0.80471,-1.03408c-5.61838,-5.54048 -8.45071,-13.75339 -7.00206,-22.48561c2.345,-14.13522 15.01959,-24.27848 28.76874,-21.99753c13.74915,2.28095 22.87981,16.27751 20.53481,30.41274z" fill="url(#color-1)" stroke="#111111" stroke-width="2"/><path d="M345.77754,150.90509c0.14535,2.63896 -2.06516,3.66296 -4.31044,2.22606c-0.41247,-0.26397 -1.31861,-2.70352 -1.77804,-3.14195c-1.33487,-1.27386 -3.81553,-1.55324 -4.45646,-3.2835c-0.65574,-0.54961 -1.01212,-1.4218 -0.86196,-2.32698c0.22597,-1.36209 1.51335,-2.28311 2.87544,-2.05714c0.51628,0.08565 0.96919,0.32378 1.32029,0.66069c3.40311,0.69807 7.02599,4.56108 7.21114,7.92284z" fill="#ffffff" stroke="none" stroke-width="0.5"/></g></g></g></svg>