<svg version="1.1" xmlns="http://www.w3.org/2000/svg" xmlns:xlink="http://www.w3.org/1999/xlink" width="260.0496" height="193.13006" viewBox="0,0,260.0496,193.13006"><defs><linearGradient x1="343.55478" y1="50.86483" x2="452.05857" y2="50.86483" gradientUnits="userSpaceOnUse" id="color-1"><stop offset="0" stop-color="#d8d1ff" stop-opacity="0"/><stop offset="1" stop-color="#d8d1ff" stop-opacity="0.19608"/></linearGradient><linearGradient x1="344.25781" y1="88.04297" x2="530.65623" y2="88.04297" gradientUnits="userSpaceOnUse" id="color-2"><stop offset="0" stop-color="#d8d1ff" stop-opacity="0"/><stop offset="1" stop-color="#d8d1ff" stop-opacity="0.03137"/></linearGradient><linearGradient x1="344.25781" y1="88.04297" x2="530.65623" y2="88.04297" gradientUnits="userSpaceOnUse" id="color-3"><stop offset="0" stop-color="#d8d1ff" stop-opacity="0"/><stop offset="1" stop-color="#d8d1ff" stop-opacity="0.03137"/></linearGradient></defs><g transform="translate(-258.25782,45.42705)"><g data-paper-data="{&quot;isPaintingLayer&quot;:true}" fill-rule="nonzero" stroke-linecap="butt" stroke-linejoin="miter" stroke-miterlimit="10" stroke-dasharray="" stroke-dashoffset="0" style="mix-blend-mode: normal"><path d="M427.45724,146.19427c-46.77021,-3.65794 -83.19943,-22.88876 -83.19943,-58.15129c0,-37.00848 -9.41665,-132.31648 40.6769,-133.47003c0.91802,-0.02114 44.48964,56.07185 51.56977,64.16771v3.05132l-0.06231,0.09346l0.06231,0.28038v0.27864l0.55728,2.22912l0.49845,2.24301l0.12461,0.24922l0.06966,0.27864l0.09752,0.05573l0.23349,0.46697l0.08431,1.09604l0.57608,1.72823l0.06291,0.09886v4.22787l0.38988,1.55951l0.12329,1.60277l0.57608,1.72823l0.71709,1.12686l0.44923,1.25786l0.62482,0.93722v2.15694l0.29856,1.1943v1.23106l0.57608,2.30431l0.02675,0.05015l-0.04804,0.17614l1.27785,2.12975l0.40714,0.76339l0.15583,0.62333l0.12329,1.60277l0.06291,0.18873v0.02906l-0.06231,0.09346l0.06231,0.28038v0.27864l0.55728,2.22912l0.49845,2.24301l0.12461,0.24922l0.06966,0.27864l0.09752,0.05573l0.28428,0.56856l0.41124,0.47978l0.21253,0.59509l0.28582,0.42873l0.41621,3.32969l0.13472,0.34804l-0.01774,0.37278l0.38188,1.90942v1.31411l0.45934,1.83736l0.25589,1.87654l0.43692,1.0923v6.63893l-0.06231,0.09346l0.06231,0.28038v0.27864l0.55728,2.22912l0.0188,0.08458v7.4796l0.15326,0.61304l-0.07604,0.62731l0.49886,3.99085v7.3661l-0.06231,0.09346l0.06231,0.28038v0.27864l0.55728,2.22912l0.49845,2.24301l0.12461,0.24922l0.06966,0.27864l0.09752,0.05573l0.28429,0.56856l0.09643,0.1125v1.75894l-0.85359,1.60046l-0.30984,1.23936l-0.08515,0.17032l-0.49845,2.24301l-0.55728,2.22912v0.27864l-0.06231,0.28038l0.06231,0.09346v0.06427l-0.04873,0.0731l-0.13532,0.3789l-0.29417,0.1681l-0.54632,2.1853l-0.75762,2.12133l0.15152,0.30305l-0.09758,0.39033v19.86625c-3.94873,-0.04469 -17.39388,-0.71414 -20.56879,-0.96245z" fill="url(#color-1)" stroke="none" stroke-width="0"/><path d="M410.801,42.57456c6.66783,-3.34751 19.67234,-4.3428 20.17726,-4.37178l9.81247,-0.56299c0.71465,-0.04101 4.33774,2.79062 6.70398,29.59397c6.60122,74.77456 -0.19837,79.17732 -0.92887,79.21924l-9.81246,0.56299c-0.47435,0.02722 -20.91248,-0.0562 -23.45373,-3.52354c-8.0833,-11.029 -6.92231,-78.75338 -3.87688,-96.62912c0.42889,-2.51746 0.89516,-4.04625 1.37824,-4.28878z" data-paper-data="{&quot;index&quot;:null}" fill="#748eff" stroke="#000000" stroke-width="2.5"/><path d="M518.10466,95.15605l0.20276,-0.91246v0.82797z" fill="url(#color-2)" stroke="none" stroke-width="0"/><path d="M472.10177,145.16915l0.24784,0.14162l0.04574,0.08576c-0.13327,0.02105 -0.26674,0.04191 -0.40041,0.06259z" fill="url(#color-3)" stroke="none" stroke-width="0"/><path d="M412.147,43.01716c6.66783,-3.30867 19.67234,-4.29241 20.17726,-4.32105l9.81247,-0.55646c0.71465,-0.04053 4.33774,2.75824 6.70398,29.25057c6.60122,73.9069 -0.19837,78.25858 -0.92887,78.30001l-9.81246,0.55646c-0.47435,0.0269 -20.91248,-0.05555 -23.45373,-3.48265c-8.0833,-10.90102 -6.92231,-77.83956 -3.87688,-95.50787c0.42889,-2.48825 0.89516,-3.9993 1.37824,-4.23901z" data-paper-data="{&quot;index&quot;:null}" fill="#3983e5" stroke="#000000" stroke-width="1.5"/><text transform="translate(430.13926,138.26074) rotate(-91.11619) scale(0.5,0.5)" font-size="40" xml:space="preserve" data-paper-data="{&quot;index&quot;:null}" fill="#d9d2ff" fill-rule="nonzero" stroke="#ffffff" stroke-width="1" stroke-linecap="butt" stroke-linejoin="miter" stroke-miterlimit="10" stroke-dasharray="" stroke-dashoffset="0" font-family="Playful" font-weight="normal" text-anchor="start" style="mix-blend-mode: normal"><tspan x="0" dy="0">Upgrades</tspan></text><path d="M258.25782,123.04297z" fill-opacity="0.03137" fill="#d8d1ff" stroke="none" stroke-width="0"/></g></g></svg>