<svg version="1.1" xmlns="http://www.w3.org/2000/svg" xmlns:xlink="http://www.w3.org/1999/xlink" width="118.00724" height="152.6375" viewBox="0,0,118.00724,152.6375"><g transform="translate(-260.82364,-103.45871)"><g data-paper-data="{&quot;isPaintingLayer&quot;:true}" fill="#fff6b5" fill-rule="nonzero" stroke="#ddd173" stroke-width="4" stroke-linecap="butt" stroke-linejoin="miter" stroke-miterlimit="10" stroke-dasharray="" stroke-dashoffset="0" style="mix-blend-mode: normal"><path d="M268.72443,245.0258c0,0 4.25908,-59.34766 -2.76166,-84.42232c-4.65008,-16.6079 -3.24079,-33.5401 -1.44031,-44.20155c1.14659,-6.78958 7.98548,-10.9888 13.36808,-10.94285c12.63261,0.10783 64.5185,0.55071 82.17286,0.70142c3.71387,0.03169 2.43831,2.25263 2.86783,11.9782c0.16689,3.77884 0.92318,8.69354 2.7017,15.0561c4.21723,15.08699 9.69469,44.9115 11.19795,71.65334c1.21283,21.57572 -1.15715,42.36195 -1.15715,42.36195c0,0 2.6629,6.23955 -7.61324,6.88611c-25.06541,1.57712 -79.54507,-1.52466 -91.69832,-1.77287c-6.49546,-0.13266 -7.63773,-7.29753 -7.63773,-7.29753z"/></g></g></svg>