<svg version="1.1" xmlns="http://www.w3.org/2000/svg" xmlns:xlink="http://www.w3.org/1999/xlink" width="12.25" height="17.74452" viewBox="0,0,12.25,17.74452"><g transform="translate(-313.875,-171.12774)"><g data-paper-data="{&quot;isPaintingLayer&quot;:true}" fill="#ff0000" fill-rule="nonzero" stroke="none" stroke-width="0.5" stroke-linecap="butt" stroke-linejoin="miter" stroke-miterlimit="10" stroke-dasharray="" stroke-dashoffset="0" style="mix-blend-mode: normal"><path d="M316.40948,184.57571c0.44668,-0.27247 1.37117,-0.55168 2.47995,-0.74713c0.1682,-2.06988 0.62298,-4.33629 -0.36506,-5.82513c-0.0483,-0.07279 -2.94713,1.95837 -3.60925,0.70189l-1.04012,-1.97379c0.27616,-0.52406 0.88179,-1.36495 1.65998,-2.23768c1.77454,-1.99012 4.44634,-4.14574 6.15468,-3.08718c0.53205,0.32968 1.02432,1.36918 1.05603,2.00398c0.137,2.74236 0.88342,7.01852 0.95671,10.31386c1.39574,0.26233 2.4226,0.87921 2.4226,2.05356c0,0.76936 -0.55434,1.45996 -1.05603,2.00398c-0.43461,0.47128 -7.03309,1.13426 -7.60345,1.08788c-0.06173,-0.00502 -0.12764,-0.00747 -0.19546,-0.00967c-1.07483,-0.10695 -1.91661,-1.08717 -1.91661,-2.28059c0,-0.74532 0.32832,-1.40749 0.83668,-1.82572c0.06502,-0.06826 0.13752,-0.12836 0.21935,-0.17826z"/></g></g></svg>